<svg width="22" height="22" viewBox="0 0 22 22" fill="none" xmlns="http://www.w3.org/2000/svg">
<path d="M11 14.0771C12.6646 14.0771 14.0141 12.6995 14.0141 11.0001C14.0141 9.3008 12.6646 7.92322 11 7.92322C9.33527 7.92322 7.98578 9.3008 7.98578 11.0001C7.98578 12.6995 9.33527 14.0771 11 14.0771Z" stroke="#5B3F91" stroke-width="2" stroke-miterlimit="10" stroke-linecap="round" stroke-linejoin="round"/>
<path d="M19.86 6.66615L19.1065 5.33385C18.6905 4.59769 17.7689 4.34615 17.0478 4.77077L16.6514 5.00462C15.1443 5.89231 13.2605 4.78231 13.2605 3.00615V2.53846C13.2605 1.68846 12.586 1 11.7534 1H10.2463C9.41362 1 8.7392 1.68846 8.7392 2.53846V3.00615C8.7392 4.78231 6.85533 5.89308 5.34824 5.00462L4.95188 4.77077C4.23073 4.34615 3.30915 4.59769 2.89319 5.33385L2.13965 6.66615C1.72369 7.40231 1.9701 8.34308 2.69124 8.76769L3.08761 9.00154C4.5947 9.89 4.5947 12.11 3.08761 12.9985L2.69124 13.2323C1.9701 13.6569 1.72369 14.5977 2.13965 15.3338L2.89319 16.6662C3.30915 17.4023 4.23073 17.6538 4.95188 17.2292L5.34824 16.9954C6.85533 16.1069 8.7392 17.2177 8.7392 18.9938V19.4615C8.7392 20.3115 9.41362 21 10.2463 21H11.7534C12.586 21 13.2605 20.3115 13.2605 19.4615V18.9938C13.2605 17.2177 15.1443 16.1069 16.6514 16.9954L17.0478 17.2292C17.7689 17.6538 18.6905 17.4023 19.1065 16.6662L19.86 15.3338C20.276 14.5977 20.0296 13.6569 19.3084 13.2323L18.9121 12.9985C17.405 12.11 17.405 9.89 18.9121 9.00154L19.3084 8.76769C20.0296 8.34308 20.2767 7.40231 19.86 6.66615Z" stroke="#5B3F91" stroke-width="2" stroke-miterlimit="10" stroke-linecap="round" stroke-linejoin="round"/>
</svg>
