<svg width="40" height="41" viewBox="0 0 40 41" fill="none" xmlns="http://www.w3.org/2000/svg">
<path fill-rule="evenodd" clip-rule="evenodd" d="M20.0001 5.83333C11.7158 5.83333 5.00008 12.5491 5.00008 20.8333C5.00008 29.1176 11.7158 35.8333 20.0001 35.8333C28.2844 35.8333 35.0001 29.1176 35.0001 20.8333C35.0001 12.5491 28.2844 5.83333 20.0001 5.83333ZM1.66675 20.8333C1.66675 10.7081 9.87486 2.5 20.0001 2.5C30.1253 2.5 38.3334 10.7081 38.3334 20.8333C38.3334 30.9586 30.1253 39.1667 20.0001 39.1667C9.87486 39.1667 1.66675 30.9586 1.66675 20.8333ZM20.0001 12.5C20.9206 12.5 21.6667 13.2462 21.6667 14.1667V20.8333C21.6667 21.7538 20.9206 22.5 20.0001 22.5C19.0796 22.5 18.3334 21.7538 18.3334 20.8333V14.1667C18.3334 13.2462 19.0796 12.5 20.0001 12.5ZM20.0001 25.8333C19.0796 25.8333 18.3334 26.5795 18.3334 27.5C18.3334 28.4205 19.0796 29.1667 20.0001 29.1667H20.0168C20.9372 29.1667 21.6834 28.4205 21.6834 27.5C21.6834 26.5795 20.9372 25.8333 20.0168 25.8333H20.0001Z" fill="#5B3F91"/>
</svg>
