<svg width="24" height="24" viewBox="0 0 24 24" fill="none" xmlns="http://www.w3.org/2000/svg">
<path d="M22 7.33C21.99 3.929 20.07 2 16.669 2H7.33C3.929 2 2 3.929 2 7.33V16.67C2 20.07 3.929 22 7.33 22H16.669C20.07 22 22 20.07 22 16.67V7.33Z" stroke="#5B3F91" stroke-width="2"/>
<path d="M12.5 6.13C12.219 5.96 11.879 5.96 11.61 6.13C11.339 6.299 11.19 6.61 11.219 6.92V17.11C11.27 17.54 11.629 17.86 12.049 17.86C12.48 17.86 12.839 17.54 12.879 17.11V6.92C12.919 6.61 12.77 6.299 12.5 6.13Z" fill="#5B3F91"/>
<path d="M7.83002 9.41C7.56002 9.24 7.21902 9.24 6.95002 9.41C6.67902 9.58 6.53002 9.889 6.56002 10.2V17.11C6.59902 17.54 6.95902 17.86 7.38902 17.86C7.82002 17.86 8.17902 17.54 8.21902 17.11V10.2C8.25002 9.889 8.09902 9.58 7.83002 9.41Z" fill="#5B3F91"/>
<path d="M17.089 13.04C16.82 12.87 16.48 12.87 16.2 13.04C15.929 13.21 15.78 13.509 15.82 13.83V17.11C15.86 17.54 16.219 17.86 16.65 17.86C17.07 17.86 17.429 17.54 17.48 17.11V13.83C17.509 13.509 17.36 13.21 17.089 13.04Z" fill="#5B3F91"/>
</svg>
