<svg width="536" height="329" viewBox="0 0 536 329" fill="none" xmlns="http://www.w3.org/2000/svg">
<g filter="url(#filter0_d_19_18218)">
<g clip-path="url(#clip0_19_18218)">
<rect x="0.5" y="0.977295" width="533" height="315" rx="18" fill="white"/>
<ellipse opacity="0.4" cx="70.8676" cy="224.059" rx="4.1908" ry="4.264" fill="#AB51D0"/>
<ellipse opacity="0.4" cx="149.989" cy="252.469" rx="4.1908" ry="4.264" fill="#AB51D0"/>
<ellipse opacity="0.4" cx="237.294" cy="145.143" rx="4.1908" ry="4.12689" fill="#AB51D0"/>
<ellipse opacity="0.4" cx="379.467" cy="215.973" rx="4.1908" ry="4.264" fill="#AB51D0"/>
<ellipse opacity="0.4" cx="418.576" cy="273.479" rx="4.1908" ry="4.264" fill="#AB51D0"/>
<path opacity="0.4" d="M-3.97266 301.293L72.1887 223.802C72.6778 223.304 73.4187 223.15 74.0656 223.412L147.165 253.002C147.867 253.287 148.672 253.079 149.15 252.492L235.549 146.202C236.394 145.162 238.05 145.441 238.508 146.701L309.855 342.943C310.368 344.354 312.315 344.481 313.007 343.148L377.877 218.213C378.489 217.035 380.147 216.961 380.861 218.081L416.673 274.255C417.355 275.325 418.92 275.317 419.591 274.24L537.244 85.312" stroke="#AB51D0" stroke-width="2.15556" stroke-linecap="round"/>
<path opacity="0.4" d="M-3.97266 369.35L68.1477 295.97C71.0827 292.984 75.5281 292.061 79.4093 293.632L141.258 318.668C145.47 320.373 150.303 319.13 153.169 315.604L225.953 226.064C231.024 219.826 240.96 221.5 243.706 229.055L303.147 392.548C306.225 401.015 317.902 401.776 322.054 393.781L370.989 299.536C374.661 292.464 384.613 292.023 388.896 298.742L409.317 330.773C413.409 337.193 422.8 337.143 426.824 330.681L537.244 153.369" stroke="#6F0085" stroke-width="2.15556" stroke-linecap="round"/>
<path d="M65.332 242.965L-3.28391 304.829C-5.64132 306.955 -6.98706 309.98 -6.98706 313.154V435.262C-6.98706 441.453 -1.96864 446.471 4.22187 446.471H522.505C528.695 446.471 533.714 441.453 533.714 435.262V155.5C533.714 144.599 519.729 140.113 513.388 148.979L423.913 274.073C419.409 280.37 410.028 280.313 405.601 273.961L386.305 246.28C381.644 239.593 371.632 239.959 367.471 246.967L319.244 328.197C314.535 336.128 302.798 335.295 299.256 326.779L240.697 185.972C237.587 178.494 227.817 176.681 222.231 182.545L148.575 259.872C145.499 263.102 140.8 264.2 136.611 262.668L76.6863 240.762C72.7857 239.336 68.4165 240.184 65.332 242.965Z" fill="#F8AA54" fill-opacity="0.42"/>
<path d="M201.699 88.2394H197.595V100.361C197.595 103.733 195.689 105.213 192.86 105.213C190.031 105.213 188.126 103.733 188.126 100.361V88.2394H184.022V100.567C184.022 106.239 187.642 109.127 192.86 109.127C198.078 109.127 201.699 106.239 201.699 100.567V88.2394ZM213.78 94.1759C211.83 94.1759 210.467 94.9674 209.544 96.1253V94.557H205.806V114.623H209.617V107.28C210.54 108.379 211.889 109.127 213.794 109.127C217.708 109.127 220.669 105.917 220.669 101.651C220.669 97.3859 217.708 94.1759 213.78 94.1759ZM213.076 97.7377C215.333 97.7377 216.741 99.482 216.741 101.651C216.741 103.821 215.333 105.565 213.076 105.565C210.907 105.565 209.426 103.894 209.426 101.651C209.426 99.4087 210.907 97.7377 213.076 97.7377ZM229.442 94.1759C225.983 94.1759 222.905 97.0634 222.905 101.431C222.905 105.785 225.983 108.672 229.442 108.672C231.407 108.672 232.843 107.94 233.81 106.752V107.749C233.81 110.197 232.14 111.516 229.765 111.516C228.065 111.516 226.496 111.003 225.074 110.065L223.711 113.187C225.309 114.316 227.684 114.902 229.926 114.902C234.617 114.902 237.592 112.146 237.592 107.588V94.557H233.84V96.14C232.872 94.9381 231.421 94.1759 229.442 94.1759ZM230.41 97.6937C232.535 97.6937 233.972 99.3061 233.972 101.431C233.972 103.542 232.535 105.155 230.41 105.155C228.226 105.155 226.833 103.484 226.833 101.431C226.833 99.3647 228.226 97.6937 230.41 97.6937ZM249.33 94.1759C247.586 94.1759 246.223 94.7768 245.329 96.1107V94.557H241.62V108.76H245.446V101.021C245.446 98.9103 246.662 97.8257 248.436 97.8257C249.213 97.8257 250.122 98.0015 250.752 98.28L251.324 94.4837C250.796 94.2931 250.151 94.1759 249.33 94.1759ZM267.427 94.557H263.69V96.1253C262.751 94.9674 261.388 94.1759 259.439 94.1759C255.525 94.1759 252.564 97.3859 252.564 101.651C252.564 105.917 255.525 109.127 259.439 109.127C261.388 109.127 262.766 108.335 263.69 107.192V108.76H267.427V94.557ZM260.142 97.7377C262.326 97.7377 263.807 99.4087 263.807 101.651C263.807 103.894 262.326 105.565 260.142 105.565C257.9 105.565 256.478 103.821 256.478 101.651C256.478 99.482 257.9 97.7377 260.142 97.7377ZM277.446 94.1759C273.532 94.1759 270.572 97.3859 270.572 101.651C270.572 105.917 273.532 109.127 277.446 109.127C279.396 109.127 280.773 108.335 281.697 107.192V108.76H285.435V87.6531H281.624V96.0374C280.7 94.9234 279.352 94.1759 277.446 94.1759ZM278.15 97.7377C280.334 97.7377 281.814 99.4087 281.814 101.651C281.814 103.894 280.334 105.565 278.15 105.565C275.907 105.565 274.485 103.821 274.485 101.651C274.485 99.482 275.907 97.7377 278.15 97.7377ZM295.761 94.1759C291.51 94.1759 288.579 97.2247 288.579 101.695C288.579 106.166 291.598 109.127 295.952 109.127C298.341 109.127 300.393 108.453 302.005 106.972L299.763 104.51C298.737 105.374 297.403 105.873 296.172 105.873C294.369 105.873 292.932 104.979 292.522 102.927H302.592C302.636 102.604 302.665 102.076 302.665 101.637C302.65 97.21 299.851 94.1759 295.761 94.1759ZM295.732 97.4739C297.374 97.4739 298.473 98.4999 298.825 100.317H292.537C292.874 98.5585 293.929 97.4739 295.732 97.4739ZM321.741 101.256C326.607 101.256 329.217 98.7051 329.217 94.7622C329.217 90.7899 326.607 88.2394 321.712 88.2394H313.342V108.76H317.432V101.256H321.741ZM321.638 92.0065C323.866 92.0065 325.024 92.9299 325.024 94.7622C325.024 96.6091 323.866 97.5178 321.638 97.5178H317.432V92.0065H321.638ZM336.198 87.6531H332.373V108.76H336.198V87.6531ZM354.2 94.557H350.463V96.1253C349.524 94.9674 348.161 94.1759 346.212 94.1759C342.298 94.1759 339.337 97.3859 339.337 101.651C339.337 105.917 342.298 109.127 346.212 109.127C348.161 109.127 349.539 108.335 350.463 107.192V108.76H354.2V94.557ZM346.915 97.7377C349.099 97.7377 350.58 99.4087 350.58 101.651C350.58 103.894 349.099 105.565 346.915 105.565C344.673 105.565 343.251 103.821 343.251 101.651C343.251 99.482 344.673 97.7377 346.915 97.7377ZM366.125 94.1759C364.512 94.1759 362.959 94.7182 361.947 96.228V94.557H358.224V108.76H362.05V100.977C362.05 98.837 363.413 97.767 365.055 97.767C366.799 97.767 367.825 98.8957 367.825 100.948V108.76H371.651V99.7165C371.651 96.4185 369.349 94.1759 366.125 94.1759Z" fill="#480E7D"/>
<path d="M160.025 80.8641C156.756 80.8641 154.097 83.6845 154.097 87.1512V90.9234H152.912C152.283 90.9234 151.68 91.1884 151.235 91.66C150.79 92.1316 150.541 92.7713 150.541 93.4382V103.498C150.541 104.164 150.79 104.804 151.235 105.276C151.68 105.747 152.283 106.012 152.912 106.012H167.138C167.767 106.012 168.37 105.747 168.815 105.276C169.26 104.804 169.509 104.164 169.509 103.498V93.4382C169.509 92.7713 169.26 92.1316 168.815 91.66C168.37 91.1884 167.767 90.9234 167.138 90.9234H165.953V87.1512C165.953 83.6845 163.294 80.8641 160.025 80.8641ZM156.468 87.1512C156.468 85.0714 158.064 83.379 160.025 83.379C161.986 83.379 163.582 85.0714 163.582 87.1512V90.9234H156.468V87.1512ZM161.211 100.634V103.498H158.839V100.634C158.425 100.383 158.092 100.004 157.885 99.5472C157.678 99.0908 157.606 98.5785 157.678 98.0778C157.751 97.5771 157.965 97.1116 158.293 96.7426C158.62 96.3736 159.045 96.1185 159.512 96.0109C159.858 95.9296 160.218 95.9319 160.564 96.0175C160.909 96.1032 161.232 96.2701 161.509 96.5059C161.786 96.7417 162.01 97.0404 162.163 97.38C162.316 97.7195 162.396 98.0913 162.396 98.4679C162.395 98.9076 162.285 99.3395 162.077 99.7198C161.869 100.1 161.57 100.416 161.211 100.634Z" fill="#480E7D"/>
</g>
</g>
<defs>
<filter id="filter0_d_19_18218" x="0.5" y="0.977295" width="545.071" height="327.071" filterUnits="userSpaceOnUse" color-interpolation-filters="sRGB">
<feFlood flood-opacity="0" result="BackgroundImageFix"/>
<feColorMatrix in="SourceAlpha" type="matrix" values="0 0 0 0 0 0 0 0 0 0 0 0 0 0 0 0 0 0 127 0" result="hardAlpha"/>
<feOffset dx="6.89779" dy="6.89779"/>
<feGaussianBlur stdDeviation="2.58667"/>
<feComposite in2="hardAlpha" operator="out"/>
<feColorMatrix type="matrix" values="0 0 0 0 0.898039 0 0 0 0 0.898039 0 0 0 0 0.898039 0 0 0 0.25 0"/>
<feBlend mode="normal" in2="BackgroundImageFix" result="effect1_dropShadow_19_18218"/>
<feBlend mode="normal" in="SourceGraphic" in2="effect1_dropShadow_19_18218" result="shape"/>
</filter>
<clipPath id="clip0_19_18218">
<rect x="0.5" y="0.977295" width="533" height="315" rx="18" fill="white"/>
</clipPath>
</defs>
</svg>
