<svg width="152" height="46" viewBox="0 0 152 46" fill="none" xmlns="http://www.w3.org/2000/svg">
<path d="M146.225 45.4192H5.71927C2.87185 45.4192 0.564453 43.046 0.564453 40.1173V5.88243C0.564453 2.95378 2.87185 0.580566 5.71927 0.580566H146.225C149.072 0.580566 151.38 2.95378 151.38 5.88243V40.1173C151.38 43.046 149.072 45.4192 146.225 45.4192Z" fill="black"/>
<path d="M5.71667 1.16136C3.18562 1.16136 1.12642 3.2793 1.12642 5.88255V40.1175C1.12642 42.7207 3.18562 44.8386 5.71667 44.8386H146.225C148.756 44.8386 150.815 42.7207 150.815 40.1175V5.88255C150.815 3.2793 148.756 1.16136 146.225 1.16136H5.71667ZM146.225 46H5.71667C2.56377 46 0 43.3603 0 40.1175V5.88255C0 2.63971 2.56377 0 5.71667 0H146.225C149.378 0 151.942 2.63971 151.942 5.88255V40.1175C151.942 43.3603 149.378 46 146.225 46Z" fill="#A7A9AB"/>
<path d="M52.6885 12.04L52.1103 10.1773C51.9684 9.71728 51.8484 9.20393 51.7393 8.76631H51.7175C51.6111 9.20393 51.4993 9.7285 51.3711 10.1773L50.8038 12.04H52.6885ZM50.5856 13.0807L49.9529 15.2239H48.5674L50.9238 7.66667H52.6339L55.0204 15.2239H53.5831L52.9176 13.0807" fill="white"/>
<path d="M57.0252 9.76514L57.8871 12.5311C58.0398 13.0136 58.1462 13.4512 58.2444 13.9H58.2771C58.3753 13.4512 58.4953 13.0248 58.6371 12.5311L59.4881 9.76514H60.8927L58.8662 15.2241H57.5489L55.5742 9.76514" fill="white"/>
<path d="M64.9369 12.553C63.9877 12.5418 63.0822 12.7438 63.0822 13.5741C63.0822 14.1127 63.4204 14.3596 63.8459 14.3596C64.3887 14.3596 64.7732 14.0005 64.9014 13.6078C64.9369 13.5068 64.9369 13.4058 64.9369 13.3048V12.553ZM66.2433 13.9107C66.2433 14.4045 66.2651 14.887 66.3306 15.2208H65.1196L65.0241 14.6177H64.9887C64.675 15.0412 64.1186 15.3442 63.4204 15.3442C62.3513 15.3442 61.754 14.5503 61.754 13.72C61.754 12.351 62.9404 11.6469 64.9014 11.6581V11.5684C64.9014 11.2093 64.7623 10.6146 63.8241 10.6146C63.3004 10.6146 62.7549 10.7829 62.3949 11.0186L62.1331 10.1209C62.5258 9.87402 63.2131 9.64119 64.0532 9.64119C65.7524 9.64119 66.2433 10.7493 66.2433 11.9499" fill="white"/>
<path d="M68.1389 9.76466H69.478V15.2236H68.1389V9.76466ZM68.8016 8.97919C68.3571 8.97919 68.0625 8.64257 68.0625 8.23862C68.0625 7.81222 68.3652 7.48682 68.8153 7.48682C69.2707 7.48682 69.5544 7.81222 69.5653 8.23862C69.5653 8.64257 69.2707 8.97919 68.8153 8.97919" fill="white"/>
<path d="M71.4062 15.2239H72.7481V7.25146H71.4062V15.2239Z" fill="white"/>
<path d="M77.5003 12.5529C76.5511 12.5417 75.6456 12.7437 75.6456 13.574C75.6456 14.1126 75.9838 14.3595 76.4093 14.3595C76.9548 14.3595 77.3366 14.0004 77.4675 13.6077C77.5003 13.5067 77.5003 13.4057 77.5003 13.3047V12.5529ZM78.8067 13.9107C78.8067 14.4044 78.8285 14.8869 78.894 15.2207H77.6857L77.5876 14.6176H77.5548C77.2384 15.0412 76.6821 15.3441 75.9838 15.3441C74.9174 15.3441 74.3174 14.5502 74.3174 13.7199C74.3174 12.351 75.5065 11.6468 77.4675 11.6581V11.5683C77.4675 11.2092 77.3257 10.6145 76.3875 10.6145C75.8638 10.6145 75.3183 10.7828 74.9611 11.0185L74.6992 10.1208C75.092 9.87395 75.7765 9.64111 76.6166 9.64111C78.3158 9.64111 78.8067 10.7492 78.8067 11.9498" fill="white"/>
<path d="M82.0437 12.9685C82.0437 13.0807 82.0546 13.1929 82.0765 13.2939C82.2183 13.855 82.6874 14.2589 83.2629 14.2589C84.1029 14.2589 84.6157 13.5744 84.6157 12.4664C84.6157 11.5014 84.1684 10.7159 83.2738 10.7159C82.7283 10.7159 82.2292 11.1199 82.0874 11.7258C82.0655 11.8268 82.0437 11.9502 82.0437 12.0849V12.9685ZM80.7018 7.25146H82.0437V10.5139H82.0655C82.3928 9.98655 82.9683 9.64151 83.7647 9.64151C85.063 9.64151 85.9876 10.7496 85.9767 12.4103C85.9767 14.3711 84.7684 15.3473 83.5684 15.3473C82.881 15.3473 82.2728 15.078 81.891 14.4048H81.8692L81.8037 15.2239H80.6582C80.68 14.8536 80.7018 14.2477 80.7018 13.6979" fill="white"/>
<path d="M87.5555 15.2239H88.8946V7.25148H87.5555V15.2239Z" fill="white"/>
<path d="M94.1154 11.9161C94.1263 11.4112 93.9081 10.5809 93.0162 10.5809C92.1871 10.5809 91.838 11.3551 91.7834 11.9161H94.1154ZM91.7834 12.8783C91.8162 13.8658 92.5689 14.2922 93.4199 14.2922C94.039 14.2922 94.4754 14.1912 94.89 14.0453L95.0863 14.9851C94.6281 15.1898 93.9954 15.3329 93.2344 15.3329C91.5107 15.3329 90.4961 14.2473 90.4961 12.5782C90.4961 11.0634 91.3907 9.64111 93.0926 9.64111C94.8136 9.64111 95.3809 11.097 95.3809 12.2977C95.3809 12.5557 95.3591 12.7577 95.3373 12.8783" fill="white"/>
<path d="M102.039 14.3483C102.8 14.3483 103.334 13.5853 103.334 12.4773C103.334 11.6245 102.963 10.637 102.05 10.637C101.101 10.637 100.719 11.5908 100.719 12.4997C100.719 13.5517 101.231 14.3483 102.025 14.3483H102.039ZM101.995 15.347C100.5 15.347 99.3359 14.2922 99.3359 12.5334C99.3359 10.738 100.479 9.64119 102.082 9.64119C103.662 9.64119 104.72 10.7829 104.72 12.4436C104.72 14.4493 103.345 15.347 102.006 15.347" fill="white"/>
<path d="M106.296 11.3888C106.296 10.7604 106.277 10.233 106.255 9.76174H107.419L107.485 10.5809H107.518C107.758 10.1545 108.336 9.64111 109.22 9.64111C110.144 9.64111 111.104 10.2555 111.104 11.9835V15.2207H109.762V12.1406C109.762 11.3551 109.479 10.7604 108.75 10.7604C108.216 10.7604 107.845 11.1531 107.703 11.5683C107.66 11.6805 107.638 11.8488 107.638 12.0059V15.2207H106.296" fill="white"/>
<path d="M117.281 8.3623V9.76211H118.555V10.7944H117.281V13.1929C117.281 13.8661 117.455 14.2028 117.965 14.2028C118.205 14.2028 118.336 14.1916 118.489 14.1467L118.511 15.1874C118.315 15.2688 117.955 15.3333 117.54 15.3333C117.041 15.3333 116.637 15.165 116.386 14.8872C116.092 14.5731 115.961 14.0681 115.961 13.35V10.7944H115.208V9.76211H115.961V8.74381" fill="white"/>
<path d="M120.048 7.25146H121.39V10.5027H121.412C121.575 10.2446 121.804 10.0314 122.077 9.88557C122.35 9.73128 122.663 9.64151 123.002 9.64151C123.907 9.64151 124.854 10.2559 124.854 12.0063V15.2239H123.514V12.1522C123.514 11.3667 123.231 10.7608 122.489 10.7608C121.968 10.7608 121.597 11.1199 121.444 11.535C121.401 11.6585 121.39 11.8043 121.39 11.9502V15.2239H120.048" fill="white"/>
<path d="M130.04 11.9162C130.051 11.4113 129.833 10.5809 128.938 10.5809C128.109 10.5809 127.763 11.3552 127.708 11.9162H130.04ZM127.708 12.8784C127.741 13.8659 128.491 14.2922 129.342 14.2922C129.964 14.2922 130.4 14.1913 130.812 14.0454L131.011 14.9851C130.553 15.1899 129.92 15.333 129.157 15.333C127.436 15.333 126.421 14.2474 126.421 12.5783C126.421 11.0634 127.316 9.64119 129.015 9.64119C130.736 9.64119 131.303 11.0971 131.303 12.2977C131.303 12.5558 131.281 12.7578 131.259 12.8784" fill="white"/>
<path d="M33.9104 22.5507C33.8749 18.8114 36.886 16.9908 37.0251 16.9066C35.3204 14.3483 32.6776 14.0004 31.7475 13.9724C29.5301 13.7339 27.3782 15.3413 26.2491 15.3413C25.0954 15.3413 23.3525 13.9976 21.4788 14.0369C19.0623 14.0762 16.804 15.5152 15.5658 17.7454C13.0129 22.2983 14.9166 28.9859 17.3659 32.6664C18.5932 34.4673 20.0224 36.4815 21.8961 36.4085C23.7289 36.33 24.4135 35.2079 26.6254 35.2079C28.8183 35.2079 29.462 36.4085 31.3739 36.3636C33.3403 36.33 34.5786 34.5543 35.7596 32.7337C37.1778 30.669 37.7451 28.6353 37.7669 28.5315C37.7206 28.5146 33.9486 27.0335 33.9104 22.5507Z" fill="white"/>
<path d="M30.299 11.555C31.2836 10.2871 31.9627 8.55905 31.7718 6.80859C30.3454 6.87592 28.5616 7.82408 27.5334 9.06399C26.6252 10.158 25.8097 11.9506 26.0224 13.6337C27.6261 13.7571 29.2708 12.8033 30.299 11.555Z" fill="white"/>
<path d="M56.0299 29.6902L54.7644 25.6703C54.6307 25.2608 54.3798 24.293 54.0089 22.7725H53.9652C53.818 23.4262 53.578 24.394 53.2534 25.6703L52.0097 29.6902H56.0299ZM60.4047 36.1114H57.8491L56.4499 31.5893H51.5897L50.256 36.1114H47.7686L52.5906 20.7163H55.5635" fill="white"/>
<path d="M70.3537 30.5151C70.3537 29.4323 70.1164 28.543 69.6419 27.8417C69.1236 27.1124 68.4282 26.7449 67.5554 26.7449C66.9635 26.7449 66.4235 26.9497 65.9462 27.3508C65.4662 27.7576 65.1498 28.2849 64.9998 28.9414C64.9261 29.2443 64.8907 29.494 64.8907 29.6904V31.5418C64.8907 32.3497 65.1307 33.0314 65.6107 33.5868C66.0935 34.145 66.7181 34.42 67.4872 34.42C68.3927 34.42 69.0964 34.0637 69.5955 33.3456C70.1028 32.6302 70.3537 31.6877 70.3537 30.5151ZM72.7975 30.4225C72.7975 32.3104 72.3011 33.8056 71.3083 34.8996C70.4192 35.8759 69.3146 36.3612 67.9999 36.3612C66.5762 36.3612 65.5562 35.8338 64.9343 34.7846H64.8907V40.6335H62.4906V28.6636C62.4906 27.477 62.4633 26.2596 62.4033 25.0084H64.5116L64.6452 26.7701H64.6916C65.4907 25.4433 66.7044 24.7812 68.3327 24.7812C69.6037 24.7812 70.6701 25.3002 71.5183 26.3353C72.3693 27.3732 72.7975 28.7338 72.7975 30.4225Z" fill="white"/>
<path d="M82.7661 30.5151C82.7661 29.4323 82.5288 28.5431 82.0542 27.8417C81.536 27.1124 80.8405 26.7449 79.9677 26.7449C79.3759 26.7449 78.8386 26.9497 78.3585 27.3508C77.8758 27.7576 77.5649 28.285 77.4176 28.9414C77.3412 29.2444 77.3058 29.494 77.3058 29.6904V31.5418C77.3058 32.3497 77.543 33.0314 78.0231 33.5868C78.5058 34.1451 79.1304 34.42 79.9023 34.42C80.805 34.42 81.5087 34.0637 82.0106 33.3456C82.5124 32.6303 82.7661 31.6877 82.7661 30.5151ZM85.2071 30.4225C85.2071 32.3105 84.7134 33.8056 83.7206 34.8997C82.8315 35.8759 81.7296 36.3612 80.4123 36.3612C78.9913 36.3612 77.9713 35.8338 77.3467 34.7847H77.3058V40.6335H74.9056V28.6637C74.9056 27.4771 74.8756 26.2596 74.8184 25.0085H76.9267L77.0603 26.7702H77.1067C77.9031 25.4433 79.1168 24.7812 80.745 24.7812C82.0187 24.7812 83.0797 25.3002 83.9334 26.3353C84.7843 27.3733 85.2071 28.7338 85.2071 30.4225Z" fill="white"/>
<path d="M99.0894 31.7951C99.0894 33.1024 98.6475 34.1684 97.7584 34.9931C96.782 35.8908 95.4265 36.3396 93.6836 36.3396C92.0717 36.3396 90.7789 36.0198 89.7998 35.3802L90.3562 33.3268C91.4117 33.9804 92.5654 34.3058 93.8255 34.3058C94.7282 34.3058 95.4319 34.0982 95.9365 33.6803C96.4383 33.2595 96.6893 32.6984 96.6893 31.9971C96.6893 31.3744 96.4847 30.8442 96.0701 30.4178C95.6556 29.9914 94.9655 29.5959 94.0028 29.2284C91.3817 28.2213 90.0725 26.7486 90.0725 24.813C90.0725 23.5478 90.5308 22.5099 91.4499 21.702C92.3663 20.8941 93.5882 20.4873 95.1128 20.4873C96.4765 20.4873 97.6084 20.7342 98.5112 21.2195L97.9111 23.2308C97.0684 22.7595 96.1138 22.5211 95.0474 22.5211C94.2019 22.5211 93.5445 22.7343 93.0727 23.1607C92.6745 23.5422 92.4727 24.0079 92.4727 24.5549C92.4727 25.1636 92.699 25.6657 93.16 26.0613C93.5582 26.426 94.2837 26.8215 95.3365 27.2507C96.6238 27.7837 97.5702 28.4064 98.1784 29.1218C98.7839 29.8371 99.0894 30.7292 99.0894 31.7951Z" fill="white"/>
<path d="M107.016 26.8598H104.373V32.2486C104.373 33.6203 104.839 34.3048 105.775 34.3048C106.2 34.3048 106.557 34.2684 106.838 34.1926L106.904 36.0637C106.435 36.2488 105.81 36.3386 105.041 36.3386C104.095 36.3386 103.353 36.0413 102.818 35.4493C102.286 34.8546 102.019 33.856 102.019 32.4562V26.8598H100.443V25.0083H102.019V22.9773L104.373 22.2452V25.0083H107.016" fill="white"/>
<path d="M116.454 30.5488C116.454 29.5249 116.239 28.6496 115.808 27.9147C115.309 27.0282 114.589 26.585 113.656 26.585C112.693 26.585 111.96 27.0282 111.458 27.9147C111.027 28.6496 110.817 29.5417 110.817 30.5965C110.817 31.6204 111.027 32.4956 111.458 33.2278C111.976 34.1142 112.701 34.5574 113.637 34.5574C114.551 34.5574 115.271 34.1086 115.789 33.2053C116.233 32.4591 116.454 31.5727 116.454 30.5488ZM118.942 30.4702C118.942 32.1758 118.47 33.5756 117.521 34.6725C116.528 35.8002 115.211 36.3612 113.569 36.3612C111.981 36.3612 110.721 35.8198 109.78 34.7398C108.842 33.6598 108.373 32.2964 108.373 30.6526C108.373 28.9302 108.856 27.522 109.827 26.4279C110.795 25.3283 112.101 24.7812 113.743 24.7812C115.328 24.7812 116.604 25.3227 117.564 26.4027C118.484 27.4574 118.942 28.8095 118.942 30.4702Z" fill="white"/>
<path d="M126.738 27.1797C126.5 27.1348 126.249 27.1124 125.982 27.1124C125.139 27.1124 124.485 27.4406 124.027 28.0942C123.628 28.6749 123.429 29.4042 123.429 30.2851V36.1115H121.032L121.051 28.5066C121.051 27.2246 121.021 26.0604 120.964 25.0084H123.053L123.14 27.1348H123.203C123.457 26.4054 123.858 25.8163 124.403 25.3759C124.938 24.9804 125.516 24.7812 126.138 24.7812C126.359 24.7812 126.56 24.7981 126.738 24.8261" fill="white"/>
<path d="M135.173 29.3958C135.19 28.6665 135.034 28.0325 134.71 27.4995C134.295 26.815 133.654 26.47 132.798 26.47C132.015 26.47 131.377 26.8066 130.888 27.477C130.49 28.01 130.25 28.6496 130.182 29.3958H135.173ZM137.459 30.0354C137.459 30.4786 137.431 30.8489 137.374 31.1547H130.182C130.207 32.2515 130.556 33.0903 131.224 33.6682C131.829 34.1871 132.615 34.4424 133.578 34.4424C134.641 34.4424 135.612 34.2685 136.488 33.9178L136.864 35.6318C135.841 36.0863 134.636 36.3191 133.242 36.3191C131.57 36.3191 130.256 35.8114 129.301 34.7959C128.349 33.786 127.869 32.4255 127.869 30.7199C127.869 29.0452 128.311 27.651 129.203 26.5401C130.133 25.3507 131.393 24.7588 132.975 24.7588C134.529 24.7588 135.71 25.3507 136.51 26.5401C137.145 27.4827 137.459 28.6496 137.459 30.0354Z" fill="white"/>
</svg>
