<svg width="200" height="100" viewBox="0 0 200 100" fill="none" xmlns="http://www.w3.org/2000/svg">
<rect width="200" height="100" fill="white"/>
<g clip-path="url(#clip0_2646_87)">
<path d="M133.333 43.3333V76.6667C133.333 77.5507 132.982 78.3986 132.357 79.0237C131.732 79.6488 130.884 80 130 80H70.0001C69.116 80 68.2682 79.6488 67.6431 79.0237C67.0179 78.3986 66.6667 77.5507 66.6667 76.6667V43.3333H133.333ZM133.333 36.6667H66.6667V23.3333C66.6667 22.4493 67.0179 21.6014 67.6431 20.9763C68.2682 20.3512 69.116 20 70.0001 20H130C130.884 20 131.732 20.3512 132.357 20.9763C132.982 21.6014 133.333 22.4493 133.333 23.3333V36.6667ZM110 63.3333V70H123.333V63.3333H110Z" fill="#4353FF"/>
</g>
<defs>
<clipPath id="clip0_2646_87">
<rect width="80" height="80" fill="white" transform="translate(60 10)"/>
</clipPath>
</defs>
</svg>
