<svg width="853" height="486" viewBox="0 0 853 486" fill="none" xmlns="http://www.w3.org/2000/svg">
<path d="M853 0H-0.344116V486H853V0Z" fill="url(#paint0_radial_62_2685)"/>
<g style="mix-blend-mode:multiply">
<path d="M157.653 462.303C201.477 462.303 237.003 457.742 237.003 452.116C237.003 446.49 201.477 441.929 157.653 441.929C113.829 441.929 78.3033 446.49 78.3033 452.116C78.3033 457.742 113.829 462.303 157.653 462.303Z" fill="#E6E6E6"/>
</g>
<path d="M159.009 460.43C160.039 460.401 160.869 459.465 160.903 458.292L164.038 351.696L149.278 352.111L157.023 458.399C157.109 459.568 157.979 460.459 159.009 460.43Z" fill="#002744"/>
<path d="M192.764 446.463L168.318 349.694H152.998L189.103 447.93C189.501 449.013 190.57 449.554 191.54 449.165C192.51 448.776 193.048 447.59 192.764 446.463Z" fill="#002744"/>
<path d="M146.265 349.694L121.82 446.463C121.536 447.59 122.07 448.773 123.043 449.165C124.013 449.554 125.083 449.013 125.481 447.93L161.586 349.694H146.265Z" fill="#002744"/>
<path d="M61.216 355.781C60.01 352.463 59.5549 349.528 60.1949 349.226L54.4462 351.935C53.6668 352.301 54.011 355.292 55.2142 358.609C56.4203 361.927 58.0274 364.318 58.8096 363.952L64.5583 361.243C63.9183 361.545 62.4193 359.102 61.216 355.781Z" fill="#FFC064"/>
<path d="M157.274 351.696C163.223 351.696 168.046 346.202 168.046 339.426C168.046 332.649 163.223 327.156 157.274 327.156C151.325 327.156 146.502 332.649 146.502 339.426C146.502 346.202 151.325 351.696 157.274 351.696Z" fill="#002744"/>
<path d="M150.732 332.307C150.914 332.806 151.249 332.981 151.537 332.987C152.868 333.016 156.477 331.277 157.376 330.237C157.578 330.003 157.706 329.608 157.524 329.106C157.024 327.729 156.031 326.886 155.306 327.23L151.141 329.193C150.416 329.533 150.234 330.93 150.734 332.307H150.732Z" fill="#FFC064"/>
<path d="M156.054 311.48C155.804 310.787 155.542 310.113 155.281 309.452L146.309 313.677C146.574 314.335 146.833 315.012 147.083 315.705C150.124 324.078 150.991 331.614 149.023 332.544L157.994 328.319C159.963 327.392 159.095 319.853 156.054 311.48Z" fill="#666666"/>
<g style="mix-blend-mode:screen">
<path d="M61.7735 353.989L61.014 351.478L55.0065 354.307C55.0804 355.068 55.2625 355.962 55.5526 356.918L61.7735 353.989Z" fill="#4D4D4D"/>
</g>
<path d="M56.1642 358.163C54.9582 354.845 54.614 351.858 55.3962 351.488L54.4462 351.935C53.6668 352.302 54.011 355.292 55.2142 358.61C56.4203 361.928 58.0274 364.319 58.8096 363.953L59.7597 363.505C58.9803 363.872 57.3703 361.48 56.1642 358.163Z" fill="#002744"/>
<path d="M61.2158 355.781C62.4219 359.099 63.9181 361.545 64.5581 361.243C65.1981 360.942 64.743 358.007 63.5369 354.689C62.3309 351.371 60.8347 348.925 60.1947 349.226C59.5547 349.528 60.0098 352.463 61.2158 355.781Z" fill="#FFC064"/>
<path d="M61.0966 350.591C60.5135 350.866 60.7724 353.095 61.6712 355.571C62.5701 358.046 63.7704 359.831 64.3536 359.556L83.1527 350.698L79.8986 341.733L61.0995 350.591H61.0966Z" fill="url(#paint1_linear_62_2685)"/>
<g style="mix-blend-mode:screen">
<path d="M61.1044 353.721L80.7768 344.451L80.7256 344.017L80.3388 342.955L60.8199 352.153C60.8655 352.61 60.9622 353.141 61.1044 353.721Z" fill="#4D4D4D"/>
</g>
<path d="M79.1269 337.345C78.0176 337.866 78.5068 342.114 80.2192 346.828C81.9316 351.542 84.2186 354.941 85.3279 354.419L139.692 328.807L133.491 311.732L79.1269 337.345Z" fill="url(#paint2_linear_62_2685)"/>
<g style="mix-blend-mode:screen">
<path d="M79.8363 343.378L133.822 317.944L133.648 314.62L79.4352 340.161L79.8363 343.378Z" fill="#4D4D4D"/>
</g>
<path d="M82.4851 345.764C80.9519 341.539 80.3631 337.69 80.9861 336.452C81.0316 336.365 80.9519 336.264 80.8694 336.303L79.0604 337.155C77.951 337.677 78.4716 342.009 80.2209 346.83C81.9703 351.651 84.2885 355.134 85.3979 354.612L87.207 353.76C87.2894 353.721 87.2838 353.588 87.1984 353.563C85.9895 353.19 84.0183 349.989 82.4851 345.764Z" fill="url(#paint3_linear_62_2685)"/>
<path d="M132.095 304.638C130.126 305.564 130.994 313.104 134.035 321.476C137.076 329.848 141.135 335.881 143.103 334.954L206.677 305.004L195.669 274.687L132.095 304.638Z" fill="url(#paint4_linear_62_2685)"/>
<g style="mix-blend-mode:screen">
<path d="M133.113 313.153L195.799 283.618L195.08 278.33L132.131 307.989L133.113 313.153Z" fill="#4D4D4D"/>
</g>
<path d="M136.282 320.417C133.494 312.742 132.496 305.763 133.796 303.832C133.853 303.748 133.773 303.634 133.688 303.676L132.026 304.457C130.058 305.384 130.957 313.004 134.032 321.477C137.109 329.949 141.2 336.067 143.168 335.14L144.829 334.359C144.915 334.317 144.9 334.174 144.809 334.161C142.69 333.841 139.069 328.096 136.282 320.421V320.417Z" fill="url(#paint5_linear_62_2685)"/>
<path d="M158.21 327.836C156.293 328.74 152.459 322.416 149.591 314.523L149.583 314.504C149.179 313.389 148.067 312.848 147.091 313.312L141.308 316.036C140.344 316.49 139.872 317.75 140.27 318.849L140.293 318.907C143.334 327.279 147.393 333.312 149.361 332.385L157.991 328.319L158.321 328.164C158.321 328.164 158.412 328.118 158.483 328.066C158.66 327.937 158.81 327.746 158.933 327.496L158.216 327.833C158.216 327.833 158.21 327.836 158.207 327.836H158.21Z" fill="#F2F2F2"/>
<path d="M194.737 269.176C192.108 270.413 193.266 280.477 197.325 291.655C201.384 302.833 206.806 310.887 209.434 309.65L228.799 300.526L214.102 260.052L194.737 269.176Z" fill="url(#paint6_linear_62_2685)"/>
<g style="mix-blend-mode:screen">
<path d="M195.217 281.079L214.656 271.92L213.626 265.469L194.571 274.447L195.217 281.079Z" fill="#4D4D4D"/>
</g>
<path d="M199.629 290.57C195.9 280.303 194.569 270.971 196.318 268.409C196.392 268.298 196.296 268.149 196.185 268.204L194.649 268.927C192.02 270.165 193.221 280.341 197.328 291.652C201.436 302.963 206.897 311.134 209.525 309.894L211.061 309.171C211.175 309.119 211.149 308.935 211.03 308.918C208.203 308.513 203.358 300.838 199.629 290.57Z" fill="url(#paint7_linear_62_2685)"/>
<path d="M218.53 281.666C214.801 271.399 212.867 262.352 213.834 260.159C213.876 260.065 214.087 259.77 214.01 259.806L212.704 260.421C210.978 261.235 212.906 271.068 217.014 282.379C221.121 293.693 225.855 302.205 227.581 301.388L228.887 300.772C228.961 300.737 228.631 300.698 228.543 300.666C226.497 299.891 222.256 291.93 218.53 281.663V281.666ZM218.251 281.799C222.359 293.113 227.12 301.608 228.887 300.779C230.653 299.946 228.753 290.103 224.646 278.789C220.538 267.475 215.777 258.98 214.01 259.809C212.244 260.639 214.144 270.485 218.251 281.799ZM213.296 259.858C212.625 260.175 212.232 260.846 212.42 261.361C212.608 261.876 213.302 262.035 213.973 261.721C214.644 261.403 215.037 260.732 214.849 260.217C214.661 259.702 213.967 259.543 213.296 259.858ZM227.666 299.48C226.995 299.797 226.603 300.468 226.79 300.983C226.978 301.498 227.672 301.657 228.343 301.343C229.015 301.025 229.407 300.354 229.22 299.839C229.032 299.324 228.338 299.165 227.666 299.48Z" fill="url(#paint8_linear_62_2685)"/>
<path d="M228.036 298.449C229.62 297.703 227.953 288.972 224.314 278.948C220.674 268.924 216.439 261.403 214.856 262.149C213.272 262.895 214.938 271.626 218.578 281.65C222.218 291.674 226.452 299.195 228.036 298.449Z" fill="#002744"/>
<path d="M149.264 314.678L149.256 314.659C148.852 313.544 147.74 313.003 146.764 313.466L140.981 316.191C140.017 316.645 139.545 317.905 139.943 319.003L139.966 319.062C143.006 327.434 147.066 333.467 149.034 332.54L158.332 328.16C156.364 329.086 152.302 323.053 149.264 314.681V314.678Z" fill="#FFC064"/>
<path d="M146.318 317.348C146.551 317.989 146.283 318.728 145.717 318.994C145.154 319.259 144.506 318.955 144.272 318.31C144.039 317.669 144.306 316.93 144.873 316.664C145.439 316.399 146.084 316.703 146.318 317.348Z" fill="#F2F2F2"/>
<path d="M146.203 317.403C146.437 318.045 146.169 318.783 145.603 319.049C145.04 319.315 144.391 319.01 144.158 318.365C143.925 317.721 144.192 316.985 144.758 316.72C145.322 316.454 145.97 316.758 146.203 317.403Z" fill="#002744"/>
<path d="M144.311 351.533C144.311 352.69 145.145 353.481 146.152 353.63C154.304 354.838 161.768 354.634 168.711 353.63C169.721 353.484 170.551 352.69 170.551 351.533C170.551 348.342 169.061 344.341 166.549 345.753C160.126 349.369 154.745 349.12 148.009 345.753C145.443 344.47 144.311 348.342 144.311 351.533Z" fill="#FFC064"/>
<path d="M300.766 383.687C314.935 403.341 321.921 423.487 324.333 451.961C326.523 477.829 340.009 465.922 339.761 449.511C339.514 433.101 335.204 418.903 319.082 393.994C307.713 376.426 286.598 364.03 300.766 383.687ZM221.414 206.032C222.808 226.389 227.057 211.183 229.068 181.605C231.341 148.194 217.841 153.906 221.414 206.032ZM214.857 262.139C235.784 247.387 228.562 166.264 270.097 120.453C311.675 74.601 370.51 71.604 370.51 0H853V486H423.793C329.331 439.02 356.421 372.791 300.917 356.918C248.735 341.995 248.203 298.67 228.047 298.433L214.857 262.139ZM214.857 262.139C216.442 261.393 220.674 268.914 224.315 278.938C227.956 288.963 229.623 297.691 228.039 298.436C226.454 299.182 222.222 291.662 218.581 281.637C214.94 271.612 213.273 262.884 214.857 262.139Z" fill="url(#paint9_radial_62_2685)"/>
<path d="M466.648 196.775C466.648 197.326 466.256 197.773 465.772 197.773C465.289 197.773 464.896 197.326 464.896 196.775C464.896 196.224 465.289 195.777 465.772 195.777C466.256 195.777 466.648 196.224 466.648 196.775Z" fill="white"/>
<path d="M276.916 326.219C276.916 326.566 276.668 326.848 276.364 326.848C276.059 326.848 275.812 326.566 275.812 326.219C275.812 325.872 276.059 325.591 276.364 325.591C276.668 325.591 276.916 325.872 276.916 326.219Z" fill="white"/>
<path d="M526.871 309.935C526.638 310.155 526.291 310.119 526.098 309.85C525.904 309.585 525.936 309.189 526.172 308.969C526.405 308.749 526.752 308.784 526.945 309.053C527.139 309.319 527.108 309.714 526.871 309.935Z" fill="white"/>
<path d="M537.743 423.639C537.345 424.015 536.756 423.95 536.426 423.497C536.096 423.043 536.153 422.372 536.551 421.997C536.95 421.621 537.538 421.686 537.868 422.139C538.198 422.593 538.141 423.263 537.743 423.639Z" fill="white"/>
<path d="M293.919 158.715C293.223 158.161 293.052 157.066 293.538 156.269C294.025 155.475 294.986 155.281 295.686 155.835C296.383 156.389 296.554 157.484 296.067 158.281C295.578 159.075 294.619 159.269 293.919 158.715Z" fill="white"/>
<path d="M228.927 269.107C228.594 268.842 228.511 268.32 228.745 267.941C228.978 267.562 229.436 267.468 229.769 267.734C230.101 267.999 230.184 268.521 229.951 268.9C229.717 269.279 229.259 269.373 228.927 269.107Z" fill="white"/>
<path d="M464.702 468.786C465.554 468.786 466.244 468 466.244 467.03C466.244 466.06 465.554 465.274 464.702 465.274C463.851 465.274 463.161 466.06 463.161 467.03C463.161 468 463.851 468.786 464.702 468.786Z" fill="white"/>
<path d="M260.225 260.765C259.705 259.997 259.83 258.896 260.504 258.303C261.178 257.71 262.145 257.852 262.666 258.62C263.186 259.388 263.061 260.49 262.387 261.083C261.713 261.676 260.746 261.533 260.225 260.765Z" fill="white"/>
<path d="M437.629 325.335C437.444 325.06 437.487 324.668 437.728 324.457C437.97 324.247 438.314 324.295 438.499 324.571C438.684 324.846 438.641 325.238 438.4 325.449C438.158 325.659 437.814 325.611 437.629 325.335Z" fill="white"/>
<path d="M362.336 401.209C362.02 400.742 362.097 400.075 362.506 399.715C362.916 399.356 363.502 399.443 363.818 399.91C364.133 400.376 364.057 401.044 363.647 401.403C363.237 401.763 362.651 401.675 362.336 401.209Z" fill="white"/>
<path d="M532.254 481.59C532.436 481.315 532.783 481.257 533.024 481.467C533.266 481.675 533.317 482.07 533.132 482.345C532.95 482.621 532.603 482.679 532.362 482.469C532.12 482.261 532.069 481.866 532.254 481.59Z" fill="white"/>
<path d="M396.672 288.466C396.982 287.996 397.568 287.902 397.983 288.256C398.398 288.609 398.478 289.276 398.168 289.749C397.858 290.222 397.272 290.313 396.856 289.96C396.444 289.607 396.362 288.939 396.672 288.466Z" fill="white"/>
<path d="M491.129 389.986C491.646 389.986 492.065 389.508 492.065 388.92C492.065 388.331 491.646 387.854 491.129 387.854C490.612 387.854 490.193 388.331 490.193 388.92C490.193 389.508 490.612 389.986 491.129 389.986Z" fill="white"/>
<path d="M415.619 414.48C416.134 414.454 416.575 414.907 416.598 415.494C416.621 416.084 416.222 416.582 415.707 416.608C415.193 416.634 414.752 416.181 414.729 415.594C414.706 415.008 415.104 414.506 415.619 414.48Z" fill="white"/>
<path d="M349.303 124.629C349.818 124.603 350.259 125.057 350.281 125.643C350.304 126.23 349.906 126.732 349.391 126.758C348.876 126.784 348.435 126.33 348.413 125.744C348.39 125.157 348.788 124.655 349.303 124.629Z" fill="white"/>
<path d="M362.096 206.469C362.613 206.443 363.052 206.897 363.074 207.483C363.097 208.07 362.699 208.572 362.184 208.598C361.669 208.624 361.228 208.17 361.206 207.584C361.183 206.997 361.581 206.495 362.096 206.469Z" fill="white"/>
<path d="M485.285 293.987C486.136 293.942 486.858 294.69 486.898 295.659C486.938 296.628 486.281 297.451 485.43 297.496C484.58 297.541 483.857 296.793 483.818 295.824C483.778 294.855 484.435 294.032 485.285 293.987Z" fill="white"/>
<path d="M348.275 265.952C349.88 265.868 351.239 267.277 351.313 269.104C351.387 270.932 350.15 272.48 348.545 272.565C346.941 272.649 345.582 271.239 345.508 269.412C345.434 267.585 346.671 266.036 348.275 265.952Z" fill="white"/>
<path d="M401.143 28.2265C401.66 28.2006 402.099 28.6542 402.121 29.2406C402.144 29.8271 401.746 30.3293 401.231 30.3552C400.713 30.3811 400.275 29.9275 400.252 29.3411C400.23 28.7514 400.628 28.2524 401.143 28.2265Z" fill="white"/>
<path d="M409.329 146.042C410.054 146.003 410.669 146.642 410.703 147.468C410.737 148.294 410.176 148.994 409.451 149.033C408.726 149.072 408.111 148.433 408.077 147.607C408.043 146.781 408.603 146.081 409.329 146.042Z" fill="white"/>
<path d="M767.649 191.558C768.5 191.558 769.19 190.772 769.19 189.802C769.19 188.832 768.5 188.046 767.649 188.046C766.797 188.046 766.107 188.832 766.107 189.802C766.107 190.772 766.797 191.558 767.649 191.558Z" fill="white"/>
<path d="M714.112 42.6316C714.112 43.6003 713.421 44.3876 712.571 44.3876C711.72 44.3876 711.029 43.6003 711.029 42.6316C711.029 41.6628 711.72 40.8755 712.571 40.8755C713.421 40.8755 714.112 41.6628 714.112 42.6316Z" fill="white"/>
<path d="M615.565 326.219C615.565 326.566 615.318 326.848 615.013 326.848C614.709 326.848 614.461 326.566 614.461 326.219C614.461 325.872 614.709 325.591 615.013 325.591C615.318 325.591 615.565 325.872 615.565 326.219Z" fill="white"/>
<path d="M776.714 380.596C777.566 380.596 778.256 379.809 778.256 378.84C778.256 377.87 777.566 377.083 776.714 377.083C775.863 377.083 775.173 377.87 775.173 378.84C775.173 379.809 775.863 380.596 776.714 380.596Z" fill="white"/>
<path d="M842.168 303.192C841.935 303.413 841.588 303.377 841.395 303.108C841.201 302.842 841.232 302.447 841.468 302.227C841.702 302.007 842.049 302.042 842.242 302.311C842.435 302.577 842.404 302.972 842.168 303.192Z" fill="white"/>
<path d="M841.861 449.135C841.463 449.511 840.874 449.446 840.544 448.992C840.214 448.539 840.271 447.868 840.669 447.492C841.068 447.116 841.656 447.181 841.986 447.635C842.316 448.088 842.259 448.759 841.861 449.135Z" fill="white"/>
<path d="M631.64 160.227C630.209 159.087 629.859 156.838 630.861 155.209C631.862 153.576 633.836 153.18 635.267 154.321C636.7 155.461 637.047 157.71 636.046 159.34C635.045 160.969 633.071 161.368 631.64 160.227Z" fill="white"/>
<path d="M760.122 78.4237C759.872 78.226 759.812 77.834 759.985 77.5521C760.159 77.2702 760.503 77.1989 760.751 77.3966C760.998 77.5942 761.061 77.9863 760.887 78.2681C760.714 78.55 760.369 78.6213 760.122 78.4237Z" fill="white"/>
<path d="M532.93 233.87C532.679 233.669 532.617 233.277 532.793 232.992C532.97 232.707 533.314 232.635 533.564 232.836C533.814 233.037 533.877 233.429 533.701 233.714C533.524 233.999 533.18 234.071 532.93 233.87Z" fill="white"/>
<path d="M598.872 260.765C598.351 259.997 598.476 258.896 599.15 258.303C599.825 257.71 600.792 257.852 601.312 258.62C601.833 259.388 601.707 260.49 601.033 261.083C600.359 261.676 599.392 261.533 598.872 260.765Z" fill="white"/>
<path d="M556.307 167.09C556.122 166.814 556.164 166.422 556.406 166.212C556.648 166.001 556.992 166.05 557.177 166.325C557.362 166.6 557.319 166.992 557.077 167.203C556.836 167.414 556.491 167.365 556.307 167.09Z" fill="white"/>
<path d="M735.321 288.466C735.631 287.996 736.217 287.902 736.632 288.256C737.048 288.609 737.127 289.276 736.817 289.749C736.507 290.222 735.921 290.313 735.506 289.96C735.093 289.607 735.011 288.939 735.321 288.466Z" fill="white"/>
<path d="M796.308 250.98C796.825 250.98 797.244 250.503 797.244 249.914C797.244 249.325 796.825 248.848 796.308 248.848C795.792 248.848 795.373 249.325 795.373 249.914C795.373 250.503 795.792 250.98 796.308 250.98Z" fill="white"/>
<path d="M687.952 124.629C688.47 124.603 688.908 125.057 688.931 125.643C688.954 126.23 688.555 126.732 688.041 126.758C687.526 126.784 687.085 126.33 687.062 125.744C687.039 125.157 687.437 124.655 687.952 124.629Z" fill="white"/>
<path d="M833.854 11.8029C834.371 11.777 834.809 12.2306 834.832 12.8171C834.855 13.4035 834.457 13.9057 833.942 13.9316C833.427 13.9575 832.986 13.5039 832.963 12.9175C832.941 12.3311 833.339 11.8289 833.854 11.8029Z" fill="white"/>
<path d="M700.746 206.469C701.264 206.443 701.702 206.897 701.725 207.483C701.747 208.07 701.349 208.572 700.834 208.598C700.317 208.624 699.879 208.17 699.856 207.584C699.833 206.997 700.231 206.495 700.746 206.469Z" fill="white"/>
<path d="M828.796 135.185C829.314 135.159 829.752 135.613 829.774 136.199C829.797 136.786 829.399 137.288 828.884 137.314C828.369 137.34 827.928 136.886 827.906 136.3C827.883 135.713 828.281 135.211 828.796 135.185Z" fill="white"/>
<path d="M656.401 465.789C656.151 465.591 656.091 465.199 656.265 464.917C656.438 464.635 656.782 464.564 657.03 464.762C657.28 464.959 657.34 465.351 657.166 465.633C656.993 465.915 656.649 465.986 656.401 465.789Z" fill="white"/>
<path d="M586.41 453.256C586.16 453.059 586.1 452.667 586.273 452.385C586.447 452.1 586.791 452.032 587.038 452.229C587.286 452.427 587.349 452.819 587.175 453.101C587.002 453.386 586.657 453.454 586.41 453.256Z" fill="white"/>
<path d="M601.971 379.873C600.62 377.877 600.945 375.01 602.697 373.467C604.449 371.928 606.966 372.298 608.32 374.293C609.671 376.289 609.347 379.157 607.595 380.699C605.843 382.238 603.325 381.869 601.971 379.873Z" fill="white"/>
<path d="M659.123 393.767C659.974 393.722 660.696 394.47 660.736 395.439C660.776 396.408 660.119 397.231 659.268 397.276C658.418 397.321 657.695 396.573 657.656 395.604C657.616 394.635 658.273 393.812 659.123 393.767Z" fill="white"/>
<path d="M577.432 77.7955C577.182 77.5978 577.122 77.2058 577.296 76.9239C577.469 76.642 577.814 76.5708 578.061 76.7684C578.309 76.966 578.371 77.3581 578.198 77.64C578.024 77.9218 577.68 77.9931 577.432 77.7955Z" fill="white"/>
<path d="M519.518 35.9641C518.998 35.1962 519.123 34.0946 519.797 33.5017C520.471 32.9088 521.438 33.0513 521.959 33.8192C522.479 34.5871 522.354 35.6887 521.68 36.2816C521.006 36.8745 520.039 36.7319 519.518 35.9641Z" fill="white"/>
<path d="M651.716 77.896C652.026 77.4262 652.612 77.3322 653.028 77.6854C653.443 78.0385 653.522 78.706 653.212 79.179C652.902 79.6521 652.317 79.7428 651.901 79.3896C651.486 79.0365 651.406 78.369 651.716 77.896Z" fill="white"/>
<path d="M624.443 6.53467C625.293 6.48931 626.015 7.23775 626.055 8.20651C626.095 9.17527 625.438 9.99823 624.588 10.0436C623.737 10.089 623.015 9.34051 622.975 8.37175C622.935 7.40299 623.592 6.58003 624.443 6.53467Z" fill="white"/>
<defs>
<radialGradient id="paint0_radial_62_2685" cx="0" cy="0" r="1" gradientUnits="userSpaceOnUse" gradientTransform="translate(748.716 193.203) scale(665.399 1031.87)">
<stop stop-color="white"/>
<stop offset="1" stop-color="#FFD0E1"/>
</radialGradient>
<linearGradient id="paint1_linear_62_2685" x1="60.4083" y1="351.994" x2="142.113" y2="344.775" gradientUnits="userSpaceOnUse">
<stop stop-color="#7C0073"/>
<stop offset="1" stop-color="#394B9A"/>
</linearGradient>
<linearGradient id="paint2_linear_62_2685" x1="15074.7" y1="44732.1" x2="39099.2" y2="41981.5" gradientUnits="userSpaceOnUse">
<stop stop-color="#7C0073"/>
<stop offset="1" stop-color="#394B9A"/>
</linearGradient>
<linearGradient id="paint3_linear_62_2685" x1="78.4772" y1="345.479" x2="87.2667" y2="345.479" gradientUnits="userSpaceOnUse">
<stop stop-color="#2EDFE4"/>
<stop offset="0.07" stop-color="#2BD1DD"/>
<stop offset="1" stop-color="#072590"/>
</linearGradient>
<linearGradient id="paint4_linear_62_2685" x1="27873" y1="58052.4" x2="56575.3" y2="55502.6" gradientUnits="userSpaceOnUse">
<stop stop-color="#7C0073"/>
<stop offset="1" stop-color="#394B9A"/>
</linearGradient>
<linearGradient id="paint5_linear_62_2685" x1="6550.05" y1="31425.6" x2="7229.5" y2="31425.6" gradientUnits="userSpaceOnUse">
<stop stop-color="#2EDFE4"/>
<stop offset="0.07" stop-color="#2BD1DD"/>
<stop offset="1" stop-color="#072590"/>
</linearGradient>
<linearGradient id="paint6_linear_62_2685" x1="17445.1" y1="43976" x2="29115" y2="43982" gradientUnits="userSpaceOnUse">
<stop stop-color="#7C0073"/>
<stop offset="1" stop-color="#394B9A"/>
</linearGradient>
<linearGradient id="paint7_linear_62_2685" x1="12361.7" y1="37589.5" x2="13485.6" y2="37589.5" gradientUnits="userSpaceOnUse">
<stop stop-color="#2EDFE4"/>
<stop offset="0.07" stop-color="#2BD1DD"/>
<stop offset="1" stop-color="#072590"/>
</linearGradient>
<linearGradient id="paint8_linear_62_2685" x1="13262.1" y1="36466.5" x2="14335.6" y2="36466.5" gradientUnits="userSpaceOnUse">
<stop stop-color="#2EDFE4"/>
<stop offset="0.07" stop-color="#2BD1DD"/>
<stop offset="1" stop-color="#072590"/>
</linearGradient>
<radialGradient id="paint9_radial_62_2685" cx="0" cy="0" r="1" gradientUnits="userSpaceOnUse" gradientTransform="translate(131.388 100.998) rotate(8.91368) scale(1361.91 1542.75)">
<stop stop-color="#7C0073"/>
<stop offset="1" stop-color="#5200AF"/>
</radialGradient>
</defs>
</svg>
