<svg width="122" height="26" viewBox="0 0 122 26" fill="none" xmlns="http://www.w3.org/2000/svg">
<path d="M32.4254 22.6937C32.4254 20.1127 32.4644 17.5294 32.3937 14.9484C32.367 14.31 32.1348 13.6942 31.7275 13.182C29.402 10.4065 26.9935 7.6905 24.6289 4.94476C23.2576 3.34308 23.3844 1.69336 24.9193 0.624806C26.3835 -0.393405 28.1526 -0.0845139 29.5215 1.4714C31.5445 3.77325 33.5406 6.09111 35.5903 8.45016C37.7597 5.96755 39.846 3.54444 41.9788 1.15793C43.0012 0.0138762 44.419 -0.262989 45.7416 0.311328C47.0642 0.885645 47.8499 2.1853 47.4497 3.45978C47.2189 4.07996 46.8626 4.65254 46.4004 5.14612C44.0871 7.8255 41.7104 10.4614 39.4239 13.1545C39.0107 13.6621 38.7731 14.2761 38.7431 14.9141C38.6699 17.4951 38.7236 20.0784 38.7065 22.6593C38.7065 24.6225 37.3936 25.9886 35.5659 26H35.544C33.7114 26 32.4449 24.6683 32.4254 22.6937ZM53.3599 25.9542C51.7347 25.8993 50.3584 24.6889 50.3511 23.1513C50.3218 16.3846 50.3218 9.61786 50.3511 2.85114C50.3587 2.11118 50.6756 1.40356 51.2336 0.880306C51.7917 0.357054 52.5463 0.0599328 53.3355 0.0527772C53.7378 0.0308749 54.1408 0.0840121 54.5211 0.209114C54.9014 0.334217 55.2514 0.528796 55.551 0.781597C55.8506 1.0344 56.0937 1.3404 56.2663 1.68189C56.4389 2.02338 56.5375 2.39357 56.5565 2.77105C56.6541 4.81205 56.5785 6.85763 56.5785 9.11829L65.8757 1.7048C66.2807 1.37988 66.6761 1.03895 67.0958 0.736921C68.5355 -0.28129 70.3217 -0.144004 71.471 1.05726C72.5813 2.20131 72.5203 3.78469 71.1831 4.91044C69.2309 6.56017 67.1934 8.12982 65.1924 9.73379L61.1295 12.9852L70.0435 20.1104C70.3852 20.3827 70.7365 20.6412 71.0611 20.9273C72.4984 22.1926 72.6301 23.7462 71.4149 24.9681C70.1997 26.1899 68.4598 26.3043 66.9469 25.1122C63.7991 22.6365 60.6902 20.1241 57.5643 17.6278C57.3057 17.4196 57.0421 17.2159 56.6102 16.8773C56.6102 18.7078 56.6102 20.3346 56.6102 21.9592C56.6234 22.4513 56.5997 22.9437 56.5395 23.4327C56.4247 24.1244 56.0535 24.756 55.4911 25.2164C54.9288 25.6768 54.2112 25.9364 53.4648 25.9497L53.3599 25.9542ZM3.4236 25.5653C1.16642 25.5653 0.0073206 24.5013 0.0073206 22.4466C-0.0024402 16.1756 -0.0024402 9.90387 0.0073206 3.63139C0.0073206 1.57208 1.10541 0.505823 3.39432 0.466925C6.38357 0.418875 9.37525 0.414299 12.3621 0.466925C15.7783 0.530993 18.3796 1.93818 19.9267 4.68621C21.4738 7.43424 21.1321 10.1525 19.1531 12.6786C19.0775 12.777 19.0214 12.8891 18.936 13.0287C20.9076 15.4381 21.547 18.0808 20.1731 20.8792C18.709 23.8812 16.059 25.492 12.3913 25.5538C11.1322 25.5744 9.87305 25.5813 8.61391 25.5813C6.88624 25.5836 5.15615 25.5836 3.4236 25.5653ZM6.12734 15.8545V20.0303C8.44553 20.0303 10.6124 20.0921 12.772 20.0051C13.9433 19.9594 14.6412 19.2478 14.7632 18.1746C14.8901 17.0306 14.2386 15.9758 13.0234 15.9025C12.0863 15.8453 11.1468 15.8293 10.2025 15.8293C8.85549 15.8202 7.49873 15.8545 6.12734 15.8545ZM6.12734 6.04763V10.212C8.45773 10.212 10.6637 10.2692 12.8623 10.1891C14.019 10.1479 14.751 9.23727 14.7657 8.15041C14.7803 7.06356 14.0775 6.12085 12.9282 6.07509C11.9985 6.03619 11.0688 6.02475 10.1342 6.02475C8.81889 6.02475 7.48653 6.04763 6.13466 6.04763H6.12734ZM99.3943 25.3547C97.6446 24.682 97.0517 23.1536 97.874 21.3597C100.802 14.9743 103.739 8.58821 106.686 2.20131C107.269 0.929122 108.15 -0.0135807 109.768 0.00014803C111.385 0.0138767 112.254 0.915395 112.842 2.21047C115.758 8.61719 118.718 14.9827 121.649 21.3711C122.464 23.1467 121.827 24.7209 120.08 25.3639C118.418 25.9771 116.798 25.2586 115.963 23.5197C115.422 22.3962 114.909 21.259 114.377 20.131C114.328 20.0547 114.267 19.9854 114.197 19.9251H105.204C104.638 21.1423 104.092 22.3527 103.521 23.554C102.896 24.8582 101.798 25.5836 100.592 25.5836C100.181 25.5824 99.7736 25.5046 99.3943 25.3547ZM107.825 14.2391H111.703L109.75 10.0404L107.825 14.2391ZM78.4427 25.5492C76.2807 25.5492 75.0777 24.4532 75.0752 22.4969C75.0622 16.1451 75.0622 9.79175 75.0752 3.43689C75.0752 1.50573 76.2953 0.389126 78.45 0.377686C82.7985 0.354804 87.1469 0.354804 91.4953 0.377686C93.5085 0.377686 94.9116 1.59268 94.8628 3.20351C94.8238 4.77544 93.467 5.87145 91.4929 5.88061C88.1059 5.89434 84.7213 5.88061 81.244 5.88061V10.1434C81.7175 10.1617 82.1957 10.1983 82.674 10.2006H85.8853C87.7594 10.2006 89.6335 10.2006 91.4978 10.212C93.5207 10.228 94.8945 11.411 94.8579 13.0355C94.8189 14.6029 93.4622 15.692 91.4734 15.7035C88.5744 15.7172 85.6755 15.7035 82.7789 15.7035H81.2489V20.0326H82.6887C85.6315 20.0326 88.5769 20.0189 91.5198 20.0326C93.528 20.0463 94.9189 21.243 94.8775 22.8607C94.8238 24.4395 93.4499 25.5447 91.4978 25.5515C89.2967 25.5515 87.094 25.5515 84.8897 25.5515C82.7375 25.5576 80.5885 25.5569 78.4427 25.5492Z" fill="#169F0A"/>
</svg>