<svg width="260" height="200" viewBox="0 0 260 200" fill="none" xmlns="http://www.w3.org/2000/svg">
<g clip-path="url(#clip0_13118_21473)">
<rect width="260" height="200" rx="8" fill="white"/>
<g opacity="0.4" filter="url(#filter0_f_13118_21473)">
<rect width="260" height="200" fill="url(#paint0_angular_13118_21473)"/>
</g>
<g opacity="0.9" filter="url(#filter1_b_13118_21473)">
<path d="M0 0H260V200H0V0Z" fill="url(#paint1_linear_13118_21473)"/>
</g>
<g clip-path="url(#clip1_13118_21473)">
<mask id="mask0_13118_21473" style="mask-type:luminance" maskUnits="userSpaceOnUse" x="5" y="0" width="250" height="203">
<path d="M255 0H5V203H255V0Z" fill="white"/>
</mask>
<g mask="url(#mask0_13118_21473)">
<path d="M211.19 29.1177C211.19 29.1177 214.925 21.4771 222.585 21.8733C230.245 22.2699 232.754 29.1177 232.754 29.1177C232.754 29.1177 238.829 27.276 242.924 32.8345H203.303C203.303 32.8345 205.737 28.697 211.19 29.1177Z" fill="#DEE2F4"/>
<path d="M45.5907 40.7614C45.5907 40.7614 54.8541 21.8128 73.8515 22.7952C92.8479 23.7787 99.0713 40.7614 99.0713 40.7614C99.0713 40.7614 114.137 36.1939 124.292 49.979H26.0312C26.0312 49.979 32.0676 39.7179 45.5907 40.7614Z" fill="#DEE2F4"/>
<path d="M165.189 61.5782C165.189 61.5782 171.651 48.3599 184.903 49.0453C198.155 49.7314 202.496 61.5782 202.496 61.5782C202.496 61.5782 213.006 58.3919 220.09 68.0081H151.545C151.545 68.0081 155.756 60.8502 165.189 61.5782Z" fill="#DEE2F4"/>
<path d="M82.1351 150.388L75.2521 149.297L75.9489 116.57C75.9489 116.57 70.7239 108.663 63.6758 106.221L70.7016 106.571L86.2031 109.461L82.1351 150.388Z" fill="#4D328C"/>
<path d="M57.7587 128.473C57.7587 128.473 52.9416 133.58 53.8993 138.774L62.8599 129.282L62.116 127.862L57.7587 128.473Z" fill="#8399B3"/>
<path d="M75.2517 149.297L74.7826 150.739C74.7826 150.739 72.6632 150.701 72.0787 153.645L77.4714 154.499L80.8546 152.102L81.4243 150.276L75.2517 149.297Z" fill="#8399B3"/>
<path d="M72.0001 115.921L63.425 114.232L62.7353 127.672L56.5571 128.841L55.7704 111.984C55.2666 108.787 57.8298 105.933 61.0602 106.092L63.6743 106.221L63.6771 106.221C70.7251 108.664 75.9496 116.571 75.9496 116.571L72.0001 115.921Z" fill="#4D328C"/>
<path d="M61.9557 76.5117L61.8949 76.8957L61.4172 76.8821C61.338 76.604 61.2429 76.3773 61.1326 76.2445C60.5935 75.607 60.227 75.115 59.7393 75.3029C59.3713 75.4459 59.2514 76.3724 59.2137 76.814L57.9159 76.7745L46.4202 76.418L46.4179 76.3962C47.1769 76.3394 47.9508 75.1171 48.203 73.5229C48.4523 71.9495 48.1061 70.5654 47.4228 70.2479L62.2962 74.3581L62.2479 74.6637L61.9557 76.5117Z" fill="#E86C2F"/>
<path d="M48.2395 73.2687C48.3351 72.4798 48.2781 71.7556 48.1058 71.2032C47.9586 70.7294 47.7232 70.3866 47.4241 70.2483L47.1928 70.1846C46.4576 70.1083 45.6795 71.1857 45.3548 72.6773C45.3246 72.8012 45.3018 72.9291 45.2809 73.0594C45.1815 73.6895 45.1776 74.2891 45.2516 74.8021C45.3796 75.6852 45.7416 76.3105 46.2508 76.3914C46.306 76.3998 46.3646 76.4012 46.4188 76.3964C47.1779 76.34 47.9522 75.1173 48.2044 73.523C48.2181 73.4368 48.2288 73.353 48.2395 73.2687Z" fill="#DC4653"/>
<path d="M71.1243 76.3783L75.6802 77.1001C75.1747 77.2158 74.7351 77.3685 74.5249 77.5121C74.3602 77.6224 74.3842 77.8757 74.5126 78.2149L70.9232 77.6461L71.1243 76.3783Z" fill="#111022"/>
<path d="M81.1008 78.7423L81.0209 79.2465L78.552 78.8556C78.4011 78.2689 78.2965 77.7781 78.2773 77.5122L81.2216 77.9791L81.1008 78.7423Z" fill="#111022"/>
<path d="M70.9243 77.6459L70.88 77.9262L61.9555 76.5118L62.2482 74.6634L71.1726 76.0778L71.125 76.3781L70.9243 77.6459Z" fill="#DC4653"/>
<path d="M61.809 79.725L59.6073 80.9094C59.6073 80.9094 57.6184 78.0293 57.9163 76.7742L59.2141 76.8137C59.2518 76.372 59.3718 75.4459 59.7398 75.3033C60.2275 75.115 60.5936 75.607 61.1328 76.2445C61.243 76.3773 61.3386 76.6041 61.4177 76.8822C61.7213 77.9404 61.809 79.725 61.809 79.725Z" fill="#F19949"/>
<path d="M83.2663 85.1487L83.0258 86.6646L81.4844 84.6626L83.2663 85.1487Z" fill="#4D328C"/>
<path d="M83.0258 86.6654L84.5788 88.6801L86.0608 90.6031C86.0608 90.6031 90.4955 88.4391 92.0482 88.661C92.1581 88.6757 92.2617 88.7 92.3609 88.7321C93.6966 89.1418 94.2822 90.856 93.8021 92.3339C93.285 93.9264 93.0457 95.743 91.4268 95.7864C89.8075 95.8323 82.6131 96.4149 82.6131 96.4149L76.6583 84.9191L77.6506 84.4362L79.8619 83.3584L80.3085 83.1399L81.0531 84.1045L81.4844 84.663L83.0258 86.6654Z" fill="#9461FA"/>
<path d="M88.1101 86.2409L92.3598 88.7313C92.2606 88.6993 92.1575 88.6749 92.0471 88.6603C90.4944 88.4379 86.0592 90.6024 86.0592 90.6024L84.5774 88.6795L88.1101 86.2409Z" fill="#4D328C"/>
<path d="M91.4273 95.7863L87.6625 102.537L86.2052 109.46C86.2052 109.46 85.8881 109.466 85.3406 109.457C82.776 109.418 75.1243 109.084 70.7046 106.569L73.908 98.1894L74.1435 91.2167L63.7506 90.7272L58.6508 81.4246L59.6083 80.9088L61.8096 79.7257L66.9306 86.6061L77.0674 83.9637C77.373 84.2663 77.6512 84.4366 77.6512 84.4366L76.6589 84.9195L82.6139 96.4153C82.6139 96.4153 89.808 95.8321 91.4273 95.7863Z" fill="#9461FA"/>
<path d="M79.8611 83.3577L77.6497 84.4356C77.6497 84.4356 77.3715 84.2658 77.0658 83.9627C76.6673 83.57 76.2211 82.9554 76.2741 82.1974C76.3467 81.1802 74.9122 79.2781 74.5129 78.2155C74.3845 77.8759 74.36 77.623 74.5252 77.5127C74.7354 77.369 75.1746 77.216 75.6801 77.1007C76.7991 76.8494 78.2471 76.7869 78.2721 77.4578C78.2721 77.4738 78.2745 77.4927 78.2769 77.5117C78.2965 77.7776 78.4007 78.2683 78.5516 78.8551C79.0063 80.6526 79.8611 83.3577 79.8611 83.3577Z" fill="#F19949"/>
<path d="M87.6619 102.537C76.4476 98.2343 76.6582 84.9189 76.6582 84.9189L82.6123 96.4221L91.4268 95.7858L87.6619 102.537Z" fill="#4D328C"/>
<path d="M88.9509 80.0123C89.2075 79.9831 89.4476 80.0728 89.4849 80.4803C89.5731 81.4133 88.3969 82.3309 88.3969 82.3309L88.0147 86.3509L84.482 88.7895L86.2286 85.5405L83.1685 85.2585L81.387 84.7728L80.9558 84.2143C80.9558 84.2143 81.1258 80.8568 81.4322 78.9201C81.5032 78.4731 81.5805 78.1021 81.666 77.8663L81.6965 77.7748C83.7611 78.4691 86.8372 78.1075 86.8372 78.1075C86.8372 78.1075 86.6132 82.193 87.1664 82.3529C87.7196 82.5104 88.2517 80.2848 88.2517 80.2848C88.2517 80.2848 88.6184 80.0479 88.9509 80.0123Z" fill="#F19949"/>
<path d="M89.4528 77.0967L88.967 80.0154C88.6348 80.051 88.2677 80.2879 88.2677 80.2879C88.2677 80.2879 87.7361 82.513 87.1824 82.3556C86.6293 82.1956 86.8528 78.1102 86.8528 78.1102C86.8528 78.1102 83.7776 78.4718 81.7131 77.7775L81.7136 77.7751C81.0646 77.5598 80.5184 77.2372 80.1964 76.768C78.8443 74.8015 79.5625 73.9212 81.8039 74.8177C84.0454 75.7141 89.3079 73.6788 89.4528 77.0967Z" fill="#333333"/>
<path d="M86.3256 85.4302L84.5793 88.6796L83.0264 86.665L83.2664 85.1491L86.3256 85.4302Z" fill="#EA8D4E"/>
<path d="M228.301 106.921C228.299 106.936 228.295 106.951 228.29 106.966L227.958 107.88L227.814 108.275L227.814 108.275L226.131 112.913L226.043 113.154L225.995 113.287L225.901 113.545L213.291 148.274L212.065 148.245L225.438 113.383L225.438 113.382L225.548 113.095L227.463 108.103L227.605 107.733L227.953 106.825C227.987 106.735 228.087 106.69 228.178 106.723C228.261 106.754 228.31 106.837 228.301 106.921Z" fill="#CFD3EB"/>
<path d="M241.65 112.09C241.65 112.09 238.578 112.592 235.409 109.983C232.697 107.752 228.976 107.816 227.956 107.881C227.947 107.879 227.653 107.787 227.604 107.735L227.463 108.104C227.463 108.104 227.656 108.282 227.814 108.277L227.815 108.277C227.815 108.277 227.815 108.277 227.815 108.278C228.321 110.252 226.505 112.507 225.86 113.229L225.86 113.23L225.548 113.097L225.438 113.383L225.437 113.384C225.437 113.384 225.693 113.524 225.901 113.547L225.955 113.404C226.893 113.255 229.819 113.034 232.912 115.272C236.622 117.955 240.456 117.878 240.456 117.878L239.363 114.63L241.65 112.09Z" fill="#E86C2F"/>
<path d="M228.987 110.885C228.74 112.12 225.861 113.23 225.861 113.23L225.861 113.229C226.506 112.506 228.322 110.251 227.816 108.278C227.857 108.318 229.229 109.668 228.987 110.885Z" fill="#E86C2F"/>
<path d="M156.629 150.057L125.815 144.256L91.9689 137.883L81.7453 135.958L85.6391 133.013L91.3088 128.726L92.8332 127.572L130.565 99.0339L150.29 137.65L156.629 150.057Z" fill="#9461FA"/>
<path d="M183.074 149.122L130.566 99.0327L156.629 150.057L183.074 149.122Z" fill="#4D328C"/>
<path d="M126.303 142.049L91.9694 137.883L81.7459 135.958L85.6405 133.013L91.3093 128.726C100.504 132.399 113.883 137.082 126.303 142.049Z" fill="#4D328C"/>
<path d="M225.072 148.127L185.95 184.147L62.2092 166.123L30.123 118.146L126.277 142.214L225.072 148.127Z" fill="#9461FA"/>
<path d="M225.071 148.126L185.95 184.147L118.09 174.263L126.277 142.213L225.071 148.126Z" fill="#4D328C"/>
<path d="M71.765 138.159L71.8274 137.723C79.448 138.815 107.686 137.642 107.975 137.629L108.689 137.807C108.399 137.82 79.4265 139.256 71.765 138.159Z" fill="#2B295E"/>
<path d="M79.6768 142.434C78.6573 138.712 76.3209 135.468 73.1278 133.322C71.1927 132.019 68.943 131.12 66.4821 130.762C64.4328 130.463 62.4174 130.565 60.5158 131.01C56.1501 132.029 52.383 134.848 50.1725 138.751C49.2161 140.438 48.5522 142.328 48.2563 144.363C47.8989 146.821 48.1159 149.228 48.8079 151.451C50.0329 155.39 52.7453 158.746 56.3787 160.76C58.0305 161.675 59.8719 162.312 61.8509 162.6C64.2328 162.947 66.5691 162.753 68.7339 162.109C72.6295 160.952 75.9718 158.344 78.0369 154.825C79.0583 153.084 79.7678 151.12 80.0763 148.999C80.4059 146.733 80.246 144.509 79.6768 142.434ZM73.7055 152.325C72.2755 154.707 69.9747 156.46 67.3056 157.211C65.88 157.613 64.3493 157.728 62.7897 157.501C61.4171 157.301 60.1406 156.853 59.0014 156.208C56.5814 154.841 54.7745 152.589 53.9525 149.95C53.482 148.441 53.3332 146.806 53.5758 145.139C53.7708 143.799 54.2016 142.551 54.8189 141.432C56.2854 138.781 58.8032 136.852 61.7339 136.124C63.0677 135.791 64.4857 135.709 65.9287 135.919C67.5681 136.157 69.0682 136.75 70.3641 137.607C72.5662 139.062 74.1775 141.284 74.8756 143.837C75.261 145.241 75.368 146.747 75.1447 148.28C74.9299 149.757 74.4292 151.121 73.7055 152.325Z" fill="#DFDFDF"/>
<path d="M73.128 133.321L70.3639 137.606C69.0679 136.749 67.5678 136.157 65.9289 135.918C64.4855 135.708 63.0679 135.791 61.7341 136.124L60.5157 131.009C62.4177 130.565 64.4323 130.463 66.482 130.761C68.9425 131.12 71.1933 132.019 73.128 133.321Z" fill="#E86C2F"/>
<path d="M68.7337 162.109C66.5689 162.753 64.2326 162.948 61.8507 162.6C59.8717 162.313 58.03 161.675 56.3782 160.76L59.0014 156.208C60.1409 156.853 61.417 157.301 62.7896 157.501C64.3492 157.728 65.8795 157.613 67.3051 157.211L68.7337 162.109Z" fill="#E86C2F"/>
<path d="M53.9673 149.845L48.8225 151.346C48.1306 149.124 47.9131 146.716 48.2705 144.259C48.5665 142.224 49.2312 140.334 50.1876 138.646L54.8337 141.327C54.216 142.446 53.7851 143.694 53.5905 145.034C53.3479 146.702 53.4967 148.337 53.9673 149.845Z" fill="#E86C2F"/>
<path d="M80.0909 148.893C79.7824 151.015 79.0725 152.979 78.0506 154.72L73.7191 152.219C74.4433 151.016 74.9444 149.651 75.1592 148.174C75.3821 146.641 75.2751 145.136 74.8898 143.731L79.6906 142.328C80.2602 144.403 80.4201 146.628 80.0909 148.893Z" fill="#E86C2F"/>
<path d="M71.0289 138.084C67.6306 137.336 59.9021 134.712 45.6783 127.146C37.1812 122.626 30.3091 118.217 30.2383 118.175L30.8692 118.332C30.9395 118.375 37.3991 122.242 45.8868 126.757C57.1087 132.727 65.8476 136.225 70.3631 137.607L70.5944 137.764L71.0289 138.084Z" fill="#2B295E"/>
<path d="M193.742 159.595C186.463 160.987 177.472 161.309 172.655 159.809C167.838 158.31 156.335 159.034 150.176 161.309C144.017 163.583 124.415 157.988 119.099 158.524C113.783 159.06 103.828 161.952 101.366 161.523C98.9042 161.095 87.7718 158.571 80.2789 160.422C72.786 162.273 45.4762 157.761 37.127 162.369L210.766 162.358C210.766 162.358 201.021 158.203 193.742 159.595Z" fill="#C2CAEA"/>
</g>
</g>
</g>
<defs>
<filter id="filter0_f_13118_21473" x="-200" y="-200" width="660" height="600" filterUnits="userSpaceOnUse" color-interpolation-filters="sRGB">
<feFlood flood-opacity="0" result="BackgroundImageFix"/>
<feBlend mode="normal" in="SourceGraphic" in2="BackgroundImageFix" result="shape"/>
<feGaussianBlur stdDeviation="100" result="effect1_foregroundBlur_13118_21473"/>
</filter>
<filter id="filter1_b_13118_21473" x="-20" y="-20" width="300" height="240" filterUnits="userSpaceOnUse" color-interpolation-filters="sRGB">
<feFlood flood-opacity="0" result="BackgroundImageFix"/>
<feGaussianBlur in="BackgroundImageFix" stdDeviation="10"/>
<feComposite in2="SourceAlpha" operator="in" result="effect1_backgroundBlur_13118_21473"/>
<feBlend mode="normal" in="SourceGraphic" in2="effect1_backgroundBlur_13118_21473" result="shape"/>
</filter>
<radialGradient id="paint0_angular_13118_21473" cx="0" cy="0" r="1" gradientUnits="userSpaceOnUse" gradientTransform="translate(130 100) rotate(141.24) scale(110.94 65.9432)">
<stop stop-color="#7C9FE2"/>
<stop offset="0.119792" stop-color="#8947B6"/>
<stop offset="0.291845" stop-color="#E84B95"/>
<stop offset="0.463542" stop-color="#FBE14D"/>
<stop offset="0.604167" stop-color="#DCC4CF"/>
<stop offset="0.770833" stop-color="#DAFBFE"/>
<stop offset="0.844503" stop-color="#0DD6F2"/>
</radialGradient>
<linearGradient id="paint1_linear_13118_21473" x1="104.114" y1="5.7291" x2="24.6513" y2="190.193" gradientUnits="userSpaceOnUse">
<stop stop-color="white" stop-opacity="0.7"/>
<stop offset="1" stop-color="white" stop-opacity="0"/>
</linearGradient>
<clipPath id="clip0_13118_21473">
<rect width="260" height="200" rx="8" fill="white"/>
</clipPath>
<clipPath id="clip1_13118_21473">
<rect width="250" height="203" fill="white" transform="translate(5)"/>
</clipPath>
</defs>
</svg>
