<svg width="260" height="200" viewBox="0 0 260 200" fill="none" xmlns="http://www.w3.org/2000/svg">
<g clip-path="url(#clip0_13028_28622)">
<rect width="260" height="200" rx="8" fill="white"/>
<g opacity="0.4" filter="url(#filter0_f_13028_28622)">
<rect width="260" height="200" fill="url(#paint0_angular_13028_28622)"/>
</g>
<g opacity="0.9" filter="url(#filter1_b_13028_28622)">
<path d="M0 0H260V200H0V0Z" fill="url(#paint1_linear_13028_28622)"/>
</g>
<path d="M82.096 75.584L81.52 80.012C81.328 81.5 80.692 82.712 79.612 83.648C78.532 84.56 76.852 85.016 74.572 85.016H63.556L61 94.088C61.912 93.92 62.788 93.8 63.628 93.728C64.468 93.656 65.272 93.62 66.04 93.62C68.344 93.62 70.36 93.98 72.088 94.7C73.816 95.42 75.256 96.416 76.408 97.688C77.584 98.936 78.46 100.412 79.036 102.116C79.612 103.796 79.9 105.596 79.9 107.516C79.9 110.588 79.36 113.42 78.28 116.012C77.2 118.58 75.712 120.8 73.816 122.672C71.92 124.52 69.676 125.972 67.084 127.028C64.516 128.06 61.744 128.576 58.768 128.576C57.184 128.576 55.696 128.396 54.304 128.036C52.912 127.676 51.616 127.196 50.416 126.596C49.24 125.996 48.16 125.3 47.176 124.508C46.216 123.716 45.352 122.876 44.584 121.988L48.472 117.524C49.288 116.612 50.248 116.156 51.352 116.156C52.024 116.156 52.624 116.348 53.152 116.732C53.704 117.116 54.292 117.548 54.916 118.028C55.564 118.484 56.32 118.904 57.184 119.288C58.072 119.672 59.188 119.864 60.532 119.864C62.116 119.864 63.448 119.552 64.528 118.928C65.632 118.28 66.508 117.44 67.156 116.408C67.828 115.376 68.308 114.2 68.596 112.88C68.884 111.56 69.028 110.216 69.028 108.848C69.028 106.712 68.464 105.056 67.336 103.88C66.232 102.704 64.648 102.116 62.584 102.116C60.448 102.116 58.324 102.56 56.212 103.448L49.768 101.648L57.148 75.584H82.096ZM124.51 96.068C124.51 101.564 123.934 106.352 122.782 110.432C121.654 114.488 120.106 117.86 118.138 120.548C116.17 123.236 113.866 125.252 111.226 126.596C108.586 127.916 105.766 128.576 102.766 128.576C100.534 128.576 98.4936 128.144 96.6456 127.28C94.7976 126.392 93.2136 125.072 91.8936 123.32C90.5736 121.568 89.5416 119.384 88.7976 116.768C88.0776 114.128 87.7176 111.056 87.7176 107.552C87.7176 102.08 88.2816 97.304 89.4096 93.224C90.5376 89.144 92.0736 85.76 94.0176 83.072C95.9616 80.36 98.2416 78.344 100.858 77.024C103.498 75.68 106.33 75.008 109.354 75.008C111.586 75.008 113.626 75.452 115.474 76.34C117.346 77.204 118.942 78.512 120.262 80.264C121.606 82.016 122.65 84.212 123.394 86.852C124.138 89.468 124.51 92.54 124.51 96.068ZM113.494 95.492C113.494 93.188 113.338 91.28 113.026 89.768C112.738 88.232 112.354 87.02 111.874 86.132C111.394 85.22 110.83 84.584 110.182 84.224C109.558 83.84 108.91 83.648 108.238 83.648C107.086 83.648 105.934 84.032 104.782 84.8C103.654 85.568 102.634 86.888 101.722 88.76C100.834 90.632 100.114 93.152 99.5616 96.32C99.0096 99.464 98.7336 103.424 98.7336 108.2C98.7336 110.48 98.8776 112.376 99.1656 113.888C99.4536 115.4 99.8256 116.612 100.282 117.524C100.762 118.412 101.302 119.036 101.902 119.396C102.526 119.756 103.174 119.936 103.846 119.936C104.614 119.936 105.382 119.78 106.15 119.468C106.918 119.132 107.662 118.592 108.382 117.848C109.102 117.104 109.774 116.12 110.398 114.896C111.022 113.672 111.562 112.16 112.018 110.36C112.474 108.536 112.834 106.4 113.098 103.952C113.362 101.504 113.494 98.684 113.494 95.492ZM144.063 97.004H145.791C147.471 97.004 148.743 96.428 149.607 95.276L162.063 77.888C162.759 76.976 163.527 76.364 164.367 76.052C165.231 75.716 166.239 75.548 167.391 75.548H177.543L161.055 96.968C159.927 98.36 158.727 99.38 157.455 100.028C158.271 100.364 158.979 100.82 159.579 101.396C160.203 101.972 160.743 102.728 161.199 103.664L172.287 128H161.847C161.175 128 160.611 127.952 160.155 127.856C159.699 127.76 159.303 127.616 158.967 127.424C158.655 127.232 158.391 127.004 158.175 126.74C157.959 126.476 157.767 126.176 157.599 125.84L149.463 107.408C149.175 106.712 148.731 106.232 148.131 105.968C147.531 105.68 146.727 105.536 145.719 105.536H143.019L140.247 128H128.583L134.991 75.548H146.727L144.063 97.004ZM212.685 107.66H199.257L197.493 122.06H188.709L190.509 107.66H177.117L178.125 99.956H191.445L193.245 85.628H201.957L200.193 99.956H213.693L212.685 107.66Z" fill="url(#paint2_linear_13028_28622)"/>
<path d="M50.7253 30.948L47.5893 41H46.2453L43.7953 33.545C43.7393 33.3957 43.6903 33.216 43.6483 33.006C43.597 33.2207 43.548 33.4003 43.5013 33.545L41.0233 41H39.6863L36.5503 30.948H37.7963C37.927 30.948 38.0367 30.9807 38.1253 31.046C38.214 31.1067 38.2723 31.1907 38.3003 31.298L40.2813 38.025C40.3187 38.1557 40.3513 38.298 40.3793 38.452C40.412 38.606 40.4447 38.767 40.4773 38.935C40.51 38.767 40.5427 38.606 40.5753 38.452C40.6127 38.298 40.6547 38.1557 40.7013 38.025L42.9693 31.298C42.9973 31.2047 43.0557 31.123 43.1443 31.053C43.2377 30.983 43.3473 30.948 43.4733 30.948H43.9003C44.031 30.948 44.1383 30.9807 44.2223 31.046C44.3063 31.1113 44.367 31.1953 44.4043 31.298L46.6653 38.025C46.7493 38.2817 46.824 38.5733 46.8893 38.9C46.9453 38.578 47.006 38.2863 47.0713 38.025L49.0593 31.298C49.0827 31.2047 49.141 31.123 49.2343 31.053C49.3277 30.983 49.4373 30.948 49.5633 30.948H50.7253ZM55.7716 36.653C55.7716 36.3823 55.7319 36.1327 55.6526 35.904C55.5779 35.6753 55.4659 35.477 55.3166 35.309C55.1672 35.141 54.9852 35.0103 54.7706 34.917C54.5559 34.8237 54.3086 34.777 54.0286 34.777C53.4546 34.777 53.0019 34.9427 52.6706 35.274C52.3439 35.6053 52.1362 36.065 52.0476 36.653H55.7716ZM56.8986 39.985C56.7306 40.181 56.5369 40.3513 56.3176 40.496C56.0982 40.636 55.8649 40.7503 55.6176 40.839C55.3702 40.9277 55.1136 40.993 54.8476 41.035C54.5862 41.077 54.3272 41.098 54.0706 41.098C53.5806 41.098 53.1256 41.0163 52.7056 40.853C52.2902 40.685 51.9286 40.4423 51.6206 40.125C51.3172 39.803 51.0792 39.4063 50.9066 38.935C50.7386 38.459 50.6546 37.913 50.6546 37.297C50.6546 36.8023 50.7316 36.3427 50.8856 35.918C51.0396 35.4887 51.2589 35.1153 51.5436 34.798C51.8329 34.4807 52.1852 34.231 52.6006 34.049C53.0159 33.867 53.4826 33.776 54.0006 33.776C54.4346 33.776 54.8336 33.8483 55.1976 33.993C55.5662 34.133 55.8836 34.3383 56.1496 34.609C56.4156 34.8797 56.6232 35.2133 56.7726 35.61C56.9266 36.0067 57.0036 36.4593 57.0036 36.968C57.0036 37.178 56.9802 37.3203 56.9336 37.395C56.8869 37.465 56.8006 37.5 56.6746 37.5H52.0126C52.0266 37.9247 52.0872 38.2957 52.1946 38.613C52.3019 38.9257 52.4489 39.187 52.6356 39.397C52.8269 39.607 53.0532 39.7633 53.3146 39.866C53.5759 39.9687 53.8676 40.02 54.1896 40.02C54.4929 40.02 54.7542 39.985 54.9736 39.915C55.1976 39.845 55.3889 39.7703 55.5476 39.691C55.7109 39.607 55.8462 39.53 55.9536 39.46C56.0656 39.39 56.1636 39.355 56.2476 39.355C56.3596 39.355 56.4459 39.397 56.5066 39.481L56.8986 39.985ZM59.8707 30.668V41H58.4987V30.668H59.8707ZM66.8043 35.218C66.7623 35.2693 66.7203 35.3113 66.6783 35.344C66.641 35.372 66.585 35.386 66.5103 35.386C66.4357 35.386 66.3563 35.358 66.2723 35.302C66.193 35.2413 66.0903 35.1783 65.9643 35.113C65.843 35.043 65.6937 34.98 65.5163 34.924C65.3437 34.8633 65.129 34.833 64.8723 34.833C64.5363 34.833 64.24 34.8937 63.9833 35.015C63.7267 35.1363 63.512 35.309 63.3393 35.533C63.1713 35.757 63.043 36.03 62.9543 36.352C62.8657 36.674 62.8213 37.0357 62.8213 37.437C62.8213 37.8523 62.868 38.2233 62.9613 38.55C63.0547 38.872 63.1877 39.145 63.3603 39.369C63.533 39.5883 63.743 39.7563 63.9903 39.873C64.2377 39.985 64.513 40.041 64.8163 40.041C65.1103 40.041 65.353 40.006 65.5443 39.936C65.7357 39.8613 65.8943 39.782 66.0203 39.698C66.1463 39.614 66.2513 39.537 66.3353 39.467C66.4193 39.3923 66.5057 39.355 66.5943 39.355C66.7063 39.355 66.7927 39.397 66.8533 39.481L67.2453 39.985C67.082 40.1857 66.8977 40.356 66.6923 40.496C66.4917 40.636 66.277 40.7503 66.0483 40.839C65.8197 40.9277 65.5793 40.993 65.3273 41.035C65.08 41.077 64.828 41.098 64.5713 41.098C64.128 41.098 63.7127 41.0163 63.3253 40.853C62.9427 40.6897 62.609 40.4517 62.3243 40.139C62.0443 39.8263 61.8227 39.4437 61.6593 38.991C61.496 38.5337 61.4143 38.0157 61.4143 37.437C61.4143 36.9097 61.4867 36.422 61.6313 35.974C61.7807 35.526 61.9977 35.141 62.2823 34.819C62.5717 34.4923 62.9263 34.238 63.3463 34.056C63.7663 33.8693 64.247 33.776 64.7883 33.776C65.297 33.776 65.745 33.8577 66.1323 34.021C66.5197 34.1843 66.865 34.4153 67.1683 34.714L66.8043 35.218ZM71.4275 33.776C71.9502 33.776 72.4215 33.8623 72.8415 34.035C73.2662 34.203 73.6255 34.448 73.9195 34.77C74.2182 35.0873 74.4468 35.4723 74.6055 35.925C74.7642 36.373 74.8435 36.877 74.8435 37.437C74.8435 37.997 74.7642 38.5033 74.6055 38.956C74.4468 39.4087 74.2182 39.7937 73.9195 40.111C73.6255 40.4283 73.2662 40.6733 72.8415 40.846C72.4215 41.014 71.9502 41.098 71.4275 41.098C70.9002 41.098 70.4242 41.014 69.9995 40.846C69.5795 40.6733 69.2202 40.4283 68.9215 40.111C68.6228 39.7937 68.3918 39.4087 68.2285 38.956C68.0698 38.5033 67.9905 37.997 67.9905 37.437C67.9905 36.877 68.0698 36.373 68.2285 35.925C68.3918 35.4723 68.6228 35.0873 68.9215 34.77C69.2202 34.448 69.5795 34.203 69.9995 34.035C70.4242 33.8623 70.9002 33.776 71.4275 33.776ZM71.4275 40.034C72.0995 40.034 72.6012 39.8077 72.9325 39.355C73.2638 38.9023 73.4295 38.2653 73.4295 37.444C73.4295 36.6227 73.2638 35.9857 72.9325 35.533C72.6012 35.0757 72.0995 34.847 71.4275 34.847C70.7462 34.847 70.2375 35.0757 69.9015 35.533C69.5702 35.9857 69.4045 36.6227 69.4045 37.444C69.4045 38.2653 69.5702 38.9023 69.9015 39.355C70.2375 39.8077 70.7462 40.034 71.4275 40.034ZM76.3672 41V33.888H77.1862C77.3775 33.888 77.4965 33.979 77.5432 34.161L77.6412 34.84C77.9025 34.5273 78.1919 34.273 78.5092 34.077C78.8312 33.8763 79.2069 33.776 79.6362 33.776C80.1075 33.776 80.4902 33.9067 80.7842 34.168C81.0782 34.4247 81.2929 34.7747 81.4282 35.218C81.5309 34.966 81.6639 34.749 81.8272 34.567C81.9905 34.385 82.1725 34.2357 82.3732 34.119C82.5739 34.0023 82.7862 33.916 83.0102 33.86C83.2389 33.804 83.4699 33.776 83.7032 33.776C84.0812 33.776 84.4172 33.8367 84.7112 33.958C85.0099 34.0747 85.2619 34.2473 85.4672 34.476C85.6725 34.7047 85.8289 34.987 85.9362 35.323C86.0435 35.659 86.0972 36.0417 86.0972 36.471V41H84.7252V36.471C84.7252 35.939 84.6085 35.5377 84.3752 35.267C84.1465 34.9963 83.8105 34.861 83.3672 34.861C83.1712 34.861 82.9845 34.896 82.8072 34.966C82.6299 35.0313 82.4735 35.1317 82.3382 35.267C82.2075 35.4023 82.1025 35.5703 82.0232 35.771C81.9485 35.9717 81.9112 36.205 81.9112 36.471V41H80.5392V36.471C80.5392 35.9203 80.4295 35.5143 80.2102 35.253C79.9909 34.9917 79.6689 34.861 79.2442 34.861C78.9502 34.861 78.6772 34.938 78.4252 35.092C78.1732 35.246 77.9422 35.456 77.7322 35.722V41H76.3672ZM92.6446 36.653C92.6446 36.3823 92.6049 36.1327 92.5256 35.904C92.4509 35.6753 92.3389 35.477 92.1896 35.309C92.0403 35.141 91.8583 35.0103 91.6436 34.917C91.4289 34.8237 91.1816 34.777 90.9016 34.777C90.3276 34.777 89.8749 34.9427 89.5436 35.274C89.2169 35.6053 89.0093 36.065 88.9206 36.653H92.6446ZM93.7716 39.985C93.6036 40.181 93.4099 40.3513 93.1906 40.496C92.9713 40.636 92.7379 40.7503 92.4906 40.839C92.2433 40.9277 91.9866 40.993 91.7206 41.035C91.4593 41.077 91.2003 41.098 90.9436 41.098C90.4536 41.098 89.9986 41.0163 89.5786 40.853C89.1633 40.685 88.8016 40.4423 88.4936 40.125C88.1903 39.803 87.9523 39.4063 87.7796 38.935C87.6116 38.459 87.5276 37.913 87.5276 37.297C87.5276 36.8023 87.6046 36.3427 87.7586 35.918C87.9126 35.4887 88.1319 35.1153 88.4166 34.798C88.7059 34.4807 89.0583 34.231 89.4736 34.049C89.8889 33.867 90.3556 33.776 90.8736 33.776C91.3076 33.776 91.7066 33.8483 92.0706 33.993C92.4393 34.133 92.7566 34.3383 93.0226 34.609C93.2886 34.8797 93.4963 35.2133 93.6456 35.61C93.7996 36.0067 93.8766 36.4593 93.8766 36.968C93.8766 37.178 93.8533 37.3203 93.8066 37.395C93.7599 37.465 93.6736 37.5 93.5476 37.5H88.8856C88.8996 37.9247 88.9603 38.2957 89.0676 38.613C89.1749 38.9257 89.3219 39.187 89.5086 39.397C89.6999 39.607 89.9263 39.7633 90.1876 39.866C90.4489 39.9687 90.7406 40.02 91.0626 40.02C91.3659 40.02 91.6273 39.985 91.8466 39.915C92.0706 39.845 92.2619 39.7703 92.4206 39.691C92.5839 39.607 92.7193 39.53 92.8266 39.46C92.9386 39.39 93.0366 39.355 93.1206 39.355C93.2326 39.355 93.3189 39.397 93.3796 39.481L93.7716 39.985ZM101.111 41.112C100.537 41.112 100.093 40.951 99.7808 40.629C99.4728 40.307 99.3188 39.8473 99.3188 39.25V34.994H98.4928C98.4134 34.994 98.3458 34.9707 98.2898 34.924C98.2384 34.8727 98.2128 34.798 98.2128 34.7V34.147L99.3678 33.986L99.6758 31.865C99.6944 31.7857 99.7294 31.725 99.7808 31.683C99.8368 31.6363 99.9068 31.613 99.9908 31.613H100.684V34H102.7V34.994H100.684V39.159C100.684 39.439 100.751 39.649 100.887 39.789C101.027 39.9243 101.204 39.992 101.419 39.992C101.545 39.992 101.652 39.9757 101.741 39.943C101.834 39.9103 101.913 39.8753 101.979 39.838C102.044 39.796 102.1 39.7587 102.147 39.726C102.193 39.6933 102.235 39.677 102.273 39.677C102.319 39.677 102.354 39.6887 102.378 39.712C102.406 39.7307 102.434 39.7633 102.462 39.81L102.868 40.468C102.644 40.6733 102.378 40.832 102.07 40.944C101.762 41.056 101.442 41.112 101.111 41.112ZM106.947 33.776C107.47 33.776 107.941 33.8623 108.361 34.035C108.786 34.203 109.145 34.448 109.439 34.77C109.738 35.0873 109.966 35.4723 110.125 35.925C110.284 36.373 110.363 36.877 110.363 37.437C110.363 37.997 110.284 38.5033 110.125 38.956C109.966 39.4087 109.738 39.7937 109.439 40.111C109.145 40.4283 108.786 40.6733 108.361 40.846C107.941 41.014 107.47 41.098 106.947 41.098C106.42 41.098 105.944 41.014 105.519 40.846C105.099 40.6733 104.74 40.4283 104.441 40.111C104.142 39.7937 103.911 39.4087 103.748 38.956C103.589 38.5033 103.51 37.997 103.51 37.437C103.51 36.877 103.589 36.373 103.748 35.925C103.911 35.4723 104.142 35.0873 104.441 34.77C104.74 34.448 105.099 34.203 105.519 34.035C105.944 33.8623 106.42 33.776 106.947 33.776ZM106.947 40.034C107.619 40.034 108.121 39.8077 108.452 39.355C108.783 38.9023 108.949 38.2653 108.949 37.444C108.949 36.6227 108.783 35.9857 108.452 35.533C108.121 35.0757 107.619 34.847 106.947 34.847C106.266 34.847 105.757 35.0757 105.421 35.533C105.09 35.9857 104.924 36.6227 104.924 37.444C104.924 38.2653 105.09 38.9023 105.421 39.355C105.757 39.8077 106.266 40.034 106.947 40.034ZM118.459 33.776C118.981 33.776 119.453 33.8623 119.873 34.035C120.297 34.203 120.657 34.448 120.951 34.77C121.249 35.0873 121.478 35.4723 121.637 35.925C121.795 36.373 121.875 36.877 121.875 37.437C121.875 37.997 121.795 38.5033 121.637 38.956C121.478 39.4087 121.249 39.7937 120.951 40.111C120.657 40.4283 120.297 40.6733 119.873 40.846C119.453 41.014 118.981 41.098 118.459 41.098C117.931 41.098 117.455 41.014 117.031 40.846C116.611 40.6733 116.251 40.4283 115.953 40.111C115.654 39.7937 115.423 39.4087 115.26 38.956C115.101 38.5033 115.022 37.997 115.022 37.437C115.022 36.877 115.101 36.373 115.26 35.925C115.423 35.4723 115.654 35.0873 115.953 34.77C116.251 34.448 116.611 34.203 117.031 34.035C117.455 33.8623 117.931 33.776 118.459 33.776ZM118.459 40.034C119.131 40.034 119.632 39.8077 119.964 39.355C120.295 38.9023 120.461 38.2653 120.461 37.444C120.461 36.6227 120.295 35.9857 119.964 35.533C119.632 35.0757 119.131 34.847 118.459 34.847C117.777 34.847 117.269 35.0757 116.933 35.533C116.601 35.9857 116.436 36.6227 116.436 37.444C116.436 38.2653 116.601 38.9023 116.933 39.355C117.269 39.8077 117.777 40.034 118.459 40.034ZM129.313 33.888V41H128.494C128.308 41 128.186 40.909 128.13 40.727L128.032 40.013C127.878 40.1763 127.717 40.3257 127.549 40.461C127.381 40.5963 127.202 40.713 127.01 40.811C126.819 40.9043 126.616 40.9767 126.401 41.028C126.187 41.084 125.956 41.112 125.708 41.112C125.316 41.112 124.971 41.0467 124.672 40.916C124.378 40.7853 124.131 40.6033 123.93 40.37C123.73 40.132 123.578 39.8473 123.475 39.516C123.373 39.1847 123.321 38.8183 123.321 38.417V33.888H124.693V38.417C124.693 38.9257 124.81 39.3223 125.043 39.607C125.277 39.887 125.634 40.027 126.114 40.027C126.464 40.027 126.791 39.9453 127.094 39.782C127.398 39.614 127.682 39.3853 127.948 39.096V33.888H129.313ZM132.507 35.253C132.735 34.7863 133.011 34.42 133.333 34.154C133.655 33.888 134.042 33.755 134.495 33.755C134.649 33.755 134.793 33.7737 134.929 33.811C135.069 33.8437 135.19 33.895 135.293 33.965L135.202 34.994C135.169 35.12 135.092 35.183 134.971 35.183C134.905 35.183 134.807 35.1713 134.677 35.148C134.546 35.12 134.406 35.106 134.257 35.106C134.037 35.106 133.844 35.1387 133.676 35.204C133.508 35.2647 133.356 35.358 133.221 35.484C133.09 35.6053 132.973 35.757 132.871 35.939C132.768 36.1163 132.672 36.3193 132.584 36.548V41H131.219V33.888H132.003C132.152 33.888 132.252 33.916 132.304 33.972C132.36 34.0233 132.399 34.1167 132.423 34.252L132.507 35.253ZM144.57 35.218C144.528 35.2693 144.486 35.3113 144.444 35.344C144.407 35.372 144.351 35.386 144.276 35.386C144.201 35.386 144.122 35.358 144.038 35.302C143.959 35.2413 143.856 35.1783 143.73 35.113C143.609 35.043 143.459 34.98 143.282 34.924C143.109 34.8633 142.895 34.833 142.638 34.833C142.302 34.833 142.006 34.8937 141.749 35.015C141.492 35.1363 141.278 35.309 141.105 35.533C140.937 35.757 140.809 36.03 140.72 36.352C140.631 36.674 140.587 37.0357 140.587 37.437C140.587 37.8523 140.634 38.2233 140.727 38.55C140.82 38.872 140.953 39.145 141.126 39.369C141.299 39.5883 141.509 39.7563 141.756 39.873C142.003 39.985 142.279 40.041 142.582 40.041C142.876 40.041 143.119 40.006 143.31 39.936C143.501 39.8613 143.66 39.782 143.786 39.698C143.912 39.614 144.017 39.537 144.101 39.467C144.185 39.3923 144.271 39.355 144.36 39.355C144.472 39.355 144.558 39.397 144.619 39.481L145.011 39.985C144.848 40.1857 144.663 40.356 144.458 40.496C144.257 40.636 144.043 40.7503 143.814 40.839C143.585 40.9277 143.345 40.993 143.093 41.035C142.846 41.077 142.594 41.098 142.337 41.098C141.894 41.098 141.478 41.0163 141.091 40.853C140.708 40.6897 140.375 40.4517 140.09 40.139C139.81 39.8263 139.588 39.4437 139.425 38.991C139.262 38.5337 139.18 38.0157 139.18 37.437C139.18 36.9097 139.252 36.422 139.397 35.974C139.546 35.526 139.763 35.141 140.048 34.819C140.337 34.4923 140.692 34.238 141.112 34.056C141.532 33.8693 142.013 33.776 142.554 33.776C143.063 33.776 143.511 33.8577 143.898 34.021C144.285 34.1843 144.631 34.4153 144.934 34.714L144.57 35.218ZM149.193 33.776C149.716 33.776 150.187 33.8623 150.607 34.035C151.032 34.203 151.391 34.448 151.685 34.77C151.984 35.0873 152.212 35.4723 152.371 35.925C152.53 36.373 152.609 36.877 152.609 37.437C152.609 37.997 152.53 38.5033 152.371 38.956C152.212 39.4087 151.984 39.7937 151.685 40.111C151.391 40.4283 151.032 40.6733 150.607 40.846C150.187 41.014 149.716 41.098 149.193 41.098C148.666 41.098 148.19 41.014 147.765 40.846C147.345 40.6733 146.986 40.4283 146.687 40.111C146.388 39.7937 146.157 39.4087 145.994 38.956C145.835 38.5033 145.756 37.997 145.756 37.437C145.756 36.877 145.835 36.373 145.994 35.925C146.157 35.4723 146.388 35.0873 146.687 34.77C146.986 34.448 147.345 34.203 147.765 34.035C148.19 33.8623 148.666 33.776 149.193 33.776ZM149.193 40.034C149.865 40.034 150.367 39.8077 150.698 39.355C151.029 38.9023 151.195 38.2653 151.195 37.444C151.195 36.6227 151.029 35.9857 150.698 35.533C150.367 35.0757 149.865 34.847 149.193 34.847C148.512 34.847 148.003 35.0757 147.667 35.533C147.336 35.9857 147.17 36.6227 147.17 37.444C147.17 38.2653 147.336 38.9023 147.667 39.355C148.003 39.8077 148.512 40.034 149.193 40.034ZM154.133 41V33.888H154.952C155.143 33.888 155.262 33.979 155.309 34.161L155.407 34.84C155.668 34.5273 155.957 34.273 156.275 34.077C156.597 33.8763 156.972 33.776 157.402 33.776C157.873 33.776 158.256 33.9067 158.55 34.168C158.844 34.4247 159.058 34.7747 159.194 35.218C159.296 34.966 159.429 34.749 159.593 34.567C159.756 34.385 159.938 34.2357 160.139 34.119C160.339 34.0023 160.552 33.916 160.776 33.86C161.004 33.804 161.235 33.776 161.469 33.776C161.847 33.776 162.183 33.8367 162.477 33.958C162.775 34.0747 163.027 34.2473 163.233 34.476C163.438 34.7047 163.594 34.987 163.702 35.323C163.809 35.659 163.863 36.0417 163.863 36.471V41H162.491V36.471C162.491 35.939 162.374 35.5377 162.141 35.267C161.912 34.9963 161.576 34.861 161.133 34.861C160.937 34.861 160.75 34.896 160.573 34.966C160.395 35.0313 160.239 35.1317 160.104 35.267C159.973 35.4023 159.868 35.5703 159.789 35.771C159.714 35.9717 159.677 36.205 159.677 36.471V41H158.305V36.471C158.305 35.9203 158.195 35.5143 157.976 35.253C157.756 34.9917 157.434 34.861 157.01 34.861C156.716 34.861 156.443 34.938 156.191 35.092C155.939 35.246 155.708 35.456 155.498 35.722V41H154.133ZM165.699 41V33.888H166.518C166.71 33.888 166.829 33.979 166.875 34.161L166.973 34.84C167.235 34.5273 167.524 34.273 167.841 34.077C168.163 33.8763 168.539 33.776 168.968 33.776C169.44 33.776 169.822 33.9067 170.116 34.168C170.41 34.4247 170.625 34.7747 170.76 35.218C170.863 34.966 170.996 34.749 171.159 34.567C171.323 34.385 171.505 34.2357 171.705 34.119C171.906 34.0023 172.118 33.916 172.342 33.86C172.571 33.804 172.802 33.776 173.035 33.776C173.413 33.776 173.749 33.8367 174.043 33.958C174.342 34.0747 174.594 34.2473 174.799 34.476C175.005 34.7047 175.161 34.987 175.268 35.323C175.376 35.659 175.429 36.0417 175.429 36.471V41H174.057V36.471C174.057 35.939 173.941 35.5377 173.707 35.267C173.479 34.9963 173.143 34.861 172.699 34.861C172.503 34.861 172.317 34.896 172.139 34.966C171.962 35.0313 171.806 35.1317 171.67 35.267C171.54 35.4023 171.435 35.5703 171.355 35.771C171.281 35.9717 171.243 36.205 171.243 36.471V41H169.871V36.471C169.871 35.9203 169.762 35.5143 169.542 35.253C169.323 34.9917 169.001 34.861 168.576 34.861C168.282 34.861 168.009 34.938 167.757 35.092C167.505 35.246 167.274 35.456 167.064 35.722V41H165.699ZM183.181 33.888V41H182.362C182.175 41 182.054 40.909 181.998 40.727L181.9 40.013C181.746 40.1763 181.585 40.3257 181.417 40.461C181.249 40.5963 181.069 40.713 180.878 40.811C180.686 40.9043 180.483 40.9767 180.269 41.028C180.054 41.084 179.823 41.112 179.576 41.112C179.184 41.112 178.838 41.0467 178.54 40.916C178.246 40.7853 177.998 40.6033 177.798 40.37C177.597 40.132 177.445 39.8473 177.343 39.516C177.24 39.1847 177.189 38.8183 177.189 38.417V33.888H178.561V38.417C178.561 38.9257 178.677 39.3223 178.911 39.607C179.144 39.887 179.501 40.027 179.982 40.027C180.332 40.027 180.658 39.9453 180.962 39.782C181.265 39.614 181.55 39.3853 181.816 39.096V33.888H183.181ZM186.367 34.875C186.521 34.7117 186.682 34.5623 186.85 34.427C187.018 34.2917 187.195 34.1773 187.382 34.084C187.573 33.986 187.776 33.9113 187.991 33.86C188.21 33.804 188.444 33.776 188.691 33.776C189.083 33.776 189.426 33.8413 189.72 33.972C190.019 34.1027 190.268 34.287 190.469 34.525C190.67 34.7583 190.821 35.0407 190.924 35.372C191.027 35.7033 191.078 36.0697 191.078 36.471V41H189.706V36.471C189.706 35.9623 189.589 35.568 189.356 35.288C189.123 35.0033 188.766 34.861 188.285 34.861C187.935 34.861 187.606 34.945 187.298 35.113C186.995 35.2763 186.712 35.5003 186.451 35.785V41H185.086V33.888H185.905C186.096 33.888 186.215 33.979 186.262 34.161L186.367 34.875ZM194.348 33.888V41H192.983V33.888H194.348ZM194.607 31.69C194.607 31.816 194.581 31.9373 194.53 32.054C194.479 32.166 194.409 32.2663 194.32 32.355C194.236 32.439 194.136 32.5067 194.019 32.558C193.902 32.6047 193.781 32.628 193.655 32.628C193.529 32.628 193.41 32.6047 193.298 32.558C193.186 32.5067 193.086 32.439 192.997 32.355C192.913 32.2663 192.845 32.166 192.794 32.054C192.747 31.9373 192.724 31.816 192.724 31.69C192.724 31.5593 192.747 31.438 192.794 31.326C192.845 31.2093 192.913 31.109 192.997 31.025C193.086 30.9363 193.186 30.8687 193.298 30.822C193.41 30.7707 193.529 30.745 193.655 30.745C193.781 30.745 193.902 30.7707 194.019 30.822C194.136 30.8687 194.236 30.9363 194.32 31.025C194.409 31.109 194.479 31.2093 194.53 31.326C194.581 31.438 194.607 31.5593 194.607 31.69ZM198.55 41.112C197.976 41.112 197.533 40.951 197.22 40.629C196.912 40.307 196.758 39.8473 196.758 39.25V34.994H195.932C195.853 34.994 195.785 34.9707 195.729 34.924C195.678 34.8727 195.652 34.798 195.652 34.7V34.147L196.807 33.986L197.115 31.865C197.134 31.7857 197.169 31.725 197.22 31.683C197.276 31.6363 197.346 31.613 197.43 31.613H198.123V34H200.139V34.994H198.123V39.159C198.123 39.439 198.191 39.649 198.326 39.789C198.466 39.9243 198.644 39.992 198.858 39.992C198.984 39.992 199.092 39.9757 199.18 39.943C199.274 39.9103 199.353 39.8753 199.418 39.838C199.484 39.796 199.54 39.7587 199.586 39.726C199.633 39.6933 199.675 39.677 199.712 39.677C199.759 39.677 199.794 39.6887 199.817 39.712C199.845 39.7307 199.873 39.7633 199.901 39.81L200.307 40.468C200.083 40.6733 199.817 40.832 199.509 40.944C199.201 41.056 198.882 41.112 198.55 41.112ZM207.613 33.888L203.665 43.065C203.623 43.1677 203.567 43.247 203.497 43.303C203.427 43.359 203.324 43.387 203.189 43.387H202.174L203.476 40.552L200.557 33.888H201.747C201.863 33.888 201.954 33.916 202.02 33.972C202.085 34.028 202.132 34.091 202.16 34.161L203.966 38.431C204.003 38.5383 204.038 38.648 204.071 38.76C204.108 38.8673 204.138 38.9747 204.162 39.082C204.194 38.97 204.229 38.8603 204.267 38.753C204.304 38.641 204.344 38.5313 204.386 38.424L206.129 34.161C206.161 34.0817 206.213 34.0163 206.283 33.965C206.353 33.9137 206.432 33.888 206.521 33.888H207.613ZM214.886 33.776C215.409 33.776 215.88 33.8623 216.3 34.035C216.725 34.203 217.084 34.448 217.378 34.77C217.677 35.0873 217.906 35.4723 218.064 35.925C218.223 36.373 218.302 36.877 218.302 37.437C218.302 37.997 218.223 38.5033 218.064 38.956C217.906 39.4087 217.677 39.7937 217.378 40.111C217.084 40.4283 216.725 40.6733 216.3 40.846C215.88 41.014 215.409 41.098 214.886 41.098C214.359 41.098 213.883 41.014 213.458 40.846C213.038 40.6733 212.679 40.4283 212.38 40.111C212.082 39.7937 211.851 39.4087 211.687 38.956C211.529 38.5033 211.449 37.997 211.449 37.437C211.449 36.877 211.529 36.373 211.687 35.925C211.851 35.4723 212.082 35.0873 212.38 34.77C212.679 34.448 213.038 34.203 213.458 34.035C213.883 33.8623 214.359 33.776 214.886 33.776ZM214.886 40.034C215.558 40.034 216.06 39.8077 216.391 39.355C216.723 38.9023 216.888 38.2653 216.888 37.444C216.888 36.6227 216.723 35.9857 216.391 35.533C216.06 35.0757 215.558 34.847 214.886 34.847C214.205 34.847 213.696 35.0757 213.36 35.533C213.029 35.9857 212.863 36.6227 212.863 37.444C212.863 38.2653 213.029 38.9023 213.36 39.355C213.696 39.8077 214.205 40.034 214.886 40.034ZM220.131 41V35.008L219.389 34.917C219.282 34.8937 219.193 34.8563 219.123 34.805C219.058 34.749 219.025 34.6697 219.025 34.567V34H220.131V33.356C220.131 32.95 220.189 32.5883 220.306 32.271C220.423 31.9537 220.588 31.6853 220.803 31.466C221.022 31.242 221.284 31.074 221.587 30.962C221.895 30.8453 222.24 30.787 222.623 30.787C222.945 30.787 223.241 30.8337 223.512 30.927L223.484 31.613C223.479 31.6737 223.461 31.7203 223.428 31.753C223.395 31.781 223.351 31.802 223.295 31.816C223.244 31.83 223.178 31.8393 223.099 31.844C223.024 31.844 222.943 31.844 222.854 31.844C222.644 31.844 222.453 31.8697 222.28 31.921C222.107 31.9723 221.96 32.0587 221.839 32.18C221.718 32.3013 221.624 32.4623 221.559 32.663C221.494 32.859 221.461 33.104 221.461 33.398V34H223.456V34.994H221.503V41H220.131Z" fill="#343434"/>
<path d="M18.0915 156.159V159.526H22.1235V160.737H18.0915V165H16.5935V154.948H22.8235V156.159H18.0915ZM24.9159 159.253C25.1446 158.786 25.4199 158.42 25.7419 158.154C26.0639 157.888 26.4513 157.755 26.9039 157.755C27.0579 157.755 27.2026 157.774 27.3379 157.811C27.4779 157.844 27.5993 157.895 27.7019 157.965L27.6109 158.994C27.5783 159.12 27.5013 159.183 27.3799 159.183C27.3146 159.183 27.2166 159.171 27.0859 159.148C26.9553 159.12 26.8153 159.106 26.6659 159.106C26.4466 159.106 26.2529 159.139 26.0849 159.204C25.9169 159.265 25.7653 159.358 25.6299 159.484C25.4993 159.605 25.3826 159.757 25.2799 159.939C25.1773 160.116 25.0816 160.319 24.9929 160.548V165H23.6279V157.888H24.4119C24.5613 157.888 24.6616 157.916 24.7129 157.972C24.7689 158.023 24.8086 158.117 24.8319 158.252L24.9159 159.253ZM33.2061 160.653C33.2061 160.382 33.1665 160.133 33.0871 159.904C33.0125 159.675 32.9005 159.477 32.7511 159.309C32.6018 159.141 32.4198 159.01 32.2051 158.917C31.9905 158.824 31.7431 158.777 31.4631 158.777C30.8891 158.777 30.4365 158.943 30.1051 159.274C29.7785 159.605 29.5708 160.065 29.4821 160.653H33.2061ZM34.3331 163.985C34.1651 164.181 33.9715 164.351 33.7521 164.496C33.5328 164.636 33.2995 164.75 33.0521 164.839C32.8048 164.928 32.5481 164.993 32.2821 165.035C32.0208 165.077 31.7618 165.098 31.5051 165.098C31.0151 165.098 30.5601 165.016 30.1401 164.853C29.7248 164.685 29.3631 164.442 29.0551 164.125C28.7518 163.803 28.5138 163.406 28.3411 162.935C28.1731 162.459 28.0891 161.913 28.0891 161.297C28.0891 160.802 28.1661 160.343 28.3201 159.918C28.4741 159.489 28.6935 159.115 28.9781 158.798C29.2675 158.481 29.6198 158.231 30.0351 158.049C30.4505 157.867 30.9171 157.776 31.4351 157.776C31.8691 157.776 32.2681 157.848 32.6321 157.993C33.0008 158.133 33.3181 158.338 33.5841 158.609C33.8501 158.88 34.0578 159.213 34.2071 159.61C34.3611 160.007 34.4381 160.459 34.4381 160.968C34.4381 161.178 34.4148 161.32 34.3681 161.395C34.3215 161.465 34.2351 161.5 34.1091 161.5H29.4471C29.4611 161.925 29.5218 162.296 29.6291 162.613C29.7365 162.926 29.8835 163.187 30.0701 163.397C30.2615 163.607 30.4878 163.763 30.7491 163.866C31.0105 163.969 31.3021 164.02 31.6241 164.02C31.9275 164.02 32.1888 163.985 32.4081 163.915C32.6321 163.845 32.8235 163.77 32.9821 163.691C33.1455 163.607 33.2808 163.53 33.3881 163.46C33.5001 163.39 33.5981 163.355 33.6821 163.355C33.7941 163.355 33.8805 163.397 33.9411 163.481L34.3331 163.985ZM40.6163 160.653C40.6163 160.382 40.5766 160.133 40.4973 159.904C40.4226 159.675 40.3106 159.477 40.1613 159.309C40.012 159.141 39.83 159.01 39.6153 158.917C39.4006 158.824 39.1533 158.777 38.8733 158.777C38.2993 158.777 37.8466 158.943 37.5153 159.274C37.1886 159.605 36.981 160.065 36.8923 160.653H40.6163ZM41.7433 163.985C41.5753 164.181 41.3816 164.351 41.1623 164.496C40.943 164.636 40.7096 164.75 40.4623 164.839C40.215 164.928 39.9583 164.993 39.6923 165.035C39.431 165.077 39.172 165.098 38.9153 165.098C38.4253 165.098 37.9703 165.016 37.5503 164.853C37.135 164.685 36.7733 164.442 36.4653 164.125C36.162 163.803 35.924 163.406 35.7513 162.935C35.5833 162.459 35.4993 161.913 35.4993 161.297C35.4993 160.802 35.5763 160.343 35.7303 159.918C35.8843 159.489 36.1036 159.115 36.3883 158.798C36.6776 158.481 37.03 158.231 37.4453 158.049C37.8606 157.867 38.3273 157.776 38.8453 157.776C39.2793 157.776 39.6783 157.848 40.0423 157.993C40.411 158.133 40.7283 158.338 40.9943 158.609C41.2603 158.88 41.468 159.213 41.6173 159.61C41.7713 160.007 41.8483 160.459 41.8483 160.968C41.8483 161.178 41.825 161.32 41.7783 161.395C41.7316 161.465 41.6453 161.5 41.5193 161.5H36.8573C36.8713 161.925 36.932 162.296 37.0393 162.613C37.1466 162.926 37.2936 163.187 37.4803 163.397C37.6716 163.607 37.898 163.763 38.1593 163.866C38.4206 163.969 38.7123 164.02 39.0343 164.02C39.3376 164.02 39.599 163.985 39.8183 163.915C40.0423 163.845 40.2336 163.77 40.3923 163.691C40.5556 163.607 40.691 163.53 40.7983 163.46C40.9103 163.39 41.0083 163.355 41.0923 163.355C41.2043 163.355 41.2906 163.397 41.3513 163.481L41.7433 163.985ZM44.7154 154.668V165H43.3434V154.668H44.7154ZM50.4871 161.843C49.9317 161.862 49.4604 161.906 49.0731 161.976C48.6857 162.041 48.3707 162.13 48.1281 162.242C47.8854 162.354 47.7104 162.487 47.6031 162.641C47.4957 162.79 47.4421 162.958 47.4421 163.145C47.4421 163.322 47.4701 163.476 47.5261 163.607C47.5867 163.733 47.6661 163.838 47.7641 163.922C47.8667 164.001 47.9857 164.06 48.1211 164.097C48.2564 164.134 48.4034 164.153 48.5621 164.153C48.7721 164.153 48.9634 164.132 49.1361 164.09C49.3134 164.048 49.4791 163.99 49.6331 163.915C49.7871 163.836 49.9341 163.74 50.0741 163.628C50.2141 163.516 50.3517 163.388 50.4871 163.243V161.843ZM46.4831 158.882C46.8797 158.504 47.3091 158.222 47.7711 158.035C48.2377 157.848 48.7487 157.755 49.3041 157.755C49.7101 157.755 50.0694 157.823 50.3821 157.958C50.6947 158.089 50.9584 158.273 51.1731 158.511C51.3877 158.749 51.5487 159.034 51.6561 159.365C51.7681 159.696 51.8241 160.063 51.8241 160.464V165H51.2151C51.0797 165 50.9771 164.979 50.9071 164.937C50.8371 164.89 50.7811 164.806 50.7391 164.685L50.5921 164.062C50.4101 164.23 50.2304 164.379 50.0531 164.51C49.8757 164.636 49.6891 164.746 49.4931 164.839C49.3017 164.928 49.0964 164.995 48.8771 165.042C48.6577 165.089 48.4151 165.112 48.1491 165.112C47.8691 165.112 47.6054 165.075 47.3581 165C47.1154 164.921 46.9031 164.802 46.7211 164.643C46.5391 164.484 46.3944 164.286 46.2871 164.048C46.1844 163.81 46.1331 163.532 46.1331 163.215C46.1331 162.935 46.2077 162.667 46.3571 162.41C46.5111 162.149 46.7584 161.915 47.0991 161.71C47.4444 161.505 47.8924 161.337 48.4431 161.206C48.9984 161.075 49.6797 161.001 50.4871 160.982V160.464C50.4871 159.927 50.3727 159.526 50.1441 159.26C49.9154 158.994 49.5794 158.861 49.1361 158.861C48.8374 158.861 48.5854 158.898 48.3801 158.973C48.1794 159.048 48.0044 159.132 47.8551 159.225C47.7104 159.314 47.5821 159.395 47.4701 159.47C47.3627 159.545 47.2507 159.582 47.1341 159.582C47.0407 159.582 46.9591 159.556 46.8891 159.505C46.8237 159.454 46.7701 159.393 46.7281 159.323L46.4831 158.882ZM54.9324 158.875C55.0864 158.712 55.2474 158.562 55.4154 158.427C55.5834 158.292 55.7607 158.177 55.9474 158.084C56.1387 157.986 56.3417 157.911 56.5564 157.86C56.7757 157.804 57.009 157.776 57.2564 157.776C57.6484 157.776 57.9914 157.841 58.2854 157.972C58.584 158.103 58.8337 158.287 59.0344 158.525C59.235 158.758 59.3867 159.041 59.4894 159.372C59.592 159.703 59.6434 160.07 59.6434 160.471V165H58.2714V160.471C58.2714 159.962 58.1547 159.568 57.9214 159.288C57.688 159.003 57.331 158.861 56.8504 158.861C56.5004 158.861 56.1714 158.945 55.8634 159.113C55.56 159.276 55.2777 159.5 55.0164 159.785V165H53.6514V157.888H54.4704C54.6617 157.888 54.7807 157.979 54.8274 158.161L54.9324 158.875ZM66.4694 159.218C66.4274 159.269 66.3854 159.311 66.3434 159.344C66.306 159.372 66.25 159.386 66.1754 159.386C66.1007 159.386 66.0214 159.358 65.9374 159.302C65.858 159.241 65.7554 159.178 65.6294 159.113C65.508 159.043 65.3587 158.98 65.1814 158.924C65.0087 158.863 64.794 158.833 64.5374 158.833C64.2014 158.833 63.905 158.894 63.6484 159.015C63.3917 159.136 63.177 159.309 63.0044 159.533C62.8364 159.757 62.708 160.03 62.6194 160.352C62.5307 160.674 62.4864 161.036 62.4864 161.437C62.4864 161.852 62.533 162.223 62.6264 162.55C62.7197 162.872 62.8527 163.145 63.0254 163.369C63.198 163.588 63.408 163.756 63.6554 163.873C63.9027 163.985 64.178 164.041 64.4814 164.041C64.7754 164.041 65.018 164.006 65.2094 163.936C65.4007 163.861 65.5594 163.782 65.6854 163.698C65.8114 163.614 65.9164 163.537 66.0004 163.467C66.0844 163.392 66.1707 163.355 66.2594 163.355C66.3714 163.355 66.4577 163.397 66.5184 163.481L66.9104 163.985C66.747 164.186 66.5627 164.356 66.3574 164.496C66.1567 164.636 65.942 164.75 65.7134 164.839C65.4847 164.928 65.2444 164.993 64.9924 165.035C64.745 165.077 64.493 165.098 64.2364 165.098C63.793 165.098 63.3777 165.016 62.9904 164.853C62.6077 164.69 62.274 164.452 61.9894 164.139C61.7094 163.826 61.4877 163.444 61.3244 162.991C61.161 162.534 61.0794 162.016 61.0794 161.437C61.0794 160.91 61.1517 160.422 61.2964 159.974C61.4457 159.526 61.6627 159.141 61.9474 158.819C62.2367 158.492 62.5914 158.238 63.0114 158.056C63.4314 157.869 63.912 157.776 64.4534 157.776C64.962 157.776 65.41 157.858 65.7974 158.021C66.1847 158.184 66.53 158.415 66.8334 158.714L66.4694 159.218ZM72.7725 160.653C72.7725 160.382 72.7329 160.133 72.6535 159.904C72.5789 159.675 72.4669 159.477 72.3175 159.309C72.1682 159.141 71.9862 159.01 71.7715 158.917C71.5569 158.824 71.3095 158.777 71.0295 158.777C70.4555 158.777 70.0029 158.943 69.6715 159.274C69.3449 159.605 69.1372 160.065 69.0485 160.653H72.7725ZM73.8995 163.985C73.7315 164.181 73.5379 164.351 73.3185 164.496C73.0992 164.636 72.8659 164.75 72.6185 164.839C72.3712 164.928 72.1145 164.993 71.8485 165.035C71.5872 165.077 71.3282 165.098 71.0715 165.098C70.5815 165.098 70.1265 165.016 69.7065 164.853C69.2912 164.685 68.9295 164.442 68.6215 164.125C68.3182 163.803 68.0802 163.406 67.9075 162.935C67.7395 162.459 67.6555 161.913 67.6555 161.297C67.6555 160.802 67.7325 160.343 67.8865 159.918C68.0405 159.489 68.2599 159.115 68.5445 158.798C68.8339 158.481 69.1862 158.231 69.6015 158.049C70.0169 157.867 70.4835 157.776 71.0015 157.776C71.4355 157.776 71.8345 157.848 72.1985 157.993C72.5672 158.133 72.8845 158.338 73.1505 158.609C73.4165 158.88 73.6242 159.213 73.7735 159.61C73.9275 160.007 74.0045 160.459 74.0045 160.968C74.0045 161.178 73.9812 161.32 73.9345 161.395C73.8879 161.465 73.8015 161.5 73.6755 161.5H69.0135C69.0275 161.925 69.0882 162.296 69.1955 162.613C69.3029 162.926 69.4499 163.187 69.6365 163.397C69.8279 163.607 70.0542 163.763 70.3155 163.866C70.5769 163.969 70.8685 164.02 71.1905 164.02C71.4939 164.02 71.7552 163.985 71.9745 163.915C72.1985 163.845 72.3899 163.77 72.5485 163.691C72.7119 163.607 72.8472 163.53 72.9545 163.46C73.0665 163.39 73.1645 163.355 73.2485 163.355C73.3605 163.355 73.4469 163.397 73.5075 163.481L73.8995 163.985ZM76.7597 159.253C76.9884 158.786 77.2637 158.42 77.5857 158.154C77.9077 157.888 78.295 157.755 78.7477 157.755C78.9017 157.755 79.0464 157.774 79.1817 157.811C79.3217 157.844 79.443 157.895 79.5457 157.965L79.4547 158.994C79.422 159.12 79.345 159.183 79.2237 159.183C79.1584 159.183 79.0604 159.171 78.9297 159.148C78.799 159.12 78.659 159.106 78.5097 159.106C78.2904 159.106 78.0967 159.139 77.9287 159.204C77.7607 159.265 77.609 159.358 77.4737 159.484C77.343 159.605 77.2264 159.757 77.1237 159.939C77.021 160.116 76.9254 160.319 76.8367 160.548V165H75.4717V157.888H76.2557C76.405 157.888 76.5054 157.916 76.5567 157.972C76.6127 158.023 76.6524 158.117 76.6757 158.252L76.7597 159.253ZM84.7506 159.113C84.7133 159.174 84.6736 159.218 84.6316 159.246C84.5896 159.269 84.536 159.281 84.4706 159.281C84.396 159.281 84.312 159.255 84.2186 159.204C84.13 159.153 84.0203 159.097 83.8896 159.036C83.7636 158.975 83.6143 158.919 83.4416 158.868C83.269 158.817 83.0636 158.791 82.8256 158.791C82.6296 158.791 82.45 158.817 82.2866 158.868C82.128 158.915 81.9926 158.982 81.8806 159.071C81.7686 159.155 81.6823 159.258 81.6216 159.379C81.561 159.496 81.5306 159.622 81.5306 159.757C81.5306 159.934 81.582 160.081 81.6846 160.198C81.792 160.315 81.9296 160.415 82.0976 160.499C82.2703 160.583 82.464 160.66 82.6786 160.73C82.898 160.795 83.1196 160.865 83.3436 160.94C83.5723 161.015 83.794 161.101 84.0086 161.199C84.228 161.292 84.4216 161.411 84.5896 161.556C84.7623 161.696 84.9 161.866 85.0026 162.067C85.11 162.268 85.1636 162.513 85.1636 162.802C85.1636 163.133 85.103 163.441 84.9816 163.726C84.865 164.006 84.69 164.249 84.4566 164.454C84.228 164.659 83.9433 164.82 83.6026 164.937C83.262 165.054 82.8723 165.112 82.4336 165.112C81.9436 165.112 81.491 165.03 81.0756 164.867C80.6603 164.704 80.3126 164.496 80.0326 164.244L80.3546 163.719C80.392 163.654 80.4386 163.605 80.4946 163.572C80.5506 163.535 80.6253 163.516 80.7186 163.516C80.8073 163.516 80.8983 163.549 80.9916 163.614C81.085 163.679 81.197 163.752 81.3276 163.831C81.4583 163.906 81.617 163.976 81.8036 164.041C81.9903 164.102 82.2236 164.132 82.5036 164.132C82.737 164.132 82.94 164.104 83.1126 164.048C83.2853 163.987 83.4276 163.908 83.5396 163.81C83.6563 163.707 83.7426 163.591 83.7986 163.46C83.8546 163.329 83.8826 163.192 83.8826 163.047C83.8826 162.86 83.829 162.706 83.7216 162.585C83.619 162.459 83.4813 162.352 83.3086 162.263C83.1406 162.174 82.947 162.097 82.7276 162.032C82.5083 161.967 82.2843 161.897 82.0556 161.822C81.827 161.747 81.603 161.661 81.3836 161.563C81.1643 161.465 80.9683 161.341 80.7956 161.192C80.6276 161.043 80.49 160.861 80.3826 160.646C80.28 160.431 80.2286 160.17 80.2286 159.862C80.2286 159.587 80.2846 159.323 80.3966 159.071C80.5133 158.819 80.679 158.597 80.8936 158.406C81.113 158.215 81.3813 158.063 81.6986 157.951C82.0206 157.834 82.387 157.776 82.7976 157.776C83.269 157.776 83.6936 157.851 84.0716 158C84.4543 158.149 84.781 158.355 85.0516 158.616L84.7506 159.113ZM87.2576 165C87.1316 165 87.015 164.977 86.9076 164.93C86.805 164.883 86.714 164.82 86.6346 164.741C86.56 164.657 86.5016 164.559 86.4596 164.447C86.4176 164.335 86.3966 164.214 86.3966 164.083C86.3966 163.971 86.4176 163.866 86.4596 163.768C86.5016 163.665 86.56 163.577 86.6346 163.502C86.714 163.427 86.8073 163.369 86.9146 163.327C87.022 163.28 87.141 163.257 87.2716 163.257C87.421 163.257 87.5516 163.285 87.6636 163.341C87.7803 163.392 87.876 163.467 87.9506 163.565C88.03 163.658 88.0883 163.768 88.1256 163.894C88.163 164.02 88.1816 164.155 88.1816 164.3C88.1816 164.51 88.1513 164.732 88.0906 164.965C88.03 165.198 87.9413 165.429 87.8246 165.658C87.708 165.887 87.5633 166.108 87.3906 166.323C87.218 166.538 87.022 166.736 86.8026 166.918L86.5716 166.701C86.5016 166.636 86.4666 166.563 86.4666 166.484C86.4666 166.451 86.476 166.416 86.4946 166.379C86.518 166.346 86.546 166.314 86.5786 166.281C86.6253 166.23 86.686 166.162 86.7606 166.078C86.8353 165.994 86.9076 165.896 86.9776 165.784C87.0523 165.677 87.12 165.555 87.1806 165.42C87.246 165.289 87.2926 165.149 87.3206 165H87.2576ZM98.8629 156.586C98.8162 156.665 98.7672 156.724 98.7159 156.761C98.6645 156.798 98.5992 156.817 98.5199 156.817C98.4359 156.817 98.3402 156.78 98.2329 156.705C98.1255 156.626 97.9902 156.539 97.8269 156.446C97.6682 156.348 97.4769 156.262 97.2529 156.187C97.0289 156.108 96.7605 156.068 96.4479 156.068C96.1539 156.068 95.8949 156.108 95.6709 156.187C95.4515 156.262 95.2672 156.367 95.1179 156.502C94.9685 156.633 94.8542 156.789 94.7749 156.971C94.7002 157.148 94.6629 157.342 94.6629 157.552C94.6629 157.823 94.7305 158.047 94.8659 158.224C95.0059 158.401 95.1879 158.553 95.4119 158.679C95.6359 158.805 95.8902 158.915 96.1749 159.008C96.4595 159.101 96.7512 159.199 97.0499 159.302C97.3485 159.4 97.6402 159.514 97.9249 159.645C98.2095 159.776 98.4639 159.941 98.6879 160.142C98.9119 160.338 99.0915 160.581 99.2269 160.87C99.3669 161.155 99.4369 161.505 99.4369 161.92C99.4369 162.363 99.3599 162.779 99.2059 163.166C99.0565 163.553 98.8372 163.892 98.5479 164.181C98.2585 164.47 97.9015 164.699 97.4769 164.867C97.0569 165.03 96.5785 165.112 96.0419 165.112C95.7199 165.112 95.4072 165.079 95.1039 165.014C94.8005 164.953 94.5135 164.867 94.2429 164.755C93.9722 164.638 93.7179 164.501 93.4799 164.342C93.2465 164.179 93.0365 163.997 92.8499 163.796L93.2769 163.082C93.3189 163.026 93.3679 162.979 93.4239 162.942C93.4845 162.905 93.5522 162.886 93.6269 162.886C93.7249 162.886 93.8369 162.937 93.9629 163.04C94.0935 163.143 94.2522 163.257 94.4389 163.383C94.6302 163.504 94.8565 163.616 95.1179 163.719C95.3839 163.822 95.7059 163.873 96.0839 163.873C96.3919 163.873 96.6672 163.833 96.9099 163.754C97.1525 163.67 97.3555 163.553 97.5189 163.404C97.6869 163.25 97.8152 163.066 97.9039 162.851C97.9925 162.636 98.0369 162.398 98.0369 162.137C98.0369 161.843 97.9692 161.603 97.8339 161.416C97.6985 161.229 97.5189 161.073 97.2949 160.947C97.0709 160.821 96.8165 160.714 96.5319 160.625C96.2472 160.536 95.9555 160.445 95.6569 160.352C95.3582 160.254 95.0665 160.142 94.7819 160.016C94.4972 159.89 94.2429 159.727 94.0189 159.526C93.7949 159.321 93.6152 159.066 93.4799 158.763C93.3445 158.455 93.2769 158.077 93.2769 157.629C93.2769 157.27 93.3469 156.922 93.4869 156.586C93.6269 156.25 93.8299 155.954 94.0959 155.697C94.3665 155.436 94.6979 155.228 95.0899 155.074C95.4819 154.915 95.9299 154.836 96.4339 154.836C96.9985 154.836 97.5165 154.927 97.9879 155.109C98.4639 155.286 98.8769 155.543 99.2269 155.879L98.8629 156.586ZM102.909 165.112C102.335 165.112 101.891 164.951 101.579 164.629C101.271 164.307 101.117 163.847 101.117 163.25V158.994H100.291C100.211 158.994 100.144 158.971 100.088 158.924C100.036 158.873 100.011 158.798 100.011 158.7V158.147L101.166 157.986L101.474 155.865C101.492 155.786 101.527 155.725 101.579 155.683C101.635 155.636 101.705 155.613 101.789 155.613H102.482V158H104.498V158.994H102.482V163.159C102.482 163.439 102.549 163.649 102.685 163.789C102.825 163.924 103.002 163.992 103.217 163.992C103.343 163.992 103.45 163.976 103.539 163.943C103.632 163.91 103.711 163.875 103.777 163.838C103.842 163.796 103.898 163.759 103.945 163.726C103.991 163.693 104.033 163.677 104.071 163.677C104.117 163.677 104.152 163.689 104.176 163.712C104.204 163.731 104.232 163.763 104.26 163.81L104.666 164.468C104.442 164.673 104.176 164.832 103.868 164.944C103.56 165.056 103.24 165.112 102.909 165.112ZM111.67 157.888V165H110.851C110.664 165 110.543 164.909 110.487 164.727L110.389 164.013C110.235 164.176 110.074 164.326 109.906 164.461C109.738 164.596 109.558 164.713 109.367 164.811C109.176 164.904 108.973 164.977 108.758 165.028C108.543 165.084 108.312 165.112 108.065 165.112C107.673 165.112 107.328 165.047 107.029 164.916C106.735 164.785 106.488 164.603 106.287 164.37C106.086 164.132 105.935 163.847 105.832 163.516C105.729 163.185 105.678 162.818 105.678 162.417V157.888H107.05V162.417C107.05 162.926 107.167 163.322 107.4 163.607C107.633 163.887 107.99 164.027 108.471 164.027C108.821 164.027 109.148 163.945 109.451 163.782C109.754 163.614 110.039 163.385 110.305 163.096V157.888H111.67ZM118.16 159.61C117.936 159.316 117.694 159.111 117.432 158.994C117.176 158.877 116.886 158.819 116.564 158.819C115.939 158.819 115.454 159.045 115.108 159.498C114.768 159.946 114.597 160.602 114.597 161.465C114.597 161.918 114.635 162.305 114.709 162.627C114.789 162.944 114.901 163.206 115.045 163.411C115.195 163.612 115.377 163.761 115.591 163.859C115.806 163.952 116.049 163.999 116.319 163.999C116.716 163.999 117.059 163.91 117.348 163.733C117.638 163.556 117.908 163.306 118.16 162.984V159.61ZM119.532 154.668V165H118.706C118.515 165 118.396 164.909 118.349 164.727L118.23 163.908C117.927 164.267 117.582 164.557 117.194 164.776C116.812 164.991 116.368 165.098 115.864 165.098C115.458 165.098 115.09 165.019 114.758 164.86C114.432 164.701 114.152 164.47 113.918 164.167C113.685 163.859 113.505 163.479 113.379 163.026C113.253 162.573 113.19 162.053 113.19 161.465C113.19 160.938 113.26 160.448 113.4 159.995C113.54 159.542 113.743 159.15 114.009 158.819C114.275 158.488 114.597 158.229 114.975 158.042C115.353 157.851 115.78 157.755 116.256 157.755C116.686 157.755 117.05 157.825 117.348 157.965C117.652 158.105 117.922 158.303 118.16 158.56V154.668H119.532ZM126.148 160.653C126.148 160.382 126.108 160.133 126.029 159.904C125.954 159.675 125.842 159.477 125.693 159.309C125.543 159.141 125.361 159.01 125.147 158.917C124.932 158.824 124.685 158.777 124.405 158.777C123.831 158.777 123.378 158.943 123.047 159.274C122.72 159.605 122.512 160.065 122.424 160.653H126.148ZM127.275 163.985C127.107 164.181 126.913 164.351 126.694 164.496C126.474 164.636 126.241 164.75 125.994 164.839C125.746 164.928 125.49 164.993 125.224 165.035C124.962 165.077 124.703 165.098 124.447 165.098C123.957 165.098 123.502 165.016 123.082 164.853C122.666 164.685 122.305 164.442 121.997 164.125C121.693 163.803 121.455 163.406 121.283 162.935C121.115 162.459 121.031 161.913 121.031 161.297C121.031 160.802 121.108 160.343 121.262 159.918C121.416 159.489 121.635 159.115 121.92 158.798C122.209 158.481 122.561 158.231 122.977 158.049C123.392 157.867 123.859 157.776 124.377 157.776C124.811 157.776 125.21 157.848 125.574 157.993C125.942 158.133 126.26 158.338 126.526 158.609C126.792 158.88 126.999 159.213 127.149 159.61C127.303 160.007 127.38 160.459 127.38 160.968C127.38 161.178 127.356 161.32 127.31 161.395C127.263 161.465 127.177 161.5 127.051 161.5H122.389C122.403 161.925 122.463 162.296 122.571 162.613C122.678 162.926 122.825 163.187 123.012 163.397C123.203 163.607 123.429 163.763 123.691 163.866C123.952 163.969 124.244 164.02 124.566 164.02C124.869 164.02 125.13 163.985 125.35 163.915C125.574 163.845 125.765 163.77 125.924 163.691C126.087 163.607 126.222 163.53 126.33 163.46C126.442 163.39 126.54 163.355 126.624 163.355C126.736 163.355 126.822 163.397 126.883 163.481L127.275 163.985ZM130.128 158.875C130.282 158.712 130.443 158.562 130.611 158.427C130.779 158.292 130.956 158.177 131.143 158.084C131.334 157.986 131.537 157.911 131.752 157.86C131.971 157.804 132.204 157.776 132.452 157.776C132.844 157.776 133.187 157.841 133.481 157.972C133.779 158.103 134.029 158.287 134.23 158.525C134.43 158.758 134.582 159.041 134.685 159.372C134.787 159.703 134.839 160.07 134.839 160.471V165H133.467V160.471C133.467 159.962 133.35 159.568 133.117 159.288C132.883 159.003 132.526 158.861 132.046 158.861C131.696 158.861 131.367 158.945 131.059 159.113C130.755 159.276 130.473 159.5 130.212 159.785V165H128.847V157.888H129.666C129.857 157.888 129.976 157.979 130.023 158.161L130.128 158.875ZM138.811 165.112C138.237 165.112 137.794 164.951 137.481 164.629C137.173 164.307 137.019 163.847 137.019 163.25V158.994H136.193C136.114 158.994 136.046 158.971 135.99 158.924C135.939 158.873 135.913 158.798 135.913 158.7V158.147L137.068 157.986L137.376 155.865C137.395 155.786 137.43 155.725 137.481 155.683C137.537 155.636 137.607 155.613 137.691 155.613H138.384V158H140.4V158.994H138.384V163.159C138.384 163.439 138.452 163.649 138.587 163.789C138.727 163.924 138.904 163.992 139.119 163.992C139.245 163.992 139.352 163.976 139.441 163.943C139.534 163.91 139.614 163.875 139.679 163.838C139.744 163.796 139.8 163.759 139.847 163.726C139.894 163.693 139.936 163.677 139.973 163.677C140.02 163.677 140.055 163.689 140.078 163.712C140.106 163.731 140.134 163.763 140.162 163.81L140.568 164.468C140.344 164.673 140.078 164.832 139.77 164.944C139.462 165.056 139.142 165.112 138.811 165.112ZM145.85 159.113C145.813 159.174 145.773 159.218 145.731 159.246C145.689 159.269 145.636 159.281 145.57 159.281C145.496 159.281 145.412 159.255 145.318 159.204C145.23 159.153 145.12 159.097 144.989 159.036C144.863 158.975 144.714 158.919 144.541 158.868C144.369 158.817 144.163 158.791 143.925 158.791C143.729 158.791 143.55 158.817 143.386 158.868C143.228 158.915 143.092 158.982 142.98 159.071C142.868 159.155 142.782 159.258 142.721 159.379C142.661 159.496 142.63 159.622 142.63 159.757C142.63 159.934 142.682 160.081 142.784 160.198C142.892 160.315 143.029 160.415 143.197 160.499C143.37 160.583 143.564 160.66 143.778 160.73C143.998 160.795 144.219 160.865 144.443 160.94C144.672 161.015 144.894 161.101 145.108 161.199C145.328 161.292 145.521 161.411 145.689 161.556C145.862 161.696 146 161.866 146.102 162.067C146.21 162.268 146.263 162.513 146.263 162.802C146.263 163.133 146.203 163.441 146.081 163.726C145.965 164.006 145.79 164.249 145.556 164.454C145.328 164.659 145.043 164.82 144.702 164.937C144.362 165.054 143.972 165.112 143.533 165.112C143.043 165.112 142.591 165.03 142.175 164.867C141.76 164.704 141.412 164.496 141.132 164.244L141.454 163.719C141.492 163.654 141.538 163.605 141.594 163.572C141.65 163.535 141.725 163.516 141.818 163.516C141.907 163.516 141.998 163.549 142.091 163.614C142.185 163.679 142.297 163.752 142.427 163.831C142.558 163.906 142.717 163.976 142.903 164.041C143.09 164.102 143.323 164.132 143.603 164.132C143.837 164.132 144.04 164.104 144.212 164.048C144.385 163.987 144.527 163.908 144.639 163.81C144.756 163.707 144.842 163.591 144.898 163.46C144.954 163.329 144.982 163.192 144.982 163.047C144.982 162.86 144.929 162.706 144.821 162.585C144.719 162.459 144.581 162.352 144.408 162.263C144.24 162.174 144.047 162.097 143.827 162.032C143.608 161.967 143.384 161.897 143.155 161.822C142.927 161.747 142.703 161.661 142.483 161.563C142.264 161.465 142.068 161.341 141.895 161.192C141.727 161.043 141.59 160.861 141.482 160.646C141.38 160.431 141.328 160.17 141.328 159.862C141.328 159.587 141.384 159.323 141.496 159.071C141.613 158.819 141.779 158.597 141.993 158.406C142.213 158.215 142.481 158.063 142.798 157.951C143.12 157.834 143.487 157.776 143.897 157.776C144.369 157.776 144.793 157.851 145.171 158C145.554 158.149 145.881 158.355 146.151 158.616L145.85 159.113ZM155.104 161.843C154.549 161.862 154.078 161.906 153.69 161.976C153.303 162.041 152.988 162.13 152.745 162.242C152.503 162.354 152.328 162.487 152.22 162.641C152.113 162.79 152.059 162.958 152.059 163.145C152.059 163.322 152.087 163.476 152.143 163.607C152.204 163.733 152.283 163.838 152.381 163.922C152.484 164.001 152.603 164.06 152.738 164.097C152.874 164.134 153.021 164.153 153.179 164.153C153.389 164.153 153.581 164.132 153.753 164.09C153.931 164.048 154.096 163.99 154.25 163.915C154.404 163.836 154.551 163.74 154.691 163.628C154.831 163.516 154.969 163.388 155.104 163.243V161.843ZM151.1 158.882C151.497 158.504 151.926 158.222 152.388 158.035C152.855 157.848 153.366 157.755 153.921 157.755C154.327 157.755 154.687 157.823 154.999 157.958C155.312 158.089 155.576 158.273 155.79 158.511C156.005 158.749 156.166 159.034 156.273 159.365C156.385 159.696 156.441 160.063 156.441 160.464V165H155.832C155.697 165 155.594 164.979 155.524 164.937C155.454 164.89 155.398 164.806 155.356 164.685L155.209 164.062C155.027 164.23 154.848 164.379 154.67 164.51C154.493 164.636 154.306 164.746 154.11 164.839C153.919 164.928 153.714 164.995 153.494 165.042C153.275 165.089 153.032 165.112 152.766 165.112C152.486 165.112 152.223 165.075 151.975 165C151.733 164.921 151.52 164.802 151.338 164.643C151.156 164.484 151.012 164.286 150.904 164.048C150.802 163.81 150.75 163.532 150.75 163.215C150.75 162.935 150.825 162.667 150.974 162.41C151.128 162.149 151.376 161.915 151.716 161.71C152.062 161.505 152.51 161.337 153.06 161.206C153.616 161.075 154.297 161.001 155.104 160.982V160.464C155.104 159.927 154.99 159.526 154.761 159.26C154.533 158.994 154.197 158.861 153.753 158.861C153.455 158.861 153.203 158.898 152.997 158.973C152.797 159.048 152.622 159.132 152.472 159.225C152.328 159.314 152.199 159.395 152.087 159.47C151.98 159.545 151.868 159.582 151.751 159.582C151.658 159.582 151.576 159.556 151.506 159.505C151.441 159.454 151.387 159.393 151.345 159.323L151.1 158.882ZM159.55 158.875C159.704 158.712 159.865 158.562 160.033 158.427C160.201 158.292 160.378 158.177 160.565 158.084C160.756 157.986 160.959 157.911 161.174 157.86C161.393 157.804 161.626 157.776 161.874 157.776C162.266 157.776 162.609 157.841 162.903 157.972C163.201 158.103 163.451 158.287 163.652 158.525C163.852 158.758 164.004 159.041 164.107 159.372C164.209 159.703 164.261 160.07 164.261 160.471V165H162.889V160.471C162.889 159.962 162.772 159.568 162.539 159.288C162.305 159.003 161.948 158.861 161.468 158.861C161.118 158.861 160.789 158.945 160.481 159.113C160.177 159.276 159.895 159.5 159.634 159.785V165H158.269V157.888H159.088C159.279 157.888 159.398 157.979 159.445 158.161L159.55 158.875ZM170.688 159.61C170.464 159.316 170.221 159.111 169.96 158.994C169.703 158.877 169.414 158.819 169.092 158.819C168.466 158.819 167.981 159.045 167.636 159.498C167.295 159.946 167.125 160.602 167.125 161.465C167.125 161.918 167.162 162.305 167.237 162.627C167.316 162.944 167.428 163.206 167.573 163.411C167.722 163.612 167.904 163.761 168.119 163.859C168.333 163.952 168.576 163.999 168.847 163.999C169.243 163.999 169.586 163.91 169.876 163.733C170.165 163.556 170.436 163.306 170.688 162.984V159.61ZM172.06 154.668V165H171.234C171.042 165 170.923 164.909 170.877 164.727L170.758 163.908C170.454 164.267 170.109 164.557 169.722 164.776C169.339 164.991 168.896 165.098 168.392 165.098C167.986 165.098 167.617 165.019 167.286 164.86C166.959 164.701 166.679 164.47 166.446 164.167C166.212 163.859 166.033 163.479 165.907 163.026C165.781 162.573 165.718 162.053 165.718 161.465C165.718 160.938 165.788 160.448 165.928 159.995C166.068 159.542 166.271 159.15 166.537 158.819C166.803 158.488 167.125 158.229 167.503 158.042C167.881 157.851 168.308 157.755 168.784 157.755C169.213 157.755 169.577 157.825 169.876 157.965C170.179 158.105 170.45 158.303 170.688 158.56V154.668H172.06ZM179.283 165H177.785V154.948H179.283V165ZM182.655 158.875C182.809 158.712 182.97 158.562 183.138 158.427C183.306 158.292 183.483 158.177 183.67 158.084C183.861 157.986 184.064 157.911 184.279 157.86C184.498 157.804 184.732 157.776 184.979 157.776C185.371 157.776 185.714 157.841 186.008 157.972C186.307 158.103 186.556 158.287 186.757 158.525C186.958 158.758 187.109 159.041 187.212 159.372C187.315 159.703 187.366 160.07 187.366 160.471V165H185.994V160.471C185.994 159.962 185.877 159.568 185.644 159.288C185.411 159.003 185.054 158.861 184.573 158.861C184.223 158.861 183.894 158.945 183.586 159.113C183.283 159.276 183 159.5 182.739 159.785V165H181.374V157.888H182.193C182.384 157.888 182.503 157.979 182.55 158.161L182.655 158.875ZM189.568 165V159.008L188.826 158.917C188.718 158.894 188.63 158.856 188.56 158.805C188.494 158.749 188.462 158.67 188.462 158.567V158H189.568V157.356C189.568 156.95 189.626 156.588 189.743 156.271C189.859 155.954 190.025 155.685 190.24 155.466C190.459 155.242 190.72 155.074 191.024 154.962C191.332 154.845 191.677 154.787 192.06 154.787C192.382 154.787 192.678 154.834 192.949 154.927L192.921 155.613C192.916 155.674 192.897 155.72 192.865 155.753C192.832 155.781 192.788 155.802 192.732 155.816C192.68 155.83 192.615 155.839 192.536 155.844C192.461 155.844 192.379 155.844 192.291 155.844C192.081 155.844 191.889 155.87 191.717 155.921C191.544 155.972 191.397 156.059 191.276 156.18C191.154 156.301 191.061 156.462 190.996 156.663C190.93 156.859 190.898 157.104 190.898 157.398V158H192.893V158.994H190.94V165H189.568ZM195.434 154.668V165H194.062V154.668H195.434ZM203.299 157.888V165H202.48C202.293 165 202.172 164.909 202.116 164.727L202.018 164.013C201.864 164.176 201.703 164.326 201.535 164.461C201.367 164.596 201.187 164.713 200.996 164.811C200.804 164.904 200.601 164.977 200.387 165.028C200.172 165.084 199.941 165.112 199.694 165.112C199.302 165.112 198.956 165.047 198.658 164.916C198.364 164.785 198.116 164.603 197.916 164.37C197.715 164.132 197.563 163.847 197.461 163.516C197.358 163.185 197.307 162.818 197.307 162.417V157.888H198.679V162.417C198.679 162.926 198.795 163.322 199.029 163.607C199.262 163.887 199.619 164.027 200.1 164.027C200.45 164.027 200.776 163.945 201.08 163.782C201.383 163.614 201.668 163.385 201.934 163.096V157.888H203.299ZM209.915 160.653C209.915 160.382 209.875 160.133 209.796 159.904C209.721 159.675 209.609 159.477 209.46 159.309C209.311 159.141 209.129 159.01 208.914 158.917C208.699 158.824 208.452 158.777 208.172 158.777C207.598 158.777 207.145 158.943 206.814 159.274C206.487 159.605 206.28 160.065 206.191 160.653H209.915ZM211.042 163.985C210.874 164.181 210.68 164.351 210.461 164.496C210.242 164.636 210.008 164.75 209.761 164.839C209.514 164.928 209.257 164.993 208.991 165.035C208.73 165.077 208.471 165.098 208.214 165.098C207.724 165.098 207.269 165.016 206.849 164.853C206.434 164.685 206.072 164.442 205.764 164.125C205.461 163.803 205.223 163.406 205.05 162.935C204.882 162.459 204.798 161.913 204.798 161.297C204.798 160.802 204.875 160.343 205.029 159.918C205.183 159.489 205.402 159.115 205.687 158.798C205.976 158.481 206.329 158.231 206.744 158.049C207.159 157.867 207.626 157.776 208.144 157.776C208.578 157.776 208.977 157.848 209.341 157.993C209.71 158.133 210.027 158.338 210.293 158.609C210.559 158.88 210.767 159.213 210.916 159.61C211.07 160.007 211.147 160.459 211.147 160.968C211.147 161.178 211.124 161.32 211.077 161.395C211.03 161.465 210.944 161.5 210.818 161.5H206.156C206.17 161.925 206.231 162.296 206.338 162.613C206.445 162.926 206.592 163.187 206.779 163.397C206.97 163.607 207.197 163.763 207.458 163.866C207.719 163.969 208.011 164.02 208.333 164.02C208.636 164.02 208.898 163.985 209.117 163.915C209.341 163.845 209.532 163.77 209.691 163.691C209.854 163.607 209.99 163.53 210.097 163.46C210.209 163.39 210.307 163.355 210.391 163.355C210.503 163.355 210.589 163.397 210.65 163.481L211.042 163.985ZM213.895 158.875C214.049 158.712 214.21 158.562 214.378 158.427C214.546 158.292 214.724 158.177 214.91 158.084C215.102 157.986 215.305 157.911 215.519 157.86C215.739 157.804 215.972 157.776 216.219 157.776C216.611 157.776 216.954 157.841 217.248 157.972C217.547 158.103 217.797 158.287 217.997 158.525C218.198 158.758 218.35 159.041 218.452 159.372C218.555 159.703 218.606 160.07 218.606 160.471V165H217.234V160.471C217.234 159.962 217.118 159.568 216.884 159.288C216.651 159.003 216.294 158.861 215.813 158.861C215.463 158.861 215.134 158.945 214.826 159.113C214.523 159.276 214.241 159.5 213.979 159.785V165H212.614V157.888H213.433C213.625 157.888 213.744 157.979 213.79 158.161L213.895 158.875ZM225.432 159.218C225.39 159.269 225.348 159.311 225.306 159.344C225.269 159.372 225.213 159.386 225.138 159.386C225.064 159.386 224.984 159.358 224.9 159.302C224.821 159.241 224.718 159.178 224.592 159.113C224.471 159.043 224.322 158.98 224.144 158.924C223.972 158.863 223.757 158.833 223.5 158.833C223.164 158.833 222.868 158.894 222.611 159.015C222.355 159.136 222.14 159.309 221.967 159.533C221.799 159.757 221.671 160.03 221.582 160.352C221.494 160.674 221.449 161.036 221.449 161.437C221.449 161.852 221.496 162.223 221.589 162.55C221.683 162.872 221.816 163.145 221.988 163.369C222.161 163.588 222.371 163.756 222.618 163.873C222.866 163.985 223.141 164.041 223.444 164.041C223.738 164.041 223.981 164.006 224.172 163.936C224.364 163.861 224.522 163.782 224.648 163.698C224.774 163.614 224.879 163.537 224.963 163.467C225.047 163.392 225.134 163.355 225.222 163.355C225.334 163.355 225.421 163.397 225.481 163.481L225.873 163.985C225.71 164.186 225.526 164.356 225.32 164.496C225.12 164.636 224.905 164.75 224.676 164.839C224.448 164.928 224.207 164.993 223.955 165.035C223.708 165.077 223.456 165.098 223.199 165.098C222.756 165.098 222.341 165.016 221.953 164.853C221.571 164.69 221.237 164.452 220.952 164.139C220.672 163.826 220.451 163.444 220.287 162.991C220.124 162.534 220.042 162.016 220.042 161.437C220.042 160.91 220.115 160.422 220.259 159.974C220.409 159.526 220.626 159.141 220.91 158.819C221.2 158.492 221.554 158.238 221.974 158.056C222.394 157.869 222.875 157.776 223.416 157.776C223.925 157.776 224.373 157.858 224.76 158.021C225.148 158.184 225.493 158.415 225.796 158.714L225.432 159.218ZM231.735 160.653C231.735 160.382 231.696 160.133 231.616 159.904C231.542 159.675 231.43 159.477 231.28 159.309C231.131 159.141 230.949 159.01 230.734 158.917C230.52 158.824 230.272 158.777 229.992 158.777C229.418 158.777 228.966 158.943 228.634 159.274C228.308 159.605 228.1 160.065 228.011 160.653H231.735ZM232.862 163.985C232.694 164.181 232.501 164.351 232.281 164.496C232.062 164.636 231.829 164.75 231.581 164.839C231.334 164.928 231.077 164.993 230.811 165.035C230.55 165.077 230.291 165.098 230.034 165.098C229.544 165.098 229.089 165.016 228.669 164.853C228.254 164.685 227.892 164.442 227.584 164.125C227.281 163.803 227.043 163.406 226.87 162.935C226.702 162.459 226.618 161.913 226.618 161.297C226.618 160.802 226.695 160.343 226.849 159.918C227.003 159.489 227.223 159.115 227.507 158.798C227.797 158.481 228.149 158.231 228.564 158.049C228.98 157.867 229.446 157.776 229.964 157.776C230.398 157.776 230.797 157.848 231.161 157.993C231.53 158.133 231.847 158.338 232.113 158.609C232.379 158.88 232.587 159.213 232.736 159.61C232.89 160.007 232.967 160.459 232.967 160.968C232.967 161.178 232.944 161.32 232.897 161.395C232.851 161.465 232.764 161.5 232.638 161.5H227.976C227.99 161.925 228.051 162.296 228.158 162.613C228.266 162.926 228.413 163.187 228.599 163.397C228.791 163.607 229.017 163.763 229.278 163.866C229.54 163.969 229.831 164.02 230.153 164.02C230.457 164.02 230.718 163.985 230.937 163.915C231.161 163.845 231.353 163.77 231.511 163.691C231.675 163.607 231.81 163.53 231.917 163.46C232.029 163.39 232.127 163.355 232.211 163.355C232.323 163.355 232.41 163.397 232.47 163.481L232.862 163.985ZM235.723 159.253C235.951 158.786 236.227 158.42 236.549 158.154C236.871 157.888 237.258 157.755 237.711 157.755C237.865 157.755 238.009 157.774 238.145 157.811C238.285 157.844 238.406 157.895 238.509 157.965L238.418 158.994C238.385 159.12 238.308 159.183 238.187 159.183C238.121 159.183 238.023 159.171 237.893 159.148C237.762 159.12 237.622 159.106 237.473 159.106C237.253 159.106 237.06 159.139 236.892 159.204C236.724 159.265 236.572 159.358 236.437 159.484C236.306 159.605 236.189 159.757 236.087 159.939C235.984 160.116 235.888 160.319 235.8 160.548V165H234.435V157.888H235.219C235.368 157.888 235.468 157.916 235.52 157.972C235.576 158.023 235.615 158.117 235.639 158.252L235.723 159.253ZM243.714 159.113C243.676 159.174 243.637 159.218 243.595 159.246C243.553 159.269 243.499 159.281 243.434 159.281C243.359 159.281 243.275 159.255 243.182 159.204C243.093 159.153 242.983 159.097 242.853 159.036C242.727 158.975 242.577 158.919 242.405 158.868C242.232 158.817 242.027 158.791 241.789 158.791C241.593 158.791 241.413 158.817 241.25 158.868C241.091 158.915 240.956 158.982 240.844 159.071C240.732 159.155 240.645 159.258 240.585 159.379C240.524 159.496 240.494 159.622 240.494 159.757C240.494 159.934 240.545 160.081 240.648 160.198C240.755 160.315 240.893 160.415 241.061 160.499C241.233 160.583 241.427 160.66 241.642 160.73C241.861 160.795 242.083 160.865 242.307 160.94C242.535 161.015 242.757 161.101 242.972 161.199C243.191 161.292 243.385 161.411 243.553 161.556C243.725 161.696 243.863 161.866 243.966 162.067C244.073 162.268 244.127 162.513 244.127 162.802C244.127 163.133 244.066 163.441 243.945 163.726C243.828 164.006 243.653 164.249 243.42 164.454C243.191 164.659 242.906 164.82 242.566 164.937C242.225 165.054 241.835 165.112 241.397 165.112C240.907 165.112 240.454 165.03 240.039 164.867C239.623 164.704 239.276 164.496 238.996 164.244L239.318 163.719C239.355 163.654 239.402 163.605 239.458 163.572C239.514 163.535 239.588 163.516 239.682 163.516C239.77 163.516 239.861 163.549 239.955 163.614C240.048 163.679 240.16 163.752 240.291 163.831C240.421 163.906 240.58 163.976 240.767 164.041C240.953 164.102 241.187 164.132 241.467 164.132C241.7 164.132 241.903 164.104 242.076 164.048C242.248 163.987 242.391 163.908 242.503 163.81C242.619 163.707 242.706 163.591 242.762 163.46C242.818 163.329 242.846 163.192 242.846 163.047C242.846 162.86 242.792 162.706 242.685 162.585C242.582 162.459 242.444 162.352 242.272 162.263C242.104 162.174 241.91 162.097 241.691 162.032C241.471 161.967 241.247 161.897 241.019 161.822C240.79 161.747 240.566 161.661 240.347 161.563C240.127 161.465 239.931 161.341 239.759 161.192C239.591 161.043 239.453 160.861 239.346 160.646C239.243 160.431 239.192 160.17 239.192 159.862C239.192 159.587 239.248 159.323 239.36 159.071C239.476 158.819 239.642 158.597 239.857 158.406C240.076 158.215 240.344 158.063 240.662 157.951C240.984 157.834 241.35 157.776 241.761 157.776C242.232 157.776 242.657 157.851 243.035 158C243.417 158.149 243.744 158.355 244.015 158.616L243.714 159.113Z" fill="#343434"/>
</g>
<defs>
<filter id="filter0_f_13028_28622" x="-200" y="-200" width="660" height="600" filterUnits="userSpaceOnUse" color-interpolation-filters="sRGB">
<feFlood flood-opacity="0" result="BackgroundImageFix"/>
<feBlend mode="normal" in="SourceGraphic" in2="BackgroundImageFix" result="shape"/>
<feGaussianBlur stdDeviation="100" result="effect1_foregroundBlur_13028_28622"/>
</filter>
<filter id="filter1_b_13028_28622" x="-20" y="-20" width="300" height="240" filterUnits="userSpaceOnUse" color-interpolation-filters="sRGB">
<feFlood flood-opacity="0" result="BackgroundImageFix"/>
<feGaussianBlur in="BackgroundImageFix" stdDeviation="10"/>
<feComposite in2="SourceAlpha" operator="in" result="effect1_backgroundBlur_13028_28622"/>
<feBlend mode="normal" in="SourceGraphic" in2="effect1_backgroundBlur_13028_28622" result="shape"/>
</filter>
<radialGradient id="paint0_angular_13028_28622" cx="0" cy="0" r="1" gradientUnits="userSpaceOnUse" gradientTransform="translate(130 100) rotate(141.24) scale(110.94 65.9432)">
<stop stop-color="#7C9FE2"/>
<stop offset="0.119792" stop-color="#8947B6"/>
<stop offset="0.291845" stop-color="#E84B95"/>
<stop offset="0.463542" stop-color="#FBE14D"/>
<stop offset="0.604167" stop-color="#DCC4CF"/>
<stop offset="0.770833" stop-color="#DAFBFE"/>
<stop offset="0.844503" stop-color="#0DD6F2"/>
</radialGradient>
<linearGradient id="paint1_linear_13028_28622" x1="104.114" y1="5.7291" x2="24.6513" y2="190.193" gradientUnits="userSpaceOnUse">
<stop stop-color="white" stop-opacity="0.7"/>
<stop offset="1" stop-color="white" stop-opacity="0"/>
</linearGradient>
<linearGradient id="paint2_linear_13028_28622" x1="192.496" y1="100" x2="130.224" y2="54.6722" gradientUnits="userSpaceOnUse">
<stop stop-color="#FFA847"/>
<stop offset="1" stop-color="#9461FA"/>
</linearGradient>
<clipPath id="clip0_13028_28622">
<rect width="260" height="200" rx="8" fill="white"/>
</clipPath>
</defs>
</svg>
