<svg width="260" height="200" viewBox="0 0 260 200" fill="none" xmlns="http://www.w3.org/2000/svg">
<g clip-path="url(#clip0_13028_28643)">
<rect width="260" height="200" rx="8" fill="url(#paint0_linear_13028_28643)"/>
<path d="M81.48 32L86.85 46H83.29L82.23 43.06H76.67L75.61 46H72.12L77.49 32H81.48ZM79.45 35.32L77.75 40.04H81.15L79.45 35.32ZM93.9809 35.92C95.9409 35.92 97.4609 37.29 97.4609 39.56V46H94.3309V40.67C94.3309 39.51 93.7509 38.86 92.7809 38.86C91.9109 38.86 91.1909 39.45 91.1909 40.72V46H88.0609V36.19H91.0609V37.42C91.6809 36.39 92.6709 35.92 93.9809 35.92ZM109.474 36.19V46H106.444V44.94C105.854 45.71 104.954 46.26 103.624 46.26C101.004 46.26 99.0644 43.98 99.0644 41.08C99.0644 38.2 101.004 35.92 103.634 35.92C104.954 35.92 105.854 36.48 106.444 37.25V36.19H109.474ZM104.374 38.84C103.124 38.84 102.284 39.81 102.284 41.09C102.284 42.37 103.124 43.34 104.374 43.34C105.604 43.34 106.474 42.39 106.474 41.09C106.474 39.79 105.604 38.84 104.374 38.84ZM114.785 31.6V46H111.655V31.6H114.785ZM127.387 36.19L120.147 50.02H116.727L120.087 43.84L115.957 36.19H119.547L121.777 40.6L123.967 36.19H127.387ZM136.245 36.19V38.96H132.895V41.83C132.895 42.96 133.495 43.34 134.285 43.34C134.865 43.34 135.495 43.02 135.985 42.73L137.065 45.17C136.145 45.81 135.165 46.26 133.585 46.26C130.955 46.26 129.765 44.69 129.765 42.23V38.96H127.935V36.19H129.765V33.33H132.895V36.19H136.245ZM141.425 36.19V46H138.295V36.19H141.425ZM139.845 31.29C140.895 31.29 141.715 32.11 141.715 33.17C141.715 34.22 140.895 35.03 139.845 35.03C138.785 35.03 137.975 34.22 137.975 33.17C137.975 32.11 138.785 31.29 139.845 31.29ZM148.378 35.92C150.198 35.92 151.628 36.73 152.568 38.07L150.118 39.78C149.628 39.15 149.068 38.84 148.308 38.84C147.218 38.84 146.288 39.68 146.288 41.09C146.288 42.51 147.198 43.34 148.288 43.34C149.028 43.34 149.648 43.01 150.138 42.39L152.578 44.13C151.638 45.46 150.198 46.26 148.378 46.26C145.248 46.26 143.088 44.09 143.088 41.09C143.088 38.09 145.248 35.92 148.378 35.92ZM162.229 36.77L161.359 39.21C160.389 38.8 159.129 38.46 158.129 38.45C157.309 38.45 156.989 38.69 156.989 39.05C156.989 39.47 157.609 39.57 158.569 39.72L159.289 39.83C161.389 40.15 162.499 41.16 162.499 42.81C162.499 44.96 160.819 46.25 157.959 46.25C156.279 46.25 154.549 45.95 153.429 45.22L154.519 42.8C155.499 43.38 156.619 43.72 157.979 43.72C158.949 43.72 159.349 43.5 159.349 43.08C159.349 42.7 158.909 42.55 157.799 42.38L157.229 42.3C154.869 41.95 153.769 40.97 153.769 39.21C153.769 37.12 155.339 35.93 158.009 35.93C159.599 35.93 160.619 36.15 162.229 36.77Z" fill="url(#paint1_linear_13028_28643)"/>
<path d="M24.064 67.11H20.816V76H19.465V67.11H16.21V65.969H24.064V67.11ZM24.8966 70.33C25.1206 69.8447 25.3959 69.4667 25.7226 69.196C26.0492 68.9207 26.4482 68.783 26.9196 68.783C27.0689 68.783 27.2112 68.7993 27.3466 68.832C27.4866 68.8647 27.6102 68.916 27.7176 68.986L27.6266 69.917C27.5986 70.0337 27.5286 70.092 27.4166 70.092C27.3512 70.092 27.2556 70.078 27.1296 70.05C27.0036 70.022 26.8612 70.008 26.7026 70.008C26.4786 70.008 26.2779 70.0407 26.1006 70.106C25.9279 70.1713 25.7716 70.2693 25.6316 70.4C25.4962 70.526 25.3726 70.6847 25.2606 70.876C25.1532 71.0627 25.0552 71.2773 24.9666 71.52V76H23.7136V68.909H24.4276C24.5629 68.909 24.6562 68.9347 24.7076 68.986C24.7589 69.0373 24.7939 69.126 24.8126 69.252L24.8966 70.33ZM32.5468 72.808C31.9728 72.8267 31.4828 72.8733 31.0768 72.948C30.6755 73.018 30.3465 73.1113 30.0898 73.228C29.8378 73.3447 29.6535 73.4823 29.5368 73.641C29.4248 73.7997 29.3688 73.977 29.3688 74.173C29.3688 74.3597 29.3991 74.5207 29.4598 74.656C29.5205 74.7913 29.6021 74.9033 29.7048 74.992C29.8121 75.076 29.9358 75.139 30.0758 75.181C30.2205 75.2183 30.3745 75.237 30.5378 75.237C30.7571 75.237 30.9578 75.216 31.1398 75.174C31.3218 75.1273 31.4921 75.062 31.6508 74.978C31.8141 74.894 31.9681 74.7937 32.1128 74.677C32.2621 74.5603 32.4068 74.4273 32.5468 74.278V72.808ZM28.5218 69.91C28.9138 69.532 29.3361 69.2497 29.7888 69.063C30.2415 68.8763 30.7431 68.783 31.2938 68.783C31.6905 68.783 32.0428 68.8483 32.3508 68.979C32.6588 69.1097 32.9178 69.2917 33.1278 69.525C33.3378 69.7583 33.4965 70.0407 33.6038 70.372C33.7111 70.7033 33.7648 71.0673 33.7648 71.464V76H33.2118C33.0905 76 32.9971 75.9813 32.9318 75.944C32.8665 75.902 32.8151 75.8227 32.7778 75.706L32.6378 75.034C32.4511 75.2067 32.2691 75.3607 32.0918 75.496C31.9145 75.6267 31.7278 75.7387 31.5318 75.832C31.3358 75.9207 31.1258 75.9883 30.9018 76.035C30.6825 76.0863 30.4375 76.112 30.1668 76.112C29.8915 76.112 29.6325 76.0747 29.3898 76C29.1471 75.9207 28.9348 75.804 28.7528 75.65C28.5755 75.496 28.4331 75.3023 28.3258 75.069C28.2231 74.831 28.1718 74.551 28.1718 74.229C28.1718 73.949 28.2488 73.6807 28.4028 73.424C28.5568 73.1627 28.8065 72.9317 29.1518 72.731C29.4971 72.5303 29.9475 72.367 30.5028 72.241C31.0581 72.1103 31.7395 72.0357 32.5468 72.017V71.464C32.5468 70.9133 32.4278 70.498 32.1898 70.218C31.9518 69.9333 31.6041 69.791 31.1468 69.791C30.8388 69.791 30.5798 69.8307 30.3698 69.91C30.1645 69.9847 29.9848 70.071 29.8308 70.169C29.6815 70.2623 29.5508 70.3487 29.4388 70.428C29.3315 70.5027 29.2241 70.54 29.1168 70.54C29.0328 70.54 28.9605 70.519 28.8998 70.477C28.8391 70.4303 28.7878 70.3743 28.7458 70.309L28.5218 69.91ZM40.5978 70.169C40.5604 70.2203 40.5231 70.26 40.4858 70.288C40.4484 70.316 40.3971 70.33 40.3318 70.33C40.2618 70.33 40.1848 70.302 40.1008 70.246C40.0168 70.1853 39.9118 70.12 39.7858 70.05C39.6644 69.98 39.5128 69.917 39.3308 69.861C39.1534 69.8003 38.9341 69.77 38.6728 69.77C38.3228 69.77 38.0148 69.833 37.7488 69.959C37.4828 70.0803 37.2588 70.2577 37.0768 70.491C36.8994 70.7243 36.7641 71.0067 36.6708 71.338C36.5821 71.6693 36.5378 72.0403 36.5378 72.451C36.5378 72.8803 36.5868 73.263 36.6848 73.599C36.7828 73.9303 36.9204 74.2103 37.0978 74.439C37.2798 74.663 37.4968 74.8357 37.7488 74.957C38.0054 75.0737 38.2924 75.132 38.6098 75.132C38.9131 75.132 39.1628 75.097 39.3588 75.027C39.5548 74.9523 39.7158 74.8707 39.8418 74.782C39.9724 74.6933 40.0798 74.614 40.1638 74.544C40.2524 74.4693 40.3388 74.432 40.4228 74.432C40.5254 74.432 40.6048 74.4717 40.6608 74.551L41.0108 75.006C40.8568 75.1973 40.6818 75.3607 40.4858 75.496C40.2898 75.6313 40.0774 75.7457 39.8488 75.839C39.6248 75.9277 39.3891 75.993 39.1418 76.035C38.8944 76.077 38.6424 76.098 38.3858 76.098C37.9424 76.098 37.5294 76.0163 37.1468 75.853C36.7688 75.6897 36.4398 75.454 36.1598 75.146C35.8798 74.8333 35.6604 74.4507 35.5018 73.998C35.3431 73.5453 35.2638 73.0297 35.2638 72.451C35.2638 71.9237 35.3361 71.436 35.4808 70.988C35.6301 70.54 35.8448 70.155 36.1248 69.833C36.4094 69.5063 36.7571 69.252 37.1678 69.07C37.5831 68.888 38.0591 68.797 38.5958 68.797C39.0951 68.797 39.5338 68.8787 39.9118 69.042C40.2944 69.2007 40.6328 69.427 40.9268 69.721L40.5978 70.169ZM43.6013 65.689V71.758H43.9233C44.0167 71.758 44.0937 71.7463 44.1543 71.723C44.2197 71.695 44.2873 71.6413 44.3573 71.562L46.5973 69.161C46.6627 69.0817 46.7303 69.021 46.8003 68.979C46.875 68.9323 46.973 68.909 47.0943 68.909H48.2213L45.6103 71.688C45.4843 71.8467 45.349 71.9703 45.2043 72.059C45.2883 72.115 45.363 72.1803 45.4283 72.255C45.4983 72.325 45.5637 72.4067 45.6243 72.5L48.3963 76H47.2833C47.176 76 47.0827 75.9837 47.0033 75.951C46.9287 75.9137 46.8633 75.8483 46.8073 75.755L44.4763 72.85C44.4063 72.752 44.3363 72.689 44.2663 72.661C44.201 72.6283 44.0983 72.612 43.9583 72.612H43.6013V76H42.3483V65.689H43.6013ZM58.8023 68.909L54.8473 78.093C54.8053 78.1863 54.7516 78.261 54.6863 78.317C54.6256 78.373 54.5299 78.401 54.3993 78.401H53.4753L54.7703 75.587L51.8443 68.909H52.9223C53.0296 68.909 53.1136 68.937 53.1743 68.993C53.2396 69.0443 53.2839 69.1027 53.3073 69.168L55.2043 73.634C55.2789 73.83 55.3419 74.0353 55.3933 74.25C55.4586 74.0307 55.5286 73.823 55.6033 73.627L57.4443 69.168C57.4723 69.0933 57.5189 69.0327 57.5843 68.986C57.6543 68.9347 57.7313 68.909 57.8153 68.909H58.8023ZM62.7006 68.797C63.2186 68.797 63.6853 68.8833 64.1006 69.056C64.5159 69.2287 64.8706 69.4737 65.1646 69.791C65.4586 70.1083 65.6826 70.4933 65.8366 70.946C65.9953 71.394 66.0746 71.8957 66.0746 72.451C66.0746 73.011 65.9953 73.515 65.8366 73.963C65.6826 74.411 65.4586 74.7937 65.1646 75.111C64.8706 75.4283 64.5159 75.6733 64.1006 75.846C63.6853 76.014 63.2186 76.098 62.7006 76.098C62.1779 76.098 61.7066 76.014 61.2866 75.846C60.8713 75.6733 60.5166 75.4283 60.2226 75.111C59.9286 74.7937 59.7023 74.411 59.5436 73.963C59.3896 73.515 59.3126 73.011 59.3126 72.451C59.3126 71.8957 59.3896 71.394 59.5436 70.946C59.7023 70.4933 59.9286 70.1083 60.2226 69.791C60.5166 69.4737 60.8713 69.2287 61.2866 69.056C61.7066 68.8833 62.1779 68.797 62.7006 68.797ZM62.7006 75.125C63.4006 75.125 63.9233 74.8917 64.2686 74.425C64.6139 73.9537 64.7866 73.298 64.7866 72.458C64.7866 71.6133 64.6139 70.9553 64.2686 70.484C63.9233 70.0127 63.4006 69.777 62.7006 69.777C62.3459 69.777 62.0356 69.8377 61.7696 69.959C61.5083 70.0803 61.2889 70.2553 61.1116 70.484C60.9389 70.7127 60.8083 70.995 60.7196 71.331C60.6356 71.6623 60.5936 72.038 60.5936 72.458C60.5936 73.298 60.7663 73.9537 61.1116 74.425C61.4616 74.8917 61.9913 75.125 62.7006 75.125ZM73.486 68.909V76H72.744C72.5666 76 72.4546 75.9137 72.408 75.741L72.31 74.978C72.002 75.3187 71.6566 75.594 71.274 75.804C70.8913 76.0093 70.4526 76.112 69.958 76.112C69.5706 76.112 69.2276 76.049 68.929 75.923C68.635 75.7923 68.3876 75.6103 68.187 75.377C67.9863 75.1437 67.8346 74.8613 67.732 74.53C67.634 74.1987 67.585 73.8323 67.585 73.431V68.909H68.831V73.431C68.831 73.9677 68.9523 74.383 69.195 74.677C69.4423 74.971 69.818 75.118 70.322 75.118C70.6906 75.118 71.0336 75.0317 71.351 74.859C71.673 74.6817 71.9693 74.439 72.24 74.131V68.909H73.486ZM76.6446 70.33C76.8686 69.8447 77.1439 69.4667 77.4706 69.196C77.7973 68.9207 78.1963 68.783 78.6676 68.783C78.8169 68.783 78.9593 68.7993 79.0946 68.832C79.2346 68.8647 79.3583 68.916 79.4656 68.986L79.3746 69.917C79.3466 70.0337 79.2766 70.092 79.1646 70.092C79.0993 70.092 79.0036 70.078 78.8776 70.05C78.7516 70.022 78.6093 70.008 78.4506 70.008C78.2266 70.008 78.0259 70.0407 77.8486 70.106C77.6759 70.1713 77.5196 70.2693 77.3796 70.4C77.2443 70.526 77.1206 70.6847 77.0086 70.876C76.9013 71.0627 76.8033 71.2773 76.7146 71.52V76H75.4616V68.909H76.1756C76.3109 68.909 76.4043 68.9347 76.4556 68.986C76.5069 69.0373 76.5419 69.126 76.5606 69.252L76.6446 70.33ZM89.5767 68.909L86.6857 76H85.5657L82.6747 68.909H83.6897C83.7923 68.909 83.8763 68.9347 83.9417 68.986C84.007 69.0373 84.0513 69.098 84.0747 69.168L85.8737 73.732C85.9297 73.9047 85.9787 74.0727 86.0207 74.236C86.0627 74.3993 86.1023 74.5627 86.1397 74.726C86.177 74.5627 86.2167 74.3993 86.2587 74.236C86.3007 74.0727 86.352 73.9047 86.4127 73.732L88.2327 69.168C88.2607 69.0933 88.3073 69.0327 88.3727 68.986C88.438 68.9347 88.515 68.909 88.6037 68.909H89.5767ZM92.0354 68.909V76H90.7894V68.909H92.0354ZM92.3014 66.683C92.3014 66.8043 92.2758 66.9187 92.2244 67.026C92.1778 67.1287 92.1124 67.222 92.0284 67.306C91.9491 67.3853 91.8534 67.4483 91.7414 67.495C91.6341 67.5417 91.5198 67.565 91.3984 67.565C91.2771 67.565 91.1628 67.5417 91.0554 67.495C90.9528 67.4483 90.8618 67.3853 90.7824 67.306C90.7031 67.222 90.6401 67.1287 90.5934 67.026C90.5468 66.9187 90.5234 66.8043 90.5234 66.683C90.5234 66.5617 90.5468 66.4473 90.5934 66.34C90.6401 66.228 90.7031 66.1323 90.7824 66.053C90.8618 65.969 90.9528 65.9037 91.0554 65.857C91.1628 65.8103 91.2771 65.787 91.3984 65.787C91.5198 65.787 91.6341 65.8103 91.7414 65.857C91.8534 65.9037 91.9491 65.969 92.0284 66.053C92.1124 66.1323 92.1778 66.228 92.2244 66.34C92.2758 66.4473 92.3014 66.5617 92.3014 66.683ZM98.8287 71.681C98.8287 71.3917 98.7867 71.128 98.7027 70.89C98.6234 70.6473 98.5044 70.4397 98.3457 70.267C98.1917 70.0897 98.0027 69.9543 97.7787 69.861C97.5547 69.763 97.3004 69.714 97.0157 69.714C96.4184 69.714 95.9447 69.889 95.5947 70.239C95.2494 70.5843 95.0347 71.065 94.9507 71.681H98.8287ZM99.8367 75.006C99.6827 75.1927 99.4984 75.356 99.2837 75.496C99.069 75.6313 98.838 75.7433 98.5907 75.832C98.348 75.9207 98.096 75.986 97.8347 76.028C97.5734 76.0747 97.3144 76.098 97.0577 76.098C96.5677 76.098 96.115 76.0163 95.6997 75.853C95.289 75.685 94.932 75.4423 94.6287 75.125C94.33 74.803 94.0967 74.4063 93.9287 73.935C93.7607 73.4637 93.6767 72.9223 93.6767 72.311C93.6767 71.8163 93.7514 71.3543 93.9007 70.925C94.0547 70.4957 94.274 70.1247 94.5587 69.812C94.8434 69.4947 95.191 69.2473 95.6017 69.07C96.0124 68.888 96.4744 68.797 96.9877 68.797C97.4124 68.797 97.8044 68.8693 98.1637 69.014C98.5277 69.154 98.8404 69.3593 99.1017 69.63C99.3677 69.896 99.5754 70.2273 99.7247 70.624C99.874 71.016 99.9487 71.464 99.9487 71.968C99.9487 72.164 99.9277 72.2947 99.8857 72.36C99.8437 72.4253 99.7644 72.458 99.6477 72.458H94.9087C94.9227 72.906 94.9834 73.2957 95.0907 73.627C95.2027 73.9583 95.3567 74.236 95.5527 74.46C95.7487 74.6793 95.982 74.845 96.2527 74.957C96.5234 75.0643 96.8267 75.118 97.1627 75.118C97.4754 75.118 97.7437 75.083 97.9677 75.013C98.1964 74.9383 98.3924 74.859 98.5557 74.775C98.719 74.691 98.8544 74.614 98.9617 74.544C99.0737 74.4693 99.1694 74.432 99.2487 74.432C99.3514 74.432 99.4307 74.4717 99.4867 74.551L99.8367 75.006ZM111.19 68.909L108.894 76H107.907C107.785 76 107.701 75.9207 107.655 75.762L106.087 70.953C106.049 70.8457 106.019 70.7383 105.996 70.631C105.972 70.519 105.949 70.4093 105.926 70.302C105.902 70.4093 105.879 70.519 105.856 70.631C105.832 70.7383 105.802 70.848 105.765 70.96L104.169 75.762C104.127 75.9207 104.033 76 103.889 76H102.951L100.655 68.909H101.635C101.733 68.909 101.814 68.9347 101.88 68.986C101.95 69.0373 101.996 69.098 102.02 69.168L103.378 73.732C103.457 74.068 103.52 74.3853 103.567 74.684C103.609 74.53 103.651 74.3737 103.693 74.215C103.739 74.0563 103.788 73.8953 103.84 73.732L105.338 69.14C105.361 69.07 105.401 69.0117 105.457 68.965C105.517 68.9183 105.59 68.895 105.674 68.895H106.22C106.313 68.895 106.39 68.9183 106.451 68.965C106.511 69.0117 106.553 69.07 106.577 69.14L108.04 73.732C108.091 73.8953 108.138 74.0563 108.18 74.215C108.222 74.3737 108.261 74.53 108.299 74.684C108.322 74.53 108.35 74.376 108.383 74.222C108.42 74.0633 108.46 73.9 108.502 73.732L109.888 69.168C109.911 69.0933 109.955 69.0327 110.021 68.986C110.086 68.9347 110.163 68.909 110.252 68.909H111.19ZM116.478 70.078C116.422 70.1807 116.336 70.232 116.219 70.232C116.149 70.232 116.07 70.2063 115.981 70.155C115.893 70.1037 115.783 70.0477 115.652 69.987C115.526 69.9217 115.375 69.8633 115.197 69.812C115.02 69.756 114.81 69.728 114.567 69.728C114.357 69.728 114.168 69.756 114 69.812C113.832 69.8633 113.688 69.9357 113.566 70.029C113.45 70.1223 113.359 70.232 113.293 70.358C113.233 70.4793 113.202 70.6123 113.202 70.757C113.202 70.939 113.254 71.0907 113.356 71.212C113.464 71.3333 113.604 71.4383 113.776 71.527C113.949 71.6157 114.145 71.695 114.364 71.765C114.584 71.8303 114.808 71.9027 115.036 71.982C115.27 72.0567 115.496 72.1407 115.715 72.234C115.935 72.3273 116.131 72.444 116.303 72.584C116.476 72.724 116.614 72.8967 116.716 73.102C116.824 73.3027 116.877 73.5453 116.877 73.83C116.877 74.1567 116.819 74.46 116.702 74.74C116.586 75.0153 116.413 75.2557 116.184 75.461C115.956 75.6617 115.676 75.8203 115.344 75.937C115.013 76.0537 114.63 76.112 114.196 76.112C113.702 76.112 113.254 76.0327 112.852 75.874C112.451 75.7107 112.11 75.503 111.83 75.251L112.124 74.775C112.162 74.7143 112.206 74.6677 112.257 74.635C112.309 74.6023 112.374 74.586 112.453 74.586C112.537 74.586 112.626 74.6187 112.719 74.684C112.813 74.7493 112.925 74.8217 113.055 74.901C113.191 74.9803 113.354 75.0527 113.545 75.118C113.737 75.1833 113.975 75.216 114.259 75.216C114.502 75.216 114.714 75.1857 114.896 75.125C115.078 75.0597 115.23 74.9733 115.351 74.866C115.473 74.7587 115.561 74.635 115.617 74.495C115.678 74.355 115.708 74.2057 115.708 74.047C115.708 73.851 115.655 73.69 115.547 73.564C115.445 73.4333 115.307 73.3237 115.134 73.235C114.962 73.1417 114.763 73.0623 114.539 72.997C114.32 72.927 114.094 72.8547 113.86 72.78C113.632 72.7053 113.405 72.6213 113.181 72.528C112.962 72.43 112.766 72.3087 112.593 72.164C112.421 72.0193 112.281 71.842 112.173 71.632C112.071 71.4173 112.019 71.1583 112.019 70.855C112.019 70.5843 112.075 70.3253 112.187 70.078C112.299 69.826 112.463 69.6067 112.677 69.42C112.892 69.2287 113.156 69.077 113.468 68.965C113.781 68.853 114.138 68.797 114.539 68.797C115.006 68.797 115.424 68.8717 115.792 69.021C116.166 69.1657 116.488 69.3663 116.758 69.623L116.478 70.078ZM118.328 77.694C118.291 77.6613 118.265 77.631 118.251 77.603C118.237 77.575 118.23 77.54 118.23 77.498C118.23 77.4653 118.239 77.4327 118.258 77.4C118.281 77.3673 118.307 77.337 118.335 77.309C118.382 77.2577 118.44 77.19 118.51 77.106C118.585 77.022 118.659 76.9217 118.734 76.805C118.809 76.693 118.876 76.567 118.937 76.427C119.002 76.2917 119.049 76.147 119.077 75.993C119.063 75.9977 119.047 76 119.028 76C119.014 76 119 76 118.986 76C118.743 76 118.545 75.9207 118.391 75.762C118.242 75.5987 118.167 75.391 118.167 75.139C118.167 74.9197 118.242 74.733 118.391 74.579C118.545 74.425 118.748 74.348 119 74.348C119.14 74.348 119.264 74.3737 119.371 74.425C119.478 74.4763 119.567 74.5487 119.637 74.642C119.712 74.7307 119.768 74.8357 119.805 74.957C119.842 75.0737 119.861 75.202 119.861 75.342C119.861 75.552 119.831 75.7713 119.77 76C119.714 76.224 119.628 76.4457 119.511 76.665C119.399 76.889 119.261 77.106 119.098 77.316C118.935 77.526 118.748 77.7197 118.538 77.897L118.328 77.694ZM129.289 70.078C129.233 70.1807 129.147 70.232 129.03 70.232C128.96 70.232 128.881 70.2063 128.792 70.155C128.703 70.1037 128.594 70.0477 128.463 69.987C128.337 69.9217 128.185 69.8633 128.008 69.812C127.831 69.756 127.621 69.728 127.378 69.728C127.168 69.728 126.979 69.756 126.811 69.812C126.643 69.8633 126.498 69.9357 126.377 70.029C126.26 70.1223 126.169 70.232 126.104 70.358C126.043 70.4793 126.013 70.6123 126.013 70.757C126.013 70.939 126.064 71.0907 126.167 71.212C126.274 71.3333 126.414 71.4383 126.587 71.527C126.76 71.6157 126.956 71.695 127.175 71.765C127.394 71.8303 127.618 71.9027 127.847 71.982C128.08 72.0567 128.307 72.1407 128.526 72.234C128.745 72.3273 128.941 72.444 129.114 72.584C129.287 72.724 129.424 72.8967 129.527 73.102C129.634 73.3027 129.688 73.5453 129.688 73.83C129.688 74.1567 129.63 74.46 129.513 74.74C129.396 75.0153 129.224 75.2557 128.995 75.461C128.766 75.6617 128.486 75.8203 128.155 75.937C127.824 76.0537 127.441 76.112 127.007 76.112C126.512 76.112 126.064 76.0327 125.663 75.874C125.262 75.7107 124.921 75.503 124.641 75.251L124.935 74.775C124.972 74.7143 125.017 74.6677 125.068 74.635C125.119 74.6023 125.185 74.586 125.264 74.586C125.348 74.586 125.437 74.6187 125.53 74.684C125.623 74.7493 125.735 74.8217 125.866 74.901C126.001 74.9803 126.165 75.0527 126.356 75.118C126.547 75.1833 126.785 75.216 127.07 75.216C127.313 75.216 127.525 75.1857 127.707 75.125C127.889 75.0597 128.041 74.9733 128.162 74.866C128.283 74.7587 128.372 74.635 128.428 74.495C128.489 74.355 128.519 74.2057 128.519 74.047C128.519 73.851 128.465 73.69 128.358 73.564C128.255 73.4333 128.118 73.3237 127.945 73.235C127.772 73.1417 127.574 73.0623 127.35 72.997C127.131 72.927 126.904 72.8547 126.671 72.78C126.442 72.7053 126.216 72.6213 125.992 72.528C125.773 72.43 125.577 72.3087 125.404 72.164C125.231 72.0193 125.091 71.842 124.984 71.632C124.881 71.4173 124.83 71.1583 124.83 70.855C124.83 70.5843 124.886 70.3253 124.998 70.078C125.11 69.826 125.273 69.6067 125.488 69.42C125.703 69.2287 125.966 69.077 126.279 68.965C126.592 68.853 126.949 68.797 127.35 68.797C127.817 68.797 128.234 68.8717 128.603 69.021C128.976 69.1657 129.298 69.3663 129.569 69.623L129.289 70.078ZM134.205 68.797C134.723 68.797 135.189 68.8833 135.605 69.056C136.02 69.2287 136.375 69.4737 136.669 69.791C136.963 70.1083 137.187 70.4933 137.341 70.946C137.499 71.394 137.579 71.8957 137.579 72.451C137.579 73.011 137.499 73.515 137.341 73.963C137.187 74.411 136.963 74.7937 136.669 75.111C136.375 75.4283 136.02 75.6733 135.605 75.846C135.189 76.014 134.723 76.098 134.205 76.098C133.682 76.098 133.211 76.014 132.791 75.846C132.375 75.6733 132.021 75.4283 131.727 75.111C131.433 74.7937 131.206 74.411 131.048 73.963C130.894 73.515 130.817 73.011 130.817 72.451C130.817 71.8957 130.894 71.394 131.048 70.946C131.206 70.4933 131.433 70.1083 131.727 69.791C132.021 69.4737 132.375 69.2287 132.791 69.056C133.211 68.8833 133.682 68.797 134.205 68.797ZM134.205 75.125C134.905 75.125 135.427 74.8917 135.773 74.425C136.118 73.9537 136.291 73.298 136.291 72.458C136.291 71.6133 136.118 70.9553 135.773 70.484C135.427 70.0127 134.905 69.777 134.205 69.777C133.85 69.777 133.54 69.8377 133.274 69.959C133.012 70.0803 132.793 70.2553 132.616 70.484C132.443 70.7127 132.312 70.995 132.224 71.331C132.14 71.6623 132.098 72.038 132.098 72.458C132.098 73.298 132.27 73.9537 132.616 74.425C132.966 74.8917 133.495 75.125 134.205 75.125ZM144.99 68.909V76H144.248C144.071 76 143.959 75.9137 143.912 75.741L143.814 74.978C143.506 75.3187 143.161 75.594 142.778 75.804C142.395 76.0093 141.957 76.112 141.462 76.112C141.075 76.112 140.732 76.049 140.433 75.923C140.139 75.7923 139.892 75.6103 139.691 75.377C139.49 75.1437 139.339 74.8613 139.236 74.53C139.138 74.1987 139.089 73.8323 139.089 73.431V68.909H140.335V73.431C140.335 73.9677 140.456 74.383 140.699 74.677C140.946 74.971 141.322 75.118 141.826 75.118C142.195 75.118 142.538 75.0317 142.855 74.859C143.177 74.6817 143.473 74.439 143.744 74.131V68.909H144.99ZM148.149 70.33C148.373 69.8447 148.648 69.4667 148.975 69.196C149.301 68.9207 149.7 68.783 150.172 68.783C150.321 68.783 150.463 68.7993 150.599 68.832C150.739 68.8647 150.862 68.916 150.97 68.986L150.879 69.917C150.851 70.0337 150.781 70.092 150.669 70.092C150.603 70.092 150.508 70.078 150.382 70.05C150.256 70.022 150.113 70.008 149.955 70.008C149.731 70.008 149.53 70.0407 149.353 70.106C149.18 70.1713 149.024 70.2693 148.884 70.4C148.748 70.526 148.625 70.6847 148.513 70.876C148.405 71.0627 148.307 71.2773 148.219 71.52V76H146.966V68.909H147.68C147.815 68.909 147.908 68.9347 147.96 68.986C148.011 69.0373 148.046 69.126 148.065 69.252L148.149 70.33ZM156.713 70.169C156.676 70.2203 156.638 70.26 156.601 70.288C156.564 70.316 156.512 70.33 156.447 70.33C156.377 70.33 156.3 70.302 156.216 70.246C156.132 70.1853 156.027 70.12 155.901 70.05C155.78 69.98 155.628 69.917 155.446 69.861C155.269 69.8003 155.049 69.77 154.788 69.77C154.438 69.77 154.13 69.833 153.864 69.959C153.598 70.0803 153.374 70.2577 153.192 70.491C153.015 70.7243 152.879 71.0067 152.786 71.338C152.697 71.6693 152.653 72.0403 152.653 72.451C152.653 72.8803 152.702 73.263 152.8 73.599C152.898 73.9303 153.036 74.2103 153.213 74.439C153.395 74.663 153.612 74.8357 153.864 74.957C154.121 75.0737 154.408 75.132 154.725 75.132C155.028 75.132 155.278 75.097 155.474 75.027C155.67 74.9523 155.831 74.8707 155.957 74.782C156.088 74.6933 156.195 74.614 156.279 74.544C156.368 74.4693 156.454 74.432 156.538 74.432C156.641 74.432 156.72 74.4717 156.776 74.551L157.126 75.006C156.972 75.1973 156.797 75.3607 156.601 75.496C156.405 75.6313 156.193 75.7457 155.964 75.839C155.74 75.9277 155.504 75.993 155.257 76.035C155.01 76.077 154.758 76.098 154.501 76.098C154.058 76.098 153.645 76.0163 153.262 75.853C152.884 75.6897 152.555 75.454 152.275 75.146C151.995 74.8333 151.776 74.4507 151.617 73.998C151.458 73.5453 151.379 73.0297 151.379 72.451C151.379 71.9237 151.451 71.436 151.596 70.988C151.745 70.54 151.96 70.155 152.24 69.833C152.525 69.5063 152.872 69.252 153.283 69.07C153.698 68.888 154.174 68.797 154.711 68.797C155.21 68.797 155.649 68.8787 156.027 69.042C156.41 69.2007 156.748 69.427 157.042 69.721L156.713 70.169ZM163.087 71.681C163.087 71.3917 163.045 71.128 162.961 70.89C162.881 70.6473 162.762 70.4397 162.604 70.267C162.45 70.0897 162.261 69.9543 162.037 69.861C161.813 69.763 161.558 69.714 161.274 69.714C160.676 69.714 160.203 69.889 159.853 70.239C159.507 70.5843 159.293 71.065 159.209 71.681H163.087ZM164.095 75.006C163.941 75.1927 163.756 75.356 163.542 75.496C163.327 75.6313 163.096 75.7433 162.849 75.832C162.606 75.9207 162.354 75.986 162.093 76.028C161.831 76.0747 161.572 76.098 161.316 76.098C160.826 76.098 160.373 76.0163 159.958 75.853C159.547 75.685 159.19 75.4423 158.887 75.125C158.588 74.803 158.355 74.4063 158.187 73.935C158.019 73.4637 157.935 72.9223 157.935 72.311C157.935 71.8163 158.009 71.3543 158.159 70.925C158.313 70.4957 158.532 70.1247 158.817 69.812C159.101 69.4947 159.449 69.2473 159.86 69.07C160.27 68.888 160.732 68.797 161.246 68.797C161.67 68.797 162.062 68.8693 162.422 69.014C162.786 69.154 163.098 69.3593 163.36 69.63C163.626 69.896 163.833 70.2273 163.983 70.624C164.132 71.016 164.207 71.464 164.207 71.968C164.207 72.164 164.186 72.2947 164.144 72.36C164.102 72.4253 164.022 72.458 163.906 72.458H159.167C159.181 72.906 159.241 73.2957 159.349 73.627C159.461 73.9583 159.615 74.236 159.811 74.46C160.007 74.6793 160.24 74.845 160.511 74.957C160.781 75.0643 161.085 75.118 161.421 75.118C161.733 75.118 162.002 75.083 162.226 75.013C162.454 74.9383 162.65 74.859 162.814 74.775C162.977 74.691 163.112 74.614 163.22 74.544C163.332 74.4693 163.427 74.432 163.507 74.432C163.609 74.432 163.689 74.4717 163.745 74.551L164.095 75.006ZM172.308 68.797C172.826 68.797 173.293 68.8833 173.708 69.056C174.123 69.2287 174.478 69.4737 174.772 69.791C175.066 70.1083 175.29 70.4933 175.444 70.946C175.603 71.394 175.682 71.8957 175.682 72.451C175.682 73.011 175.603 73.515 175.444 73.963C175.29 74.411 175.066 74.7937 174.772 75.111C174.478 75.4283 174.123 75.6733 173.708 75.846C173.293 76.014 172.826 76.098 172.308 76.098C171.785 76.098 171.314 76.014 170.894 75.846C170.479 75.6733 170.124 75.4283 169.83 75.111C169.536 74.7937 169.31 74.411 169.151 73.963C168.997 73.515 168.92 73.011 168.92 72.451C168.92 71.8957 168.997 71.394 169.151 70.946C169.31 70.4933 169.536 70.1083 169.83 69.791C170.124 69.4737 170.479 69.2287 170.894 69.056C171.314 68.8833 171.785 68.797 172.308 68.797ZM172.308 75.125C173.008 75.125 173.531 74.8917 173.876 74.425C174.221 73.9537 174.394 73.298 174.394 72.458C174.394 71.6133 174.221 70.9553 173.876 70.484C173.531 70.0127 173.008 69.777 172.308 69.777C171.953 69.777 171.643 69.8377 171.377 69.959C171.116 70.0803 170.896 70.2553 170.719 70.484C170.546 70.7127 170.416 70.995 170.327 71.331C170.243 71.6623 170.201 72.038 170.201 72.458C170.201 73.298 170.374 73.9537 170.719 74.425C171.069 74.8917 171.599 75.125 172.308 75.125ZM177.574 76V69.973L176.79 69.882C176.692 69.8587 176.61 69.8237 176.545 69.777C176.484 69.7257 176.454 69.6533 176.454 69.56V69.049H177.574V68.363C177.574 67.957 177.63 67.5977 177.742 67.285C177.859 66.9677 178.022 66.7017 178.232 66.487C178.447 66.2677 178.703 66.102 179.002 65.99C179.301 65.878 179.637 65.822 180.01 65.822C180.327 65.822 180.619 65.8687 180.885 65.962L180.857 66.585C180.848 66.697 180.785 66.7577 180.668 66.767C180.556 66.7763 180.404 66.781 180.213 66.781C179.998 66.781 179.802 66.809 179.625 66.865C179.452 66.921 179.303 67.012 179.177 67.138C179.051 67.264 178.953 67.4297 178.883 67.635C178.818 67.8403 178.785 68.0947 178.785 68.398V69.049H180.829V69.952H178.827V76H177.574ZM187.519 76.112C186.959 76.112 186.528 75.9557 186.224 75.643C185.926 75.3303 185.776 74.88 185.776 74.292V69.952H184.922C184.848 69.952 184.785 69.931 184.733 69.889C184.682 69.8423 184.656 69.7723 184.656 69.679V69.182L185.818 69.035L186.105 66.844C186.119 66.774 186.15 66.718 186.196 66.676C186.248 66.6293 186.313 66.606 186.392 66.606H187.022V69.049H189.073V69.952H187.022V74.208C187.022 74.5067 187.095 74.7283 187.239 74.873C187.384 75.0177 187.571 75.09 187.799 75.09C187.93 75.09 188.042 75.0737 188.135 75.041C188.233 75.0037 188.317 74.964 188.387 74.922C188.457 74.88 188.516 74.8427 188.562 74.81C188.614 74.7727 188.658 74.754 188.695 74.754C188.761 74.754 188.819 74.7937 188.87 74.873L189.234 75.468C189.02 75.6687 188.761 75.8273 188.457 75.944C188.154 76.056 187.841 76.112 187.519 76.112ZM191.543 70.33C191.767 69.8447 192.042 69.4667 192.369 69.196C192.696 68.9207 193.095 68.783 193.566 68.783C193.715 68.783 193.858 68.7993 193.993 68.832C194.133 68.8647 194.257 68.916 194.364 68.986L194.273 69.917C194.245 70.0337 194.175 70.092 194.063 70.092C193.998 70.092 193.902 70.078 193.776 70.05C193.65 70.022 193.508 70.008 193.349 70.008C193.125 70.008 192.924 70.0407 192.747 70.106C192.574 70.1713 192.418 70.2693 192.278 70.4C192.143 70.526 192.019 70.6847 191.907 70.876C191.8 71.0627 191.702 71.2773 191.613 71.52V76H190.36V68.909H191.074C191.209 68.909 191.303 68.9347 191.354 68.986C191.405 69.0373 191.44 69.126 191.459 69.252L191.543 70.33ZM199.193 72.808C198.619 72.8267 198.129 72.8733 197.723 72.948C197.322 73.018 196.993 73.1113 196.736 73.228C196.484 73.3447 196.3 73.4823 196.183 73.641C196.071 73.7997 196.015 73.977 196.015 74.173C196.015 74.3597 196.046 74.5207 196.106 74.656C196.167 74.7913 196.249 74.9033 196.351 74.992C196.459 75.076 196.582 75.139 196.722 75.181C196.867 75.2183 197.021 75.237 197.184 75.237C197.404 75.237 197.604 75.216 197.786 75.174C197.968 75.1273 198.139 75.062 198.297 74.978C198.461 74.894 198.615 74.7937 198.759 74.677C198.909 74.5603 199.053 74.4273 199.193 74.278V72.808ZM195.168 69.91C195.56 69.532 195.983 69.2497 196.435 69.063C196.888 68.8763 197.39 68.783 197.94 68.783C198.337 68.783 198.689 68.8483 198.997 68.979C199.305 69.1097 199.564 69.2917 199.774 69.525C199.984 69.7583 200.143 70.0407 200.25 70.372C200.358 70.7033 200.411 71.0673 200.411 71.464V76H199.858C199.737 76 199.644 75.9813 199.578 75.944C199.513 75.902 199.462 75.8227 199.424 75.706L199.284 75.034C199.098 75.2067 198.916 75.3607 198.738 75.496C198.561 75.6267 198.374 75.7387 198.178 75.832C197.982 75.9207 197.772 75.9883 197.548 76.035C197.329 76.0863 197.084 76.112 196.813 76.112C196.538 76.112 196.279 76.0747 196.036 76C195.794 75.9207 195.581 75.804 195.399 75.65C195.222 75.496 195.08 75.3023 194.972 75.069C194.87 74.831 194.818 74.551 194.818 74.229C194.818 73.949 194.895 73.6807 195.049 73.424C195.203 73.1627 195.453 72.9317 195.798 72.731C196.144 72.5303 196.594 72.367 197.149 72.241C197.705 72.1103 198.386 72.0357 199.193 72.017V71.464C199.193 70.9133 199.074 70.498 198.836 70.218C198.598 69.9333 198.251 69.791 197.793 69.791C197.485 69.791 197.226 69.8307 197.016 69.91C196.811 69.9847 196.631 70.071 196.477 70.169C196.328 70.2623 196.197 70.3487 196.085 70.428C195.978 70.5027 195.871 70.54 195.763 70.54C195.679 70.54 195.607 70.519 195.546 70.477C195.486 70.4303 195.434 70.3743 195.392 70.309L195.168 69.91ZM202.662 76V69.973L201.878 69.882C201.78 69.8587 201.698 69.8237 201.633 69.777C201.572 69.7257 201.542 69.6533 201.542 69.56V69.049H202.662V68.363C202.662 67.957 202.718 67.5977 202.83 67.285C202.947 66.9677 203.11 66.7017 203.32 66.487C203.535 66.2677 203.791 66.102 204.09 65.99C204.389 65.878 204.725 65.822 205.098 65.822C205.415 65.822 205.707 65.8687 205.973 65.962L205.945 66.585C205.936 66.697 205.873 66.7577 205.756 66.767C205.644 66.7763 205.492 66.781 205.301 66.781C205.086 66.781 204.89 66.809 204.713 66.865C204.54 66.921 204.391 67.012 204.265 67.138C204.139 67.264 204.041 67.4297 203.971 67.635C203.906 67.8403 203.873 68.0947 203.873 68.398V69.049H205.917V69.952H203.915V76H202.662ZM207.57 76V69.973L206.786 69.882C206.688 69.8587 206.606 69.8237 206.541 69.777C206.48 69.7257 206.45 69.6533 206.45 69.56V69.049H207.57V68.363C207.57 67.957 207.626 67.5977 207.738 67.285C207.855 66.9677 208.018 66.7017 208.228 66.487C208.443 66.2677 208.699 66.102 208.998 65.99C209.297 65.878 209.633 65.822 210.006 65.822C210.323 65.822 210.615 65.8687 210.881 65.962L210.853 66.585C210.844 66.697 210.781 66.7577 210.664 66.767C210.552 66.7763 210.4 66.781 210.209 66.781C209.994 66.781 209.798 66.809 209.621 66.865C209.448 66.921 209.299 67.012 209.173 67.138C209.047 67.264 208.949 67.4297 208.879 67.635C208.814 67.8403 208.781 68.0947 208.781 68.398V69.049H210.825V69.952H208.823V76H207.57ZM213.332 68.909V76H212.086V68.909H213.332ZM213.598 66.683C213.598 66.8043 213.573 66.9187 213.521 67.026C213.475 67.1287 213.409 67.222 213.325 67.306C213.246 67.3853 213.15 67.4483 213.038 67.495C212.931 67.5417 212.817 67.565 212.695 67.565C212.574 67.565 212.46 67.5417 212.352 67.495C212.25 67.4483 212.159 67.3853 212.079 67.306C212 67.222 211.937 67.1287 211.89 67.026C211.844 66.9187 211.82 66.8043 211.82 66.683C211.82 66.5617 211.844 66.4473 211.89 66.34C211.937 66.228 212 66.1323 212.079 66.053C212.159 65.969 212.25 65.9037 212.352 65.857C212.46 65.8103 212.574 65.787 212.695 65.787C212.817 65.787 212.931 65.8103 213.038 65.857C213.15 65.9037 213.246 65.969 213.325 66.053C213.409 66.1323 213.475 66.228 213.521 66.34C213.573 66.4473 213.598 66.5617 213.598 66.683ZM220.315 70.169C220.277 70.2203 220.24 70.26 220.203 70.288C220.165 70.316 220.114 70.33 220.049 70.33C219.979 70.33 219.902 70.302 219.818 70.246C219.734 70.1853 219.629 70.12 219.503 70.05C219.381 69.98 219.23 69.917 219.048 69.861C218.87 69.8003 218.651 69.77 218.39 69.77C218.04 69.77 217.732 69.833 217.466 69.959C217.2 70.0803 216.976 70.2577 216.794 70.491C216.616 70.7243 216.481 71.0067 216.388 71.338C216.299 71.6693 216.255 72.0403 216.255 72.451C216.255 72.8803 216.304 73.263 216.402 73.599C216.5 73.9303 216.637 74.2103 216.815 74.439C216.997 74.663 217.214 74.8357 217.466 74.957C217.722 75.0737 218.009 75.132 218.327 75.132C218.63 75.132 218.88 75.097 219.076 75.027C219.272 74.9523 219.433 74.8707 219.559 74.782C219.689 74.6933 219.797 74.614 219.881 74.544C219.969 74.4693 220.056 74.432 220.14 74.432C220.242 74.432 220.322 74.4717 220.378 74.551L220.728 75.006C220.574 75.1973 220.399 75.3607 220.203 75.496C220.007 75.6313 219.794 75.7457 219.566 75.839C219.342 75.9277 219.106 75.993 218.859 76.035C218.611 76.077 218.359 76.098 218.103 76.098C217.659 76.098 217.246 76.0163 216.864 75.853C216.486 75.6897 216.157 75.454 215.877 75.146C215.597 74.8333 215.377 74.4507 215.219 73.998C215.06 73.5453 214.981 73.0297 214.981 72.451C214.981 71.9237 215.053 71.436 215.198 70.988C215.347 70.54 215.562 70.155 215.842 69.833C216.126 69.5063 216.474 69.252 216.885 69.07C217.3 68.888 217.776 68.797 218.313 68.797C218.812 68.797 219.251 68.8787 219.629 69.042C220.011 69.2007 220.35 69.427 220.644 69.721L220.315 70.169ZM228.041 71.058C227.546 71.3193 227.173 71.6367 226.921 72.01C226.674 72.3833 226.55 72.7893 226.55 73.228C226.55 73.5313 226.606 73.7997 226.718 74.033C226.83 74.2617 226.977 74.4553 227.159 74.614C227.341 74.7727 227.549 74.894 227.782 74.978C228.015 75.0573 228.253 75.097 228.496 75.097C229.019 75.097 229.488 75.0013 229.903 74.81C230.323 74.6187 230.689 74.362 231.002 74.04L228.041 71.058ZM234.509 76H233.298C233.163 76 233.053 75.9837 232.969 75.951C232.885 75.9183 232.794 75.8507 232.696 75.748L231.681 74.726C231.242 75.1507 230.736 75.489 230.162 75.741C229.593 75.9883 228.965 76.112 228.279 76.112C227.906 76.112 227.539 76.049 227.18 75.923C226.825 75.797 226.506 75.615 226.221 75.377C225.936 75.1343 225.708 74.8403 225.535 74.495C225.362 74.1497 225.276 73.76 225.276 73.326C225.276 72.9993 225.33 72.6913 225.437 72.402C225.549 72.108 225.703 71.8373 225.899 71.59C226.095 71.3427 226.326 71.121 226.592 70.925C226.858 70.729 227.15 70.561 227.467 70.421C227.182 70.057 226.972 69.707 226.837 69.371C226.702 69.0303 226.634 68.678 226.634 68.314C226.634 67.9733 226.695 67.6537 226.816 67.355C226.942 67.0563 227.122 66.7973 227.355 66.578C227.588 66.354 227.871 66.179 228.202 66.053C228.538 65.9223 228.914 65.857 229.329 65.857C229.698 65.857 230.034 65.9177 230.337 66.039C230.64 66.1557 230.902 66.312 231.121 66.508C231.34 66.704 231.513 66.9327 231.639 67.194C231.77 67.4507 231.844 67.719 231.863 67.999L231.086 68.153C230.932 68.1903 230.818 68.118 230.743 67.936C230.71 67.8147 230.657 67.6887 230.582 67.558C230.512 67.4273 230.419 67.3083 230.302 67.201C230.19 67.0937 230.052 67.005 229.889 66.935C229.73 66.865 229.544 66.83 229.329 66.83C229.096 66.83 228.883 66.8673 228.692 66.942C228.505 67.0167 228.344 67.1217 228.209 67.257C228.078 67.3877 227.978 67.544 227.908 67.726C227.838 67.9033 227.803 68.097 227.803 68.307C227.803 68.4703 227.822 68.6267 227.859 68.776C227.896 68.9253 227.955 69.077 228.034 69.231C228.118 69.385 228.223 69.5413 228.349 69.7C228.475 69.8587 228.627 70.0267 228.804 70.204L231.688 73.137C231.865 72.8197 232.008 72.4907 232.115 72.15C232.222 71.8047 232.292 71.4617 232.325 71.121C232.334 71.0323 232.362 70.9623 232.409 70.911C232.456 70.8597 232.521 70.834 232.605 70.834H233.368C233.363 71.3707 233.279 71.898 233.116 72.416C232.953 72.9293 232.717 73.4123 232.409 73.865L234.509 76ZM16.987 94V86.909H17.736C17.9133 86.909 18.023 86.9953 18.065 87.168L18.156 87.896C18.4173 87.574 18.7113 87.3103 19.038 87.105C19.3647 86.8997 19.7427 86.797 20.172 86.797C20.648 86.797 21.033 86.93 21.327 87.196C21.6257 87.462 21.8403 87.8213 21.971 88.274C22.0737 88.0173 22.2043 87.7957 22.363 87.609C22.5263 87.4223 22.7083 87.2683 22.909 87.147C23.1097 87.0257 23.322 86.937 23.546 86.881C23.7747 86.825 24.0057 86.797 24.239 86.797C24.6123 86.797 24.9437 86.8577 25.233 86.979C25.527 87.0957 25.7743 87.2683 25.975 87.497C26.1803 87.7257 26.3367 88.008 26.444 88.344C26.5513 88.6753 26.605 89.0557 26.605 89.485V94H25.352V89.485C25.352 88.9297 25.2307 88.5097 24.988 88.225C24.7453 87.9357 24.3953 87.791 23.938 87.791C23.7327 87.791 23.5367 87.8283 23.35 87.903C23.168 87.973 23.007 88.078 22.867 88.218C22.727 88.358 22.615 88.5353 22.531 88.75C22.4517 88.96 22.412 89.205 22.412 89.485V94H21.159V89.485C21.159 88.9157 21.0447 88.491 20.816 88.211C20.5873 87.931 20.2537 87.791 19.815 87.791C19.507 87.791 19.2223 87.875 18.961 88.043C18.6997 88.2063 18.4593 88.4303 18.24 88.715V94H16.987ZM31.4877 86.797C32.0057 86.797 32.4724 86.8833 32.8877 87.056C33.3031 87.2287 33.6577 87.4737 33.9517 87.791C34.2457 88.1083 34.4697 88.4933 34.6237 88.946C34.7824 89.394 34.8617 89.8957 34.8617 90.451C34.8617 91.011 34.7824 91.515 34.6237 91.963C34.4697 92.411 34.2457 92.7937 33.9517 93.111C33.6577 93.4283 33.3031 93.6733 32.8877 93.846C32.4724 94.014 32.0057 94.098 31.4877 94.098C30.9651 94.098 30.4937 94.014 30.0737 93.846C29.6584 93.6733 29.3037 93.4283 29.0097 93.111C28.7157 92.7937 28.4894 92.411 28.3307 91.963C28.1767 91.515 28.0997 91.011 28.0997 90.451C28.0997 89.8957 28.1767 89.394 28.3307 88.946C28.4894 88.4933 28.7157 88.1083 29.0097 87.791C29.3037 87.4737 29.6584 87.2287 30.0737 87.056C30.4937 86.8833 30.9651 86.797 31.4877 86.797ZM31.4877 93.125C32.1877 93.125 32.7104 92.8917 33.0557 92.425C33.4011 91.9537 33.5737 91.298 33.5737 90.458C33.5737 89.6133 33.4011 88.9553 33.0557 88.484C32.7104 88.0127 32.1877 87.777 31.4877 87.777C31.1331 87.777 30.8227 87.8377 30.5567 87.959C30.2954 88.0803 30.0761 88.2553 29.8987 88.484C29.7261 88.7127 29.5954 88.995 29.5067 89.331C29.4227 89.6623 29.3807 90.038 29.3807 90.458C29.3807 91.298 29.5534 91.9537 29.8987 92.425C30.2487 92.8917 30.7784 93.125 31.4877 93.125ZM37.6251 88.33C37.8491 87.8447 38.1244 87.4667 38.4511 87.196C38.7777 86.9207 39.1767 86.783 39.6481 86.783C39.7974 86.783 39.9397 86.7993 40.0751 86.832C40.2151 86.8647 40.3387 86.916 40.4461 86.986L40.3551 87.917C40.3271 88.0337 40.2571 88.092 40.1451 88.092C40.0797 88.092 39.9841 88.078 39.8581 88.05C39.7321 88.022 39.5897 88.008 39.4311 88.008C39.2071 88.008 39.0064 88.0407 38.8291 88.106C38.6564 88.1713 38.5001 88.2693 38.3601 88.4C38.2247 88.526 38.1011 88.6847 37.9891 88.876C37.8817 89.0627 37.7837 89.2773 37.6951 89.52V94H36.4421V86.909H37.1561C37.2914 86.909 37.3847 86.9347 37.4361 86.986C37.4874 87.0373 37.5224 87.126 37.5411 87.252L37.6251 88.33ZM46.0006 89.681C46.0006 89.3917 45.9586 89.128 45.8746 88.89C45.7952 88.6473 45.6762 88.4397 45.5176 88.267C45.3636 88.0897 45.1746 87.9543 44.9506 87.861C44.7266 87.763 44.4722 87.714 44.1876 87.714C43.5902 87.714 43.1166 87.889 42.7666 88.239C42.4212 88.5843 42.2066 89.065 42.1226 89.681H46.0006ZM47.0086 93.006C46.8546 93.1927 46.6702 93.356 46.4556 93.496C46.2409 93.6313 46.0099 93.7433 45.7626 93.832C45.5199 93.9207 45.2679 93.986 45.0066 94.028C44.7452 94.0747 44.4862 94.098 44.2296 94.098C43.7396 94.098 43.2869 94.0163 42.8716 93.853C42.4609 93.685 42.1039 93.4423 41.8006 93.125C41.5019 92.803 41.2686 92.4063 41.1006 91.935C40.9326 91.4637 40.8486 90.9223 40.8486 90.311C40.8486 89.8163 40.9232 89.3543 41.0726 88.925C41.2266 88.4957 41.4459 88.1247 41.7306 87.812C42.0152 87.4947 42.3629 87.2473 42.7736 87.07C43.1842 86.888 43.6462 86.797 44.1596 86.797C44.5842 86.797 44.9762 86.8693 45.3356 87.014C45.6996 87.154 46.0122 87.3593 46.2736 87.63C46.5396 87.896 46.7472 88.2273 46.8966 88.624C47.0459 89.016 47.1206 89.464 47.1206 89.968C47.1206 90.164 47.0996 90.2947 47.0576 90.36C47.0156 90.4253 46.9362 90.458 46.8196 90.458H42.0806C42.0946 90.906 42.1552 91.2957 42.2626 91.627C42.3746 91.9583 42.5286 92.236 42.7246 92.46C42.9206 92.6793 43.1539 92.845 43.4246 92.957C43.6952 93.0643 43.9986 93.118 44.3346 93.118C44.6472 93.118 44.9156 93.083 45.1396 93.013C45.3682 92.9383 45.5642 92.859 45.7276 92.775C45.8909 92.691 46.0262 92.614 46.1336 92.544C46.2456 92.4693 46.3412 92.432 46.4206 92.432C46.5232 92.432 46.6026 92.4717 46.6586 92.551L47.0086 93.006ZM56.0761 90.808C55.5021 90.8267 55.0121 90.8733 54.6061 90.948C54.2048 91.018 53.8758 91.1113 53.6191 91.228C53.3671 91.3447 53.1828 91.4823 53.0661 91.641C52.9541 91.7997 52.8981 91.977 52.8981 92.173C52.8981 92.3597 52.9284 92.5207 52.9891 92.656C53.0498 92.7913 53.1314 92.9033 53.2341 92.992C53.3414 93.076 53.4651 93.139 53.6051 93.181C53.7498 93.2183 53.9038 93.237 54.0671 93.237C54.2864 93.237 54.4871 93.216 54.6691 93.174C54.8511 93.1273 55.0214 93.062 55.1801 92.978C55.3434 92.894 55.4974 92.7937 55.6421 92.677C55.7914 92.5603 55.9361 92.4273 56.0761 92.278V90.808ZM52.0511 87.91C52.4431 87.532 52.8654 87.2497 53.3181 87.063C53.7708 86.8763 54.2724 86.783 54.8231 86.783C55.2198 86.783 55.5721 86.8483 55.8801 86.979C56.1881 87.1097 56.4471 87.2917 56.6571 87.525C56.8671 87.7583 57.0258 88.0407 57.1331 88.372C57.2404 88.7033 57.2941 89.0673 57.2941 89.464V94H56.7411C56.6198 94 56.5264 93.9813 56.4611 93.944C56.3958 93.902 56.3444 93.8227 56.3071 93.706L56.1671 93.034C55.9804 93.2067 55.7984 93.3607 55.6211 93.496C55.4438 93.6267 55.2571 93.7387 55.0611 93.832C54.8651 93.9207 54.6551 93.9883 54.4311 94.035C54.2118 94.0863 53.9668 94.112 53.6961 94.112C53.4208 94.112 53.1618 94.0747 52.9191 94C52.6764 93.9207 52.4641 93.804 52.2821 93.65C52.1048 93.496 51.9624 93.3023 51.8551 93.069C51.7524 92.831 51.7011 92.551 51.7011 92.229C51.7011 91.949 51.7781 91.6807 51.9321 91.424C52.0861 91.1627 52.3358 90.9317 52.6811 90.731C53.0264 90.5303 53.4768 90.367 54.0321 90.241C54.5874 90.1103 55.2688 90.0357 56.0761 90.017V89.464C56.0761 88.9133 55.9571 88.498 55.7191 88.218C55.4811 87.9333 55.1334 87.791 54.6761 87.791C54.3681 87.791 54.1091 87.8307 53.8991 87.91C53.6938 87.9847 53.5141 88.071 53.3601 88.169C53.2108 88.2623 53.0801 88.3487 52.9681 88.428C52.8608 88.5027 52.7534 88.54 52.6461 88.54C52.5621 88.54 52.4898 88.519 52.4291 88.477C52.3684 88.4303 52.3171 88.3743 52.2751 88.309L52.0511 87.91ZM64.1271 88.169C64.0897 88.2203 64.0524 88.26 64.0151 88.288C63.9777 88.316 63.9264 88.33 63.8611 88.33C63.7911 88.33 63.7141 88.302 63.6301 88.246C63.5461 88.1853 63.4411 88.12 63.3151 88.05C63.1937 87.98 63.0421 87.917 62.8601 87.861C62.6827 87.8003 62.4634 87.77 62.2021 87.77C61.8521 87.77 61.5441 87.833 61.2781 87.959C61.0121 88.0803 60.7881 88.2577 60.6061 88.491C60.4287 88.7243 60.2934 89.0067 60.2001 89.338C60.1114 89.6693 60.0671 90.0403 60.0671 90.451C60.0671 90.8803 60.1161 91.263 60.2141 91.599C60.3121 91.9303 60.4497 92.2103 60.6271 92.439C60.8091 92.663 61.0261 92.8357 61.2781 92.957C61.5347 93.0737 61.8217 93.132 62.1391 93.132C62.4424 93.132 62.6921 93.097 62.8881 93.027C63.0841 92.9523 63.2451 92.8707 63.3711 92.782C63.5017 92.6933 63.6091 92.614 63.6931 92.544C63.7817 92.4693 63.8681 92.432 63.9521 92.432C64.0547 92.432 64.1341 92.4717 64.1901 92.551L64.5401 93.006C64.3861 93.1973 64.2111 93.3607 64.0151 93.496C63.8191 93.6313 63.6067 93.7457 63.3781 93.839C63.1541 93.9277 62.9184 93.993 62.6711 94.035C62.4237 94.077 62.1717 94.098 61.9151 94.098C61.4717 94.098 61.0587 94.0163 60.6761 93.853C60.2981 93.6897 59.9691 93.454 59.6891 93.146C59.4091 92.8333 59.1897 92.4507 59.0311 91.998C58.8724 91.5453 58.7931 91.0297 58.7931 90.451C58.7931 89.9237 58.8654 89.436 59.0101 88.988C59.1594 88.54 59.3741 88.155 59.6541 87.833C59.9387 87.5063 60.2864 87.252 60.6971 87.07C61.1124 86.888 61.5884 86.797 62.1251 86.797C62.6244 86.797 63.0631 86.8787 63.4411 87.042C63.8237 87.2007 64.1621 87.427 64.4561 87.721L64.1271 88.169ZM68.0546 94.112C67.4946 94.112 67.063 93.9557 66.7596 93.643C66.461 93.3303 66.3116 92.88 66.3116 92.292V87.952H65.4576C65.383 87.952 65.32 87.931 65.2686 87.889C65.2173 87.8423 65.1916 87.7723 65.1916 87.679V87.182L66.3536 87.035L66.6406 84.844C66.6546 84.774 66.685 84.718 66.7316 84.676C66.783 84.6293 66.8483 84.606 66.9276 84.606H67.5576V87.049H69.6086V87.952H67.5576V92.208C67.5576 92.5067 67.63 92.7283 67.7746 92.873C67.9193 93.0177 68.106 93.09 68.3346 93.09C68.4653 93.09 68.5773 93.0737 68.6706 93.041C68.7686 93.0037 68.8526 92.964 68.9226 92.922C68.9926 92.88 69.051 92.8427 69.0976 92.81C69.149 92.7727 69.1933 92.754 69.2306 92.754C69.296 92.754 69.3543 92.7937 69.4056 92.873L69.7696 93.468C69.555 93.6687 69.296 93.8273 68.9926 93.944C68.6893 94.056 68.3766 94.112 68.0546 94.112ZM72.2112 86.909V94H70.9652V86.909H72.2112ZM72.4772 84.683C72.4772 84.8043 72.4515 84.9187 72.4002 85.026C72.3535 85.1287 72.2882 85.222 72.2042 85.306C72.1249 85.3853 72.0292 85.4483 71.9172 85.495C71.8099 85.5417 71.6955 85.565 71.5742 85.565C71.4529 85.565 71.3385 85.5417 71.2312 85.495C71.1285 85.4483 71.0375 85.3853 70.9582 85.306C70.8789 85.222 70.8159 85.1287 70.7692 85.026C70.7225 84.9187 70.6992 84.8043 70.6992 84.683C70.6992 84.5617 70.7225 84.4473 70.7692 84.34C70.8159 84.228 70.8789 84.1323 70.9582 84.053C71.0375 83.969 71.1285 83.9037 71.2312 83.857C71.3385 83.8103 71.4529 83.787 71.5742 83.787C71.6955 83.787 71.8099 83.8103 71.9172 83.857C72.0292 83.9037 72.1249 83.969 72.2042 84.053C72.2882 84.1323 72.3535 84.228 72.4002 84.34C72.4515 84.4473 72.4772 84.5617 72.4772 84.683ZM77.2475 86.797C77.7655 86.797 78.2322 86.8833 78.6475 87.056C79.0628 87.2287 79.4175 87.4737 79.7115 87.791C80.0055 88.1083 80.2295 88.4933 80.3835 88.946C80.5422 89.394 80.6215 89.8957 80.6215 90.451C80.6215 91.011 80.5422 91.515 80.3835 91.963C80.2295 92.411 80.0055 92.7937 79.7115 93.111C79.4175 93.4283 79.0628 93.6733 78.6475 93.846C78.2322 94.014 77.7655 94.098 77.2475 94.098C76.7248 94.098 76.2535 94.014 75.8335 93.846C75.4182 93.6733 75.0635 93.4283 74.7695 93.111C74.4755 92.7937 74.2492 92.411 74.0905 91.963C73.9365 91.515 73.8595 91.011 73.8595 90.451C73.8595 89.8957 73.9365 89.394 74.0905 88.946C74.2492 88.4933 74.4755 88.1083 74.7695 87.791C75.0635 87.4737 75.4182 87.2287 75.8335 87.056C76.2535 86.8833 76.7248 86.797 77.2475 86.797ZM77.2475 93.125C77.9475 93.125 78.4702 92.8917 78.8155 92.425C79.1608 91.9537 79.3335 91.298 79.3335 90.458C79.3335 89.6133 79.1608 88.9553 78.8155 88.484C78.4702 88.0127 77.9475 87.777 77.2475 87.777C76.8928 87.777 76.5825 87.8377 76.3165 87.959C76.0552 88.0803 75.8358 88.2553 75.6585 88.484C75.4858 88.7127 75.3552 88.995 75.2665 89.331C75.1825 89.6623 75.1405 90.038 75.1405 90.458C75.1405 91.298 75.3132 91.9537 75.6585 92.425C76.0085 92.8917 76.5382 93.125 77.2475 93.125ZM83.3778 87.938C83.5318 87.7653 83.6952 87.609 83.8678 87.469C84.0405 87.329 84.2225 87.21 84.4138 87.112C84.6098 87.0093 84.8152 86.9323 85.0298 86.881C85.2492 86.825 85.4848 86.797 85.7368 86.797C86.1242 86.797 86.4648 86.8623 86.7588 86.993C87.0575 87.119 87.3048 87.301 87.5008 87.539C87.7015 87.7723 87.8532 88.0547 87.9558 88.386C88.0585 88.7173 88.1098 89.0837 88.1098 89.485V94H86.8568V89.485C86.8568 88.9483 86.7332 88.533 86.4858 88.239C86.2432 87.9403 85.8722 87.791 85.3728 87.791C85.0042 87.791 84.6588 87.8797 84.3368 88.057C84.0195 88.2343 83.7255 88.4747 83.4548 88.778V94H82.2018V86.909H82.9508C83.1282 86.909 83.2378 86.9953 83.2798 87.168L83.3778 87.938ZM93.8515 90.808C93.2775 90.8267 92.7875 90.8733 92.3815 90.948C91.9802 91.018 91.6512 91.1113 91.3945 91.228C91.1425 91.3447 90.9582 91.4823 90.8415 91.641C90.7295 91.7997 90.6735 91.977 90.6735 92.173C90.6735 92.3597 90.7038 92.5207 90.7645 92.656C90.8252 92.7913 90.9068 92.9033 91.0095 92.992C91.1168 93.076 91.2405 93.139 91.3805 93.181C91.5252 93.2183 91.6792 93.237 91.8425 93.237C92.0618 93.237 92.2625 93.216 92.4445 93.174C92.6265 93.1273 92.7968 93.062 92.9555 92.978C93.1188 92.894 93.2728 92.7937 93.4175 92.677C93.5668 92.5603 93.7115 92.4273 93.8515 92.278V90.808ZM89.8265 87.91C90.2185 87.532 90.6408 87.2497 91.0935 87.063C91.5462 86.8763 92.0478 86.783 92.5985 86.783C92.9952 86.783 93.3475 86.8483 93.6555 86.979C93.9635 87.1097 94.2225 87.2917 94.4325 87.525C94.6425 87.7583 94.8012 88.0407 94.9085 88.372C95.0158 88.7033 95.0695 89.0673 95.0695 89.464V94H94.5165C94.3952 94 94.3018 93.9813 94.2365 93.944C94.1712 93.902 94.1198 93.8227 94.0825 93.706L93.9425 93.034C93.7558 93.2067 93.5738 93.3607 93.3965 93.496C93.2192 93.6267 93.0325 93.7387 92.8365 93.832C92.6405 93.9207 92.4305 93.9883 92.2065 94.035C91.9872 94.0863 91.7422 94.112 91.4715 94.112C91.1962 94.112 90.9372 94.0747 90.6945 94C90.4518 93.9207 90.2395 93.804 90.0575 93.65C89.8802 93.496 89.7378 93.3023 89.6305 93.069C89.5278 92.831 89.4765 92.551 89.4765 92.229C89.4765 91.949 89.5535 91.6807 89.7075 91.424C89.8615 91.1627 90.1112 90.9317 90.4565 90.731C90.8018 90.5303 91.2522 90.367 91.8075 90.241C92.3628 90.1103 93.0442 90.0357 93.8515 90.017V89.464C93.8515 88.9133 93.7325 88.498 93.4945 88.218C93.2565 87.9333 92.9088 87.791 92.4515 87.791C92.1435 87.791 91.8845 87.8307 91.6745 87.91C91.4692 87.9847 91.2895 88.071 91.1355 88.169C90.9862 88.2623 90.8555 88.3487 90.7435 88.428C90.6362 88.5027 90.5288 88.54 90.4215 88.54C90.3375 88.54 90.2652 88.519 90.2045 88.477C90.1438 88.4303 90.0925 88.3743 90.0505 88.309L89.8265 87.91ZM98.2205 92.292C98.4491 92.6 98.6988 92.817 98.9695 92.943C99.2448 93.069 99.5458 93.132 99.8725 93.132C100.54 93.132 101.051 92.8963 101.405 92.425C101.76 91.9537 101.937 91.2513 101.937 90.318C101.937 89.45 101.779 88.813 101.461 88.407C101.149 87.9963 100.701 87.791 100.117 87.791C99.7115 87.791 99.3568 87.8843 99.0535 88.071C98.7548 88.2577 98.4771 88.5213 98.2205 88.862V92.292ZM98.2205 87.931C98.5191 87.5857 98.8551 87.3103 99.2285 87.105C99.6065 86.8997 100.04 86.797 100.53 86.797C100.946 86.797 101.319 86.8763 101.65 87.035C101.986 87.1937 102.271 87.4247 102.504 87.728C102.738 88.0267 102.915 88.3907 103.036 88.82C103.162 89.2493 103.225 89.7323 103.225 90.269C103.225 90.843 103.155 91.3657 103.015 91.837C102.875 92.3083 102.672 92.712 102.406 93.048C102.145 93.3793 101.825 93.6383 101.447 93.825C101.069 94.007 100.645 94.098 100.173 94.098C99.7068 94.098 99.3125 94.0117 98.9905 93.839C98.6731 93.6617 98.3955 93.412 98.1575 93.09L98.0945 93.734C98.0571 93.9113 97.9498 94 97.7725 94H96.9675V83.689H98.2205V87.931ZM106.089 83.689V94H104.843V83.689H106.089ZM112.856 89.681C112.856 89.3917 112.814 89.128 112.73 88.89C112.651 88.6473 112.532 88.4397 112.373 88.267C112.219 88.0897 112.03 87.9543 111.806 87.861C111.582 87.763 111.328 87.714 111.043 87.714C110.446 87.714 109.972 87.889 109.622 88.239C109.277 88.5843 109.062 89.065 108.978 89.681H112.856ZM113.864 93.006C113.71 93.1927 113.526 93.356 113.311 93.496C113.096 93.6313 112.865 93.7433 112.618 93.832C112.375 93.9207 112.123 93.986 111.862 94.028C111.601 94.0747 111.342 94.098 111.085 94.098C110.595 94.098 110.142 94.0163 109.727 93.853C109.316 93.685 108.959 93.4423 108.656 93.125C108.357 92.803 108.124 92.4063 107.956 91.935C107.788 91.4637 107.704 90.9223 107.704 90.311C107.704 89.8163 107.779 89.3543 107.928 88.925C108.082 88.4957 108.301 88.1247 108.586 87.812C108.871 87.4947 109.218 87.2473 109.629 87.07C110.04 86.888 110.502 86.797 111.015 86.797C111.44 86.797 111.832 86.8693 112.191 87.014C112.555 87.154 112.868 87.3593 113.129 87.63C113.395 87.896 113.603 88.2273 113.752 88.624C113.901 89.016 113.976 89.464 113.976 89.968C113.976 90.164 113.955 90.2947 113.913 90.36C113.871 90.4253 113.792 90.458 113.675 90.458H108.936C108.95 90.906 109.011 91.2957 109.118 91.627C109.23 91.9583 109.384 92.236 109.58 92.46C109.776 92.6793 110.009 92.845 110.28 92.957C110.551 93.0643 110.854 93.118 111.19 93.118C111.503 93.118 111.771 93.083 111.995 93.013C112.224 92.9383 112.42 92.859 112.583 92.775C112.746 92.691 112.882 92.614 112.989 92.544C113.101 92.4693 113.197 92.432 113.276 92.432C113.379 92.432 113.458 92.4717 113.514 92.551L113.864 93.006ZM120.405 86.909V94H119.159V86.909H120.405ZM120.671 84.683C120.671 84.8043 120.645 84.9187 120.594 85.026C120.547 85.1287 120.482 85.222 120.398 85.306C120.318 85.3853 120.223 85.4483 120.111 85.495C120.003 85.5417 119.889 85.565 119.768 85.565C119.646 85.565 119.532 85.5417 119.425 85.495C119.322 85.4483 119.231 85.3853 119.152 85.306C119.072 85.222 119.009 85.1287 118.963 85.026C118.916 84.9187 118.893 84.8043 118.893 84.683C118.893 84.5617 118.916 84.4473 118.963 84.34C119.009 84.228 119.072 84.1323 119.152 84.053C119.231 83.969 119.322 83.9037 119.425 83.857C119.532 83.8103 119.646 83.787 119.768 83.787C119.889 83.787 120.003 83.8103 120.111 83.857C120.223 83.9037 120.318 83.969 120.398 84.053C120.482 84.1323 120.547 84.228 120.594 84.34C120.645 84.4473 120.671 84.5617 120.671 84.683ZM123.628 87.938C123.782 87.7653 123.945 87.609 124.118 87.469C124.291 87.329 124.473 87.21 124.664 87.112C124.86 87.0093 125.065 86.9323 125.28 86.881C125.499 86.825 125.735 86.797 125.987 86.797C126.374 86.797 126.715 86.8623 127.009 86.993C127.308 87.119 127.555 87.301 127.751 87.539C127.952 87.7723 128.103 88.0547 128.206 88.386C128.309 88.7173 128.36 89.0837 128.36 89.485V94H127.107V89.485C127.107 88.9483 126.983 88.533 126.736 88.239C126.493 87.9403 126.122 87.791 125.623 87.791C125.254 87.791 124.909 87.8797 124.587 88.057C124.27 88.2343 123.976 88.4747 123.705 88.778V94H122.452V86.909H123.201C123.378 86.909 123.488 86.9953 123.53 87.168L123.628 87.938ZM134.388 88.078C134.332 88.1807 134.246 88.232 134.129 88.232C134.059 88.232 133.98 88.2063 133.891 88.155C133.803 88.1037 133.693 88.0477 133.562 87.987C133.436 87.9217 133.285 87.8633 133.107 87.812C132.93 87.756 132.72 87.728 132.477 87.728C132.267 87.728 132.078 87.756 131.91 87.812C131.742 87.8633 131.598 87.9357 131.476 88.029C131.36 88.1223 131.269 88.232 131.203 88.358C131.143 88.4793 131.112 88.6123 131.112 88.757C131.112 88.939 131.164 89.0907 131.266 89.212C131.374 89.3333 131.514 89.4383 131.686 89.527C131.859 89.6157 132.055 89.695 132.274 89.765C132.494 89.8303 132.718 89.9027 132.946 89.982C133.18 90.0567 133.406 90.1407 133.625 90.234C133.845 90.3273 134.041 90.444 134.213 90.584C134.386 90.724 134.524 90.8967 134.626 91.102C134.734 91.3027 134.787 91.5453 134.787 91.83C134.787 92.1567 134.729 92.46 134.612 92.74C134.496 93.0153 134.323 93.2557 134.094 93.461C133.866 93.6617 133.586 93.8203 133.254 93.937C132.923 94.0537 132.54 94.112 132.106 94.112C131.612 94.112 131.164 94.0327 130.762 93.874C130.361 93.7107 130.02 93.503 129.74 93.251L130.034 92.775C130.072 92.7143 130.116 92.6677 130.167 92.635C130.219 92.6023 130.284 92.586 130.363 92.586C130.447 92.586 130.536 92.6187 130.629 92.684C130.723 92.7493 130.835 92.8217 130.965 92.901C131.101 92.9803 131.264 93.0527 131.455 93.118C131.647 93.1833 131.885 93.216 132.169 93.216C132.412 93.216 132.624 93.1857 132.806 93.125C132.988 93.0597 133.14 92.9733 133.261 92.866C133.383 92.7587 133.471 92.635 133.527 92.495C133.588 92.355 133.618 92.2057 133.618 92.047C133.618 91.851 133.565 91.69 133.457 91.564C133.355 91.4333 133.217 91.3237 133.044 91.235C132.872 91.1417 132.673 91.0623 132.449 90.997C132.23 90.927 132.004 90.8547 131.77 90.78C131.542 90.7053 131.315 90.6213 131.091 90.528C130.872 90.43 130.676 90.3087 130.503 90.164C130.331 90.0193 130.191 89.842 130.083 89.632C129.981 89.4173 129.929 89.1583 129.929 88.855C129.929 88.5843 129.985 88.3253 130.097 88.078C130.209 87.826 130.373 87.6067 130.587 87.42C130.802 87.2287 131.066 87.077 131.378 86.965C131.691 86.853 132.048 86.797 132.449 86.797C132.916 86.797 133.334 86.8717 133.702 87.021C134.076 87.1657 134.398 87.3663 134.668 87.623L134.388 88.078ZM137.631 86.909V94H136.385V86.909H137.631ZM137.897 84.683C137.897 84.8043 137.871 84.9187 137.82 85.026C137.773 85.1287 137.708 85.222 137.624 85.306C137.545 85.3853 137.449 85.4483 137.337 85.495C137.23 85.5417 137.115 85.565 136.994 85.565C136.873 85.565 136.758 85.5417 136.651 85.495C136.548 85.4483 136.457 85.3853 136.378 85.306C136.299 85.222 136.236 85.1287 136.189 85.026C136.142 84.9187 136.119 84.8043 136.119 84.683C136.119 84.5617 136.142 84.4473 136.189 84.34C136.236 84.228 136.299 84.1323 136.378 84.053C136.457 83.969 136.548 83.9037 136.651 83.857C136.758 83.8103 136.873 83.787 136.994 83.787C137.115 83.787 137.23 83.8103 137.337 83.857C137.449 83.9037 137.545 83.969 137.624 84.053C137.708 84.1323 137.773 84.228 137.82 84.34C137.871 84.4473 137.897 84.5617 137.897 84.683ZM142.149 90.535C142.401 90.535 142.623 90.5 142.814 90.43C143.006 90.36 143.167 90.262 143.297 90.136C143.428 90.01 143.526 89.8607 143.591 89.688C143.657 89.5107 143.689 89.317 143.689 89.107C143.689 88.673 143.556 88.3277 143.29 88.071C143.029 87.8143 142.649 87.686 142.149 87.686C141.645 87.686 141.26 87.8143 140.994 88.071C140.733 88.3277 140.602 88.673 140.602 89.107C140.602 89.317 140.635 89.5107 140.7 89.688C140.77 89.8607 140.871 90.01 141.001 90.136C141.132 90.262 141.293 90.36 141.484 90.43C141.676 90.5 141.897 90.535 142.149 90.535ZM144.396 94.385C144.396 94.2123 144.347 94.0723 144.249 93.965C144.151 93.8577 144.018 93.7737 143.85 93.713C143.687 93.6523 143.496 93.6103 143.276 93.587C143.057 93.559 142.824 93.538 142.576 93.524C142.334 93.51 142.086 93.496 141.834 93.482C141.582 93.468 141.34 93.4447 141.106 93.412C140.845 93.5333 140.63 93.6873 140.462 93.874C140.299 94.056 140.217 94.2707 140.217 94.518C140.217 94.6767 140.257 94.8237 140.336 94.959C140.42 95.099 140.546 95.218 140.714 95.316C140.882 95.4187 141.092 95.498 141.344 95.554C141.601 95.6147 141.902 95.645 142.247 95.645C142.583 95.645 142.884 95.6147 143.15 95.554C143.416 95.4933 143.64 95.407 143.822 95.295C144.009 95.183 144.151 95.05 144.249 94.896C144.347 94.742 144.396 94.5717 144.396 94.385ZM145.663 87.189V87.651C145.663 87.805 145.565 87.903 145.369 87.945L144.564 88.05C144.723 88.358 144.802 88.6987 144.802 89.072C144.802 89.4173 144.735 89.7323 144.599 90.017C144.469 90.297 144.287 90.5373 144.053 90.738C143.82 90.9387 143.54 91.0927 143.213 91.2C142.887 91.3073 142.532 91.361 142.149 91.361C141.818 91.361 141.505 91.3213 141.211 91.242C141.062 91.3353 140.948 91.4357 140.868 91.543C140.789 91.6457 140.749 91.7507 140.749 91.858C140.749 92.026 140.817 92.1543 140.952 92.243C141.092 92.327 141.274 92.3877 141.498 92.425C141.722 92.4623 141.977 92.4857 142.261 92.495C142.551 92.5043 142.845 92.5207 143.143 92.544C143.447 92.5627 143.741 92.5977 144.025 92.649C144.315 92.7003 144.571 92.7843 144.795 92.901C145.019 93.0177 145.199 93.1787 145.334 93.384C145.474 93.5893 145.544 93.8553 145.544 94.182C145.544 94.4853 145.467 94.7793 145.313 95.064C145.164 95.3487 144.947 95.6007 144.662 95.82C144.378 96.044 144.028 96.2213 143.612 96.352C143.202 96.4873 142.737 96.555 142.219 96.555C141.701 96.555 141.249 96.5037 140.861 96.401C140.474 96.2983 140.152 96.1607 139.895 95.988C139.639 95.8153 139.445 95.6147 139.314 95.386C139.188 95.162 139.125 94.9263 139.125 94.679C139.125 94.329 139.235 94.0327 139.454 93.79C139.674 93.5473 139.975 93.3537 140.357 93.209C140.147 93.1157 139.979 92.992 139.853 92.838C139.732 92.6793 139.671 92.467 139.671 92.201C139.671 92.0983 139.69 91.9933 139.727 91.886C139.765 91.774 139.821 91.6643 139.895 91.557C139.975 91.445 140.07 91.34 140.182 91.242C140.294 91.144 140.425 91.0577 140.574 90.983C140.224 90.787 139.951 90.528 139.755 90.206C139.559 89.8793 139.461 89.5013 139.461 89.072C139.461 88.7267 139.527 88.414 139.657 88.134C139.793 87.8493 139.979 87.609 140.217 87.413C140.455 87.2123 140.738 87.0583 141.064 86.951C141.396 86.8437 141.757 86.79 142.149 86.79C142.457 86.79 142.744 86.825 143.01 86.895C143.276 86.9603 143.519 87.0583 143.738 87.189H145.663ZM148.205 87.854C148.508 87.532 148.844 87.2753 149.213 87.084C149.582 86.8927 150.006 86.797 150.487 86.797C150.874 86.797 151.215 86.8623 151.509 86.993C151.808 87.119 152.055 87.301 152.251 87.539C152.452 87.7723 152.603 88.0547 152.706 88.386C152.809 88.7173 152.86 89.0837 152.86 89.485V94H151.607V89.485C151.607 88.9483 151.483 88.533 151.236 88.239C150.993 87.9403 150.622 87.791 150.123 87.791C149.754 87.791 149.409 87.8797 149.087 88.057C148.77 88.2343 148.476 88.4747 148.205 88.778V94H146.952V83.689H148.205V87.854ZM156.84 94.112C156.28 94.112 155.848 93.9557 155.545 93.643C155.246 93.3303 155.097 92.88 155.097 92.292V87.952H154.243C154.168 87.952 154.105 87.931 154.054 87.889C154.002 87.8423 153.977 87.7723 153.977 87.679V87.182L155.139 87.035L155.426 84.844C155.44 84.774 155.47 84.718 155.517 84.676C155.568 84.6293 155.633 84.606 155.713 84.606H156.343V87.049H158.394V87.952H156.343V92.208C156.343 92.5067 156.415 92.7283 156.56 92.873C156.704 93.0177 156.891 93.09 157.12 93.09C157.25 93.09 157.362 93.0737 157.456 93.041C157.554 93.0037 157.638 92.964 157.708 92.922C157.778 92.88 157.836 92.8427 157.883 92.81C157.934 92.7727 157.978 92.754 158.016 92.754C158.081 92.754 158.139 92.7937 158.191 92.873L158.555 93.468C158.34 93.6687 158.081 93.8273 157.778 93.944C157.474 94.056 157.162 94.112 156.84 94.112ZM163.81 88.078C163.754 88.1807 163.668 88.232 163.551 88.232C163.481 88.232 163.402 88.2063 163.313 88.155C163.225 88.1037 163.115 88.0477 162.984 87.987C162.858 87.9217 162.707 87.8633 162.529 87.812C162.352 87.756 162.142 87.728 161.899 87.728C161.689 87.728 161.5 87.756 161.332 87.812C161.164 87.8633 161.02 87.9357 160.898 88.029C160.782 88.1223 160.691 88.232 160.625 88.358C160.565 88.4793 160.534 88.6123 160.534 88.757C160.534 88.939 160.586 89.0907 160.688 89.212C160.796 89.3333 160.936 89.4383 161.108 89.527C161.281 89.6157 161.477 89.695 161.696 89.765C161.916 89.8303 162.14 89.9027 162.368 89.982C162.602 90.0567 162.828 90.1407 163.047 90.234C163.267 90.3273 163.463 90.444 163.635 90.584C163.808 90.724 163.946 90.8967 164.048 91.102C164.156 91.3027 164.209 91.5453 164.209 91.83C164.209 92.1567 164.151 92.46 164.034 92.74C163.918 93.0153 163.745 93.2557 163.516 93.461C163.288 93.6617 163.008 93.8203 162.676 93.937C162.345 94.0537 161.962 94.112 161.528 94.112C161.034 94.112 160.586 94.0327 160.184 93.874C159.783 93.7107 159.442 93.503 159.162 93.251L159.456 92.775C159.494 92.7143 159.538 92.6677 159.589 92.635C159.641 92.6023 159.706 92.586 159.785 92.586C159.869 92.586 159.958 92.6187 160.051 92.684C160.145 92.7493 160.257 92.8217 160.387 92.901C160.523 92.9803 160.686 93.0527 160.877 93.118C161.069 93.1833 161.307 93.216 161.591 93.216C161.834 93.216 162.046 93.1857 162.228 93.125C162.41 93.0597 162.562 92.9733 162.683 92.866C162.805 92.7587 162.893 92.635 162.949 92.495C163.01 92.355 163.04 92.2057 163.04 92.047C163.04 91.851 162.987 91.69 162.879 91.564C162.777 91.4333 162.639 91.3237 162.466 91.235C162.294 91.1417 162.095 91.0623 161.871 90.997C161.652 90.927 161.426 90.8547 161.192 90.78C160.964 90.7053 160.737 90.6213 160.513 90.528C160.294 90.43 160.098 90.3087 159.925 90.164C159.753 90.0193 159.613 89.842 159.505 89.632C159.403 89.4173 159.351 89.1583 159.351 88.855C159.351 88.5843 159.407 88.3253 159.519 88.078C159.631 87.826 159.795 87.6067 160.009 87.42C160.224 87.2287 160.488 87.077 160.8 86.965C161.113 86.853 161.47 86.797 161.871 86.797C162.338 86.797 162.756 86.8717 163.124 87.021C163.498 87.1657 163.82 87.3663 164.09 87.623L163.81 88.078ZM171.496 94.112C170.936 94.112 170.504 93.9557 170.201 93.643C169.902 93.3303 169.753 92.88 169.753 92.292V87.952H168.899C168.824 87.952 168.761 87.931 168.71 87.889C168.659 87.8423 168.633 87.7723 168.633 87.679V87.182L169.795 87.035L170.082 84.844C170.096 84.774 170.126 84.718 170.173 84.676C170.224 84.6293 170.29 84.606 170.369 84.606H170.999V87.049H173.05V87.952H170.999V92.208C170.999 92.5067 171.071 92.7283 171.216 92.873C171.361 93.0177 171.547 93.09 171.776 93.09C171.907 93.09 172.019 93.0737 172.112 93.041C172.21 93.0037 172.294 92.964 172.364 92.922C172.434 92.88 172.492 92.8427 172.539 92.81C172.59 92.7727 172.635 92.754 172.672 92.754C172.737 92.754 172.796 92.7937 172.847 92.873L173.211 93.468C172.996 93.6687 172.737 93.8273 172.434 93.944C172.131 94.056 171.818 94.112 171.496 94.112ZM177.285 86.797C177.803 86.797 178.269 86.8833 178.685 87.056C179.1 87.2287 179.455 87.4737 179.749 87.791C180.043 88.1083 180.267 88.4933 180.421 88.946C180.579 89.394 180.659 89.8957 180.659 90.451C180.659 91.011 180.579 91.515 180.421 91.963C180.267 92.411 180.043 92.7937 179.749 93.111C179.455 93.4283 179.1 93.6733 178.685 93.846C178.269 94.014 177.803 94.098 177.285 94.098C176.762 94.098 176.291 94.014 175.871 93.846C175.455 93.6733 175.101 93.4283 174.807 93.111C174.513 92.7937 174.286 92.411 174.128 91.963C173.974 91.515 173.897 91.011 173.897 90.451C173.897 89.8957 173.974 89.394 174.128 88.946C174.286 88.4933 174.513 88.1083 174.807 87.791C175.101 87.4737 175.455 87.2287 175.871 87.056C176.291 86.8833 176.762 86.797 177.285 86.797ZM177.285 93.125C177.985 93.125 178.507 92.8917 178.853 92.425C179.198 91.9537 179.371 91.298 179.371 90.458C179.371 89.6133 179.198 88.9553 178.853 88.484C178.507 88.0127 177.985 87.777 177.285 87.777C176.93 87.777 176.62 87.8377 176.354 87.959C176.092 88.0803 175.873 88.2553 175.696 88.484C175.523 88.7127 175.392 88.995 175.304 89.331C175.22 89.6623 175.178 90.038 175.178 90.458C175.178 91.298 175.35 91.9537 175.696 92.425C176.046 92.8917 176.575 93.125 177.285 93.125ZM188.81 86.797C189.328 86.797 189.795 86.8833 190.21 87.056C190.625 87.2287 190.98 87.4737 191.274 87.791C191.568 88.1083 191.792 88.4933 191.946 88.946C192.105 89.394 192.184 89.8957 192.184 90.451C192.184 91.011 192.105 91.515 191.946 91.963C191.792 92.411 191.568 92.7937 191.274 93.111C190.98 93.4283 190.625 93.6733 190.21 93.846C189.795 94.014 189.328 94.098 188.81 94.098C188.287 94.098 187.816 94.014 187.396 93.846C186.981 93.6733 186.626 93.4283 186.332 93.111C186.038 92.7937 185.812 92.411 185.653 91.963C185.499 91.515 185.422 91.011 185.422 90.451C185.422 89.8957 185.499 89.394 185.653 88.946C185.812 88.4933 186.038 88.1083 186.332 87.791C186.626 87.4737 186.981 87.2287 187.396 87.056C187.816 86.8833 188.287 86.797 188.81 86.797ZM188.81 93.125C189.51 93.125 190.033 92.8917 190.378 92.425C190.723 91.9537 190.896 91.298 190.896 90.458C190.896 89.6133 190.723 88.9553 190.378 88.484C190.033 88.0127 189.51 87.777 188.81 87.777C188.455 87.777 188.145 87.8377 187.879 87.959C187.618 88.0803 187.398 88.2553 187.221 88.484C187.048 88.7127 186.918 88.995 186.829 89.331C186.745 89.6623 186.703 90.038 186.703 90.458C186.703 91.298 186.876 91.9537 187.221 92.425C187.571 92.8917 188.101 93.125 188.81 93.125ZM195.017 92.292C195.246 92.6 195.496 92.817 195.766 92.943C196.037 93.069 196.34 93.132 196.676 93.132C197.339 93.132 197.848 92.8963 198.202 92.425C198.557 91.9537 198.734 91.2817 198.734 90.409C198.734 89.947 198.692 89.5503 198.608 89.219C198.529 88.8877 198.412 88.617 198.258 88.407C198.104 88.1923 197.915 88.036 197.691 87.938C197.467 87.84 197.213 87.791 196.928 87.791C196.522 87.791 196.165 87.8843 195.857 88.071C195.554 88.2577 195.274 88.5213 195.017 88.862V92.292ZM194.954 88.008C195.253 87.6393 195.598 87.343 195.99 87.119C196.382 86.895 196.83 86.783 197.334 86.783C197.745 86.783 198.116 86.8623 198.447 87.021C198.779 87.175 199.061 87.406 199.294 87.714C199.528 88.0173 199.707 88.3953 199.833 88.848C199.959 89.3007 200.022 89.821 200.022 90.409C200.022 90.9317 199.952 91.4193 199.812 91.872C199.672 92.32 199.469 92.7097 199.203 93.041C198.942 93.3677 198.62 93.6267 198.237 93.818C197.859 94.0047 197.432 94.098 196.956 94.098C196.522 94.098 196.149 94.0257 195.836 93.881C195.528 93.7317 195.255 93.5263 195.017 93.265V96.401H193.764V86.909H194.513C194.691 86.909 194.8 86.9953 194.842 87.168L194.954 88.008ZM203.693 94.112C203.133 94.112 202.702 93.9557 202.398 93.643C202.1 93.3303 201.95 92.88 201.95 92.292V87.952H201.096C201.022 87.952 200.959 87.931 200.907 87.889C200.856 87.8423 200.83 87.7723 200.83 87.679V87.182L201.992 87.035L202.279 84.844C202.293 84.774 202.324 84.718 202.37 84.676C202.422 84.6293 202.487 84.606 202.566 84.606H203.196V87.049H205.247V87.952H203.196V92.208C203.196 92.5067 203.269 92.7283 203.413 92.873C203.558 93.0177 203.745 93.09 203.973 93.09C204.104 93.09 204.216 93.0737 204.309 93.041C204.407 93.0037 204.491 92.964 204.561 92.922C204.631 92.88 204.69 92.8427 204.736 92.81C204.788 92.7727 204.832 92.754 204.869 92.754C204.935 92.754 204.993 92.7937 205.044 92.873L205.408 93.468C205.194 93.6687 204.935 93.8273 204.631 93.944C204.328 94.056 204.015 94.112 203.693 94.112ZM207.85 86.909V94H206.604V86.909H207.85ZM208.116 84.683C208.116 84.8043 208.09 84.9187 208.039 85.026C207.992 85.1287 207.927 85.222 207.843 85.306C207.764 85.3853 207.668 85.4483 207.556 85.495C207.449 85.5417 207.334 85.565 207.213 85.565C207.092 85.565 206.977 85.5417 206.87 85.495C206.767 85.4483 206.676 85.3853 206.597 85.306C206.518 85.222 206.455 85.1287 206.408 85.026C206.361 84.9187 206.338 84.8043 206.338 84.683C206.338 84.5617 206.361 84.4473 206.408 84.34C206.455 84.228 206.518 84.1323 206.597 84.053C206.676 83.969 206.767 83.9037 206.87 83.857C206.977 83.8103 207.092 83.787 207.213 83.787C207.334 83.787 207.449 83.8103 207.556 83.857C207.668 83.9037 207.764 83.969 207.843 84.053C207.927 84.1323 207.992 84.228 208.039 84.34C208.09 84.4473 208.116 84.5617 208.116 84.683ZM209.897 94V86.909H210.646C210.823 86.909 210.933 86.9953 210.975 87.168L211.066 87.896C211.327 87.574 211.621 87.3103 211.948 87.105C212.275 86.8997 212.653 86.797 213.082 86.797C213.558 86.797 213.943 86.93 214.237 87.196C214.536 87.462 214.75 87.8213 214.881 88.274C214.984 88.0173 215.114 87.7957 215.273 87.609C215.436 87.4223 215.618 87.2683 215.819 87.147C216.02 87.0257 216.232 86.937 216.456 86.881C216.685 86.825 216.916 86.797 217.149 86.797C217.522 86.797 217.854 86.8577 218.143 86.979C218.437 87.0957 218.684 87.2683 218.885 87.497C219.09 87.7257 219.247 88.008 219.354 88.344C219.461 88.6753 219.515 89.0557 219.515 89.485V94H218.262V89.485C218.262 88.9297 218.141 88.5097 217.898 88.225C217.655 87.9357 217.305 87.791 216.848 87.791C216.643 87.791 216.447 87.8283 216.26 87.903C216.078 87.973 215.917 88.078 215.777 88.218C215.637 88.358 215.525 88.5353 215.441 88.75C215.362 88.96 215.322 89.205 215.322 89.485V94H214.069V89.485C214.069 88.9157 213.955 88.491 213.726 88.211C213.497 87.931 213.164 87.791 212.725 87.791C212.417 87.791 212.132 87.875 211.871 88.043C211.61 88.2063 211.369 88.4303 211.15 88.715V94H209.897ZM222.725 86.909V94H221.479V86.909H222.725ZM222.991 84.683C222.991 84.8043 222.965 84.9187 222.914 85.026C222.867 85.1287 222.802 85.222 222.718 85.306C222.639 85.3853 222.543 85.4483 222.431 85.495C222.324 85.5417 222.209 85.565 222.088 85.565C221.967 85.565 221.852 85.5417 221.745 85.495C221.642 85.4483 221.551 85.3853 221.472 85.306C221.393 85.222 221.33 85.1287 221.283 85.026C221.236 84.9187 221.213 84.8043 221.213 84.683C221.213 84.5617 221.236 84.4473 221.283 84.34C221.33 84.228 221.393 84.1323 221.472 84.053C221.551 83.969 221.642 83.9037 221.745 83.857C221.852 83.8103 221.967 83.787 222.088 83.787C222.209 83.787 222.324 83.8103 222.431 83.857C222.543 83.9037 222.639 83.969 222.718 84.053C222.802 84.1323 222.867 84.228 222.914 84.34C222.965 84.4473 222.991 84.5617 222.991 84.683ZM229.665 87.441C229.665 87.5297 229.649 87.616 229.616 87.7C229.588 87.784 229.548 87.8563 229.497 87.917L225.654 93.027H229.532V94H224.191V93.482C224.191 93.4213 224.205 93.3513 224.233 93.272C224.261 93.188 224.303 93.1087 224.359 93.034L228.223 87.889H224.408V86.909H229.665V87.441ZM235.712 89.681C235.712 89.3917 235.67 89.128 235.586 88.89C235.506 88.6473 235.387 88.4397 235.229 88.267C235.075 88.0897 234.886 87.9543 234.662 87.861C234.438 87.763 234.183 87.714 233.899 87.714C233.301 87.714 232.828 87.889 232.478 88.239C232.132 88.5843 231.918 89.065 231.834 89.681H235.712ZM236.72 93.006C236.566 93.1927 236.381 93.356 236.167 93.496C235.952 93.6313 235.721 93.7433 235.474 93.832C235.231 93.9207 234.979 93.986 234.718 94.028C234.456 94.0747 234.197 94.098 233.941 94.098C233.451 94.098 232.998 94.0163 232.583 93.853C232.172 93.685 231.815 93.4423 231.512 93.125C231.213 92.803 230.98 92.4063 230.812 91.935C230.644 91.4637 230.56 90.9223 230.56 90.311C230.56 89.8163 230.634 89.3543 230.784 88.925C230.938 88.4957 231.157 88.1247 231.442 87.812C231.726 87.4947 232.074 87.2473 232.485 87.07C232.895 86.888 233.357 86.797 233.871 86.797C234.295 86.797 234.687 86.8693 235.047 87.014C235.411 87.154 235.723 87.3593 235.985 87.63C236.251 87.896 236.458 88.2273 236.608 88.624C236.757 89.016 236.832 89.464 236.832 89.968C236.832 90.164 236.811 90.2947 236.769 90.36C236.727 90.4253 236.647 90.458 236.531 90.458H231.792C231.806 90.906 231.866 91.2957 231.974 91.627C232.086 91.9583 232.24 92.236 232.436 92.46C232.632 92.6793 232.865 92.845 233.136 92.957C233.406 93.0643 233.71 93.118 234.046 93.118C234.358 93.118 234.627 93.083 234.851 93.013C235.079 92.9383 235.275 92.859 235.439 92.775C235.602 92.691 235.737 92.614 235.845 92.544C235.957 92.4693 236.052 92.432 236.132 92.432C236.234 92.432 236.314 92.4717 236.37 92.551L236.72 93.006ZM23.105 104.909L19.15 114.093C19.108 114.186 19.0543 114.261 18.989 114.317C18.9283 114.373 18.8327 114.401 18.702 114.401H17.778L19.073 111.587L16.147 104.909H17.225C17.3323 104.909 17.4163 104.937 17.477 104.993C17.5423 105.044 17.5867 105.103 17.61 105.168L19.507 109.634C19.5817 109.83 19.6447 110.035 19.696 110.25C19.7613 110.031 19.8313 109.823 19.906 109.627L21.747 105.168C21.775 105.093 21.8217 105.033 21.887 104.986C21.957 104.935 22.034 104.909 22.118 104.909H23.105ZM27.0033 104.797C27.5213 104.797 27.988 104.883 28.4033 105.056C28.8187 105.229 29.1733 105.474 29.4673 105.791C29.7613 106.108 29.9853 106.493 30.1393 106.946C30.298 107.394 30.3773 107.896 30.3773 108.451C30.3773 109.011 30.298 109.515 30.1393 109.963C29.9853 110.411 29.7613 110.794 29.4673 111.111C29.1733 111.428 28.8187 111.673 28.4033 111.846C27.988 112.014 27.5213 112.098 27.0033 112.098C26.4807 112.098 26.0093 112.014 25.5893 111.846C25.174 111.673 24.8193 111.428 24.5253 111.111C24.2313 110.794 24.005 110.411 23.8463 109.963C23.6923 109.515 23.6153 109.011 23.6153 108.451C23.6153 107.896 23.6923 107.394 23.8463 106.946C24.005 106.493 24.2313 106.108 24.5253 105.791C24.8193 105.474 25.174 105.229 25.5893 105.056C26.0093 104.883 26.4807 104.797 27.0033 104.797ZM27.0033 111.125C27.7033 111.125 28.226 110.892 28.5713 110.425C28.9167 109.954 29.0893 109.298 29.0893 108.458C29.0893 107.613 28.9167 106.955 28.5713 106.484C28.226 106.013 27.7033 105.777 27.0033 105.777C26.6487 105.777 26.3383 105.838 26.0723 105.959C25.811 106.08 25.5917 106.255 25.4143 106.484C25.2417 106.713 25.111 106.995 25.0223 107.331C24.9383 107.662 24.8963 108.038 24.8963 108.458C24.8963 109.298 25.069 109.954 25.4143 110.425C25.7643 110.892 26.294 111.125 27.0033 111.125ZM37.7887 104.909V112H37.0467C36.8694 112 36.7574 111.914 36.7107 111.741L36.6127 110.978C36.3047 111.319 35.9594 111.594 35.5767 111.804C35.194 112.009 34.7554 112.112 34.2607 112.112C33.8734 112.112 33.5304 112.049 33.2317 111.923C32.9377 111.792 32.6904 111.61 32.4897 111.377C32.289 111.144 32.1374 110.861 32.0347 110.53C31.9367 110.199 31.8877 109.832 31.8877 109.431V104.909H33.1337V109.431C33.1337 109.968 33.255 110.383 33.4977 110.677C33.745 110.971 34.1207 111.118 34.6247 111.118C34.9934 111.118 35.3364 111.032 35.6537 110.859C35.9757 110.682 36.272 110.439 36.5427 110.131V104.909H37.7887ZM40.9473 106.33C41.1713 105.845 41.4467 105.467 41.7733 105.196C42.1 104.921 42.499 104.783 42.9703 104.783C43.1197 104.783 43.262 104.799 43.3973 104.832C43.5373 104.865 43.661 104.916 43.7683 104.986L43.6773 105.917C43.6493 106.034 43.5793 106.092 43.4673 106.092C43.402 106.092 43.3063 106.078 43.1803 106.05C43.0543 106.022 42.912 106.008 42.7533 106.008C42.5293 106.008 42.3287 106.041 42.1513 106.106C41.9787 106.171 41.8223 106.269 41.6823 106.4C41.547 106.526 41.4233 106.685 41.3113 106.876C41.204 107.063 41.106 107.277 41.0173 107.52V112H39.7643V104.909H40.4783C40.6137 104.909 40.707 104.935 40.7583 104.986C40.8097 105.037 40.8447 105.126 40.8633 105.252L40.9473 106.33ZM49.3982 110.292C49.6269 110.6 49.8765 110.817 50.1472 110.943C50.4179 111.069 50.7212 111.132 51.0572 111.132C51.7199 111.132 52.2285 110.896 52.5832 110.425C52.9379 109.954 53.1152 109.282 53.1152 108.409C53.1152 107.947 53.0732 107.55 52.9892 107.219C52.9099 106.888 52.7932 106.617 52.6392 106.407C52.4852 106.192 52.2962 106.036 52.0722 105.938C51.8482 105.84 51.5939 105.791 51.3092 105.791C50.9032 105.791 50.5462 105.884 50.2382 106.071C49.9349 106.258 49.6549 106.521 49.3982 106.862V110.292ZM49.3352 106.008C49.6339 105.639 49.9792 105.343 50.3712 105.119C50.7632 104.895 51.2112 104.783 51.7152 104.783C52.1259 104.783 52.4969 104.862 52.8282 105.021C53.1595 105.175 53.4419 105.406 53.6752 105.714C53.9085 106.017 54.0882 106.395 54.2142 106.848C54.3402 107.301 54.4032 107.821 54.4032 108.409C54.4032 108.932 54.3332 109.419 54.1932 109.872C54.0532 110.32 53.8502 110.71 53.5842 111.041C53.3229 111.368 53.0009 111.627 52.6182 111.818C52.2402 112.005 51.8132 112.098 51.3372 112.098C50.9032 112.098 50.5299 112.026 50.2172 111.881C49.9092 111.732 49.6362 111.526 49.3982 111.265V114.401H48.1452V104.909H48.8942C49.0715 104.909 49.1812 104.995 49.2232 105.168L49.3352 106.008ZM58.9819 104.797C59.4999 104.797 59.9665 104.883 60.3819 105.056C60.7972 105.229 61.1519 105.474 61.4459 105.791C61.7399 106.108 61.9639 106.493 62.1179 106.946C62.2765 107.394 62.3559 107.896 62.3559 108.451C62.3559 109.011 62.2765 109.515 62.1179 109.963C61.9639 110.411 61.7399 110.794 61.4459 111.111C61.1519 111.428 60.7972 111.673 60.3819 111.846C59.9665 112.014 59.4999 112.098 58.9819 112.098C58.4592 112.098 57.9879 112.014 57.5679 111.846C57.1525 111.673 56.7979 111.428 56.5039 111.111C56.2099 110.794 55.9835 110.411 55.8249 109.963C55.6709 109.515 55.5939 109.011 55.5939 108.451C55.5939 107.896 55.6709 107.394 55.8249 106.946C55.9835 106.493 56.2099 106.108 56.5039 105.791C56.7979 105.474 57.1525 105.229 57.5679 105.056C57.9879 104.883 58.4592 104.797 58.9819 104.797ZM58.9819 111.125C59.6819 111.125 60.2045 110.892 60.5499 110.425C60.8952 109.954 61.0679 109.298 61.0679 108.458C61.0679 107.613 60.8952 106.955 60.5499 106.484C60.2045 106.013 59.6819 105.777 58.9819 105.777C58.6272 105.777 58.3169 105.838 58.0509 105.959C57.7895 106.08 57.5702 106.255 57.3929 106.484C57.2202 106.713 57.0895 106.995 57.0009 107.331C56.9169 107.662 56.8749 108.038 56.8749 108.458C56.8749 109.298 57.0475 109.954 57.3929 110.425C57.7429 110.892 58.2725 111.125 58.9819 111.125ZM65.1192 106.33C65.3432 105.845 65.6186 105.467 65.9452 105.196C66.2719 104.921 66.6709 104.783 67.1422 104.783C67.2916 104.783 67.4339 104.799 67.5692 104.832C67.7092 104.865 67.8329 104.916 67.9402 104.986L67.8492 105.917C67.8212 106.034 67.7512 106.092 67.6392 106.092C67.5739 106.092 67.4782 106.078 67.3522 106.05C67.2262 106.022 67.0839 106.008 66.9252 106.008C66.7012 106.008 66.5006 106.041 66.3232 106.106C66.1506 106.171 65.9942 106.269 65.8542 106.4C65.7189 106.526 65.5952 106.685 65.4832 106.876C65.3759 107.063 65.2779 107.277 65.1892 107.52V112H63.9362V104.909H64.6502C64.7856 104.909 64.8789 104.935 64.9302 104.986C64.9816 105.037 65.0166 105.126 65.0352 105.252L65.1192 106.33ZM71.2128 112.112C70.6528 112.112 70.2212 111.956 69.9178 111.643C69.6192 111.33 69.4698 110.88 69.4698 110.292V105.952H68.6158C68.5412 105.952 68.4782 105.931 68.4268 105.889C68.3755 105.842 68.3498 105.772 68.3498 105.679V105.182L69.5118 105.035L69.7988 102.844C69.8128 102.774 69.8432 102.718 69.8898 102.676C69.9412 102.629 70.0065 102.606 70.0858 102.606H70.7158V105.049H72.7668V105.952H70.7158V110.208C70.7158 110.507 70.7882 110.728 70.9328 110.873C71.0775 111.018 71.2642 111.09 71.4928 111.09C71.6235 111.09 71.7355 111.074 71.8288 111.041C71.9268 111.004 72.0108 110.964 72.0808 110.922C72.1508 110.88 72.2092 110.843 72.2558 110.81C72.3072 110.773 72.3515 110.754 72.3888 110.754C72.4542 110.754 72.5125 110.794 72.5638 110.873L72.9278 111.468C72.7132 111.669 72.4542 111.827 72.1508 111.944C71.8475 112.056 71.5348 112.112 71.2128 112.112ZM74.5154 112V105.973L73.7314 105.882C73.6334 105.859 73.5517 105.824 73.4864 105.777C73.4257 105.726 73.3954 105.653 73.3954 105.56V105.049H74.5154V104.363C74.5154 103.957 74.5714 103.598 74.6834 103.285C74.8001 102.968 74.9634 102.702 75.1734 102.487C75.3881 102.268 75.6447 102.102 75.9434 101.99C76.2421 101.878 76.5781 101.822 76.9514 101.822C77.2687 101.822 77.5604 101.869 77.8264 101.962L77.7984 102.585C77.7891 102.697 77.7261 102.758 77.6094 102.767C77.4974 102.776 77.3457 102.781 77.1544 102.781C76.9397 102.781 76.7437 102.809 76.5664 102.865C76.3937 102.921 76.2444 103.012 76.1184 103.138C75.9924 103.264 75.8944 103.43 75.8244 103.635C75.7591 103.84 75.7264 104.095 75.7264 104.398V105.049H77.7704V105.952H75.7684V112H74.5154ZM81.7182 104.797C82.2362 104.797 82.7029 104.883 83.1182 105.056C83.5335 105.229 83.8882 105.474 84.1822 105.791C84.4762 106.108 84.7002 106.493 84.8542 106.946C85.0129 107.394 85.0922 107.896 85.0922 108.451C85.0922 109.011 85.0129 109.515 84.8542 109.963C84.7002 110.411 84.4762 110.794 84.1822 111.111C83.8882 111.428 83.5335 111.673 83.1182 111.846C82.7029 112.014 82.2362 112.098 81.7182 112.098C81.1955 112.098 80.7242 112.014 80.3042 111.846C79.8889 111.673 79.5342 111.428 79.2402 111.111C78.9462 110.794 78.7199 110.411 78.5612 109.963C78.4072 109.515 78.3302 109.011 78.3302 108.451C78.3302 107.896 78.4072 107.394 78.5612 106.946C78.7199 106.493 78.9462 106.108 79.2402 105.791C79.5342 105.474 79.8889 105.229 80.3042 105.056C80.7242 104.883 81.1955 104.797 81.7182 104.797ZM81.7182 111.125C82.4182 111.125 82.9409 110.892 83.2862 110.425C83.6315 109.954 83.8042 109.298 83.8042 108.458C83.8042 107.613 83.6315 106.955 83.2862 106.484C82.9409 106.013 82.4182 105.777 81.7182 105.777C81.3635 105.777 81.0532 105.838 80.7872 105.959C80.5259 106.08 80.3065 106.255 80.1292 106.484C79.9565 106.713 79.8259 106.995 79.7372 107.331C79.6532 107.662 79.6112 108.038 79.6112 108.458C79.6112 109.298 79.7839 109.954 80.1292 110.425C80.4792 110.892 81.0089 111.125 81.7182 111.125ZM87.9605 101.689V112H86.7145V101.689H87.9605ZM91.2971 104.909V112H90.0511V104.909H91.2971ZM91.5631 102.683C91.5631 102.804 91.5375 102.919 91.4861 103.026C91.4395 103.129 91.3741 103.222 91.2901 103.306C91.2108 103.385 91.1151 103.448 91.0031 103.495C90.8958 103.542 90.7815 103.565 90.6601 103.565C90.5388 103.565 90.4245 103.542 90.3171 103.495C90.2145 103.448 90.1235 103.385 90.0441 103.306C89.9648 103.222 89.9018 103.129 89.8551 103.026C89.8085 102.919 89.7851 102.804 89.7851 102.683C89.7851 102.562 89.8085 102.447 89.8551 102.34C89.9018 102.228 89.9648 102.132 90.0441 102.053C90.1235 101.969 90.2145 101.904 90.3171 101.857C90.4245 101.81 90.5388 101.787 90.6601 101.787C90.7815 101.787 90.8958 101.81 91.0031 101.857C91.1151 101.904 91.2108 101.969 91.2901 102.053C91.3741 102.132 91.4395 102.228 91.4861 102.34C91.5375 102.447 91.5631 102.562 91.5631 102.683ZM96.3334 104.797C96.8514 104.797 97.3181 104.883 97.7334 105.056C98.1488 105.229 98.5034 105.474 98.7974 105.791C99.0914 106.108 99.3154 106.493 99.4694 106.946C99.6281 107.394 99.7074 107.896 99.7074 108.451C99.7074 109.011 99.6281 109.515 99.4694 109.963C99.3154 110.411 99.0914 110.794 98.7974 111.111C98.5034 111.428 98.1488 111.673 97.7334 111.846C97.3181 112.014 96.8514 112.098 96.3334 112.098C95.8108 112.098 95.3394 112.014 94.9194 111.846C94.5041 111.673 94.1494 111.428 93.8554 111.111C93.5614 110.794 93.3351 110.411 93.1764 109.963C93.0224 109.515 92.9454 109.011 92.9454 108.451C92.9454 107.896 93.0224 107.394 93.1764 106.946C93.3351 106.493 93.5614 106.108 93.8554 105.791C94.1494 105.474 94.5041 105.229 94.9194 105.056C95.3394 104.883 95.8108 104.797 96.3334 104.797ZM96.3334 111.125C97.0334 111.125 97.5561 110.892 97.9014 110.425C98.2468 109.954 98.4194 109.298 98.4194 108.458C98.4194 107.613 98.2468 106.955 97.9014 106.484C97.5561 106.013 97.0334 105.777 96.3334 105.777C95.9788 105.777 95.6684 105.838 95.4024 105.959C95.1411 106.08 94.9218 106.255 94.7444 106.484C94.5718 106.713 94.4411 106.995 94.3524 107.331C94.2684 107.662 94.2264 108.038 94.2264 108.458C94.2264 109.298 94.3991 109.954 94.7444 110.425C95.0944 110.892 95.6241 111.125 96.3334 111.125Z" fill="#5E606A"/>
<circle opacity="0.05" cx="40" cy="40" r="24" fill="url(#paint2_linear_13028_28643)"/>
<circle opacity="0.1" cx="40" cy="40" r="18" fill="url(#paint3_linear_13028_28643)"/>
<path d="M48.3337 36.1082C48.3253 33.274 46.7253 31.6665 43.8912 31.6665H36.1087C33.2745 31.6665 31.667 33.274 31.667 36.1082V43.8915C31.667 46.7248 33.2745 48.3332 36.1087 48.3332H43.8912C46.7253 48.3332 48.3337 46.7248 48.3337 43.8915V36.1082Z" stroke="url(#paint4_linear_13028_28643)" stroke-width="1.66667"/>
<path d="M40.417 35.1082C40.1829 34.9665 39.8995 34.9665 39.6754 35.1082C39.4495 35.249 39.3254 35.5082 39.3495 35.7665V44.2582C39.392 44.6165 39.6912 44.8832 40.0412 44.8832C40.4004 44.8832 40.6995 44.6165 40.7329 44.2582V35.7665C40.7662 35.5082 40.642 35.249 40.417 35.1082Z" fill="url(#paint5_linear_13028_28643)"/>
<path d="M36.5254 37.8415C36.3004 37.6999 36.0162 37.6999 35.792 37.8415C35.5662 37.9832 35.442 38.2407 35.467 38.4999V44.2582C35.4995 44.6165 35.7995 44.8832 36.1579 44.8832C36.517 44.8832 36.8162 44.6165 36.8495 44.2582V38.4999C36.8754 38.2407 36.7495 37.9832 36.5254 37.8415Z" fill="url(#paint6_linear_13028_28643)"/>
<path d="M44.2412 40.8665C44.017 40.7249 43.7337 40.7249 43.5004 40.8665C43.2745 41.0082 43.1504 41.2574 43.1837 41.5249V44.2582C43.217 44.6165 43.5162 44.8832 43.8754 44.8832C44.2254 44.8832 44.5245 44.6165 44.567 44.2582V41.5249C44.5912 41.2574 44.467 41.0082 44.2412 40.8665Z" fill="url(#paint7_linear_13028_28643)"/>
<g clip-path="url(#clip1_13028_28643)">
<mask id="mask0_13028_28643" style="mask-type:luminance" maskUnits="userSpaceOnUse" x="19" y="81" width="228" height="139">
<path d="M247 81H19V220H247V81Z" fill="white"/>
</mask>
<g mask="url(#mask0_13028_28643)">
<path d="M199.459 186.02V227.8C199.459 228.759 198.608 229.538 197.559 229.538H196.293C195.244 229.538 194.393 228.759 194.393 227.8V186.02C194.393 185.061 195.244 184.283 196.293 184.283H197.559C198.608 184.283 199.459 185.061 199.459 186.02Z" fill="#E7E7E7"/>
<path d="M199.459 162.272V178.568C199.459 179.527 198.608 180.306 197.559 180.306H196.293C195.244 180.306 194.393 179.527 194.393 178.568V162.272C194.393 161.313 195.244 160.534 196.293 160.534H197.559C198.608 160.534 199.459 161.313 199.459 162.272Z" fill="#7250B2"/>
<path d="M199.451 166.3V189H194.385V166.3H199.451Z" fill="#7250B2"/>
<path d="M220.992 168.067V227.801C220.992 228.76 220.141 229.538 219.092 229.538H217.826C216.777 229.538 215.926 228.76 215.926 227.801V168.067C215.926 167.108 216.777 166.329 217.826 166.329H219.092C220.141 166.329 220.992 167.108 220.992 168.067Z" fill="#E7E7E7"/>
<path d="M220.992 150.353V166.649C220.992 167.608 220.141 168.387 219.092 168.387H217.826C216.777 168.387 215.926 167.608 215.926 166.649V150.353C215.926 149.394 216.777 148.615 217.826 148.615H219.092C220.141 148.615 220.992 149.394 220.992 150.353Z" fill="#7250B2"/>
<path d="M220.985 159.32V183.179H215.918V159.32H220.985Z" fill="#7250B2"/>
<path d="M220.992 133.254V148.178C220.992 149.056 220.141 149.769 219.092 149.769H217.826C216.777 149.769 215.926 149.056 215.926 148.178V133.254C215.926 132.376 216.777 131.663 217.826 131.663H219.092C220.141 131.663 220.992 132.376 220.992 133.254Z" fill="url(#paint8_linear_13028_28643)"/>
<path d="M220.985 140.671V150.852H215.918V140.671H220.985Z" fill="url(#paint9_linear_13028_28643)"/>
<g opacity="0.595477">
<path d="M237.415 131.155C237.415 131.155 235.127 129.652 232.321 130.531C233.801 128.322 231.843 125.57 231.843 125.57C231.843 125.57 234.662 127.604 237.347 126.341C237.347 126.341 236 128.681 237.415 131.155Z" fill="url(#paint10_linear_13028_28643)"/>
</g>
<g opacity="0.357286">
<path d="M203.825 142.738C203.825 142.738 202.152 141.713 199.932 142.527C201.211 140.769 199.871 138.776 199.871 138.776C199.871 138.776 201.92 140.178 204.07 139.077C204.07 139.077 202.886 140.928 203.825 142.738Z" fill="url(#paint11_linear_13028_28643)"/>
</g>
<g opacity="0.439984">
<path d="M218.529 122.258C218.529 122.258 217.334 118.752 213.766 117.544C216.996 116.198 217.107 111.532 217.107 111.532C217.107 111.532 218.437 116.059 222.178 116.733C222.178 116.733 218.983 118.334 218.529 122.258Z" fill="url(#paint12_linear_13028_28643)"/>
</g>
<path d="M24.0745 186.191V200.171C24.0745 201.13 23.2231 201.909 22.1745 201.909H20.9078C19.8592 201.909 19.0078 201.13 19.0078 200.171V186.191C19.0078 185.232 19.8592 184.454 20.9078 184.454H22.1745C23.2231 184.454 24.0745 185.232 24.0745 186.191Z" fill="#E7E7E7"/>
<path d="M24.0745 168.728V185.025C24.0745 185.984 23.2231 186.762 22.1745 186.762H20.9078C19.8592 186.762 19.0078 185.984 19.0078 185.025V168.728C19.0078 167.769 19.8592 166.991 20.9078 166.991H22.1745C23.2231 166.991 24.0745 167.769 24.0745 168.728Z" fill="#7250B2"/>
<path d="M24.0667 180.865V187.348H19V180.865H24.0667Z" fill="#7250B2"/>
<path d="M45.9973 186.191V200.171C45.9973 201.13 45.1459 201.909 44.0973 201.909H42.8307C41.7821 201.909 40.9307 201.13 40.9307 200.171V186.191C40.9307 185.232 41.7821 184.454 42.8307 184.454H44.0973C45.1459 184.454 45.9973 185.232 45.9973 186.191Z" fill="#E7E7E7"/>
<path d="M45.9973 162.647V178.943C45.9973 179.902 45.1459 180.681 44.0973 180.681H42.8307C41.7821 180.681 40.9307 179.902 40.9307 178.943V162.647C40.9307 161.688 41.7821 160.909 42.8307 160.909H44.0973C45.1459 160.909 45.9973 161.688 45.9973 162.647Z" fill="#7250B2"/>
<path d="M45.9895 175.073V186.768H40.9229V175.073H45.9895Z" fill="#7250B2"/>
<path d="M67.9202 186.191V200.171C67.9202 201.13 67.0688 201.909 66.0202 201.909H64.7535C63.7049 201.909 62.8535 201.13 62.8535 200.171V186.191C62.8535 185.232 63.7049 184.454 64.7535 184.454H66.0202C67.0688 184.454 67.9202 185.232 67.9202 186.191Z" fill="#E7E7E7"/>
<path d="M67.9202 162.647V178.943C67.9202 179.902 67.0688 180.681 66.0202 180.681H64.7535C63.7049 180.681 62.8535 179.902 62.8535 178.943V162.647C62.8535 161.688 63.7049 160.909 64.7535 160.909H66.0202C67.0688 160.909 67.9202 161.688 67.9202 162.647Z" fill="#7250B2"/>
<path d="M67.9124 175.073V186.768H62.8457V175.073H67.9124Z" fill="#7250B2"/>
<path d="M155.613 186.191V200.171C155.613 201.13 154.761 201.909 153.713 201.909H152.446C151.397 201.909 150.546 201.13 150.546 200.171V186.191C150.546 185.232 151.397 184.454 152.446 184.454H153.713C154.761 184.454 155.613 185.232 155.613 186.191Z" fill="#E7E7E7"/>
<path d="M155.613 162.647V178.943C155.613 179.902 154.761 180.681 153.713 180.681H152.446C151.397 180.681 150.546 179.902 150.546 178.943V162.647C150.546 161.688 151.397 160.909 152.446 160.909H153.713C154.761 160.909 155.613 161.688 155.613 162.647Z" fill="#7250B2"/>
<path d="M155.605 175.073V186.768H150.538V175.073H155.605Z" fill="#7250B2"/>
<path d="M177.536 170.554V200.171C177.536 201.13 176.685 201.909 175.636 201.909H174.37C173.321 201.909 172.47 201.13 172.47 200.171V170.554C172.47 169.595 173.321 168.816 174.37 168.816H175.636C176.685 168.816 177.536 169.595 177.536 170.554Z" fill="#E7E7E7"/>
<path d="M177.536 146.807V163.103C177.536 164.062 176.685 164.841 175.636 164.841H174.37C173.321 164.841 172.47 164.062 172.47 163.103V146.807C172.47 145.848 173.321 145.069 174.37 145.069H175.636C176.685 145.069 177.536 145.848 177.536 146.807Z" fill="#7250B2"/>
<path d="M177.529 151.125V173.245H172.462V151.125H177.529Z" fill="#7250B2"/>
<path d="M89.844 170.554V200.171C89.844 201.13 88.9926 201.909 87.944 201.909H86.6773C85.6287 201.909 84.7773 201.13 84.7773 200.171V170.554C84.7773 169.595 85.6287 168.816 86.6773 168.816H87.944C88.9926 168.816 89.844 169.595 89.844 170.554Z" fill="#E7E7E7"/>
<path d="M89.844 146.807V163.103C89.844 164.062 88.9926 164.841 87.944 164.841H86.6773C85.6287 164.841 84.7773 164.062 84.7773 163.103V146.807C84.7773 145.848 85.6287 145.069 86.6773 145.069H87.944C88.9926 145.069 89.844 145.848 89.844 146.807Z" fill="#7250B2"/>
<path d="M89.8362 151.125V173.245H84.7695V151.125H89.8362Z" fill="#7250B2"/>
<path d="M111.767 163.604V200.171C111.767 201.13 110.915 201.909 109.867 201.909H108.6C107.552 201.909 106.7 201.13 106.7 200.171V163.604C106.7 162.645 107.552 161.866 108.6 161.866H109.867C110.915 161.866 111.767 162.645 111.767 163.604Z" fill="#E7E7E7"/>
<path d="M111.767 141.654V157.951C111.767 158.91 110.915 159.688 109.867 159.688H108.6C107.552 159.688 106.7 158.91 106.7 157.951V141.654C106.7 140.695 107.552 139.917 108.6 139.917H109.867C110.915 139.917 111.767 140.695 111.767 141.654Z" fill="#7250B2"/>
<path d="M111.759 145.972V168.092H106.692V145.972H111.759Z" fill="#7250B2"/>
<path d="M133.69 165.341V200.171C133.69 201.13 132.838 201.908 131.79 201.908H130.523C129.474 201.908 128.623 201.13 128.623 200.171V165.341C128.623 164.382 129.474 163.604 130.523 163.604H131.79C132.838 163.604 133.69 164.382 133.69 165.341Z" fill="#E7E7E7"/>
<path d="M133.69 141.994V158.291C133.69 159.25 132.838 160.028 131.79 160.028H130.523C129.474 160.028 128.623 159.25 128.623 158.291V141.994C128.623 141.035 129.474 140.257 130.523 140.257H131.79C132.838 140.257 133.69 141.035 133.69 141.994Z" fill="#7250B2"/>
<path d="M133.682 146.022V168.722H128.615V146.022H133.682Z" fill="#7250B2"/>
</g>
</g>
</g>
<defs>
<linearGradient id="paint0_linear_13028_28643" x1="104.114" y1="5.7291" x2="24.6513" y2="190.193" gradientUnits="userSpaceOnUse">
<stop stop-color="#FCFCFC"/>
<stop offset="1" stop-color="#FBFCFF"/>
</linearGradient>
<linearGradient id="paint1_linear_13028_28643" x1="151.044" y1="38" x2="126.708" y2="12.829" gradientUnits="userSpaceOnUse">
<stop stop-color="#FFA847"/>
<stop offset="1" stop-color="#9461FA"/>
</linearGradient>
<linearGradient id="paint2_linear_13028_28643" x1="57.2403" y1="40" x2="33.9717" y2="31.6287" gradientUnits="userSpaceOnUse">
<stop stop-color="#FFA847"/>
<stop offset="1" stop-color="#9461FA"/>
</linearGradient>
<linearGradient id="paint3_linear_13028_28643" x1="52.9302" y1="40" x2="35.4788" y2="33.7215" gradientUnits="userSpaceOnUse">
<stop stop-color="#FFA847"/>
<stop offset="1" stop-color="#9461FA"/>
</linearGradient>
<linearGradient id="paint4_linear_13028_28643" x1="45.9865" y1="39.9998" x2="37.9072" y2="37.0931" gradientUnits="userSpaceOnUse">
<stop stop-color="#FFA847"/>
<stop offset="1" stop-color="#9461FA"/>
</linearGradient>
<linearGradient id="paint5_linear_13028_28643" x1="43.2876" y1="39.9426" x2="38.7957" y2="38.4533" gradientUnits="userSpaceOnUse">
<stop stop-color="#FFA847"/>
<stop offset="1" stop-color="#9461FA"/>
</linearGradient>
<linearGradient id="paint6_linear_13028_28643" x1="43.2876" y1="39.9426" x2="38.7957" y2="38.4533" gradientUnits="userSpaceOnUse">
<stop stop-color="#FFA847"/>
<stop offset="1" stop-color="#9461FA"/>
</linearGradient>
<linearGradient id="paint7_linear_13028_28643" x1="43.2876" y1="39.9426" x2="38.7957" y2="38.4533" gradientUnits="userSpaceOnUse">
<stop stop-color="#FFA847"/>
<stop offset="1" stop-color="#9461FA"/>
</linearGradient>
<linearGradient id="paint8_linear_13028_28643" x1="220.279" y1="140.716" x2="217.533" y2="140.44" gradientUnits="userSpaceOnUse">
<stop stop-color="#FF7439"/>
<stop offset="1" stop-color="#FFA10D"/>
</linearGradient>
<linearGradient id="paint9_linear_13028_28643" x1="220.271" y1="145.762" x2="217.583" y2="145.28" gradientUnits="userSpaceOnUse">
<stop stop-color="#FF7439"/>
<stop offset="1" stop-color="#FFA10D"/>
</linearGradient>
<linearGradient id="paint10_linear_13028_28643" x1="236.506" y1="126.798" x2="233.409" y2="128.441" gradientUnits="userSpaceOnUse">
<stop stop-color="#FF7439"/>
<stop offset="1" stop-color="#FFA10D"/>
</linearGradient>
<linearGradient id="paint11_linear_13028_28643" x1="203.393" y1="139.468" x2="200.812" y2="140.691" gradientUnits="userSpaceOnUse">
<stop stop-color="#FF7439"/>
<stop offset="1" stop-color="#FFA10D"/>
</linearGradient>
<linearGradient id="paint12_linear_13028_28643" x1="220.959" y1="116.592" x2="216.513" y2="115.944" gradientUnits="userSpaceOnUse">
<stop stop-color="#FF7439"/>
<stop offset="1" stop-color="#FFA10D"/>
</linearGradient>
<clipPath id="clip0_13028_28643">
<rect width="260" height="200" rx="8" fill="white"/>
</clipPath>
<clipPath id="clip1_13028_28643">
<rect width="228" height="139" fill="white" transform="translate(16 111)"/>
</clipPath>
</defs>
</svg>
