<svg width="80" height="80" viewBox="0 0 80 80" fill="none" xmlns="http://www.w3.org/2000/svg">
<path d="M39.9995 72.3806C57.8832 72.3806 72.3805 57.8833 72.3805 39.9996C72.3805 22.1162 57.8832 7.61877 39.9995 7.61877C22.1161 7.61877 7.61865 22.1162 7.61865 39.9996C7.61865 57.8833 22.1161 72.3806 39.9995 72.3806Z" fill="url(#paint0_linear_3796_29302)"/>
<path d="M39.9995 71.428C57.3568 71.428 71.4278 57.357 71.4278 39.9997C71.4278 22.642 57.3568 8.57098 39.9995 8.57098C22.6418 8.57098 8.5708 22.642 8.5708 39.9997C8.5708 57.357 22.6418 71.428 39.9995 71.428Z" fill="url(#paint1_linear_3796_29302)"/>
<path opacity="0.5" d="M39.9999 10.8951C23.9236 10.8951 10.895 23.9237 10.895 40C10.895 56.076 23.9236 69.1046 39.9999 69.1046C56.0759 69.1046 69.1045 56.076 69.1045 40C69.1045 23.9237 56.0759 10.8951 39.9999 10.8951ZM39.9999 66.7046C25.257 66.7046 13.295 54.7426 13.295 40C13.295 25.2571 25.257 13.2951 39.9999 13.2951C54.7425 13.2951 66.7045 25.2571 66.7045 40C66.7045 54.7426 54.7425 66.7046 39.9999 66.7046Z" fill="url(#paint2_linear_3796_29302)"/>
<path d="M40.0002 66.6666C54.7278 66.6666 66.6668 54.7276 66.6668 40C66.6668 25.2724 54.7278 13.3333 40.0002 13.3333C25.2726 13.3333 13.3335 25.2724 13.3335 40C13.3335 54.7276 25.2726 66.6666 40.0002 66.6666Z" fill="url(#paint3_linear_3796_29302)"/>
<path d="M40 65.7713C54.233 65.7713 65.7713 54.233 65.7713 40C65.7713 25.7668 54.233 14.2285 40 14.2285C25.7668 14.2285 14.2285 25.7668 14.2285 40C14.2285 54.233 25.7668 65.7713 40 65.7713Z" fill="url(#paint4_linear_3796_29302)"/>
<path d="M57.4095 30.0946C57.2762 29.866 56.9715 29.8089 56.7428 29.9422L41.2002 39.904L28.762 31.7517C28.3239 31.466 27.7335 31.5803 27.4477 32.0184C27.162 32.4565 27.2763 33.047 27.7144 33.3327L40.2478 41.5423L40.7622 40.7423L41.0095 41.1423L57.2572 30.7422C57.4858 30.6089 57.5428 30.3232 57.4095 30.0946Z" fill="url(#paint5_linear_3796_29302)"/>
<path d="M43.4663 40.7623C43.4663 40.0383 43.1803 39.3907 42.7233 38.8957V34.667C42.7233 33.5813 41.847 32.7051 40.7613 32.7051C39.6756 32.7051 38.7993 33.5813 38.7993 34.667V38.8957C38.3423 39.3717 38.0566 40.0383 38.0566 40.7623C38.0566 42.1337 39.0663 43.2573 40.3803 43.448V62.4193C40.3803 62.629 40.552 62.8003 40.7613 62.8003C40.971 62.8003 41.1423 62.629 41.1423 62.4193V43.448C42.4566 43.2573 43.4663 42.1337 43.4663 40.7623Z" fill="url(#paint6_linear_3796_29302)"/>
<path d="M41.9047 18.0571C49.962 18.0571 57.2 21.5047 62.2667 26.9904C57.7904 19.3524 49.5047 14.2285 40 14.2285C25.7714 14.2285 14.2285 25.7714 14.2285 40C14.2285 40.9903 14.2857 41.962 14.3999 42.9143C15.7904 28.9523 27.5809 18.0571 41.9047 18.0571Z" fill="url(#paint7_linear_3796_29302)"/>
<path d="M39.9996 69.238C23.8855 69.238 10.7617 56.114 10.7617 39.9996C10.7617 23.8855 23.8855 10.7617 39.9996 10.7617C56.114 10.7617 69.238 23.8855 69.238 39.9996C69.238 56.114 56.114 69.238 39.9996 69.238ZM39.9996 10.9522C23.9808 10.9522 10.9522 23.9808 10.9522 39.9996C10.9522 56.019 23.9808 69.0473 39.9996 69.0473C56.019 69.0473 69.0473 56.019 69.0473 39.9996C69.0473 23.9808 56.019 10.9522 39.9996 10.9522Z" fill="white"/>
<path d="M40.3044 19.6185H39.6951L39.5044 14.9138H40.4951L40.3044 19.6185Z" fill="#3C2200"/>
<path d="M39.6192 18.1519C39.8668 18.1328 40.1145 18.1138 40.3622 18.0947L40.4955 14.9138H39.4858L39.6192 18.1519Z" fill="black"/>
<path d="M39.6951 60.381H40.3044L40.4951 65.0856H39.5044L39.6951 60.381Z" fill="#3C2200"/>
<path d="M60.3809 40.3053V39.6956L65.0855 39.5053V40.4956L60.3809 40.3053Z" fill="#3C2200"/>
<path d="M19.6183 39.6956V40.3053L14.9136 40.4956V39.5053L19.6183 39.6956Z" fill="#3C2200"/>
<path d="M49.9238 57.809L50.4572 57.4854L52.9712 61.4664L52.0952 61.9807L49.9238 57.809Z" fill="#3C2200"/>
<path d="M30.0754 22.1907L29.5421 22.5145L27.0278 18.5335L27.904 18.0192L30.0754 22.1907Z" fill="#3C2200"/>
<path d="M57.4854 50.457L57.809 49.9236L61.9807 52.095L61.4664 52.971L57.4854 50.457Z" fill="#3C2200"/>
<path d="M22.5138 29.5423L22.19 30.0756L18.0186 27.9042L18.5328 27.028L22.5138 29.5423Z" fill="#3C2200"/>
<path d="M57.809 30.0756L57.4854 29.5423L61.4664 27.028L61.9807 27.9042L57.809 30.0756Z" fill="#3C2200"/>
<path d="M22.19 49.9236L22.5138 50.457L18.5328 52.971L18.0186 52.095L22.19 49.9236Z" fill="#3C2200"/>
<path d="M50.4572 22.5145L49.9238 22.1907L52.0952 18.0192L52.9712 18.5335L50.4572 22.5145Z" fill="#3C2200"/>
<path d="M29.5421 57.4854L30.0754 57.809L27.904 61.9807L27.0278 61.4664L29.5421 57.4854Z" fill="#3C2200"/>
<path d="M52.0571 19.98L52.9711 18.5323L52.0951 18.0371L51.2378 19.6752C51.5238 19.7704 51.7905 19.8847 52.0571 19.98Z" fill="black"/>
<path d="M27.904 18.0192L27.0278 18.5145L28.8183 21.3335C29.0278 21.2192 29.2564 21.105 29.4659 20.9907L27.904 18.0192Z" fill="black"/>
<path opacity="0.25" d="M19.9431 32.3987C20.3431 30.4178 21.2193 28.5321 22.3621 26.8178C23.505 25.1225 24.9526 23.5987 26.5907 22.3416C28.2288 21.0844 30.0764 20.094 32.0193 19.4273C33.962 18.7797 36.0193 18.4368 38.0383 18.5702C38.4193 18.5892 38.705 18.9321 38.686 19.313C38.667 19.5987 38.4763 19.8273 38.2287 19.9225C36.4383 20.5892 34.724 21.2559 33.124 22.094C31.505 22.913 29.9812 23.8654 28.5526 24.9321C27.124 26.0178 25.7907 27.2178 24.5526 28.5511C23.3145 29.8844 22.1907 31.3321 21.0669 32.894C20.8574 33.1797 20.4764 33.2368 20.1907 33.0273C19.9812 32.8749 19.8859 32.6273 19.9431 32.3987Z" fill="white"/>
<path d="M18.5333 27.028L18.0381 27.9042L19.9619 28.9137C20.1333 28.6851 20.3048 28.4756 20.4762 28.2661L18.5333 27.028Z" fill="black"/>
<path d="M39.9995 40.9533C39.8282 40.9533 39.6375 40.896 39.4852 40.801L26.6852 32.4199C26.2471 32.1342 26.1138 31.5437 26.4185 31.1056C26.7043 30.6675 27.2947 30.5342 27.7328 30.8389L40.5328 39.22C40.9708 39.5057 41.1042 40.096 40.7995 40.5343C40.6092 40.801 40.3042 40.9533 39.9995 40.9533Z" fill="#3C2200"/>
<path d="M39.9997 40.4757C39.8474 40.4757 39.695 40.3993 39.5997 40.247C39.4664 40.0183 39.5234 39.7327 39.752 39.5803L56.3997 28.9136C56.6284 28.7803 56.914 28.8374 57.0663 29.066C57.2187 29.2946 57.1423 29.5803 56.914 29.7327L40.2664 40.3993C40.171 40.4563 40.095 40.4757 39.9997 40.4757Z" fill="#3C2200"/>
<path d="M40.0001 62.0384C39.7908 62.0384 39.6191 61.8667 39.6191 61.6574V40C39.6191 39.7907 39.7908 39.619 40.0001 39.619C40.2098 39.619 40.3811 39.7907 40.3811 40V61.6574C40.3811 61.8667 40.2098 62.0384 40.0001 62.0384Z" fill="url(#paint8_linear_3796_29302)"/>
<path d="M39.9998 31.9417C38.9141 31.9417 38.0381 32.8179 38.0381 33.9036V39.999H41.9618V33.9036C41.9618 32.8179 41.0858 31.9417 39.9998 31.9417Z" fill="url(#paint9_linear_3796_29302)"/>
<path d="M39.9996 42.7043C41.4933 42.7043 42.7043 41.4933 42.7043 39.9996C42.7043 38.506 41.4933 37.295 39.9996 37.295C38.5059 37.295 37.2949 38.506 37.2949 39.9996C37.2949 41.4933 38.5059 42.7043 39.9996 42.7043Z" fill="url(#paint10_linear_3796_29302)"/>
<path d="M37.5619 26.8379C37.5619 26.7427 37.6192 26.6474 37.6762 26.5713C37.7145 26.5332 37.7525 26.4951 37.8095 26.476C37.8669 26.457 37.9239 26.4379 37.9812 26.4379C38.0382 26.4379 38.1145 26.457 38.1715 26.476C38.2285 26.4951 38.2669 26.5332 38.3049 26.5713C38.3429 26.6094 38.3619 26.6474 38.3812 26.7046C38.4002 26.7427 38.4002 26.7998 38.4192 26.857H37.5619V26.8379ZM38.6859 26.2855C38.5145 26.0951 38.2859 26.0189 38.0002 26.0189C37.8859 26.0189 37.7525 26.0379 37.6382 26.0951C37.5239 26.1522 37.4285 26.2094 37.3335 26.3046C37.2382 26.3998 37.1812 26.5141 37.1239 26.6284C37.0669 26.7617 37.0479 26.9141 37.0479 27.0665C37.0479 27.2189 37.0669 27.3713 37.1239 27.5236C37.1812 27.657 37.2382 27.7713 37.3335 27.8665C37.4285 27.9617 37.5239 28.0379 37.6572 28.076C37.7715 28.1332 37.9049 28.1522 38.0382 28.1522C38.1525 28.1522 38.2479 28.1332 38.3619 28.0951C38.4572 28.057 38.5335 28.0189 38.6095 27.9617C38.6859 27.9046 38.7429 27.8474 38.8002 27.7522C38.8572 27.676 38.8952 27.5998 38.9145 27.5046L38.4762 27.3713C38.4382 27.4474 38.4002 27.5236 38.3239 27.5998C38.2479 27.657 38.1525 27.676 38.0382 27.676C37.9812 27.676 37.9049 27.657 37.8479 27.6379C37.7905 27.6189 37.7335 27.5808 37.6952 27.5427C37.6572 27.5046 37.6192 27.4474 37.6002 27.3903C37.5812 27.3332 37.5619 27.276 37.5619 27.1998H38.9335C38.9335 27.1998 38.9335 27.1808 38.9335 27.1427C38.9335 27.1046 38.9335 27.0665 38.9335 27.0284C38.9335 26.7236 38.8572 26.476 38.6859 26.2855Z" fill="url(#paint11_linear_3796_29302)"/>
<path d="M36.7045 27.0862C36.5902 26.9719 36.4379 26.8957 36.2282 26.8576L35.9235 26.7814C35.8665 26.7814 35.8282 26.7434 35.7902 26.7243C35.7522 26.6862 35.7332 26.6481 35.7332 26.61C35.7332 26.5529 35.7712 26.4957 35.8092 26.4767C35.8665 26.4386 35.9235 26.4195 35.9999 26.4195C36.0569 26.4195 36.0949 26.4195 36.1522 26.4386C36.1902 26.4576 36.2282 26.4767 36.2475 26.4957C36.2665 26.5148 36.2855 26.5529 36.3045 26.5719C36.3235 26.61 36.3235 26.6291 36.3235 26.6672H36.3425L36.7999 26.5719C36.7999 26.5148 36.7809 26.4386 36.7425 26.3814C36.7045 26.3053 36.6665 26.2481 36.5902 26.191C36.5142 26.1338 36.4379 26.0767 36.3425 26.0386C36.2282 26.0005 36.0949 25.9814 35.9615 25.9814C35.8475 25.9814 35.7522 26.0005 35.6379 26.0386C35.5425 26.0767 35.4665 26.1148 35.3902 26.1719C35.3142 26.2291 35.2569 26.3053 35.2189 26.3814C35.1809 26.4576 35.1615 26.5529 35.1615 26.6291C35.1615 26.7624 35.2189 26.8957 35.2949 27.01C35.3902 27.1243 35.5425 27.2005 35.7522 27.2386L36.0189 27.2957C36.1142 27.3148 36.1522 27.3338 36.1902 27.3719C36.2282 27.41 36.2475 27.4481 36.2475 27.4862C36.2475 27.5434 36.2282 27.5815 36.1902 27.6195C36.1522 27.6576 36.0759 27.6767 35.9809 27.6767C35.8665 27.6767 35.7712 27.6386 35.7142 27.5815C35.6569 27.5243 35.6189 27.4481 35.6189 27.3719H35.5999L35.1235 27.4672C35.1235 27.5434 35.1615 27.6005 35.1809 27.6576C35.2189 27.7338 35.2759 27.81 35.3332 27.8672C35.4092 27.9434 35.5045 27.9815 35.5999 28.0195C35.7142 28.0576 35.8475 28.0767 35.9999 28.0767C36.1142 28.0767 36.2475 28.0576 36.3615 28.0195C36.4569 27.9815 36.5522 27.9434 36.6092 27.8672C36.7425 27.7529 36.8189 27.5815 36.8189 27.41C36.8569 27.3338 36.7999 27.2005 36.7045 27.0862Z" fill="url(#paint12_linear_3796_29302)"/>
<path d="M42.7812 27.0862C42.6669 26.9719 42.5145 26.8957 42.3049 26.8576L42.0002 26.7814C41.9432 26.7814 41.9049 26.7434 41.8669 26.7243C41.8289 26.6862 41.8099 26.6481 41.8099 26.61C41.8099 26.5529 41.8479 26.4957 41.8859 26.4767C41.9432 26.4386 42.0002 26.4195 42.0765 26.4195C42.1335 26.4195 42.1715 26.4195 42.2289 26.4386C42.2669 26.4576 42.3049 26.4767 42.3239 26.4957C42.3432 26.5148 42.3622 26.5529 42.3812 26.5719C42.4002 26.61 42.4002 26.6291 42.4002 26.6672H42.4192L42.8765 26.5719C42.8765 26.5148 42.8572 26.4386 42.8192 26.3814C42.7812 26.3053 42.7432 26.2481 42.6669 26.191C42.5905 26.1338 42.5145 26.0767 42.4192 26.0386C42.3049 26.0005 42.1715 25.9814 42.0382 25.9814C41.9239 25.9814 41.8289 26.0005 41.7145 26.0386C41.6192 26.0767 41.5432 26.1148 41.4669 26.1719C41.3905 26.2291 41.3335 26.3053 41.2955 26.3814C41.2575 26.4576 41.2382 26.5529 41.2382 26.6291C41.2382 26.7624 41.2955 26.8957 41.3715 27.01C41.4669 27.1243 41.6192 27.2005 41.8289 27.2386L42.0955 27.2957C42.1905 27.3148 42.2289 27.3338 42.2669 27.3719C42.3049 27.41 42.3239 27.4481 42.3239 27.4862C42.3239 27.5434 42.3049 27.5815 42.2669 27.6195C42.2289 27.6576 42.1525 27.6767 42.0572 27.6767C41.9432 27.6767 41.8479 27.6386 41.7905 27.5815C41.7335 27.5243 41.6955 27.4481 41.6955 27.3719H41.6765L41.2002 27.4672C41.2002 27.5434 41.2382 27.6005 41.2575 27.6576C41.2955 27.7338 41.3525 27.81 41.4099 27.8672C41.4859 27.9434 41.5812 27.9815 41.6765 28.0195C41.7905 28.0576 41.9239 28.0767 42.0765 28.0767C42.1905 28.0767 42.3239 28.0576 42.4382 28.0195C42.5335 27.9815 42.6289 27.9434 42.6859 27.8672C42.8192 27.7529 42.8955 27.5815 42.8955 27.41C42.9335 27.3338 42.8765 27.2005 42.7812 27.0862Z" fill="url(#paint13_linear_3796_29302)"/>
<path d="M44.3429 27.2379C44.3429 27.3141 44.3239 27.3903 44.3049 27.4665C44.2859 27.5236 44.2475 27.5617 44.2095 27.5998C44.1715 27.6379 44.1335 27.657 44.0762 27.676C44.0192 27.6951 43.9809 27.6951 43.9239 27.6951C43.8475 27.6951 43.7715 27.676 43.7335 27.6189C43.6952 27.5808 43.6762 27.5236 43.6762 27.4665C43.6762 27.3903 43.6952 27.3332 43.7525 27.2951C43.7905 27.257 43.8669 27.2189 43.9239 27.2189L44.3429 27.1427V27.257V27.2379ZM44.8382 28.1141V26.7808C44.8382 26.6855 44.8192 26.5903 44.8002 26.4951C44.7809 26.3998 44.7239 26.3236 44.6669 26.2475C44.5905 26.1713 44.5142 26.1141 44.4192 26.076C44.3049 26.0379 44.1715 26.0189 44.0382 26.0189C43.9239 26.0189 43.8095 26.0379 43.6952 26.076C43.6002 26.1141 43.5239 26.1713 43.4475 26.2284C43.3905 26.2855 43.3335 26.3617 43.2952 26.4379C43.2762 26.4951 43.2572 26.5332 43.2382 26.5903L43.6952 26.6855C43.7142 26.6284 43.7335 26.5903 43.7715 26.5522C43.8285 26.4951 43.9239 26.457 44.0382 26.457C44.1525 26.457 44.2285 26.476 44.2859 26.5332C44.3429 26.5903 44.3619 26.6475 44.3619 26.7236C44.3619 26.7617 44.3429 26.7808 44.3239 26.8189C44.2859 26.857 44.2475 26.876 44.2095 26.876L43.7525 26.9522C43.6762 26.9713 43.6002 26.9903 43.5239 27.0094C43.4669 27.0474 43.3905 27.0855 43.3525 27.1236C43.2952 27.1808 43.2572 27.2379 43.2382 27.3141C43.2002 27.3903 43.2002 27.4665 43.2002 27.5427C43.2002 27.6189 43.2192 27.6951 43.2382 27.7713C43.2762 27.8474 43.3142 27.9046 43.3715 27.9617C43.4285 28.0189 43.5049 28.057 43.5809 28.0951C43.6572 28.1332 43.7525 28.1522 43.8475 28.1522C44.1715 28.1522 44.3619 27.9617 44.4002 27.8665V28.1332L44.8382 28.1141Z" fill="url(#paint14_linear_3796_29302)"/>
<path d="M40.9706 26.5143C40.9516 26.4191 40.8946 26.3238 40.8373 26.2476C40.7803 26.1714 40.704 26.1143 40.609 26.0762C40.5136 26.0381 40.3993 26 40.285 26.0191C40.1706 26.0191 40.0566 26.0381 39.9613 26.0953C39.904 26.1333 39.828 26.1714 39.79 26.2095V26.0572H39.2373V28.1143H39.79V26.6857C39.809 26.6667 39.9233 26.5143 40.1136 26.5143C40.247 26.5143 40.3423 26.5524 40.3993 26.6286C40.4566 26.7048 40.4946 26.8191 40.4946 26.9143V28.0952H41.047V26.8C41.028 26.7238 41.009 26.6095 40.9706 26.5143Z" fill="url(#paint15_linear_3796_29302)"/>
<defs>
<linearGradient id="paint0_linear_3796_29302" x1="47.4525" y1="58.24" x2="25.7383" y2="5.09701" gradientUnits="userSpaceOnUse">
<stop stop-color="#8EA5A8"/>
<stop offset="1" stop-color="#CFDCDE"/>
</linearGradient>
<linearGradient id="paint1_linear_3796_29302" x1="20.853" y1="-12.4347" x2="83.5198" y2="159.184" gradientUnits="userSpaceOnUse">
<stop stop-color="white"/>
<stop offset="1" stop-color="#A9BCBE"/>
</linearGradient>
<linearGradient id="paint2_linear_3796_29302" x1="12.2759" y1="-10.8781" x2="58.4982" y2="73.9473" gradientUnits="userSpaceOnUse">
<stop stop-color="#8EA5A8"/>
<stop offset="1" stop-color="#DEE7E8"/>
</linearGradient>
<linearGradient id="paint3_linear_3796_29302" x1="60.9295" y1="139.166" x2="36.9272" y2="25.44" gradientUnits="userSpaceOnUse">
<stop stop-color="white"/>
<stop offset="1" stop-color="#A9BCBE"/>
</linearGradient>
<linearGradient id="paint4_linear_3796_29302" x1="37.0593" y1="34.689" x2="62.583" y2="80.7843" gradientUnits="userSpaceOnUse">
<stop stop-color="white"/>
<stop offset="1" stop-color="#CFDCDE"/>
</linearGradient>
<linearGradient id="paint5_linear_3796_29302" x1="53.5172" y1="50.9933" x2="35.0705" y2="18.7435" gradientUnits="userSpaceOnUse">
<stop stop-color="#A9BCBE" stop-opacity="0"/>
<stop offset="1" stop-color="#8EA5A8"/>
</linearGradient>
<linearGradient id="paint6_linear_3796_29302" x1="57.5706" y1="54.1657" x2="4.14207" y2="33.594" gradientUnits="userSpaceOnUse">
<stop stop-color="#A9BCBE" stop-opacity="0"/>
<stop offset="1" stop-color="#8EA5A8"/>
</linearGradient>
<linearGradient id="paint7_linear_3796_29302" x1="39.2837" y1="37.077" x2="21.7598" y2="-1.5897" gradientUnits="userSpaceOnUse">
<stop stop-color="#A9BCBE" stop-opacity="0"/>
<stop offset="1" stop-color="#8EA5A8"/>
</linearGradient>
<linearGradient id="paint8_linear_3796_29302" x1="45.1018" y1="58.866" x2="34.8981" y2="42.7864" gradientUnits="userSpaceOnUse">
<stop stop-color="#FF9214"/>
<stop offset="1" stop-color="#FF9D00"/>
</linearGradient>
<linearGradient id="paint9_linear_3796_29302" x1="40.0001" y1="35.0476" x2="40.0001" y2="41.311" gradientUnits="userSpaceOnUse">
<stop stop-color="#FF9D00"/>
<stop offset="1" stop-color="#A3541E"/>
</linearGradient>
<linearGradient id="paint10_linear_3796_29302" x1="42.7889" y1="44.3953" x2="38.0543" y2="36.9336" gradientUnits="userSpaceOnUse">
<stop stop-color="#FF9214"/>
<stop offset="1" stop-color="#FF9D00"/>
</linearGradient>
<linearGradient id="paint11_linear_3796_29302" x1="33.0241" y1="24.6805" x2="48.5479" y2="32.1091" gradientUnits="userSpaceOnUse">
<stop stop-color="#BBCACC"/>
<stop offset="0.4708" stop-color="#939FA1" stop-opacity="0.75"/>
<stop offset="1" stop-color="#CFDCDE"/>
</linearGradient>
<linearGradient id="paint12_linear_3796_29302" x1="32.6519" y1="25.4583" x2="48.1755" y2="32.8869" gradientUnits="userSpaceOnUse">
<stop stop-color="#BBCACC"/>
<stop offset="0.4708" stop-color="#939FA1" stop-opacity="0.75"/>
<stop offset="1" stop-color="#CFDCDE"/>
</linearGradient>
<linearGradient id="paint13_linear_3796_29302" x1="33.7845" y1="23.0922" x2="49.3085" y2="30.5207" gradientUnits="userSpaceOnUse">
<stop stop-color="#BBCACC"/>
<stop offset="0.4708" stop-color="#939FA1" stop-opacity="0.75"/>
<stop offset="1" stop-color="#CFDCDE"/>
</linearGradient>
<linearGradient id="paint14_linear_3796_29302" x1="34.1315" y1="22.3662" x2="49.6552" y2="29.7948" gradientUnits="userSpaceOnUse">
<stop stop-color="#BBCACC"/>
<stop offset="0.4708" stop-color="#939FA1" stop-opacity="0.75"/>
<stop offset="1" stop-color="#CFDCDE"/>
</linearGradient>
<linearGradient id="paint15_linear_3796_29302" x1="33.3666" y1="23.9632" x2="48.8903" y2="31.3918" gradientUnits="userSpaceOnUse">
<stop stop-color="#BBCACC"/>
<stop offset="0.4708" stop-color="#939FA1" stop-opacity="0.75"/>
<stop offset="1" stop-color="#CFDCDE"/>
</linearGradient>
</defs>
</svg>
