<svg width="24" height="24" viewBox="0 0 24 24" fill="none" xmlns="http://www.w3.org/2000/svg">
    <path d="M21.5509 19.3768L14.1692 11.9797L21.5109 4.62316C22.1096 4.0229 22.1096 3.04987 21.5109 2.44995C20.9119 1.85002 19.9411 1.85002 19.3421 2.44995L12.0004 9.80653L4.65909 2.44995C4.06006 1.85002 3.08932 1.85002 2.49029 2.44995C1.89125 3.0502 1.89125 4.02323 2.49029 4.62316L9.83162 11.9797L2.44928 19.3768C1.85024 19.977 1.85024 20.9497 2.44928 21.55C2.7488 21.8501 3.14116 22 3.53385 22C3.92654 22 4.3189 21.8501 4.61841 21.55L12.0004 14.153L19.3821 21.55C19.6816 21.8501 20.074 22 20.4667 22C20.8594 22 21.2517 21.8501 21.5513 21.55C22.1496 20.95 22.1496 19.977 21.5509 19.3768Z" fill="#343434"></path>
    </svg>