<svg width="748" height="480" viewBox="0 0 748 480" fill="none" xmlns="http://www.w3.org/2000/svg">
<path opacity="0.4" d="M234.322 377.475C263.728 366.418 284.616 340.126 301.138 313.287C317.661 286.448 331.84 257.457 354.186 235.448C377.703 212.379 408.799 198.574 433.365 176.657C451.547 160.299 466.118 139.175 470.693 115.002C475.269 90.8285 468.465 63.9767 450.256 47.7904C417.974 18.9521 367.864 32.4467 327.436 47.4981L175.637 104.036C135.521 118.975 91.9296 136.913 72.2851 175.117C55.865 207.033 60.7934 247.037 78.3333 278.431C103.095 322.77 178.901 398.305 234.322 377.475Z" fill="#EAD0FF"/>
<path opacity="0.4" d="M597.647 95.3782C560.308 89.1382 522.718 103.905 489.358 121.877C455.998 139.85 423.792 161.478 387.251 170.904C348.851 180.728 308.099 176.33 269.295 184.32C240.493 190.377 212.601 203.576 193.314 225.986C174.027 248.395 165.013 280.464 174.309 308.313C190.702 357.832 251.12 374.034 302.363 382.769L494.787 415.543C545.637 424.207 601.916 431.846 645.357 403.925C681.659 380.603 700.525 335.971 701.057 292.69C701.818 231.57 668.012 107.148 597.647 95.3782Z" fill="#FFB96C"/>
<g opacity="0.5">
<path d="M319.068 195.856L318.922 196.997L438.933 212.371L439.079 211.23L319.068 195.856Z" fill="#7250B2"/>
<path d="M319.916 209.153L320.464 208.142L154.078 118.428L220.587 101.859L220.31 100.743L150.914 118.025L319.916 209.153Z" fill="#7250B2"/>
<path d="M47.73 239.64L47.3633 240.734L265.082 313.939L265.449 312.845L47.73 239.64Z" fill="#7250B2"/>
<path d="M685.133 318.802L685.955 317.993L577.637 207.114L577.536 207.069L392.327 127.025L328.415 117.658L328.25 118.797L392.083 128.152L576.977 208.08L685.133 318.802Z" fill="#7250B2"/>
<path d="M339.943 345.145L348.204 285.673L347.783 285.511L253.578 248.485L169.458 212.56L169.004 213.616L253.143 249.545L346.939 286.417L338.805 344.988L339.943 345.145Z" fill="#7250B2"/>
<path d="M333.581 345.578L334.114 344.56L258.679 305.072V243.896L181.462 309.157L45.0088 242.069L185.125 203.713L185.234 203.457L227.62 107.401L326.367 118.734L316.958 196.383L318.099 196.522L327.647 117.723L327.073 117.659L226.911 106.157L226.738 106.548L184.292 202.743L41.7734 241.765L181.631 310.525L181.916 310.281L257.531 246.377V305.771L333.581 345.578Z" fill="#7250B2"/>
<path d="M571.67 214.74L571.696 213.59L443.369 210.971L479.833 102.722L478.744 102.354L441.781 212.091L571.67 214.74Z" fill="#7250B2"/>
<path d="M734.778 284.435L735.334 283.424L589.854 203.606L495.375 118.379L494.605 119.236L589.194 204.538L734.778 284.435Z" fill="#7250B2"/>
<path d="M613.346 303.282L612.953 304.367L685.39 330.683L685.783 329.598L613.346 303.282Z" fill="#7250B2"/>
<path d="M613.008 301.92L543.547 320.233L543.84 321.349L613.301 303.036L613.008 301.92Z" fill="#7250B2"/>
<path d="M539.775 319.885L459.133 325.546L459.213 326.693L539.855 321.032L539.775 319.885Z" fill="#7250B2"/>
<path d="M384.944 238.552L385.124 238.537L560.946 224.273L560.852 223.122L385.214 237.375L331.324 205.329L330.738 206.318L384.944 238.552Z" fill="#7250B2"/>
<path d="M424.615 314.452L425.628 313.907L385.152 239.035L349.949 286.898L350.873 287.578L385.002 241.181L424.615 314.452Z" fill="#7250B2"/>
<path d="M319.396 201.772L389.167 130.629L485.624 103.089L485.313 101.984L388.559 129.603L388.454 129.712L318.574 200.968L319.396 201.772Z" fill="#7250B2"/>
<path d="M87.4795 188.984L87.2539 190.111L157.262 204.158L157.488 203.031L87.4795 188.984Z" fill="#7250B2"/>
<path d="M103.399 330.938L103.796 329.859L41.4571 306.747V236.062L92.1198 196.668L92.0072 196.292L70.8721 124.562L69.7686 124.886L90.7949 196.24L40.3086 235.502V307.548L103.399 330.938Z" fill="#7250B2"/>
<path d="M165.225 226.398L43.0938 303.327L43.7073 304.304L165.838 227.375L165.225 226.398Z" fill="#7250B2"/>
<path d="M485.58 109.174L485.25 110.275L560.681 132.952L561.011 131.85L485.58 109.174Z" fill="#7250B2"/>
<path d="M445.794 214.593L441.969 320.585L443.116 320.627L446.942 214.635L445.794 214.593Z" fill="#7250B2"/>
<path d="M262.237 319.283L308.054 188.313L306.969 187.93L261.152 318.903L262.237 319.283Z" fill="#7250B2"/>
<path d="M77.6373 119.376L76.8594 120.228L173.75 209.012L174.528 208.161L77.6373 119.376Z" fill="#7250B2"/>
<path d="M39.3942 241.617V308.19L103.952 332.122L104.988 329.325L42.3744 306.108V303.939L43.4066 305.582L98.6821 270.766L181.762 311.615L182.513 310.983L202.687 293.93L261.942 313.889L259.99 319.463L262.801 320.455L264.764 314.839L265.635 315.133L266.584 312.302L265.751 312.02L266.021 311.246L333.957 346.818L335.338 344.187L267.001 308.416L283.14 262.335L345.941 287.022L337.77 345.777L340.721 346.183L348.914 287.266L351.08 288.864L384.897 242.888L424.248 315.708L426.875 314.283L386.365 239.355L444.193 234.664L441.055 321.488L444.032 321.594L447.184 234.42L561.932 225.125L561.691 222.152L447.293 231.435L447.931 213.77L444.951 213.665L444.302 231.661L385.43 236.438L331.007 204.072L329.506 206.64L384.023 239.058L348.989 286.657L349.207 285.082L348.111 284.658L284.116 259.505L304.309 201.78L320.287 210.395L321.702 207.763L305.308 198.923L309.215 187.745L306.404 186.756L302.65 197.491L210.731 147.934L228.18 108.389L325.347 119.541L315.933 197.183L317.934 197.427L317.881 197.803L320.1 198.085L317.273 200.964L319.402 203.054L323.808 198.544L439.719 213.334L440.094 210.376L326.432 195.901L389.642 131.444L394.307 130.114L459.007 158.082L440.515 212.98L572.569 215.675L572.629 212.695L444.624 210.09L461.74 159.277L576.446 208.85L586.092 218.724L544.64 310.502L508.232 245.102L447.661 328.393L450.164 330.017L507.838 251.179L544.726 317.549L588.325 221.013L685.117 320.098L687.248 318.012L589.643 218.096L591.309 214.412L588.592 213.187L587.409 215.818L578.165 206.331L462.704 156.443L479.793 105.701L486.748 103.717L485.934 100.849L480.949 102.27L480.995 102.142L478.172 101.187L477.47 103.266L394.48 126.945L392.577 126.122L327.644 116.605L327.618 116.782L327.178 116.733L226.345 105.157L225.902 106.164L208.1 146.517L156.596 118.755L221.698 102.537L220.977 99.6426L148.395 117.71L206.891 149.253L183.62 201.975L172.443 205.035L77.5845 118.105L75.5728 120.304L169.05 205.956L48.6913 238.919L47.1449 238.404L46.7996 239.434L42.3594 240.648V236.513L93.176 197.006L92.887 196.033L91.6784 191.936L157.981 205.226L158.567 202.298L90.725 188.7L71.4929 123.427L68.6328 124.265L87.4258 188.038L86.7615 187.907L86.1797 190.831L88.3792 191.274L89.7454 195.901L39.3942 235.055V241.463L39.1953 241.52L39.3942 241.617ZM398.804 128.828L476.314 106.701L459.961 155.259L398.804 128.828ZM328.323 119.736L388.752 128.592L388.058 128.791L387.78 129.076L322.719 195.431L319.203 194.984L328.323 119.736ZM48.5974 242.038L107.307 261.809L98.502 267.353L47.5803 242.317L48.5974 242.038ZM281.354 258.411L259.584 249.864V241.926L253.204 247.327L168.971 211.36L167.8 214.101L250.651 249.481L202.038 290.566L114.21 260.986L167.087 227.684L165.499 225.155L110.576 259.757L53.7658 240.625L171.658 208.35L173.824 210.331L175.836 208.128L175.059 207.418L185.794 204.478L186.079 203.828L209.534 150.674L301.663 200.348L281.354 258.411ZM256.627 248.349V248.691L256.349 248.582L256.627 248.349ZM264.355 307.006L259.584 304.518V253.066L280.348 261.23L264.355 307.006ZM205.345 291.679L253.763 250.77L256.631 251.897V306.311L263.364 309.837L262.94 311.054L205.345 291.679ZM101.647 268.898L110.952 263.038L199.377 292.818L181.327 308.074L101.647 268.898ZM42.3744 243.083L95.5368 269.221L42.3744 302.703V243.083Z" fill="#7250B2"/>
<path d="M731.721 283.809L597.04 209.895L584.215 210.117L584.162 207.136L591.77 207.001L588.655 205.291L585.19 202.168L582.713 208.865L579.917 207.832L582.807 200.021L493.305 119.301L495.301 117.087L583.918 197.022L617.627 105.901L620.419 106.939L586.298 199.172L590.381 202.855L597.749 206.896L712.136 212.906L712.189 215.89L603.023 209.79L730.974 279.994L708.814 214.684L711.738 214.112L734.375 281.858L736.567 283.061L735.137 285.681L735.122 285.673L736.706 293.743L695.516 320.309L693.902 317.798L733.395 292.33L731.721 283.809Z" fill="#7250B2"/>
<path d="M614.149 302.601L686.96 329.073L685.943 331.881L611.792 304.917L612.025 304.274L543.192 322.424L542.438 319.538L613.665 300.756L614.149 302.601Z" fill="#7250B2"/>
<path d="M542.261 319.702L459.59 325.497L459.798 328.478L542.469 322.683L542.261 319.702Z" fill="#7250B2"/>
<path d="M484.993 108.058L484.137 110.917L561.326 134.093L562.182 131.234L484.993 108.058Z" fill="#7250B2"/>
<path d="M618.197 107.1L581.121 207.309L582.198 207.708L619.274 107.5L618.197 107.1Z" fill="#7250B2"/>
<path d="M496.988 249.744C496.988 251.931 497.636 254.069 498.849 255.888C500.062 257.706 501.787 259.124 503.805 259.961C505.822 260.798 508.042 261.017 510.184 260.59C512.326 260.163 514.294 259.11 515.838 257.564C517.382 256.017 518.434 254.047 518.86 251.902C519.286 249.757 519.067 247.533 518.232 245.513C517.396 243.492 515.981 241.765 514.165 240.55C512.349 239.335 510.214 238.687 508.03 238.687C505.102 238.687 502.293 239.852 500.222 241.925C498.152 243.999 496.988 246.812 496.988 249.744Z" fill="#7250B2"/>
<path d="M554.328 132.419C554.327 133.721 554.712 134.994 555.434 136.077C556.156 137.16 557.182 138.004 558.382 138.502C559.583 139.001 560.905 139.132 562.18 138.879C563.455 138.625 564.626 137.998 565.546 137.078C566.465 136.158 567.091 134.985 567.345 133.709C567.599 132.432 567.469 131.108 566.972 129.905C566.475 128.703 565.632 127.675 564.551 126.951C563.471 126.228 562.2 125.842 560.9 125.842C559.158 125.842 557.487 126.535 556.254 127.768C555.022 129.002 554.329 130.675 554.328 132.419Z" fill="#7250B2"/>
<path d="M618.648 309.391C620.636 304.571 618.346 299.049 613.532 297.058C608.719 295.068 603.205 297.361 601.217 302.181C599.229 307.002 601.519 312.523 606.333 314.514C611.146 316.505 616.66 314.211 618.648 309.391Z" fill="#7250B2"/>
<path d="M318.98 118.229C318.98 120.081 319.529 121.892 320.557 123.433C321.584 124.973 323.045 126.173 324.754 126.882C326.463 127.591 328.344 127.777 330.158 127.415C331.972 127.054 333.639 126.162 334.947 124.852C336.255 123.542 337.146 121.873 337.507 120.056C337.868 118.239 337.682 116.356 336.975 114.644C336.267 112.933 335.068 111.47 333.53 110.441C331.992 109.412 330.183 108.862 328.333 108.862C325.853 108.862 323.474 109.849 321.72 111.606C319.966 113.362 318.98 115.745 318.98 118.229Z" fill="#7250B2"/>
<path d="M158.896 124.639C162.431 121.099 162.431 115.358 158.896 111.818C155.36 108.278 149.628 108.278 146.093 111.818C142.557 115.358 142.557 121.099 146.093 124.639C149.628 128.179 155.36 128.179 158.896 124.639Z" fill="#7250B2"/>
<path d="M247.953 249.019C247.953 251.205 248.601 253.342 249.813 255.16C251.026 256.978 252.75 258.395 254.767 259.232C256.784 260.068 259.004 260.287 261.145 259.861C263.286 259.434 265.253 258.381 266.796 256.835C268.34 255.29 269.391 253.32 269.817 251.176C270.243 249.031 270.025 246.809 269.189 244.789C268.354 242.769 266.939 241.042 265.124 239.828C263.309 238.613 261.174 237.965 258.991 237.965C256.064 237.965 253.256 239.129 251.186 241.203C249.116 243.276 247.953 246.087 247.953 249.019Z" fill="#7250B2"/>
<path d="M328.328 345.067C328.327 347.254 328.974 349.392 330.187 351.211C331.4 353.03 333.124 354.448 335.142 355.286C337.159 356.123 339.38 356.343 341.522 355.916C343.664 355.49 345.632 354.437 347.177 352.891C348.721 351.345 349.773 349.374 350.2 347.229C350.626 345.084 350.407 342.861 349.572 340.84C348.736 338.819 347.321 337.092 345.505 335.877C343.689 334.661 341.554 334.013 339.37 334.013C336.442 334.013 333.634 335.177 331.564 337.25C329.493 339.323 328.329 342.135 328.328 345.067Z" fill="#7250B2"/>
<path d="M377.914 237.965C377.914 239.384 378.334 240.772 379.122 241.952C379.909 243.132 381.028 244.051 382.337 244.594C383.646 245.137 385.087 245.279 386.477 245.003C387.867 244.726 389.143 244.042 390.145 243.039C391.147 242.035 391.83 240.757 392.106 239.365C392.383 237.973 392.241 236.531 391.698 235.219C391.156 233.908 390.238 232.788 389.06 231.999C387.881 231.211 386.496 230.79 385.079 230.79C383.179 230.79 381.356 231.546 380.013 232.892C378.669 234.237 377.914 236.062 377.914 237.965Z" fill="#7250B2"/>
<path d="M174.148 309.845C174.148 311.311 174.583 312.744 175.396 313.963C176.209 315.181 177.365 316.131 178.717 316.692C180.07 317.253 181.558 317.4 182.994 317.114C184.429 316.828 185.748 316.122 186.783 315.086C187.818 314.049 188.523 312.728 188.809 311.291C189.094 309.853 188.948 308.363 188.388 307.008C187.828 305.654 186.879 304.496 185.662 303.682C184.445 302.867 183.014 302.433 181.55 302.433C180.578 302.433 179.615 302.624 178.717 302.997C177.819 303.369 177.004 303.915 176.316 304.604C175.629 305.292 175.084 306.109 174.712 307.008C174.34 307.907 174.148 308.871 174.148 309.845Z" fill="#7250B2"/>
<path d="M41.6984 318.161C47.7792 317.727 52.358 312.439 51.9253 306.35C51.4926 300.26 46.2123 295.675 40.1314 296.108C34.0506 296.541 29.4719 301.829 29.9046 307.919C30.3373 314.008 35.6175 318.594 41.6984 318.161Z" fill="#7250B2"/>
<path d="M80.4258 189.549C80.4258 191.736 81.0732 193.873 82.2861 195.691C83.4989 197.508 85.2229 198.925 87.2398 199.762C89.2568 200.599 91.4762 200.818 93.6174 200.391C95.7586 199.964 97.7254 198.912 99.2691 197.366C100.813 195.82 101.864 193.85 102.29 191.706C102.716 189.562 102.497 187.339 101.662 185.319C100.826 183.299 99.4117 181.573 97.5964 180.358C95.7812 179.143 93.6471 178.495 91.464 178.495C88.5364 178.495 85.7288 179.66 83.6588 181.733C81.5887 183.806 80.4258 186.618 80.4258 189.549Z" fill="#7250B2"/>
<path d="M724.016 287.241C724.016 289.427 724.663 291.564 725.876 293.382C727.089 295.2 728.813 296.617 730.83 297.453C732.847 298.29 735.066 298.509 737.207 298.082C739.348 297.656 741.315 296.603 742.859 295.057C744.403 293.511 745.454 291.542 745.88 289.397C746.306 287.253 746.087 285.03 745.252 283.01C744.416 280.991 743.001 279.264 741.186 278.049C739.371 276.835 737.237 276.187 735.054 276.187C733.604 276.186 732.168 276.472 730.829 277.027C729.49 277.582 728.273 278.397 727.247 279.423C726.222 280.45 725.409 281.668 724.855 283.01C724.3 284.351 724.015 285.789 724.016 287.241Z" fill="#7250B2"/>
</g>
<path d="M518.764 111.763C522.848 93.5476 511.412 75.4663 493.223 71.3772C475.033 67.288 456.977 78.7395 452.894 96.9548C448.81 115.17 460.246 133.251 478.435 137.341C496.625 141.43 514.681 129.978 518.764 111.763Z" fill="#FBFCFF"/>
<mask id="mask0_1649_11777" style="mask-type:alpha" maskUnits="userSpaceOnUse" x="452" y="70" width="68" height="69">
<path d="M518.764 111.763C522.848 93.5476 511.412 75.4663 493.223 71.3772C475.033 67.288 456.977 78.7395 452.894 96.9548C448.81 115.17 460.246 133.251 478.435 137.341C496.625 141.43 514.681 129.978 518.764 111.763Z" fill="white"/>
</mask>
<g mask="url(#mask0_1649_11777)">
<path d="M500.925 101.28C501.113 96.7696 500.449 92.3043 498.433 88.0984C496.695 84.4788 492.402 82.4266 488.483 82.4229C476.044 82.4229 474.461 98.8631 466.545 105.211C464.124 107.151 461.421 108.733 459.132 110.823C450.676 118.551 454.485 132.849 462.247 139.622C467.633 144.32 476.101 146.989 482.74 143.316C486.205 141.4 488.836 138.212 490.709 134.717C493.37 129.763 495.085 124.042 496.977 118.758C498.989 113.12 500.674 107.282 500.925 101.28Z" fill="#13375B"/>
<path d="M496.276 142.847C496.276 142.847 486.986 133.308 484.596 129.166C482.205 125.024 486.225 127.719 490.327 126.629C491.881 126.215 491.49 117.093 494.429 120.059C499.248 124.922 505.313 133.428 505.313 133.428L496.276 142.847Z" fill="#96D9C9"/>
<path d="M483.064 115.875C483.064 115.875 474.728 114.225 470.922 117.408C467.116 120.592 471.737 148.891 471.733 153.585C471.729 158.28 469.105 170.529 469.105 170.529C469.105 170.529 494.377 175.96 498.382 168.917C498.382 168.917 499.508 142.084 499.354 138.708C499.2 135.333 495.435 121.535 494.403 120.058C493.371 118.581 483.064 115.875 483.064 115.875Z" fill="#50BFA5"/>
<path d="M483.015 102.971L482.891 103.644C482.516 105.681 481.06 112.443 480.077 114.3C478.887 116.555 484.145 123.696 489.204 122.835C490.706 122.576 487.932 116.254 488.078 115.585C488.334 114.303 488.679 112.556 489.035 110.763L489.628 107.756L490.612 102.779L483.015 102.971Z" fill="#F7A491"/>
<path d="M482.885 103.632L483.009 102.959L490.594 102.771L489.611 107.748C489.42 108.706 489.236 109.729 489.022 110.732C487.664 110.492 486.406 109.861 485.4 108.917C484.147 107.821 483.201 106.417 482.656 104.842C482.75 104.361 482.829 103.948 482.885 103.632Z" fill="#F47458"/>
<path d="M488.114 85.7303C488.114 85.7303 484.541 85.3169 482.301 88.2148C480.06 91.1127 477.643 100.066 483.209 104.937C488.775 109.808 494.277 104.294 495.092 98.4496C495.906 92.6049 496.225 85.5199 488.114 85.7303Z" fill="#F7A491"/>
<path d="M493.692 84.2604C493.692 84.2604 486.722 94.2583 480.087 92.9052L479.91 88.6504L480.522 87.038L483.9 84.873L489.361 83.6289L493.692 84.2604Z" fill="#13375B"/>
<path d="M496.739 98.3635C496.075 99.6564 494.956 100.371 494.247 99.9609C493.538 99.5512 493.496 98.1718 494.161 96.8826C494.825 95.5934 495.94 94.8755 496.653 95.2851C497.366 95.6948 497.403 97.0743 496.739 98.3635Z" fill="#F7A491"/>
<path d="M481.22 95.829C481.498 97.3324 480.939 98.7269 479.97 98.9261C479.002 99.1253 477.992 98.0579 477.718 96.5469C477.444 95.0359 478 93.6452 478.968 93.4498C479.936 93.2543 480.942 94.3255 481.22 95.829Z" fill="#F7A491"/>
<path d="M490.262 101.721L485.008 101.446C485.008 101.446 485.008 103.45 487.327 103.634C490.146 103.863 490.262 101.721 490.262 101.721Z" fill="#FBFCFF"/>
<path d="M490.262 101.721L485.008 101.446C485.008 101.446 485.008 103.45 487.327 103.634C490.146 103.863 490.262 101.721 490.262 101.721Z" fill="#FBFCFF"/>
<path d="M474.064 142.517C474.064 142.517 468.595 130.369 467.762 125.656C466.929 120.943 470.971 115.026 475.201 115.406C479.431 115.786 485.77 136.759 485.77 136.759L474.064 142.517Z" fill="#96D9C9"/>
</g>
<path d="M358.286 204.379C360.901 184.406 346.853 166.092 326.908 163.473C306.963 160.854 288.675 174.922 286.059 194.895C283.444 214.868 297.493 233.183 317.438 235.801C337.382 238.42 355.671 224.352 358.286 204.379Z" fill="#FBFCFF"/>
<mask id="mask1_1649_11777" style="mask-type:alpha" maskUnits="userSpaceOnUse" x="285" y="163" width="74" height="74">
<path d="M358.286 204.379C360.901 184.406 346.853 166.092 326.908 163.473C306.963 160.854 288.675 174.922 286.059 194.895C283.444 214.868 297.493 233.183 317.438 235.801C337.382 238.42 355.671 224.352 358.286 204.379Z" fill="white"/>
</mask>
<g mask="url(#mask1_1649_11777)">
<path d="M313.126 176.057C322.37 171.141 333.143 175.542 333.95 188.461C334.756 201.379 325.655 205.927 316.917 205.07C308.179 204.213 299.584 181.477 313.126 176.057Z" fill="#13375B"/>
<path d="M318.707 210.37C318.707 212.191 319.246 213.971 320.257 215.486C321.267 217 322.703 218.181 324.383 218.877C326.064 219.574 327.913 219.757 329.696 219.402C331.48 219.046 333.118 218.169 334.404 216.881C335.69 215.593 336.566 213.953 336.921 212.166C337.276 210.38 337.094 208.528 336.398 206.846C335.702 205.163 334.523 203.725 333.011 202.713C331.499 201.701 329.721 201.161 327.902 201.161C325.464 201.161 323.125 202.131 321.4 203.858C319.676 205.585 318.707 207.928 318.707 210.37Z" fill="#13375B"/>
<path d="M308.163 215.659L276.759 214.576C276.759 214.576 252.287 206.916 251.529 206.706C250.77 206.495 247.025 196.681 246.03 197.52C245.035 198.358 248.199 202.432 246.923 203.157C245.647 203.883 233.7 199.97 233.723 200.944C233.76 202.759 240.94 203.635 240.805 204.484C240.67 205.334 233.396 202.857 232.679 204.199C231.962 205.54 239.781 205.882 239.991 206.563C240.201 207.243 232.585 207.254 233.152 208.69C233.456 209.472 239.908 208.51 239.751 209.483C239.593 210.457 234.729 211.983 235.168 212.843C235.607 213.704 239.064 211.002 241.687 211.366C244.311 211.731 246.398 210.592 250.395 212.43C254.392 214.268 267.736 222.458 276.714 223.39C285.692 224.322 305.524 226.431 305.524 226.431L308.163 215.659Z" fill="#F29383"/>
<path d="M314.143 214.226C331.337 215.031 316.218 229.449 316.218 229.449L290.808 225.84C290.057 220.762 291.349 214.711 291.412 213.358C296.69 213.023 309.905 214.023 314.143 214.226Z" fill="#C24C32"/>
<path d="M327.433 211.463C327.433 211.463 334.824 211.332 338.754 215.628C342.683 219.924 332.579 253.417 331.862 258.89C331.146 264.362 335.503 278.901 335.503 278.901C335.503 278.901 312.18 283.61 305.514 279.183C305.514 279.183 304.797 239.852 305.514 235.958C306.231 232.064 312.18 216.162 313.61 214.602C315.04 213.042 327.433 211.463 327.433 211.463Z" fill="#F47458"/>
<path d="M324.142 198.147C324.142 198.147 324.19 198.44 324.284 198.94C324.727 201.338 326.431 209.283 327.583 211.471C328.976 214.102 322.817 222.533 316.894 221.506C315.13 221.198 318.396 213.767 318.227 212.978C317.926 211.475 317.521 209.415 317.101 207.306C316.868 206.119 316.632 204.912 316.406 203.781C315.776 200.56 315.258 197.925 315.258 197.925L324.142 198.147Z" fill="#F7A491"/>
<path d="M324.269 198.94C324.175 198.44 324.126 198.147 324.126 198.147L315.246 197.925C315.246 197.925 315.764 200.556 316.395 203.781L317.085 207.288C318.675 207.004 320.149 206.264 321.326 205.156C322.795 203.864 323.902 202.211 324.539 200.36C324.426 199.797 324.336 199.312 324.269 198.94Z" fill="#F47458"/>
<path d="M318.135 177.887C318.135 177.887 322.32 177.402 324.943 180.808C327.567 184.213 330.397 194.745 323.878 200.473C317.358 206.201 310.921 199.721 309.968 192.843C309.015 185.964 308.658 177.639 318.135 177.887Z" fill="#F7A491"/>
<path d="M308.054 192.747C308.835 194.25 310.137 195.103 310.971 194.626C311.804 194.149 311.849 192.525 311.072 191.006C310.295 189.488 308.989 188.65 308.156 189.127C307.323 189.604 307.277 191.228 308.054 192.747Z" fill="#F7A491"/>
<path d="M317.68 176.764C317.68 176.764 323.272 186.777 327.273 187.243C331.274 187.709 331.799 193.028 331.799 193.028C331.799 193.028 330.369 180.764 326.41 178.399C322.45 176.035 317.68 176.764 317.68 176.764Z" fill="#13375B"/>
<path d="M326.229 189.757C325.902 191.535 326.555 193.166 327.689 193.399C328.822 193.632 330.001 192.38 330.316 190.603C330.631 188.825 329.989 187.194 328.856 186.961C327.722 186.727 326.551 187.979 326.229 189.757Z" fill="#F7A491"/>
<path d="M317.522 245.424C317.522 245.424 335.576 236.163 339.554 231.228C343.533 226.293 342.662 216.836 337.531 214.566C332.4 212.296 311.543 233.216 311.543 233.216L317.522 245.424Z" fill="#C24C32"/>
</g>
<path d="M398.611 145.785C408.642 142.261 413.921 131.262 410.402 121.217C406.884 111.172 395.9 105.886 385.869 109.409C375.838 112.933 370.559 123.932 374.078 133.977C377.597 144.022 388.58 149.308 398.611 145.785Z" fill="#FBFCFF"/>
<mask id="mask2_1649_11777" style="mask-type:alpha" maskUnits="userSpaceOnUse" x="372" y="108" width="40" height="39">
<path d="M398.611 145.785C408.642 142.261 413.921 131.262 410.402 121.217C406.884 111.172 395.9 105.886 385.869 109.409C375.838 112.933 370.559 123.932 374.078 133.977C377.597 144.022 388.58 149.308 398.611 145.785Z" fill="white"/>
</mask>
<g mask="url(#mask2_1649_11777)">
<path d="M398.545 115.554C393.557 112.901 387.744 115.276 387.308 122.245C386.873 129.213 391.782 131.668 396.5 131.209C401.218 130.751 405.849 118.479 398.545 115.554Z" fill="#13375B"/>
<path d="M390.318 126.951C390.318 127.42 390.179 127.88 389.919 128.27C389.658 128.661 389.287 128.965 388.854 129.145C388.421 129.325 387.944 129.372 387.484 129.28C387.023 129.189 386.601 128.963 386.269 128.63C385.937 128.298 385.711 127.875 385.62 127.414C385.528 126.953 385.575 126.476 385.755 126.042C385.934 125.608 386.238 125.237 386.628 124.976C387.018 124.715 387.477 124.575 387.946 124.575C388.575 124.575 389.179 124.825 389.624 125.271C390.068 125.716 390.318 126.321 390.318 126.951Z" fill="#13375B"/>
<path d="M392.682 129.198C392.682 129.668 392.542 130.127 392.282 130.517C392.021 130.908 391.651 131.213 391.217 131.392C390.784 131.572 390.307 131.619 389.847 131.528C389.387 131.436 388.964 131.21 388.632 130.877C388.301 130.545 388.075 130.122 387.983 129.661C387.892 129.2 387.939 128.723 388.118 128.289C388.298 127.855 388.602 127.484 388.992 127.223C389.382 126.962 389.84 126.822 390.31 126.822C390.621 126.822 390.93 126.883 391.218 127.002C391.506 127.121 391.768 127.296 391.988 127.517C392.208 127.738 392.383 128 392.502 128.288C392.621 128.577 392.682 128.886 392.682 129.198Z" fill="#13375B"/>
<path d="M395.795 130.902C395.796 131.372 395.657 131.832 395.397 132.223C395.136 132.614 394.766 132.919 394.332 133.1C393.899 133.28 393.421 133.327 392.961 133.236C392.5 133.144 392.077 132.918 391.746 132.585C391.414 132.253 391.188 131.829 391.096 131.368C391.005 130.907 391.052 130.429 391.232 129.995C391.412 129.561 391.717 129.19 392.107 128.929C392.498 128.668 392.957 128.53 393.427 128.53C394.055 128.53 394.657 128.78 395.101 129.225C395.545 129.67 395.795 130.273 395.795 130.902Z" fill="#13375B"/>
<path d="M389.275 123.038C389.276 123.508 389.137 123.968 388.877 124.359C388.617 124.75 388.246 125.055 387.813 125.235C387.379 125.416 386.902 125.463 386.441 125.371C385.981 125.28 385.558 125.054 385.226 124.721C384.894 124.389 384.668 123.965 384.577 123.504C384.485 123.043 384.533 122.565 384.713 122.131C384.893 121.696 385.197 121.326 385.588 121.065C385.978 120.804 386.438 120.665 386.907 120.666C387.535 120.667 388.137 120.917 388.581 121.362C389.024 121.806 389.274 122.409 389.275 123.038Z" fill="#13375B"/>
<path d="M390.092 118.961C390.092 119.431 389.954 119.89 389.694 120.282C389.433 120.673 389.063 120.978 388.629 121.158C388.196 121.338 387.718 121.386 387.258 121.294C386.797 121.203 386.374 120.976 386.042 120.644C385.71 120.312 385.484 119.888 385.393 119.427C385.302 118.966 385.349 118.488 385.529 118.054C385.709 117.619 386.014 117.248 386.404 116.988C386.795 116.727 387.254 116.588 387.723 116.589C388.351 116.59 388.953 116.84 389.397 117.285C389.841 117.729 390.091 118.332 390.092 118.961Z" fill="#13375B"/>
<path d="M392.83 116.367C392.83 116.836 392.691 117.296 392.43 117.686C392.17 118.077 391.799 118.382 391.366 118.561C390.932 118.741 390.455 118.788 389.995 118.696C389.535 118.605 389.112 118.379 388.781 118.046C388.449 117.714 388.223 117.291 388.132 116.83C388.04 116.369 388.087 115.892 388.266 115.458C388.446 115.024 388.75 114.653 389.14 114.392C389.53 114.131 389.989 113.991 390.458 113.991C391.087 113.991 391.69 114.241 392.135 114.687C392.58 115.132 392.83 115.737 392.83 116.367Z" fill="#13375B"/>
<path d="M396.463 115.288C396.464 115.758 396.325 116.218 396.065 116.609C395.804 117 395.434 117.305 395 117.485C394.567 117.666 394.089 117.713 393.629 117.621C393.168 117.53 392.745 117.304 392.413 116.971C392.082 116.639 391.856 116.215 391.764 115.754C391.673 115.293 391.72 114.815 391.9 114.381C392.08 113.946 392.385 113.576 392.775 113.315C393.166 113.054 393.625 112.915 394.095 112.916C394.723 112.916 395.325 113.166 395.769 113.611C396.213 114.055 396.463 114.659 396.463 115.288Z" fill="#13375B"/>
<path d="M400.236 115.585C400.236 116.055 400.097 116.515 399.836 116.906C399.575 117.296 399.205 117.601 398.771 117.78C398.337 117.96 397.86 118.007 397.4 117.915C396.94 117.823 396.517 117.596 396.186 117.264C395.854 116.931 395.628 116.508 395.537 116.047C395.446 115.586 395.494 115.108 395.674 114.674C395.854 114.24 396.159 113.869 396.549 113.608C396.94 113.348 397.399 113.209 397.868 113.21C398.179 113.21 398.488 113.271 398.775 113.391C399.063 113.51 399.324 113.685 399.544 113.906C399.764 114.127 399.938 114.388 400.057 114.677C400.176 114.965 400.237 115.274 400.236 115.585Z" fill="#13375B"/>
<path d="M403.053 118.551C403.053 119.021 402.914 119.48 402.653 119.871C402.392 120.262 402.022 120.566 401.588 120.746C401.155 120.926 400.678 120.973 400.218 120.881C399.758 120.789 399.335 120.563 399.003 120.231C398.672 119.899 398.446 119.475 398.354 119.015C398.263 118.554 398.31 118.076 398.489 117.642C398.669 117.208 398.973 116.837 399.363 116.576C399.753 116.315 400.211 116.176 400.681 116.176C401.31 116.176 401.913 116.426 402.358 116.872C402.803 117.317 403.053 117.921 403.053 118.551Z" fill="#13375B"/>
<path d="M402.967 126.113C402.967 126.583 402.827 127.042 402.567 127.433C402.306 127.824 401.935 128.128 401.502 128.308C401.068 128.487 400.591 128.534 400.131 128.442C399.67 128.35 399.248 128.124 398.916 127.791C398.584 127.459 398.359 127.035 398.268 126.574C398.177 126.113 398.224 125.635 398.404 125.201C398.584 124.767 398.889 124.396 399.28 124.136C399.67 123.875 400.129 123.737 400.598 123.737C400.91 123.737 401.218 123.798 401.506 123.917C401.794 124.036 402.055 124.211 402.275 124.432C402.496 124.653 402.67 124.915 402.789 125.203C402.907 125.492 402.968 125.801 402.967 126.113Z" fill="#13375B"/>
<path d="M400.607 129.658C400.607 130.128 400.468 130.587 400.208 130.977C399.947 131.368 399.577 131.673 399.143 131.852C398.71 132.032 398.233 132.079 397.773 131.988C397.312 131.896 396.89 131.67 396.558 131.337C396.226 131.005 396 130.582 395.909 130.121C395.817 129.66 395.864 129.183 396.044 128.749C396.223 128.315 396.527 127.944 396.917 127.683C397.308 127.422 397.766 127.282 398.235 127.282C398.864 127.282 399.468 127.533 399.913 127.978C400.357 128.423 400.607 129.028 400.607 129.658Z" fill="#13375B"/>
<path d="M403.939 122.109C403.939 122.579 403.8 123.038 403.54 123.429C403.279 123.819 402.909 124.124 402.475 124.303C402.042 124.483 401.565 124.53 401.105 124.439C400.644 124.347 400.222 124.121 399.89 123.789C399.558 123.456 399.332 123.033 399.241 122.572C399.149 122.111 399.196 121.634 399.376 121.2C399.555 120.766 399.859 120.395 400.25 120.134C400.64 119.873 401.098 119.733 401.567 119.733C401.879 119.733 402.188 119.794 402.476 119.913C402.764 120.032 403.025 120.207 403.246 120.428C403.466 120.649 403.641 120.911 403.76 121.199C403.879 121.488 403.94 121.797 403.939 122.109Z" fill="#13375B"/>
<path d="M397.338 130.559C397.339 131.029 397.2 131.489 396.94 131.88C396.679 132.272 396.309 132.577 395.875 132.757C395.442 132.937 394.964 132.984 394.504 132.893C394.043 132.801 393.62 132.575 393.288 132.243C392.957 131.91 392.731 131.487 392.639 131.025C392.548 130.564 392.595 130.086 392.775 129.652C392.955 129.218 393.26 128.847 393.65 128.586C394.041 128.326 394.5 128.187 394.97 128.188C395.597 128.188 396.199 128.439 396.643 128.883C397.087 129.328 397.337 129.93 397.338 130.559Z" fill="#13375B"/>
<path d="M401.227 136.92L418.169 136.337C418.169 136.337 431.373 132.203 431.783 132.09C432.192 131.977 434.215 126.681 434.751 127.136C435.288 127.591 433.58 129.767 434.267 130.181C434.954 130.594 441.399 128.459 441.399 128.985C441.376 129.966 437.503 130.436 437.578 130.898C437.653 131.361 441.575 130.019 441.962 130.741C442.348 131.462 438.129 131.65 438.017 132.015C437.904 132.379 442.01 132.391 441.706 133.165C441.541 133.586 438.051 133.067 438.144 133.593C438.238 134.12 440.854 134.943 440.618 135.409C440.381 135.875 438.516 134.413 437.101 134.608C435.686 134.804 434.56 134.191 432.402 135.183C430.244 136.176 423.049 140.596 418.203 141.096C413.357 141.596 402.657 142.738 402.657 142.738L401.227 136.92Z" fill="#F29383"/>
<path d="M397.996 136.145C388.718 136.577 396.87 144.358 396.87 144.358L410.58 142.411C410.993 139.671 410.287 136.397 410.254 135.675C407.413 135.499 400.278 136.048 397.996 136.145Z" fill="#C24C32"/>
<path d="M390.832 134.656C390.832 134.656 386.842 134.584 384.725 136.911C382.608 139.237 388.054 157.301 388.441 160.252C388.828 163.202 386.478 171.05 386.478 171.05C386.478 171.05 399.063 173.591 402.658 171.204C402.658 171.204 403.033 149.983 402.658 147.875C402.283 145.766 399.063 137.193 398.289 136.351C397.516 135.509 390.832 134.656 390.832 134.656Z" fill="#F47458"/>
<path d="M392.61 127.474C392.61 127.474 392.583 127.632 392.531 127.903C392.294 129.192 391.371 133.48 390.752 134.668C390.001 136.093 393.323 140.637 396.521 140.084C397.47 139.919 395.714 135.908 395.8 135.484C395.961 134.668 396.175 133.559 396.404 132.424C396.532 131.781 396.659 131.131 396.78 130.519C397.121 128.782 397.399 127.361 397.399 127.361L392.61 127.474Z" fill="#BF7154"/>
<path d="M392.533 127.901C392.586 127.631 392.612 127.473 392.612 127.473L397.401 127.353C397.401 127.353 397.123 128.773 396.782 130.51C396.662 131.119 396.534 131.765 396.406 132.389C395.548 132.236 394.753 131.836 394.117 131.239C393.325 130.541 392.729 129.649 392.387 128.649L392.533 127.901Z" fill="#A85D42"/>
<path d="M395.83 116.543C395.136 116.489 394.439 116.604 393.799 116.878C393.16 117.153 392.595 117.578 392.156 118.118C390.741 119.956 389.217 125.635 392.73 128.729C396.243 131.822 399.722 128.319 400.236 124.613C400.75 120.907 400.957 116.408 395.83 116.543Z" fill="#BF7154"/>
<path d="M401.28 124.556C400.864 125.375 400.154 125.83 399.708 125.567C399.261 125.304 399.235 124.44 399.655 123.616C400.075 122.793 400.781 122.342 401.228 122.602C401.674 122.861 401.701 123.737 401.28 124.556Z" fill="#BF7154"/>
<path d="M396.088 115.935C396.088 115.935 393.085 121.339 390.916 121.572C388.747 121.806 388.473 124.696 388.473 124.696C388.473 124.696 389.246 118.077 391.381 116.803C393.517 115.529 396.088 115.935 396.088 115.935Z" fill="#13375B"/>
<path d="M391.475 122.944C391.651 123.906 391.298 124.786 390.687 124.91C390.075 125.034 389.441 124.361 389.264 123.406C389.088 122.452 389.441 121.565 390.052 121.441C390.664 121.317 391.302 121.986 391.475 122.944Z" fill="#BF7154"/>
<path d="M396.176 152.961C396.176 152.961 386.418 147.962 384.289 145.297C382.161 142.632 382.612 137.535 385.378 136.31C388.144 135.084 399.4 146.372 399.4 146.372L396.176 152.961Z" fill="#C24C32"/>
</g>
<path d="M593.159 248.944C615.402 244.489 629.828 222.821 625.379 200.546C620.93 178.271 599.292 163.825 577.049 168.28C554.805 172.735 540.38 194.404 544.829 216.679C549.277 238.953 570.916 253.399 593.159 248.944Z" fill="#FBFCFF"/>
<mask id="mask3_1649_11777" style="mask-type:alpha" maskUnits="userSpaceOnUse" x="544" y="167" width="83" height="83">
<path d="M593.159 248.943C615.402 244.488 629.828 222.82 625.379 200.545C620.93 178.27 599.292 163.824 577.049 168.279C554.805 172.734 540.38 194.403 544.829 216.678C549.277 238.952 570.916 253.398 593.159 248.943Z" fill="white"/>
</mask>
<g mask="url(#mask3_1649_11777)">
<path d="M597.867 186.092C590.094 181.977 578.425 184.127 575.396 199.477C573.59 208.622 569.098 218.232 569.098 218.232C580.868 223.495 593.528 223.716 603.681 221.942C603.681 221.942 612.483 191.941 597.867 186.092Z" fill="#F47458"/>
<path d="M603.227 228.831L637.116 227.662C637.116 227.662 663.528 219.393 664.346 219.168C665.164 218.942 669.225 208.35 670.28 209.256C671.335 210.162 667.942 214.556 669.319 215.349C670.697 216.142 683.582 211.91 683.563 212.958C683.522 214.917 675.775 215.86 675.918 216.781C676.06 217.702 683.916 215.022 684.689 216.469C685.462 217.916 677.025 218.288 676.807 219.021C676.59 219.754 684.802 219.773 684.19 221.321C683.86 222.163 676.882 221.126 677.059 222.175C677.235 223.223 682.478 224.869 682.006 225.802C681.533 226.734 677.798 223.813 674.968 224.208C672.138 224.603 669.886 223.37 665.585 225.354C661.283 227.339 646.874 236.179 637.183 237.183C627.492 238.186 606.09 240.464 606.09 240.464L603.227 228.831Z" fill="#F29383"/>
<path d="M596.773 227.279C578.217 228.144 594.521 243.708 594.521 243.708L621.943 239.81C622.769 234.334 621.361 227.783 621.29 226.343C615.611 225.99 601.345 227.065 596.773 227.279Z" fill="#C5DBFC"/>
<path d="M582.431 224.305C582.431 224.305 574.455 224.162 570.217 228.816C565.98 233.469 576.879 269.597 577.653 275.502C578.426 281.406 573.742 297.084 573.742 297.084C573.742 297.084 598.912 302.165 606.107 297.388C606.107 297.388 606.88 254.942 606.107 250.728C605.334 246.515 598.912 229.364 597.373 227.677C595.834 225.989 582.431 224.305 582.431 224.305Z" fill="#9BC1F9"/>
<path d="M586.001 209.934C586.001 209.934 585.944 210.25 585.843 210.791C585.366 213.377 583.527 221.954 582.285 224.322C580.784 227.171 587.427 236.26 593.822 235.151C595.725 234.82 592.212 226.799 592.381 225.95C592.704 224.322 593.132 222.105 593.59 219.827C593.845 218.545 594.1 217.245 594.34 216.019L595.583 209.701L586.001 209.934Z" fill="#F7A491"/>
<path d="M585.84 210.791C585.941 210.25 585.997 209.934 585.997 209.934L595.579 209.693L594.337 216.012L593.586 219.8C592.107 219.582 590.561 218.861 589.011 217.496C587.427 216.103 586.233 214.321 585.547 212.324C585.667 211.716 585.768 211.189 585.84 210.791Z" fill="#F5866E"/>
<path d="M592.447 188.073C592.447 188.073 587.943 187.547 585.098 191.223C582.254 194.899 579.217 206.257 586.251 212.444C593.284 218.631 600.231 211.628 601.264 204.213C602.296 196.797 602.693 187.802 592.447 188.073Z" fill="#F7A491"/>
<path d="M603.34 204.103C602.499 205.738 601.088 206.648 600.194 206.129C599.301 205.611 599.245 203.874 600.086 202.22C600.926 200.566 602.338 199.676 603.235 200.194C604.132 200.713 604.18 202.465 603.34 204.103Z" fill="#F7A491"/>
<path d="M592.953 186.854C592.953 186.854 586.918 197.664 582.602 198.164C578.286 198.664 577.723 204.407 577.723 204.407C577.723 204.407 579.265 191.173 583.536 188.621C587.808 186.069 592.953 186.854 592.953 186.854Z" fill="#F47458"/>
<path d="M583.733 200.878C584.086 202.799 583.38 204.558 582.157 204.81C580.933 205.061 579.661 203.712 579.308 201.803C578.955 199.893 579.683 198.123 580.888 197.871C582.093 197.619 583.384 198.961 583.733 200.878Z" fill="#F7A491"/>
<path d="M593.129 260.942C593.129 260.942 573.645 250.948 569.351 245.618C565.057 240.289 566 230.088 571.532 227.637C577.064 225.187 599.581 247.765 599.581 247.765L593.129 260.942Z" fill="#C5DBFC"/>
</g>
<path d="M712.284 315.191C712.284 320.416 710.737 325.523 707.839 329.867C704.94 334.211 700.821 337.597 696.001 339.596C691.181 341.595 685.877 342.118 680.76 341.099C675.643 340.08 670.943 337.564 667.253 333.87C663.564 330.175 661.052 325.469 660.034 320.345C659.016 315.22 659.539 309.909 661.535 305.082C663.532 300.255 666.913 296.13 671.251 293.227C675.589 290.325 680.689 288.775 685.906 288.775C689.37 288.775 692.801 289.458 696.001 290.785C699.202 292.112 702.11 294.058 704.559 296.511C707.009 298.964 708.952 301.877 710.277 305.082C711.603 308.287 712.285 311.722 712.284 315.191Z" fill="#FBFCFF"/>
<mask id="mask4_1649_11777" style="mask-type:alpha" maskUnits="userSpaceOnUse" x="659" y="288" width="54" height="54">
<path d="M712.284 315.191C712.284 320.416 710.737 325.523 707.839 329.867C704.94 334.211 700.821 337.597 696.001 339.596C691.181 341.595 685.877 342.118 680.76 341.099C675.643 340.08 670.943 337.564 667.253 333.87C663.564 330.175 661.052 325.469 660.034 320.345C659.016 315.22 659.539 309.909 661.535 305.082C663.532 300.255 666.913 296.13 671.251 293.227C675.589 290.325 680.689 288.775 685.906 288.775C689.37 288.775 692.801 289.458 696.001 290.785C699.202 292.112 702.11 294.058 704.559 296.511C707.009 298.964 708.952 301.877 710.277 305.082C711.603 308.287 712.285 311.722 712.284 315.191Z" fill="white"/>
</mask>
<g mask="url(#mask4_1649_11777)">
<path d="M677.052 298.826C683.969 295.15 692.031 298.45 692.635 308.109C693.24 317.769 686.428 321.178 679.875 320.539C673.321 319.9 666.922 302.885 677.052 298.826Z" fill="#F7CC7F"/>
<path d="M681.227 324.505C681.226 325.868 681.629 327.201 682.385 328.336C683.141 329.47 684.215 330.354 685.473 330.876C686.731 331.398 688.115 331.535 689.45 331.27C690.786 331.004 692.013 330.348 692.976 329.384C693.939 328.42 694.595 327.192 694.861 325.855C695.127 324.517 694.991 323.131 694.47 321.871C693.949 320.612 693.067 319.535 691.934 318.777C690.802 318.02 689.471 317.615 688.11 317.615C686.285 317.615 684.535 318.341 683.244 319.633C681.953 320.925 681.228 322.677 681.227 324.505Z" fill="#F7CC7F"/>
<path d="M673.339 328.458L649.843 327.65C649.843 327.65 631.531 321.918 630.964 321.76C630.397 321.602 627.586 314.243 626.835 314.885C626.085 315.528 628.46 318.561 627.503 319.11C626.546 319.659 617.609 316.727 617.625 317.453C617.655 318.813 623.029 319.467 622.928 320.106C622.827 320.745 617.384 318.885 616.844 319.888C616.303 320.892 622.159 321.147 622.32 321.659C622.481 322.17 616.776 322.177 617.2 323.252C617.429 323.835 622.267 323.117 622.136 323.842C622.005 324.568 618.383 325.722 618.705 326.361C619.028 327 621.622 324.981 623.585 325.233C625.548 325.485 627.109 324.654 630.104 326.03C633.1 327.405 643.076 333.547 649.794 334.231C656.513 334.915 671.354 336.509 671.354 336.509L673.339 328.458Z" fill="#F29383"/>
<path d="M677.81 327.384C690.676 327.986 679.364 338.777 679.364 338.777L660.35 336.074C659.78 332.274 660.756 327.745 660.804 326.734C664.749 326.49 674.643 327.238 677.81 327.384Z" fill="#96D9C9"/>
<path d="M687.761 325.321C687.761 325.321 693.29 325.223 696.228 328.44C699.167 331.658 691.608 356.717 691.075 360.813C690.542 364.91 693.8 375.788 693.8 375.788C693.8 375.788 676.348 379.313 671.36 375.998C671.36 375.998 670.823 346.568 671.36 343.648C671.896 340.727 676.348 328.835 677.417 327.666C678.487 326.497 687.761 325.321 687.761 325.321Z" fill="#50BFA5"/>
<path d="M685.284 315.357C685.284 315.357 685.321 315.579 685.393 315.951C685.723 317.744 686.999 323.693 687.859 325.347C688.902 327.321 684.293 333.616 679.86 332.865C678.539 332.635 680.986 327.076 680.859 326.475C680.634 325.347 680.33 323.81 680.022 322.231C679.845 321.341 679.669 320.439 679.5 319.6L678.641 315.218L685.284 315.357Z" fill="#F7A491"/>
<path d="M685.393 315.949C685.321 315.573 685.284 315.355 685.284 315.355L678.641 315.189L679.5 319.572C679.665 320.414 679.842 321.312 680.018 322.203C681.208 321.992 682.311 321.437 683.19 320.606C684.288 319.64 685.116 318.404 685.592 317.02C685.513 316.591 685.441 316.227 685.393 315.949Z" fill="#F47458"/>
<path d="M680.819 300.198C680.819 300.198 683.949 299.822 685.912 302.386C687.875 304.949 689.992 312.812 685.113 317.097C680.234 321.382 675.418 316.533 674.705 311.391C673.992 306.249 673.714 300.014 680.819 300.198Z" fill="#F7A491"/>
<path d="M673.261 311.315C673.842 312.443 674.818 313.078 675.441 312.717C676.064 312.357 676.098 311.146 675.516 310.011C674.935 308.876 673.955 308.245 673.332 308.605C672.709 308.966 672.679 310.177 673.261 311.315Z" fill="#F7A491"/>
<path d="M680.465 299.356C680.465 299.356 684.65 306.851 687.641 307.197C690.632 307.543 691.019 311.527 691.019 311.527C691.019 311.527 689.945 302.352 686.984 300.582C684.023 298.811 680.465 299.356 680.465 299.356Z" fill="#F7CC7F"/>
<path d="M686.855 309.08C686.612 310.41 687.103 311.632 687.951 311.805C688.8 311.978 689.682 311.053 689.926 309.711C690.17 308.369 689.678 307.163 688.83 306.986C687.981 306.81 687.103 307.749 686.855 309.08Z" fill="#F7A491"/>
<path d="M680.342 350.725C680.342 350.725 693.853 343.794 696.829 340.099C699.806 336.405 699.153 329.331 695.328 327.632C691.504 325.933 675.883 341.588 675.883 341.588L680.342 350.725Z" fill="#96D9C9"/>
</g>
<path d="M464.52 211.536C464.52 215.884 463.232 220.135 460.82 223.75C458.408 227.365 454.979 230.183 450.968 231.847C446.956 233.511 442.542 233.946 438.284 233.098C434.025 232.25 430.114 230.156 427.043 227.081C423.973 224.007 421.882 220.089 421.035 215.825C420.188 211.56 420.623 207.14 422.284 203.123C423.946 199.106 426.76 195.672 430.37 193.257C433.98 190.841 438.225 189.552 442.567 189.552C445.45 189.551 448.305 190.12 450.968 191.224C453.632 192.329 456.052 193.948 458.091 195.99C460.13 198.031 461.747 200.455 462.85 203.122C463.953 205.79 464.52 208.649 464.52 211.536Z" fill="#FBFCFF"/>
<mask id="mask5_1649_11777" style="mask-type:alpha" maskUnits="userSpaceOnUse" x="420" y="189" width="45" height="45">
<path d="M464.52 211.536C464.52 215.884 463.232 220.135 460.82 223.75C458.408 227.365 454.979 230.183 450.968 231.847C446.956 233.511 442.542 233.946 438.284 233.098C434.025 232.25 430.114 230.156 427.043 227.081C423.973 224.007 421.882 220.089 421.035 215.825C420.188 211.56 420.623 207.14 422.284 203.123C423.946 199.106 426.76 195.672 430.37 193.257C433.98 190.841 438.225 189.552 442.567 189.552C445.45 189.551 448.305 190.12 450.968 191.224C453.632 192.329 456.052 193.948 458.091 195.99C460.13 198.031 461.747 200.455 462.85 203.122C463.953 205.79 464.52 208.649 464.52 211.536Z" fill="white"/>
</mask>
<g mask="url(#mask5_1649_11777)">
<path d="M405.543 224.399C405.543 224.399 412.993 222.407 413.08 223.009C415.001 236.164 415.831 240.926 416.082 241.05C417.006 241.494 428.757 230.15 430.886 229.349C431.903 228.974 433.021 228.996 434.091 229C436.647 229 437.154 229 437.154 229H437.244L437.296 231.405C434.485 234.074 431.726 285.594 431.171 285.582C430.552 285.582 418.875 285.507 419.43 284.534C419.43 284.534 422.253 268.665 424.471 258.223C425.222 254.709 427.301 247.372 427.301 247.372C424.445 248.898 413.294 254.762 411.485 254.074C405.873 251.928 405.543 224.399 405.543 224.399Z" fill="#F47458"/>
<path d="M427.603 255.732C428.883 249.421 432.16 239.062 433.12 236.717C435.324 231.323 437.178 229.038 437.178 229.038L445.896 229.294C445.896 229.294 446.099 229.35 446.159 229.361C446.872 229.474 446.91 254.92 446.508 264.411C446.107 273.901 444.02 286.293 444.02 286.293L441.531 286.057C441.49 287.338 441.46 288.184 441.46 288.184C428.846 290.413 421.801 284.185 421.801 284.185C421.801 284.185 425.944 263.914 427.603 255.732Z" fill="#466EB6"/>
<path d="M445.895 229.293C445.895 229.293 454.528 228.665 456.72 227.598C458.052 226.948 468.914 217.705 468.914 217.705L468.164 193.744L475.952 192.943C475.952 192.943 480.688 219.329 479.364 222.261C477.997 225.294 462.098 238.047 458.972 243.482C457.181 246.613 458.882 289.123 458.3 289.518C454.171 291.818 436.737 293.851 437.007 292.525C444.487 255.573 445.895 229.293 445.895 229.293Z" fill="#F47458"/>
<path d="M445.45 221.603L445.9 229.293C445.9 229.293 440.518 239.167 437.591 237.889C435.132 236.814 437.091 229.361 437.091 229.361C437.091 229.361 437.467 227.654 438 225.688C438.39 224.41 438.597 223.082 438.615 221.746C438.491 219.115 445.45 221.603 445.45 221.603Z" fill="#F7A491"/>
<path d="M438.611 221.746C438.483 219.115 445.442 221.599 445.442 221.599L445.487 222.351C445.283 222.685 445.03 222.987 444.736 223.245C442.865 224.773 440.482 225.528 438.074 225.358C438.418 224.184 438.599 222.969 438.611 221.746Z" fill="#F47458"/>
<path d="M438.255 204.215C438.255 204.215 435.496 208.627 435.376 212.285C435.279 214.351 435.521 216.42 436.093 218.407L445.022 207.132L438.255 204.215Z" fill="#184655"/>
<path d="M434.405 211.563C434.312 212.841 434.837 213.927 435.58 213.983C436.323 214.04 437.003 213.047 437.081 211.766C437.16 210.484 436.654 209.401 435.91 209.345C435.167 209.289 434.488 210.281 434.405 211.563Z" fill="#F48C7F"/>
<path d="M448.054 208.823C448.264 208.77 448.523 219.396 445.513 221.978C442.503 224.56 437.159 224.921 435.53 222.44C433.728 219.704 435.079 208.466 439.591 205.97C444.102 203.474 448.054 208.823 448.054 208.823Z" fill="#F7A491"/>
<path d="M448.657 202.2C451.059 204.196 452.234 205.673 453.911 209.297C455.979 213.751 452.23 218.52 449.032 220.46C445.835 222.399 445.621 224.651 445.621 224.651L445.452 223.271C445.372 222.85 445.372 222.418 445.452 221.997C445.556 221.607 445.701 221.229 445.883 220.869C446.146 220.268 446.979 218.216 447.313 217.671C448.192 216.235 448.364 215.927 447.876 214.596C447.501 213.574 447.843 211.285 447.261 209.597L442.866 208.767C442.866 208.767 440.111 208.18 438.688 206.62C434.612 202.151 442.322 196.833 448.657 202.2Z" fill="#184655"/>
<path d="M446.869 215.801C446.362 216.977 446.494 218.176 447.188 218.473C447.883 218.77 448.84 218.052 449.35 216.872C449.86 215.692 449.725 214.493 449.027 214.199C448.329 213.906 447.387 214.605 446.869 215.801Z" fill="#F7A491"/>
</g>
<path d="M73.9621 245.769C78.2737 227.475 66.9595 209.144 48.6912 204.826C30.4229 200.508 12.1183 211.838 7.80678 230.132C3.49522 248.427 14.8094 266.757 33.0777 271.075C51.346 275.393 69.6506 264.063 73.9621 245.769Z" fill="#FBFCFF"/>
<mask id="mask6_1649_11777" style="mask-type:alpha" maskUnits="userSpaceOnUse" x="6" y="203" width="69" height="70">
<path d="M73.95 245.783C78.257 227.488 66.94 209.152 48.6728 204.83C30.4056 200.507 12.1055 211.834 7.79853 230.13C3.49152 248.425 14.8085 266.76 33.0757 271.082C51.3429 275.405 69.643 264.078 73.95 245.783Z" fill="white"/>
</mask>
<g mask="url(#mask6_1649_11777)">
<path d="M-15.5664 257.607C-15.5664 257.607 -4.34013 254.6 -4.20501 255.506C-1.31118 275.348 -0.0575714 282.519 0.351544 282.715C1.74028 283.384 19.4561 266.286 22.6614 265.076C24.1966 264.497 25.8856 264.542 27.4995 264.546C31.3542 264.546 32.1124 264.546 32.1124 264.546H32.255L32.3301 268.173C28.0925 272.194 23.9338 349.867 23.0968 349.852C22.1585 349.852 4.55904 349.739 5.39229 348.265C5.39229 348.265 9.64859 324.345 12.9966 308.578C14.1226 303.282 17.2604 292.217 17.2604 292.217C12.9553 294.521 -3.85596 303.361 -6.58465 302.324C-15.071 299.11 -15.5664 257.607 -15.5664 257.607Z" fill="#F7CC7F"/>
<path d="M17.6863 304.842C19.6155 295.325 24.5586 279.712 26.0037 276.171C29.3254 268.041 32.1329 264.591 32.1329 264.591L45.2696 264.967C45.2696 264.967 45.5736 265.049 45.6675 265.064C46.7409 265.237 46.7747 303.575 46.1929 317.907C45.6112 332.239 42.4396 350.897 42.4396 350.897L38.6862 350.543C38.6262 352.475 38.5811 353.749 38.5811 353.749C19.5629 357.11 8.92969 347.736 8.92969 347.736C8.92969 347.736 15.1828 317.178 17.6863 304.842Z" fill="#F7CC7F"/>
<path d="M45.275 264.985C45.275 264.985 58.2766 264.034 61.5945 262.426C63.6063 261.452 79.9859 247.515 79.9859 247.515L78.8599 211.387L90.5966 210.181C90.5966 210.181 97.728 249.962 95.7425 254.39C93.6631 258.953 69.6717 278.189 64.9838 286.391C62.2851 291.112 64.8449 355.2 63.9704 355.79C57.7211 359.259 31.4589 362.33 31.868 360.301C43.1506 304.628 45.275 264.985 45.275 264.985Z" fill="#F7CC7F"/>
<path d="M44.5996 253.386L45.2751 264.986C45.2751 264.986 37.1607 279.873 32.7469 277.945C29.0388 276.325 31.9963 265.083 31.9963 265.083C31.9963 265.083 32.563 262.512 33.3662 259.551C33.9255 257.48 34.3796 255.243 34.297 253.612C34.1018 249.647 44.5996 253.386 44.5996 253.386Z" fill="#BF7154"/>
<path d="M34.2916 253.612C34.0965 249.647 44.5942 253.386 44.5942 253.386L44.6617 254.514C44.355 255.017 43.9756 255.472 43.5358 255.863C40.7137 258.164 37.1224 259.303 33.4922 259.047C33.9914 257.13 34.3667 255.112 34.2916 253.612Z" fill="#A3573C"/>
<path d="M33.7469 227.178C33.7469 227.178 29.5883 233.831 29.4082 239.341C29.228 244.851 30.4929 248.576 30.4929 248.576L43.9519 231.575L33.7469 227.178Z" fill="#184655"/>
<path d="M27.9432 238.25C27.7968 240.182 28.5888 241.817 29.711 241.903C30.8332 241.99 31.8578 240.49 32.0042 238.558C32.1506 236.626 31.3586 234.991 30.2364 234.909C29.1142 234.826 28.0896 236.322 27.9432 238.25Z" fill="#A3573C"/>
<path d="M48.5194 234.12C48.8347 234.045 49.225 250.06 44.6874 253.951C40.1498 257.841 32.0916 258.386 29.637 254.65C26.9197 250.515 28.9577 233.579 35.7585 229.816C42.5593 226.054 48.5194 234.12 48.5194 234.12Z" fill="#BF7154"/>
<path d="M49.4331 224.159C53.0511 227.165 54.8227 229.398 57.3636 234.859C60.4863 241.572 54.8302 248.766 50.0035 251.691C45.1769 254.615 44.8617 258.005 44.8617 258.005L44.6027 255.927C44.4827 255.293 44.4827 254.643 44.6027 254.01C44.766 253.418 44.9898 252.845 45.2708 252.299C45.6461 251.397 46.9222 248.304 47.4213 247.481C48.7462 245.316 49.0052 244.85 48.2733 242.843C47.7066 241.302 48.2245 237.851 47.3463 235.325L40.7181 234.074C40.7181 234.074 36.5633 233.191 34.4202 230.838C28.2537 224.065 39.8811 216.047 49.4331 224.159Z" fill="#184655"/>
<path d="M46.753 244.635C46.0024 246.417 46.2013 248.221 47.2372 248.664C48.2731 249.108 49.7256 248.033 50.4912 246.251C51.2569 244.47 51.0429 242.669 50.0108 242.226C48.9787 241.782 47.5262 242.857 46.753 244.635Z" fill="#BF7154"/>
</g>
<path d="M248.954 124.713C257.551 110.785 253.245 92.5149 239.336 83.9059C225.427 75.2968 207.183 79.609 198.586 93.5373C189.989 107.466 194.295 125.736 208.204 134.345C222.112 142.954 240.357 138.642 248.954 124.713Z" fill="#FBFCFF"/>
<mask id="mask7_1649_11777" style="mask-type:alpha" maskUnits="userSpaceOnUse" x="194" y="79" width="60" height="60">
<path d="M248.954 124.713C257.551 110.785 253.245 92.5149 239.336 83.9059C225.427 75.2968 207.183 79.609 198.586 93.5373C189.989 107.466 194.295 125.736 208.204 134.345C222.112 142.954 240.357 138.642 248.954 124.713Z" fill="white"/>
</mask>
<g mask="url(#mask7_1649_11777)">
<path d="M269.831 126.355C269.831 126.355 260.564 123.874 260.448 124.622C258.057 140.998 257.021 146.918 256.694 147.08C255.568 147.632 240.93 133.519 238.28 132.519C237.012 132.042 235.619 132.079 234.287 132.083C231.104 132.083 230.477 132.083 230.477 132.083H230.361L230.301 135.09C233.795 138.412 237.229 202.527 237.92 202.512C238.693 202.512 253.222 202.418 252.532 201.204C252.532 201.204 249.019 181.46 246.256 168.444C245.329 164.073 242.739 154.939 242.739 154.939C246.29 156.841 260.17 164.14 262.422 163.283C269.422 160.611 269.831 126.355 269.831 126.355Z" fill="#13375B"/>
<path d="M242.381 165.341C240.786 157.486 236.71 144.601 235.516 141.662C232.772 134.953 230.464 132.107 230.464 132.107L219.613 132.427C219.613 132.427 219.362 132.498 219.286 132.51C218.401 132.649 218.374 164.296 218.851 176.11C219.328 187.923 221.951 203.341 221.951 203.341L225.048 203.044C225.1 204.642 225.134 205.675 225.134 205.675C240.834 208.445 249.599 200.695 249.599 200.695C249.599 200.695 244.445 175.512 242.381 165.341Z" fill="#466EB6"/>
<path d="M219.611 132.443C219.611 132.443 208.88 131.661 206.144 130.331C204.481 129.526 190.969 118.025 190.969 118.025L191.904 88.204L182.216 87.208C182.216 87.208 176.316 120.043 177.967 123.697C179.668 127.455 199.474 143.343 203.34 150.109C205.57 154.003 203.456 206.902 204.177 207.39C209.334 210.254 231.014 212.788 230.676 211.126C221.364 165.166 219.611 132.443 219.611 132.443Z" fill="#13375B"/>
<path d="M220.165 122.87L219.605 132.443C219.605 132.443 226.305 144.734 229.949 143.14C233.008 141.806 230.569 132.526 230.569 132.526C230.569 132.526 230.099 130.402 229.443 127.959C228.977 126.249 228.606 124.403 228.669 123.073C228.831 119.784 220.165 122.87 220.165 122.87Z" fill="#F7A491"/>
<path d="M228.667 123.058C228.832 119.784 220.166 122.87 220.166 122.87L220.113 123.806C220.364 124.227 220.676 124.607 221.04 124.934C223.369 126.835 226.334 127.776 229.331 127.565C228.918 125.96 228.607 124.295 228.667 123.058Z" fill="#F47458"/>
<path d="M229.121 101.239C229.121 101.239 232.556 106.731 232.706 111.279C232.823 113.85 232.518 116.424 231.805 118.897L220.699 104.851L229.121 101.239Z" fill="#F47458"/>
<path d="M233.922 110.379C234.042 111.973 233.389 113.322 232.462 113.386C231.535 113.45 230.691 112.221 230.586 110.627C230.48 109.034 231.118 107.684 232.042 107.621C232.965 107.557 233.802 108.782 233.922 110.379Z" fill="#F48C7F"/>
<path d="M216.933 106.966C216.67 106.906 216.351 120.121 220.093 123.335C223.835 126.548 230.494 126.996 232.52 123.914C234.772 120.504 233.079 106.519 227.465 103.41C221.85 100.302 216.933 106.966 216.933 106.966Z" fill="#F7A491"/>
<path d="M216.175 98.7458C213.173 101.234 211.724 103.068 209.626 107.575C207.051 113.119 211.72 119.054 215.702 121.482C219.684 123.91 219.947 126.695 219.947 126.695L220.157 124.977C220.256 124.454 220.256 123.918 220.157 123.395C220.028 122.906 219.848 122.433 219.621 121.982C219.294 121.23 218.258 118.685 217.842 118.005C216.753 116.22 216.535 115.833 217.143 114.179C217.609 112.905 217.181 110.044 217.894 107.958L223.366 106.925C223.366 106.925 226.793 106.195 228.564 104.252C233.654 98.6669 224.057 92.0479 216.175 98.7458Z" fill="#F47458"/>
<path d="M218.386 115.649C219.021 117.119 218.841 118.607 217.989 118.976C217.137 119.344 215.936 118.45 215.301 116.984C214.667 115.518 214.847 114.026 215.699 113.657C216.551 113.289 217.756 114.18 218.386 115.649Z" fill="#F7A491"/>
</g>
<path d="M366.523 291.037C368.625 282.119 363.11 273.183 354.204 271.079C345.299 268.974 336.376 274.497 334.274 283.415C332.173 292.332 337.688 301.268 346.593 303.373C355.498 305.477 364.421 299.954 366.523 291.037Z" fill="#FBFCFF"/>
<mask id="mask8_1649_11777" style="mask-type:alpha" maskUnits="userSpaceOnUse" x="333" y="270" width="34" height="34">
<path d="M366.523 291.037C368.625 282.119 363.11 273.183 354.204 271.079C345.299 268.974 336.376 274.497 334.274 283.415C332.173 292.332 337.688 301.268 346.593 303.373C355.498 305.477 364.421 299.954 366.523 291.037Z" fill="white"/>
</mask>
<g mask="url(#mask8_1649_11777)">
<path d="M323.363 297.266C323.363 297.266 328.802 295.808 328.865 296.248C330.269 305.862 330.877 309.335 331.076 309.433C331.748 309.756 340.332 301.472 341.885 300.886C342.644 300.659 343.437 300.571 344.227 300.627C346.104 300.627 346.479 300.627 346.479 300.627H346.547L346.584 302.386C344.531 304.333 342.516 341.968 342.111 341.96C341.705 341.953 333.129 341.904 333.534 341.208C333.534 341.208 335.595 329.617 337.216 321.976C337.761 319.412 339.281 314.049 339.281 314.049C337.198 315.176 329.049 319.45 327.728 318.935C323.603 317.375 323.363 297.266 323.363 297.266Z" fill="#F7CC7F"/>
<path d="M339.476 320.153C340.531 315.439 341.877 310.794 343.507 306.247C345.113 302.307 346.468 300.639 346.468 300.639L352.849 300.827L353.044 300.875C353.562 300.958 353.581 319.533 353.299 326.479C353.018 333.425 351.479 342.461 351.479 342.461L349.662 342.288C349.632 343.228 349.61 343.844 349.61 343.844C340.396 345.472 335.25 340.92 335.25 340.92C335.25 340.92 338.264 326.13 339.476 320.153Z" fill="#466EB6"/>
<path d="M352.843 300.841C352.843 300.841 359.145 300.382 360.752 299.601C361.728 299.127 369.659 292.376 369.659 292.376L369.111 274.872L374.797 274.286C374.797 274.286 378.257 293.56 377.289 295.71C376.291 297.924 364.667 307.242 362.396 311.211C361.09 313.5 362.328 344.55 361.904 344.839C358.879 346.52 346.14 348.004 346.35 347.031C351.819 320.048 352.843 300.841 352.843 300.841Z" fill="#F7CC7F"/>
<path d="M352.511 295.222L352.838 300.86C352.838 300.86 348.908 308.073 346.769 307.137C344.971 306.355 346.393 300.909 346.393 300.909C346.393 300.909 346.667 299.661 347.058 298.225C347.343 297.293 347.495 296.325 347.508 295.35C347.411 293.41 352.511 295.222 352.511 295.222Z" fill="#F7A491"/>
<path d="M347.519 295.331C347.425 293.41 352.511 295.222 352.511 295.222L352.544 295.771C352.395 296.015 352.21 296.235 351.996 296.425C350.626 297.543 348.88 298.095 347.117 297.966C347.372 297.11 347.507 296.224 347.519 295.331Z" fill="#F47458"/>
<path d="M347.25 282.521C347.25 282.521 345.234 285.746 345.148 288.415C345.078 289.925 345.255 291.436 345.673 292.888L352.193 284.653L347.25 282.521Z" fill="#13375B"/>
<path d="M344.441 287.897C344.374 288.833 344.757 289.626 345.297 289.664C345.838 289.701 346.34 288.98 346.423 288.044C346.506 287.108 346.111 286.318 345.567 286.277C345.023 286.236 344.513 286.954 344.441 287.897Z" fill="#F48C7F"/>
<path d="M354.411 285.885C354.565 285.848 354.753 293.609 352.535 295.496C350.316 297.383 346.432 297.642 345.242 295.834C343.928 293.831 344.916 285.622 348.207 283.807C351.499 281.991 354.411 285.885 354.411 285.885Z" fill="#F7A491"/>
<path d="M354.854 281.059C356.606 282.521 357.481 283.596 358.697 286.242C360.198 289.497 357.47 292.981 355.131 294.398C352.793 295.815 352.639 297.458 352.639 297.458L352.515 296.45C352.458 296.143 352.458 295.829 352.515 295.522C352.593 295.236 352.699 294.959 352.834 294.695C353.022 294.255 353.634 292.756 353.878 292.361C354.516 291.312 354.628 291.083 354.287 290.106C354.013 289.354 354.264 287.685 353.84 286.452L350.627 285.847C350.627 285.847 348.616 285.419 347.576 284.28C344.592 281.014 350.226 277.127 354.854 281.059Z" fill="#13375B"/>
<path d="M353.556 290.984C353.181 291.844 353.29 292.72 353.789 292.934C354.288 293.149 354.993 292.63 355.365 291.765C355.737 290.901 355.632 290.029 355.132 289.815C354.633 289.6 353.928 290.123 353.556 290.984Z" fill="#F7A491"/>
</g>
<path d="M565.644 314.03C565.644 318.182 564.414 322.24 562.111 325.693C559.807 329.145 556.534 331.835 552.703 333.424C548.873 335.013 544.658 335.429 540.592 334.619C536.525 333.809 532.79 331.809 529.859 328.874C526.927 325.938 524.93 322.197 524.122 318.125C523.313 314.053 523.728 309.833 525.314 305.997C526.901 302.161 529.588 298.882 533.035 296.576C536.482 294.269 540.535 293.038 544.681 293.038C547.434 293.038 550.16 293.58 552.704 294.635C555.247 295.69 557.558 297.236 559.505 299.185C561.452 301.135 562.996 303.449 564.049 305.996C565.102 308.543 565.644 311.273 565.644 314.03Z" fill="#FBFCFF"/>
<mask id="mask9_1649_11777" style="mask-type:alpha" maskUnits="userSpaceOnUse" x="523" y="293" width="43" height="43">
<path d="M565.644 314.03C565.644 318.182 564.414 322.24 562.111 325.693C559.807 329.145 556.534 331.835 552.703 333.424C548.873 335.013 544.658 335.429 540.592 334.619C536.525 333.809 532.79 331.809 529.859 328.874C526.927 325.938 524.93 322.197 524.122 318.125C523.313 314.053 523.728 309.833 525.314 305.997C526.901 302.161 529.588 298.882 533.035 296.576C536.482 294.269 540.535 293.038 544.681 293.038C547.434 293.038 550.16 293.58 552.704 294.635C555.247 295.69 557.558 297.236 559.505 299.185C561.452 301.135 562.996 303.449 564.049 305.996C565.102 308.543 565.644 311.273 565.644 314.03Z" fill="white"/>
</mask>
<g mask="url(#mask9_1649_11777)">
<path d="M576.933 325.858C576.933 325.858 570.372 324.103 570.294 324.633C568.601 336.232 567.869 340.419 567.629 340.539C566.818 340.915 556.462 330.936 554.59 330.226C553.693 329.887 552.713 329.914 551.76 329.918C549.508 329.918 549.065 329.918 549.065 329.918H548.971L548.926 332.037C551.403 334.387 553.835 379.791 554.323 379.772C554.871 379.772 565.159 379.704 564.671 378.844C564.671 378.844 562.183 364.862 560.227 355.645C559.57 352.548 557.735 346.08 557.735 346.08C560.25 347.429 570.08 352.597 571.675 351.988C576.644 350.101 576.933 325.858 576.933 325.858Z" fill="#F47458"/>
<path d="M557.498 353.451C556.372 347.892 553.482 338.762 552.619 336.695C550.679 331.941 549.046 329.93 549.046 329.93L541.359 330.159C541.359 330.159 541.183 330.208 541.13 330.215C540.5 330.317 540.481 352.726 540.823 361.108C541.164 369.489 543.018 380.389 543.018 380.389L545.21 380.183C545.244 381.31 545.27 382.062 545.27 382.062C556.387 384.028 562.595 378.536 562.595 378.536C562.595 378.536 558.962 360.664 557.498 353.451Z" fill="#466EB6"/>
<path d="M541.369 330.155C541.369 330.155 533.773 329.598 531.832 328.651C530.657 328.08 521.086 319.935 521.086 319.935L521.751 298.815L514.886 298.112C514.886 298.112 510.712 321.367 511.883 323.953C513.088 326.625 527.114 337.86 529.854 342.656C531.43 345.415 529.933 382.873 530.443 383.223C534.099 385.249 549.45 387.045 549.21 385.854C542.612 353.327 541.369 330.155 541.369 330.155Z" fill="#F47458"/>
<path d="M541.769 323.374L541.371 330.14C541.371 330.14 546.115 338.841 548.697 337.714C550.863 336.77 549.136 330.196 549.136 330.196C549.136 330.196 548.802 328.693 548.333 326.964C547.988 325.838 547.805 324.669 547.789 323.491C547.905 321.191 541.769 323.374 541.769 323.374Z" fill="#F7A491"/>
<path d="M547.785 323.506C547.901 321.19 541.78 323.374 541.78 323.374L541.742 324.039C541.921 324.334 542.142 324.6 542.399 324.829C544.046 326.179 546.145 326.851 548.269 326.708C547.96 325.668 547.797 324.59 547.785 323.506Z" fill="#F47458"/>
<path d="M548.104 308.055C548.104 308.055 550.536 311.945 550.641 315.166C550.726 316.988 550.512 318.811 550.007 320.563L542.125 310.626L548.104 308.055Z" fill="#184655"/>
<path d="M551.496 314.527C551.582 315.655 551.12 316.613 550.464 316.662C549.807 316.711 549.21 315.839 549.124 314.707C549.037 313.576 549.499 312.625 550.156 312.573C550.813 312.52 551.413 313.399 551.496 314.527Z" fill="#F48C7F"/>
<path d="M539.468 312.113C539.284 312.068 539.059 321.43 541.72 323.704C544.381 325.978 549.083 326.294 550.517 324.114C552.105 321.697 550.915 311.797 546.94 309.594C542.966 307.392 539.468 312.113 539.468 312.113Z" fill="#F7A491"/>
<path d="M538.938 306.291C536.821 308.05 535.785 309.351 534.303 312.546C532.475 316.47 535.782 320.672 538.604 322.382C541.426 324.092 541.607 326.077 541.607 326.077L541.757 324.859C541.826 324.486 541.826 324.104 541.757 323.731C541.665 323.386 541.539 323.051 541.381 322.731C541.152 322.205 540.417 320.397 540.124 319.916C539.351 318.65 539.197 318.375 539.629 317.206C539.959 316.304 539.655 314.286 540.169 312.797L544.042 312.068C544.042 312.068 546.471 311.55 547.724 310.189C551.316 306.235 544.519 301.548 538.938 306.291Z" fill="#184655"/>
<path d="M540.511 318.262C540.958 319.3 540.83 320.356 540.229 320.615C539.629 320.874 538.773 320.239 538.323 319.206C537.872 318.172 538.004 317.112 538.608 316.849C539.212 316.586 540.061 317.214 540.511 318.262Z" fill="#F7A491"/>
</g>
<path d="M444.632 357.681C466.952 356.564 484.143 337.539 483.028 315.187C481.912 292.836 462.914 275.621 440.594 276.738C418.274 277.855 401.084 296.879 402.199 319.231C403.314 341.583 422.312 358.797 444.632 357.681Z" fill="#FBFCFF"/>
<mask id="mask10_1649_11777" style="mask-type:alpha" maskUnits="userSpaceOnUse" x="402" y="276" width="82" height="82">
<path d="M444.632 357.681C466.952 356.564 484.143 337.539 483.028 315.187C481.912 292.836 462.914 275.621 440.594 276.738C418.274 277.855 401.084 296.879 402.199 319.231C403.314 341.583 422.312 358.797 444.632 357.681Z" fill="white"/>
</mask>
<g mask="url(#mask10_1649_11777)">
<path d="M433.234 359.644C433.234 359.644 441.757 348.24 444.868 342.843C447.98 337.445 442.752 340.963 437.407 339.539C435.38 339.001 437.058 327.936 433.234 331.796C426.954 338.129 420.664 351.852 420.664 351.852L433.234 359.644Z" fill="#13375B"/>
<path d="M434.153 331.042C439.667 329.366 449.996 328.49 449.996 328.49C449.996 328.49 456.474 327.438 458.576 327.892C461.673 328.565 467.487 328.873 468.031 342.333C468.406 351.966 469.532 375.785 470.609 391.891L431.199 394.289C432.967 369.527 428.932 332.624 434.153 331.042Z" fill="#47637F"/>
<path d="M444.614 316.987L450.807 328.391C450.807 328.391 446.141 336.716 441.731 336.938C438.027 337.126 438.609 331.642 438.609 331.642C438.609 331.642 438.027 324.557 436.252 321.381C434.476 318.205 444.614 316.987 444.614 316.987Z" fill="#F7A491"/>
<path d="M444.044 321.554C442.244 323.455 440.138 325.039 437.814 326.241C437.438 324.459 436.939 322.621 436.245 321.381C435.423 319.919 437.142 318.87 439.247 318.164C442.043 317.412 444.622 316.987 444.622 316.987L445.812 319.179C445.496 319.949 444.506 321.058 444.044 321.554Z" fill="#F47458"/>
<path d="M441.43 297.778C441.686 297.594 447.811 311.85 445.142 316.981C442.474 322.111 435.497 325.494 431.961 323.021C428.05 320.288 423.775 304.329 428.489 298.496C433.203 292.663 441.43 297.778 441.43 297.778Z" fill="#F7A491"/>
<path d="M428.524 289.952C432.014 289.74 435.483 290.616 438.456 292.459C440.587 292.124 443.71 292.485 447.94 296.481C453.142 301.393 452.328 308.67 449.066 313.019C445.805 317.367 446.901 321.073 446.901 321.073L445.714 319.341C444.817 318.026 444.211 316.534 443.939 314.966C443.756 314.009 443.729 313.029 443.857 312.064C444.254 309.643 440.723 309.095 439.353 307.554C438.294 306.366 437.39 303.235 435.689 301.262L433.933 299.886C433.933 299.886 430.356 298.413 427.657 299.86C424.958 301.307 422.365 290.384 428.524 289.952Z" fill="#F7CC7F"/>
<path d="M440.279 310.15C440.752 311.966 441.983 313.217 443.03 312.947C444.077 312.676 444.531 310.981 444.069 309.165C443.608 307.35 442.365 306.098 441.318 306.373C440.271 306.647 439.806 308.338 440.279 310.15Z" fill="#F7A491"/>
<path d="M435.299 316.04L429.516 317.333C429.516 317.333 430.139 319.502 432.698 319.006C435.821 318.4 435.299 316.04 435.299 316.04Z" fill="#FBFCFF"/>
<path d="M454.067 361.644C454.067 361.644 464.422 348.466 466.948 343.294C469.474 338.122 466.776 329.932 461.757 328.963C456.739 327.993 442.207 351.627 442.207 351.627L454.067 361.644Z" fill="#13375B"/>
</g>
<path d="M80.4258 153.964C94.1422 153.964 105.262 142.829 105.262 129.094C105.262 115.358 94.1422 104.223 80.4258 104.223C66.7093 104.223 55.5898 115.358 55.5898 129.094C55.5898 142.829 66.7093 153.964 80.4258 153.964Z" fill="#FBFCFF"/>
<mask id="mask11_1649_11777" style="mask-type:alpha" maskUnits="userSpaceOnUse" x="55" y="104" width="51" height="50">
<path d="M80.4258 153.964C94.1422 153.964 105.262 142.829 105.262 129.094C105.262 115.358 94.1422 104.223 80.4258 104.223C66.7093 104.223 55.5898 115.358 55.5898 129.094C55.5898 142.829 66.7093 153.964 80.4258 153.964Z" fill="white"/>
</mask>
<g mask="url(#mask11_1649_11777)">
<path d="M85.9304 156.175C85.9304 156.175 80.9274 149.458 79.0733 146.278C77.2192 143.099 80.3231 145.151 83.4721 144.331C84.6618 144.016 83.6747 137.494 85.9304 139.768C89.6273 143.501 93.3355 151.586 93.3355 151.586L85.9304 156.175Z" fill="#96D9C9"/>
<path d="M85.3907 139.32C82.1442 138.335 76.0565 137.816 76.0565 137.816C76.0565 137.816 72.2432 137.196 71.0009 137.463C69.1768 137.858 65.7464 138.038 65.4349 145.973C65.2059 151.648 64.5604 165.687 63.9336 175.17L87.1622 176.583C86.0925 161.981 88.4683 140.256 85.3907 139.32Z" fill="#50BFA5"/>
<path d="M79.2301 131.044L75.582 137.761C75.582 137.761 78.3294 142.666 80.9304 142.812C83.111 142.921 82.7694 139.693 82.7694 139.693C82.7694 139.693 83.111 135.517 84.1581 133.649C85.2052 131.781 79.2301 131.044 79.2301 131.044Z" fill="#F7A491"/>
<path d="M79.5632 133.735C80.6243 134.854 81.8651 135.786 83.2339 136.494C83.4045 135.501 83.7154 134.538 84.1572 133.634C84.6413 132.769 83.628 132.153 82.3969 131.736C80.7492 131.3 79.2292 131.044 79.2292 131.044L78.5273 132.333C78.8018 132.849 79.1508 133.321 79.5632 133.735Z" fill="#F47458"/>
<path d="M81.1047 119.723C80.9545 119.617 77.3515 128.018 78.9166 131.036C80.4817 134.054 84.5989 136.054 86.682 134.599C88.9864 132.987 91.5048 123.583 88.7275 120.147C85.9501 116.712 81.1047 119.723 81.1047 119.723Z" fill="#F7A491"/>
<path d="M88.7086 115.111C86.6529 114.989 84.6096 115.505 82.8573 116.588C81.6038 116.397 79.7609 116.588 77.2688 118.96C74.2062 121.854 74.6829 126.143 76.6008 128.714C78.5186 131.285 77.8768 133.461 77.8768 133.461L78.5787 132.439C79.106 131.663 79.4617 130.784 79.6221 129.86C79.7299 129.296 79.7464 128.719 79.6709 128.15C79.4344 126.726 81.5174 126.402 82.3281 125.496C82.9512 124.797 83.4879 122.952 84.4862 121.79L85.5221 120.979C85.5221 120.979 87.6314 120.11 89.219 120.979C90.8066 121.847 92.3379 115.374 88.7086 115.111Z" fill="#184655"/>
<path d="M81.787 127.026C81.5092 128.097 80.7811 128.833 80.1656 128.672C79.55 128.51 79.2761 127.514 79.5538 126.447C79.8315 125.379 80.5559 124.639 81.1714 124.8C81.7869 124.962 82.0609 125.947 81.787 127.026Z" fill="#F7A491"/>
<path d="M84.7225 130.484L88.1267 131.236C88.0075 131.615 87.7431 131.932 87.3914 132.117C87.0397 132.301 86.6293 132.339 86.2501 132.221C84.4148 131.879 84.7225 130.484 84.7225 130.484Z" fill="#FBFCFF"/>
<path d="M73.6565 157.354C73.6565 157.354 67.5575 149.577 66.0675 146.54C64.5774 143.503 66.1688 138.669 69.1263 138.098C72.0839 137.527 80.6449 151.456 80.6449 151.456L73.6565 157.354Z" fill="#96D9C9"/>
</g>
<path d="M211.432 217.415C216.293 196.789 203.537 176.123 182.94 171.255C162.344 166.387 141.706 179.161 136.845 199.786C131.984 220.412 144.74 241.078 165.336 245.946C185.933 250.814 206.57 238.04 211.432 217.415Z" fill="#FBFCFF"/>
<mask id="mask12_1649_11777" style="mask-type:alpha" maskUnits="userSpaceOnUse" x="135" y="170" width="78" height="77">
<path d="M211.432 217.415C216.293 196.789 203.537 176.123 182.94 171.255C162.344 166.387 141.706 179.161 136.845 199.786C131.984 220.412 144.74 241.078 165.336 245.946C185.933 250.814 206.57 238.04 211.432 217.415Z" fill="white"/>
</mask>
<g mask="url(#mask12_1649_11777)">
<path d="M195.448 223.116C196.101 223.143 197.888 223.74 200.504 228.69C203.844 235.012 208.727 254.11 208.727 254.11L194.153 259.545L192.277 255.557L189.191 224.872C189.191 224.872 195.268 223.109 195.448 223.116Z" fill="#8CA5D2"/>
<path d="M176.182 220.359C180.348 220.359 190.659 221.585 195.444 223.114C195.444 223.114 198.961 253.371 192.28 276.367C190.779 281.512 193.515 297.701 193.515 297.701L150.352 297.129C150.352 297.129 155.467 257.995 153.538 251.673C151.609 245.351 151.568 223.317 151.568 223.317C151.568 223.317 151.86 223.272 161.266 221.645C166.198 220.836 171.185 220.407 176.182 220.359Z" fill="#466EB6"/>
<path d="M151.086 226.683C155.124 225.179 157.091 261.593 157.643 276.59C164.774 277.278 177.254 276.59 180.358 276.361C181.818 276.252 185.181 275.015 186.634 274.827C188.086 274.639 189.467 274.53 190.199 274.658C190.469 274.703 197.92 277.755 198.558 278.417C199.35 279.247 201.486 281.341 201.125 282.247C200.765 283.153 196.997 279.725 196.997 279.725L195.161 278.695C197.443 280.927 201.797 283.867 201.167 284.934C200.536 286.002 196.651 283.01 193.855 280.973C196.253 283.141 199.234 287.024 198.547 287.629C197.931 288.174 194.538 283.679 190.916 282.367C189.572 281.89 188.232 283.216 187.163 283.378C186.386 283.495 185.189 283.754 184.427 283.528L180.501 282.401C179.164 282.521 179.131 283.314 177.783 283.6C176.214 283.934 173.654 284.288 171.646 284.776C160.157 287.588 156.325 288.911 152.805 288.911C142.164 288.915 141.545 230.269 151.086 226.683Z" fill="#F7A491"/>
<path d="M143.423 260.882C142.672 245.525 142.777 226.592 151.376 223.364C154.754 222.09 160.759 229.753 159.67 261.194C155.08 261.585 148.343 261.878 143.423 260.882Z" fill="#8CA5D2"/>
<path d="M185.871 183.405C184.64 182.998 183.435 182.515 182.264 181.958C180.943 181.319 179.231 180.575 178.135 180.406C175.861 180.056 171.953 180.289 169.795 182.634C167.104 185.555 162.326 183.161 163.291 198.462C164.379 215.778 173.995 213.872 174.228 213.587C174.461 213.301 182.804 202.506 182.804 202.506C182.804 202.506 185.721 208.896 185.721 208.659C185.721 208.422 200.629 188.381 185.871 183.405Z" fill="#0E2E35"/>
<path d="M178.574 214.864L179.403 221.051C179.403 221.051 181.28 229.966 178.87 231.684C176.461 233.402 168.699 220.784 168.699 220.784L169.514 205.118L178.574 214.864Z" fill="#F7A491"/>
<path d="M169.254 210.2C171.232 215.548 175.938 218.845 179.279 220.111L178.573 214.849L169.513 205.118L169.254 210.2Z" fill="#F47458"/>
<path d="M178.076 188.056C179.265 187.876 180.479 187.958 181.633 188.297C182.787 188.636 183.853 189.224 184.757 190.019C185.661 190.813 186.38 191.796 186.865 192.898C187.35 194.001 187.588 195.196 187.564 196.4C187.504 199.058 187.272 201.71 186.869 204.338C185.77 211.479 180.902 217.771 177.685 217.211C174.469 216.651 166.369 210.487 167.796 200.32C168.678 194.043 172.757 188.916 178.076 188.056Z" fill="#F7A491"/>
<path d="M170.032 201.533C169.762 203.104 168.505 204.198 167.225 203.972C165.945 203.747 165.131 202.296 165.405 200.725C165.679 199.154 166.932 198.06 168.208 198.285C169.484 198.511 170.303 199.962 170.032 201.533Z" fill="#F7A491"/>
<path d="M168.212 198.286C168.212 198.286 172.104 199.252 173.549 196.749C174.994 194.246 180.154 188.833 186.715 191.077C193.276 193.321 180.943 185.623 180.417 185.623L173.59 185.582C173.59 185.582 168.733 189.581 168.561 190.021C168.388 190.461 166.984 195.253 166.984 195.253L168.212 198.286Z" fill="#0E2E35"/>
<path d="M175.331 208.742L182.41 210.095C182.41 210.095 181.734 212.768 178.604 212.26C174.787 211.644 175.331 208.742 175.331 208.742Z" fill="#FBFCFF"/>
</g>
<path d="M281.885 308.01C281.885 312.117 280.668 316.132 278.39 319.547C276.111 322.962 272.872 325.624 269.083 327.195C265.294 328.767 261.124 329.178 257.102 328.377C253.079 327.576 249.384 325.598 246.484 322.694C243.584 319.789 241.609 316.089 240.809 312.061C240.008 308.033 240.419 303.857 241.989 300.063C243.558 296.268 246.216 293.025 249.626 290.743C253.037 288.461 257.046 287.243 261.147 287.243C266.647 287.243 271.922 289.431 275.811 293.326C279.7 297.22 281.885 302.502 281.885 308.01Z" fill="#FBFCFF"/>
<mask id="mask13_1649_11777" style="mask-type:alpha" maskUnits="userSpaceOnUse" x="240" y="287" width="42" height="42">
<path d="M281.885 308.01C281.885 312.117 280.668 316.132 278.39 319.547C276.111 322.962 272.872 325.624 269.083 327.195C265.294 328.767 261.124 329.178 257.102 328.377C253.079 327.576 249.384 325.598 246.484 322.694C243.584 319.789 241.609 316.089 240.809 312.061C240.008 308.033 240.419 303.857 241.989 300.063C243.558 296.268 246.216 293.025 249.626 290.743C253.037 288.461 257.046 287.243 261.147 287.243C266.647 287.243 271.922 289.431 275.811 293.326C279.7 297.22 281.885 302.502 281.885 308.01Z" fill="white"/>
</mask>
<g mask="url(#mask13_1649_11777)">
<path d="M271.403 315.063C271.741 315.063 272.671 315.386 274.03 317.96C275.768 321.245 278.305 331.172 278.305 331.172L270.731 333.995L269.759 331.924L268.156 315.976C268.156 315.976 271.309 315.059 271.403 315.063Z" fill="#FADFAE"/>
<path d="M261.398 313.631C263.563 313.631 268.904 314.266 271.407 315.063C271.407 315.063 273.235 330.789 269.763 342.741C268.987 345.414 270.405 353.829 270.405 353.829L247.965 353.533C247.965 353.533 250.622 333.191 249.62 329.906C248.618 326.621 248.595 315.168 248.595 315.168C248.595 315.168 248.749 315.146 253.636 314.296C256.203 313.877 258.797 313.655 261.398 313.631Z" fill="#F7CC7F"/>
<path d="M248.353 316.915C250.451 316.125 251.476 335.061 251.761 342.849C255.477 343.206 261.951 342.849 263.565 342.733C264.316 342.672 266.072 342.034 266.827 341.932C267.439 341.826 268.062 341.797 268.681 341.846C268.82 341.872 272.693 343.458 273.023 343.804C273.436 344.236 274.547 345.307 274.36 345.796C274.172 346.285 272.224 344.484 272.224 344.484L271.271 343.947C272.457 345.108 274.716 346.634 274.393 347.194C274.071 347.754 272.033 346.183 270.58 345.127C271.826 346.254 273.376 348.273 273.02 348.589C272.663 348.904 270.937 346.536 269.052 345.864C268.354 345.612 267.66 346.303 267.108 346.386C266.644 346.498 266.163 346.525 265.689 346.465L263.648 345.886C262.953 345.95 262.934 346.36 262.233 346.51C261.422 346.683 260.082 346.867 259.046 347.123C253.074 348.581 251.081 349.261 249.254 349.261C243.714 349.261 243.391 318.779 248.353 316.915Z" fill="#F7A491"/>
<path d="M244.367 334.69C243.973 326.71 244.03 316.87 248.496 315.19C250.26 314.529 253.375 318.513 252.808 334.852C250.425 335.051 246.923 335.209 244.367 334.69Z" fill="#FADFAE"/>
<path d="M266.428 294.423C265.788 294.211 265.161 293.96 264.551 293.672C263.874 293.315 263.156 293.043 262.412 292.864C261.23 292.679 259.199 292.803 258.077 294.021C256.681 295.525 254.196 294.296 254.699 302.249C255.266 311.27 260.265 310.262 260.385 310.108C260.505 309.954 264.84 304.35 264.84 304.35C264.84 304.35 266.341 307.673 266.341 307.549C266.341 307.424 274.099 297.009 266.428 294.423Z" fill="#0E2E35"/>
<path d="M262.631 310.772L263.062 313.99C263.062 313.99 264.031 318.624 262.788 319.515C261.546 320.406 257.5 313.877 257.5 313.877L257.928 305.725L262.631 310.772Z" fill="#BF7154"/>
<path d="M257.793 308.348C258.818 311.13 261.265 312.836 263.002 313.498L262.627 310.773L257.924 305.706L257.793 308.348Z" fill="#96482A"/>
<path d="M262.38 296.841C262.999 296.746 263.631 296.787 264.231 296.963C264.832 297.139 265.387 297.444 265.857 297.857C266.327 298.271 266.701 298.782 266.952 299.356C267.204 299.93 267.327 300.552 267.312 301.178C267.277 302.563 267.152 303.944 266.937 305.313C266.366 309.026 263.837 312.296 262.163 312.003C260.489 311.71 256.281 308.508 257.025 303.227C257.494 299.953 259.618 297.296 262.38 296.841Z" fill="#BF7154"/>
<path d="M258.195 303.845C258.053 304.661 257.399 305.228 256.735 305.112C256.071 304.995 255.647 304.24 255.789 303.424C255.932 302.609 256.581 302.037 257.246 302.154C257.91 302.27 258.334 303.026 258.195 303.845Z" fill="#BF7154"/>
<path d="M257.247 302.155C257.247 302.155 259.27 302.658 260.021 301.358C260.771 300.057 263.455 297.242 266.866 298.407C270.278 299.573 263.864 295.577 263.59 295.577L260.043 295.551C260.043 295.551 257.521 297.633 257.416 297.862C257.311 298.092 256.598 300.58 256.598 300.58L257.247 302.155Z" fill="#0E2E35"/>
<path d="M260.951 307.59L264.629 308.296C264.629 308.296 264.28 309.683 262.651 309.424C260.67 309.101 260.951 307.59 260.951 307.59Z" fill="#FBFCFF"/>
</g>
<path d="M642.851 118.949C644.375 103.559 633.151 89.8473 617.783 88.3221C602.415 86.7968 588.722 98.0361 587.199 113.426C585.676 128.815 596.9 142.527 612.268 144.053C627.635 145.578 641.328 134.339 642.851 118.949Z" fill="#FBFCFF"/>
<mask id="mask14_1649_11777" style="mask-type:alpha" maskUnits="userSpaceOnUse" x="587" y="88" width="56" height="57">
<path d="M642.851 118.949C644.375 103.559 633.151 89.8473 617.783 88.3221C602.415 86.7968 588.722 98.0361 587.199 113.426C585.676 128.815 596.9 142.527 612.268 144.053C627.635 145.578 641.328 134.339 642.851 118.949Z" fill="white"/>
</mask>
<g mask="url(#mask14_1649_11777)">
<path d="M594.602 152.652L606.353 153.854C606.353 153.854 606.893 144.206 606.893 139.605C606.893 134.024 606.417 126.826 605.745 126.984C603.868 127.42 601.312 128.465 599.796 130.551C594.553 137.764 594.602 152.652 594.602 152.652Z" fill="#B75742"/>
<path d="M600.388 138.62C600.144 140.322 595.625 186.599 595.625 186.599C617.019 196.946 628.831 188.444 628.831 188.444C628.831 188.444 628.129 155.947 628.97 151.523C629.525 148.595 630.216 129.152 628.32 128.595C625.626 127.764 622.862 127.175 620.063 126.836C617.469 126.57 607.399 126.412 605.598 127.017C602.805 130.316 600.999 134.338 600.388 138.62Z" fill="#F47458"/>
<path d="M617.191 117.904L618.572 127.007C618.572 127.007 613.524 137.847 610.521 136.907C607.999 136.118 609.549 126.526 609.549 126.526C609.549 126.526 610.927 121.376 610.514 118.802C610.101 116.227 617.191 117.904 617.191 117.904Z" fill="#F7A491"/>
<path d="M610.521 118.802C610.108 116.224 617.19 117.904 617.19 117.904L617.307 118.656C617.135 119.121 616.88 119.551 616.556 119.926C614.918 121.61 612.707 122.612 610.363 122.734C610.6 121.437 610.653 120.114 610.521 118.802Z" fill="#F47458"/>
<path d="M618.35 105.026C618.549 104.954 619.957 115.392 617.288 118.267C614.62 121.143 609.429 122.079 607.567 119.816C605.507 117.313 605.612 106.093 609.755 103.139C613.899 100.185 618.35 105.026 618.35 105.026Z" fill="#F7A491"/>
<path d="M611.338 97.554C613.66 98.0512 615.771 99.2566 617.381 101.004C618.834 101.174 620.812 101.982 622.853 105.364C625.364 109.529 623.51 114.141 620.601 116.404C617.693 118.666 617.723 121.29 617.723 121.29L617.261 119.937C616.91 118.915 616.782 117.829 616.886 116.753C616.94 116.094 617.1 115.448 617.359 114.84C618.06 113.336 615.857 112.325 615.227 111.081C614.75 110.115 614.728 107.901 613.973 106.3L613.076 105.079C613.076 105.079 611.001 103.463 608.974 103.917C606.947 104.372 607.229 96.712 611.338 97.554Z" fill="#0E2E35"/>
<path d="M615.36 112.915C615.337 114.186 615.915 115.231 616.651 115.242C617.387 115.253 617.998 114.234 618.017 112.96C618.036 111.686 617.462 110.641 616.726 110.63C615.991 110.619 615.379 111.641 615.36 112.915Z" fill="#F7A491"/>
<path d="M611.028 115.859L607.012 115.648C607.012 115.648 607.012 117.182 608.787 117.325C610.941 117.498 611.028 115.859 611.028 115.859Z" fill="#FBFCFF"/>
<path d="M650.006 187.093C650.017 186.993 650.017 186.892 650.006 186.792C649.691 183.589 647.034 156.678 646.587 155.531C646.182 154.501 634.265 137.43 634.265 137.43L628.414 145.443L639.873 160.752C640.132 161.722 644.264 179.891 644.264 179.891C644.264 179.891 645.112 183.202 645.491 185.183C645.319 185.664 645.15 186.115 644.999 186.484C644.654 187.185 644.241 187.851 643.765 188.472C643.183 189.28 642.692 190.15 642.301 191.065C642.177 191.531 641.959 192.501 641.836 193.088C641.712 193.674 641.543 194.358 641.513 194.677C641.433 194.979 641.306 195.265 641.137 195.527C641.084 195.617 641.059 195.722 641.067 195.826C641.074 195.931 641.113 196.031 641.179 196.113C641.245 196.195 641.334 196.254 641.434 196.284C641.535 196.314 641.642 196.312 641.742 196.279C642.155 196.14 642.492 195.602 642.68 195.264C643.243 194.313 643.543 192.58 643.686 192.674C643.828 192.768 644.32 195.707 644.399 196.038C644.478 196.369 645.067 199.797 645.405 200.409C645.743 201.022 646.182 200.928 646.298 200.537C646.414 200.146 645.923 195.425 645.923 195.425C645.923 195.425 645.863 194.813 646.129 195.004C646.396 195.196 646.831 199.534 647.015 200.169C647.199 200.804 647.623 201.139 647.983 200.627C648.419 200.007 647.668 195.407 647.668 195.407C647.668 195.407 647.585 194.828 647.833 194.884C648.081 194.941 648.389 198.643 648.584 198.955C648.629 199.044 648.7 199.116 648.787 199.164C648.875 199.211 648.974 199.23 649.073 199.219C649.172 199.208 649.265 199.167 649.34 199.102C649.415 199.037 649.468 198.95 649.492 198.853C649.762 198.226 649.06 194.125 649.06 194.125C649.06 194.125 649.094 193.798 649.248 193.907C649.402 194.016 649.89 197.147 650.209 197.436C650.24 197.47 650.278 197.496 650.32 197.515C650.362 197.533 650.407 197.542 650.453 197.542C650.499 197.542 650.544 197.533 650.586 197.515C650.628 197.496 650.666 197.47 650.697 197.436C651.282 197.038 650.385 194.054 650.397 192.576C650.408 191.099 649.717 189.43 649.924 187.668C649.931 187.54 649.984 187.262 650.006 187.093Z" fill="#F8A492"/>
<path d="M643.576 148.239L633.412 155.084C633.412 155.084 627.673 146.536 624.592 143.492C620.734 139.677 625.999 127.999 628.484 128.657C634.027 130.137 643.576 148.239 643.576 148.239Z" fill="#F47458"/>
</g>
<path d="M734.131 216.143C734.131 220.915 732.718 225.579 730.071 229.546C727.424 233.513 723.662 236.605 719.26 238.43C714.858 240.256 710.014 240.734 705.341 239.803C700.668 238.871 696.376 236.574 693.007 233.2C689.639 229.826 687.345 225.527 686.416 220.847C685.486 216.168 685.964 211.317 687.788 206.909C689.612 202.502 692.7 198.734 696.662 196.084C700.624 193.434 705.281 192.02 710.046 192.021C713.209 192.021 716.341 192.644 719.264 193.857C722.186 195.069 724.841 196.846 727.078 199.086C729.315 201.326 731.089 203.986 732.299 206.912C733.509 209.839 734.132 212.976 734.131 216.143Z" fill="#FBFCFF"/>
<mask id="mask15_1649_11777" style="mask-type:alpha" maskUnits="userSpaceOnUse" x="685" y="192" width="50" height="49">
<path d="M734.131 216.143C734.131 220.915 732.718 225.579 730.071 229.546C727.424 233.513 723.662 236.605 719.26 238.43C714.858 240.256 710.014 240.734 705.341 239.803C700.668 238.871 696.376 236.574 693.007 233.2C689.639 229.826 687.345 225.527 686.416 220.847C685.486 216.168 685.964 211.317 687.788 206.909C689.612 202.502 692.7 198.734 696.662 196.084C700.624 193.434 705.281 192.02 710.046 192.021C713.209 192.021 716.341 192.644 719.264 193.857C722.186 195.069 724.841 196.846 727.078 199.086C729.315 201.326 731.089 203.986 732.299 206.912C733.509 209.839 734.132 212.976 734.131 216.143Z" fill="white"/>
</mask>
<g mask="url(#mask15_1649_11777)">
<path d="M698.547 233.639C701.55 224.46 704.95 224.851 704.95 224.851L702.323 244.148C700.447 243.637 698.029 242.502 696.164 241.972C696.816 239.155 697.611 236.374 698.547 233.639Z" fill="#47637F"/>
<path d="M699.479 209.767C700.402 203.731 705.859 199.389 711.56 202.321C713.046 203.113 714.371 204.176 715.467 205.456C717.862 208.534 718.47 212.334 720.951 215.326C719.903 216.116 718.793 216.822 717.633 217.435L716.09 215.379L716.623 217.946C712.795 219.78 707.387 221.295 699.989 221.25C699.129 217.484 698.956 213.594 699.479 209.767Z" fill="#F7CC7F"/>
<path d="M712.683 223.2C712.683 223.2 717.589 222.557 719.792 224.966C721.995 227.376 715.566 246.725 715.168 249.773C714.77 252.822 717.979 260.527 717.979 260.527C717.979 260.527 703.953 263.158 700.215 260.685C700.215 260.685 699.99 239.099 700.392 236.908C700.793 234.716 704.145 225.812 704.929 224.933C705.714 224.053 712.683 223.2 712.683 223.2Z" fill="#13375B"/>
<path d="M710.829 215.731L710.911 216.174C711.159 217.516 712.112 221.974 712.761 223.199C713.538 224.68 710.089 229.401 706.756 228.837C705.769 228.664 707.593 224.5 707.507 224.056C707.338 223.21 707.109 222.06 706.876 220.876C706.745 220.211 706.614 219.535 706.501 218.899L705.859 215.614L710.829 215.731Z" fill="#F7A491"/>
<path opacity="0.5" d="M710.911 216.178L710.828 215.734L705.852 215.606L706.493 218.891C706.621 219.523 706.752 220.196 706.869 220.857C707.759 220.698 708.585 220.282 709.244 219.662C710.068 218.938 710.689 218.012 711.046 216.975C710.997 216.659 710.948 216.384 710.911 216.178Z" fill="#F47458"/>
<path d="M707.48 204.377C707.48 204.377 709.826 204.103 711.297 206.012C712.768 207.921 714.356 213.826 710.7 217.04C707.044 220.253 703.438 216.615 702.901 212.762C702.364 208.91 702.158 204.238 707.48 204.377Z" fill="#F7A491"/>
<path d="M701.818 212.725C702.254 213.574 702.985 214.044 703.455 213.777C703.924 213.511 703.946 212.597 703.511 211.748C703.075 210.898 702.34 210.425 701.874 210.695C701.409 210.966 701.383 211.853 701.818 212.725Z" fill="#F7A491"/>
<path d="M707.211 203.745C707.211 203.745 710.349 209.361 712.589 209.62C714.83 209.879 715.126 212.864 715.126 212.864C715.126 212.864 714.327 205.985 712.105 204.662C709.883 203.339 707.211 203.745 707.211 203.745Z" fill="#F7CC7F"/>
<path d="M712.008 211.03C711.824 212.026 712.192 212.944 712.827 213.075C713.461 213.207 714.121 212.504 714.305 211.504C714.489 210.504 714.121 209.595 713.487 209.463C712.853 209.332 712.188 210.034 712.008 211.03Z" fill="#F7A491"/>
<path d="M709.241 214.653L705.863 215.322C705.975 215.698 706.229 216.016 706.571 216.207C706.914 216.398 707.317 216.447 707.695 216.345C709.511 216.04 709.241 214.653 709.241 214.653Z" fill="#FBFCFF"/>
<path d="M718.905 224.297C718.905 224.297 720.755 225.177 722.384 228.973C723.93 232.585 724.384 250.593 724.384 250.593L717.628 249.465L715.121 241.162C714.344 237.874 713.474 230.262 716.713 225.846C717.583 224.673 718.379 223.955 718.905 224.297Z" fill="#47637F"/>
</g>
<path d="M136.598 330.936C139.25 314.573 128.154 299.155 111.813 296.498C95.4729 293.842 80.0762 304.954 77.4237 321.318C74.7713 337.681 85.8676 353.1 102.208 355.756C118.549 358.412 133.945 347.3 136.598 330.936Z" fill="#FBFCFF"/>
<mask id="mask16_1649_11777" style="mask-type:alpha" maskUnits="userSpaceOnUse" x="77" y="296" width="60" height="61">
<path d="M136.598 330.936C139.25 314.573 128.154 299.155 111.813 296.498C95.4729 293.842 80.0762 304.954 77.4237 321.318C74.7713 337.681 85.8676 353.1 102.208 355.756C118.549 358.412 133.945 347.3 136.598 330.936Z" fill="white"/>
</mask>
<g mask="url(#mask16_1649_11777)">
<path d="M119.16 322.477C119.375 318.912 118.701 315.349 117.197 312.111C115.831 309.265 112.453 307.649 109.371 307.646C99.5902 307.646 98.3441 320.579 92.106 325.57C90.2031 327.096 88.0787 328.337 86.2771 329.983C79.6261 336.061 82.6213 347.307 88.728 352.633C92.9655 356.327 99.6127 358.428 104.845 355.538C107.57 354.035 109.638 351.524 111.113 348.773C113.204 344.875 114.555 340.376 116.041 336.219C117.636 331.814 118.965 327.209 119.16 322.477Z" fill="#F7CC7F"/>
<path d="M115.5 355.178C115.5 355.178 108.193 347.66 106.316 344.417C104.44 341.173 107.596 343.289 110.82 342.421C112.04 342.098 111.732 334.904 114.044 337.253C117.835 341.079 122.601 347.777 122.601 347.777L115.5 355.178Z" fill="#F47458"/>
<path d="M105.112 333.967C105.112 333.967 98.566 332.67 95.5634 335.173C92.5608 337.676 96.2052 359.935 96.2015 363.622C96.1977 367.309 94.1484 376.95 94.1484 376.95C94.1484 376.95 114.022 381.224 117.178 375.684C117.178 375.684 118.075 354.579 117.929 351.925C117.782 349.272 114.851 338.421 114.037 337.267C113.222 336.113 105.112 333.967 105.112 333.967Z" fill="#B75742"/>
<path d="M105.071 323.808C105.071 323.808 105.037 324.007 104.977 324.341C104.68 325.943 103.532 331.257 102.759 332.719C101.824 334.486 105.96 340.12 109.942 339.432C111.125 339.229 108.94 334.257 109.045 333.731C109.244 332.723 109.518 331.348 109.796 329.938L110.265 327.578C110.689 325.424 111.038 323.661 111.038 323.661L105.071 323.808Z" fill="#F7A491"/>
<path d="M104.977 324.356C105.037 324.022 105.071 323.822 105.071 323.822L111.038 323.676C111.038 323.676 110.689 325.439 110.265 327.592C110.115 328.344 109.958 329.148 109.8 329.938C108.733 329.748 107.743 329.254 106.951 328.513C105.966 327.65 105.223 326.543 104.797 325.303C104.868 324.912 104.947 324.589 104.977 324.356Z" fill="#F47458"/>
<path d="M109.075 310.257C109.075 310.257 106.264 309.934 104.5 312.212C102.736 314.489 100.84 321.533 105.217 325.367C109.593 329.201 113.92 324.863 114.562 320.266C115.204 315.669 115.455 310.092 109.075 310.257Z" fill="#F7A491"/>
<path d="M113.468 309.104C113.468 309.104 107.988 316.967 102.768 315.911L102.625 312.559L103.105 311.288L105.733 309.585L110.03 308.604L113.468 309.104Z" fill="#F7CC7F"/>
<path d="M115.864 320.196C115.342 321.211 114.464 321.771 113.905 321.452C113.346 321.132 113.316 320.046 113.837 319.031C114.359 318.016 115.237 317.453 115.796 317.776C116.356 318.099 116.386 319.181 115.864 320.196Z" fill="#F7A491"/>
<path d="M103.662 318.196C103.88 319.388 103.441 320.478 102.679 320.636C101.917 320.794 101.125 319.952 100.907 318.757C100.69 317.561 101.129 316.475 101.891 316.321C102.653 316.167 103.444 317.009 103.662 318.196Z" fill="#F7A491"/>
<path d="M110.777 322.853L106.648 322.639C106.648 322.639 106.648 324.214 108.473 324.36C110.687 324.518 110.777 322.853 110.777 322.853Z" fill="#FBFCFF"/>
<path d="M110.777 322.853L106.648 322.639C106.648 322.639 106.648 324.214 108.473 324.36C110.687 324.518 110.777 322.853 110.777 322.853Z" fill="#FBFCFF"/>
<path d="M98.0362 354.917C98.0362 354.917 93.7312 345.367 93.0782 341.646C92.4251 337.924 95.6003 333.283 98.9257 333.583C102.251 333.884 107.239 350.377 107.239 350.377L98.0362 354.917Z" fill="#F47458"/>
</g>
</svg>
