<?xml version="1.0" encoding="UTF-8"?>
<svg width="41px" height="41px" viewBox="0 0 41 41" version="1.1" xmlns="http://www.w3.org/2000/svg" xmlns:xlink="http://www.w3.org/1999/xlink">
    <!-- Generator: sketchtool 52.5 (67469) - http://www.bohemiancoding.com/sketch -->
    <title>C66C4A34-1C94-4BD6-912E-BDADF1FC0D9A@1.5x</title>
    <desc>Created with sketchtool.</desc>
    <g id="Pricing" stroke="none" stroke-width="1" fill="none" fill-rule="evenodd">
        <g id="01---Pricing_faq_expanded_A" transform="translate(-1176.000000, -423.000000)" fill-rule="nonzero">
            <g id="Plans" transform="translate(256.000000, 292.000000)">
                <g id="Select" transform="translate(638.000000, 102.000000)">
                    <g id="Group-3">
                        <g id="Group-4" transform="translate(33.000000, 0.000000)">
                            <g id="Group-19" transform="translate(247.000000, 1.000000)">
                                <g id="Group-18">
                                    <g id="Group-14" transform="translate(2.000000, 0.000000)">
                                        <g id="CV_Search" transform="translate(0.000000, 28.000000)">
                                            <path d="M38.5976562,0 L10.0898438,0 C8.76519141,0 7.6875,1.07769141 7.6875,2.40234375 L7.6875,5.125 C7.6875,5.56719141 8.04600977,5.92578125 8.48828125,5.92578125 C8.93055273,5.92578125 9.2890625,5.56719141 9.2890625,5.125 L9.2890625,2.40234375 C9.2890625,1.96079297 9.64829297,1.6015625 10.0898438,1.6015625 L38.5976562,1.6015625 C39.039207,1.6015625 39.3984375,1.96079297 39.3984375,2.40234375 L39.3984375,38.5976562 C39.3984375,39.039207 39.039207,39.3984375 38.5976562,39.3984375 L10.0898438,39.3984375 C9.64829297,39.3984375 9.2890625,39.039207 9.2890625,38.5976562 L9.2890625,36.0083301 C9.2890625,35.5661387 8.93055273,35.2075488 8.48828125,35.2075488 C8.04600977,35.2075488 7.6875,35.5661387 7.6875,36.0083301 L7.6875,38.5976562 C7.6875,39.9223086 8.76519141,41 10.0898438,41 L38.5976562,41 C39.9223086,41 41,39.9223086 41,38.5976562 L41,2.40234375 C41,1.07769141 39.9223086,0 38.5976562,0 Z" id="Shape" fill="#4353FF"></path>
                                            <path d="M34.7453379,30.9101562 L15.5265879,30.9101562 C15.0843164,30.9101562 14.7258066,31.2687461 14.7258066,31.7109375 C14.7258066,32.1531289 15.0843164,32.5117188 15.5265879,32.5117188 L34.7453379,32.5117188 C35.1876094,32.5117188 35.5461191,32.1531289 35.5461191,31.7109375 C35.5461191,31.2687461 35.1876094,30.9101562 34.7453379,30.9101562 Z" id="Shape" fill="#22DDAB"></path>
                                            <path d="M35.31125,35.3088477 C35.1623047,35.1598223 34.9565039,35.0742188 34.7450977,35.0742188 C34.5344922,35.0742188 34.3278906,35.1598223 34.1789453,35.3088477 C34.03,35.457873 33.9443164,35.6643945 33.9443164,35.875 C33.9443164,36.0856055 34.03,36.292207 34.1789453,36.4410723 C34.3278906,36.5900176 34.5344922,36.6757812 34.7450977,36.6757812 C34.9565039,36.6757812 35.1623047,36.5900977 35.31125,36.4410723 C35.4601953,36.292207 35.5458789,36.0856055 35.5458789,35.875 C35.5458789,35.6643945 35.4601953,35.457793 35.31125,35.3088477 Z" id="Shape" fill="#22DDAB"></path>
                                            <path d="M31.4707031,35.0742188 L15.5265879,35.0742188 C15.0843164,35.0742188 14.7258066,35.4328086 14.7258066,35.875 C14.7258066,36.3171914 15.0843164,36.6757812 15.5265879,36.6757812 L31.4707031,36.6757812 C31.9129746,36.6757812 32.2714844,36.3171914 32.2714844,35.875 C32.2714844,35.4328086 31.9129746,35.0742188 31.4707031,35.0742188 Z" id="Shape" fill="#22DDAB"></path>
                                            <path d="M21.1387832,7.0282168 C16.3734941,7.0282168 12.4965918,10.9051191 12.4965918,15.6704883 C12.4964316,18.1439414 13.541291,20.3778008 15.2124414,21.9546191 C15.2408691,21.9854492 15.271459,22.0144375 15.3049316,22.0407031 C16.8433926,23.4507988 18.8921914,24.3125996 21.1387031,24.3125996 C23.3852148,24.3125996 25.4339336,23.4507187 26.9724746,22.0407031 C27.0059473,22.0144375 27.0365371,21.9853691 27.0649648,21.9546191 C28.7361152,20.3778008 29.7809746,18.1439414 29.7809746,15.6704883 C29.7809746,10.9051191 25.9040723,7.0282168 21.1387832,7.0282168 Z M21.1387031,22.7110371 C19.4936582,22.7110371 17.9788203,22.1438437 16.7789297,21.194918 C17.6290391,19.5867891 19.2854551,18.575002 21.1387031,18.575002 C22.9919512,18.575002 24.6483672,19.5867891 25.4984766,21.194918 C24.2985859,22.1438437 22.783748,22.7110371 21.1387031,22.7110371 Z M19.4531387,15.2879551 L19.4531387,14.6663086 C19.4531387,13.7369219 20.2092363,12.9807441 21.138623,12.9807441 C22.0680098,12.9807441 22.8241074,13.7368418 22.8241074,14.6663086 L22.8241074,15.2879551 C22.8241074,16.2172617 22.0680098,16.9734395 21.138623,16.9734395 C20.2092363,16.9734395 19.4531387,16.2173418 19.4531387,15.2879551 Z M26.6697793,20.0220137 C25.9368242,18.8529531 24.8643379,17.9613633 23.6091133,17.4527871 C24.1168887,16.8740625 24.42575,16.1166035 24.42575,15.2880352 L24.42575,14.6663887 C24.42575,12.8538203 22.9511914,11.3792617 21.1387031,11.3792617 C19.3262148,11.3792617 17.8516563,12.8538203 17.8516563,14.6663887 L17.8516563,15.2880352 C17.8516563,16.1166035 18.1605176,16.8740625 18.668293,17.4527871 C17.4130684,17.9614434 16.340582,18.8529531 15.607627,20.0220137 C14.662625,18.8234844 14.0980742,17.3116895 14.0980742,15.6704883 C14.0979941,11.7882207 17.2564355,8.6297793 21.1387031,8.6297793 C25.0208906,8.6297793 28.179332,11.7882207 28.179332,15.6704883 C28.179332,17.3116895 27.6147813,18.8234844 26.6697793,20.0220137 Z" id="Shape" fill="#EDB726"></path>
                                            <path d="M21.1387031,3.203125 C14.2642363,3.203125 8.67141992,8.79594141 8.67141992,15.6704082 C8.67141992,19.6449258 10.5409238,23.1911055 13.4467187,25.4755742 L4.15237109,34.7698418 C3.56980273,35.3524102 2.62183789,35.3524102 2.03918945,34.7698418 C1.75699414,34.4876465 1.6015625,34.1124004 1.6015625,33.713291 C1.6015625,33.3141816 1.75699414,32.9389355 2.03926953,32.6567402 L6.79270703,27.9033027 C7.10541211,27.5905977 7.10541211,27.083543 6.79270703,26.7707578 C6.48000195,26.4581328 5.97294727,26.4581328 5.66024219,26.7707578 L0.906884766,31.5241953 C0.321994141,32.1089258 0,32.8864043 0,33.713291 C0,34.5401777 0.321994141,35.3176562 0.906724609,35.9023867 C1.51027344,36.5058555 2.30304687,36.8076699 3.09582031,36.8076699 C3.88859375,36.8076699 4.68136719,36.5058555 5.28491602,35.9023867 L14.79075,26.3965527 C16.6512852,27.5018711 18.8219629,28.1377715 21.1387031,28.1377715 C28.01325,28.1377715 33.6059863,22.5449551 33.6059863,15.6704883 C33.6059863,8.79602148 28.0131699,3.203125 21.1387031,3.203125 Z M21.1387031,26.5361289 C15.1473379,26.5361289 10.2729023,21.6618535 10.2729023,15.6704082 C10.2729023,9.67904297 15.1472578,4.8046875 21.1387031,4.8046875 C27.1301484,4.8046875 32.0044238,9.67904297 32.0044238,15.6704082 C32.0044238,21.6617734 27.1300684,26.5361289 21.1387031,26.5361289 Z" id="Shape" fill="#4353FF"></path>
                                            <path d="M9.31308594,24.2501387 C9.16414062,24.1011934 8.95833984,24.0154297 8.74693359,24.0154297 C8.53632812,24.0154297 8.32972656,24.1011133 8.18078125,24.2501387 C8.03183594,24.3990039 7.94615234,24.6056055 7.94615234,24.8162109 C7.94615234,25.0268965 8.03183594,25.233418 8.18078125,25.3823633 C8.32972656,25.5313086 8.53632812,25.6169922 8.74693359,25.6169922 C8.95833984,25.6169121 9.16414062,25.5313086 9.31308594,25.3823633 C9.46283203,25.233418 9.54771484,25.0268965 9.54771484,24.8162109 C9.54771484,24.6056055 9.46283203,24.3990039 9.31308594,24.2501387 Z" id="Shape" fill="#4353FF"></path>
                                        </g>
                                    </g>
                                </g>
                            </g>
                        </g>
                    </g>
                </g>
            </g>
        </g>
    </g>
</svg>