<svg width="24" height="22" viewBox="0 0 24 22" fill="none" xmlns="http://www.w3.org/2000/svg">
<g clip-path="url(#clip0_3735_31677)">
<path fill-rule="evenodd" clip-rule="evenodd" d="M21.8182 0H2.18182C0.981818 0 0 0.981818 0 2.18182V15.2727C0 16.4727 0.981818 17.4545 2.18182 17.4545H9.81818V19.6364H8.72727C8.12727 19.6364 7.63636 20.1273 7.63636 20.7273C7.63636 21.3273 8.12727 21.8182 8.72727 21.8182H15.2727C15.8727 21.8182 16.3636 21.3273 16.3636 20.7273C16.3636 20.1273 15.8727 19.6364 15.2727 19.6364H14.1818V17.4545H21.8182C23.0182 17.4545 24 16.4727 24 15.2727V2.18182C24 0.981818 23.0182 0 21.8182 0ZM20.7273 15.2727H3.27273C2.67273 15.2727 2.18182 14.7818 2.18182 14.1818V3.27273C2.18182 2.67273 2.67273 2.18182 3.27273 2.18182H20.7273C21.3273 2.18182 21.8182 2.67273 21.8182 3.27273V14.1818C21.8182 14.7818 21.3273 15.2727 20.7273 15.2727Z" fill="#7250B2"/>
</g>
<defs>
<clipPath id="clip0_3735_31677">
<rect width="24" height="21.8182" fill="white"/>
</clipPath>
</defs>
</svg>
