<svg width="452" height="274" viewBox="0 0 452 274" fill="none" xmlns="http://www.w3.org/2000/svg">
<path d="M78.1391 78.0322L0 128.628L76.9666 240.001L155.106 189.405L78.1391 78.0322Z" fill="#F5F5F5"/>
<path d="M114.726 184.137L113.835 189.449L74.9883 184.029L75.8797 178.717L114.726 184.137Z" fill="#E0E0E0"/>
<path d="M95.1608 165.188L100.732 165.963L94.5479 202.985L88.9766 202.203L95.1608 165.188Z" fill="#E0E0E0"/>
<path d="M59.4148 118.135C59.4706 118.209 51.6428 123.379 41.9277 129.662C32.2126 135.945 24.2943 140.987 24.2386 140.906C24.1829 140.825 32.0106 135.662 41.7257 129.372C51.4408 123.083 59.3243 118.054 59.4148 118.135Z" fill="#E0E0E0"/>
<path d="M88.1242 111.15C88.1799 111.231 75.1568 119.752 59.0416 130.187C42.9264 140.622 29.7919 149.015 29.7501 148.941C29.7083 148.867 42.7036 140.332 58.8397 129.897C74.9757 119.462 88.0685 111.069 88.1242 111.15Z" fill="#E0E0E0"/>
<path d="M93.882 119.482C93.9377 119.563 80.9146 128.09 64.7994 138.526C48.6842 148.961 35.5497 157.354 35.5079 157.273C35.4661 157.192 48.4753 148.671 64.5975 138.229C80.7196 127.787 93.8263 119.401 93.882 119.482Z" fill="#E0E0E0"/>
<path d="M99.6409 127.821C99.6966 127.902 86.6735 136.429 70.5583 146.858C54.4431 157.286 41.3086 165.693 41.3086 165.612C41.3086 165.531 54.269 157.003 70.3912 146.568C86.5133 136.133 99.5852 127.74 99.6409 127.821Z" fill="#E0E0E0"/>
<path d="M105.379 136.16C105.435 136.241 92.4115 144.761 76.2963 155.197C60.1811 165.632 47.0466 174.025 47.0118 173.944C46.977 173.863 59.9931 165.342 76.1292 154.907C92.2653 144.472 105.379 136.079 105.379 136.16Z" fill="#E0E0E0"/>
<path d="M387.363 93.8856L321.738 136.378L386.376 229.91L452 187.418L387.363 93.8856Z" fill="#F5F5F5"/>
<path d="M418.092 183.015L417.354 187.478L384.727 182.927L385.472 178.465L418.092 183.015Z" fill="#E0E0E0"/>
<path d="M401.661 167.099L406.341 167.753L401.153 198.843L396.473 198.189L401.661 167.099Z" fill="#E0E0E0"/>
<path d="M371.62 127.616C371.676 127.696 365.108 132.044 356.946 137.323C348.784 142.601 342.126 146.821 342.071 146.76C342.015 146.7 348.589 142.338 356.744 137.053C364.899 131.768 371.564 127.501 371.62 127.616Z" fill="#E0E0E0"/>
<path d="M395.748 121.717C395.804 121.798 384.877 128.971 371.373 137.728C357.87 146.484 346.818 153.536 346.762 153.455C346.706 153.374 357.633 146.201 371.137 137.438C384.64 128.674 395.672 121.637 395.748 121.717Z" fill="#E0E0E0"/>
<path d="M400.588 128.714C400.644 128.795 389.717 135.968 376.213 144.731C362.71 153.495 351.657 160.533 351.602 160.452C351.546 160.371 362.438 153.232 375.977 144.468C389.515 135.705 400.546 128.64 400.588 128.714Z" fill="#E0E0E0"/>
<path d="M405.42 135.707C405.476 135.787 394.542 142.96 381.045 151.723C367.549 160.487 356.49 167.525 356.434 167.444C356.378 167.363 367.305 160.197 380.809 151.427C394.312 142.657 405.371 135.639 405.42 135.707Z" fill="#E0E0E0"/>
<path d="M410.299 142.721C410.355 142.802 399.428 149.968 385.924 158.732C372.421 167.495 361.368 174.533 361.313 174.459C361.257 174.385 372.184 167.205 385.687 158.442C399.191 149.678 410.209 142.64 410.299 142.721Z" fill="#E0E0E0"/>
<path d="M245.585 37.0707L173.98 0L117.589 102.058L189.193 139.129L245.585 37.0707Z" fill="#F5F5F5"/>
<path d="M176.948 107.2L172.401 108.703L160.875 77.8489L165.416 76.3389L176.948 107.2Z" fill="#E0E0E0"/>
<path d="M183.913 85.0615L185.571 89.4905L153.911 99.9864L152.254 95.5575L183.913 85.0615Z" fill="#E0E0E0"/>
<path d="M206.402 39.5379C206.346 39.639 199.089 35.9853 190.182 31.3812C181.275 26.777 174.109 22.9547 174.164 22.8536C174.22 22.7525 181.484 26.4062 190.391 31.0104C199.298 35.6146 206.457 39.4301 206.402 39.5379Z" fill="#E0E0E0"/>
<path d="M223.599 57.894C223.543 57.9951 211.523 51.8742 196.752 44.2297C181.981 36.5853 170.058 30.3025 170.113 30.2014C170.169 30.1003 182.182 36.2145 196.954 43.8657C211.725 51.5169 223.654 57.7929 223.599 57.894Z" fill="#E0E0E0"/>
<path d="M219.368 65.5317C219.312 65.6328 207.292 59.5186 192.521 51.8742C177.75 44.2297 165.827 37.9402 165.883 37.8391C165.939 37.738 177.952 43.859 192.723 51.5034C207.494 59.1479 219.424 65.4306 219.368 65.5317Z" fill="#E0E0E0"/>
<path d="M215.153 73.1691C215.098 73.2702 203.077 67.156 188.306 59.5115C173.535 51.8671 161.612 45.6046 161.668 45.4832C161.724 45.3619 173.737 51.4963 188.508 59.1408C203.279 66.7852 215.209 73.0679 215.153 73.1691Z" fill="#E0E0E0"/>
<path d="M210.931 80.8082C210.875 80.9093 198.855 74.7951 184.084 67.1506C169.313 59.5062 157.383 53.2234 157.446 53.1223C157.508 53.0212 169.515 59.1354 184.286 66.7799C199.057 74.4243 210.986 80.7071 210.931 80.8082Z" fill="#E0E0E0"/>
<path d="M167.952 116.198L140.235 254.296L136.633 272.374L321.416 271.508C329.716 271.47 337.076 264.322 339.73 253.703L372.506 123.331C374.534 115.271 370.086 106.885 363.791 106.893L176.721 107.082C172.65 107.075 169.001 110.812 167.952 116.198Z" fill="#5B3F91"/>
<g opacity="0.5">
<path d="M167.948 116.196L140.231 254.294L136.629 272.372L321.412 271.506C329.712 271.468 337.072 264.321 339.726 253.701L372.502 123.329C374.53 115.269 370.082 106.883 363.787 106.891L176.718 107.081C172.646 107.073 168.997 110.81 167.948 116.196Z" fill="#343434"/>
</g>
<path d="M303.712 244.922L284.138 91.9282C283.355 85.6614 278.195 80.9822 272.111 81.005L229.204 81.1341C227.609 81.1515 226.035 81.4838 224.577 82.1107C223.119 82.7375 221.808 83.6458 220.724 84.7802L200.367 105.799L81.0405 106.422C73.751 106.46 68.1448 113.159 69.1079 120.68L87.2809 262.082C88.0639 268.341 93.2237 273.012 99.2918 273.005L307.291 272.602C330.451 273.066 332.667 266.434 332.667 266.434C306.077 272.139 303.712 244.96 303.712 244.922Z" fill="#5B3F91"/>
<g opacity="0.5">
<path d="M214.018 214.324L207.002 221.631L152.977 174.474L159.992 167.167L214.018 214.324Z" fill="white"/>
<path d="M204.057 165.55L211.817 172.318L162.927 223.25L155.176 216.482L204.057 165.55Z" fill="white"/>
</g>
<g clip-path="url(#clip0_1368_10724)">
<g style="mix-blend-mode:multiply">
<path d="M426.717 266.061C426.962 265.738 427.186 265.399 427.386 265.048L427.542 264.797C427.779 264.361 427.99 263.912 428.175 263.452C428.175 263.38 428.175 263.309 428.248 263.237C428.4 262.832 428.529 262.419 428.633 262C428.633 261.919 428.633 261.829 428.698 261.74C428.92 260.754 429.016 259.745 428.982 258.736C428.982 258.682 428.982 258.637 428.982 258.584C428.937 257.542 428.752 256.512 428.432 255.518C427.851 253.711 426.831 252.068 425.46 250.73L392.383 218.383C389.531 215.603 386.385 215.693 383.359 217.334L377.27 211.381C377.27 209.471 376.647 207.612 375.491 206.073C375.213 205.698 374.907 205.344 374.574 205.015L372.409 202.89C372.556 202.675 372.694 202.46 372.85 202.245C373.005 202.03 373.235 201.689 373.418 201.402C373.602 201.115 373.941 200.604 374.188 200.201C374.436 199.797 374.546 199.627 374.711 199.304C374.876 198.981 375.197 198.461 375.436 198.04L375.903 197.206C376.151 196.731 376.389 196.247 376.628 195.763C376.738 195.539 376.866 195.306 376.976 195.073C377.306 194.373 377.618 193.674 377.893 192.966C378.013 192.679 378.113 192.392 378.223 192.114C378.407 191.666 378.581 191.217 378.746 190.778C378.911 190.339 378.985 190.088 379.095 189.738C379.205 189.388 379.361 188.958 379.489 188.564C379.489 188.429 379.581 188.304 379.617 188.169C379.654 188.035 379.746 187.685 379.819 187.452C379.92 187.075 380.03 186.708 380.122 186.331C380.168 186.152 380.232 185.964 380.278 185.784L380.415 185.157C380.498 184.807 380.58 184.449 380.654 184.09C380.727 183.731 380.828 183.274 380.901 182.862C380.975 182.449 381.02 182.189 381.075 181.849C381.13 181.508 381.185 181.248 381.231 180.952C381.231 180.826 381.231 180.701 381.231 180.575C381.277 180.271 381.314 179.966 381.351 179.679C381.406 179.213 381.461 178.782 381.506 178.28V177.922C381.561 177.303 381.607 176.684 381.644 176.075C381.681 175.465 381.644 174.766 381.69 174.111V173.914C381.69 173.367 381.69 172.811 381.69 172.264C381.69 172.049 381.69 171.843 381.69 171.628C381.69 171.413 381.69 171.314 381.69 171.153C381.69 170.785 381.635 170.418 381.607 170.05L381.552 169.369C381.506 168.84 381.451 168.311 381.396 167.791L381.314 167.127C381.314 166.84 381.25 166.545 381.204 166.231C381.158 165.917 381.121 165.738 381.075 165.496C381.03 165.254 381.011 165.101 380.975 164.913C380.883 164.348 380.773 163.783 380.654 163.227L380.571 162.833C380.461 162.358 380.369 161.874 380.25 161.389C380.048 160.591 379.828 159.794 379.59 159.005C378.956 156.927 378.187 154.89 377.288 152.908L377.178 152.657C376.912 152.083 376.637 151.51 376.343 150.945C376.288 150.819 376.224 150.703 376.16 150.577C375.876 150.021 375.582 149.474 375.243 148.927L375.041 148.56C374.72 148.013 374.399 147.466 374.06 146.919L373.877 146.641C373.519 146.067 373.143 145.503 372.758 144.947C370.872 142.226 368.722 139.689 366.339 137.371C365.697 136.743 365.045 136.134 364.376 135.578L364.183 135.417C363.578 134.888 362.973 134.368 362.349 133.874L362.203 133.767C361.591 133.253 360.94 132.76 360.249 132.288L360.029 132.135C359.397 131.687 358.745 131.239 358.094 130.817L358.012 130.763C348.414 124.619 337.02 121.724 325.577 122.523C314.134 123.321 303.276 127.768 294.668 135.182C286.06 142.596 280.178 152.566 277.926 163.563C275.674 174.56 277.175 185.976 282.2 196.059C282.2 196.157 282.301 196.256 282.347 196.364C282.787 197.26 283.264 198.076 283.74 198.919L283.896 199.197C284.964 201.006 286.146 202.749 287.436 204.415L287.95 205.069C288.445 205.667 288.949 206.264 289.463 206.862C289.665 207.086 289.857 207.319 290.059 207.535C290.261 207.75 290.462 207.992 290.673 208.216C291.187 208.763 291.7 209.301 292.241 209.83C294.76 212.283 297.525 214.482 300.495 216.392C307.638 220.992 315.824 223.811 324.338 224.605C327.693 224.912 331.07 224.912 334.425 224.605C337.778 224.289 341.092 223.659 344.32 222.722C345.127 222.489 345.934 222.238 346.732 221.96C348.341 221.414 349.92 220.789 351.464 220.086C352.234 219.736 353.005 219.369 353.766 218.974C355.298 218.188 356.789 217.326 358.232 216.392C358.599 216.159 358.956 215.899 359.323 215.648L361.506 217.782C361.756 218.023 362.019 218.251 362.294 218.463C363.927 219.724 365.945 220.412 368.026 220.418L372.501 224.793L374.106 226.362C373.628 227.184 373.281 228.073 373.079 228.998V229.15C373.033 229.383 373.005 229.616 372.978 229.849C372.983 229.924 372.983 229.999 372.978 230.074C372.964 230.283 372.964 230.492 372.978 230.701C372.973 230.794 372.973 230.887 372.978 230.979C372.978 231.167 373.033 231.365 373.07 231.553C373.106 231.741 373.115 231.75 373.143 231.849C373.17 231.947 373.253 232.216 373.317 232.405C373.381 232.593 373.4 232.611 373.436 232.709C373.473 232.808 373.611 233.068 373.712 233.247C373.812 233.427 373.812 233.454 373.877 233.552C373.941 233.651 374.133 233.929 374.271 234.117C374.409 234.305 374.39 234.287 374.464 234.377C374.693 234.659 374.937 234.929 375.197 235.184L408.284 267.531C409.339 268.564 410.584 269.395 411.952 269.979L412.576 270.23C414.314 270.877 416.181 271.123 418.032 270.947C420.84 270.691 423.468 269.483 425.46 267.531C425.824 267.17 426.164 266.787 426.478 266.384C426.561 266.285 426.634 266.177 426.717 266.061ZM298.239 143.172C304.397 137.159 312.241 133.067 320.778 131.411C329.315 129.756 338.162 130.611 346.202 133.87C354.241 137.129 361.112 142.645 365.946 149.721C370.78 156.796 373.361 165.114 373.361 173.623C373.361 182.132 370.78 190.449 365.946 197.525C361.112 204.601 354.241 210.116 346.202 213.375C338.162 216.634 329.315 217.49 320.778 215.834C312.241 214.179 304.397 210.086 298.239 204.074C294.145 200.077 290.897 195.33 288.681 190.105C286.465 184.88 285.324 179.279 285.324 173.623C285.324 167.966 286.465 162.365 288.681 157.14C290.897 151.915 294.145 147.169 298.239 143.172Z" fill="#E7E7E7"/>
</g>
<path d="M375.266 206.026L366.02 215.066L379.157 227.91L388.404 218.87L375.266 206.026Z" fill="#BCBCBC"/>
<g style="mix-blend-mode:multiply" opacity="0.3">
<path d="M381.731 212.364L372.484 221.404L379.144 227.915L388.391 218.875L381.731 212.364Z" fill="#BCBCBC"/>
</g>
<path d="M374.566 201.608L369.513 196.704C368.41 199.639 366.643 202.292 364.343 204.466C362.044 206.639 359.272 208.277 356.234 209.256L361.462 214.366C363.199 216.043 365.545 216.98 367.987 216.971C370.429 216.963 372.768 216.011 374.494 214.322C376.22 212.634 377.192 210.346 377.199 207.959C377.206 205.572 376.246 203.279 374.529 201.581L374.566 201.608Z" fill="#F07C26"/>
<g style="mix-blend-mode:multiply" opacity="0.3">
<path d="M374.566 201.608L369.513 196.704C368.41 199.639 366.643 202.292 364.343 204.466C362.044 206.639 359.272 208.277 356.234 209.256L361.462 214.366C361.709 214.607 361.973 214.831 362.25 215.038C365.871 210.181 370.338 205.984 375.446 202.639C375.18 202.275 374.885 201.93 374.566 201.608Z" fill="#F07C26"/>
</g>
<path d="M425.451 264.142C423.166 266.36 420.077 267.604 416.858 267.604C413.639 267.604 410.55 266.36 408.265 264.142L375.178 231.795C371.052 227.761 373.069 223.143 377.196 219.109L379.397 216.957C383.514 212.932 388.246 210.959 392.373 214.985L425.451 247.332C427.724 249.565 429 252.587 429 255.737C429 258.887 427.724 261.909 425.451 264.142Z" fill="#F58634"/>
<g style="mix-blend-mode:multiply" opacity="0.3">
<path d="M407.165 257.848L373.298 224.748C372.859 225.972 372.803 227.297 373.138 228.552C373.473 229.807 374.183 230.937 375.178 231.795L408.265 264.142C410.191 266.034 412.712 267.237 415.423 267.556C418.133 267.876 420.875 267.294 423.205 265.904C425.536 264.514 427.32 262.397 428.27 259.895C429.219 257.392 429.279 254.65 428.44 252.111C425.79 260.018 415.024 265.532 407.165 257.848Z" fill="#F58634"/>
</g>
<g style="mix-blend-mode:multiply" opacity="0.3">
<path d="M366.437 134.009C361.465 129.141 355.539 125.305 349.014 122.73C365.786 130.925 377.534 147.95 377.534 167.253C377.534 194.346 354.415 216.948 326.702 216.948C304.849 216.948 285.857 202.881 278.805 183.651C280.907 191.227 284.763 198.23 290.074 204.118C295.386 210.005 302.01 214.621 309.436 217.607C316.863 220.594 324.891 221.872 332.903 221.342C340.915 220.812 348.694 218.489 355.642 214.552C362.589 210.615 368.517 205.169 372.969 198.636C377.421 192.102 380.277 184.656 381.317 176.872C382.357 169.087 381.553 161.174 378.966 153.742C376.38 146.31 372.081 139.558 366.401 134.009H366.437Z" fill="#F07C26"/>
</g>
<path d="M366.438 134.009C359.112 126.845 349.776 121.966 339.614 119.989C329.451 118.013 318.916 119.027 309.343 122.903C299.769 126.78 291.587 133.345 285.83 141.768C280.073 150.191 277 160.094 277 170.224C277 180.355 280.073 190.258 285.83 198.681C291.587 207.104 299.769 213.669 309.343 217.546C318.916 221.422 329.451 222.436 339.614 220.459C349.776 218.483 359.112 213.604 366.438 206.44C371.304 201.685 375.163 196.039 377.797 189.825C380.43 183.611 381.785 176.951 381.785 170.224C381.785 163.498 380.43 156.838 377.797 150.624C375.163 144.41 371.304 138.764 366.438 134.009ZM360.542 200.676C354.383 206.688 346.54 210.781 338.003 212.436C329.466 214.092 320.619 213.236 312.579 209.977C304.539 206.718 297.668 201.202 292.834 194.127C288 187.051 285.42 178.733 285.42 170.224C285.42 161.716 288 153.398 292.834 146.322C297.668 139.247 304.539 133.731 312.579 130.472C320.619 127.213 329.466 126.357 338.003 128.013C346.54 129.668 354.383 133.761 360.542 139.773C364.636 143.77 367.884 148.517 370.1 153.742C372.316 158.967 373.456 164.568 373.456 170.224C373.456 175.881 372.316 181.482 370.1 186.707C367.884 191.932 364.636 196.679 360.542 200.676Z" fill="#F07C26"/>
<g style="mix-blend-mode:multiply" opacity="0.3">
<path d="M372.821 141.575C376.806 148.937 378.893 157.139 378.901 165.468C378.901 193.915 354.618 217.665 325.511 217.665C312.728 217.618 300.391 213.059 290.773 204.826C291.287 205.373 291.801 205.911 292.342 206.44C301.551 215.45 313.865 220.782 326.878 221.395C339.892 222.008 352.673 217.858 362.726 209.755C372.779 201.653 379.383 190.179 381.25 177.572C383.116 164.966 380.111 152.132 372.821 141.575Z" fill="#F07C26"/>
</g>
<path opacity="0.5" d="M329.391 213.29C353.722 213.29 373.446 194.007 373.446 170.22C373.446 146.433 353.722 127.15 329.391 127.15C305.06 127.15 285.336 146.433 285.336 170.22C285.336 194.007 305.06 213.29 329.391 213.29Z" fill="#B0E3F9"/>
<g style="mix-blend-mode:screen" opacity="0.3">
<path d="M289.506 179.131C289.506 154.378 308.764 133.407 333.268 129.938C326.57 129.32 319.818 130.307 313.599 132.815C307.379 135.323 301.879 139.275 297.574 144.33C293.269 149.385 290.289 155.389 288.893 161.824C287.497 168.258 287.726 174.928 289.561 181.256C289.525 180.521 289.506 179.831 289.506 179.131Z" fill="#FBFCFF"/>
</g>
<g style="mix-blend-mode:multiply" opacity="0.1">
<path d="M368.593 155.731C367.676 179.642 347.07 199.312 322.419 199.312C310.911 199.27 299.837 195.008 291.387 187.37C295.924 197.018 304.117 204.565 314.237 208.419C324.357 212.273 335.613 212.133 345.63 208.028C355.646 203.923 363.64 196.175 367.924 186.418C372.208 176.661 372.448 165.658 368.593 155.731Z" fill="#B0E3F9"/>
</g>
<g style="mix-blend-mode:multiply" opacity="0.1">
<path d="M322.935 206.844C316.862 206.842 310.84 205.748 305.172 203.616C311.273 207.853 318.424 210.413 325.88 211.03C333.337 211.647 340.826 210.299 347.568 207.125C354.31 203.951 360.059 199.067 364.215 192.984C368.371 186.9 370.783 179.838 371.199 172.533C364.44 192.284 345.173 206.844 322.935 206.844Z" fill="#B0E3F9"/>
</g>
<g style="mix-blend-mode:screen">
<path d="M314.717 129.598L305.656 139.46L311.159 137.209L308.169 144.202L314.387 135.183C314.417 136.679 314.362 138.176 314.221 139.666C314.047 140.06 317.046 136.905 317.046 136.905L320.384 156.18L327.069 156.629L320.732 179.293L332.489 188.985L325.804 182.449L330.765 175.797L334.433 183.686L331.086 173.878L324.749 181.427L321.998 178.504L329.49 154.719L321.769 154.154L322.374 135.533L330.994 148.488L332.03 143.413L347.363 153.679L345.172 166.41L360.761 166.751L346.923 164.957L348.757 153.912L356.02 153.795L353.141 160.224H365.842L355.754 158.942L357.864 151.545L361.532 155.131L357.029 148.255L355.883 152.316L348.611 151.751L329.013 139.576L329.71 143.162L325.125 133.695L336.304 140.571L333.424 133.023L348.271 137.837L342.668 133.74L350.619 133.408L345.804 130.261C345.804 130.261 330.857 123.734 314.717 129.598Z" fill="#B0E3F9"/>
</g>
<g style="mix-blend-mode:screen" opacity="0.3">
<g style="mix-blend-mode:screen">
<path d="M421.647 251.868C421.029 251.867 420.436 251.629 419.996 251.204L387.744 220.318C387.326 219.884 387.096 219.309 387.102 218.713C387.107 218.116 387.348 217.545 387.774 217.119C388.2 216.692 388.778 216.442 389.387 216.422C389.997 216.402 390.591 216.613 391.045 217.01L423.307 247.905C423.642 248.227 423.871 248.639 423.966 249.089C424.06 249.539 424.016 250.006 423.838 250.431C423.66 250.856 423.356 251.22 422.966 251.476C422.576 251.732 422.117 251.868 421.647 251.868Z" fill="#FBFCFF"/>
</g>
</g>
</g>
<defs>
<clipPath id="clip0_1368_10724">
<rect width="152" height="152" fill="white" transform="translate(277 119)"/>
</clipPath>
</defs>
</svg>
