<svg width="173" height="184" viewBox="0 0 173 184" fill="none" xmlns="http://www.w3.org/2000/svg">
<g filter="url(#filter0_f_11573_74699)">
<path d="M50.9545 27.8194L106.231 96.2626L34.6867 114.874L50.9545 27.8194Z" fill="url(#paint0_linear_11573_74699)"/>
<path d="M124.166 43.8618L50.9537 27.8191L106.23 96.2623L124.166 43.8618Z" fill="url(#paint1_linear_11573_74699)"/>
<g style="mix-blend-mode:color-dodge">
<path d="M123.879 43.7491L105.968 96.1545L106.499 96.3361L124.41 43.9306L123.879 43.7491Z" fill="url(#paint2_linear_11573_74699)"/>
</g>
<g style="mix-blend-mode:color-dodge">
<path d="M51.1784 27.6368L50.7418 27.9895L106.025 96.4289L106.461 96.0762L51.1784 27.6368Z" fill="url(#paint3_linear_11573_74699)"/>
</g>
<g style="mix-blend-mode:color-dodge">
<path d="M34.6016 114.574L34.743 115.117L106.284 96.4957L106.143 95.9526L34.6016 114.574Z" fill="url(#paint4_linear_11573_74699)"/>
</g>
<path d="M34.6859 114.874L133.662 149.118L106.23 96.2624L34.6859 114.874Z" fill="url(#paint5_linear_11573_74699)"/>
<path d="M124.166 43.862L133.662 149.118L106.231 96.2626L124.166 43.862Z" fill="url(#paint6_linear_11573_74699)"/>
</g>
<defs>
<filter id="filter0_f_11573_74699" x="30.7359" y="23.7713" width="106.792" height="129.213" filterUnits="userSpaceOnUse" color-interpolation-filters="sRGB">
<feFlood flood-opacity="0" result="BackgroundImageFix"/>
<feBlend mode="normal" in="SourceGraphic" in2="BackgroundImageFix" result="shape"/>
<feGaussianBlur stdDeviation="1.93284" result="effect1_foregroundBlur_11573_74699"/>
</filter>
<linearGradient id="paint0_linear_11573_74699" x1="75.8114" y1="63.6467" x2="39.4318" y2="72.4238" gradientUnits="userSpaceOnUse">
<stop stop-color="#FFA847"/>
<stop offset="1" stop-color="#9461FA"/>
</linearGradient>
<linearGradient id="paint1_linear_11573_74699" x1="113.889" y1="41.6616" x2="85.6389" y2="50.3461" gradientUnits="userSpaceOnUse">
<stop stop-color="#FF7439"/>
<stop offset="1" stop-color="#FFA10D"/>
</linearGradient>
<linearGradient id="paint2_linear_11573_74699" x1="121.622" y1="51.22" x2="120.807" y2="50.9667" gradientUnits="userSpaceOnUse">
<stop stop-color="#FFA847"/>
<stop offset="1" stop-color="#9461FA"/>
</linearGradient>
<linearGradient id="paint3_linear_11573_74699" x1="78.7583" y1="61.9062" x2="78.5189" y2="62.0987" gradientUnits="userSpaceOnUse">
<stop stop-color="#FFA847"/>
<stop offset="1" stop-color="#9461FA"/>
</linearGradient>
<linearGradient id="paint4_linear_11573_74699" x1="70.3921" y1="105.34" x2="70.4687" y2="105.637" gradientUnits="userSpaceOnUse">
<stop stop-color="#FFA847"/>
<stop offset="1" stop-color="#9461FA"/>
</linearGradient>
<linearGradient id="paint5_linear_11573_74699" x1="107.498" y1="118.53" x2="71.1967" y2="126.279" gradientUnits="userSpaceOnUse">
<stop stop-color="#FFA847"/>
<stop offset="1" stop-color="#9461FA"/>
</linearGradient>
<linearGradient id="paint6_linear_11573_74699" x1="142.726" y1="88.5157" x2="120.27" y2="96.9308" gradientUnits="userSpaceOnUse">
<stop stop-color="#FF7439"/>
<stop offset="1" stop-color="#FFA10D"/>
</linearGradient>
</defs>
</svg>
