<svg width="216" height="144" viewBox="0 0 216 144" fill="none" xmlns="http://www.w3.org/2000/svg">
<g filter="url(#filter0_d_8797_47047)">
<path d="M28 27.7586C28 26.2351 29.2351 25 30.7586 25H185.241C186.765 25 188 26.2351 188 27.7586V110.517C188 112.041 186.765 113.276 185.241 113.276H30.7586C29.2351 113.276 28 112.041 28 110.517V27.7586Z" fill="url(#paint0_linear_8797_47047)"/>
<path d="M28 27.7586C28 26.2351 29.2351 25 30.7586 25H96.9655C98.4891 25 99.7241 26.2351 99.7241 27.7586V110.517C99.7241 112.041 98.4891 113.276 96.9655 113.276H30.7586C29.2351 113.276 28 112.041 28 110.517V27.7586Z" fill="white"/>
<mask id="mask0_8797_47047" style="mask-type:alpha" maskUnits="userSpaceOnUse" x="28" y="25" width="72" height="89">
<path d="M28 27.7586C28 26.2351 29.2351 25 30.7586 25H96.9655C98.4891 25 99.7241 26.2351 99.7241 27.7586V110.517C99.7241 112.041 98.4891 113.276 96.9655 113.276H30.7586C29.2351 113.276 28 112.041 28 110.517V27.7586Z" fill="white"/>
</mask>
<g mask="url(#mask0_8797_47047)">
<path d="M80.4138 67.8489C86.1271 64.4791 99.7241 66.0606 99.7241 66.0606L99.7241 113.276L28 113.276L28 102.943C28 102.943 33.743 105.071 40.7586 99.7194C47.0546 94.9164 43.8428 93.6418 50.4138 89.0147C57.1725 84.2553 64.9511 86.3873 71.4483 81.4601C77.3138 77.012 73.7824 71.7604 80.4138 67.8489Z" fill="#EAD0FF"/>
<path d="M98.3448 65.8645C98.3448 65.8645 86.1271 64.7557 80.4138 68.1241C73.7824 72.0338 77.3138 77.2833 71.4483 81.7295C64.9511 86.6545 57.1725 84.5234 50.4138 89.2808C43.8428 93.906 47.0546 95.18 40.7586 99.981C33.743 105.331 28 103.203 28 103.203" stroke="#5B3F91" stroke-width="1.37931" stroke-linecap="round"/>
<path d="M96.9655 68.1035C98.6795 68.1035 100.069 66.7141 100.069 65.0001C100.069 63.2861 98.6795 61.8966 96.9655 61.8966C95.2515 61.8966 93.8621 63.2861 93.8621 65.0001C93.8621 66.7141 95.2515 68.1035 96.9655 68.1035Z" fill="#5B3F91" stroke="white" stroke-width="0.689656"/>
</g>
<path d="M134.475 100.807V99.093H136.179V98.1758H134.475V96.462H133.538V98.1758H131.834V99.093H133.538V100.807H134.475ZM138.029 96.0806C138.362 95.6751 138.724 95.3323 139.41 95.3323C140.139 95.3323 140.583 95.8248 140.583 96.5006C140.583 96.9834 140.356 97.3841 139.979 97.7896L137.537 100.387V101.208H141.862V100.213H139.086L140.781 98.3979C141.196 97.9489 141.679 97.3551 141.679 96.5054C141.679 95.2358 140.839 94.333 139.439 94.333C138.217 94.333 137.604 95.0234 137.281 95.4627L138.029 96.0806ZM146.57 97.0848H145.523V98.8999H143.766L146.223 94.4585H145.035L142.506 99.0882V99.8944H145.523V101.208H146.57V99.8944H147.604V98.8999H146.57V97.0848ZM150.14 94.3282C149.073 94.3282 148.276 95.1151 148.276 96.153C148.276 97.2006 149.073 97.9827 150.14 97.9827C151.216 97.9827 152.018 97.2006 152.018 96.153C152.018 95.1151 151.216 94.3282 150.14 94.3282ZM150.14 95.2213C150.676 95.2213 151.067 95.6027 151.067 96.153C151.067 96.7082 150.676 97.0896 150.14 97.0896C149.618 97.0896 149.227 96.7082 149.227 96.153C149.227 95.6027 149.618 95.2213 150.14 95.2213ZM155.281 94.4489H154.224L149.961 101.208H151.018L155.281 94.4489ZM155.093 97.6737C154.026 97.6737 153.229 98.4606 153.229 99.4986C153.229 100.546 154.026 101.328 155.093 101.328C156.169 101.328 156.971 100.546 156.971 99.4986C156.971 98.4606 156.169 97.6737 155.093 97.6737ZM155.093 98.5668C155.629 98.5668 156.02 98.9482 156.02 99.4986C156.02 100.054 155.629 100.435 155.093 100.435C154.571 100.435 154.18 100.054 154.18 99.4986C154.18 98.9482 154.571 98.5668 155.093 98.5668Z" fill="#169F0A"/>
<path d="M116.938 46.3909H113.101V44.5226H116.745V43.4991H113.101V41.6791H116.876V40.6557H112.009V47.4143H116.938V46.3909ZM120.889 42.6688C120.416 42.6688 119.841 42.8088 119.469 43.3543V42.7895H118.465V47.4143H119.479V44.8509C119.479 44.0591 120.025 43.6295 120.676 43.6295C121.352 43.6295 121.753 44.064 121.753 44.8412V47.4143H122.767V44.5081C122.767 43.4267 121.989 42.6688 120.889 42.6688ZM126.112 42.6688C125.055 42.6688 123.969 43.5571 123.969 45.0536C123.969 46.5502 125.055 47.4384 126.112 47.4384C126.783 47.4384 127.305 47.2067 127.652 46.7626V47.1343C127.652 47.9936 127.131 48.515 126.185 48.515C125.62 48.515 125.084 48.3315 124.616 48.0467L124.249 48.9012C124.736 49.2488 125.494 49.4371 126.185 49.4371C127.729 49.4371 128.666 48.544 128.666 47.0909V42.7895H127.652V43.3446C127.305 42.9053 126.783 42.6688 126.112 42.6688ZM126.373 43.6198C127.189 43.6198 127.739 44.2426 127.739 45.0536C127.739 45.8646 127.189 46.4874 126.373 46.4874C125.518 46.4874 125.007 45.8309 125.007 45.0536C125.007 44.2715 125.518 43.6198 126.373 43.6198ZM134.693 42.7895H133.684V43.3495C133.365 42.9391 132.887 42.6688 132.231 42.6688C130.937 42.6688 129.918 43.6874 129.918 45.1019C129.918 46.5164 130.937 47.535 132.231 47.535C132.887 47.535 133.365 47.2695 133.684 46.8591V47.4143H134.693V42.7895ZM132.351 43.6198C133.187 43.6198 133.747 44.2571 133.747 45.1019C133.747 45.9467 133.187 46.584 132.351 46.584C131.482 46.584 130.956 45.9129 130.956 45.1019C130.956 44.2909 131.482 43.6198 132.351 43.6198ZM138.087 42.6688C137.03 42.6688 135.943 43.5571 135.943 45.0536C135.943 46.5502 137.03 47.4384 138.087 47.4384C138.758 47.4384 139.279 47.2067 139.627 46.7626V47.1343C139.627 47.9936 139.105 48.515 138.159 48.515C137.594 48.515 137.059 48.3315 136.59 48.0467L136.223 48.9012C136.711 49.2488 137.469 49.4371 138.159 49.4371C139.704 49.4371 140.641 48.544 140.641 47.0909V42.7895H139.627V43.3446C139.279 42.9053 138.758 42.6688 138.087 42.6688ZM138.348 43.6198C139.163 43.6198 139.714 44.2426 139.714 45.0536C139.714 45.8646 139.163 46.4874 138.348 46.4874C137.493 46.4874 136.981 45.8309 136.981 45.0536C136.981 44.2715 137.493 43.6198 138.348 43.6198ZM144.196 42.6688C142.834 42.6688 141.893 43.6536 141.893 45.1019C141.893 46.5695 142.873 47.535 144.259 47.535C144.959 47.535 145.596 47.366 146.161 46.8833L145.659 46.164C145.277 46.4681 144.785 46.6515 144.321 46.6515C143.665 46.6515 143.081 46.304 142.945 45.4736H146.363C146.373 45.3578 146.383 45.2274 146.383 45.0971C146.378 43.6536 145.49 42.6688 144.196 42.6688ZM144.176 43.5667C144.819 43.5667 145.239 43.9867 145.35 44.706H142.95C143.056 44.0302 143.457 43.5667 144.176 43.5667ZM153.34 42.6688C152.765 42.6688 152.051 42.8329 151.65 43.4943C151.332 42.9826 150.757 42.6688 150.052 42.6688C149.579 42.6688 149.005 42.8088 148.633 43.3543V42.7895H147.629V47.4143H148.643V44.8509C148.643 44.0591 149.188 43.6295 149.84 43.6295C150.516 43.6295 150.916 44.064 150.916 44.8412V47.4143H151.93V44.8509C151.93 44.0591 152.476 43.6295 153.128 43.6295C153.803 43.6295 154.204 44.064 154.204 44.8412V47.4143H155.218V44.5081C155.218 43.4267 154.441 42.6688 153.34 42.6688ZM158.726 42.6688C157.364 42.6688 156.423 43.6536 156.423 45.1019C156.423 46.5695 157.403 47.535 158.788 47.535C159.488 47.535 160.126 47.366 160.691 46.8833L160.188 46.164C159.807 46.4681 159.315 46.6515 158.851 46.6515C158.195 46.6515 157.611 46.304 157.475 45.4736H160.893C160.903 45.3578 160.913 45.2274 160.913 45.0971C160.908 43.6536 160.02 42.6688 158.726 42.6688ZM158.706 43.5667C159.348 43.5667 159.768 43.9867 159.88 44.706H157.48C157.586 44.0302 157.987 43.5667 158.706 43.5667ZM164.582 42.6688C164.109 42.6688 163.535 42.8088 163.163 43.3543V42.7895H162.159V47.4143H163.173V44.8509C163.173 44.0591 163.718 43.6295 164.37 43.6295C165.046 43.6295 165.446 44.064 165.446 44.8412V47.4143H166.46V44.5081C166.46 43.4267 165.683 42.6688 164.582 42.6688ZM171.101 42.7895H169.329V41.3895H168.315V42.7895H167.393V43.7067H168.315V45.7391C168.315 46.9702 168.928 47.535 169.976 47.535C170.555 47.535 171.023 47.3274 171.395 47.0764L170.994 46.2702C170.719 46.444 170.376 46.584 170.063 46.584C169.657 46.584 169.329 46.3426 169.329 45.7198V43.7067H171.101V42.7895ZM175.915 43.1612C175.437 42.8522 174.766 42.6736 174.042 42.6736C172.864 42.6736 172.13 43.2384 172.13 44.1557C172.13 44.8991 172.675 45.3722 173.699 45.5122L174.182 45.575C174.732 45.6522 174.983 45.826 174.983 46.0867C174.983 46.4343 174.621 46.6515 173.931 46.6515C173.177 46.6515 172.738 46.4343 172.405 46.1784L171.937 46.9364C172.613 47.4384 173.443 47.5302 173.921 47.5302C175.253 47.5302 176.026 46.9074 176.026 46.0191C176.026 45.2274 175.427 44.7978 174.418 44.6529L173.94 44.5805C173.515 44.5178 173.177 44.426 173.177 44.1026C173.177 43.7743 173.501 43.5522 174.051 43.5522C174.626 43.5522 175.2 43.7743 175.48 43.9481L175.915 43.1612Z" fill="#858585"/>
<path d="M128.151 68.9261C128.945 68.0212 129.817 67.2267 131.284 67.2267C132.708 67.2267 133.646 68.1867 133.646 69.533C133.646 70.504 133.193 71.3536 132.377 72.1812L126.915 77.7757V80.104H137.122V77.3123H131.218L134.518 73.8805C135.787 72.5674 136.747 71.2543 136.747 69.3674C136.747 66.4102 134.738 64.3798 131.505 64.3798C128.636 64.3798 127.069 65.9467 126.231 67.0392L128.151 68.9261ZM140.586 68.9261C141.381 68.0212 142.252 67.2267 143.72 67.2267C145.143 67.2267 146.081 68.1867 146.081 69.533C146.081 70.504 145.629 71.3536 144.812 72.1812L139.35 77.7757V80.104H149.557V77.3123H143.654L146.953 73.8805C148.222 72.5674 149.182 71.2543 149.182 69.3674C149.182 66.4102 147.174 64.3798 143.941 64.3798C141.072 64.3798 139.505 65.9467 138.666 67.0392L140.586 68.9261ZM156.21 64.3798C153.75 64.3798 152.072 65.4061 151.057 66.7743L152.933 68.6612C153.562 67.8336 154.621 67.0943 156.056 67.0943C157.49 67.0943 158.616 67.7785 158.616 69.0254C158.616 70.3274 157.413 70.9895 155.912 70.9895H154.103V73.6378H155.901C157.568 73.6378 158.925 74.333 158.925 75.6571C158.925 77.0143 157.722 77.6654 156.221 77.6654C154.897 77.6654 153.606 77.1247 152.712 76.1868L150.936 78.1399C152.106 79.5523 154.015 80.3799 156.332 80.3799C159.256 80.3799 162.026 78.9123 162.026 75.8668C162.026 74.2005 160.999 72.9647 159.377 72.3247C160.812 71.6516 161.683 70.4488 161.683 68.8157C161.683 66.1454 159.466 64.3798 156.21 64.3798Z" fill="#5E606A"/>
</g>
<defs>
<filter id="filter0_d_8797_47047" x="0.413763" y="0.172387" width="215.172" height="143.449" filterUnits="userSpaceOnUse" color-interpolation-filters="sRGB">
<feFlood flood-opacity="0" result="BackgroundImageFix"/>
<feColorMatrix in="SourceAlpha" type="matrix" values="0 0 0 0 0 0 0 0 0 0 0 0 0 0 0 0 0 0 127 0" result="hardAlpha"/>
<feOffset dy="2.75862"/>
<feGaussianBlur stdDeviation="13.7931"/>
<feComposite in2="hardAlpha" operator="out"/>
<feColorMatrix type="matrix" values="0 0 0 0 0.125 0 0 0 0 0.125 0 0 0 0 0.125 0 0 0 0.15 0"/>
<feBlend mode="normal" in2="BackgroundImageFix" result="effect1_dropShadow_8797_47047"/>
<feBlend mode="normal" in="SourceGraphic" in2="effect1_dropShadow_8797_47047" result="shape"/>
</filter>
<linearGradient id="paint0_linear_8797_47047" x1="92.0703" y1="27.5287" x2="64.845" y2="115.644" gradientUnits="userSpaceOnUse">
<stop stop-color="#FCFCFC"/>
<stop offset="1" stop-color="#FBFCFF"/>
</linearGradient>
</defs>
</svg>
