<svg width="12" height="12" viewBox="0 0 12 12" fill="none" xmlns="http://www.w3.org/2000/svg">
<path d="M6 2.25C3.76516 2.25 1.76256 3.71639 1.01671 5.89905C0.99443 5.96466 0.99443 6.03546 1.01671 6.10107C1.76257 8.28373 3.76516 9.75012 6 9.75012C8.23484 9.75012 10.2374 8.28373 10.9833 6.10107C11.0056 6.03546 11.0056 5.96466 10.9833 5.89905C10.2374 3.71639 8.23484 2.25 6 2.25V2.25ZM6 9.12511C4.06699 9.12511 2.32959 7.87356 1.64385 6.00006C2.32959 4.12655 4.06698 2.87501 6 2.87501C7.93301 2.87501 9.67041 4.12655 10.3562 6.00006C9.67041 7.87356 7.93302 9.12511 6 9.12511Z" fill="#5E606A"/>
<path d="M6.00003 4.05C4.92465 4.05 4.05 4.92465 4.05 6.00003C4.05 7.0754 4.92465 7.95006 6.00003 7.95006C7.0754 7.95006 7.95006 7.0754 7.95006 6.00003C7.95006 4.92465 7.0754 4.05 6.00003 4.05ZM6.00003 7.17505C5.35205 7.17505 4.82501 6.64801 4.82501 6.00003C4.82501 5.35205 5.35205 4.82501 6.00003 4.82501C6.64801 4.82501 7.17505 5.35205 7.17505 6.00003C7.17505 6.64801 6.64801 7.17505 6.00003 7.17505Z" fill="#5E606A" stroke="#5E606A" stroke-width="0.15"/>
</svg>
