<svg width="80" height="80" viewBox="0 0 80 80" fill="none" xmlns="http://www.w3.org/2000/svg">
<path d="M53.4291 67.8285C51.8481 67.8285 50.1338 67.5047 48.3052 66.7237C47.9243 66.5523 47.7338 66.1142 47.9052 65.7332C48.0767 65.3523 48.5148 65.1618 48.8957 65.3332C54.6862 67.7713 59.2005 65.1999 61.5052 61.9808C61.7529 61.638 62.229 61.5618 62.5719 61.8094C62.9148 62.057 62.9909 62.5332 62.7433 62.8761C60.8386 65.5237 57.5814 67.8285 53.4291 67.8285Z" fill="url(#paint0_linear_3796_29522)"/>
<path d="M40.0006 70.4762C56.8321 70.4762 70.4768 56.8315 70.4768 40C70.4768 23.1685 56.8321 9.5238 40.0006 9.5238C23.1691 9.5238 9.52441 23.1685 9.52441 40C9.52441 56.8315 23.1691 70.4762 40.0006 70.4762Z" fill="url(#paint1_radial_3796_29522)"/>
<path opacity="0.5" d="M40.0006 70.4762C56.8321 70.4762 70.4768 56.8315 70.4768 40C70.4768 23.1685 56.8321 9.5238 40.0006 9.5238C23.1691 9.5238 9.52441 23.1685 9.52441 40C9.52441 56.8315 23.1691 70.4762 40.0006 70.4762Z" fill="url(#paint2_radial_3796_29522)"/>
<path opacity="0.5" d="M49.3717 50.057C51.8288 50.2094 54.1145 49.6189 56.0574 48.4761C56.5717 48.1713 57.2383 48.2285 57.6764 48.6475C57.8479 48.8189 58.0193 48.9332 58.2288 49.0285C58.6479 50.6285 59.5431 52.038 60.4383 53.4094C61.9241 55.7142 63.2383 57.7713 62.4574 60.5713C63.0669 59.9046 63.6383 59.2189 64.1907 58.5142C64.0383 56.2284 62.8383 54.3427 61.7145 52.5903C60.9717 51.4284 60.2479 50.3046 59.8479 49.1047C60.1145 49.0094 60.3622 48.857 60.5717 48.6285C61.2764 47.9237 61.3526 46.838 60.8193 46.038C60.7812 45.9999 60.7622 45.9427 60.7241 45.9046C60.7241 45.9046 60.7241 45.9046 60.7241 45.8856C60.686 45.8285 60.6288 45.7903 60.5907 45.7332L59.8288 44.9903C61.2955 42.8761 62.1145 40.2665 61.9241 37.4665C61.5431 31.4475 56.5526 26.6285 50.5145 26.438C43.6955 26.2285 38.1145 31.7904 38.3241 38.6285C38.5336 44.6856 43.3336 49.6761 49.3717 50.057ZM50.1336 28.5904C55.486 28.5904 59.8098 32.9332 59.8098 38.2666C59.8098 43.5999 55.4669 47.9427 50.1336 47.9427C44.7812 47.9427 40.4574 43.5999 40.4574 38.2666C40.4574 32.9332 44.8003 28.5904 50.1336 28.5904Z" fill="url(#paint3_radial_3796_29522)"/>
<path d="M30.0564 41.295C31.6764 41.295 32.9897 39.308 32.9897 36.8569C32.9897 34.4058 31.6764 32.4188 30.0564 32.4188C28.4363 32.4188 27.123 34.4058 27.123 36.8569C27.123 39.308 28.4363 41.295 30.0564 41.295Z" fill="url(#paint4_radial_3796_29522)"/>
<path d="M30.0564 33.9236C31.3135 33.9236 32.4183 35.0284 32.9897 36.6474C32.9516 34.2474 31.6564 32.3236 30.0564 32.3236C28.4564 32.3236 27.1611 34.2474 27.123 36.6474C27.6945 35.0284 28.7802 33.9236 30.0564 33.9236Z" fill="url(#paint5_linear_3796_29522)"/>
<path d="M49.9431 41.295C51.5631 41.295 52.8764 39.308 52.8764 36.8569C52.8764 34.4058 51.5631 32.4188 49.9431 32.4188C48.3231 32.4188 47.0098 34.4058 47.0098 36.8569C47.0098 39.308 48.3231 41.295 49.9431 41.295Z" fill="url(#paint6_radial_3796_29522)"/>
<path d="M49.9431 34.0383C48.686 34.0383 47.5812 35.143 47.0098 36.7621C47.0479 34.3621 48.3431 32.4383 49.9431 32.4383C51.5431 32.4383 52.8384 34.3621 52.8764 36.7621C52.305 35.143 51.2003 34.0383 49.9431 34.0383Z" fill="url(#paint7_linear_3796_29522)"/>
<path d="M34.6097 27.9811C33.5049 28.0383 32.4953 28.0192 30.0572 27.2954C26.4572 26.2478 25.581 27.0478 23.2191 29.2002C23.0477 29.3526 22.8572 29.524 22.6667 29.6954C22.2858 30.0383 22.2286 30.6668 22.5715 31.1621C22.781 31.4668 23.6191 31.9621 24.362 31.3335C26.6667 29.4097 28.362 29.6192 30.4001 30.1144C32.0191 30.4954 33.6953 30.9144 35.4858 30.0383C36.2096 29.6954 36.4002 29.1811 36.2287 28.6287C36.0191 27.943 35.3906 27.924 34.6097 27.9811Z" fill="url(#paint8_linear_3796_29522)"/>
<path d="M45.5237 24.362C46.6284 24.2667 47.5618 23.981 49.9427 23.0096C52.8951 21.8096 54.9141 22.4191 56.9713 23.8858C57.1618 24.0191 57.3713 24.1525 57.5999 24.3048C58.038 24.5905 58.1713 25.2191 57.9046 25.7334C57.7522 26.0572 56.9713 26.6667 56.1522 26.1715C53.5808 24.6096 51.9427 25.0667 49.9999 25.8477C48.457 26.4763 46.857 27.1239 44.9522 26.5144C44.1903 26.2667 43.9237 25.8096 43.9998 25.2382C44.1141 24.5525 44.7427 24.4382 45.5237 24.362Z" fill="url(#paint9_linear_3796_29522)"/>
<path d="M48.8383 59.1237C48.705 59.1237 48.5907 59.1047 48.4574 59.0666C48.4193 59.0666 45.486 58.2285 41.9241 57.7332C37.3717 57.1047 33.886 57.257 31.8288 58.2094C31.1622 58.5142 30.3622 58.2285 30.0574 57.5618C29.7526 56.8951 30.0383 56.0951 30.705 55.7904C36.686 53.0094 48.6669 56.3428 49.1622 56.4951C49.8669 56.6856 50.286 57.4285 50.0764 58.1332C49.9431 58.7237 49.4098 59.1047 48.8383 59.1237Z" fill="#643800"/>
<path d="M50.1526 57.7332C50.1335 57.1618 49.7526 56.6666 49.1811 56.4951C48.6668 56.3428 36.7049 53.0285 30.724 55.7904C30.0954 56.0761 29.8097 56.7809 30.0192 57.4094C32.724 55.3904 37.2573 54.3618 50.1526 57.7332Z" fill="url(#paint10_linear_3796_29522)"/>
<path d="M62.1147 63.1621C61.9814 63.1621 61.829 63.124 61.7147 63.0478C61.3528 62.8192 61.2576 62.3431 61.4861 62.0002C64.1719 57.7907 62.5338 55.2383 60.6481 52.2859C59.4481 50.4192 58.21 48.4764 58.21 46.0573C58.21 45.6383 58.5528 45.2954 58.9719 45.2954C59.3909 45.2954 59.7338 45.6383 59.7338 46.0573C59.7338 48.0193 60.8004 49.6954 61.9433 51.4669C63.8481 54.4192 66.0004 57.7907 62.7814 62.8193C62.61 63.0478 62.3623 63.1621 62.1147 63.1621Z" fill="url(#paint11_linear_3796_29522)"/>
<path d="M49.9427 26.0193C43.8093 26.0193 38.8379 30.9908 38.8379 37.1241C38.8379 43.2575 43.8093 48.2289 49.9427 48.2289C56.076 48.2289 61.0474 43.2575 61.0474 37.1241C61.0665 30.9908 56.076 26.0193 49.9427 26.0193ZM49.9427 46.8003C44.5903 46.8003 40.2665 42.4575 40.2665 37.1241C40.2665 31.7717 44.6093 27.4479 49.9427 27.4479C55.276 27.4479 59.6189 31.7908 59.6189 37.1241C59.6189 42.4765 55.295 46.8003 49.9427 46.8003Z" fill="url(#paint12_linear_3796_29522)"/>
<path d="M49.9423 25.3144C43.428 25.3144 38.1328 30.6096 38.1328 37.1239C38.1328 43.6382 43.428 48.9334 49.9423 48.9334C56.4566 48.9334 61.7519 43.6382 61.7519 37.1239C61.7519 30.6096 56.4757 25.3144 49.9423 25.3144ZM49.9423 47.6572C44.1138 47.6572 39.409 42.9334 39.409 37.1239C39.409 31.3144 44.1328 26.5906 49.9423 26.5906C55.7519 26.5906 60.4757 31.3144 60.4757 37.1239C60.4757 42.9334 55.7709 47.6572 49.9423 47.6572Z" fill="url(#paint13_linear_3796_29522)"/>
<path d="M49.9426 46.1145C54.9079 46.1145 58.933 42.0893 58.933 37.124C58.933 32.1587 54.9079 28.1335 49.9426 28.1335C44.9773 28.1335 40.9521 32.1587 40.9521 37.124C40.9521 42.0893 44.9773 46.1145 49.9426 46.1145Z" fill="url(#paint14_radial_3796_29522)"/>
<path opacity="0.5" d="M52.7423 27.8666C57.8662 29.4095 60.7614 34.7999 59.2185 39.9237C57.6757 45.0475 52.2852 47.9428 47.1614 46.3999C42.0376 44.8571 39.1423 39.4666 40.6852 34.3428C42.2281 29.219 47.6185 26.3237 52.7423 27.8666Z" fill="url(#paint15_radial_3796_29522)"/>
<path d="M60.647 44.9143C60.6089 44.8762 60.5899 44.8191 60.5518 44.781C60.5518 44.781 60.5518 44.781 60.5518 44.7619C60.5137 44.7048 60.4566 44.6667 60.4185 44.6095L59.2946 43.5238C58.9137 44.0953 58.4566 44.6286 57.9613 45.1238C57.4661 45.6191 56.9137 46.0572 56.3613 46.4572L57.5232 47.5048C58.3232 48.3048 59.6185 48.3048 60.4185 47.5048C61.1042 46.8 61.1804 45.7143 60.647 44.9143Z" fill="url(#paint16_linear_3796_29522)"/>
<path d="M58.9528 46.9145C59.4262 46.9145 59.8099 46.5307 59.8099 46.0573C59.8099 45.584 59.4262 45.2002 58.9528 45.2002C58.4794 45.2002 58.0957 45.584 58.0957 46.0573C58.0957 46.5307 58.4794 46.9145 58.9528 46.9145Z" fill="url(#paint17_linear_3796_29522)"/>
<defs>
<linearGradient id="paint0_linear_3796_29522" x1="56.6193" y1="63.7863" x2="60.2383" y2="61.3101" gradientUnits="userSpaceOnUse">
<stop offset="0.00132565" stop-color="#643800"/>
<stop offset="1" stop-color="#975500"/>
</linearGradient>
<radialGradient id="paint1_radial_3796_29522" cx="0" cy="0" r="1" gradientUnits="userSpaceOnUse" gradientTransform="translate(34.0023 27.6485) scale(36.7656 36.7656)">
<stop stop-color="#FFE030"/>
<stop offset="1" stop-color="#FFB92E"/>
</radialGradient>
<radialGradient id="paint2_radial_3796_29522" cx="0" cy="0" r="1" gradientUnits="userSpaceOnUse" gradientTransform="translate(34.0023 27.6485) scale(28.9251 28.9251)">
<stop stop-color="#FFEA5F"/>
<stop offset="1" stop-color="#FFBC47" stop-opacity="0"/>
</radialGradient>
<radialGradient id="paint3_radial_3796_29522" cx="0" cy="0" r="1" gradientUnits="userSpaceOnUse" gradientTransform="translate(49.1772 46.2161) scale(32.1877 32.1877)">
<stop stop-color="#7A4400" stop-opacity="0.5"/>
<stop offset="0.5833" stop-color="#894D00" stop-opacity="0.2069"/>
<stop offset="0.995" stop-color="#975500" stop-opacity="0"/>
</radialGradient>
<radialGradient id="paint4_radial_3796_29522" cx="0" cy="0" r="1" gradientUnits="userSpaceOnUse" gradientTransform="translate(29.1413 36.9755) rotate(73.8539) scale(4.30607 2.78595)">
<stop offset="0.00132565" stop-color="#7A4400"/>
<stop offset="1" stop-color="#643800"/>
</radialGradient>
<linearGradient id="paint5_linear_3796_29522" x1="30.0471" y1="32.4011" x2="30.0471" y2="36.5372" gradientUnits="userSpaceOnUse">
<stop offset="0.00132565" stop-color="#3C2200"/>
<stop offset="1" stop-color="#512D00"/>
</linearGradient>
<radialGradient id="paint6_radial_3796_29522" cx="0" cy="0" r="1" gradientUnits="userSpaceOnUse" gradientTransform="translate(49.0434 36.9762) rotate(73.8539) scale(4.30607 2.78596)">
<stop offset="0.00132565" stop-color="#7A4400"/>
<stop offset="1" stop-color="#643800"/>
</radialGradient>
<linearGradient id="paint7_linear_3796_29522" x1="49.9483" y1="32.5104" x2="49.9483" y2="36.6464" gradientUnits="userSpaceOnUse">
<stop offset="0.00132565" stop-color="#3C2200"/>
<stop offset="1" stop-color="#512D00"/>
</linearGradient>
<linearGradient id="paint8_linear_3796_29522" x1="29.1268" y1="32.2112" x2="29.4098" y2="28.4381" gradientUnits="userSpaceOnUse">
<stop offset="0.00132565" stop-color="#3C2200"/>
<stop offset="1" stop-color="#512D00"/>
</linearGradient>
<linearGradient id="paint9_linear_3796_29522" x1="51.5725" y1="27.7544" x2="50.759" y2="24.1689" gradientUnits="userSpaceOnUse">
<stop offset="0.00132565" stop-color="#3C2200"/>
<stop offset="1" stop-color="#512D00"/>
</linearGradient>
<linearGradient id="paint10_linear_3796_29522" x1="40.1909" y1="60.73" x2="39.6207" y2="47.2764" gradientUnits="userSpaceOnUse">
<stop offset="0.00132565" stop-color="#3C2200"/>
<stop offset="1" stop-color="#512D00"/>
</linearGradient>
<linearGradient id="paint11_linear_3796_29522" x1="58.3208" y1="48.2838" x2="62.2964" y2="58.0133" gradientUnits="userSpaceOnUse">
<stop offset="0.00132565" stop-color="#643800"/>
<stop offset="1" stop-color="#975500"/>
</linearGradient>
<linearGradient id="paint12_linear_3796_29522" x1="47.2984" y1="27.9783" x2="57.2032" y2="62.1688" gradientUnits="userSpaceOnUse">
<stop/>
<stop offset="1" stop-color="#8EA5A8"/>
</linearGradient>
<linearGradient id="paint13_linear_3796_29522" x1="53.4032" y1="56.1923" x2="45.4984" y2="12.5732" gradientUnits="userSpaceOnUse">
<stop/>
<stop offset="1" stop-color="#8EA5A8"/>
</linearGradient>
<radialGradient id="paint14_radial_3796_29522" cx="0" cy="0" r="1" gradientUnits="userSpaceOnUse" gradientTransform="translate(45.7388 32.4984) scale(12.1746)">
<stop stop-color="white" stop-opacity="0.5"/>
<stop offset="1" stop-color="white" stop-opacity="0"/>
</radialGradient>
<radialGradient id="paint15_radial_3796_29522" cx="0" cy="0" r="1" gradientUnits="userSpaceOnUse" gradientTransform="translate(46.5021 31.4768) rotate(-163.238) scale(20.2916 20.291)">
<stop stop-color="white" stop-opacity="0.24"/>
<stop offset="1" stop-color="white" stop-opacity="0"/>
</radialGradient>
<linearGradient id="paint16_linear_3796_29522" x1="57.6351" y1="46.4503" x2="63.7303" y2="44.1169" gradientUnits="userSpaceOnUse">
<stop/>
<stop offset="1" stop-color="#8EA5A8"/>
</linearGradient>
<linearGradient id="paint17_linear_3796_29522" x1="57.8702" y1="51.232" x2="59.14" y2="45.1367" gradientUnits="userSpaceOnUse">
<stop/>
<stop offset="1" stop-color="#8EA5A8"/>
</linearGradient>
</defs>
</svg>
