<svg width="80" height="80" viewBox="0 0 80 80" fill="none" xmlns="http://www.w3.org/2000/svg">
<path d="M40.475 70.95C57.3059 70.95 70.95 57.3059 70.95 40.475C70.95 23.6441 57.3059 10 40.475 10C23.6441 10 10 23.6441 10 40.475C10 57.3059 23.6441 70.95 40.475 70.95Z" fill="url(#paint0_radial_3796_29380)"/>
<path d="M30.5244 48.2001C32.1448 48.2001 33.4585 46.2137 33.4585 43.7635C33.4585 41.3132 32.1448 39.3269 30.5244 39.3269C28.9039 39.3269 27.5903 41.3132 27.5903 43.7635C27.5903 46.2137 28.9039 48.2001 30.5244 48.2001Z" fill="url(#paint1_radial_3796_29380)"/>
<path d="M29.3625 42.1759C31.0776 42.1759 32.5092 43.9336 32.9203 46.3149C33.2605 45.592 33.4589 44.7132 33.4589 43.7635C33.4589 41.3113 32.1407 39.3269 30.5248 39.3269C29.1215 39.3269 27.9451 40.8152 27.6616 42.8138C28.1719 42.4027 28.753 42.1759 29.3625 42.1759Z" fill="url(#paint2_linear_3796_29380)"/>
<path d="M27.3921 32.9626C24.7698 32.9626 22.5161 35.9817 25.4502 36.4495C28.3843 36.9172 33.7281 39.4403 35.9818 41.1837C36.1519 41.3822 36.8181 41.3255 36.7756 40.801C36.7614 38.8024 30.5814 32.9626 27.3921 32.9626Z" fill="url(#paint3_linear_3796_29380)"/>
<path d="M50.4253 48.2001C52.0458 48.2001 53.3594 46.2137 53.3594 43.7635C53.3594 41.3132 52.0458 39.3269 50.4253 39.3269C48.8049 39.3269 47.4912 41.3132 47.4912 43.7635C47.4912 46.2137 48.8049 48.2001 50.4253 48.2001Z" fill="url(#paint4_radial_3796_29380)"/>
<path d="M51.5876 42.1759C49.8725 42.1759 48.4409 43.9336 48.0299 46.3149C47.6897 45.592 47.4912 44.7132 47.4912 43.7635C47.4912 41.3113 48.8095 39.3269 50.4253 39.3269C51.8286 39.3269 53.0051 40.8152 53.2886 42.8138C52.7783 42.4027 52.1971 42.1759 51.5876 42.1759Z" fill="url(#paint5_linear_3796_29380)"/>
<path d="M53.5578 32.9626C56.1801 32.9626 58.4338 35.9817 55.4997 36.4495C52.5656 36.9172 47.2218 39.4403 44.9681 41.1837C44.798 41.3822 44.1318 41.3255 44.1743 40.801C44.1885 38.8024 50.3686 32.9626 53.5578 32.9626Z" fill="url(#paint6_linear_3796_29380)"/>
<path d="M40.475 70.95C57.3059 70.95 70.95 57.3059 70.95 40.475C70.95 23.6441 57.3059 10 40.475 10C23.6441 10 10 23.6441 10 40.475C10 57.3059 23.6441 70.95 40.475 70.95Z" fill="url(#paint7_radial_3796_29380)"/>
<path d="M62.6156 64.8408H18.4764C17.7393 64.8408 17.144 64.2455 17.144 63.5084V52.1689C17.144 51.4318 17.7393 50.8365 18.4764 50.8365H62.6156C63.3526 50.8365 63.948 51.4318 63.948 52.1689V63.5084C63.948 64.2455 63.3526 64.8408 62.6156 64.8408Z" fill="url(#paint8_linear_3796_29380)"/>
<path d="M26.9241 61.9776L26.2862 61.283C25.62 61.8358 24.6562 62.091 23.749 62.091C22.0339 62.091 20.8999 61.2263 20.8999 59.8514C20.8999 58.5615 21.8922 57.9379 22.2465 57.6544L22.6576 57.3567L22.3174 57.0024C22.0906 56.7614 21.5236 56.1661 21.5236 55.2589C21.5236 54.0966 22.5017 53.2461 23.9333 53.2461C25.3224 53.2461 26.2862 54.0257 26.2862 55.2022C26.2862 56.2086 25.5633 56.8181 25.1523 57.1299L24.6987 57.4701L26.2012 59.1002C26.4138 58.5474 26.4421 57.9662 26.428 57.3H28.7101V58.4765H27.7178C27.6753 59.1285 27.5052 59.7522 27.2217 60.2058L28.866 61.9776H26.9241ZM25.3224 60.2483L23.508 58.2922L23.1537 58.5615C22.8277 58.8167 22.53 59.1144 22.53 59.6388C22.53 60.3475 23.0828 60.7302 23.9474 60.7302C24.4719 60.7161 24.9538 60.5601 25.3224 60.2483ZM23.0261 55.2589C23.0261 55.7692 23.4088 56.081 23.5931 56.2795L23.8341 56.5346L24.1459 56.2795C24.3302 56.1377 24.7696 55.7975 24.7696 55.2589C24.7696 54.8053 24.4719 54.4226 23.8908 54.4226C23.3521 54.4226 23.0261 54.7911 23.0261 55.2589Z" fill="url(#paint9_radial_3796_29380)"/>
<path d="M34.4932 55.8401L34.4223 56.2936H36.7044V57.4276H34.238L33.8695 59.8656C33.6144 61.4248 32.6789 61.9634 31.1905 61.9634H30.17L30.1558 60.6594H31.0488C31.9134 60.6594 32.2961 60.2908 32.4521 59.3128L32.7639 57.4276H31.1197V56.2936H32.934L33.0474 55.5141C33.3167 53.8698 34.2806 53.4021 35.7547 53.4021H36.7044V54.7203H35.8397C34.9468 54.7345 34.6066 55.1172 34.4932 55.8401Z" fill="url(#paint10_radial_3796_29380)"/>
<path d="M44.3728 57.0591L44.1177 58.3206H45.4643L45.1949 59.7664H43.82L43.3806 61.9634H41.8923L42.3317 59.7664H40.8292L40.3898 61.9634H38.9157L39.3551 59.7664H38.207L38.4904 58.3206H39.6669L39.9079 57.0591H38.618L38.9015 55.6133H40.2055L40.645 53.4162H42.1333L41.6939 55.6133H43.1963L43.6358 53.4162H45.1099L44.6705 55.6133H45.9037L45.6202 57.0591H44.3728ZM42.8987 57.0591H41.3962L41.1269 58.3206H42.6294L42.8987 57.0591Z" fill="url(#paint11_radial_3796_29380)"/>
<path d="M48.9653 53.1044C50.1985 53.1044 50.9923 54.0257 50.9923 55.0605C50.9923 56.081 50.2268 57.0024 49.0078 57.0024C47.7747 57.0024 46.9526 56.081 46.9526 55.0605C46.9526 54.0399 47.7747 53.1044 48.9653 53.1044ZM47.718 61.9634L54.3941 53.1753H55.925L49.2346 61.9634H47.718ZM48.9937 56.0102C49.589 56.0102 49.9434 55.5424 49.9434 55.0605C49.9434 54.5785 49.589 54.1108 48.9937 54.1108C48.4125 54.1108 48.0156 54.536 48.0298 55.0746C48.0298 55.5566 48.4125 56.0102 48.9937 56.0102ZM54.4792 58.2639C55.7123 58.2639 56.4919 59.1852 56.4919 60.22C56.4919 61.2405 55.7123 62.1477 54.4933 62.1477C53.2743 62.1477 52.4664 61.2547 52.4664 60.22C52.4664 59.1852 53.2602 58.2639 54.4792 58.2639ZM54.4792 61.1413C55.0603 61.1413 55.4147 60.6877 55.4147 60.2058C55.4147 59.7239 55.0745 59.2561 54.465 59.2561C53.8697 59.2561 53.5153 59.7239 53.5153 60.2058C53.5153 60.7161 53.898 61.1413 54.4792 61.1413Z" fill="url(#paint12_radial_3796_29380)"/>
<path d="M57.9238 61.0563C57.9238 60.3759 58.4483 59.9648 59.0719 59.9648C59.6673 59.9648 60.1917 60.3759 60.1917 61.0563C60.1917 61.7083 59.6814 62.1477 59.0719 62.1477C58.4199 62.1477 57.9238 61.7083 57.9238 61.0563ZM58.5617 58.8876L58.2356 53.4304H59.894L59.5539 58.8876H58.5617Z" fill="url(#paint13_radial_3796_29380)"/>
<defs>
<radialGradient id="paint0_radial_3796_29380" cx="0" cy="0" r="1" gradientUnits="userSpaceOnUse" gradientTransform="translate(33.6066 28.3432) rotate(-29.698) scale(30.7541 25.1242)">
<stop stop-color="#FF9114"/>
<stop offset="1" stop-color="#FF4E0D"/>
</radialGradient>
<radialGradient id="paint1_radial_3796_29380" cx="0" cy="0" r="1" gradientUnits="userSpaceOnUse" gradientTransform="translate(29.6346 43.8709) rotate(73.8539) scale(4.30589 2.78584)">
<stop offset="0.00132565" stop-color="#7A4400"/>
<stop offset="1" stop-color="#643800"/>
</radialGradient>
<linearGradient id="paint2_linear_3796_29380" x1="30.5601" y1="40.6773" x2="30.5601" y2="44.6496" gradientUnits="userSpaceOnUse">
<stop offset="0.00132565" stop-color="#3C2200"/>
<stop offset="1" stop-color="#512D00"/>
</linearGradient>
<linearGradient id="paint3_linear_3796_29380" x1="30.4128" y1="43.5071" x2="30.4128" y2="34.3001" gradientUnits="userSpaceOnUse">
<stop offset="0.00132565" stop-color="#3C2200"/>
<stop offset="1" stop-color="#643800"/>
</linearGradient>
<radialGradient id="paint4_radial_3796_29380" cx="0" cy="0" r="1" gradientUnits="userSpaceOnUse" gradientTransform="translate(51.378 43.8172) rotate(106.146) scale(4.30589 2.78584)">
<stop offset="0.00132565" stop-color="#7A4400"/>
<stop offset="1" stop-color="#643800"/>
</radialGradient>
<linearGradient id="paint5_linear_3796_29380" x1="50.39" y1="40.6773" x2="50.39" y2="44.6496" gradientUnits="userSpaceOnUse">
<stop offset="0.00132565" stop-color="#3C2200"/>
<stop offset="1" stop-color="#512D00"/>
</linearGradient>
<linearGradient id="paint6_linear_3796_29380" x1="50.5371" y1="43.5071" x2="50.5371" y2="34.3001" gradientUnits="userSpaceOnUse">
<stop offset="0.00132565" stop-color="#3C2200"/>
<stop offset="1" stop-color="#643800"/>
</linearGradient>
<radialGradient id="paint7_radial_3796_29380" cx="0" cy="0" r="1" gradientUnits="userSpaceOnUse" gradientTransform="translate(40.5706 65.1777) rotate(0.862144) scale(24.2231 12.0546)">
<stop stop-color="#7A4400" stop-opacity="0.5"/>
<stop offset="0.6008" stop-color="#894D00" stop-opacity="0.1981"/>
<stop offset="0.995" stop-color="#965500" stop-opacity="0"/>
</radialGradient>
<linearGradient id="paint8_linear_3796_29380" x1="40.5453" y1="50.8463" x2="40.5453" y2="66.8492" gradientUnits="userSpaceOnUse">
<stop offset="0.00132565" stop-color="#3C2200"/>
<stop offset="1"/>
</linearGradient>
<radialGradient id="paint9_radial_3796_29380" cx="0" cy="0" r="1" gradientUnits="userSpaceOnUse" gradientTransform="translate(40.291 57.8206) scale(36.7083 36.7083)">
<stop offset="0.00132565" stop-color="white"/>
<stop offset="1" stop-color="#A8BBBD"/>
</radialGradient>
<radialGradient id="paint10_radial_3796_29380" cx="0" cy="0" r="1" gradientUnits="userSpaceOnUse" gradientTransform="translate(40.291 57.8206) scale(36.7083 36.7083)">
<stop offset="0.00132565" stop-color="white"/>
<stop offset="1" stop-color="#A8BBBD"/>
</radialGradient>
<radialGradient id="paint11_radial_3796_29380" cx="0" cy="0" r="1" gradientUnits="userSpaceOnUse" gradientTransform="translate(40.2911 57.8206) scale(36.7083 36.7083)">
<stop offset="0.00132565" stop-color="white"/>
<stop offset="1" stop-color="#A8BBBD"/>
</radialGradient>
<radialGradient id="paint12_radial_3796_29380" cx="0" cy="0" r="1" gradientUnits="userSpaceOnUse" gradientTransform="translate(40.2911 57.8206) scale(36.7083 36.7083)">
<stop offset="0.00132565" stop-color="white"/>
<stop offset="1" stop-color="#A8BBBD"/>
</radialGradient>
<radialGradient id="paint13_radial_3796_29380" cx="0" cy="0" r="1" gradientUnits="userSpaceOnUse" gradientTransform="translate(40.2913 57.8206) scale(36.7083 36.7083)">
<stop offset="0.00132565" stop-color="white"/>
<stop offset="1" stop-color="#A8BBBD"/>
</radialGradient>
</defs>
</svg>
