<svg width="45" height="39" viewBox="0 0 45 39" fill="none" xmlns="http://www.w3.org/2000/svg">
<path d="M22.0503 2.8335L2.5 36.0067H42.5L22.0503 2.8335Z" stroke="#DC3646" stroke-width="4" stroke-miterlimit="10" stroke-linecap="round" stroke-linejoin="round"/>
<path d="M21.7863 14.4665C22.1529 13.989 22.8469 13.989 23.2134 14.4665C23.3247 14.6059 23.4199 14.7454 23.524 14.8849C23.6199 15.0243 23.7176 15.1638 23.8089 15.3033C23.8268 15.3381 23.8342 15.373 23.8294 15.4079C23.8253 15.4427 23.8123 15.4776 23.8042 15.5125C23.7951 15.5473 23.7938 15.5822 23.7946 15.6171V15.7217V16.1401V16.9769V20.3242V23.6714V24.8365C23.7946 25.1677 23.6938 25.491 23.5056 25.7635C23.4027 25.903 23.3062 26.0424 23.1966 26.1819C22.8401 26.6504 22.1596 26.6504 21.8031 26.1819C21.6936 26.0424 21.597 25.903 21.4942 25.7635C21.3059 25.491 21.2051 25.1677 21.2051 24.8366V23.6715V20.3242V16.9769V16.1401V15.7217V15.6171C21.2059 15.5822 21.2047 15.5474 21.1955 15.5125C21.1875 15.4776 21.1744 15.4428 21.1704 15.4079C21.1656 15.373 21.1729 15.3382 21.1909 15.3033C21.2821 15.1638 21.3799 15.0244 21.4758 14.8849C21.5798 14.7454 21.675 14.6059 21.7863 14.4665Z" fill="black"/>
<path d="M22.5001 32.0263C23.2577 32.0263 23.8718 31.4122 23.8718 30.6546C23.8718 29.8971 23.2577 29.283 22.5001 29.283C21.7425 29.283 21.1284 29.8971 21.1284 30.6546C21.1284 31.4122 21.7425 32.0263 22.5001 32.0263Z" fill="black"/>
</svg>
