<svg width="40" height="40" viewBox="0 0 40 40" fill="none" xmlns="http://www.w3.org/2000/svg">
<path d="M26.2378 17.5142C26.3427 12.2475 18.3427 12.9713 20.3998 3.8094C20.3998 3.8094 15.0284 5.9237 15.9712 12.4094C16.295 14.638 15.5141 16.3047 15.5141 16.3047C14.7236 16.4666 13.495 14.8951 13.9236 12.4666C13.9236 12.4666 11.1046 14.5713 11.1046 17.276C11.1046 19.9808 12.4093 22.8475 12.4093 22.8475C9.16171 22.1427 9.48553 17.7618 9.48553 17.7618C9.48553 17.7618 7.42838 20.5142 7.42838 25.7047C7.42838 29.7427 11.9808 36.1903 19.3237 36.1903C26.6665 36.1903 32.5617 30.4952 32.5617 25.4285C32.5617 23.2093 31.8093 20.3427 30.1808 18.7808C30.1808 18.7808 30.3998 23.2093 28.2093 22.9998C28.2093 22.9998 30.0188 17.219 28.1237 14.5713C28.1237 14.5713 27.2093 17.4285 26.2378 17.5142Z" fill="url(#paint0_linear_1442_10925)"/>
<path d="M26.2473 13.5432C28.3805 9.60985 23.0948 9.067 23.0853 6.64795C23.0853 6.64795 22.152 9.14318 24.3807 10.8479C26.1997 12.2289 26.2473 13.5432 26.2473 13.5432Z" fill="url(#paint1_linear_1442_10925)"/>
<path d="M15.0283 6.01889C14.2188 6.81889 15.3331 10.1237 12.7998 11.4284C12.7998 11.4284 11.9426 7.79984 15.0283 6.01889Z" fill="url(#paint2_linear_1442_10925)"/>
<path opacity="0.5" d="M9.09504 19.0855C8.39028 20.2952 7.42838 22.5332 7.42838 25.7047C7.42838 29.2475 11.9427 35.7618 19.3237 35.7618C26.5332 35.7618 32.1332 30.2093 32.1332 25.438C32.1332 23.7142 31.657 21.5142 30.5998 19.9522C30.5237 20.9332 30.2855 22.2665 29.5522 22.9618C29.1712 23.3237 28.695 23.4855 28.1712 23.4285L27.6378 23.3808L27.7998 22.876C27.8188 22.8285 29.1998 18.3142 28.1998 15.6379C27.7998 16.6189 27.1142 17.8855 26.276 17.9522L25.7998 17.9903L25.8093 17.5142C25.8475 15.5427 24.6378 14.4951 23.2378 13.2856C21.2378 11.5522 18.9808 9.59033 19.8093 4.60936C18.4188 5.42841 15.7141 7.68556 16.3903 12.3427C16.7332 14.676 15.9236 16.4094 15.895 16.4856L15.7998 16.6855L15.5903 16.7237C15.1903 16.7998 14.7712 16.6379 14.3903 16.276C13.876 15.7713 13.4093 14.8189 13.3903 13.5237C12.6093 14.3237 11.5331 15.7046 11.5331 17.276C11.5331 19.857 12.7903 22.638 12.7998 22.6665L13.1522 23.4475L12.3141 23.2665C10.1236 22.7903 9.30458 20.7522 9.09504 19.0855Z" fill="url(#paint3_linear_1442_10925)"/>
<path d="M23.0855 6.64795C22.895 8.08605 23.4665 10.1527 24.3807 10.8479C25.2188 11.486 26.1617 12.5813 26.2378 13.5432C27.6665 10.7432 25.6568 9.7051 24.5045 9.29557C24.0188 9.12413 23.1235 8.12413 23.0855 6.64795Z" fill="url(#paint4_radial_1442_10925)"/>
<path d="M18.6952 6.2386C15.5333 11.191 19.6382 16.4196 17.5238 19.5528C15.4095 22.6862 13.2667 19.791 13.1238 17.829C13.1238 17.829 13.1429 24.172 16.2762 26.6767C19.4095 29.1815 10.2476 28.6387 8.99048 25.5815C8.99048 25.5815 8.99048 35.7623 19.3238 35.7623C29.6572 35.7623 31.381 26.2862 31.381 26.2862C31.381 26.2862 27.619 29.4957 25.1143 26.991C25.1143 26.991 26.9905 23.7053 27.4667 20.3338C27.4667 20.3338 26.1715 21.1528 24.181 20.8387C24.181 20.8387 25.2857 16.1053 23.0285 14.5529C20.1333 12.5624 17.6857 7.81957 18.6952 6.2386Z" fill="url(#paint5_linear_1442_10925)"/>
<path d="M19.4857 12.0663C17.8285 14.2472 21.0572 19.8472 17.6667 22.0662C15.7904 23.2948 14.7143 21.8187 14.7143 21.8187C14.7143 21.8187 15.219 24.0853 17.238 26.1043C19.2572 28.1233 14.2 30.8567 10.0952 27.3233C10.0952 27.3233 11.5047 35.8092 21.0572 34.3805C31.6 32.8092 30.819 24.971 30.819 24.971C30.819 24.971 27.9618 29.4662 23.8952 27.3138C23.8952 27.3138 26.4572 23.7425 26.4572 21.6948C26.4572 21.6948 24.7238 22.7233 22.7428 21.7328C22.7428 21.7328 23.6857 16.971 22.5618 16.2567C19.8667 14.5329 19.4857 12.0663 19.4857 12.0663Z" fill="url(#paint6_linear_1442_10925)"/>
<path opacity="0.5" d="M26.2378 17.5142C26.3427 12.2475 18.3427 12.9713 20.3998 3.8094C20.3998 3.8094 15.0284 5.9237 15.9712 12.4094C16.295 14.638 15.5141 16.3047 15.5141 16.3047C14.7236 16.4666 13.495 14.8951 13.9236 12.4666C13.9236 12.4666 11.1046 14.5713 11.1046 17.276C11.1046 19.9808 12.4093 22.8475 12.4093 22.8475C9.16171 22.1427 9.48553 17.7618 9.48553 17.7618C9.48553 17.7618 7.42838 20.5142 7.42838 25.7047C7.42838 29.7427 11.9808 36.1903 19.3237 36.1903C26.6665 36.1903 32.5617 30.4952 32.5617 25.4285C32.5617 23.2093 31.8093 20.3427 30.1808 18.7808C30.1808 18.7808 30.3998 23.2093 28.2093 22.9998C28.2093 22.9998 30.0188 17.219 28.1237 14.5713C28.1237 14.5713 27.2093 17.4285 26.2378 17.5142Z" fill="url(#paint7_radial_1442_10925)"/>
<path opacity="0.5" d="M26.2378 17.5142C26.3427 12.2475 18.3427 12.9713 20.3998 3.8094C20.3998 3.8094 15.0284 5.9237 15.9712 12.4094C16.295 14.638 15.5141 16.3047 15.5141 16.3047C14.7236 16.4666 13.495 14.8951 13.9236 12.4666C13.9236 12.4666 11.1046 14.5713 11.1046 17.276C11.1046 19.9808 12.4093 22.8475 12.4093 22.8475C9.16171 22.1427 9.48553 17.7618 9.48553 17.7618C9.48553 17.7618 7.42838 20.5142 7.42838 25.7047C7.42838 29.7427 11.9808 36.1903 19.3237 36.1903C26.6665 36.1903 32.5617 30.4952 32.5617 25.4285C32.5617 23.2093 31.8093 20.3427 30.1808 18.7808C30.1808 18.7808 30.3998 23.2093 28.2093 22.9998C28.2093 22.9998 30.0188 17.219 28.1237 14.5713C28.1237 14.5713 27.2093 17.4285 26.2378 17.5142Z" fill="url(#paint8_radial_1442_10925)"/>
<path d="M8.07617 23.4952C8.29522 28.876 12.7238 35.3237 19.6477 35.3237C26.5713 35.3237 30.0285 28.019 30.2477 23.7427C30.2477 23.7427 28.9523 26.257 26.0285 26.7618C23.1047 27.2665 26.2285 21.7332 24.181 18.457C24.181 18.457 22.3713 24.1618 19.8 24.3713C17.2285 24.5808 15.0476 20.5998 15.0476 18.457C15.0476 18.457 13.4667 22.3142 13.8571 25.3808C14.4571 30.038 8.07617 23.4952 8.07617 23.4952Z" fill="url(#paint9_radial_1442_10925)"/>
<path opacity="0.5" d="M26.2378 17.5142C26.3427 12.2475 18.3427 12.9713 20.3998 3.8094C20.3998 3.8094 15.0284 5.9237 15.9712 12.4094C16.295 14.638 15.5141 16.3047 15.5141 16.3047C14.7236 16.4666 13.495 14.8951 13.9236 12.4666C13.9236 12.4666 11.1046 14.5713 11.1046 17.276C11.1046 19.9808 12.4093 22.8475 12.4093 22.8475C9.16171 22.1427 9.48553 17.7618 9.48553 17.7618C9.48553 17.7618 7.42838 20.5142 7.42838 25.7047C7.42838 29.7427 11.9808 36.1903 19.3237 36.1903C26.6665 36.1903 32.5617 30.4952 32.5617 25.4285C32.5617 23.2093 31.8093 20.3427 30.1808 18.7808C30.1808 18.7808 30.3998 23.2093 28.2093 22.9998C28.2093 22.9998 30.0188 17.219 28.1237 14.5713C28.1237 14.5713 27.2093 17.4285 26.2378 17.5142Z" fill="url(#paint10_radial_1442_10925)"/>
<path opacity="0.5" d="M26.2473 13.5432C28.3805 9.60985 23.0948 9.067 23.0853 6.64795C23.0853 6.64795 22.152 9.14318 24.3807 10.8479C26.1997 12.2289 26.2473 13.5432 26.2473 13.5432Z" fill="url(#paint11_radial_1442_10925)"/>
<path d="M15.0283 6.01889C14.2283 6.81889 14.7426 9.34269 12.7998 11.4284C12.7998 11.4284 11.9426 7.79984 15.0283 6.01889Z" fill="url(#paint12_radial_1442_10925)"/>
<path opacity="0.5" d="M15.0283 6.01889C14.2188 6.81889 15.3331 10.1237 12.7998 11.4284C12.7998 11.4284 11.9426 7.79984 15.0283 6.01889Z" fill="url(#paint13_radial_1442_10925)"/>
<path opacity="0.5" d="M26.2378 17.5142C26.3427 12.2475 18.3427 12.9713 20.3998 3.8094C20.3998 3.8094 15.0284 5.9237 15.9712 12.4094C16.295 14.638 15.5141 16.3047 15.5141 16.3047C14.7236 16.4666 13.495 14.8951 13.9236 12.4666C13.9236 12.4666 11.1046 14.5713 11.1046 17.276C11.1046 19.9808 12.4093 22.8475 12.4093 22.8475C9.16171 22.1427 9.48553 17.7618 9.48553 17.7618C9.48553 17.7618 7.42838 20.5142 7.42838 25.7047C7.42838 29.7427 11.9808 36.1903 19.3237 36.1903C26.6665 36.1903 32.5617 30.4952 32.5617 25.4285C32.5617 23.2093 31.8093 20.3427 30.1808 18.7808C30.1808 18.7808 30.3998 23.2093 28.2093 22.9998C28.2093 22.9998 30.0188 17.219 28.1237 14.5713C28.1237 14.5713 27.2093 17.4285 26.2378 17.5142Z" fill="url(#paint14_radial_1442_10925)"/>
<path opacity="0.25" d="M26.2378 17.5142C26.3427 12.2475 18.3427 12.9713 20.3998 3.8094C20.3998 3.8094 15.0284 5.9237 15.9712 12.4094C16.295 14.638 15.5141 16.3047 15.5141 16.3047C14.7236 16.4666 13.495 14.8951 13.9236 12.4666C13.9236 12.4666 11.1046 14.5713 11.1046 17.276C11.1046 19.9808 12.4093 22.8475 12.4093 22.8475C9.16171 22.1427 9.48553 17.7618 9.48553 17.7618C9.48553 17.7618 7.42838 20.5142 7.42838 25.7047C7.42838 29.7427 11.9808 36.1903 19.3237 36.1903C26.6665 36.1903 32.5617 30.4952 32.5617 25.4285C32.5617 23.2093 31.8093 20.3427 30.1808 18.7808C30.1808 18.7808 30.3998 23.2093 28.2093 22.9998C28.2093 22.9998 30.0188 17.219 28.1237 14.5713C28.1237 14.5713 27.2093 17.4285 26.2378 17.5142Z" fill="url(#paint15_radial_1442_10925)"/>
<path opacity="0.25" d="M26.2378 17.5142C26.3427 12.2475 18.3427 12.9713 20.3998 3.8094C20.3998 3.8094 15.0284 5.9237 15.9712 12.4094C16.295 14.638 15.5141 16.3047 15.5141 16.3047C14.7236 16.4666 13.495 14.8951 13.9236 12.4666C13.9236 12.4666 11.1046 14.5713 11.1046 17.276C11.1046 19.9808 12.4093 22.8475 12.4093 22.8475C9.16171 22.1427 9.48553 17.7618 9.48553 17.7618C9.48553 17.7618 7.42838 20.5142 7.42838 25.7047C7.42838 29.7427 11.9808 36.1903 19.3237 36.1903C26.6665 36.1903 32.5617 30.4952 32.5617 25.4285C32.5617 23.2093 31.8093 20.3427 30.1808 18.7808C30.1808 18.7808 30.3998 23.2093 28.2093 22.9998C28.2093 22.9998 30.0188 17.219 28.1237 14.5713C28.1237 14.5713 27.2093 17.4285 26.2378 17.5142Z" fill="url(#paint16_radial_1442_10925)"/>
<path opacity="0.25" d="M26.2378 17.5142C26.3427 12.2475 18.3427 12.9713 20.3998 3.8094C20.3998 3.8094 15.0284 5.9237 15.9712 12.4094C16.295 14.638 15.5141 16.3047 15.5141 16.3047C14.7236 16.4666 13.495 14.8951 13.9236 12.4666C13.9236 12.4666 11.1046 14.5713 11.1046 17.276C11.1046 19.9808 12.4093 22.8475 12.4093 22.8475C9.16171 22.1427 9.48553 17.7618 9.48553 17.7618C9.48553 17.7618 7.42838 20.5142 7.42838 25.7047C7.42838 29.7427 11.9808 36.1903 19.3237 36.1903C26.6665 36.1903 32.5617 30.4952 32.5617 25.4285C32.5617 23.2093 31.8093 20.3427 30.1808 18.7808C30.1808 18.7808 30.3998 23.2093 28.2093 22.9998C28.2093 22.9998 30.0188 17.219 28.1237 14.5713C28.1237 14.5713 27.2093 17.4285 26.2378 17.5142Z" fill="url(#paint17_radial_1442_10925)"/>
<defs>
<linearGradient id="paint0_linear_1442_10925" x1="21.6057" y1="37.0853" x2="15.7673" y2="-5.22431" gradientUnits="userSpaceOnUse">
<stop stop-color="#FF0000"/>
<stop offset="0.2317" stop-color="#FF1500"/>
<stop offset="0.7367" stop-color="#FF3D00"/>
<stop offset="0.9987" stop-color="#FF4C00"/>
</linearGradient>
<linearGradient id="paint1_linear_1442_10925" x1="28.4467" y1="36.1418" x2="22.6083" y2="-6.16788" gradientUnits="userSpaceOnUse">
<stop stop-color="#FF0000"/>
<stop offset="0.2317" stop-color="#FF1500"/>
<stop offset="0.7367" stop-color="#FF3D00"/>
<stop offset="0.9987" stop-color="#FF4C00"/>
</linearGradient>
<linearGradient id="paint2_linear_1442_10925" x1="17.8912" y1="37.5978" x2="12.0528" y2="-4.71181" gradientUnits="userSpaceOnUse">
<stop stop-color="#FF0000"/>
<stop offset="0.2317" stop-color="#FF1500"/>
<stop offset="0.7367" stop-color="#FF3D00"/>
<stop offset="0.9987" stop-color="#FF4C00"/>
</linearGradient>
<linearGradient id="paint3_linear_1442_10925" x1="21.4483" y1="29.8783" x2="8.69053" y2="-6.55701" gradientUnits="userSpaceOnUse">
<stop stop-color="#FF8000"/>
<stop offset="0.6388" stop-color="#FF5B00"/>
<stop offset="0.9987" stop-color="#FF4C00"/>
</linearGradient>
<radialGradient id="paint4_radial_1442_10925" cx="0" cy="0" r="1" gradientUnits="userSpaceOnUse" gradientTransform="translate(26.9122 0.226445) scale(17.001 17.001)">
<stop offset="0.00134333" stop-color="#FFED1C" stop-opacity="0.6"/>
<stop offset="0.9477" stop-color="#FFED1C" stop-opacity="0.0264782"/>
<stop offset="0.9914" stop-color="#FFED1C" stop-opacity="0"/>
</radialGradient>
<linearGradient id="paint5_linear_1442_10925" x1="16.4945" y1="5.56537" x2="21.1075" y2="31.4413" gradientUnits="userSpaceOnUse">
<stop stop-color="#FF8000"/>
<stop offset="0.022669" stop-color="#FE7F02" stop-opacity="0.9773"/>
<stop offset="0.6663" stop-color="#ED582A" stop-opacity="0.3337"/>
<stop offset="1" stop-color="#E74939" stop-opacity="0"/>
</linearGradient>
<linearGradient id="paint6_linear_1442_10925" x1="20.0767" y1="33.526" x2="21.0737" y2="15.3572" gradientUnits="userSpaceOnUse">
<stop stop-color="#FFBC47"/>
<stop offset="0.1869" stop-color="#FFB137" stop-opacity="0.8131"/>
<stop offset="0.7223" stop-color="#FF940F" stop-opacity="0.2777"/>
<stop offset="1" stop-color="#FF8900" stop-opacity="0"/>
</linearGradient>
<radialGradient id="paint7_radial_1442_10925" cx="0" cy="0" r="1" gradientUnits="userSpaceOnUse" gradientTransform="translate(19.8287 28.6232) scale(13.1512 10.6761)">
<stop offset="0.00134333" stop-color="#FFBC47"/>
<stop offset="0.2941" stop-color="#FFBF4B" stop-opacity="0.7068"/>
<stop offset="0.5624" stop-color="#FEC656" stop-opacity="0.4382"/>
<stop offset="0.8201" stop-color="#FCD368" stop-opacity="0.1801"/>
<stop offset="1" stop-color="#FBE07A" stop-opacity="0"/>
</radialGradient>
<radialGradient id="paint8_radial_1442_10925" cx="0" cy="0" r="1" gradientUnits="userSpaceOnUse" gradientTransform="translate(19.8287 28.0825) scale(12.746 10.3472)">
<stop offset="0.00134333" stop-color="white"/>
<stop offset="1" stop-color="white" stop-opacity="0"/>
</radialGradient>
<radialGradient id="paint9_radial_1442_10925" cx="0" cy="0" r="1" gradientUnits="userSpaceOnUse" gradientTransform="translate(14.2399 30.4335) scale(15.6575 18.23)">
<stop offset="0.00134333" stop-color="#FFED1C" stop-opacity="0.6"/>
<stop offset="0.9477" stop-color="#FFED1C" stop-opacity="0.0264782"/>
<stop offset="0.9914" stop-color="#FFED1C" stop-opacity="0"/>
</radialGradient>
<radialGradient id="paint10_radial_1442_10925" cx="0" cy="0" r="1" gradientUnits="userSpaceOnUse" gradientTransform="translate(19.8293 28.0812) rotate(92.8876) scale(4.94853 4.017)">
<stop offset="0.00134333" stop-color="white"/>
<stop offset="1" stop-color="white" stop-opacity="0"/>
</radialGradient>
<radialGradient id="paint11_radial_1442_10925" cx="0" cy="0" r="1" gradientUnits="userSpaceOnUse" gradientTransform="translate(22.5645 6.63892) scale(5.61697)">
<stop offset="0.00134333" stop-color="#FFED1C"/>
<stop offset="0.1997" stop-color="#FFEE2B" stop-opacity="0.8013"/>
<stop offset="0.5839" stop-color="#FFF254" stop-opacity="0.4167"/>
<stop offset="1" stop-color="#FFF686" stop-opacity="0"/>
</radialGradient>
<radialGradient id="paint12_radial_1442_10925" cx="0" cy="0" r="1" gradientUnits="userSpaceOnUse" gradientTransform="translate(13.3026 9.34127) rotate(-56.4116) scale(4.54987 1.03329)">
<stop offset="0.00134333" stop-color="#FFED1C" stop-opacity="0.6"/>
<stop offset="0.9477" stop-color="#FFED1C" stop-opacity="0.0264782"/>
<stop offset="0.9914" stop-color="#FFED1C" stop-opacity="0"/>
</radialGradient>
<radialGradient id="paint13_radial_1442_10925" cx="0" cy="0" r="1" gradientUnits="userSpaceOnUse" gradientTransform="translate(14.2036 5.77344) rotate(95.0573) scale(4.08828 1.645)">
<stop offset="0.00134333" stop-color="#FFED1C"/>
<stop offset="0.1997" stop-color="#FFEE2B" stop-opacity="0.8013"/>
<stop offset="0.5839" stop-color="#FFF254" stop-opacity="0.4167"/>
<stop offset="1" stop-color="#FFF686" stop-opacity="0"/>
</radialGradient>
<radialGradient id="paint14_radial_1442_10925" cx="0" cy="0" r="1" gradientUnits="userSpaceOnUse" gradientTransform="translate(21.3167 5.91769) scale(17.5267 17.5267)">
<stop offset="0.00134333" stop-color="#FF4C00"/>
<stop offset="0.135" stop-color="#FF5B0C" stop-opacity="0.8661"/>
<stop offset="0.3941" stop-color="#FF842C" stop-opacity="0.6067"/>
<stop offset="0.7491" stop-color="#FFC45F" stop-opacity="0.2512"/>
<stop offset="1" stop-color="#FFF686" stop-opacity="0"/>
</radialGradient>
<radialGradient id="paint15_radial_1442_10925" cx="0" cy="0" r="1" gradientUnits="userSpaceOnUse" gradientTransform="translate(29.2882 20.117) scale(9.30287 9.30287)">
<stop offset="0.00134333" stop-color="#FFED1C"/>
<stop offset="0.1997" stop-color="#FFEE2B" stop-opacity="0.8013"/>
<stop offset="0.5839" stop-color="#FFF254" stop-opacity="0.4167"/>
<stop offset="1" stop-color="#FFF686" stop-opacity="0"/>
</radialGradient>
<radialGradient id="paint16_radial_1442_10925" cx="0" cy="0" r="1" gradientUnits="userSpaceOnUse" gradientTransform="translate(10.245 23.4327) scale(9.91567 9.91567)">
<stop offset="0.00134333" stop-color="#FFED1C"/>
<stop offset="0.1997" stop-color="#FFEE2B" stop-opacity="0.8013"/>
<stop offset="0.5839" stop-color="#FFF254" stop-opacity="0.4167"/>
<stop offset="1" stop-color="#FFF686" stop-opacity="0"/>
</radialGradient>
<radialGradient id="paint17_radial_1442_10925" cx="0" cy="0" r="1" gradientUnits="userSpaceOnUse" gradientTransform="translate(19.6807 21.4285) rotate(86.1102) scale(16.9848 10.325)">
<stop stop-color="#FF4C00" stop-opacity="0"/>
<stop offset="0.9874" stop-color="#FF4C00" stop-opacity="0.9888"/>
<stop offset="0.9987" stop-color="#FF4C00"/>
</radialGradient>
</defs>
</svg>
