<svg width="91" height="89" viewBox="0 0 91 89" fill="none" xmlns="http://www.w3.org/2000/svg">
<path d="M41.6807 57.3581C41.6807 68.8679 32.3502 78.1985 20.8404 78.1985V78.1985C9.33056 78.1985 7.72298e-06 68.8679 8.72859e-06 57.3581L1.25426e-05 13.7049C1.32039e-05 6.13587 6.1359 -9.61477e-06 13.7049 -8.95267e-06L27.9758 -7.70431e-06C35.5448 -7.04221e-06 41.6807 6.13588 41.6807 13.7049L41.6807 57.3581Z" fill="#5B3F91"/>
<path d="M60.4504 32.8306L60.8427 40.321C60.956 42.4846 62.4496 44.3295 64.5421 44.8905L71.7871 46.833C74.5937 47.5855 74.7993 51.49 72.0871 52.5317L65.0806 55.2229C63.0595 55.9992 61.768 57.9886 61.8813 60.1512L62.2739 67.6477C62.426 70.5503 58.7754 71.9506 56.9468 69.6911L52.23 63.8628C50.8665 62.178 48.5734 61.5632 46.5507 62.3401L39.5535 65.0277C36.8408 66.0697 34.379 63.0306 35.9611 60.5929L40.0471 54.2972C41.2259 52.481 41.1015 50.112 39.7391 48.4285L35.0161 42.5926C33.1878 40.3335 35.3169 37.0549 38.1236 37.8074L45.3686 39.7499C47.4611 40.3109 49.6764 39.4604 50.8557 37.6434L54.9384 31.3528C56.5207 28.9149 60.2983 29.9277 60.4504 32.8306Z" stroke="#EAD0FF" stroke-width="2"/>
</svg>
