<svg width="80" height="80" viewBox="0 0 80 80" fill="none" xmlns="http://www.w3.org/2000/svg">
<path d="M3.3335 30V40V46.6667V70C3.3335 73.6667 6.31816 76.6667 10.0002 76.6667H40.0002H70.0002C73.6835 76.6667 76.6668 73.6667 76.6668 70V46.6667V40V30H3.3335Z" fill="#F39C12"/>
<path d="M3.3335 26.6667V36.6667V43.3334V66.6667C3.3335 70.3334 6.31816 73.3334 10.0002 73.3334H40.0002H70.0002C73.6835 73.3334 76.6668 70.3334 76.6668 66.6667V43.3334V36.6667V26.6667H3.3335Z" fill="#F1C40F"/>
<path d="M6.66667 20C2.98467 20 0 23 0 26.6667V33.3333H80V26.6667C80 23 77.0167 20 73.3333 20H66.6667H43.3333H36.6667H13.3333H6.66667Z" fill="#F1C40F"/>
<path d="M50 16.6667H30V76.6667H50V16.6667Z" fill="#E74C3C"/>
<path d="M26.2825 3.33319C22.9539 2.99985 19.7049 4.66636 17.9229 7.33302C15.3309 11.333 16.8799 16.3331 21.3695 18.6664C22.8132 19.6664 24.3595 19.9999 25.9159 19.9999H26.6859H37.6865H42.3065H53.3032H54.0732C55.6299 19.9999 57.2132 19.6664 58.6565 18.6664C63.1465 16.3331 64.6599 11.333 62.0665 7.33302C59.4765 3.33302 53.7599 1.99961 49.2699 4.33294C47.8265 4.99961 46.6932 5.99969 45.8999 7.33302H45.8265C45.7199 7.66636 45.6265 7.6666 45.5332 7.99993L39.9965 16.3333L34.4599 7.99993C34.3665 7.6666 34.2732 7.66636 34.1665 7.33302H34.0932C33.2979 5.99969 32.1995 4.99961 30.7555 4.33294C29.3525 3.66627 27.7955 3.33319 26.2825 3.33319ZM25.7325 7.33302C26.6342 7.33302 27.5672 7.6666 28.4092 7.99993C28.6915 7.99993 28.9455 8.33319 29.1789 8.33319C29.3432 8.66652 29.4795 8.66636 29.6189 8.99969H29.7289C29.8039 8.99969 29.8822 9.33294 29.9489 9.33294H30.0589H30.0955C30.1489 9.66627 30.2322 9.6666 30.2789 9.6666L34.1665 15.6664H26.3925H25.9525H25.7692H25.4025H25.2192C25.0059 15.6664 24.8055 15.6664 24.5959 15.3331C24.2979 15.3331 23.9985 15.3332 23.7159 14.9999C23.1549 14.9999 22.6535 14.333 22.2859 13.9997C21.1835 12.6664 21.0205 10.9996 21.9925 9.33294C22.8025 8.33294 24.2295 7.33302 25.7325 7.33302ZM54.2932 7.33302C55.7965 7.33302 57.2232 8.33294 58.0332 9.33294C59.0065 10.9996 58.8065 12.6664 57.7032 13.9997C57.3365 14.333 56.8732 14.9999 56.3099 14.9999C56.0299 15.3332 55.7299 15.3331 55.4299 15.3331C55.2232 15.6664 54.9832 15.6664 54.7699 15.6664H54.5865H54.2199H54.0365H53.5965H45.8265L49.7099 9.6666C49.7565 9.6666 49.8399 9.66627 49.8932 9.33294H49.9299C49.9399 9.33294 49.9232 9.33294 49.9299 9.33294H50.0399C50.1065 9.33294 50.1865 8.99969 50.2599 8.99969H50.3699C50.5099 8.66636 50.6832 8.66652 50.8465 8.33319C51.0832 8.33319 51.3365 7.99993 51.6165 7.99993C52.4599 7.6666 53.3932 7.33302 54.2932 7.33302Z" fill="#C0392B"/>
<path d="M76.6668 33.3333H3.3335V43.3333H76.6668V33.3333Z" fill="#F39C12"/>
<path d="M50 33.3333H30V43.3333H50V33.3333Z" fill="#C0392B"/>
<path d="M50 73.3333H30V76.6666H50V73.3333Z" fill="#C0392B"/>
<path d="M30.0002 33.3333H3.3335V36.6666H30.0002V33.3333Z" fill="#E67E22"/>
<path d="M76.6667 33.3333H50V36.6666H76.6667V33.3333Z" fill="#E67E22"/>
</svg>
