<svg width="151" height="46" viewBox="0 0 151 46" fill="none" xmlns="http://www.w3.org/2000/svg">
<path d="M144.904 45.1677H5.1761C2.34443 45.1677 0.0498047 42.8076 0.0498047 39.898V5.84968C0.0498047 2.94002 2.34443 0.577148 5.1761 0.577148H144.904C147.736 0.577148 150.031 2.94002 150.031 5.84968V39.898C150.031 42.8076 147.736 45.1677 144.904 45.1677Z" fill="black"/>
<path d="M119.046 34.4913H121.129V20.1327H119.046V34.4913ZM137.815 25.3048L135.426 31.5314H135.355L132.876 25.3048H130.63L134.349 34.0059L132.228 38.846H134.403L140.131 25.3048H137.815ZM125.995 32.8593C125.314 32.8593 124.362 32.5106 124.362 31.6402C124.362 30.5327 125.547 30.1087 126.57 30.1087C127.487 30.1087 127.918 30.3123 128.474 30.5885C128.311 31.9192 127.199 32.8593 125.995 32.8593ZM126.247 24.9924C124.739 24.9924 123.177 25.6759 122.528 27.1907L124.378 27.9829C124.774 27.1907 125.509 26.9312 126.282 26.9312C127.362 26.9312 128.455 27.5952 128.474 28.778V28.9259C128.097 28.7055 127.289 28.3707 126.301 28.3707C124.308 28.3707 122.279 29.4978 122.279 31.604C122.279 33.5261 123.912 34.7647 125.745 34.7647C127.145 34.7647 127.918 34.1175 128.403 33.3587H128.474V34.469H130.486V28.9621C130.486 26.4151 128.637 24.9924 126.247 24.9924ZM113.369 27.054H110.404V22.1302H113.369C114.928 22.1302 115.81 23.4581 115.81 24.5907C115.81 25.7066 114.928 27.054 113.369 27.054ZM113.315 20.1327H108.321V34.4913H110.404V29.0514H113.315C115.626 29.0514 117.896 27.3302 117.896 24.5907C117.896 21.8512 115.626 20.1327 113.315 20.1327ZM86.0883 32.8621C84.648 32.8621 83.441 31.6235 83.441 29.9218C83.441 28.2005 84.648 26.9424 86.0883 26.9424C87.5095 26.9424 88.6243 28.2005 88.6243 29.9218C88.6243 31.6235 87.5095 32.8621 86.0883 32.8621ZM88.4778 26.1083H88.4073C87.9408 25.5364 87.0403 25.0175 85.9066 25.0175C83.5306 25.0175 81.3553 27.1656 81.3553 29.9218C81.3553 32.6613 83.5306 34.7898 85.9066 34.7898C87.0403 34.7898 87.9408 34.2709 88.4073 33.6795H88.4778V34.3797C88.4778 36.2488 87.5095 37.2503 85.9418 37.2503C84.6643 37.2503 83.8723 36.3046 83.5495 35.5096L81.7323 36.2879C82.253 37.5823 83.639 39.1724 85.9418 39.1724C88.3883 39.1724 90.4578 37.6939 90.4578 34.084V25.3132H88.4778V26.1083ZM91.8981 34.4913H93.9866V20.1327H91.8981V34.4913ZM97.0624 29.7544C97.0081 27.8658 98.4836 26.9061 99.5441 26.9061C100.371 26.9061 101.074 27.3302 101.307 27.9411L97.0624 29.7544ZM103.539 28.1252C103.143 27.0344 101.939 25.0175 99.4709 25.0175C97.0271 25.0175 94.9929 26.9982 94.9929 29.9023C94.9929 32.6417 97.0081 34.7898 99.7069 34.7898C101.885 34.7898 103.143 33.4201 103.664 32.6222L102.045 31.5119C101.505 32.3265 100.767 32.8621 99.7069 32.8621C98.6464 32.8621 97.8896 32.3656 97.4041 31.3836L103.754 28.6832L103.539 28.1252ZM52.9382 26.5156V28.5883H57.7607C57.617 29.7544 57.24 30.6053 56.6622 31.1967C55.9625 31.9192 54.864 32.7143 52.9382 32.7143C49.9709 32.7143 47.6492 30.2538 47.6492 27.2018C47.6492 24.1471 49.9709 21.6866 52.9382 21.6866C54.5412 21.6866 55.7102 22.3338 56.5727 23.1679L57.994 21.7033C56.7897 20.5205 55.1894 19.6138 52.9382 19.6138C48.8724 19.6138 45.4549 23.0201 45.4549 27.2018C45.4549 31.3836 48.8724 34.7898 52.9382 34.7898C55.1352 34.7898 56.7897 34.0478 58.0862 32.6613C59.4152 31.2915 59.8302 29.3666 59.8302 27.8128C59.8302 27.3302 59.795 26.8866 59.7217 26.5156H52.9382ZM65.3118 32.8621C63.8716 32.8621 62.6321 31.643 62.6321 29.9023C62.6321 28.1447 63.8716 26.9424 65.3118 26.9424C66.7521 26.9424 67.9916 28.1447 67.9916 29.9023C67.9916 31.643 66.7521 32.8621 65.3118 32.8621ZM65.3118 25.0175C62.6836 25.0175 60.5436 27.0707 60.5436 29.9023C60.5436 32.7143 62.6836 34.7898 65.3118 34.7898C67.9401 34.7898 70.0801 32.7143 70.0801 29.9023C70.0801 27.0707 67.9401 25.0175 65.3118 25.0175ZM75.7136 32.8621C74.2734 32.8621 73.0311 31.643 73.0311 29.9023C73.0311 28.1447 74.2734 26.9424 75.7136 26.9424C77.1512 26.9424 78.3934 28.1447 78.3934 29.9023C78.3934 31.643 77.1512 32.8621 75.7136 32.8621ZM75.7136 25.0175C73.0854 25.0175 70.9454 27.0707 70.9454 29.9023C70.9454 32.7143 73.0854 34.7898 75.7136 34.7898C78.3392 34.7898 80.4819 32.7143 80.4819 29.9023C80.4819 27.0707 78.3392 25.0175 75.7136 25.0175Z" fill="white"/>
<path d="M50.8189 9.5154C50.3985 9.13321 49.8479 8.88772 49.2349 8.88772C47.8625 8.88772 46.8047 10.0538 46.8047 11.4849C46.8047 12.9188 47.8625 14.0738 49.2349 14.0738C50.4175 14.0738 51.2773 13.368 51.3342 12.2493H49.4655V11.457H52.3432C52.3432 13.8311 51.1145 14.947 49.2349 14.947C47.3661 14.947 45.9177 13.3987 45.9177 11.4849C45.9177 9.56282 47.3661 8.01175 49.2349 8.01175C50.1029 8.01175 50.884 8.35767 51.4563 8.90445" fill="white"/>
<path d="M57.448 8.09206V8.94292H54.4427V11.1022H57.0656V11.9558H54.4427V13.9951H57.5429V14.8487H53.5558V8.09206" fill="white"/>
<path d="M63.1984 8.09206V8.95408H61.2048V14.8487H60.3097V8.95408H58.3162V8.09206" fill="white"/>
<path d="M66.5645 14.8489H67.4514V8.09229H66.5645V14.8489Z" fill="white"/>
<path d="M73.5001 8.09229V8.9543H71.5066V14.8489H70.6088V8.9543H68.6152V8.09229" fill="white"/>
<path d="M79.7546 14.0654C81.1378 14.0654 82.1956 12.9188 82.1956 11.4849C82.1956 10.0538 81.1378 8.89609 79.7546 8.89609C78.3821 8.89609 77.3243 10.0538 77.3243 11.4849C77.3243 12.9188 78.3821 14.0654 79.7546 14.0654ZM79.7546 8.01175C81.6342 8.01175 83.0934 9.56282 83.0934 11.4849C83.0934 13.3987 81.6342 14.947 79.7546 14.947C77.8858 14.947 76.4374 13.3987 76.4374 11.4849C76.4374 9.56282 77.8858 8.01175 79.7546 8.01175Z" fill="white"/>
<path d="M88.3393 14.8487L85.3449 9.76031V14.8487H84.458V8.09206H85.3368L88.3014 13.1414V8.09206H89.1883V14.8487" fill="white"/>
<path fill-rule="evenodd" clip-rule="evenodd" d="M18.6264 11.9298C18.3776 12.2059 18.2346 12.6309 18.2346 13.1831V32.8251C18.2346 33.3773 18.3776 33.8023 18.6357 34.0688L18.7031 34.1276L29.3618 23.1218V22.8745L18.6938 11.871L18.6264 11.9298Z" fill="url(#paint0_linear_3_958)"/>
<path fill-rule="evenodd" clip-rule="evenodd" d="M32.9089 26.8056L29.3537 23.1333V22.8764L32.9101 19.2042L32.9868 19.2534L37.1931 21.7216C38.3975 22.4226 38.3975 23.5775 37.1931 24.2882L32.9868 26.7563C32.9857 26.7563 32.9089 26.8056 32.9089 26.8056Z" fill="url(#paint1_linear_3_958)"/>
<path fill-rule="evenodd" clip-rule="evenodd" d="M32.9842 26.7564L29.3523 23.005L18.6262 34.0805C19.018 34.515 19.6772 34.5643 20.4143 34.1393L32.9842 26.7564Z" fill="url(#paint2_linear_3_958)"/>
<path fill-rule="evenodd" clip-rule="evenodd" d="M32.9842 19.2539L20.4143 11.8806C19.6783 11.446 19.018 11.5049 18.6262 11.9394L29.3511 23.0041L32.9842 19.2539Z" fill="url(#paint3_linear_3_958)"/>
<path opacity="0.2" fill-rule="evenodd" clip-rule="evenodd" d="M32.9068 26.6762L20.4229 34.0002C19.7253 34.4143 19.1033 34.3855 18.7022 34.0098L18.6348 34.0794L18.7022 34.1382C19.1033 34.5128 19.7253 34.5428 20.4229 34.1286L32.9928 26.7554L32.9068 26.6762Z" fill="black"/>
<path opacity="0.12" fill-rule="evenodd" clip-rule="evenodd" d="M37.1909 24.1598L32.8986 26.6772L32.9754 26.7564L37.1816 24.2883C37.7839 23.9329 38.0803 23.4696 38.0803 23.005C38.0419 23.4299 37.7362 23.8345 37.1909 24.1598Z" fill="black"/>
<path opacity="0.25" fill-rule="evenodd" clip-rule="evenodd" d="M20.4144 12.0093L37.1907 21.8508C37.7359 22.1665 38.0417 22.5806 38.0893 23.0056C38.0893 22.5422 37.7929 22.0777 37.1907 21.7223L20.4144 11.8809C19.21 11.1702 18.2346 11.7621 18.2346 13.1834V13.3119C18.2346 11.8905 19.21 11.3083 20.4144 12.0093Z" fill="white"/>
<defs>
<linearGradient id="paint0_linear_3_958" x1="28.4047" y1="12.972" x2="11.2608" y2="17.3959" gradientUnits="userSpaceOnUse">
<stop stop-color="#00A0FF"/>
<stop offset="0.007" stop-color="#00A1FF"/>
<stop offset="0.26" stop-color="#00BEFF"/>
<stop offset="0.512" stop-color="#00D2FF"/>
<stop offset="0.76" stop-color="#00DFFF"/>
<stop offset="1" stop-color="#00E3FF"/>
</linearGradient>
<linearGradient id="paint1_linear_3_958" x1="38.7604" y1="23.0054" x2="17.9431" y2="23.0054" gradientUnits="userSpaceOnUse">
<stop stop-color="#FFE000"/>
<stop offset="0.409" stop-color="#FFBD00"/>
<stop offset="0.775" stop-color="#FFA500"/>
<stop offset="1" stop-color="#FF9C00"/>
</linearGradient>
<linearGradient id="paint2_linear_3_958" x1="31.0093" y1="25.0458" x2="16.6434" y2="48.4617" gradientUnits="userSpaceOnUse">
<stop stop-color="#FF3A44"/>
<stop offset="1" stop-color="#C31162"/>
</linearGradient>
<linearGradient id="paint3_linear_3_958" x1="15.9262" y1="5.39595" x2="22.3354" y2="15.8542" gradientUnits="userSpaceOnUse">
<stop stop-color="#32A071"/>
<stop offset="0.069" stop-color="#2DA771"/>
<stop offset="0.476" stop-color="#15CF74"/>
<stop offset="0.801" stop-color="#06E775"/>
<stop offset="1" stop-color="#00F076"/>
</linearGradient>
</defs>
</svg>
