<svg width="80" height="80" viewBox="0 0 80 80" fill="none" xmlns="http://www.w3.org/2000/svg">
<path d="M40.0001 70.4762C56.8316 70.4762 70.4763 56.8315 70.4763 40C70.4763 23.1685 56.8316 9.5238 40.0001 9.5238C23.1686 9.5238 9.52393 23.1685 9.52393 40C9.52393 56.8315 23.1686 70.4762 40.0001 70.4762Z" fill="url(#paint0_radial_4351_34641)"/>
<path opacity="0.5" d="M40.0001 70.4762C56.8316 70.4762 70.4763 56.8315 70.4763 40C70.4763 23.1685 56.8316 9.5238 40.0001 9.5238C23.1686 9.5238 9.52393 23.1685 9.52393 40C9.52393 56.8315 23.1686 70.4762 40.0001 70.4762Z" fill="url(#paint1_radial_4351_34641)"/>
<path d="M60.5717 45.1618C60.3431 45.0665 60.0955 45.0665 59.8669 45.1237C53.4288 46.9522 46.7622 47.8856 40.0003 47.8856C33.2574 47.8856 26.5717 46.9522 20.1336 45.1237C19.905 45.0475 19.6574 45.0665 19.4288 45.1618C18.7241 45.4475 17.6384 46.4951 19.086 50.5141C21.2765 55.6379 26.9717 64.6475 40.0193 64.6475C53.0098 64.6475 58.7431 55.6189 60.9336 50.4951C62.3622 46.4951 61.2764 45.4475 60.5717 45.1618Z" fill="url(#paint2_radial_4351_34641)"/>
<path d="M31.9427 25.619C31.6189 24.438 30.1332 24.0571 27.9427 24.6666C26.0761 25.1809 22.2856 27.3523 20.4951 31.7523C20.1713 32.5713 21.0665 32.7047 21.4475 32.1332C22.7618 30.1904 26.8761 26.9904 30.5904 26.3809C32.0951 26.1523 31.9427 25.619 31.9427 25.619Z" fill="url(#paint3_linear_4351_34641)"/>
<path d="M31.7526 35.0858C29.6383 33.7715 26.9145 33.9239 24.9336 35.4096C23.924 36.1715 22.9336 37.3334 22.3431 39.1429C22.2478 39.4477 22.1716 39.7715 22.1526 40.0953C22.1145 40.7429 22.5716 41.3334 23.2955 40.6477C28.9336 35.3334 32.8764 40.8001 32.8764 40.8001C33.6383 41.3525 34.4193 40.2096 34.2669 39.1429C34.2288 38.8382 34.1907 38.5144 34.0955 38.2287C33.6764 36.6858 32.7431 35.7144 31.7526 35.0858Z" fill="url(#paint4_radial_4351_34641)"/>
<path d="M40.0001 63.2383C45.3906 63.2383 49.4477 61.5811 52.4763 59.3144C49.143 57.8097 45.0477 56.8192 40.0001 56.8192C34.9525 56.8192 30.8382 57.8097 27.5049 59.3144C30.5335 61.5811 34.5906 63.2383 40.0001 63.2383Z" fill="url(#paint5_radial_4351_34641)"/>
<path d="M60.1718 45.0666C60.1337 45.0666 60.0765 45.0666 60.0384 45.0856C53.5432 46.9523 46.8003 47.9047 40.0003 47.9047C33.1813 47.9047 26.4384 46.9523 19.9622 45.0856C19.9241 45.0666 19.867 45.0666 19.8289 45.0666C19.3908 45.1047 17.2956 45.5428 19.086 50.5142C19.9622 52.5904 21.4289 55.2761 23.7146 57.7714C21.5813 55.238 24.2098 53.8285 28.9146 54.3999C33.6194 54.9714 40.0194 54.9714 40.0194 54.9714C40.0194 54.9714 46.4384 54.9523 51.1241 54.3999C55.8289 53.8285 58.4575 55.238 56.3241 57.7714C58.6099 55.2761 60.0575 52.5904 60.9527 50.5142C62.7051 45.5428 60.6099 45.1047 60.1718 45.0666Z" fill="url(#paint6_linear_4351_34641)"/>
<path d="M56.5524 52.0381C58.3429 51.6571 59.6762 50.1714 59.8476 48.3428L60.0191 46.5714C53.5429 48.4 46.8 49.3333 40 49.3333C33.2 49.3333 26.4572 48.4 19.9619 46.5714L20.1333 48.3428C20.3048 50.1714 21.6572 51.6571 23.4286 52.0381C28.8381 53.2 34.4 53.8095 39.981 53.8095C45.581 53.8095 51.1429 53.219 56.5524 52.0381Z" fill="url(#paint7_radial_4351_34641)"/>
<path d="M34.1147 38.2286C33.9051 37.581 33.6385 37.0476 33.3528 36.5905C32.8956 35.9429 32.3432 35.4667 31.7718 35.1048C29.6575 33.7905 26.9337 33.9429 24.9528 35.4286C23.9432 36.1905 22.9528 37.3524 22.3623 39.1619C22.3052 39.3334 22.2671 39.5238 22.229 39.7143C22.229 39.7143 22.229 39.7143 22.229 39.7334C24.7051 35.8667 28.2861 35.6 28.2861 35.6C28.2861 35.6 31.829 35.2953 34.229 38.7619C34.1909 38.5715 34.1528 38.4 34.1147 38.2286Z" fill="url(#paint8_linear_4351_34641)"/>
<path d="M48.0571 25.619C48.3809 24.438 49.8666 24.0571 52.0571 24.6666C53.9238 25.1809 57.7143 27.3523 59.5047 31.7523C59.8285 32.5713 58.9333 32.7047 58.5523 32.1332C57.2381 30.1904 53.1238 26.9904 49.4095 26.3809C47.9047 26.1523 48.0571 25.619 48.0571 25.619Z" fill="url(#paint9_linear_4351_34641)"/>
<path d="M48.2479 35.0858C50.3621 33.7715 53.0859 33.9239 55.0669 35.4096C56.0764 36.1715 57.0669 37.3334 57.6574 39.1429C57.7526 39.4477 57.8288 39.7715 57.8478 40.0953C57.8859 40.7429 57.4288 41.3334 56.705 40.6477C51.0669 35.3334 47.124 40.8001 47.124 40.8001C46.3621 41.3525 45.5812 40.2096 45.7336 39.1429C45.7717 38.8382 45.8098 38.5144 45.905 38.2287C46.324 36.6858 47.2574 35.7144 48.2479 35.0858Z" fill="url(#paint10_radial_4351_34641)"/>
<path d="M45.8858 38.2286C46.0953 37.581 46.362 37.0476 46.6477 36.5905C47.1048 35.9429 47.6572 35.4667 48.2286 35.1048C50.3429 33.7905 53.0667 33.9429 55.0477 35.4286C56.0572 36.1905 57.0477 37.3524 57.6381 39.1619C57.6953 39.3334 57.7334 39.5238 57.7715 39.7143C57.7715 39.7143 57.7715 39.7143 57.7715 39.7334C55.2953 35.8667 51.7143 35.6 51.7143 35.6C51.7143 35.6 48.1715 35.2953 45.7715 38.7619C45.8096 38.5715 45.8477 38.4 45.8858 38.2286Z" fill="url(#paint11_linear_4351_34641)"/>
<path d="M40.0001 70.4762C56.8316 70.4762 70.4763 56.8315 70.4763 40C70.4763 23.1685 56.8316 9.5238 40.0001 9.5238C23.1686 9.5238 9.52393 23.1685 9.52393 40C9.52393 56.8315 23.1686 70.4762 40.0001 70.4762Z" fill="url(#paint12_radial_4351_34641)"/>
<path d="M69.4475 28.7618C69.4475 32.8189 66.1713 36.0951 62.1141 36.0951C58.057 36.0951 54.7808 32.8189 54.7808 28.7618C54.7808 20.9141 62.1141 13.0856 62.1141 13.0856C62.1141 13.0856 69.4475 20.8951 69.4475 28.7618Z" fill="url(#paint13_linear_4351_34641)"/>
<path opacity="0.5" d="M62.2098 13.1808C62.8574 17.1998 66.9336 20.9522 66.0383 28.6284C65.3717 34.2855 56.8955 34.6284 54.8193 29.2189C55.0479 33.0475 58.2288 36.0951 62.1336 36.0951C66.1907 36.0951 69.4669 32.8189 69.4669 28.7617C69.4479 21.4094 63.0288 14.0951 62.2098 13.1808Z" fill="url(#paint14_radial_4351_34641)"/>
<path d="M62.1335 36.0949C66.1906 36.0949 69.4668 32.8187 69.4668 28.7616C69.4668 21.6949 63.524 14.6473 62.343 13.314C63.6192 17.314 67.7335 22.914 67.7335 28.3616C67.7335 32.6663 61.3906 37.9044 55.2192 31.2187C56.2287 34.0568 58.9335 36.0949 62.1335 36.0949Z" fill="url(#paint15_radial_4351_34641)"/>
<path d="M69.4475 28.7618C69.4475 32.8189 66.1713 36.0951 62.1141 36.0951C58.057 36.0951 54.7808 32.8189 54.7808 28.7618C54.7808 20.9141 62.1141 13.0856 62.1141 13.0856C62.1141 13.0856 69.4475 20.8951 69.4475 28.7618Z" fill="url(#paint16_radial_4351_34641)"/>
<path d="M69.4475 28.7618C69.4475 32.8189 66.1713 36.0951 62.1141 36.0951C58.057 36.0951 54.7808 32.8189 54.7808 28.7618C54.7808 20.9141 62.1141 13.0856 62.1141 13.0856C62.1141 13.0856 69.4475 20.8951 69.4475 28.7618Z" fill="url(#paint17_radial_4351_34641)"/>
<path d="M69.4475 28.7618C69.4475 32.8189 66.1713 36.0951 62.1141 36.0951C58.057 36.0951 54.7808 32.8189 54.7808 28.7618C54.7808 20.9141 62.1141 13.0856 62.1141 13.0856C62.1141 13.0856 69.4475 20.8951 69.4475 28.7618Z" fill="url(#paint18_radial_4351_34641)"/>
<defs>
<radialGradient id="paint0_radial_4351_34641" cx="0" cy="0" r="1" gradientUnits="userSpaceOnUse" gradientTransform="translate(34.0039 27.649) scale(36.7656 36.7656)">
<stop stop-color="#FFE030"/>
<stop offset="1" stop-color="#FFB92E"/>
</radialGradient>
<radialGradient id="paint1_radial_4351_34641" cx="0" cy="0" r="1" gradientUnits="userSpaceOnUse" gradientTransform="translate(34.0039 27.649) scale(28.9251 28.9251)">
<stop stop-color="#FFEA5F"/>
<stop offset="1" stop-color="#FFBC47" stop-opacity="0"/>
</radialGradient>
<radialGradient id="paint2_radial_4351_34641" cx="0" cy="0" r="1" gradientUnits="userSpaceOnUse" gradientTransform="translate(40.0003 54.8747) scale(16.7888)">
<stop offset="0.00132565" stop-color="#7A4400"/>
<stop offset="1" stop-color="#643800"/>
</radialGradient>
<linearGradient id="paint3_linear_4351_34641" x1="26.2805" y1="29.3281" x2="25.4144" y2="26.2356" gradientUnits="userSpaceOnUse">
<stop offset="0.00132565" stop-color="#3C2200"/>
<stop offset="1" stop-color="#7A4400"/>
</linearGradient>
<radialGradient id="paint4_radial_4351_34641" cx="0" cy="0" r="1" gradientUnits="userSpaceOnUse" gradientTransform="translate(28.2786 37.782) rotate(175.474) scale(4.70178 3.33396)">
<stop offset="0.00132565" stop-color="#7A4400"/>
<stop offset="1" stop-color="#643800"/>
</radialGradient>
<radialGradient id="paint5_radial_4351_34641" cx="0" cy="0" r="1" gradientUnits="userSpaceOnUse" gradientTransform="translate(40.2515 60.781) scale(13.9142 4.20626)">
<stop offset="0.2479" stop-color="#FF0000"/>
<stop offset="1" stop-color="#C20000"/>
</radialGradient>
<linearGradient id="paint6_linear_4351_34641" x1="61.3919" y1="51.4236" x2="18.8687" y2="51.4236" gradientUnits="userSpaceOnUse">
<stop offset="0.00132565" stop-color="#3C2200"/>
<stop offset="0.5" stop-color="#512D00"/>
<stop offset="1" stop-color="#3C2200"/>
</linearGradient>
<radialGradient id="paint7_radial_4351_34641" cx="0" cy="0" r="1" gradientUnits="userSpaceOnUse" gradientTransform="translate(40 50.1913) scale(36.8182 36.8182)">
<stop offset="0.00132565" stop-color="white"/>
<stop offset="1" stop-color="#A9BCBE"/>
</radialGradient>
<linearGradient id="paint8_linear_4351_34641" x1="28.7459" y1="31.8637" x2="28.3726" y2="36.9813" gradientUnits="userSpaceOnUse">
<stop offset="0.00132565" stop-color="#3C2200"/>
<stop offset="1" stop-color="#512D00"/>
</linearGradient>
<linearGradient id="paint9_linear_4351_34641" x1="53.73" y1="29.3299" x2="54.5961" y2="26.2374" gradientUnits="userSpaceOnUse">
<stop offset="0.00132565" stop-color="#3C2200"/>
<stop offset="1" stop-color="#7A4400"/>
</linearGradient>
<radialGradient id="paint10_radial_4351_34641" cx="0" cy="0" r="1" gradientUnits="userSpaceOnUse" gradientTransform="translate(51.7091 37.7817) rotate(4.52558) scale(4.70178 3.33396)">
<stop offset="0.00132565" stop-color="#7A4400"/>
<stop offset="1" stop-color="#643800"/>
</radialGradient>
<linearGradient id="paint11_linear_4351_34641" x1="51.2448" y1="31.8642" x2="51.618" y2="36.9818" gradientUnits="userSpaceOnUse">
<stop offset="0.00132565" stop-color="#3C2200"/>
<stop offset="1" stop-color="#512D00"/>
</linearGradient>
<radialGradient id="paint12_radial_4351_34641" cx="0" cy="0" r="1" gradientUnits="userSpaceOnUse" gradientTransform="translate(62.8974 25.9034) rotate(107.308) scale(27.5316 14.8082)">
<stop stop-color="#EB672A" stop-opacity="0.5"/>
<stop offset="0.3462" stop-color="#DC641B" stop-opacity="0.2846"/>
<stop offset="0.8036" stop-color="#C25E00" stop-opacity="0"/>
</radialGradient>
<linearGradient id="paint13_linear_4351_34641" x1="41.1967" y1="30.7871" x2="82.5689" y2="18.8298" gradientUnits="userSpaceOnUse">
<stop stop-color="#D1F2FF"/>
<stop offset="0.668" stop-color="#80DAFE"/>
<stop offset="1" stop-color="#0099D6"/>
</linearGradient>
<radialGradient id="paint14_radial_4351_34641" cx="0" cy="0" r="1" gradientUnits="userSpaceOnUse" gradientTransform="translate(61.2613 23.521) rotate(10.428) scale(11.7456 18.0871)">
<stop offset="0.0599486" stop-color="#80DAFE"/>
<stop offset="0.566" stop-color="#80DAFE"/>
<stop offset="1" stop-color="#0099D6"/>
</radialGradient>
<radialGradient id="paint15_radial_4351_34641" cx="0" cy="0" r="1" gradientUnits="userSpaceOnUse" gradientTransform="translate(63.6081 24.8271) scale(9.49556 16.3827)">
<stop offset="0.3432" stop-color="#80DAFE"/>
<stop offset="1" stop-color="#0099D6"/>
</radialGradient>
<radialGradient id="paint16_radial_4351_34641" cx="0" cy="0" r="1" gradientUnits="userSpaceOnUse" gradientTransform="translate(59.2263 22.4945) rotate(-76.3956) scale(10.6571 4.69541)">
<stop stop-color="white" stop-opacity="0.25"/>
<stop offset="1" stop-color="white" stop-opacity="0"/>
</radialGradient>
<radialGradient id="paint17_radial_4351_34641" cx="0" cy="0" r="1" gradientUnits="userSpaceOnUse" gradientTransform="translate(61.2671 22.8208) rotate(71.0049) scale(16.6629 12.6633)">
<stop offset="0.5858" stop-color="#0099D6" stop-opacity="0"/>
<stop offset="0.7213" stop-color="#1477E5" stop-opacity="0.1635"/>
<stop offset="0.9048" stop-color="#2D4FF8" stop-opacity="0.385"/>
<stop offset="1" stop-color="#3640FF" stop-opacity="0.5"/>
</radialGradient>
<radialGradient id="paint18_radial_4351_34641" cx="0" cy="0" r="1" gradientUnits="userSpaceOnUse" gradientTransform="translate(59.2263 22.4945) rotate(-76.3956) scale(13.3974 5.90274)">
<stop stop-color="white" stop-opacity="0.45"/>
<stop offset="1" stop-color="white" stop-opacity="0"/>
</radialGradient>
</defs>
</svg>
