<svg width="44" height="48" viewBox="0 0 44 48" fill="none" xmlns="http://www.w3.org/2000/svg">
<g clip-path="url(#clip0_11352_73365)">
<path d="M30.254 3.33698H1.28168C0.570347 3.33698 0 3.91121 0 4.61306V46.7239C0 47.4258 0.570347 48 1.28168 48H30.254C30.9653 48 31.5357 47.4258 31.5357 46.7239V4.61306C31.5357 3.91121 30.9653 3.33698 30.254 3.33698Z" fill="#5B3F91"/>
<path d="M28.8826 5.98486H2.65308V41.6579H28.8826V5.98486Z" fill="#DEFDFF"/>
<path d="M28.8826 16.1552L2.65308 33.4271V25.9364L28.8826 8.66461V16.1552Z" fill="#FAFFFE"/>
<path d="M28.8826 21.7956L2.65308 39.0674V36.7385L28.8826 19.4731V21.7956Z" fill="#FAFFFE"/>
<path d="M32.4457 0H24.0891C17.7064 0 12.5348 5.14901 12.5348 11.5039C12.5348 16.1616 15.3224 20.1749 19.3213 21.9806C19.3149 25.3239 17.8922 28.2972 15.7582 30.1667C19.866 30.1539 24.5057 27.6528 27.5368 23.0078H32.4457C38.8284 23.0078 44 17.8588 44 11.5039C44 5.14901 38.8284 0 32.4457 0Z" fill="#EAD0FF"/>
<path d="M37.7966 8.2818H19.4302C19.0008 8.2818 18.6484 7.93726 18.6484 7.50339C18.6484 7.0759 18.9944 6.72498 19.4302 6.72498H37.7966C38.226 6.72498 38.5785 7.0759 38.5785 7.50339C38.5721 7.93726 38.226 8.2818 37.7966 8.2818Z" fill="#5E606A"/>
<path d="M37.7966 12.512H19.4302C19.0008 12.512 18.6484 12.1675 18.6484 11.7336C18.6484 11.3061 18.9944 10.9552 19.4302 10.9552H37.7966C38.226 10.9552 38.5785 11.3061 38.5785 11.7336C38.5721 12.1675 38.226 12.512 37.7966 12.512Z" fill="#5E606A"/>
<path d="M37.7966 16.7487H19.4302C19.0008 16.7487 18.6484 16.4041 18.6484 15.9702C18.6484 15.5428 18.9944 15.1918 19.4302 15.1918H37.7966C38.226 15.1918 38.5785 15.5428 38.5785 15.9702C38.5721 16.3977 38.226 16.7487 37.7966 16.7487Z" fill="#5E606A"/>
<path d="M21.3015 46.1114H10.2342C9.478 46.1114 8.8692 45.4989 8.8692 44.7524V44.746C8.8692 43.9931 9.478 43.387 10.2342 43.387H21.3079C22.0641 43.387 22.6729 43.9995 22.6729 44.746V44.7524C22.6729 45.4989 22.0577 46.1114 21.3015 46.1114Z" fill="#7250B2"/>
</g>
<defs>
<clipPath id="clip0_11352_73365">
<rect width="44" height="48" fill="white"/>
</clipPath>
</defs>
</svg>
