<svg width="45" height="46" viewBox="0 0 45 46" fill="none" xmlns="http://www.w3.org/2000/svg">
<g clip-path="url(#clip0_11352_73390)">
<path d="M17.1055 2.53058C12.1322 2.53058 8.09027 6.69817 8.09027 11.8115C8.09027 16.9313 12.1322 21.0923 17.1055 21.0923C22.0787 21.0923 26.1207 16.9247 26.1207 11.8115C26.1207 6.69817 22.0724 2.53058 17.1055 2.53058Z" fill="#F1EEFD"/>
<path d="M17.1054 0C10.7638 0 5.62579 5.28938 5.62579 11.818C5.62579 18.3465 10.7638 23.6359 17.1054 23.6359C23.4471 23.6359 28.5851 18.3465 28.5851 11.818C28.5851 5.28938 23.4408 0 17.1054 0ZM17.1054 21.0988C12.1322 21.0988 8.09025 16.9312 8.09025 11.818C8.09025 6.69814 12.1322 2.53708 17.1054 2.53708C22.0787 2.53708 26.1207 6.70467 26.1207 11.818C26.1207 16.9378 22.0724 21.0988 17.1054 21.0988Z" fill="#7250B2"/>
<path d="M18.0811 9.75043H16.1171V17.1725H18.0811V9.75043Z" fill="#5B3F91"/>
<path d="M16.1488 10.1679H18.0874V9.03302H15.2935V9.28738C15.7687 9.28738 16.1488 9.6787 16.1488 10.1679Z" fill="#5B3F91"/>
<path d="M17.1118 5.83069H17.0864C16.4339 5.83069 15.9017 6.37854 15.9017 7.05031V7.0764C15.9017 7.74817 16.4339 8.29602 17.0864 8.29602H17.1118C17.7643 8.29602 18.2965 7.74817 18.2965 7.0764V7.05031C18.2965 6.37854 17.7707 5.83069 17.1118 5.83069Z" fill="#5B3F91"/>
<path d="M19.0947 17.7986H15.1098V17.2442C15.7053 17.2442 16.1868 16.7486 16.1868 16.1355H18.0177C18.0177 16.7486 18.4992 17.2442 19.0947 17.2442V17.7986Z" fill="#5B3F91"/>
<path d="M30.8468 35.193L16.5099 39.7389L6.22765 37.4692L0 30.5754C0 30.5754 1.37477 28.4166 3.3324 30.0536C5.29002 31.6907 7.24131 33.7451 7.24131 33.7451C7.24131 33.7451 13.0318 35.3104 13.2536 35.3822C13.469 35.4539 19.1898 30.7972 19.1898 30.7972L28.4584 29.4406L30.8468 35.193Z" fill="#FED9A5"/>
<path d="M45 46L34.9965 28.8079C33.0135 25.4686 28.9905 24.0533 25.4364 25.449L19.988 27.5883L15.4266 28.0383L10.7257 26.6948C9.96549 26.4795 9.16723 26.8513 8.81879 27.5818L8.80612 27.6078C8.41966 28.4296 8.73643 29.4145 9.52201 29.8384L13.6146 32.0363L21.2931 31.9124L28.243 32.0363L35.554 46H45Z" fill="#FBD6A2"/>
</g>
<defs>
<clipPath id="clip0_11352_73390">
<rect width="45" height="46" fill="white"/>
</clipPath>
</defs>
</svg>
