<svg width="46" height="46" viewBox="0 0 46 46" fill="none" xmlns="http://www.w3.org/2000/svg">
<g clip-path="url(#clip0_9_3486)">
<path opacity="0.5" d="M37.7 45.44H7.74C3.47 45.44 0 41.98 0 37.7V7.74C0 3.47 3.47 0 7.74 0H37.7C41.98 0 45.44 3.47 45.44 7.74V37.7C45.44 41.98 41.98 45.44 37.7 45.44Z" fill="white"/>
<g opacity="0.5">
<path d="M7.74 0V1.2H37.7C41.31 1.2 44.24 4.13 44.24 7.74V37.7C44.24 41.31 41.31 44.24 37.7 44.24H7.74C4.13 44.24 1.2 41.31 1.2 37.7V7.74C1.2 4.13 4.13 1.2 7.74 1.2V0ZM7.74 0C3.47 0 0 3.47 0 7.74V37.7C0 41.98 3.47 45.44 7.74 45.44H37.7C41.98 45.44 45.44 41.97 45.44 37.7V7.74C45.44 3.47 41.98 0 37.7 0H7.74Z" fill="white"/>
</g>
<path d="M10.0601 35.41L11.8801 28.62C10.8501 26.76 10.3101 24.68 10.3101 22.56C10.3101 15.65 15.9301 10.02 22.8501 10.02C29.7601 10.02 35.3901 15.64 35.3901 22.56C35.3901 29.47 29.7701 35.1 22.8501 35.1C20.7701 35.1 18.7301 34.58 16.8901 33.58L10.0601 35.41ZM17.2201 31.04L17.6501 31.3C19.2301 32.24 21.0201 32.74 22.8401 32.74C28.4501 32.74 33.0101 28.18 33.0101 22.57C33.0101 16.96 28.4501 12.4 22.8501 12.4C17.2401 12.4 12.6801 16.96 12.6801 22.57C12.6801 24.42 13.1901 26.24 14.1701 27.84L14.4301 28.27L13.4101 32.06L17.2201 31.04Z" fill="#6FADD8"/>
<path fill-rule="evenodd" clip-rule="evenodd" d="M27.5101 24.31C26.9901 24 26.3201 23.66 25.7101 23.91C25.2401 24.1 24.9501 24.83 24.6401 25.2C24.4801 25.39 24.3001 25.42 24.0601 25.33C22.3101 24.63 20.9701 23.46 20.0001 21.85C19.8401 21.6 19.8701 21.4 20.0601 21.17C20.3501 20.83 20.7201 20.44 20.8001 19.97C20.8801 19.51 20.6601 18.97 20.4701 18.55C20.2301 18.02 19.9501 17.27 19.4201 16.97C18.9301 16.7 18.3001 16.85 17.8601 17.2C17.1101 17.81 16.7501 18.76 16.7601 19.7C16.7601 19.97 16.8001 20.24 16.8601 20.49C17.0101 21.11 17.3001 21.69 17.6201 22.25C17.8601 22.67 18.1301 23.07 18.4201 23.46C19.3601 24.73 20.5201 25.84 21.8701 26.66C22.5401 27.07 23.2701 27.43 24.0201 27.68C24.8601 27.96 25.6101 28.25 26.5201 28.08C27.4701 27.9 28.4101 27.31 28.7901 26.39C28.9001 26.12 28.9601 25.82 28.9001 25.53C28.7901 24.95 27.9901 24.6 27.5101 24.31Z" fill="#6FADD8"/>
</g>
<defs>
<clipPath id="clip0_9_3486">
<rect width="45.44" height="45.44" fill="white"/>
</clipPath>
</defs>
</svg>
