<svg width="24" height="24" viewBox="0 0 24 24" fill="none" xmlns="http://www.w3.org/2000/svg"><path d="M12.5558 11.0377C13.2644 11.4468 14.1704 11.204 14.5795 10.4954C14.9886 9.78686 14.7459 8.8808 14.0373 8.4717C13.3287 8.0626 12.4226 8.30538 12.0135 9.01396C11.6044 9.72254 11.8472 10.6286 12.5558 11.0377Z" stroke="#5B3F91" stroke-width="2" stroke-miterlimit="10" stroke-linecap="round" stroke-linejoin="round"/>
<path d="M8.37343 9.39282C6.59902 9.65137 4.85899 10.443 3.54817 11.8245L5.02362 12.6763C5.98587 13.2319 7.21004 12.7412 7.47196 11.695C7.73387 10.6487 8.12409 9.67653 8.67965 8.71428C10.7808 5.22307 14.1253 3.13394 17.0002 3.33969C18.6158 5.72654 18.4788 9.66751 16.4788 13.1316C15.9233 14.0939 15.2394 14.982 14.5013 15.6678C13.7262 16.4178 13.9134 17.7233 14.8756 18.2789L16.4152 19.1677C16.9562 17.3418 16.8088 15.3749 16.1085 13.7731" stroke="#5B3F91" stroke-width="1.5" stroke-miterlimit="10" stroke-linecap="round" stroke-linejoin="round"/>
<path d="M9.9632 15.5281L7.00023 20.6601" stroke="#5B3F91" stroke-width="1.5" stroke-miterlimit="10" stroke-linecap="round" stroke-linejoin="round"/>
<path d="M7.29791 15.7002L5.81643 18.2662" stroke="#5B3F91" stroke-width="1.5" stroke-miterlimit="10" stroke-linecap="round" stroke-linejoin="round"/>
<path d="M11.1469 17.9224L9.66543 20.4884" stroke="#5B3F91" stroke-width="1.5" stroke-miterlimit="10" stroke-linecap="round" stroke-linejoin="round"/>
</svg>
