<svg width="46" height="46" viewBox="0 0 46 46" fill="none" xmlns="http://www.w3.org/2000/svg">
<g clip-path="url(#clip0_9_3460)">
<path opacity="0.5" d="M37.7 45.44H7.74C3.47 45.44 0 41.98 0 37.7V7.74C0 3.47 3.47 0 7.74 0H37.7C41.98 0 45.44 3.47 45.44 7.74V37.7C45.44 41.98 41.98 45.44 37.7 45.44Z" fill="white"/>
<g opacity="0.5">
<path d="M7.74 0V1.2H37.7C41.31 1.2 44.24 4.13 44.24 7.74V37.7C44.24 39.45 43.56 41.09 42.32 42.33C41.08 43.57 39.44 44.25 37.69 44.25H7.73C4.12 44.25 1.19 41.32 1.19 37.71V7.75C1.19 4.14 4.12 1.21 7.73 1.21V0H7.74ZM7.74 0C3.47 0 0 3.47 0 7.74V37.7C0 41.98 3.47 45.44 7.74 45.44H37.7C41.98 45.44 45.44 41.97 45.44 37.7V7.74C45.44 3.47 41.98 0 37.7 0H7.74Z" fill="white"/>
</g>
<path d="M30.8099 24.15C29.4499 24.15 28.1699 23.57 27.0099 22.64L27.2899 21.32L27.2999 21.27C27.5499 19.86 28.3499 17.49 30.7999 17.49C32.6399 17.49 34.1399 18.99 34.1399 20.83C34.1399 22.66 32.6499 24.15 30.8099 24.15ZM30.8099 14.11C27.6799 14.11 25.2499 16.15 24.2599 19.49C22.7499 17.23 21.6099 14.51 20.9399 12.22H17.5699V21C17.5699 22.73 16.1599 24.14 14.4299 24.14C12.6999 24.14 11.2999 22.73 11.2999 21V12.23H7.91995V21C7.90995 24.59 10.8299 27.54 14.4299 27.54C18.0199 27.54 20.9499 24.59 20.9499 21V19.53C21.6099 20.9 22.4099 22.28 23.3799 23.5L21.3099 33.21H24.7599L26.2599 26.17C27.5699 27.01 29.0799 27.54 30.8099 27.54C34.5099 27.54 37.5199 24.51 37.5199 20.81C37.5199 17.12 34.5099 14.11 30.8099 14.11Z" fill="#6FADD8"/>
</g>
<defs>
<clipPath id="clip0_9_3460">
<rect width="45.44" height="45.44" fill="white"/>
</clipPath>
</defs>
</svg>
