<svg width="46" height="46" viewBox="0 0 46 46" fill="none" xmlns="http://www.w3.org/2000/svg">
<g clip-path="url(#clip0_9_4719)">
<path opacity="0.5" d="M37.7 45.44H7.74C3.47 45.44 0 41.98 0 37.7V7.74C0 3.47 3.47 0 7.74 0H37.7C41.98 0 45.44 3.47 45.44 7.74V37.7C45.44 41.98 41.98 45.44 37.7 45.44Z" fill="white"/>
<g opacity="0.5">
<path d="M7.74 0V1.2H37.7C41.31 1.2 44.24 4.13 44.24 7.74V37.7C44.24 41.31 41.31 44.24 37.7 44.24H7.74C4.13 44.24 1.2 41.31 1.2 37.7V7.74C1.2 4.13 4.13 1.2 7.74 1.2V0ZM7.74 0C3.47 0 0 3.47 0 7.74V37.7C0 41.98 3.47 45.44 7.74 45.44H37.7C41.98 45.44 45.44 41.97 45.44 37.7V7.74C45.44 3.47 41.98 0 37.7 0H7.74Z" fill="white"/>
</g>
<path d="M37.6 13.3301C36.65 13.7601 35.59 14.0201 34.57 14.2001C35.06 14.1201 35.77 13.2301 36.06 12.8801C36.5 12.3401 36.86 11.7101 37.07 11.0401C37.1 10.9901 37.12 10.9201 37.06 10.8801C36.99 10.8501 36.95 10.8701 36.9 10.8901C35.75 11.5001 34.57 11.9501 33.3 12.2701C33.2 12.3001 33.12 12.2701 33.05 12.2001C32.95 12.0801 32.85 11.9701 32.74 11.8801C32.21 11.4301 31.64 11.0701 31 10.8101C30.16 10.4701 29.24 10.3201 28.33 10.3801C27.45 10.4401 26.58 10.6901 25.79 11.1001C25 11.5101 24.3 12.0801 23.74 12.7701C23.16 13.4801 22.74 14.3201 22.52 15.2201C22.31 16.0801 22.33 16.9301 22.46 17.8001C22.48 17.9401 22.47 17.9601 22.34 17.9401C17.4 17.2001 13.3 15.4401 9.98 11.6501C9.84 11.4901 9.76001 11.4901 9.64001 11.6601C8.18001 13.8401 8.89 17.3401 10.71 19.0701C10.95 19.3001 11.2 19.5301 11.47 19.7401C11.37 19.7601 10.16 19.6301 9.08 19.0701C8.94 18.9801 8.86001 19.0301 8.85001 19.1901C8.84001 19.4301 8.86001 19.6401 8.89001 19.9001C9.17001 22.1101 10.7 24.1601 12.8 24.9501C13.05 25.0501 13.32 25.1501 13.59 25.1901C13.11 25.2901 12.62 25.3701 11.25 25.2601C11.08 25.2301 11.01 25.3101 11.08 25.4801C12.11 28.2901 14.33 29.1201 16 29.6001C16.22 29.6401 16.45 29.6401 16.67 29.6901C16.66 29.7101 16.64 29.7101 16.63 29.7301C16.08 30.5701 14.16 31.2001 13.27 31.5101C11.65 32.0801 9.88001 32.3301 8.17001 32.1601C7.90001 32.1201 7.84001 32.1201 7.76001 32.1601C7.68001 32.2101 7.75001 32.2701 7.84001 32.3401C8.19001 32.5701 8.54 32.7701 8.9 32.9701C9.99 33.5501 11.12 34.0101 12.31 34.3301C18.43 36.0201 25.33 34.7801 29.93 30.2101C33.54 26.6201 34.81 21.6701 34.81 16.7201C34.81 16.5301 35.04 16.4201 35.18 16.3201C36.12 15.6101 36.88 14.7701 37.58 13.8301C37.74 13.6201 37.74 13.4301 37.74 13.3501C37.74 13.3401 37.74 13.3201 37.74 13.3201C37.72 13.2601 37.72 13.2801 37.6 13.3301Z" fill="#6FADD8"/>
</g>
<defs>
<clipPath id="clip0_9_4719">
<rect width="45.44" height="45.44" fill="white"/>
</clipPath>
</defs>
</svg>
