<svg width="16" height="16" viewBox="0 0 16 16" fill="none" xmlns="http://www.w3.org/2000/svg">
                        <path fill-rule="evenodd" clip-rule="evenodd" d="M7.04746 13.714L7.04746 8.95206L2.28555 8.95206C1.76174 8.95206 1.33317 8.52348 1.33317 7.99967C1.33317 7.47586 1.76174 7.04729 2.28555 7.04729L7.04746 7.04729L7.04746 2.28539C7.04746 1.76158 7.47603 1.33301 7.99984 1.33301C8.52365 1.33301 8.95222 1.76158 8.95222 2.28539L8.95222 7.04729L13.7141 7.04729C14.2379 7.04729 14.6665 7.47587 14.6665 7.99967C14.6665 8.52348 14.2379 8.95206 13.7141 8.95206L8.95222 8.95206L8.95222 13.714C8.95222 14.2378 8.52365 14.6663 7.99984 14.6663C7.47603 14.6663 7.04746 14.2378 7.04746 13.714Z" fill="url(#paint0_linear_10159_56192)"/>
                        <defs>
                        <linearGradient id="paint0_linear_10159_56192" x1="7.99984" y1="12.7886" x2="10.3252" y2="6.32515" gradientUnits="userSpaceOnUse">
                        <stop stop-color="#FF7439"/>
                        <stop offset="1" stop-color="#FFA10D"/>
                        </linearGradient>
                        </defs>
                    </svg>