<svg width="16" height="17" viewBox="0 0 16 17" fill="none" xmlns="http://www.w3.org/2000/svg">
<g clip-path="url(#clip0_490_8464)">
<path fill-rule="evenodd" clip-rule="evenodd" d="M1.71628 8.9653C1.59662 8.78002 1.50002 8.61956 1.42716 8.49365C1.50002 8.36774 1.59662 8.20728 1.71628 8.022C2.02362 7.54611 2.47878 6.91326 3.06969 6.28295C4.26368 5.00936 5.933 3.82699 8 3.82699C10.067 3.82699 11.7363 5.00936 12.9303 6.28295C13.5212 6.91326 13.9764 7.54611 14.2837 8.022C14.4034 8.20728 14.5 8.36774 14.5728 8.49365C14.5 8.61956 14.4034 8.78002 14.2837 8.9653C13.9764 9.44119 13.5212 10.074 12.9303 10.7044C11.7363 11.9779 10.067 13.1603 8 13.1603C5.933 13.1603 4.26368 11.9779 3.06969 10.7044C2.47878 10.074 2.02362 9.44119 1.71628 8.9653ZM15.3333 8.49365C15.9296 8.19551 15.9295 8.19529 15.9294 8.19504L15.3333 8.49365ZM15.9294 8.19504C16.0232 8.38273 16.0235 8.60411 15.9296 8.79179L15.3333 8.49365C15.9296 8.79179 15.9292 8.79261 15.9291 8.79286L15.9283 8.79441L15.926 8.79896L15.9184 8.81377C15.9121 8.82614 15.9031 8.84344 15.8915 8.86536C15.8683 8.90919 15.8347 8.9715 15.7907 9.04966C15.7028 9.20589 15.5734 9.42597 15.4038 9.68867C15.0653 10.2128 14.5621 10.9133 13.903 11.6163C12.597 13.0094 10.5997 14.4937 8 14.4937C5.40033 14.4937 3.40299 13.0094 2.09698 11.6163C1.43789 10.9133 0.93471 10.2128 0.596224 9.68867C0.426567 9.42597 0.297195 9.20589 0.209314 9.04966C0.165349 8.9715 0.131693 8.90919 0.108502 8.86536C0.0969045 8.84344 0.0879168 8.82614 0.0815586 8.81377L0.0739933 8.79896L0.0716926 8.79441L0.0703819 8.79179L0.666642 8.49366C0.0744806 8.78975 0.0702892 8.79154 0.0703796 8.79179L0.0703819 8.79179C-0.0234606 8.60411 -0.0234606 8.38319 0.0703819 8.19551L0.666667 8.49365C0.0703819 8.19551 0.0707909 8.19469 0.0709134 8.19445L0.0716926 8.1929L0.0739933 8.18835L0.0815586 8.17354C0.0879168 8.16117 0.0969045 8.14386 0.108502 8.12194C0.131693 8.07812 0.165349 8.01581 0.209314 7.93764C0.297195 7.78141 0.426567 7.56133 0.596224 7.29864C0.93471 6.77453 1.43789 6.07405 2.09698 5.37103C3.40299 3.97795 5.40033 2.49365 8 2.49365C10.5997 2.49365 12.597 3.97795 13.903 5.37103C14.5621 6.07405 15.0653 6.77453 15.4038 7.29864C15.5734 7.56133 15.7028 7.78141 15.7907 7.93764C15.8347 8.01581 15.8683 8.07812 15.8915 8.12194C15.9031 8.14386 15.9121 8.16117 15.9184 8.17354L15.926 8.18835L15.9283 8.1929L15.9294 8.19504ZM6.66667 8.49365C6.66667 7.75727 7.26362 7.16032 8 7.16032C8.73638 7.16032 9.33333 7.75727 9.33333 8.49365C9.33333 9.23003 8.73638 9.82699 8 9.82699C7.26362 9.82699 6.66667 9.23003 6.66667 8.49365ZM8 5.82699C6.52724 5.82699 5.33333 7.02089 5.33333 8.49365C5.33333 9.96641 6.52724 11.1603 8 11.1603C9.47276 11.1603 10.6667 9.96641 10.6667 8.49365C10.6667 7.02089 9.47276 5.82699 8 5.82699Z" fill="#5B3F91"/>
</g>
<defs>
<clipPath id="clip0_490_8464">
<rect width="16" height="16" fill="white" transform="translate(0 0.493652)"/>
</clipPath>
</defs>
</svg>
