<svg width="46" height="46" viewBox="0 0 46 46" fill="none" xmlns="http://www.w3.org/2000/svg">
<g clip-path="url(#clip0_9_4740)">
<path opacity="0.5" d="M37.7 45.44H7.74C3.47 45.44 0 41.98 0 37.7V7.74C0 3.47 3.47 0 7.74 0H37.7C41.98 0 45.44 3.47 45.44 7.74V37.7C45.44 41.98 41.98 45.44 37.7 45.44Z" fill="white"/>
<g opacity="0.5">
<path d="M7.74 0V1.2H37.7C41.31 1.2 44.24 4.13 44.24 7.74V37.7C44.24 39.45 43.56 41.09 42.32 42.33C41.08 43.57 39.44 44.25 37.69 44.25H7.74C4.13 44.25 1.2 41.32 1.2 37.71V7.74C1.2 4.13 4.13 1.2 7.74 1.2V0ZM7.74 0C3.47 0 0 3.47 0 7.74V37.7C0 41.98 3.47 45.44 7.74 45.44H37.7C41.98 45.44 45.44 41.97 45.44 37.7V7.74C45.44 3.47 41.98 0 37.7 0H7.74Z" fill="white"/>
</g>
<path d="M30.12 13.74C29.22 13.74 28.48 14.47 28.48 15.38C28.48 16.28 29.21 17.02 30.12 17.02C31.02 17.02 31.76 16.29 31.76 15.38C31.75 14.48 31.02 13.74 30.12 13.74Z" fill="#6FADD8"/>
<path d="M22.84 15.8401C19.05 15.8401 15.96 18.9301 15.96 22.7201C15.96 26.5101 19.05 29.6001 22.84 29.6001C26.63 29.6001 29.72 26.5101 29.72 22.7201C29.72 18.9301 26.63 15.8401 22.84 15.8401ZM22.84 27.1301C20.41 27.1301 18.43 25.1501 18.43 22.7201C18.43 20.2901 20.41 18.3101 22.84 18.3101C25.27 18.3101 27.25 20.2901 27.25 22.7201C27.25 25.1501 25.27 27.1301 22.84 27.1301Z" fill="#6FADD8"/>
<path d="M28.3 36.69H17.15C12.52 36.69 8.76001 32.93 8.76001 28.3V17.15C8.76001 12.52 12.52 8.76001 17.15 8.76001H28.3C32.93 8.76001 36.69 12.52 36.69 17.15V28.3C36.69 32.92 32.92 36.69 28.3 36.69ZM17.15 11.38C13.97 11.38 11.39 13.96 11.39 17.14V28.3C11.39 31.48 13.97 34.06 17.15 34.06H28.3C31.48 34.06 34.06 31.48 34.06 28.3V17.15C34.06 13.97 31.47 11.39 28.3 11.39H17.15V11.38Z" fill="#6FADD8"/>
</g>
<defs>
<clipPath id="clip0_9_4740">
<rect width="45.44" height="45.44" fill="white"/>
</clipPath>
</defs>
</svg>
