<svg width="46" height="46" viewBox="0 0 46 46" fill="none" xmlns="http://www.w3.org/2000/svg">
<g clip-path="url(#clip0_9_3468)">
<path opacity="0.5" d="M37.7 45.44H7.74C3.47 45.44 0 41.98 0 37.7V7.74C0 3.47 3.47 0 7.74 0H37.7C41.98 0 45.44 3.47 45.44 7.74V37.7C45.44 41.98 41.98 45.44 37.7 45.44Z" fill="white"/>
<g opacity="0.5">
<path d="M7.74 0V1.2H37.7C41.31 1.2 44.24 4.13 44.24 7.74V37.7C44.24 39.45 43.56 41.09 42.32 42.33C41.08 43.57 39.44 44.25 37.69 44.25H7.73C4.12 44.25 1.19 41.32 1.19 37.71V7.74C1.19 4.13 4.12 1.2 7.73 1.2V0H7.74ZM7.74 0C3.47 0 0 3.47 0 7.74V37.7C0 41.98 3.47 45.44 7.74 45.44H37.7C41.98 45.44 45.44 41.97 45.44 37.7V7.74C45.44 3.47 41.98 0 37.7 0H7.74Z" fill="white"/>
</g>
<path d="M12.06 19.03H16.63V33.72H12.06V19.03ZM14.35 11.72C15.81 11.72 17 12.91 17 14.37C17 15.83 15.81 17.02 14.35 17.02C12.88 17.02 11.7 15.83 11.7 14.37C11.7 12.91 12.88 11.72 14.35 11.72Z" fill="#6FADD8"/>
<path d="M19.5 19.0299H23.88V21.0399H23.94C24.55 19.8799 26.04 18.6699 28.27 18.6699C32.89 18.6699 33.75 21.7099 33.75 25.6699V33.7299H29.19V26.5899C29.19 24.8799 29.16 22.6899 26.82 22.6899C24.44 22.6899 24.08 24.5499 24.08 26.4599V33.7299H19.5V19.0299Z" fill="#6FADD8"/>
</g>
<defs>
<clipPath id="clip0_9_3468">
<rect width="45.44" height="45.44" fill="white"/>
</clipPath>
</defs>
</svg>
