<svg width="46" height="46" viewBox="0 0 46 46" fill="none" xmlns="http://www.w3.org/2000/svg">
<g clip-path="url(#clip0_9_3421)">
<path opacity="0.5" d="M37.7 45.44H7.74C3.47 45.44 0 41.98 0 37.7V7.74C0 3.47 3.47 0 7.74 0H37.7C41.98 0 45.44 3.47 45.44 7.74V37.7C45.44 41.98 41.98 45.44 37.7 45.44Z" fill="white"/>
<g opacity="0.5">
<path d="M7.74 0V1.2H37.7C41.31 1.2 44.24 4.13 44.24 7.74V37.7C44.24 39.45 43.56 41.09 42.32 42.33C41.08 43.57 39.44 44.25 37.69 44.25H7.73C4.12 44.25 1.19 41.32 1.19 37.71V7.75C1.19 4.14 4.12 1.21 7.73 1.21V0H7.74ZM7.74 0C3.47 0 0 3.47 0 7.74V37.7C0 41.98 3.47 45.44 7.74 45.44H37.7C41.98 45.44 45.44 41.97 45.44 37.7V7.74C45.44 3.47 41.98 0 37.7 0H7.74Z" fill="white"/>
</g>
<path fill-rule="evenodd" clip-rule="evenodd" d="M20.82 27.3C20.79 27.39 20.77 27.46 20.75 27.53C19.65 31.85 19.52 32.81 18.39 34.82C17.85 35.77 17.24 36.68 16.57 37.54C16.49 37.64 16.42 37.76 16.27 37.73C16.1 37.69 16.09 37.55 16.07 37.41C15.89 36.1 15.79 34.78 15.83 33.45C15.89 31.72 16.1 31.13 18.33 21.77C18.36 21.63 18.33 21.51 18.28 21.38C17.75 19.94 17.64 18.48 18.11 17C19.12 13.81 22.74 13.56 23.37 16.2C23.76 17.83 22.73 19.96 21.94 23.11C21.28 25.71 24.35 27.56 26.96 25.66C29.37 23.91 30.31 19.71 30.13 16.74C29.78 10.81 23.28 9.53001 19.15 11.44C14.42 13.63 13.35 19.49 15.48 22.17C15.75 22.51 15.96 22.72 15.87 23.06C15.73 23.6 15.61 24.14 15.46 24.67C15.35 25.07 15.02 25.21 14.62 25.05C13.83 24.73 13.18 24.23 12.65 23.57C10.84 21.32 10.32 16.88 12.72 13.12C15.38 8.95001 20.32 7.27001 24.83 7.78001C30.22 8.39001 33.62 12.07 34.26 16.25C34.55 18.15 34.34 22.84 31.67 26.16C28.6 29.97 23.62 30.22 21.32 27.88C21.13 27.72 20.99 27.51 20.82 27.3Z" fill="#6FADD8"/>
</g>
<defs>
<clipPath id="clip0_9_3421">
<rect width="45.44" height="45.44" fill="white"/>
</clipPath>
</defs>
</svg>
