<svg width="46" height="46" viewBox="0 0 46 46" fill="none" xmlns="http://www.w3.org/2000/svg">
<g clip-path="url(#clip0_9_4733)">
<path opacity="0.5" d="M37.7 45.44H7.74C3.47 45.44 0 41.98 0 37.7V7.74C0 3.47 3.47 0 7.74 0H37.7C41.98 0 45.44 3.47 45.44 7.74V37.7C45.44 41.98 41.98 45.44 37.7 45.44Z" fill="white"/>
<g opacity="0.5">
<path d="M7.74 0V1.2H37.7C41.31 1.2 44.24 4.13 44.24 7.74V37.7C44.24 41.31 41.31 44.24 37.7 44.24H7.74C4.13 44.24 1.2 41.31 1.2 37.7V7.74C1.2 4.13 4.13 1.2 7.74 1.2V0ZM7.74 0C3.47 0 0 3.47 0 7.74V37.7C0 41.98 3.47 45.44 7.74 45.44H37.7C41.98 45.44 45.44 41.97 45.44 37.7V7.74C45.44 3.47 41.98 0 37.7 0H7.74Z" fill="white"/>
</g>
<path d="M36.57 19.1C36.57 15.74 33.85 13.02 30.49 13.02H14.94C11.58 13.02 8.85999 15.74 8.85999 19.1V26.33C8.85999 29.69 11.58 32.41 14.94 32.41H30.49C33.85 32.41 36.57 29.69 36.57 26.33V19.1ZM27.43 23.26L20.46 26.71C20.19 26.86 19.26 26.66 19.26 26.35V19.27C19.26 18.96 20.2 18.76 20.47 18.91L27.14 22.54C27.42 22.71 27.71 23.11 27.43 23.26Z" fill="#6FADD8"/>
</g>
<defs>
<clipPath id="clip0_9_4733">
<rect width="45.44" height="45.44" fill="white"/>
</clipPath>
</defs>
</svg>
