<svg width="46" height="46" viewBox="0 0 46 46" fill="none" xmlns="http://www.w3.org/2000/svg">
<g clip-path="url(#clip0_9_4711)">
<path opacity="0.5" d="M37.7 45.44H7.74C3.47 45.44 0 41.98 0 37.7V7.74C0 3.47 3.47 0 7.74 0H37.7C41.98 0 45.44 3.47 45.44 7.74V37.7C45.44 41.98 41.98 45.44 37.7 45.44Z" fill="white"/>
<g opacity="0.5">
<path d="M37.7 0V1.2C41.31 1.2 44.24 4.13 44.24 7.74V37.7C44.24 41.31 41.31 44.24 37.7 44.24H7.74C4.13 44.24 1.2 41.31 1.2 37.7V7.74C1.2 5.99 1.88 4.35 3.12 3.11C4.35 1.88 5.99 1.2 7.74 1.2H37.7V0ZM37.7 0H7.74C3.47 0 0 3.47 0 7.74V37.7C0 41.98 3.47 45.44 7.74 45.44H37.7C41.98 45.44 45.44 41.97 45.44 37.7V7.74C45.44 3.47 41.98 0 37.7 0Z" fill="white"/>
</g>
<path d="M34.85 20.0201C34.62 20.0401 34.39 20.0601 34.15 20.0601C31.6 20.0601 29.22 18.7701 27.82 16.6401V28.3001C27.82 33.0601 23.96 36.9101 19.21 36.9101C14.46 36.9101 10.6 33.0501 10.6 28.3001C10.6 23.5501 14.46 19.6901 19.21 19.6901C19.39 19.6901 19.56 19.7101 19.74 19.7201V23.9701C19.56 23.9501 19.39 23.9201 19.21 23.9201C16.78 23.9201 14.82 25.8901 14.82 28.3101C14.82 30.7401 16.79 32.7001 19.21 32.7001C21.64 32.7001 23.78 30.7901 23.78 28.3601L23.82 8.57007H27.88C28.26 12.2101 31.2 15.0601 34.85 15.3201V20.0201Z" fill="#6FADD8"/>
</g>
<defs>
<clipPath id="clip0_9_4711">
<rect width="45.44" height="45.44" fill="white"/>
</clipPath>
</defs>
</svg>
