<svg width="46" height="46" viewBox="0 0 46 46" fill="none" xmlns="http://www.w3.org/2000/svg">
<path opacity="0.5" d="M37.7 45.44H7.74C3.47 45.44 0 41.98 0 37.7V7.74C0 3.47 3.47 0 7.74 0H37.7C41.98 0 45.44 3.47 45.44 7.74V37.7C45.44 41.98 41.98 45.44 37.7 45.44Z" fill="white"/>
<g opacity="0.5">
<path d="M7.74 0V1.2H37.7C39.45 1.2 41.09 1.88 42.33 3.12C43.57 4.36 44.25 6 44.25 7.75V37.71C44.25 41.32 41.32 44.25 37.71 44.25H7.75C4.14 44.25 1.21 41.32 1.21 37.71V7.75C1.21 4.14 4.14 1.21 7.75 1.21V0H7.74ZM7.74 0C3.47 0 0 3.47 0 7.74V37.7C0 41.98 3.47 45.44 7.74 45.44H37.7C41.98 45.44 45.44 41.97 45.44 37.7V7.74C45.44 3.47 41.98 0 37.7 0H7.74Z" fill="white"/>
</g>
<path d="M29.99 24.55L30.86 18.9H25.44V15.23C25.44 13.68 26.2 12.18 28.63 12.18H31.09V7.36999C31.09 7.36999 28.85 6.98999 26.71 6.98999C22.25 6.98999 19.33 9.69999 19.33 14.59V18.9H14.37V24.55H19.33V38.21C20.33 38.37 21.35 38.45 22.38 38.45C23.42 38.45 24.44 38.37 25.43 38.21V24.55H29.99Z" fill="#6FADD8"/>
</svg>
