<svg width="46" height="46" viewBox="0 0 46 46" fill="none" xmlns="http://www.w3.org/2000/svg">
<g clip-path="url(#clip0_9_2850)">
<path opacity="0.5" d="M37.7 45.44H7.74C3.47 45.44 0 41.98 0 37.7V7.74C0 3.47 3.47 0 7.74 0H37.7C41.98 0 45.44 3.47 45.44 7.74V37.7C45.44 41.98 41.98 45.44 37.7 45.44Z" fill="white"/>
<g opacity="0.5">
<path d="M7.74 0V1.2H37.7C41.31 1.2 44.24 4.13 44.24 7.74V37.7C44.24 39.45 43.56 41.09 42.32 42.33C41.08 43.57 39.44 44.25 37.69 44.25H7.73C4.12 44.25 1.19 41.32 1.19 37.71V7.75C1.19 4.14 4.12 1.21 7.73 1.21V0H7.74ZM7.74 0C3.47 0 0 3.47 0 7.74V37.7C0 41.98 3.47 45.44 7.74 45.44H37.7C41.98 45.44 45.44 41.97 45.44 37.7V7.74C45.44 3.47 41.98 0 37.7 0H7.74Z" fill="white"/>
</g>
<path d="M37.6 13.33C36.65 13.76 35.59 14.02 34.57 14.2C35.06 14.12 35.77 13.23 36.06 12.88C36.5 12.34 36.86 11.71 37.07 11.04C37.1 10.99 37.12 10.92 37.06 10.88C36.99 10.85 36.95 10.87 36.9 10.89C35.75 11.5 34.57 11.95 33.3 12.27C33.2 12.3 33.12 12.27 33.05 12.2C32.95 12.08 32.85 11.97 32.74 11.88C32.21 11.43 31.64 11.07 31 10.81C30.16 10.47 29.24 10.32 28.33 10.38C27.45 10.44 26.58 10.69 25.79 11.1C25 11.51 24.3 12.08 23.74 12.77C23.16 13.48 22.74 14.32 22.52 15.22C22.31 16.08 22.33 16.93 22.46 17.8C22.48 17.94 22.47 17.96 22.34 17.94C17.4 17.2 13.3 15.44 9.98 11.65C9.84 11.49 9.76001 11.49 9.64001 11.66C8.18001 13.84 8.89 17.34 10.71 19.07C10.95 19.3 11.2 19.53 11.47 19.74C11.37 19.76 10.16 19.63 9.08 19.07C8.94 18.98 8.86001 19.03 8.85001 19.19C8.84001 19.43 8.86001 19.64 8.89001 19.9C9.17001 22.11 10.7 24.16 12.8 24.95C13.05 25.05 13.32 25.15 13.59 25.19C13.11 25.29 12.62 25.37 11.25 25.26C11.08 25.23 11.01 25.31 11.08 25.48C12.11 28.29 14.33 29.12 16 29.6C16.22 29.64 16.45 29.64 16.67 29.69C16.66 29.71 16.64 29.71 16.63 29.73C16.08 30.57 14.16 31.2 13.27 31.51C11.65 32.08 9.88001 32.33 8.17001 32.16C7.90001 32.12 7.84001 32.12 7.76001 32.16C7.68001 32.21 7.75001 32.27 7.84001 32.34C8.19001 32.57 8.54 32.77 8.9 32.97C9.99 33.55 11.12 34.01 12.31 34.33C18.43 36.02 25.33 34.78 29.93 30.21C33.54 26.62 34.81 21.67 34.81 16.72C34.81 16.53 35.04 16.42 35.18 16.32C36.12 15.61 36.88 14.77 37.58 13.83C37.74 13.62 37.74 13.43 37.74 13.35C37.74 13.34 37.74 13.32 37.74 13.32C37.72 13.26 37.72 13.28 37.6 13.33Z" fill="#8A55AC"/>
</g>
<defs>
<clipPath id="clip0_9_2850">
<rect width="45.44" height="45.44" fill="white"/>
</clipPath>
</defs>
</svg>
