<svg width="10" height="12" viewBox="0 0 10 12" fill="none" xmlns="http://www.w3.org/2000/svg">
<path d="M8.93262 4.9707H8.18262V2.9082C8.18262 1.3957 6.83262 0.158203 5.18262 0.158203C3.53262 0.158203 2.18262 1.3957 2.18262 2.9082V4.9707H1.43262C1.05762 4.9707 0.682617 5.31445 0.682617 5.6582V10.4707C0.682617 10.8145 1.05762 11.1582 1.43262 11.1582H8.93262C9.30762 11.1582 9.68262 10.8145 9.68262 10.4707V5.6582C9.68262 5.31445 9.30762 4.9707 8.93262 4.9707ZM5.93262 9.7832H4.43262L4.73262 8.2707C4.35762 8.1332 4.05762 7.7207 4.05762 7.37695C4.05762 6.82695 4.58262 6.3457 5.18262 6.3457C5.78262 6.3457 6.30762 6.82695 6.30762 7.37695C6.30762 7.78945 6.08262 8.1332 5.63262 8.2707L5.93262 9.7832ZM6.68262 4.9707H3.68262V2.9082C3.68262 2.15195 4.35762 1.5332 5.18262 1.5332C6.00762 1.5332 6.68262 2.15195 6.68262 2.9082V4.9707Z" fill="#FFFFFF"/>
</svg>
