<svg width="16" height="16" viewBox="0 0 16 16" fill="none" xmlns="http://www.w3.org/2000/svg">
<path d="M13.8602 13.6697H1.7979C1.65696 13.6697 1.52181 13.7257 1.42217 13.8255C1.32254 13.9253 1.26659 14.0606 1.26659 14.2016C1.26659 14.3427 1.32254 14.478 1.42217 14.5777C1.52181 14.6775 1.65696 14.7336 1.7979 14.7336H13.8602C14.0011 14.7336 14.1363 14.6775 14.2359 14.5777C14.3355 14.478 14.3915 14.3427 14.3915 14.2016C14.3915 14.0606 14.3355 13.9253 14.2359 13.8255L14.1887 13.8726L14.2359 13.8255C14.1363 13.7257 14.0011 13.6697 13.8602 13.6697Z" fill="url(#paint0_linear_10256_61597)" stroke="url(#paint1_linear_10256_61597)" stroke-width="0.133333"/>
<path d="M3.23579 12.1303L3.2358 12.1303L4.16506 8.66864C4.16507 8.66862 4.16507 8.66859 4.16508 8.66857L4.1651 8.66849L4.22949 8.68578C4.25046 8.60693 4.29218 8.53515 4.3503 8.47795L3.23579 12.1303ZM3.23579 12.1303L3.23552 12.1314M3.23579 12.1303L3.23552 12.1314M3.23552 12.1314C3.213 12.2213 3.21419 12.3155 3.23899 12.4048C3.26379 12.4941 3.31134 12.5755 3.37699 12.6409C3.44264 12.7063 3.52415 12.7534 3.61352 12.7778C3.70289 12.8022 3.79704 12.8028 3.88675 12.7798L3.8875 12.7796M3.23552 12.1314L3.8875 12.7796M3.8875 12.7796L7.34059 11.8492C7.4311 11.8271 7.51365 11.7802 7.57894 11.7137C7.57903 11.7136 7.57911 11.7135 7.57919 11.7134L12.9532 6.32577L12.9532 6.32574L13.8293 5.44847C14.3142 4.9848 14.6354 4.33253 14.7143 3.67554C14.7932 3.01776 14.6294 2.34971 14.1363 1.86381C13.2262 0.952655 11.6191 1.10477 10.5542 2.17419L3.8875 12.7796ZM4.30353 8.43044C4.30345 8.43051 4.30337 8.43059 4.3033 8.43066L10.5541 2.17427L4.30353 8.43044ZM13.6637 3.5358L13.6636 3.53579L13.6634 3.54C13.6503 3.85822 13.4915 4.16759 13.2704 4.45858C13.0638 4.73034 12.808 4.97951 12.5787 5.19897L10.8132 3.43094L11.3116 2.929L11.3116 2.92902L11.3127 2.92779C11.7803 2.43252 12.4106 2.25255 12.8996 2.36198C13.1433 2.41652 13.3507 2.54238 13.4887 2.73541C13.6266 2.92821 13.6995 3.1939 13.6637 3.5358ZM11.8175 5.93752L6.93007 10.8471L4.50065 11.5039L5.15656 9.07393L10.0531 4.17062L11.8175 5.93752Z" fill="url(#paint2_linear_10256_61597)" stroke="url(#paint3_linear_10256_61597)" stroke-width="0.133333"/>
<defs>
<linearGradient id="paint0_linear_10256_61597" x1="12.4953" y1="14.2016" x2="12.224" y2="12.8394" gradientUnits="userSpaceOnUse">
<stop stop-color="#FF7439"/>
<stop offset="1" stop-color="#FFA10D"/>
</linearGradient>
<linearGradient id="paint1_linear_10256_61597" x1="12.4953" y1="14.2016" x2="12.224" y2="12.8394" gradientUnits="userSpaceOnUse">
<stop stop-color="#FF7439"/>
<stop offset="1" stop-color="#FFA10D"/>
</linearGradient>
<linearGradient id="paint2_linear_10256_61597" x1="13.0638" y1="7.03146" x2="7.54523" y2="5.04893" gradientUnits="userSpaceOnUse">
<stop stop-color="#FF7439"/>
<stop offset="1" stop-color="#FFA10D"/>
</linearGradient>
<linearGradient id="paint3_linear_10256_61597" x1="13.0638" y1="7.03146" x2="7.54523" y2="5.04893" gradientUnits="userSpaceOnUse">
<stop stop-color="#FF7439"/>
<stop offset="1" stop-color="#FFA10D"/>
</linearGradient>
</defs>
</svg>
