<svg width="46" height="46" viewBox="0 0 46 46" fill="none" xmlns="http://www.w3.org/2000/svg">
<path opacity="0.5" d="M37.7 45.44H7.74C3.47 45.44 0 41.98 0 37.7V7.74C0 3.47 3.47 0 7.74 0H37.7C41.98 0 45.44 3.47 45.44 7.74V37.7C45.44 41.98 41.98 45.44 37.7 45.44Z" fill="white"/>
<g opacity="0.5">
<path d="M7.74 0V1.2H37.7C41.31 1.2 44.24 4.13 44.24 7.74V37.7C44.24 41.31 41.31 44.24 37.7 44.24H7.74C4.13 44.24 1.2 41.31 1.2 37.7V7.74C1.2 4.13 4.13 1.2 7.74 1.2V0V0ZM7.74 0C3.47 0 0 3.47 0 7.74V37.7C0 41.98 3.47 45.44 7.74 45.44H37.7C41.98 45.44 45.44 41.97 45.44 37.7V7.74C45.44 3.47 41.98 0 37.7 0H7.74Z" fill="white"/>
</g>
<path d="M8.81006 30.0199C8.81006 29.8799 8.81006 29.7299 8.81006 29.5899C8.99006 29.3799 9.18006 29.2099 9.47006 29.1499C11.7501 28.6999 13.2801 27.2399 14.4301 25.3299C15.4001 23.7199 15.2401 23.3599 13.4601 22.7299C13.3601 22.6899 13.2501 22.6599 13.1501 22.6199C12.7601 22.4599 12.3801 22.2899 12.0601 22.0199C11.2601 21.3299 11.7301 20.3299 12.6801 20.0999C13.3701 19.9299 13.9701 20.3799 14.6401 20.4599C15.0901 20.5199 15.2601 20.3699 15.2101 19.8899C15.0701 18.6699 15.0701 17.4299 15.1301 16.1999C15.2401 13.8499 16.3901 12.0699 18.3501 10.9099C21.2001 9.21992 24.1901 9.19992 27.0601 10.8799C28.8501 11.9299 30.0101 13.5199 30.2601 15.6599C30.4201 17.0499 30.3601 18.4399 30.2501 19.8299C30.2001 20.4299 30.3301 20.5399 30.9201 20.4099C31.6601 20.2399 32.2801 19.8499 33.0501 20.1899C33.4601 20.3699 33.8201 20.7599 33.8101 21.2099C33.8001 21.5199 33.6201 21.7999 33.3901 21.9999C33.0301 22.3099 32.5701 22.4799 32.1401 22.6599C31.8101 22.7999 31.4601 22.8999 31.1301 23.0499C30.4601 23.3699 30.2601 23.7799 30.5801 24.4499C31.6701 26.7599 33.2801 28.5099 35.8701 29.1199C36.1901 29.1899 36.4401 29.3199 36.6301 29.5799C36.6301 29.7199 36.6301 29.8699 36.6301 30.0099C36.3801 30.5199 35.9401 30.7899 35.4401 30.9799C34.9301 31.1699 34.4201 31.3899 33.8801 31.4199C33.1301 31.4699 32.7301 31.7999 32.6201 32.5799C32.5101 33.3199 32.2901 33.4299 31.5301 33.3699C31.3501 33.3599 31.1701 33.3199 30.9901 33.2899C29.5001 33.0299 28.1101 33.1799 26.8801 34.1599C26.6401 34.3499 26.3801 34.5099 26.1201 34.6799C24.0401 36.0299 21.9001 36.1899 19.7301 34.9199C19.1401 34.5699 18.5701 34.1799 18.0001 33.7999C17.5201 33.4899 17.0101 33.3099 16.4401 33.2299C15.5401 33.0899 14.6701 33.2999 13.8001 33.3899C13.3501 33.4399 12.9101 33.3099 12.8901 32.8399C12.8301 31.7199 12.1401 31.4399 11.1901 31.3399C10.7501 31.2899 10.3101 31.1099 9.90006 30.9399C9.44006 30.7699 9.03006 30.4999 8.81006 30.0199Z" fill="#6FADD8"/>
</svg>
