<svg width="18" height="18" viewBox="0 0 18 18" fill="none" xmlns="http://www.w3.org/2000/svg">
<path d="M12.3737 0.375H5.82061C2.80529 0.375 0.375 2.81608 0.375 5.83041V12.3818C0.375 15.3963 2.80529 17.875 5.82061 17.875H12.3737C15.389 17.875 17.875 15.3963 17.875 12.3818V5.83041C17.875 2.81608 15.389 0.375 12.3737 0.375ZM16.2262 12.3818C16.2262 14.4888 14.4813 16.2191 12.3737 16.2191H5.82061C3.71278 16.2191 1.98635 14.4888 1.98635 12.3818V5.83041C1.98635 3.72345 3.71278 1.99328 5.82061 1.99328H12.3737C14.4813 1.99328 16.2262 3.72345 16.2262 5.83041V12.3818Z" fill="url(#paint0_linear_9005_1927)"/>
<path d="M9.0972 4.73877C6.6846 4.73877 4.72853 6.69429 4.72853 9.10643C4.72853 11.5182 6.6846 13.4737 9.0972 13.4737C11.5098 13.4737 13.4658 11.5182 13.4658 9.10643C13.4658 6.69429 11.5098 4.73877 9.0972 4.73877ZM9.0972 11.836C7.59212 11.836 6.3669 10.611 6.3669 9.10643C6.3669 7.60045 7.59212 6.37666 9.0972 6.37666C10.6022 6.37666 11.8275 7.60049 11.8275 9.10643C11.8275 10.611 10.6022 11.836 9.0972 11.836Z" fill="url(#paint1_linear_9005_1927)"/>
<path d="M13.7933 3.82886C13.4718 3.82886 13.2111 4.08944 13.2111 4.4108C13.2111 4.7322 13.4718 4.99289 13.7933 4.99289C14.1146 4.99289 14.3754 4.7322 14.3754 4.4108C14.3754 4.08944 14.1146 3.82886 13.7933 3.82886Z" fill="url(#paint2_linear_9005_1927)"/>
<defs>
<linearGradient id="paint0_linear_9005_1927" x1="15.4105" y1="9.125" x2="6.92718" y2="6.07297" gradientUnits="userSpaceOnUse">
<stop stop-color="#9772EE"/>
<stop offset="1" stop-color="#9461FA"/>
</linearGradient>
<linearGradient id="paint1_linear_9005_1927" x1="12.2354" y1="9.10624" x2="8.00013" y2="7.58213" gradientUnits="userSpaceOnUse">
<stop stop-color="#9772EE"/>
<stop offset="1" stop-color="#9461FA"/>
</linearGradient>
<linearGradient id="paint2_linear_9005_1927" x1="14.2114" y1="4.41087" x2="13.647" y2="4.20778" gradientUnits="userSpaceOnUse">
<stop stop-color="#9772EE"/>
<stop offset="1" stop-color="#9461FA"/>
</linearGradient>
</defs>
</svg>
