<svg width="193" height="48" viewBox="0 0 193 48" fill="none" xmlns="http://www.w3.org/2000/svg">
<rect width="193" height="48" rx="4" fill="#6772E5"/>
<path d="M10.5362 8.42625H8.36031V19.4771H10.5362V8.42625Z" fill="white"/>
<path d="M17.0534 11.6231C16.1955 11.6231 15.3688 11.9151 14.8307 12.7282V11.8283H12.8498V19.4771H14.8853V15.2856C14.8853 14.1332 15.6106 13.557 16.4841 13.557C17.4122 13.557 17.9581 14.1648 17.9581 15.2699V19.4771H19.9936V14.6068C19.9936 12.8308 18.7692 11.6231 17.0534 11.6231Z" fill="white"/>
<path d="M27.4718 11.8283H24.7344V9.55501H22.6988V11.8283H21.2405V13.6596H22.6988V16.6196C22.6988 18.6009 23.6581 19.6744 25.5299 19.6744C26.6061 19.6744 27.3704 19.3271 28.0333 18.8693L27.2846 17.259C26.8713 17.5116 26.3487 17.7563 25.8652 17.7563C25.2335 17.7563 24.7344 17.409 24.7344 16.4539V13.6596H27.4718V11.8283Z" fill="white"/>
<path d="M32.5323 11.6231C30.2706 11.6231 28.7108 13.2649 28.7108 15.6724C28.7108 18.0799 30.3174 19.6744 32.6337 19.6744C33.9049 19.6744 34.9968 19.3113 35.8546 18.5141L34.6614 17.188C34.1155 17.6537 33.4058 17.9221 32.7507 17.9221C31.7914 17.9221 31.0271 17.4406 30.8087 16.3355H36.1666C36.19 16.1618 36.2056 15.8777 36.2056 15.6408C36.1978 13.257 34.7082 11.6231 32.5323 11.6231ZM32.5167 13.3991C33.3902 13.3991 33.9751 13.9517 34.1623 14.9304H30.8165C30.9959 13.9832 31.5574 13.3991 32.5167 13.3991Z" fill="white"/>
<path d="M41.9634 11.6231C41.0353 11.6231 40.31 11.9467 39.8343 12.665V11.8283H37.8611V19.4771H39.8967V15.3093C39.8967 14.1727 40.544 13.5886 41.4876 13.5886C41.901 13.5886 42.3845 13.6833 42.7199 13.8333L43.024 11.7889C42.7433 11.6862 42.4001 11.6231 41.9634 11.6231Z" fill="white"/>
<path d="M48.6146 11.6231C47.7567 11.6231 46.9301 11.9151 46.3919 12.7282V11.8283H44.411V19.4771H46.4465V15.2856C46.4465 14.1332 47.1718 13.557 48.0453 13.557C48.9734 13.557 49.5193 14.1648 49.5193 15.2699V19.4771H51.5548V14.6068C51.5548 12.8308 50.3304 11.6231 48.6146 11.6231Z" fill="white"/>
<path d="M61.0667 11.8283H59.078V12.6729C58.5788 12.0493 57.8535 11.6231 56.8163 11.6231C54.734 11.6231 53.1586 13.3518 53.1586 15.6487C53.1586 17.9457 54.734 19.6744 56.8163 19.6744C57.8535 19.6744 58.5866 19.2482 59.078 18.6325V19.4771H61.0667V11.8283ZM57.1906 13.5412C58.3527 13.5412 59.1404 14.441 59.1404 15.6487C59.1404 16.8564 58.3527 17.7563 57.1906 17.7563C55.9974 17.7563 55.2409 16.817 55.2409 15.6487C55.2409 14.4805 55.9974 13.5412 57.1906 13.5412Z" fill="white"/>
<path d="M68.6902 11.8283H65.9528V9.55501H63.9173V11.8283H62.4589V13.6596H63.9173V16.6196C63.9173 18.6009 64.8766 19.6744 66.7483 19.6744C67.8246 19.6744 68.5888 19.3271 69.2518 18.8693L68.5031 17.259C68.0897 17.5116 67.5672 17.7563 67.0837 17.7563C66.4519 17.7563 65.9528 17.409 65.9528 16.4539V13.6596H68.6902V11.8283Z" fill="white"/>
<path d="M72.5241 11.8283H70.4886V19.4771H72.5241V11.8283ZM71.4947 8C70.7616 8 70.2001 8.58411 70.2001 9.3261C70.2001 10.0681 70.7616 10.6364 71.4947 10.6364C72.2278 10.6364 72.7971 10.0681 72.7971 9.3261C72.7971 8.58411 72.2278 8 71.4947 8Z" fill="white"/>
<path d="M78.2731 11.6231C75.9257 11.6231 74.1943 13.3439 74.1943 15.6487C74.1943 17.9536 75.9257 19.6744 78.2731 19.6744C80.6284 19.6744 82.3676 17.9536 82.3676 15.6487C82.3676 13.3439 80.6284 11.6231 78.2731 11.6231ZM78.2731 13.5412C79.4196 13.5412 80.2853 14.4095 80.2853 15.6487C80.2853 16.888 79.4196 17.7563 78.2731 17.7563C77.1267 17.7563 76.2688 16.888 76.2688 15.6487C76.2688 14.4095 77.1267 13.5412 78.2731 13.5412Z" fill="white"/>
<path d="M88.2337 11.6231C87.3758 11.6231 86.5491 11.9151 86.011 12.7282V11.8283H84.0301V19.4771H86.0656V15.2856C86.0656 14.1332 86.7909 13.557 87.6644 13.557C88.5924 13.557 89.1384 14.1648 89.1384 15.2699V19.4771H91.1739V14.6068C91.1739 12.8308 89.9494 11.6231 88.2337 11.6231Z" fill="white"/>
<path d="M100.686 11.8283H98.697V12.6729C98.1979 12.0493 97.4726 11.6231 96.4353 11.6231C94.353 11.6231 92.7776 13.3518 92.7776 15.6487C92.7776 17.9457 94.353 19.6744 96.4353 19.6744C97.4726 19.6744 98.2057 19.2482 98.697 18.6325V19.4771H100.686V11.8283ZM96.8097 13.5412C97.9717 13.5412 98.7594 14.441 98.7594 15.6487C98.7594 16.8564 97.9717 17.7563 96.8097 17.7563C95.6165 17.7563 94.86 16.817 94.86 15.6487C94.86 14.4805 95.6165 13.5412 96.8097 13.5412Z" fill="white"/>
<path d="M104.862 8.11051H102.827V19.4771H104.862V8.11051Z" fill="white"/>
<path d="M115.494 15.4356C118.084 15.4356 119.472 14.0622 119.472 11.9388C119.472 9.7997 118.084 8.42625 115.479 8.42625H111.026V19.4771H113.202V15.4356H115.494ZM115.44 10.4549C116.625 10.4549 117.241 10.9521 117.241 11.9388C117.241 12.9334 116.625 13.4228 115.44 13.4228H113.202V10.4549H115.44Z" fill="white"/>
<path d="M128.332 11.8283H126.344V12.6729C125.844 12.0493 125.119 11.6231 124.082 11.6231C122 11.6231 120.424 13.3518 120.424 15.6487C120.424 17.9457 122 19.6744 124.082 19.6744C125.119 19.6744 125.852 19.2482 126.344 18.6325V19.4771H128.332V11.8283ZM124.456 13.5412C125.618 13.5412 126.406 14.441 126.406 15.6487C126.406 16.8564 125.618 17.7563 124.456 17.7563C123.263 17.7563 122.506 16.817 122.506 15.6487C122.506 14.4805 123.263 13.5412 124.456 13.5412Z" fill="white"/>
<path d="M138.132 11.8283H135.901L133.889 15.7593L131.815 11.8283H129.506L132.766 17.851L130.122 22.666H132.353L138.132 11.8283Z" fill="white"/>
<path d="M148.543 11.6231C147.552 11.6231 146.562 11.9625 145.977 12.9334C145.47 12.1204 144.573 11.6231 143.481 11.6231C142.623 11.6231 141.796 11.9151 141.258 12.7282V11.8283H139.277V19.4771H141.313V15.2856C141.313 14.1332 142.038 13.557 142.912 13.557C143.84 13.557 144.386 14.1648 144.386 15.2699V19.4771H146.421V15.2856C146.421 14.1332 147.147 13.557 148.02 13.557C148.94 13.557 149.494 14.1648 149.494 15.2699V19.4771H151.522V14.6068C151.522 12.8308 150.321 11.6231 148.543 11.6231Z" fill="white"/>
<path d="M156.949 11.6231C154.688 11.6231 153.128 13.2649 153.128 15.6724C153.128 18.0799 154.734 19.6744 157.051 19.6744C158.322 19.6744 159.414 19.3113 160.272 18.5141L159.078 17.188C158.532 17.6537 157.823 17.9221 157.168 17.9221C156.208 17.9221 155.444 17.4406 155.226 16.3355H160.584C160.607 16.1618 160.623 15.8777 160.623 15.6408C160.615 13.257 159.125 11.6231 156.949 11.6231ZM156.934 13.3991C157.807 13.3991 158.392 13.9517 158.579 14.9304H155.234C155.413 13.9832 155.974 13.3991 156.934 13.3991Z" fill="white"/>
<path d="M166.482 11.6231C165.624 11.6231 164.797 11.9151 164.259 12.7282V11.8283H162.278V19.4771H164.314V15.2856C164.314 14.1332 165.039 13.557 165.912 13.557C166.84 13.557 167.386 14.1648 167.386 15.2699V19.4771H169.422V14.6068C169.422 12.8308 168.197 11.6231 166.482 11.6231Z" fill="white"/>
<path d="M176.9 11.8283H174.163V9.55501H172.127V11.8283H170.669V13.6596H172.127V16.6196C172.127 18.6009 173.086 19.6744 174.958 19.6744C176.034 19.6744 176.799 19.3271 177.462 18.8693L176.713 17.259C176.3 17.5116 175.777 17.7563 175.294 17.7563C174.662 17.7563 174.163 17.409 174.163 16.4539V13.6596H176.9V11.8283Z" fill="white"/>
<path d="M184.805 12.3572C183.799 11.8599 182.855 11.631 181.646 11.631C179.658 11.631 178.457 12.5624 178.457 14.1332C178.457 15.4356 179.322 16.2092 181.069 16.4539L181.685 16.5407C182.559 16.667 182.941 16.8722 182.941 17.2432C182.941 17.6931 182.489 17.9615 181.545 17.9615C180.406 17.9615 179.619 17.6458 178.971 17.2116L178.168 18.7745C179.151 19.4771 180.5 19.6744 181.529 19.6744C183.721 19.6744 185 18.6561 185 17.0775C185 15.7829 184.088 15.0409 182.45 14.7884L181.779 14.6857C181.093 14.5831 180.547 14.4726 180.547 14.0306C180.547 13.6122 180.937 13.336 181.709 13.336C182.559 13.3439 183.518 13.6596 184.119 13.9595L184.805 12.3572Z" fill="white"/>
<path d="M11.2069 32.1571C11.756 32.1571 12.1511 32.0245 12.3923 31.7593C12.6336 31.494 12.7542 31.1236 12.7542 30.6479C12.7542 30.4374 12.723 30.2458 12.6606 30.0732C12.5982 29.9006 12.5026 29.7533 12.3736 29.6312C12.2488 29.5049 12.0887 29.4081 11.8932 29.3407C11.7019 29.2733 11.4731 29.2397 11.2069 29.2397H10.1088V32.1571H11.2069ZM11.2069 27.642C11.8475 27.642 12.3965 27.7199 12.854 27.8757C13.3157 28.0272 13.6942 28.2377 13.9896 28.5072C14.289 28.7766 14.5095 29.0944 14.6509 29.4607C14.7923 29.8269 14.863 30.2227 14.863 30.6479C14.863 31.1067 14.7903 31.5277 14.6447 31.9108C14.4991 32.2939 14.2766 32.6223 13.9771 32.8959C13.6776 33.1695 13.297 33.3842 12.8353 33.54C12.3778 33.6916 11.835 33.7673 11.2069 33.7673H10.1088V36.8426H8V27.642H11.2069Z" fill="white"/>
<path d="M18.4347 30.1932C18.9256 30.1932 19.3727 30.2711 19.7762 30.4268C20.1796 30.5826 20.5249 30.8057 20.8119 31.0962C21.103 31.3867 21.3276 31.7403 21.4857 32.1571C21.6479 32.5696 21.729 33.0348 21.729 33.5526C21.729 34.0747 21.6479 34.5462 21.4857 34.9671C21.3276 35.3839 21.103 35.7396 20.8119 36.0343C20.5249 36.3248 20.1796 36.55 19.7762 36.71C19.3727 36.8658 18.9256 36.9437 18.4347 36.9437C17.9398 36.9437 17.4885 36.8658 17.0809 36.71C16.6774 36.55 16.328 36.3248 16.0327 36.0343C15.7415 35.7396 15.5148 35.3839 15.3526 34.9671C15.1946 34.5462 15.1155 34.0747 15.1155 33.5526C15.1155 33.0348 15.1946 32.5696 15.3526 32.1571C15.5148 31.7403 15.7415 31.3867 16.0327 31.0962C16.328 30.8057 16.6774 30.5826 17.0809 30.4268C17.4885 30.2711 17.9398 30.1932 18.4347 30.1932ZM18.4347 35.4913C18.8798 35.4913 19.2063 35.3334 19.4143 35.0177C19.6264 34.6977 19.7325 34.2136 19.7325 33.5653C19.7325 32.917 19.6264 32.4349 19.4143 32.1192C19.2063 31.8035 18.8798 31.6456 18.4347 31.6456C17.9772 31.6456 17.6424 31.8035 17.4302 32.1192C17.2181 32.4349 17.1121 32.917 17.1121 33.5653C17.1121 34.2136 17.2181 34.6977 17.4302 35.0177C17.6424 35.3334 17.9772 35.4913 18.4347 35.4913Z" fill="white"/>
<path d="M32.102 30.2942L30.093 36.8426H28.5208C28.4376 36.8426 28.3669 36.8174 28.3087 36.7668C28.2504 36.7163 28.2047 36.6321 28.1714 36.5143L27.248 33.2495C27.2022 33.1022 27.1607 32.9569 27.1232 32.8138C27.0899 32.6707 27.0587 32.5254 27.0296 32.3781C27.0005 32.5254 26.9672 32.6728 26.9298 32.8201C26.8965 32.9675 26.857 33.1148 26.8113 33.2622L25.8754 36.5143C25.813 36.7332 25.6757 36.8426 25.4636 36.8426H23.9662L21.9572 30.2942H23.5045C23.6418 30.2942 23.7562 30.3279 23.8477 30.3953C23.9433 30.4584 24.0078 30.5384 24.0411 30.6352L24.69 33.5716C24.744 33.7947 24.7919 34.0115 24.8335 34.222C24.8751 34.4283 24.9125 34.6367 24.9458 34.8472C24.9998 34.6367 25.056 34.4283 25.1142 34.222C25.1766 34.0115 25.2432 33.7947 25.3139 33.5716L26.125 30.6289C26.1582 30.5321 26.2206 30.4521 26.3121 30.3889C26.4036 30.3216 26.5118 30.2879 26.6366 30.2879H27.4976C27.6348 30.2879 27.7492 30.3216 27.8407 30.3889C27.9364 30.4521 28.0009 30.5321 28.0341 30.6289L28.8078 33.5716C28.8702 33.7947 28.9305 34.0115 28.9887 34.222C29.0511 34.4325 29.1073 34.6451 29.1572 34.8598C29.1904 34.6493 29.23 34.4388 29.2757 34.2283C29.3215 34.0178 29.3735 33.7989 29.4317 33.5716L30.118 30.6352C30.1513 30.5384 30.2137 30.4584 30.3052 30.3953C30.3967 30.3279 30.5048 30.2942 30.6296 30.2942H32.102Z" fill="white"/>
<path d="M36.6952 32.7822C36.6952 32.6265 36.6744 32.4749 36.6328 32.3276C36.5954 32.1802 36.5309 32.0497 36.4394 31.9361C36.3521 31.8182 36.2356 31.7235 36.09 31.6519C35.9444 31.5803 35.7677 31.5445 35.5597 31.5445C35.1937 31.5445 34.9067 31.6519 34.6987 31.8666C34.4907 32.0771 34.3535 32.3823 34.2869 32.7822H36.6952ZM34.2619 33.9189C34.3243 34.4662 34.4886 34.864 34.7548 35.1124C35.021 35.3566 35.3642 35.4786 35.7843 35.4786C36.0089 35.4786 36.2023 35.4513 36.3645 35.3965C36.5268 35.3418 36.6703 35.2808 36.795 35.2134C36.924 35.1461 37.0404 35.085 37.1444 35.0303C37.2526 34.9756 37.3649 34.9482 37.4813 34.9482C37.6352 34.9482 37.7517 35.005 37.8307 35.1187L38.3923 35.8196C38.1926 36.0512 37.9763 36.2406 37.7434 36.388C37.5146 36.5311 37.2775 36.6448 37.0321 36.729C36.7909 36.8089 36.5475 36.8637 36.3021 36.8931C36.0609 36.9268 35.83 36.9437 35.6096 36.9437C35.1562 36.9437 34.7299 36.87 34.3306 36.7226C33.9354 36.5711 33.5881 36.348 33.2886 36.0533C32.9933 35.7586 32.7583 35.3923 32.5836 34.9545C32.4131 34.5167 32.3278 34.0073 32.3278 33.4263C32.3278 32.9885 32.4006 32.5739 32.5462 32.1823C32.6959 31.7908 32.9081 31.4477 33.1826 31.153C33.4613 30.8583 33.7961 30.6247 34.1871 30.4521C34.5822 30.2795 35.0273 30.1932 35.5223 30.1932C35.9507 30.1932 36.3417 30.2605 36.6952 30.3953C37.0529 30.53 37.3586 30.7257 37.6124 30.9825C37.8702 31.2393 38.0699 31.5551 38.2113 31.9297C38.3569 32.3002 38.4297 32.7212 38.4297 33.1927C38.4297 33.34 38.4234 33.46 38.411 33.5526C38.3985 33.6453 38.3756 33.7189 38.3423 33.7737C38.3091 33.8284 38.2633 33.8663 38.2051 33.8873C38.151 33.9084 38.0803 33.9189 37.9929 33.9189H34.2619Z" fill="white"/>
<path d="M41.2069 31.3046C41.4065 30.951 41.6353 30.6731 41.8932 30.471C42.1552 30.269 42.4547 30.1679 42.7916 30.1679C43.0828 30.1679 43.3199 30.2374 43.5029 30.3763L43.3781 31.8161C43.3573 31.9087 43.3219 31.9718 43.272 32.0055C43.2263 32.0392 43.1618 32.056 43.0786 32.056C43.0453 32.056 43.0017 32.0539 42.9476 32.0497C42.8935 32.0455 42.8374 32.0413 42.7791 32.0371C42.7209 32.0287 42.6606 32.0224 42.5982 32.0182C42.54 32.0097 42.4859 32.0055 42.436 32.0055C42.1531 32.0055 41.9265 32.0813 41.7559 32.2329C41.5895 32.3844 41.4481 32.5949 41.3317 32.8643V36.8426H39.3975V30.2942H40.5455C40.6412 30.2942 40.7202 30.3026 40.7826 30.3195C40.8492 30.3363 40.9032 30.3637 40.9448 30.4016C40.9906 30.4353 41.0239 30.4816 41.0447 30.5405C41.0696 30.5994 41.0904 30.671 41.1071 30.7552L41.2069 31.3046Z" fill="white"/>
<path d="M48.0767 32.7822C48.0767 32.6265 48.0559 32.4749 48.0144 32.3276C47.9769 32.1802 47.9124 32.0497 47.8209 31.9361C47.7336 31.8182 47.6171 31.7235 47.4715 31.6519C47.326 31.5803 47.1492 31.5445 46.9412 31.5445C46.5752 31.5445 46.2882 31.6519 46.0802 31.8666C45.8722 32.0771 45.735 32.3823 45.6684 32.7822H48.0767ZM45.6435 33.9189C45.7059 34.4662 45.8702 34.864 46.1364 35.1124C46.4026 35.3566 46.7457 35.4786 47.1658 35.4786C47.3904 35.4786 47.5839 35.4513 47.7461 35.3965C47.9083 35.3418 48.0518 35.2808 48.1766 35.2134C48.3055 35.1461 48.422 35.085 48.526 35.0303C48.6341 34.9756 48.7464 34.9482 48.8629 34.9482C49.0168 34.9482 49.1332 35.005 49.2123 35.1187L49.7738 35.8196C49.5741 36.0512 49.3578 36.2406 49.1249 36.388C48.8961 36.5311 48.6591 36.6448 48.4137 36.729C48.1724 36.8089 47.9291 36.8637 47.6837 36.8931C47.4424 36.9268 47.2116 36.9437 46.9911 36.9437C46.5378 36.9437 46.1114 36.87 45.7121 36.7226C45.317 36.5711 44.9697 36.348 44.6702 36.0533C44.3749 35.7586 44.1399 35.3923 43.9652 34.9545C43.7946 34.5167 43.7094 34.0073 43.7094 33.4263C43.7094 32.9885 43.7821 32.5739 43.9277 32.1823C44.0775 31.7908 44.2896 31.4477 44.5641 31.153C44.8428 30.8583 45.1776 30.6247 45.5686 30.4521C45.9638 30.2795 46.4088 30.1932 46.9038 30.1932C47.3322 30.1932 47.7232 30.2605 48.0767 30.3953C48.4345 30.53 48.7402 30.7257 48.9939 30.9825C49.2518 31.2393 49.4514 31.5551 49.5928 31.9297C49.7384 32.3002 49.8112 32.7212 49.8112 33.1927C49.8112 33.34 49.805 33.46 49.7925 33.5526C49.78 33.6453 49.7571 33.7189 49.7239 33.7737C49.6906 33.8284 49.6448 33.8663 49.5866 33.8873C49.5325 33.9084 49.4618 33.9189 49.3745 33.9189H45.6435Z" fill="white"/>
<path d="M54.7035 32.0497C54.5579 31.8855 54.3998 31.7719 54.2293 31.7087C54.0588 31.6414 53.8799 31.6077 53.6927 31.6077C53.5139 31.6077 53.3496 31.6435 53.1998 31.715C53.0501 31.7866 52.9191 31.9024 52.8068 32.0624C52.6986 32.2181 52.6134 32.4223 52.551 32.6749C52.4886 32.9275 52.4574 33.2327 52.4574 33.5905C52.4574 33.9357 52.4823 34.2262 52.5323 34.462C52.5822 34.6977 52.6508 34.8893 52.7381 35.0366C52.8297 35.1797 52.9378 35.2829 53.0626 35.346C53.1874 35.4092 53.3267 35.4407 53.4806 35.4407C53.622 35.4407 53.7489 35.4281 53.8612 35.4029C53.9777 35.3734 54.0837 35.3334 54.1794 35.2829C54.2751 35.2324 54.3645 35.1692 54.4477 35.0934C54.535 35.0135 54.6203 34.9229 54.7035 34.8219V32.0497ZM56.6376 27.3894V36.8426H55.4397C55.1984 36.8426 55.0404 36.7332 54.9655 36.5143L54.8158 36.0154C54.6868 36.1543 54.5517 36.2806 54.4102 36.3943C54.2688 36.5079 54.1149 36.6069 53.9485 36.6911C53.7863 36.7711 53.6095 36.8321 53.4182 36.8742C53.231 36.9205 53.0272 36.9437 52.8068 36.9437C52.4699 36.9437 52.1579 36.8679 51.8709 36.7163C51.5839 36.5648 51.3364 36.3459 51.1285 36.0596C50.9205 35.7733 50.7562 35.4239 50.6356 35.0113C50.5191 34.5946 50.4609 34.121 50.4609 33.5905C50.4609 33.1022 50.5274 32.6496 50.6605 32.2329C50.7936 31.8119 50.9808 31.4498 51.222 31.1467C51.4674 30.8394 51.7607 30.5994 52.1018 30.4268C52.4428 30.2542 52.8193 30.1679 53.231 30.1679C53.568 30.1679 53.8508 30.2163 54.0796 30.3132C54.3083 30.41 54.5163 30.5405 54.7035 30.7047V27.3894H56.6376Z" fill="white"/>
<path d="M62.7665 35.0619C62.9121 35.2218 63.0701 35.3355 63.2407 35.4029C63.4112 35.4702 63.5838 35.5039 63.7585 35.5039C63.9415 35.5039 64.11 35.4702 64.2639 35.4029C64.4178 35.3313 64.5488 35.2176 64.6569 35.0619C64.7692 34.9019 64.8566 34.6935 64.919 34.4367C64.9814 34.1757 65.0126 33.8557 65.0126 33.4769C65.0126 33.1485 64.9876 32.8706 64.9377 32.6433C64.8919 32.4118 64.8212 32.2244 64.7256 32.0813C64.6341 31.934 64.5176 31.8287 64.3762 31.7656C64.2389 31.6982 64.0809 31.6645 63.902 31.6645C63.6649 31.6645 63.459 31.7172 63.2843 31.8224C63.1096 31.9276 62.937 32.0813 62.7665 32.2834V35.0619ZM62.7665 30.9888C63.016 30.7489 63.2885 30.5573 63.5838 30.4142C63.8833 30.2669 64.216 30.1932 64.5821 30.1932C64.9481 30.1932 65.2808 30.269 65.5803 30.4205C65.8798 30.5721 66.1356 30.7889 66.3477 31.0709C66.5599 31.3488 66.7221 31.6856 66.8344 32.0813C66.9508 32.477 67.0091 32.9191 67.0091 33.4074C67.0091 33.9378 66.9425 34.4199 66.8094 34.8535C66.6763 35.2871 66.4871 35.6597 66.2417 35.9712C66.0004 36.2785 65.7113 36.5185 65.3744 36.6911C65.0375 36.8595 64.6652 36.9437 64.2576 36.9437C64.0621 36.9437 63.8874 36.9247 63.7335 36.8868C63.5796 36.8489 63.4382 36.7963 63.3093 36.729C63.1803 36.6574 63.0618 36.5732 62.9536 36.4764C62.8497 36.3795 62.7478 36.2743 62.6479 36.1606L62.5793 36.489C62.546 36.6237 62.492 36.7163 62.4171 36.7668C62.3422 36.8174 62.2424 36.8426 62.1176 36.8426H60.8323V27.3894H62.7665V30.9888Z" fill="white"/>
<path d="M73.9482 30.2942L70.4917 38.5413C70.4335 38.6718 70.3627 38.7665 70.2796 38.8255C70.1964 38.8886 70.0633 38.9202 69.8802 38.9202H68.4328L69.6806 36.268L67.0976 30.2942H68.8071C68.9569 30.2942 69.0712 30.3279 69.1503 30.3953C69.2335 30.4626 69.2938 30.5426 69.3312 30.6352L70.3919 33.4579C70.4917 33.7147 70.5728 33.9778 70.6352 34.2473C70.6809 34.1125 70.7267 33.9778 70.7724 33.8431C70.8182 33.7084 70.866 33.5758 70.9159 33.4453L71.8768 30.6352C71.9142 30.5384 71.9808 30.4584 72.0764 30.3953C72.1721 30.3279 72.2761 30.2942 72.3884 30.2942H73.9482Z" fill="white"/>
<path d="M79.9644 30.3993C79.9644 29.9883 80.3 29.8302 80.856 29.8302C81.6532 29.8302 82.6602 30.0726 83.4575 30.5047V28.0281C82.5868 27.6803 81.7267 27.5433 80.856 27.5433C78.7266 27.5433 77.3105 28.6604 77.3105 30.5258C77.3105 33.4344 81.2966 32.9707 81.2966 34.2248C81.2966 34.7096 80.877 34.8677 80.2896 34.8677C79.4189 34.8677 78.307 34.5094 77.4258 34.0246V36.5328C78.4014 36.9543 79.3874 37.1335 80.2896 37.1335C82.4714 37.1335 83.9715 36.048 83.9715 34.1616C83.961 31.0211 79.9644 31.5796 79.9644 30.3993ZM87.0555 25.4356L84.4959 25.9836L84.4855 34.4251C84.4855 35.9848 85.6498 37.1335 87.2023 37.1335C88.0625 37.1335 88.6918 36.9754 89.038 36.7857V34.6464C88.7023 34.7834 87.045 35.2682 87.045 33.7084V29.9672H89.038V27.7225H87.045L87.0555 25.4356ZM92.3003 28.5023L92.1325 27.7225H89.8667V36.9438H92.4891V30.6944C93.108 29.8829 94.157 30.0305 94.4822 30.1464V27.7225C94.1465 27.596 92.9192 27.3642 92.3003 28.5023ZM95.1221 27.7225H97.755V36.9438H95.1221V27.7225ZM95.1221 26.9216L97.755 26.3525V24.2131L95.1221 24.7717V26.9216ZM103.231 27.5433C102.203 27.5433 101.542 28.0281 101.175 28.3653L101.038 27.712H98.7306V40L101.353 39.4415L101.363 36.459C101.741 36.733 102.297 37.123 103.22 37.123C105.098 37.123 106.808 35.6054 106.808 32.2646C106.797 29.2084 105.066 27.5433 103.231 27.5433ZM102.601 34.8045C101.982 34.8045 101.615 34.5831 101.363 34.3091L101.353 30.3993C101.626 30.0937 102.003 29.8829 102.601 29.8829C103.556 29.8829 104.217 30.9579 104.217 32.3384C104.217 33.7506 103.566 34.8045 102.601 34.8045ZM115.074 32.37C115.074 29.6721 113.773 27.5433 111.287 27.5433C108.79 27.5433 107.28 29.6721 107.28 32.349C107.28 35.5211 109.063 37.123 111.622 37.123C112.871 37.123 113.815 36.8384 114.528 36.4379V34.3302C113.815 34.6885 112.997 34.9098 111.958 34.9098C110.941 34.9098 110.039 34.5515 109.923 33.308H115.053C115.053 33.171 115.074 32.623 115.074 32.37ZM109.892 31.3689C109.892 30.178 110.615 29.6827 111.276 29.6827C111.916 29.6827 112.598 30.178 112.598 31.3689H109.892Z" fill="white"/>
</svg>
