<?xml version="1.0" encoding="UTF-8"?>
<svg width="37px" height="43px" viewBox="0 0 37 43" version="1.1" xmlns="http://www.w3.org/2000/svg" xmlns:xlink="http://www.w3.org/1999/xlink">
    <!-- Generator: sketchtool 52.5 (67469) - http://www.bohemiancoding.com/sketch -->
    <title>5E135390-3DA8-461A-85F5-4EC195774C73</title>
    <desc>Created with sketchtool.</desc>
    <g id="Pricing" stroke="none" stroke-width="1" fill="none" fill-rule="evenodd">
        <g id="01---Pricing_faq_expanded_A" transform="translate(-927.000000, -524.000000)" fill-rule="nonzero">
            <g id="Plans" transform="translate(256.000000, 292.000000)">
                <g id="Select" transform="translate(638.000000, 102.000000)">
                    <g id="Group-3">
                        <g id="Group-4" transform="translate(33.000000, 0.000000)">
                            <g id="Group-21">
                                <g id="Job-Slots" transform="translate(0.600000, 130.027523)">
                                    <path d="M26.8296606,0 L2.55443119,0 C1.18857798,0 0.0773669725,1.11121101 0.0773669725,2.47706422 L0.0773669725,10.8990826 C0.0773669725,11.3551101 0.447110092,11.7247706 0.903055046,11.7247706 C1.359,11.7247706 1.72874312,11.3551101 1.72874312,10.8990826 L1.72874312,2.47706422 C1.72874312,2.02177982 2.09914679,1.65137615 2.55443119,1.65137615 L26.8296606,1.65137615 C27.284945,1.65137615 27.6553486,2.02177982 27.6553486,2.47706422 L27.6553486,33.1926606 C27.6553486,33.647945 27.284945,34.0183486 26.8296606,34.0183486 L2.55443119,34.0183486 C2.09914679,34.0183486 1.72874312,33.647945 1.72874312,33.1926606 L1.72874312,17.8623578 C1.72874312,17.4063303 1.359,17.0366697 0.903055046,17.0366697 C0.447110092,17.0366697 0.0773669725,17.4063303 0.0773669725,17.8623578 L0.0773669725,33.1926606 C0.0773669725,34.5585138 1.18857798,35.6697248 2.55443119,35.6697248 L26.8296606,35.6697248 C28.1955138,35.6697248 29.3067248,34.5585138 29.3067248,33.1926606 L29.3067248,2.47706422 C29.3067248,1.11121101 28.1955138,0 26.8296606,0 Z" id="Shape" fill="#4353FF"></path>
                                    <path d="M1.48673394,14.0119266 C1.33323853,13.8583486 1.12021101,13.7708257 0.903055046,13.7708257 C0.685899083,13.7708257 0.47287156,13.8583486 0.319293578,14.0119266 C0.165633028,14.1663303 0.0773669725,14.3793578 0.0773669725,14.5956881 C0.0773669725,14.8136697 0.165715596,15.0258716 0.319293578,15.1802752 C0.47287156,15.3338532 0.685899083,15.4222018 0.903055046,15.4222018 C1.12012844,15.4222018 1.33315596,15.3338532 1.48673394,15.1802752 C1.6403945,15.0266972 1.72874312,14.8136697 1.72874312,14.5956881 C1.72874312,14.3785321 1.64031193,14.1663303 1.48673394,14.0119266 Z" id="Shape" fill="#4353FF"></path>
                                    <path d="M4.79444037,37.5679817 C4.64086239,37.4144037 4.42874312,37.326055 4.2106789,37.326055 C3.99352294,37.326055 3.78049541,37.4144037 3.627,37.5679817 C3.47333945,37.7215596 3.38499083,37.9345872 3.38499083,38.1517431 C3.38499083,38.3697248 3.47342202,38.5819266 3.627,38.7355046 C3.78049541,38.8899083 3.99352294,38.9774312 4.2106789,38.9774312 C4.42874312,38.9774312 4.64086239,38.8899083 4.79444037,38.7355046 C4.94810092,38.5819266 5.03636697,38.3697248 5.03636697,38.1517431 C5.03636697,37.9345872 4.94801835,37.7215596 4.79444037,37.5679817 Z" id="Shape" fill="#4353FF"></path>
                                    <path d="M31.7889908,3.30795413 C31.3330459,3.30795413 30.9633028,3.67761468 30.9633028,4.1336422 L30.9633028,36.5006147 C30.9633028,36.9558991 30.5928991,37.3263028 30.1376147,37.3263028 L7.51376147,37.3263028 C7.05781651,37.3263028 6.68807339,37.6959633 6.68807339,38.1519908 C6.68807339,38.6080183 7.05781651,38.9776789 7.51376147,38.9776789 L30.1376147,38.9776789 C31.5034679,38.9776789 32.6146789,37.8664679 32.6146789,36.5006147 L32.6146789,4.1336422 C32.6146789,3.67761468 32.2449358,3.30795413 31.7889908,3.30795413 Z" id="Shape" fill="#4353FF"></path>
                                    <path d="M35.096945,6.60550459 C34.641,6.60550459 34.2712569,6.97516514 34.2712569,7.43119266 L34.2712569,39.7981651 C34.2712569,40.2534495 33.9008532,40.6238532 33.4455688,40.6238532 L7.5189633,40.6238532 C7.06301835,40.6238532 6.69327523,40.9935138 6.69327523,41.4495413 C6.69327523,41.9055688 7.06301835,42.2752294 7.5189633,42.2752294 L33.4455688,42.2752294 C34.811422,42.2752294 35.922633,41.1640183 35.922633,39.7981651 L35.922633,7.43119266 C35.922633,6.97516514 35.5528899,6.60550459 35.096945,6.60550459 Z" id="Shape" fill="#4353FF"></path>
                                    <path d="M13.4535138,6.11009174 L5.52690826,6.11009174 C5.0709633,6.11009174 4.70122018,6.47975229 4.70122018,6.93577982 L4.70122018,14.8623853 C4.70122018,15.3184128 5.0709633,15.6880734 5.52690826,15.6880734 L13.4535138,15.6880734 C13.9094587,15.6880734 14.2792018,15.3184128 14.2792018,14.8623853 L14.2792018,6.93577982 C14.2792018,6.47975229 13.9094587,6.11009174 13.4535138,6.11009174 Z M12.6278257,14.0366972 L6.35259633,14.0366972 L6.35259633,7.76146789 L12.6278257,7.76146789 L12.6278257,14.0366972 Z" id="Shape" fill="#22DDAB"></path>
                                    <path d="M10.7967798,19.4368624 C10.4742661,19.1145138 9.9516055,19.1144312 9.62900917,19.4368624 L7.43408257,21.631789 L6.41353211,20.611156 C6.09110092,20.2887248 5.56844037,20.2888073 5.24576147,20.611156 C4.92333028,20.9335872 4.92333028,21.4564128 5.24576147,21.778844 L6.85023853,23.3833211 C7.00513761,23.5381376 7.21511009,23.6251651 7.43408257,23.6251651 C7.65313761,23.6251651 7.86302752,23.5381376 8.01800917,23.3833211 L10.7967798,20.6045505 C11.119211,20.2821193 11.119211,19.7592936 10.7967798,19.4368624 Z" id="Shape" fill="#EDB726"></path>
                                    <path d="M24.3251009,20.559633 L14.6920459,20.559633 C14.2361009,20.559633 13.8663578,20.9292936 13.8663578,21.3853211 C13.8663578,21.8413486 14.2361009,22.2110092 14.6920459,22.2110092 L24.3251009,22.2110092 C24.7810459,22.2110092 25.150789,21.8413486 25.150789,21.3853211 C25.150789,20.9292936 24.7810459,20.559633 24.3251009,20.559633 Z" id="Shape" fill="#EDB726"></path>
                                    <path d="M23.8571835,6.11009174 L18.077367,6.11009174 C17.621422,6.11009174 17.2516789,6.47975229 17.2516789,6.93577982 C17.2516789,7.39180734 17.621422,7.76146789 18.077367,7.76146789 L23.8571835,7.76146789 C24.3131284,7.76146789 24.6828716,7.39180734 24.6828716,6.93577982 C24.6828716,6.47975229 24.3131284,6.11009174 23.8571835,6.11009174 Z" id="Shape" fill="#EDB726"></path>
                                    <path d="M23.8571835,10.0733945 L18.077367,10.0733945 C17.621422,10.0733945 17.2516789,10.443055 17.2516789,10.8990826 C17.2516789,11.3551101 17.621422,11.7247706 18.077367,11.7247706 L23.8571835,11.7247706 C24.3131284,11.7247706 24.6828716,11.3551101 24.6828716,10.8990826 C24.6828716,10.443055 24.3131284,10.0733945 23.8571835,10.0733945 Z" id="Shape" fill="#EDB726"></path>
                                    <path d="M23.8571835,14.0366972 L18.077367,14.0366972 C17.621422,14.0366972 17.2516789,14.4063578 17.2516789,14.8623853 C17.2516789,15.3184128 17.621422,15.6880734 18.077367,15.6880734 L23.8571835,15.6880734 C24.3131284,15.6880734 24.6828716,15.3184128 24.6828716,14.8623853 C24.6828716,14.4063578 24.3131284,14.0366972 23.8571835,14.0366972 Z" id="Shape" fill="#EDB726"></path>
                                    <path d="M10.7967798,25.7423945 C10.4742661,25.4200459 9.9516055,25.4199633 9.62900917,25.7423945 L7.43408257,27.9373211 L6.41353211,26.9166881 C6.09110092,26.5942569 5.56844037,26.5943394 5.24576147,26.9166881 C4.92333028,27.2391193 4.92333028,27.761945 5.24576147,28.0843761 L6.85023853,29.6888532 C7.00513761,29.8436697 7.21511009,29.9306972 7.43408257,29.9306972 C7.65313761,29.9306972 7.86302752,29.8436697 8.01800917,29.6888532 L10.7967798,26.9100826 C11.119211,26.5876514 11.119211,26.0648257 10.7967798,25.7423945 Z" id="Shape" fill="#EDB726"></path>
                                    <path d="M24.3251009,26.8348624 L14.6920459,26.8348624 C14.2361009,26.8348624 13.8663578,27.2045229 13.8663578,27.6605505 C13.8663578,28.116578 14.2361009,28.4862385 14.6920459,28.4862385 L24.3251009,28.4862385 C24.7810459,28.4862385 25.150789,28.116578 25.150789,27.6605505 C25.150789,27.2045229 24.7810459,26.8348624 24.3251009,26.8348624 Z" id="Shape" fill="#EDB726"></path>
                                </g>
                            </g>
                        </g>
                    </g>
                </g>
            </g>
        </g>
    </g>
</svg>