<svg width="18" height="18" viewBox="0 0 18 18" fill="none" xmlns="http://www.w3.org/2000/svg">
<path d="M9.59531 7.52745C9.68496 7.54649 9.71057 7.48303 9.74899 7.43225C10.7287 6.00425 12.131 5.54729 13.7894 5.75038C15.7744 5.99156 17.0423 7.26089 17.4777 9.33626C17.5737 9.79322 17.6186 10.2565 17.6186 10.7198C17.625 12.9285 17.6186 15.1371 17.625 17.3521C17.625 17.5679 17.5737 17.6441 17.3432 17.6377C16.3379 17.625 15.339 17.625 14.3337 17.6377C14.084 17.6441 14.0328 17.5616 14.0328 17.3331C14.0392 15.3021 14.0392 13.2712 14.0328 11.2403C14.0328 10.8468 14.0007 10.466 13.8663 10.0852C13.6614 9.50762 13.2644 9.13951 12.6945 8.92372C11.1577 8.34618 9.63373 9.32357 9.61452 10.9483C9.58891 12.9919 9.60812 15.0292 9.60812 17.0729C9.60812 17.6314 9.60812 17.6314 9.02542 17.6314C8.12897 17.6314 7.23252 17.625 6.33607 17.6377C6.10555 17.6377 6.02231 17.5933 6.02231 17.3458C6.03511 13.6964 6.02871 10.0471 6.02871 6.40409C6.02871 6.21369 6.07353 6.15022 6.27844 6.15022C7.30295 6.16292 8.32747 6.15657 9.35199 6.15022C9.55049 6.15022 9.61452 6.20734 9.60171 6.40409C9.5825 6.7722 9.59531 7.153 9.59531 7.52745Z" fill="url(#paint0_linear_9005_1538)"/>
<path d="M0.240381 11.9319C0.240381 10.1421 0.246785 8.35873 0.233978 6.56897C0.233978 6.26432 0.330026 6.20086 0.611769 6.2072C1.57225 6.22625 2.53274 6.2199 3.49322 6.2072C3.72374 6.2072 3.80698 6.25798 3.80698 6.5055C3.80058 10.1231 3.80058 13.7407 3.80698 17.3583C3.80698 17.5868 3.73014 17.6376 3.51243 17.6376C2.51993 17.6249 1.52743 17.6249 0.53493 17.6376C0.285204 17.6439 0.240381 17.5487 0.240381 17.3266C0.246785 15.5305 0.240381 13.728 0.240381 11.9319Z" fill="url(#paint1_linear_9005_1538)"/>
<path d="M0.125041 2.13307C0.137847 1.08587 0.899832 0.368695 2.00119 0.375042C3.07053 0.387735 3.8133 1.14934 3.79409 2.21558C3.77488 3.2374 2.99369 3.97361 1.93075 3.96727C0.867815 3.96727 0.118638 3.19932 0.125041 2.13307Z" fill="url(#paint2_linear_9005_1538)"/>
<defs>
<linearGradient id="paint0_linear_9005_1538" x1="15.991" y1="11.6713" x2="10.331" y2="9.69151" gradientUnits="userSpaceOnUse">
<stop stop-color="#9772EE"/>
<stop offset="1" stop-color="#9461FA"/>
</linearGradient>
<linearGradient id="paint1_linear_9005_1538" x1="3.30381" y1="11.9223" x2="1.37199" y2="11.7051" gradientUnits="userSpaceOnUse">
<stop stop-color="#9772EE"/>
<stop offset="1" stop-color="#9461FA"/>
</linearGradient>
<linearGradient id="paint2_linear_9005_1538" x1="3.2777" y1="2.17115" x2="1.50769" y2="1.52069" gradientUnits="userSpaceOnUse">
<stop stop-color="#9772EE"/>
<stop offset="1" stop-color="#9461FA"/>
</linearGradient>
</defs>
</svg>
