<svg width="84" height="20" viewBox="0 0 84 20" fill="none" xmlns="http://www.w3.org/2000/svg">
<path d="M73.8055 9.95144C73.3822 9.20879 72.4122 8.94973 71.6714 9.36423C71.5127 9.45059 68.3205 11.2813 68.197 15.6163C69.0083 15.8409 69.8549 16.1863 70.7543 16.7044C71.3893 17.0671 71.6714 17.8097 71.4598 18.4833C71.4245 18.5869 71.3716 18.7078 71.3187 18.8115C70.8954 19.5196 69.9783 19.7786 69.2376 19.3987C69.4669 19.5368 69.7314 19.6059 70.0136 19.6059C70.1371 19.6059 70.2605 19.5887 70.3663 19.5714C71.2129 19.3814 71.742 18.5524 71.5304 17.7234C70.578 13.7338 72.9237 12.2139 73.2058 12.0412C73.9642 11.6095 74.2288 10.6941 73.8055 9.95144Z" fill="#8CC86D"/>
<path d="M71.3014 18.8113C71.3719 18.7077 71.4072 18.6041 71.4425 18.4832C71.6541 17.8096 71.3719 17.067 70.737 16.7043C69.8375 16.1862 68.9733 15.8407 68.1797 15.6162C68.162 16.4625 68.2502 17.3951 68.4971 18.4141C68.6029 18.8459 68.8851 19.1913 69.2379 19.3986C69.961 19.7785 70.8781 19.5367 71.3014 18.8113Z" fill="#8CC86D"/>
<path d="M73.9293 11.1943C73.7 11.8506 73.0475 12.2996 72.3067 12.2478C65.6401 11.6779 64.5642 6.66929 64.5113 6.46204C64.335 5.63303 64.8993 4.82129 65.7459 4.64858C66.5924 4.49314 67.4214 5.01127 67.5801 5.84028C67.6506 6.15116 68.409 8.81089 72.5713 9.17358C73.4355 9.24266 74.0704 10.0026 73.9999 10.8489C73.9822 10.9525 73.9646 11.0734 73.9293 11.1943Z" fill="#91D8F6"/>
<path d="M58.1445 11.1432C58.3561 11.7995 59.0263 12.2658 59.767 12.1967C66.4337 11.6613 67.5448 6.6527 67.5977 6.44545C67.7741 5.61644 67.2273 4.80471 66.3631 4.632C65.5166 4.45929 64.6877 4.99469 64.5113 5.8237C64.4407 6.13457 63.6824 8.79431 59.5025 9.13973C58.6383 9.20881 57.9857 9.95146 58.0739 10.7977C58.0739 10.9186 58.0915 11.0395 58.1445 11.1432Z" fill="#EE3197"/>
<path d="M62.0598 19.6229C62.7653 19.6229 63.4178 19.1393 63.5942 18.4312C65.1286 12.0237 60.6136 9.45028 60.4196 9.34665C59.6612 8.93215 58.7088 9.19121 58.2679 9.93387C57.8446 10.6765 58.1092 11.6092 58.8499 12.0237C59.1321 12.1964 61.4778 13.7335 60.5254 17.7231C60.3314 18.5521 60.8429 19.3811 61.6894 19.5711C61.8129 19.6056 61.9364 19.6229 62.0598 19.6229Z" fill="#F58634"/>
<path d="M68.4792 18.4322C68.2322 17.3959 68.1441 16.4633 68.1617 15.6343C63.8407 14.4253 61.0894 16.9123 60.9483 17.0332C60.3134 17.6205 60.2957 18.5876 60.8954 19.2094C61.495 19.8139 62.4827 19.8484 63.1 19.2785C63.3469 19.0539 65.5338 17.3096 69.1317 19.3821C69.1494 19.3994 69.1846 19.3994 69.2023 19.4166C68.8672 19.2094 68.585 18.864 68.4792 18.4322Z" fill="#F2C94C"/>
<path d="M0.472792 18.6404C0.243515 18.4159 0.137695 18.1568 0.137695 17.8632V1.30035C0.137695 1.00674 0.243515 0.730406 0.472792 0.523154C0.702069 0.28136 0.966619 0.177734 1.28408 0.177734C1.5839 0.177734 1.84845 0.28136 2.07773 0.505883C2.28937 0.730406 2.41283 0.989471 2.41283 1.28308V17.846C2.41283 18.1396 2.30701 18.4159 2.07773 18.6231C1.86609 18.8477 1.60154 18.9513 1.28408 18.9513C0.966619 18.9858 0.702069 18.8649 0.472792 18.6404Z" fill="#8B39B2"/>
<path d="M5.11121 3.92637C4.84666 3.6673 4.70557 3.33915 4.70557 2.92465C4.70557 2.51014 4.84666 2.182 5.11121 1.92293C5.37576 1.66387 5.71086 1.54297 6.09886 1.54297C6.50451 1.54297 6.83961 1.66387 7.10416 1.92293C7.36871 2.182 7.5098 2.51014 7.5098 2.92465C7.5098 3.33915 7.36871 3.6673 7.10416 3.92637C6.83961 4.18543 6.50451 4.30633 6.09886 4.30633C5.71086 4.30633 5.3934 4.18543 5.11121 3.92637ZM5.30521 18.6412C5.09357 18.4167 4.97012 18.1577 4.97012 17.8641V7.06968C4.97012 6.77608 5.07594 6.51701 5.30521 6.29249C5.51685 6.08524 5.7814 5.96434 6.09886 5.96434C6.39869 5.96434 6.68087 6.06797 6.89252 6.29249C7.12179 6.49974 7.22761 6.75881 7.22761 7.06968V17.8468C7.22761 18.1404 7.12179 18.4167 6.89252 18.624C6.66324 18.8485 6.39869 18.9521 6.09886 18.9521C5.7814 18.9867 5.51685 18.8658 5.30521 18.6412Z" fill="#8B39B2"/>
<path d="M19.0443 6.46392C19.8379 6.89569 20.4552 7.51745 20.9138 8.32918C21.3723 9.14092 21.6016 10.1081 21.6016 11.2307V17.88C21.6016 18.1736 21.4958 18.4327 21.2665 18.6572C21.0549 18.8645 20.7903 18.9854 20.4729 18.9854C20.173 18.9854 19.9085 18.8818 19.6792 18.6572C19.4676 18.45 19.3441 18.1909 19.3441 17.88V11.438C19.3441 10.3326 18.9914 9.46907 18.3036 8.81277C17.6157 8.15647 16.7692 7.84559 15.7462 7.84559C14.7057 7.84559 13.8415 8.20828 13.136 8.91639C12.4305 9.62451 12.0778 10.5226 12.0778 11.5761V17.88C12.0778 18.1736 11.972 18.4327 11.7427 18.6572C11.5134 18.8645 11.2489 18.9854 10.9491 18.9854C10.6492 18.9854 10.3847 18.8818 10.1554 18.6572C9.94377 18.45 9.82031 18.1909 9.82031 17.88V7.0684C9.82031 6.77479 9.92613 6.51573 10.1554 6.29121C10.367 6.08395 10.6316 5.96306 10.9491 5.96306C11.2489 5.96306 11.5311 6.06668 11.7427 6.29121C11.972 6.49846 12.0778 6.75752 12.0778 7.0684V7.89741C12.554 7.24111 13.1536 6.72298 13.8944 6.36029C14.6351 5.9976 15.4641 5.80762 16.3635 5.80762C17.3688 5.82489 18.2683 6.03214 19.0443 6.46392Z" fill="#8B39B2"/>
<path d="M34.97 17.9153C34.97 18.3126 34.8112 18.6062 34.5114 18.8134C34.3174 18.9343 34.0881 19.0034 33.8588 19.0034C33.4708 19.0034 33.171 18.848 32.9594 18.5544L28.6913 12.5441L26.2751 14.6166V17.8635C26.2751 18.1571 26.1693 18.4335 25.94 18.6407C25.7107 18.8652 25.4462 18.9689 25.1463 18.9689C24.8465 18.9689 24.582 18.8652 24.3527 18.6407C24.141 18.4162 24.0176 18.1571 24.0176 17.8635V1.30066C24.0176 1.00705 24.1234 0.730713 24.3527 0.523461C24.5643 0.298938 24.8289 0.195312 25.1463 0.195312C25.4462 0.195312 25.7283 0.298938 25.94 0.523461C26.1693 0.747984 26.2751 1.00705 26.2751 1.30066V11.8532L32.7654 6.18834C32.9417 6.01564 33.1887 5.92928 33.4708 5.92928C33.8236 5.92928 34.0881 6.05018 34.3174 6.30924C34.4938 6.49922 34.582 6.74102 34.582 7.03462C34.582 7.38004 34.4585 7.63911 34.1939 7.86363L30.3668 11.1451L34.7407 17.3281C34.8994 17.5008 34.97 17.7081 34.97 17.9153Z" fill="#8B39B2"/>
<path d="M36.6283 18.157C36.2579 17.9497 36.0815 17.6561 36.0815 17.2762C36.0815 17.0171 36.1874 16.7753 36.3814 16.6026C36.5754 16.4126 36.8223 16.3263 37.0868 16.3263C37.2456 16.3263 37.3867 16.3608 37.4925 16.4126C38.586 16.9307 39.6794 17.1898 40.7905 17.1898C41.5666 17.1898 42.2191 17.0171 42.7306 16.689C43.242 16.3608 43.5066 15.9463 43.5066 15.4282C43.5066 14.9446 43.2773 14.5819 42.8011 14.3574C42.3249 14.1156 41.6018 13.8565 40.5965 13.5974C39.6618 13.3557 38.8858 13.0966 38.2861 12.8721C37.6865 12.6303 37.175 12.2676 36.7517 11.7667C36.3285 11.2659 36.1168 10.6268 36.1168 9.8151C36.1168 8.6234 36.5401 7.6735 37.3867 6.93085C38.2332 6.20546 39.362 5.84277 40.7376 5.84277C41.4255 5.84277 42.1486 5.9464 42.8893 6.13638C43.63 6.32636 44.3002 6.58543 44.8999 6.91357C45.0586 6.99993 45.1997 7.12083 45.2879 7.29354C45.3937 7.44898 45.429 7.62168 45.429 7.79439C45.429 8.05346 45.3232 8.29525 45.1292 8.46796C44.9352 8.65794 44.6882 8.7443 44.4237 8.7443C44.265 8.7443 44.1239 8.70976 43.9828 8.64067C43.4537 8.38161 42.9246 8.17436 42.3602 8.01892C41.8135 7.86348 41.302 7.79439 40.8434 7.79439C40.1027 7.79439 39.4854 7.98438 39.0269 8.34707C38.5507 8.70976 38.3214 9.17607 38.3214 9.74602C38.3214 10.126 38.4449 10.4196 38.7094 10.6614C38.974 10.9032 39.2914 11.0932 39.6794 11.2141C40.0674 11.3522 40.6142 11.5077 41.3373 11.7149C42.2367 11.9394 42.9951 12.1812 43.5771 12.4057C44.1591 12.6303 44.6706 12.993 45.0939 13.4593C45.5172 13.9256 45.7112 14.5474 45.7112 15.3418C45.7112 16.5335 45.235 17.4661 44.2826 18.157C43.3302 18.8478 42.1838 19.176 40.8082 19.176C39.3443 19.1414 37.9334 18.8133 36.6283 18.157Z" fill="#8B39B2"/>
<path d="M56.7336 18.3817C56.5925 18.5544 56.4162 18.6753 56.2045 18.7444C55.4109 18.9862 54.6701 19.1243 53.9823 19.1243C52.6772 19.1243 51.6543 18.7098 50.9312 17.8981C50.4373 17.4145 50.1022 16.8618 49.9082 16.2228C49.7142 15.5838 49.6261 14.8066 49.6261 13.9085V8.27816H47.7037C47.4215 8.27816 47.1746 8.17453 46.9629 7.98455C46.7689 7.79457 46.6631 7.55278 46.6631 7.25917C46.6631 6.96556 46.7689 6.74104 46.9629 6.53379C47.1569 6.34381 47.4038 6.24018 47.7037 6.24018H49.6261V3.11413C49.6261 2.82053 49.7319 2.54419 49.9611 2.33694C50.1904 2.11241 50.455 2.00879 50.7548 2.00879C51.0546 2.00879 51.3368 2.11241 51.5484 2.33694C51.7777 2.56146 51.8835 2.82053 51.8835 3.11413V6.25745H55.358C55.6402 6.25745 55.8871 6.36108 56.0987 6.55106C56.2927 6.74104 56.3985 6.98283 56.3985 7.27644C56.3985 7.57005 56.2927 7.79457 56.0987 8.00182C55.9047 8.1918 55.6578 8.29543 55.358 8.29543H51.8835V14.2366C51.8835 14.8239 51.9365 15.3074 52.0423 15.6874C52.1481 16.0674 52.3245 16.3783 52.589 16.6373C52.9594 17 53.4356 17.1727 54.0529 17.1727C54.4938 17.1727 55.0229 17.0864 55.6578 16.9137C55.7107 16.8964 55.7989 16.8791 55.9223 16.8791C56.1869 16.8791 56.4338 16.9655 56.6102 17.1554C56.8042 17.3454 56.8924 17.5699 56.8924 17.8636C56.9453 18.0363 56.8747 18.209 56.7336 18.3817Z" fill="#8B39B2"/>
<path d="M83.1364 6.13607C83.3657 6.34332 83.4715 6.60239 83.4715 6.91327C83.4715 7.20687 83.3657 7.46594 83.1364 7.69046C82.9071 7.89771 82.6426 8.01861 82.3427 8.01861C81.0729 8.01861 80.0676 8.39857 79.3269 9.14122C78.5861 9.88388 78.2158 10.9547 78.2158 12.3709V17.9149C78.2158 18.2085 78.1099 18.4676 77.8806 18.6921C77.6514 18.8993 77.3868 19.0202 77.087 19.0202C76.7872 19.0202 76.5226 18.9166 76.2933 18.6921C76.0817 18.4848 75.9583 18.2258 75.9583 17.9149V7.06871C75.9583 6.7751 76.0641 6.51603 76.2933 6.29151C76.505 6.08426 76.7695 5.96336 77.087 5.96336C77.3868 5.96336 77.669 6.06699 77.8806 6.29151C78.1099 6.49876 78.2158 6.75783 78.2158 7.06871V7.89771C78.6743 7.25869 79.2563 6.75783 79.9618 6.39514C80.6849 6.03245 81.4785 5.84247 82.3427 5.8252C82.6426 5.8252 82.9247 5.92882 83.1364 6.13607Z" fill="#8B39B2"/>
</svg>
