<svg width="24" height="24" viewBox="0 0 24 24" fill="none" xmlns="http://www.w3.org/2000/svg">
<path d="M18.8056 10.9999H5.19444C4.12056 10.9999 3.25 11.8954 3.25 12.9999V19.9999C3.25 21.1045 4.12056 21.9999 5.19444 21.9999H18.8056C19.8794 21.9999 20.75 21.1045 20.75 19.9999V12.9999C20.75 11.8954 19.8794 10.9999 18.8056 10.9999Z" stroke="#5B3F91" stroke-width="2" stroke-linecap="round" stroke-linejoin="round"/>
<path d="M7.13892 11V7C7.13892 5.67392 7.65107 4.40215 8.5627 3.46447C9.47434 2.52678 10.7108 2 12 2C13.2893 2 14.5257 2.52678 15.4374 3.46447C16.349 4.40215 16.8611 5.67392 16.8611 7V11" stroke="#5B3F91" stroke-width="2" stroke-linecap="round" stroke-linejoin="round"/>
</svg>
