<svg width="112" height="32" viewBox="0 0 112 32" fill="none" xmlns="http://www.w3.org/2000/svg">
<path d="M46.3026 15.3501H46.1113V10.7474H47.1347V10.7478L47.1436 10.747C47.5653 10.709 47.989 10.7089 48.4107 10.7465C48.6839 10.7987 48.9473 10.9036 49.1891 11.0572L49.1891 11.0572L49.19 11.0577C49.5837 11.302 49.9079 11.6683 50.1228 12.1147C50.2533 12.4092 50.3628 12.715 50.4501 13.029L50.4704 13.1023H50.5464H50.7128H50.8188L50.8127 12.9965L50.6601 10.3473L50.6547 10.253H50.5603H42.9324H42.8324V10.353V10.5389V10.6372L42.9307 10.6389C43.2117 10.6438 43.4887 10.7183 43.7418 10.8577C43.8988 10.955 44.0337 11.0939 44.1341 11.2634C44.2343 11.4325 44.297 11.6266 44.3164 11.8295V11.8316V11.8339V11.8362V11.8384V11.8407V11.843V11.8452V11.8475V11.8497V11.852V11.8543V11.8565V11.8588V11.861V11.8633V11.8656V11.8678V11.8701V11.8723V11.8746V11.8768V11.8791V11.8813V11.8836V11.8858V11.8881V11.8903V11.8926V11.8948V11.8971V11.8993V11.9016V11.9038V11.9061V11.9083V11.9106V11.9128V11.915V11.9173V11.9195V11.9218V11.924V11.9262V11.9285V11.9307V11.933V11.9352V11.9374V11.9397V11.9419V11.9441V11.9464V11.9486V11.9508V11.9531V11.9553V11.9575V11.9597V11.962V11.9642V11.9664V11.9686V11.9709V11.9731V11.9753V11.9775V11.9798V11.982V11.9842V11.9864V11.9886V11.9909V11.9931V11.9953V11.9975V11.9997V12.002V12.0042V12.0064V12.0086V12.0108V12.013V12.0152V12.0174V12.0197V12.0219V12.0241V12.0263V12.0285V12.0307V12.0329V12.0351V12.0373V12.0395V12.0417V12.0439V12.0461V12.0483V12.0505V12.0527V12.0549V12.0571V12.0593V12.0615V12.0637V12.0659V12.0681V12.0703V12.0725V12.0747V12.0769V12.0791V12.0813V12.0835V12.0857V12.0879V12.0901V12.0922V12.0944V12.0966V12.0988V12.101V12.1032V12.1054V12.1076V12.1097V12.1119V12.1141V12.1163V12.1185V12.1207V12.1228V12.125V12.1272V12.1294V12.1316V12.1337V12.1359V12.1381V12.1403V12.1424V12.1446V12.1468V12.149V12.1511V12.1533V12.1555V12.1577V12.1598V12.162V12.1642V12.1663V12.1685V12.1707V12.1728V12.175V12.1772V12.1793V12.1815V12.1837V12.1858V12.188V12.1901V12.1923V12.1945V12.1966V12.1988V12.2009V12.2031V12.2053V12.2074V12.2096V12.2117V12.2139V12.216V12.2182V12.2204V12.2225V12.2247V12.2268V12.229V12.2311V12.2333V12.2354V12.2376V12.2397V12.2419V12.244V12.2462V12.2483V12.2504V12.2526V12.2547V12.2569V12.259V12.2612V12.2633V12.2655V12.2676V12.2697V12.2719V12.274V12.2762V12.2783V12.2804V12.2826V12.2847V12.2868V12.289V12.2911V12.2932V12.2954V12.2975V12.2996V12.3018V12.3039V12.306V12.3082V12.3103V12.3124V12.3146V12.3167V12.3188V12.3209V12.3231V12.3252V12.3273V12.3294V12.3316V12.3337V12.3358V12.3379V12.3401V12.3422V12.3443V12.3464V12.3485V12.3507V12.3528V12.3549V12.357V12.3591V12.3612V12.3634V12.3655V12.3676V12.3697V12.3718V12.3739V12.376V12.3782V12.3803V12.3824V12.3845V12.3866V12.3887V12.3908V12.3929V12.395V12.3972V12.3993V12.4014V12.4035V12.4056V12.4077V12.4098V12.4119V12.414V12.4161V12.4182V12.4203V12.4224V12.4245V12.4266V12.4287V12.4308V12.4329V12.435V12.4371V12.4392V12.4413V12.4434V12.4455V12.4476V12.4497V12.4518V12.4539V12.456V12.458V12.4601V12.4622V12.4643V12.4664V12.4685V12.4706V12.4727V12.4748V12.4769V12.4789V12.481V12.4831V12.4852V12.4873V12.4894V12.4915V12.4935V12.4956V12.4977V12.4998V12.5019V12.504V12.506V12.5081V12.5102V12.5123V12.5144V12.5164V12.5185V12.5206V12.5227V12.5247V12.5268V12.5289V12.531V12.533V12.5351V12.5372V12.5393V12.5413V12.5434V12.5455V12.5476V12.5496V12.5517V12.5538V12.5558V12.5579V12.56V12.562V12.5641V12.5662V12.5682V12.5703V12.5724V12.5744V12.5765V12.5786V12.5806V12.5827V12.5848V12.5868V12.5889V12.5909V12.593V12.5951V12.5971V12.5992V12.6012V12.6033V12.6054V12.6074V12.6095V12.6115V12.6136V12.6157V12.6177V12.6198V12.6218V12.6239V12.6259V12.628V12.63V12.6321V12.6341V12.6362V12.6382V12.6403V12.6423V12.6444V12.6464V12.6485V12.6505V12.6526V12.6546V12.6567V12.6587V12.6608V12.6628V12.6649V12.6669V12.6689V12.671V12.673V12.6751V12.6771V12.6792V12.6812V12.6832V12.6853V12.6873V12.6894V12.6914V12.6934V12.6955V12.6975V12.6996V12.7016V12.7036V12.7057V12.7077V12.7097V12.7118V12.7138V12.7159V12.7179V12.7199V12.722V12.724V12.726V12.728V12.7301V12.7321V12.7341V12.7362V12.7382V12.7402V12.7423V12.7443V12.7463V12.7483V12.7504V12.7524V12.7544V12.7565V12.7585V12.7605V12.7625V12.7646V12.7666V12.7686V12.7706V12.7727V12.7747V12.7767V12.7787V12.7807V12.7828V12.7848V12.7868V12.7888V12.7908V12.7929V12.7949V12.7969V12.7989V12.8009V12.8029V12.805V12.807V12.809V12.811V12.813V12.815V12.8171V12.8191V12.8211V12.8231V12.8251V12.8271V12.8291V12.8311V12.8332V12.8352V12.8372V12.8392V12.8412V12.8432V12.8452V12.8472V12.8492V12.8512V12.8532V12.8553V12.8573V12.8593V12.8613V12.8633V12.8653V12.8673V12.8693V12.8713V12.8733V12.8753V12.8773V12.8793V12.8813V12.8833V12.8853V12.8873V12.8893V12.8913V12.8933V12.8953V12.8973V12.8993V12.9013V12.9033V12.9053V12.9073V12.9093L44.3164 18.9204L44.3164 18.9214C44.3204 19.3261 44.2883 19.7301 44.2207 20.1276L44.2207 20.1276L44.2205 20.1288C44.1834 20.3648 44.0896 20.584 43.9503 20.7632C43.8287 20.908 43.6767 21.0141 43.5097 21.0725L43.5096 21.0723L43.5041 21.0746C43.3044 21.158 43.0925 21.1974 42.88 21.1909L42.777 21.1877V21.2908V21.4767V21.5767H42.877H47.5369H47.6369V21.4767V21.2908V21.1949L47.541 21.1909C47.3217 21.1817 47.104 21.1423 46.8931 21.0734C46.7349 21.0034 46.5925 20.8924 46.4779 20.7483L46.478 20.7482L46.4748 20.7446C46.328 20.5774 46.2293 20.3629 46.1934 20.1292L46.1932 20.1281C46.1279 19.7309 46.1004 19.3269 46.1113 18.9231L46.1113 18.9231V18.9204V15.7667C46.4522 15.7691 46.7924 15.8047 47.1279 15.8733C47.3683 15.9257 47.6001 16.0201 47.8149 16.1535C48.0532 16.3181 48.2433 16.5601 48.3589 16.8495C48.5064 17.245 48.5979 17.6639 48.6299 18.0913L48.6368 18.1838H48.7296H48.9099H49.0099V18.0838V13.1572V13.0572H48.9099H48.7435H48.6509L48.6438 13.1495C48.6183 13.4789 48.5593 13.8039 48.4679 14.1181C48.3864 14.3489 48.2621 14.557 48.104 14.7287C47.6019 15.1937 46.9579 15.416 46.3126 15.3506L46.3127 15.3501H46.3026Z" fill="#0D0D0D" stroke="#0D0D0D" stroke-width="0.2"/>
<path d="M52.5931 17.8453H52.5324C52.5265 17.0316 52.7446 16.2355 53.1573 15.5654L53.1575 15.5655L53.1609 15.559C53.2966 15.2977 53.4872 15.0789 53.715 14.9212C53.9416 14.7643 54.1981 14.6723 54.4623 14.6524C54.7494 14.6553 55.0319 14.7405 55.2826 14.9009C55.5346 15.0621 55.7464 15.2941 55.8963 15.5755L55.8961 15.5756L55.8997 15.5813C56.1177 15.9312 56.2825 16.3196 56.3869 16.7305L56.3869 16.7305L56.3875 16.7325C56.5059 17.1601 56.5655 17.6054 56.5641 18.0532C56.5605 18.4956 56.5056 18.9355 56.4007 19.362C56.3021 19.7555 56.1467 20.128 55.9408 20.4649L55.9408 20.4649L55.94 20.4663C55.7819 20.7349 55.5744 20.9615 55.3323 21.1313C55.117 21.2705 54.8739 21.3444 54.6268 21.3466C54.3224 21.3356 54.0252 21.2345 53.7657 21.0523C53.5054 20.8696 53.2921 20.6118 53.1489 20.3044L53.1491 20.3043L53.1457 20.298C52.7551 19.5952 52.5611 18.777 52.5896 17.9487L52.5931 17.8453ZM51.8158 20.3943L51.8158 20.3943L51.8165 20.3952C52.1561 20.802 52.5676 21.1272 53.0259 21.3498C53.4842 21.5724 53.9791 21.6875 54.4798 21.6875C54.9805 21.6875 55.4754 21.5724 55.9337 21.3498C56.3918 21.1273 56.8032 20.8023 57.1427 20.3957C57.6946 19.751 58.0011 18.8954 58.0011 18.0072C58.0011 17.1193 57.6947 16.2639 57.1431 15.6193C56.8123 15.213 56.4084 14.8876 55.9571 14.6646C55.5054 14.4413 55.0163 14.3258 54.5214 14.3258C54.0265 14.3258 53.5375 14.4413 53.0857 14.6646C52.6346 14.8875 52.231 15.2126 51.9002 15.6186C51.3289 16.2647 51.0078 17.1326 51.0028 18.0366C50.9919 18.455 51.0549 18.8718 51.1884 19.2634L51.1886 19.264C51.3333 19.6802 51.5458 20.0634 51.8158 20.3943Z" fill="#0D0D0D" stroke="#0D0D0D" stroke-width="0.2"/>
<path d="M63.6934 21.6522L63.7124 21.7457L63.8067 21.7312L65.8176 21.4214L65.9024 21.4083V21.3225V21.1521V21.0515L65.8018 21.0521C65.6468 21.053 65.493 21.0152 65.3518 20.9408C65.2429 20.8766 65.1506 20.7787 65.0868 20.6568C65.0059 20.4987 64.9574 20.3218 64.9453 20.1391C64.9246 19.7559 64.9246 19.3717 64.9453 18.9885L64.9455 18.9885V18.9831V14.5522V14.4522H64.8455H62.6958H62.5958V14.5522V14.7382V14.8311L62.6884 14.8379C62.942 14.8566 63.1861 14.9596 63.3891 15.1356C63.4832 15.2367 63.5504 15.3671 63.5813 15.5117C63.6023 15.7722 63.6022 16.0343 63.5808 16.2947L63.5805 16.2947V16.3029V18.5029H63.5804L63.5805 18.5062C63.5953 18.9562 63.5725 19.4068 63.5122 19.852C63.4742 20.1012 63.3845 20.3363 63.2508 20.5385C63.1139 20.7376 62.9368 20.8957 62.7351 21.0002C62.5065 21.1051 62.2622 21.1594 62.0158 21.1605L62.0138 21.1606C61.7969 21.1659 61.5812 21.1169 61.3825 21.0167C61.2165 20.9293 61.0727 20.794 60.9664 20.6231C60.8661 20.4213 60.804 20.198 60.7845 19.9672C60.757 19.5438 60.757 19.1187 60.7846 18.6953L60.7848 18.6953V18.6888V14.5522V14.4522H60.6848H58.5352H58.4352V14.5522V14.7382V14.8311L58.5278 14.8379C58.7813 14.8566 59.0254 14.9596 59.2284 15.1356C59.3225 15.2367 59.3897 15.3671 59.4207 15.5117C59.4417 15.7722 59.4415 16.0343 59.4202 16.2947L59.4198 16.2947V16.3029V19.7397C59.4059 20.0162 59.4499 20.2927 59.5487 20.5474C59.6478 20.8029 59.7996 21.03 59.9926 21.2098L59.9924 21.2099L59.9975 21.2141C60.4403 21.5756 60.9818 21.7592 61.5328 21.7324C61.9513 21.736 62.3656 21.6439 62.7502 21.4621C63.0616 21.3149 63.348 21.1116 63.5981 20.8613C63.6088 21.1274 63.6407 21.3921 63.6934 21.6522Z" fill="#0D0D0D" stroke="#0D0D0D" stroke-width="0.2"/>
<path d="M71.3391 15.1861C71.3426 15.2681 71.3298 15.3501 71.3013 15.4264C71.2732 15.5018 71.2303 15.5702 71.1751 15.6264C71.1232 15.6905 71.0581 15.7414 70.9842 15.7744C70.9095 15.8078 70.8284 15.8217 70.7474 15.8145C70.6503 15.811 70.5554 15.7847 70.4688 15.7379C70.3819 15.6909 70.3056 15.6244 70.2446 15.5435L70.0243 15.2666C69.9515 15.1797 69.8641 15.1111 69.7679 15.0644C69.6715 15.0176 69.5681 14.9936 69.4639 14.9936C69.3236 14.9936 69.2022 15.0415 69.0935 15.1429C68.9826 15.2464 68.8823 15.4084 68.7953 15.6397C68.5864 16.2655 68.4939 16.9327 68.5236 17.6003L68.5238 17.6048H68.5237V19.7427V19.7533L68.5231 19.7533C68.4958 20.0114 68.4955 20.2723 68.5224 20.5305C68.5607 20.6757 68.632 20.8062 68.7282 20.9093C68.9309 21.0782 69.1699 21.1811 69.4192 21.2081L69.5084 21.2178V21.3075V21.4779V21.5779H69.4084H66.2324H66.1324V21.4779V21.3075V21.2126L66.2272 21.2076C66.4271 21.1971 66.6237 21.1438 66.8065 21.0503C66.9275 20.9719 67.0244 20.8504 67.0807 20.7023C67.1332 20.5251 67.1687 20.3421 67.1865 20.1563V20.1552V20.1538V20.1523V20.1508V20.1493V20.1479V20.1464V20.1449V20.1434V20.142V20.1405V20.139V20.1375V20.136V20.1345V20.133V20.1315V20.13V20.1285V20.127V20.1255V20.124V20.1224V20.1209V20.1194V20.1179V20.1164V20.1148V20.1133V20.1118V20.1102V20.1087V20.1071V20.1056V20.1041V20.1025V20.101V20.0994V20.0978V20.0963V20.0947V20.0932V20.0916V20.09V20.0885V20.0869V20.0853V20.0837V20.0821V20.0806V20.079V20.0774V20.0758V20.0742V20.0726V20.071V20.0694V20.0678V20.0662V20.0646V20.063V20.0614V20.0597V20.0581V20.0565V20.0549V20.0533V20.0516V20.05V20.0484V20.0467V20.0451V20.0434V20.0418V20.0401V20.0385V20.0368V20.0352V20.0335V20.0319V20.0302V20.0285V20.0269V20.0252V20.0235V20.0219V20.0202V20.0185V20.0168V20.0151V20.0135V20.0118V20.0101V20.0084V20.0067V20.005V20.0033V20.0016V19.9999V19.9982V19.9964V19.9947V19.993V19.9913V19.9896V19.9878V19.9861V19.9844V19.9826V19.9809V19.9792V19.9774V19.9757V19.9739V19.9722V19.9704V19.9687V19.9669V19.9652V19.9634V19.9616V19.9599V19.9581V19.9563V19.9546V19.9528V19.951V19.9492V19.9474V19.9456V19.9439V19.9421V19.9403V19.9385V19.9367V19.9349V19.9331V19.9313V19.9294V19.9276V19.9258V19.924V19.9222V19.9204V19.9185V19.9167V19.9149V19.913V19.9112V19.9094V19.9075V19.9057V19.9038V19.902V19.9001V19.8983V19.8964V19.8945V19.8927V19.8908V19.889V19.8871V19.8852V19.8833V19.8815V19.8796V19.8777V19.8758V19.8739V19.872V19.8701V19.8682V19.8663V19.8644V19.8625V19.8606V19.8587V19.8568V19.8549V19.853V19.8511V19.8491V19.8472V19.8453V19.8434V19.8414V19.8395V19.8375V19.8356V19.8337V19.8317V19.8298V19.8278V19.8259V19.8239V19.822V19.82V19.818V19.8161V19.8141V19.8121V19.8101V19.8082V19.8062V19.8042V19.8022V19.8002V19.7982V19.7962V19.7943V19.7923V19.7903V19.7883V19.7862V19.7842V19.7822V19.7802V19.7782V19.7762V19.7742V19.7721V19.7701V19.7681V19.766V19.764V19.762V19.7599V19.7579V19.7558V19.7538V19.7517V19.7497V19.7476V19.7456V19.7435V19.7414V19.7394V19.7373V19.7352V19.7332V19.7311V19.729V19.7269V19.7248V19.7227V19.7207V19.7186V19.7165V19.7144V19.7123V19.7102V19.7081V19.7059V19.7038V19.7017V19.6996V19.6975V19.6954V19.6932V19.6911V19.689V19.6868V19.6847V19.6826V19.6804V19.6783V19.6761V19.674V19.6718V19.6697V19.6675V19.6654V19.6632V19.661V19.6589V19.6567V19.6545V19.6524V19.6502V19.648V19.6458V19.6436V19.6414V19.6392V19.637V19.6348V19.6326V19.6304V19.6282V19.626V19.6238V19.6216V19.6194V19.6172V19.615V19.6127V19.6105V19.6083V19.606V19.6038V19.6016V19.5993V19.5971V19.5948V19.5926V19.5903V19.5881V19.5858V19.5836V19.5813V19.579V19.5768V19.5745V19.5722V19.57V19.5677V19.5654V19.5631V19.5608V19.5585V19.5562V19.554V19.5517V19.5494V19.5471V19.5447V19.5424V19.5401V19.5378V19.5355V19.5332V19.5309V19.5285V19.5262V19.5239V19.5215V19.5192V19.5169V19.5145V19.5122V19.5098V19.5075V19.5051V19.5028V19.5004V19.4981V19.4957V19.4933V19.491V19.4886V19.4862V19.4839V19.4815V19.4791V19.4767V19.4743V19.4719V19.4695V19.4671V19.4648V19.4624V19.4599V19.4575V19.4551V19.4527V19.4503V19.4479V19.4455V19.443V19.4406V19.4382V19.4358V19.4333V19.4309V19.4285V19.426V19.4236V19.4211V19.4187V19.4162V19.4138V19.4113V19.4088V19.4064V19.4039V19.4014V19.399V19.3965V19.394V19.3915V19.3891V19.3866V19.3841V19.3816V19.3791V19.3766V19.3741V19.3716V19.3691V19.3666V19.3641V19.3616V19.3591V19.3565V19.354V19.3515V19.349V19.3464V19.3439V19.3414V19.3388V19.3363V19.3337V19.3312V19.3286V19.3261V19.3235V19.321V19.3184V19.3159V19.3133V19.3107V19.3082V19.3056V19.303V19.3004V19.2978V19.2953V19.2927V19.2901V19.2875V19.2849V19.2823V19.2797V19.2771V19.2745V19.2719V19.2693V19.2666V19.264V19.2614V19.2588V19.2561V19.2535V19.2509V19.2482V19.2456V19.243V19.2403V19.2377V19.235V19.2324V19.2297V19.2271V19.2244V19.2217V19.2191V19.2164V19.2137V19.2111V19.2084V19.2057V19.203V19.2003V19.1976V19.195V19.1923V19.1896V19.1869V19.1842V19.1815V19.1787V19.176V19.1733V19.1706V19.1679V19.1652V19.1624V19.1597V19.157V19.1542V19.1515V19.1488V19.146V19.1433V19.1405V19.1378V19.135V19.1323V19.1295V19.1268V19.124V19.1212V19.1185V19.1157V19.1129V19.1101V19.1073V19.1046V19.1018V19.099V19.0962V19.0934V19.0906V19.0878V19.085V19.0822V19.0794V19.0766V17.078V17.0727L67.1866 17.0727C67.2072 16.6841 67.2072 16.2945 67.1866 15.9059L67.1865 15.9037L67.1865 15.9037C67.1809 15.7269 67.1325 15.5557 67.0473 15.4084L67.0445 15.4035L67.0446 15.4034C66.9812 15.2779 66.8895 15.1753 66.7803 15.1052C66.6358 15.037 66.4818 14.9993 66.3258 14.9935L66.2295 14.9899V14.8936V14.7231V14.6375L66.3141 14.6243L68.2002 14.33L68.2976 14.3148L68.3142 14.4119C68.3656 14.7124 68.3994 15.0162 68.4157 15.3213C68.5369 15.1381 68.6809 14.9737 68.8438 14.8333L68.8478 14.8299L68.8479 14.83C69.2707 14.5025 69.7748 14.3269 70.292 14.3288C70.5788 14.3051 70.8614 14.4036 71.0831 14.6015C71.1647 14.6718 71.2298 14.7616 71.2739 14.8632C71.3177 14.9642 71.3399 15.0747 71.3391 15.1861ZM71.3391 15.1861C71.3391 15.1871 71.3391 15.188 71.3391 15.189L71.2391 15.1879L71.3389 15.1831C71.339 15.1841 71.339 15.1851 71.3391 15.1861Z" fill="#0D0D0D" stroke="#0D0D0D" stroke-width="0.2"/>
<path d="M80.4849 20.0615C80.8004 20.4827 81.1573 20.8636 81.5492 21.1968C81.7957 21.4066 82.0722 21.5695 82.3676 21.6784C82.6439 21.7963 82.9378 21.8566 83.2342 21.8558C83.628 21.8756 84.0136 21.7374 84.3215 21.4689C84.6298 21.2 84.8398 20.8185 84.9161 20.3947L84.9373 20.277H84.8177H84.6651H84.5915L84.5696 20.3473C84.4987 20.5754 84.3784 20.7792 84.2206 20.9408C84.0928 21.0612 83.9314 21.1217 83.7686 21.1137L83.7686 21.1137L83.7655 21.1136C83.5748 21.1102 83.3879 21.0474 83.2256 20.9309L83.2257 20.9308L83.2218 20.9283C82.968 20.7635 82.7321 20.5659 82.5189 20.3394L82.519 20.3394L82.5173 20.3377C82.28 20.0976 82.0557 19.8418 81.8454 19.5719L81.8455 19.5719L81.8444 19.5706C81.6116 19.2816 81.415 19.0058 81.2309 18.7421C81.4542 18.2996 81.6264 17.9287 81.7475 17.6432C81.7476 17.6431 81.7476 17.643 81.7477 17.6428L81.9692 17.1324L81.9694 17.1324L81.9714 17.1268C82.1896 16.5291 82.4925 15.975 82.868 15.4857C82.9774 15.378 83.1018 15.2923 83.2358 15.2318C83.4027 15.158 83.5785 15.1138 83.7571 15.1008L83.8498 15.094V15.001V14.8461V14.7461H83.7498H80.976H80.876V14.8461V15.0165V15.1018L80.9603 15.1153C81.2897 15.1679 81.5209 15.2673 81.6689 15.4053C81.8132 15.5399 81.888 15.7203 81.8884 15.9594C81.8737 16.2844 81.8056 16.6035 81.6876 16.9005C81.4977 17.3726 81.2892 17.835 81.0627 18.2864L78.7651 14.7281L79.2875 14.3073C79.6734 14.0532 80.0109 13.7186 80.2819 13.3223L80.2821 13.3224L80.2852 13.3171C80.4945 12.9664 80.6053 12.5552 80.6045 12.1355C80.6084 11.8519 80.554 11.5707 80.4452 11.3135C80.3364 11.0563 80.1759 10.8295 79.9752 10.6509C79.5408 10.2527 78.9891 10.0441 78.4237 10.0673C77.9881 10.0532 77.5579 10.1712 77.1789 10.4076C76.8228 10.6254 76.5457 10.9702 76.3902 11.3836C76.2514 11.6832 76.1776 12.0144 76.1745 12.3509L76.1744 12.3509L76.1746 12.3553C76.196 12.9721 76.3466 13.5751 76.6148 14.1159L80.4849 20.0615ZM80.4849 20.0615C80.3429 20.2927 80.191 20.5163 80.0297 20.7313L80.0286 20.7329L80.0286 20.7328C79.749 21.0912 79.4008 21.3764 79.0088 21.5669L79.0085 21.567C78.6099 21.7592 78.1796 21.8576 77.7446 21.8558C77.3407 21.8575 76.9409 21.7703 76.5678 21.5998C76.2088 21.4548 75.887 21.2164 75.629 20.9056L75.6289 20.9056C75.1742 20.3567 74.9327 19.632 74.954 18.8885C74.9503 18.1055 75.1748 17.3414 75.595 16.7117L75.5959 16.7102L75.5959 16.7102C75.7764 16.4499 75.9807 16.211 76.2057 15.9975L76.2074 15.9958L76.2074 15.9958C76.5157 15.7172 76.837 15.457 77.17 15.2164L77.2111 15.182L80.4849 20.0615ZM76.9263 20.4544C77.1065 20.6994 77.3341 20.8954 77.592 21.0277C77.848 21.162 78.1275 21.2308 78.4103 21.2291C78.8526 21.234 79.2832 21.07 79.6307 20.7643M76.9263 20.4544L77.0079 20.3966C77.0077 20.3963 77.0076 20.3961 77.0074 20.3959M76.9263 20.4544L77.0069 20.3952C77.0071 20.3954 77.0072 20.3957 77.0074 20.3959M76.9263 20.4544C76.7164 20.1588 76.5566 19.8227 76.4548 19.4629C76.3388 19.073 76.278 18.6653 76.2745 18.2545M77.0074 20.3959C77.1787 20.6287 77.3945 20.814 77.6377 20.9387L77.6385 20.9391C77.8803 21.066 78.1437 21.1307 78.4097 21.1291L78.4114 21.1291C78.8269 21.1337 79.2329 20.9801 79.5624 20.6912M77.0074 20.3959C76.8045 20.11 76.6497 19.7846 76.551 19.4357L76.551 19.4357L76.5506 19.4344C76.4374 19.0537 76.3779 18.6555 76.3745 18.2541M79.5624 20.6912C79.5617 20.692 79.5609 20.6927 79.5602 20.6934L79.6307 20.7643M79.5624 20.6912C79.5632 20.6906 79.5639 20.6899 79.5647 20.6892L79.6307 20.7643M79.5624 20.6912C79.6846 20.5695 79.8005 20.4401 79.9096 20.3035M79.6307 20.7643C79.7578 20.6379 79.8782 20.5034 79.9913 20.3615M79.9913 20.3615L79.9066 20.3084C79.9076 20.3068 79.9086 20.3052 79.9096 20.3035M79.9913 20.3615C80.0007 20.3466 80.0104 20.3311 80.0205 20.315C80.1152 20.1642 80.2418 19.9628 80.3797 19.7108M79.9913 20.3615L79.9132 20.2991C79.912 20.3006 79.9108 20.3021 79.9096 20.3035M79.9096 20.3035C79.9181 20.2901 79.9268 20.2762 79.9358 20.2619C80.0238 20.1218 80.1379 19.9401 80.263 19.7152M80.3797 19.7108L80.296 19.7656L80.263 19.7152M80.3797 19.7108L77.633 15.5185C77.6056 15.5375 77.5785 15.5571 77.5519 15.5772M80.3797 19.7108L80.2919 19.6628C80.2822 19.6805 80.2726 19.698 80.263 19.7152M80.263 19.7152L77.5519 15.5772M77.5519 15.5772C77.2004 15.8428 76.9153 16.2076 76.7266 16.637L76.7259 16.6387L76.7259 16.6387C76.4956 17.1378 76.375 17.6916 76.3745 18.2541M77.5519 15.5772L77.497 15.4934C77.1286 15.7702 76.8312 16.1505 76.6351 16.5968C76.3986 17.1094 76.2749 17.6777 76.2745 18.2545M76.3745 18.2541C76.3745 18.2543 76.3745 18.2544 76.3745 18.2546L76.2745 18.2545M76.3745 18.2541C76.3745 18.254 76.3745 18.2538 76.3745 18.2536L76.2745 18.2545M79.4615 12.1606L79.4614 12.1606L79.4614 12.1664C79.4635 12.6023 79.3808 13.0332 79.2193 13.4292C79.1419 13.616 79.0436 13.7907 78.9269 13.9492C78.8004 14.112 78.6622 14.2627 78.5136 14.3997C78.2738 14.0322 78.0462 13.6774 77.8303 13.3228C77.6511 13.0207 77.4913 12.7046 77.3522 12.377C77.2755 12.1675 77.2354 11.9431 77.2344 11.7162L77.2343 11.7139C77.2255 11.3833 77.332 11.0635 77.529 10.8216C77.6275 10.7147 77.7435 10.6316 77.8699 10.5766C77.9971 10.5212 78.1325 10.4951 78.2683 10.4997L78.2683 10.5L78.276 10.4996C78.4382 10.4925 78.6001 10.528 78.7489 10.6037C78.8973 10.6793 79.0289 10.7931 79.1325 10.9371C79.3675 11.2875 79.4846 11.721 79.4615 12.1606Z" fill="#0D0D0D" stroke="#0D0D0D" stroke-width="0.2"/>
<path d="M98.2027 10.3043L98.2014 10.2472L98.1515 10.2193L98.0128 10.1418L97.9056 10.0819L97.8687 10.1991C97.8417 10.2847 97.8036 10.365 97.7558 10.4374L97.7557 10.4374L97.7537 10.4408C97.7297 10.4804 97.698 10.5116 97.6624 10.5324C97.6268 10.5532 97.588 10.5634 97.5493 10.5629L97.5388 10.5628L97.5286 10.5648C97.4429 10.5818 97.3554 10.5823 97.2696 10.5662L96.6818 10.3525C96.0691 10.1129 95.4255 9.98517 94.7759 9.97423V9.97422L94.7743 9.97422C94.1301 9.97391 93.4904 10.0913 92.8805 10.3215L92.8805 10.3215L92.8787 10.3222C92.3103 10.5493 91.7803 10.8802 91.31 11.3008C90.6901 11.8481 90.2042 12.5597 89.896 13.3696L89.8958 13.3701C89.5647 14.2543 89.3975 15.204 89.4041 16.1619C89.3738 17.3627 89.668 18.5465 90.2495 19.559L90.2496 19.5592C90.7964 20.5069 91.624 21.2141 92.5913 21.5556L92.5915 21.5557C93.2256 21.7776 93.8866 21.8893 94.5514 21.8866C95.2145 21.9016 95.8735 21.7724 96.4919 21.5067L96.4919 21.5067L96.493 21.5062C97.0268 21.2687 97.4882 20.8689 97.8258 20.3542L97.8259 20.3542L97.828 20.3507C98.2006 19.7273 98.4204 19.0067 98.4661 18.2604L98.4726 18.1543H98.3663H98.1998H98.1125L98.1007 18.2409C98.0144 18.8775 97.8112 19.4868 97.5042 20.0304C97.2527 20.4139 96.9123 20.7109 96.5216 20.8901L96.5206 20.8906C96.0606 21.1076 95.5657 21.215 95.0672 21.2064L95.0672 21.2062L95.0616 21.2064C94.5747 21.2255 94.0898 21.1239 93.6414 20.9085C93.1933 20.6933 92.7924 20.3694 92.468 19.9594C92.0968 19.4667 91.8194 18.8937 91.6534 18.2755C91.4649 17.5334 91.3726 16.7648 91.3793 15.9933L91.3793 15.9909C91.3658 15.0823 91.5052 14.1791 91.7902 13.3284L91.7902 13.3285L91.7906 13.3271C91.9651 12.7798 92.2136 12.266 92.5271 11.8035L92.5272 11.8034C92.7924 11.4103 93.1219 11.078 93.4976 10.8241C93.9043 10.5669 94.3633 10.434 94.8289 10.4376L94.8289 10.4376L94.832 10.4376C95.1536 10.4301 95.4736 10.4954 95.7727 10.6299C96.074 10.7711 96.3503 10.9734 96.5873 11.227L96.5873 11.227L96.5884 11.2281C96.9219 11.5744 97.1931 11.99 97.3864 12.4522L97.3865 12.4524C97.4957 12.7117 97.6333 13.0957 97.7994 13.6212L97.7993 13.6212L97.8003 13.6241L97.9252 13.9804L97.9486 14.0474H98.0195H98.186H98.2883L98.2859 13.9451L98.2027 10.3043Z" fill="#0D0D0D" stroke="#0D0D0D" stroke-width="0.2"/>
<path d="M99.1131 18.0375C99.1087 18.4545 99.1713 18.8692 99.2982 19.2619L99.2982 19.2619L99.2989 19.264C99.4436 19.68 99.6561 20.0632 99.9259 20.3941M99.1131 18.0375C99.1151 17.5874 99.1966 17.142 99.3532 16.7267C99.5094 16.3121 99.7375 15.9354 100.025 15.6182C100.354 15.2128 100.757 14.888 101.206 14.6654C101.657 14.4423 102.145 14.3268 102.639 14.3268C103.133 14.3268 103.621 14.4423 104.071 14.6654C104.521 14.8883 104.924 15.2134 105.254 15.6193C105.805 16.2639 106.111 17.1194 106.111 18.0072C106.111 18.8949 105.805 19.7501 105.254 20.3947C104.923 20.8121 104.514 21.1445 104.055 21.3679C103.596 21.5913 103.098 21.7 102.597 21.6861C102.094 21.698 101.595 21.5885 101.134 21.3655C100.672 21.1422 100.26 20.8106 99.9259 20.3941M99.1131 18.0375C99.1131 18.0374 99.1131 18.0373 99.1131 18.0371L99.2131 18.0382L99.1131 18.0378C99.1131 18.0377 99.1131 18.0376 99.1131 18.0375ZM99.9259 20.3941C99.9258 20.394 99.9257 20.3938 99.9257 20.3937L100.004 20.3311M99.9259 20.3941C99.926 20.3942 99.9261 20.3942 99.9261 20.3943L100.004 20.3311M100.004 20.3311C99.7413 20.0096 99.5344 19.6367 99.3934 19.2312L105.177 20.3311C104.855 20.738 104.457 21.0612 104.011 21.278C103.566 21.4948 103.083 21.6 102.597 21.586C102.109 21.598 101.625 21.4921 101.177 21.2755C100.73 21.0589 100.329 20.7368 100.004 20.3311ZM100.703 17.8453H100.645C100.655 17.0261 100.892 16.2304 101.322 15.5673L101.322 15.5676L101.327 15.559C101.462 15.2977 101.653 15.0789 101.881 14.9212C102.107 14.7646 102.363 14.6727 102.626 14.6525C102.904 14.6654 103.175 14.7551 103.416 14.9148C103.658 15.0756 103.861 15.3024 104.007 15.5754L104.006 15.5755L104.01 15.5813C104.228 15.9312 104.393 16.3196 104.497 16.7305L104.497 16.7305L104.498 16.7335C104.621 17.16 104.685 17.6049 104.688 18.0531C104.68 18.4959 104.62 18.9356 104.511 19.3613L104.511 19.3613L104.51 19.3643C104.422 19.7583 104.271 20.131 104.065 20.4645L104.065 20.4649C103.903 20.7304 103.696 20.9567 103.456 21.1314C103.236 21.2705 102.989 21.3442 102.737 21.3466C102.433 21.3341 102.137 21.2323 101.877 21.0502C101.617 20.8676 101.403 20.6105 101.259 20.304L101.259 20.3039L101.256 20.2988C100.872 19.5925 100.678 18.7759 100.7 17.9479L100.703 17.8453Z" fill="#0D0D0D" stroke="#0D0D0D" stroke-width="0.2"/>
<path d="M5.75195 24.4449H5.65195V24.5449V24.9477V25.0477H5.75195H13.6017H13.7017V24.9477V24.5449V24.4449H13.6017H11.1914V7.78894H13.5462H13.6462V7.68894V7.28613V7.18613H13.5462H5.75195H5.65195V7.28613V7.68894V7.78894H5.75195H8.21768V24.4449H5.75195Z" fill="#0D0D0D" stroke="#0D0D0D" stroke-width="0.2"/>
<path d="M11.4922 7.18613H11.3922V7.28613V7.68894V7.78894H11.4922H13.3962L20.9701 25.0963L20.9963 25.1562H21.0617H21.4916H21.5612L21.5854 25.0909L27.4514 9.27412C27.6778 8.70731 27.9093 8.33858 28.1832 8.11049C28.4535 7.8853 28.7754 7.78894 29.2027 7.78894H29.7574H29.8574V7.68894V7.28613V7.18613H29.7574H24.5427H24.4427V7.28613V7.71993V7.81993H24.5427H25.3887C26.0232 7.81993 26.4619 7.9655 26.6994 8.2048C26.9289 8.436 26.9919 8.77798 26.8207 9.23404L26.8206 9.23419L22.3862 21.1017L16.6096 7.78894H18.6346H18.7346V7.68894V7.28613V7.18613H18.6346H11.4922Z" fill="#0D0D0D" stroke="#0D0D0D" stroke-width="0.2"/>
<path d="M35.8768 5.3335V5.2335H35.7768H35.125H35.025V5.3335V26.6668V26.7668H35.125H35.7768H35.8768V26.6668V5.3335Z" fill="#0D0D0D" stroke="#0D0D0D" stroke-width="0.2"/>
</svg>
