<svg width="24" height="24" viewBox="0 0 24 24" fill="none" xmlns="http://www.w3.org/2000/svg">
<path d="M18.8212 6.1586V6.15869L18.8345 6.15851C19.1203 6.1547 19.404 6.2077 19.6691 6.31443C19.9342 6.42116 20.1755 6.57949 20.3789 6.78024C20.5823 6.98099 20.7439 7.22015 20.8541 7.48383C20.9643 7.74752 21.0211 8.03048 21.021 8.31627V8.31636L21.021 20.9474L21.0211 20.9509C21.0211 20.9612 21.0181 20.9712 21.0125 20.9798L21.8501 21.5261L21.0125 20.9798C21.0088 20.9855 21.0041 20.9903 20.9986 20.9942C20.9881 20.9971 20.9774 20.999 20.9665 20.9997C20.9552 20.9985 20.9445 20.9936 20.9362 20.9858L20.931 20.981L20.9257 20.9762L17.768 18.1026L17.4818 17.8422H17.0949H8.2953C7.72303 17.8422 7.17419 17.6149 6.76953 17.2102C6.36488 16.8056 6.13754 16.2567 6.13754 15.6845V14.6319C6.13754 14.6179 6.14308 14.6046 6.15294 14.5947C6.16281 14.5848 6.17618 14.5793 6.19013 14.5793C6.20407 14.5793 6.21745 14.5848 6.22731 14.5947C6.23717 14.6046 6.24272 14.6179 6.24272 14.6319V15.6845C6.24272 16.2289 6.45897 16.7509 6.8439 17.1359L7.55101 16.4288L6.8439 17.1359C7.22884 17.5208 7.75093 17.7371 8.2953 17.7371H17.5026C17.5157 17.7373 17.5282 17.7423 17.5378 17.7513L17.5377 17.7513L17.5427 17.7559L19.1953 19.2821L20.8738 20.8323V18.5475V8.31636C20.8738 7.77198 20.6575 7.2499 20.2726 6.86496L19.5655 7.57207L20.2726 6.86496C19.8876 6.48003 19.3656 6.26377 18.8212 6.26377H14.6108C14.5969 6.26377 14.5835 6.25823 14.5736 6.24837C14.5638 6.23851 14.5582 6.22513 14.5582 6.21118C14.5582 6.19724 14.5638 6.18386 14.5736 6.174C14.5835 6.16414 14.5969 6.1586 14.6108 6.1586H18.8212ZM8.9058 11.5267V11.5267L8.90002 11.5267C8.8931 11.5268 8.88624 11.5254 8.87983 11.5228C8.87365 11.5203 8.86801 11.5166 8.86321 11.512C8.86303 11.5118 8.86286 11.5116 8.86268 11.5115L2.99423 5.64302C2.99411 5.64289 2.99398 5.64276 2.99386 5.64264C2.9843 5.63282 2.97894 5.61966 2.97894 5.60595C2.97894 5.59224 2.9843 5.57908 2.99385 5.56926L5.54821 3.01491C5.55802 3.00535 5.57118 3 5.58489 3C5.5986 3 5.61176 3.00536 5.62158 3.01491C5.62171 3.01504 5.62184 3.01516 5.62196 3.01529L11.4904 8.88374C11.4906 8.88391 11.4908 8.88409 11.4909 8.88427C11.4956 8.88907 11.4992 8.89471 11.5018 8.90089C11.5044 8.9073 11.5057 8.91416 11.5057 8.92108L11.5057 8.92108V8.92686V11.4741C11.5057 11.4881 11.5001 11.5014 11.4903 11.5113C11.4804 11.5212 11.467 11.5267 11.4531 11.5267H8.9058ZM12.5057 11.4741V8.92686L8.15847 12.2215C8.25682 12.319 8.37346 12.3962 8.50171 12.4486C8.62995 12.501 8.76728 12.5275 8.9058 12.5267H11.4531C11.7322 12.5267 12 12.4158 12.1974 12.2184C12.3948 12.021 12.5057 11.7533 12.5057 11.4741ZM6.28673 3.83046L5.57963 3.12336L4.87252 3.83046L3.80941 4.89358L3.10075 5.60223L3.81095 6.30933L8.64233 11.1197L8.93496 11.411H9.34789H10.4005H11.4005V10.411V9.35842V8.94421L11.1076 8.65131L6.28673 3.83046Z" stroke="#5B3F91" stroke-width="2"/>
</svg>
