<svg width="532" height="266" viewBox="0 0 532 266" fill="none" xmlns="http://www.w3.org/2000/svg">
<path d="M123.697 24.4027C123.506 22.9169 123.119 21.4618 122.546 20.0739C122.473 19.8114 122.345 19.5668 122.171 19.3555C121.996 19.1443 121.779 18.9711 121.533 18.847C121.203 18.7628 120.858 18.759 120.527 18.8359L115.363 19.6124C114.931 19.6318 114.517 19.7898 114.185 20.0623C113.512 20.7574 114.175 21.8767 114.154 22.8357C114.131 23.914 113.156 24.7893 112.099 25.0789C111.02 25.2932 109.906 25.2796 108.833 25.0391L101.612 23.9364C103.739 23.2692 105.632 22.0279 107.075 20.3541C108.025 19.2479 108.531 17.1826 107.157 16.6587C106.749 16.5487 106.324 16.5151 105.903 16.5597C102.632 16.5847 100.057 13.9005 96.9948 12.7699C95.0347 12.0931 92.907 12.0428 90.916 12.6261C88.925 13.2094 87.1727 14.3964 85.9096 16.0175L89.756 16.1998C90.1179 16.1801 90.4767 16.2742 90.7806 16.4683C91.6236 17.1489 90.5755 18.4563 90.6943 19.5221C90.8486 20.9069 92.7195 21.2025 94.1297 21.3425C95.54 21.4826 97.3291 22.6086 96.6508 23.8317C89.5625 26.2311 82.3494 19.1414 74.9053 20.0142C73.0212 20.235 71.2421 20.9624 69.4026 21.4198C58.1658 24.2138 46.5489 16.7591 35.0698 18.3378C32.5179 18.7654 30.0098 19.4155 27.5753 20.2804C26.0129 20.7845 24.3833 21.3293 23.2482 22.4984C22.113 23.6676 21.681 25.6671 22.7564 26.8896C19.7923 27.1295 16.8084 26.8507 13.9434 26.0663C14.7182 26.4896 15.3627 27.11 15.8093 27.8624C16.256 28.6148 16.4883 29.4716 16.4818 30.3427C11.8538 31.0843 7.34826 32.4344 3.08649 34.3566C3.8819 35.6565 4.81094 36.8728 5.859 37.9862L0 41.6854C1.97945 42.1755 3.00287 44.8281 1.85175 46.4848C3.90422 45.5875 5.17624 43.2662 7.37101 42.7955C8.80888 42.4872 10.2719 43.0652 11.636 43.6083C13 44.1513 14.4992 44.6778 15.9113 44.2703C17.3233 43.8627 18.3649 42.0634 17.4676 40.9169C23.5031 39.1864 29.7407 38.2286 36.0258 38.0675C36.5107 38.0077 37.0024 38.0994 37.4313 38.3297C38.2495 38.8875 38.0342 40.0924 37.9901 41.07C37.9461 42.0476 38.7214 43.3325 39.6105 42.8919C38.5645 43.7833 39.4587 45.4614 40.4623 46.3988C41.4658 47.3362 42.6754 48.6296 42.061 49.849C41.9006 50.1672 41.6287 50.4219 41.4744 50.743C41.019 51.6909 41.742 52.796 42.5949 53.4254C43.4478 54.0549 44.4926 54.4948 45.085 55.3665C45.6775 56.2382 45.4084 57.7639 44.349 57.8856L41.3378 54.1283C40.309 55.1767 39.6036 56.4902 39.3036 57.9166C42.4968 60.4819 42.9771 65.7034 40.3038 68.7899C38.9377 70.3672 36.9949 71.3256 35.2993 72.5559C33.6038 73.7862 32.0348 75.538 32.0391 77.6093C32.0464 81.1878 31.7489 84.5123 33.1134 87.8301C35.6295 93.9476 38.5344 99.9037 41.811 105.663C42.6714 107.175 43.7835 108.833 45.5266 109.093C43.3236 103.823 41.3406 98.4706 39.5774 93.0363C40.7258 93.0407 42.0529 93.1303 42.7262 94.0447C43.2836 94.8018 43.1639 95.8312 43.3371 96.7502C43.5574 97.6405 43.9248 98.4893 44.4246 99.2627L54.9442 117.678C55.8162 119.205 56.8165 120.843 58.4832 121.461C59.5487 121.857 60.7816 121.782 61.7624 122.351C62.5311 122.797 63.0489 123.589 63.8326 124.009C66.0486 125.197 69.1302 122.919 71.2011 124.337C71.7932 124.743 72.1699 125.387 72.7155 125.851C74.6282 127.479 77.7657 126.39 79.9737 127.605C81.3967 128.387 82.1342 129.952 82.8932 131.371C84.7944 134.923 87.8706 138.404 91.9451 138.687C93.2249 138.776 94.5323 138.537 95.7833 138.817C97.0344 139.097 98.2659 140.17 98.0651 141.415C97.7208 143.55 98.7942 145.888 98.506 148.031C97.9808 151.935 92.3466 153.65 91.8626 157.559C91.7567 158.415 91.9225 159.298 91.7151 160.136C91.461 161.163 90.6764 161.999 90.3976 163.019C89.8693 164.953 91.2791 166.878 92.828 168.179C94.3768 169.48 96.2243 170.602 97.0711 172.423C97.9661 174.349 97.5265 176.593 97.8176 178.69C98.453 183.269 102.477 186.663 106.618 188.851C107.879 189.518 109.234 190.163 110.051 191.32C111.117 192.83 111.01 194.82 111.366 196.624C112.238 201.042 116.022 204.682 116.13 209.181C116.206 212.378 114.397 215.279 113.317 218.296C112.304 221.187 111.937 224.258 112.242 227.301C112.547 230.344 113.516 233.286 115.083 235.927C115.892 237.268 116.858 238.533 117.43 239.987C118.45 242.581 118.119 245.531 119.06 248.154C120.304 251.623 123.721 254.488 123.394 258.151C124.946 261.318 128.372 262.874 131.817 263.816L137.991 265.505C139.174 265.829 140.409 266.155 141.613 265.92C142.817 265.686 143.966 264.704 143.935 263.498C140.907 262.827 137.782 262.114 135.286 260.3C132.79 258.487 131.08 255.258 132.027 252.353C132.466 251.006 133.4 249.451 132.512 248.338C132.004 247.7 131.074 247.534 130.5 246.952C129.605 246.046 129.913 244.522 130.556 243.428C131.199 242.335 132.129 241.358 132.388 240.12C132.519 239.428 132.432 238.713 132.138 238.072C131.843 237.43 131.356 236.892 130.742 236.529C131.887 236.105 132.928 235.448 133.798 234.602C134.602 233.7 134.973 232.31 134.341 231.284C136.218 231.518 138.435 231.633 139.667 230.222C140.652 229.095 140.584 227.41 140.195 225.974C139.806 224.539 139.149 223.145 139.128 221.66C143.459 221.862 147.8 221.717 152.107 221.228C151.484 219.166 150.069 217.424 148.161 216.371C150.112 216.047 151.889 213.752 152.505 211.904C153.121 210.057 152.964 208.044 152.583 206.136C152.437 205.645 152.417 205.126 152.525 204.625C152.745 203.937 153.432 203.518 154.069 203.158L163.751 197.694C164.329 197.409 164.853 197.029 165.299 196.57C166.314 195.399 166.164 193.632 165.644 192.181C165.125 190.73 164.293 189.366 164.093 187.841C163.494 183.279 168.463 180.006 170.14 175.712C170.798 174.027 170.932 172.195 171.06 170.394C171.196 168.46 171.207 166.214 169.696 164.968C168.247 163.773 165.984 164.039 164.468 162.928C163.079 161.909 162.599 159.931 161.081 159.108C159.703 158.36 157.974 158.836 156.441 158.484C153.741 157.865 152.042 154.808 149.285 154.524C147.73 154.365 145.969 155.112 144.694 154.222C143.571 153.437 143.526 151.86 143.312 150.522C142.937 148.443 141.923 146.526 140.406 145.031C138.889 143.535 136.942 142.532 134.827 142.157C133.223 141.904 131.477 142 130.113 141.134C128.731 140.257 128.098 138.615 127.012 137.4C125.263 135.442 122.508 134.747 119.928 134.151L109.431 131.725C107.567 131.295 105.165 131.067 104.165 132.671C103.869 133.282 103.66 133.929 103.542 134.596C103.168 135.802 102.414 136.86 101.389 137.618C100.364 138.376 99.1204 138.796 97.8376 138.816C96.9579 137.341 95.5326 136.257 93.8592 135.791C92.7948 135.499 91.6555 135.467 90.6403 135.038C90.0874 134.773 89.5955 134.399 89.1945 133.941C88.7935 133.482 88.4919 132.948 88.3083 132.371C88.1246 131.794 88.0627 131.186 88.1264 130.585C88.19 129.984 88.3778 129.401 88.6784 128.874C89.2836 127.815 89.5173 126.59 89.3435 125.387C89.1697 124.185 88.598 123.072 87.7166 122.221C85.9315 120.646 83.3492 120.265 80.9556 120.423C80.3287 119.078 81.3769 117.562 82.5065 116.585C83.636 115.608 85.0077 114.647 85.2536 113.188C85.6406 110.894 82.6612 109.151 80.399 109.835C78.1368 110.519 76.6929 112.679 75.7385 114.807C75.1909 116.028 74.7253 117.314 73.8615 118.344C72.9977 119.374 71.6066 120.111 70.2909 119.781C68.4282 119.313 67.7088 117.138 67.2965 115.293C66.7434 112.817 66.187 110.306 66.3029 107.774C66.4188 105.241 67.2876 102.641 69.1877 100.927C72.2842 98.1331 77.0343 98.4069 81.2132 98.8526C80.2259 97.7594 80.4699 95.917 81.5263 94.888C82.0839 94.4011 82.754 94.0552 83.4784 93.8803C84.2028 93.7054 84.9597 93.7068 85.6834 93.8844C86.9427 94.142 88.0771 94.8085 88.904 95.7767C90.0915 97.1996 90.4292 99.1207 91.3268 100.736C92.2244 102.351 94.2427 103.728 95.8947 102.862C97.3216 102.113 97.5481 100.169 97.193 98.6183C96.8378 97.0676 96.0836 95.5597 96.2122 93.9752C96.4577 90.9519 99.6467 89.132 102.461 87.8869C105.275 86.6418 108.497 84.9672 108.943 81.9661C108.958 81.3785 109.071 80.7973 109.277 80.2454C109.589 79.758 110.023 79.3571 110.537 79.081C118.75 73.7469 127.1 68.3477 136.487 65.433C136.975 65.2814 137.033 65.4499 137.53 65.3311C138.227 64.9354 137.765 63.8409 137.098 63.4C136.43 62.9591 135.537 62.621 135.368 61.848C135.243 61.2799 135.584 60.722 135.672 60.1473C135.89 58.7351 134.171 57.4313 132.836 57.9959C132.082 57.0145 133.574 55.8741 134.78 55.5477C138.403 54.5679 142.122 53.9709 145.873 53.7668C146.306 53.6992 146.75 53.7733 147.136 53.9778C147.766 54.4068 147.685 55.3906 147.239 56.0029C146.792 56.6152 146.098 56.9996 145.541 57.5177C144.933 58.0998 144.499 58.8348 144.287 59.6426C144.075 60.4503 144.093 61.2998 144.339 62.0983C146.298 63.0773 148.427 64.0852 150.596 63.7403C152.765 63.3954 154.691 61.0001 153.671 59.0872C152.722 57.3058 149.869 56.904 149.379 54.9516C148.805 52.6657 152.097 50.6326 151.356 48.3938C151.031 47.4131 150.036 46.8359 149.273 46.1279C148.372 45.2598 147.759 44.1442 147.515 42.9274C147.27 41.7107 147.406 40.4499 147.904 39.3104C146.661 39.5253 145.384 39.4441 144.179 39.0737C142.975 38.7033 141.878 38.0544 140.982 37.1815C139.326 35.5393 138.005 32.9488 135.654 33.0223C133.496 33.0897 131.638 35.5635 129.62 34.8088C129.124 34.6231 128.601 34.2452 128.12 34.4666C127.962 34.5672 127.83 34.7016 127.733 34.8598C127.636 35.018 127.577 35.1958 127.56 35.3797C127.047 37.7887 127.929 40.5333 126.593 42.615C125.139 44.8802 121.777 45.1942 120.014 47.2369C119.058 48.3457 118.687 49.8399 117.808 51.0089C116.928 52.1779 115.062 52.9211 114.006 51.9024C114.525 50.8545 114.667 49.6647 114.408 48.5275C114.15 47.3902 113.506 46.3728 112.583 45.6415C111.603 45.0133 110.547 44.5084 109.439 44.1387C108.201 43.6238 107.024 42.9788 105.927 42.2151C105.378 41.8894 104.931 41.42 104.638 40.8593C104.406 40.1573 104.437 39.3967 104.726 38.7154C105.261 37.2076 106.205 35.872 107.456 34.853C108.707 33.834 110.218 33.1701 111.825 32.9331C113.23 32.7452 114.865 32.8114 115.795 31.7593C116.287 31.2026 116.545 30.3609 117.26 30.1348C117.716 30.0446 118.191 30.102 118.612 30.2984L123.856 32.1126C124.441 32.3722 125.086 32.4769 125.725 32.4163C126.042 32.3743 126.331 32.2161 126.534 31.9735C126.737 31.7309 126.839 31.4217 126.82 31.108C126.652 30.2521 125.312 29.8413 125.434 28.978C125.502 28.6982 125.656 28.4454 125.873 28.2528C127.766 26.273 130.081 24.729 132.652 23.7312C135.223 22.7334 137.986 22.3066 140.745 22.4814C141.407 23.5498 140.36 24.8151 139.489 25.7272C138.618 26.6393 137.918 28.269 138.971 28.9711C139.403 29.1876 139.883 29.2939 140.368 29.2801C141.659 29.4519 142.914 29.8259 144.084 30.3881C145.897 31.1632 147.674 32.0112 149.417 32.9323C149.263 31.803 149.116 30.6133 149.552 29.5574C149.987 28.5015 151.225 27.6733 152.306 28.0845C153.348 28.4808 153.883 29.8367 154.993 29.961C156.474 30.1267 157.058 27.9767 156.439 26.6441C155.821 25.3115 154.596 24.1956 154.494 22.7344C154.425 21.7485 154.807 20.5259 154.006 19.9289C153.72 19.7497 153.397 19.6382 153.06 19.6031L133.053 15.9849C131.865 15.77 130.148 15.9347 130.095 17.1208C130.066 17.7829 130.668 18.4378 130.401 19.0465C130.117 19.6962 129.182 19.6368 128.502 19.8666C127.445 20.2231 126.916 21.4555 127.017 22.5484C127.203 23.6344 127.631 24.6665 128.27 25.5707C126.969 25.0358 124.998 24.9375 123.697 24.4027Z" fill="#E7E7E7"/>
<path d="M107.734 7.71156C106.472 7.30124 105.113 7.28213 103.839 7.65682C102.566 8.0315 101.441 8.78186 100.617 9.80616C100.287 10.2324 100.011 10.8201 100.287 11.2816C100.682 11.9434 101.689 11.682 102.432 11.4453C103.524 11.062 104.712 11.0341 105.822 11.3658C106.519 11.6012 107.143 12.0171 107.844 12.2436C108.185 12.3837 108.558 12.43 108.924 12.3775C109.289 12.325 109.634 12.1756 109.92 11.9454C110.4 11.4635 110.431 10.7144 110.431 10.0395C110.465 9.81366 110.446 9.58337 110.378 9.36542C110.309 9.14747 110.192 8.94736 110.034 8.77968C109.754 8.62007 109.439 8.52848 109.115 8.5125C108.39 8.38065 107.735 8.00438 107.262 7.44856" fill="#E7E7E7"/>
<path d="M114.947 5.73824C114.665 5.72313 114.383 5.77965 114.129 5.90239C113.876 6.02512 113.658 6.20994 113.498 6.43905C113.338 6.66817 113.241 6.93389 113.216 7.21066C113.19 7.48742 113.238 7.76593 113.354 8.0194C114.221 8.25179 115.127 8.30984 116.018 8.19007C116.462 8.1223 116.876 7.92685 117.207 7.62835C117.538 7.32984 117.772 6.94164 117.879 6.51267C116.831 6.70017 115.749 6.49711 114.845 5.94311" fill="#E7E7E7"/>
<path d="M139.15 2.44134C136.79 2.93445 134.498 3.69979 132.32 4.72146C133.347 5.1092 134.219 5.81073 134.809 6.72268C135.399 7.63462 135.676 8.70872 135.598 9.7867C135.506 10.2005 135.516 10.6301 135.629 11.0391C135.88 11.6367 136.607 11.8609 137.246 12.0143C138.394 12.3577 139.593 12.5081 140.792 12.4591C141.391 12.4283 141.974 12.2509 142.486 11.9432C142.999 11.6354 143.425 11.2069 143.727 10.6964C143.901 10.2119 144.104 9.73838 144.337 9.27842C145.869 6.98585 150.419 9.75791 152.064 7.54212C152.643 6.76157 152.59 5.58664 153.345 4.96813C153.736 4.69866 154.189 4.52887 154.663 4.47404C157.97 3.8283 161.311 3.36072 164.67 3.0734C166.262 2.93728 168.336 2.37563 168.349 0.80559C162.354 -0.351511 156.138 0.470307 150.667 3.14328C148.696 4.1135 146.089 6.15438 144.191 4.86811C143.48 4.3865 143.515 3.08966 142.537 2.54811C141.536 1.99444 140.212 2.21963 139.15 2.44134Z" fill="#E7E7E7"/>
<path d="M158.758 6.04415L161.572 6.57556C161.054 6.55302 160.537 6.63929 160.055 6.82864C159.574 7.01798 159.139 7.30605 158.78 7.6736C158.421 8.04116 158.146 8.47976 157.973 8.96015C157.8 9.44053 157.733 9.95164 157.777 10.4594C160.412 11.3246 163.285 10.4827 166.061 10.5977C168.837 10.7127 172.067 12.6615 171.594 15.3521C171.45 16.1656 170.972 16.9786 171.221 17.7673C171.395 18.32 171.891 18.7122 172.171 19.2213C172.755 20.2822 172.288 21.624 171.551 22.5883C170.815 23.5527 169.824 24.3221 169.178 25.3469C167.569 27.8958 168.483 31.191 169.441 34.0386C169.718 35.1146 170.23 36.1185 170.941 36.9811C172.36 38.4642 174.673 38.5932 176.745 38.6229C178.253 38.6446 179.98 38.5714 180.934 37.4233C182.178 35.9244 181.308 33.5858 182.127 31.8267C182.872 30.229 184.768 29.5436 186.487 29.0575C189.634 28.1669 192.842 27.4098 195.818 26.0646C199.514 24.3942 202.967 21.7911 207.029 21.576C208.168 21.5157 209.336 21.6479 210.433 21.3411C211.531 21.0343 212.574 20.1017 212.491 18.9832C212.42 18.0276 211.597 17.3258 210.954 16.6054C210.311 15.885 209.806 14.7772 210.397 14.015L221.043 12.0608C220.288 10.0397 219.701 7.37788 221.435 6.06232C222.06 5.58765 222.898 5.39794 223.431 4.8241C224.339 3.84606 223.882 2.1613 222.834 1.32953C221.786 0.497756 220.369 0.304666 219.026 0.195075C214.358 -0.185918 209.663 0.0658345 204.986 0.317783C195.844 0.810286 186.701 1.30279 177.558 1.79529C175.718 1.89443 173.593 1.74297 171.905 2.36005C170.476 2.88246 169.46 3.84141 167.825 4.17833C164.808 4.80032 161.488 4.37943 158.758 6.04415Z" fill="#E7E7E7"/>
<path d="M209.174 27.9048C208.887 27.8602 208.594 27.9255 208.355 28.0873C208.197 28.2584 208.103 28.4774 208.088 28.7081C207.906 29.7262 208.123 30.7742 208.694 31.6422C208.985 32.068 209.387 32.4095 209.857 32.6313C210.328 32.853 210.85 32.9469 211.37 32.9032C212.637 32.7444 213.571 31.682 214.736 31.1636C216.532 30.3653 224.157 29.1208 218.882 26.3203C217.064 25.3551 215.89 26.2071 214.457 26.8427C212.827 27.6622 211.001 28.0294 209.174 27.9048Z" fill="#E7E7E7"/>
<path d="M255.372 4.46331C254.756 4.71059 254.24 5.15137 253.906 5.71679C253.752 6.0039 253.717 6.33818 253.806 6.65048C253.896 6.96277 254.105 7.22917 254.389 7.39457C254.619 7.47654 254.863 7.51456 255.107 7.50657L257.612 7.5801C258.676 7.61134 260.005 7.83401 260.29 8.84158C260.503 9.58974 260.028 10.5511 260.601 11.0858C260.847 11.273 261.143 11.3864 261.453 11.4123C262.278 11.6206 263.139 11.6479 263.976 11.4923C265.798 11.012 264.841 9.91907 265.415 8.94588C266.293 7.45684 266.141 8.35823 267.688 7.50483C268.831 6.87458 270.307 5.73131 269.354 4.12498C267.695 1.33162 257.819 3.26329 255.372 4.46331Z" fill="#E7E7E7"/>
<path d="M304.801 3.05892L303.347 3.24964C300.068 3.67969 296.77 4.1137 293.611 5.08147C294.978 5.61269 296.413 5.95858 297.875 6.10963C298.68 6.1484 299.479 6.26009 300.263 6.44327C301.658 6.85139 303.064 7.90529 304.412 7.36542C305.247 7.03068 305.52 6.1756 306.212 5.72243C306.69 5.40952 308.503 4.90304 308.706 4.58721C310.344 2.03389 306.06 2.89376 304.801 3.05892Z" fill="#E7E7E7"/>
<path d="M311.188 9.554C309.245 10.6214 307.443 11.9185 305.821 13.4162C305.138 14.0475 304.44 14.8325 304.502 15.7521C304.584 16.9742 305.909 17.6832 307.057 18.1607L311.706 20.095C312.269 19.3138 311.753 18.2355 311.17 17.4678C310.588 16.7002 309.895 15.812 310.152 14.8882C310.446 13.8341 311.754 13.4748 312.851 13.2932C314.638 12.9973 319.458 13.0211 318.879 10.1909C318.197 6.85607 312.981 8.56865 311.188 9.554Z" fill="#E7E7E7"/>
<path d="M310.253 198.274C309.81 199.533 309.768 201.016 310.534 202.116C311.393 203.349 313.112 203.809 314.599 203.496C316.08 203.109 317.4 202.275 318.374 201.111C319.264 200.136 319.996 199.033 320.545 197.839C321.311 195.979 321.851 194.037 322.154 192.053L323.597 184.605C323.92 182.94 323.908 177.837 320.795 179.5C319.944 179.954 317.975 183.54 317.084 184.557C315.478 186.39 315.265 188.169 314.42 190.389C313.36 193.17 311.232 195.488 310.253 198.274Z" fill="#E7E7E7"/>
<path d="M474.669 236.385C473.65 235.995 472.662 235.532 471.711 235.001C470.757 237.577 470.25 240.292 470.211 243.033L477.182 239.157C478.23 238.574 479.419 237.764 479.396 236.58C479.406 236.434 479.375 236.288 479.307 236.157C479.239 236.027 479.137 235.917 479.011 235.839C478.856 235.778 478.687 235.758 478.522 235.782C477.489 235.867 476.546 236.367 475.571 236.714C474.596 237.062 473.456 237.246 472.561 236.73" fill="#E7E7E7"/>
<path d="M511.439 238.687C510.674 238.891 509.927 239.155 509.204 239.475C507.604 240.275 506.516 241.794 505.077 242.847C503.699 243.855 502.041 244.409 500.413 244.947C499.935 245.363 500.155 246.201 500.674 246.566C501.233 246.879 501.874 247.02 502.515 246.973C504.206 247.009 505.988 247.026 507.469 246.223C508.304 245.691 509.085 245.082 509.802 244.404C511.533 242.984 513.613 242.047 515.672 241.141C516.421 240.863 517.114 240.456 517.718 239.939C519.012 238.686 519.103 236.754 517.237 236.328C515.73 235.983 512.874 238.23 511.439 238.687Z" fill="#E7E7E7"/>
<path d="M527.686 228.258C527.77 227.396 527.653 226.527 527.345 225.715C527.037 224.904 526.545 224.173 525.907 223.576C525.888 225.3 525.835 227.137 524.848 228.563C524.145 229.579 523.042 230.265 522.272 231.233C521.502 232.201 521.16 233.735 522.063 234.584C522.641 235.016 523.344 235.254 524.07 235.263C525.869 235.471 527.951 235.587 529.213 234.31C529.901 233.613 530.236 232.581 531.076 232.068C531.389 231.939 531.668 231.743 531.893 231.493C532.24 230.952 531.689 230.238 531.069 230.043C530.449 229.847 529.765 229.939 529.142 229.754C528.519 229.568 527.947 228.88 528.267 228.322" fill="#E7E7E7"/>
<path d="M498.811 165.035C497.868 165.261 496.89 165.317 495.926 165.202C494.325 164.913 493.079 163.727 491.786 162.754C488.712 160.455 484.976 159.172 481.115 159.09C477.602 159.025 474.056 159.961 470.605 159.308C470.831 160.54 471.904 161.464 473.049 162.013C474.193 162.563 475.457 162.839 476.607 163.377C478.449 164.248 479.91 165.741 480.722 167.585C481.093 168.435 481.326 169.359 481.887 170.101C483.034 171.618 485.208 171.951 487.127 171.827C489.628 171.665 492.241 170.958 494.568 171.874C496.349 172.575 497.623 174.106 499.11 175.297C500.596 176.488 502.69 177.372 504.397 176.513C502.624 175.948 501.081 174.842 499.993 173.355C498.905 171.868 498.329 170.078 498.349 168.247C500.023 168.398 504.845 168.34 504.585 165.544C504.365 163.175 500.249 164.779 498.811 165.035Z" fill="#E7E7E7"/>
<path d="M476.91 184.311C477.207 182.709 478.833 181.294 478.326 179.743C477.976 178.671 476.711 178.141 475.565 178.115C474.419 178.089 473.294 178.424 472.148 178.456C471.403 178.417 470.655 178.427 469.911 178.487C467.637 178.854 466.235 181.197 464.092 182.03C462.789 182.536 461.325 182.439 459.969 182.789C456.893 183.584 454.946 186.441 452.795 188.745C449.321 192.45 444.794 195.044 439.801 196.192C438.052 196.59 436.171 196.845 434.781 197.961C432.94 199.44 432.487 201.974 432.077 204.276C430.945 210.633 429.215 216.873 426.91 222.916L434.215 223.832C435.604 224.007 437.043 224.177 438.382 223.773C439.354 223.412 440.275 222.93 441.122 222.338C444.376 220.353 448.017 219.062 451.811 218.547C453.724 218.289 455.729 218.241 457.524 218.94C459.32 219.639 460.86 221.224 461.01 223.116C461.787 222.878 462.614 222.853 463.404 223.041C464.194 223.23 464.917 223.626 465.496 224.188C466.64 225.333 467.389 226.803 467.637 228.389C467.83 229.371 468.022 230.548 468.95 230.96C469.706 231.296 470.574 230.934 471.402 230.869C474.21 230.648 476.541 233.867 479.302 233.312C482.262 232.718 482.989 228.36 485.877 227.488C487.536 226.986 489.863 227.596 490.658 226.079C491.358 224.743 489.961 223.2 490.105 221.704C490.282 219.861 492.494 219.079 494.199 218.292C500.078 215.581 502.868 207.806 500.019 202.071C498.331 198.673 495.01 195.998 494.397 192.265C493.925 189.393 495.077 186.044 493.214 183.784C492.266 182.634 490.661 181.999 490.097 180.627C489.742 179.763 489.885 178.783 489.694 177.87C489.503 176.958 488.693 176.004 487.776 176.24C485.114 176.927 484.265 185.006 482.84 186.969C480.674 189.953 476.228 187.988 476.91 184.311Z" fill="#E7E7E7"/>
<path d="M427.717 168.088C426.807 167.837 425.814 167.591 424.943 167.949C424.071 168.307 423.562 169.564 424.262 170.188C429.733 169.979 435.238 169.771 440.663 170.501C446.914 171.342 453.1 173.426 459.378 172.813C455.792 171.773 452.146 170.942 448.461 170.324L442.315 169.17C440.666 168.83 439 168.577 437.324 168.412C433.818 168.127 431.164 169.038 427.717 168.088Z" fill="#E7E7E7"/>
<path d="M433.196 149.36C432.741 149.323 432.179 149.291 431.944 149.675C431.719 150.041 431.976 150.526 431.856 150.937C431.691 151.499 430.942 151.642 430.352 151.566C429.762 151.489 429.124 151.306 428.602 151.586C428.337 151.764 428.138 152.021 428.034 152.32C427.931 152.618 427.929 152.942 428.028 153.242C428.242 153.837 428.587 154.378 429.04 154.827C429.813 155.784 430.693 156.652 431.665 157.414C433.545 158.778 436.093 159.436 437.278 161.416C437.445 161.8 437.701 162.139 438.027 162.407C438.596 162.761 439.337 162.492 439.949 162.217L442.095 161.254C442.482 161.117 442.827 160.886 443.099 160.583C443.589 159.929 443.288 159 442.876 158.296C442.465 157.591 441.938 156.863 442.026 156.055C442.184 154.615 444.067 154.065 444.842 152.833C445.622 151.591 445.114 149.992 445.204 148.535C445.31 146.831 446.399 144.615 444.646 143.342C443.157 142.26 441.733 143.259 440.663 144.454C438.408 146.973 437.342 149.7 433.196 149.36Z" fill="#E7E7E7"/>
<path d="M446.222 123.903C446.955 125.281 448.482 126.104 449.281 127.446C450.147 128.902 450.048 130.782 450.988 132.192C451.952 133.639 453.891 134.408 454.432 136.054C455.022 137.851 453.683 140.035 454.75 141.605C454.949 141.861 455.201 142.075 455.488 142.231C455.775 142.387 456.092 142.483 456.419 142.513C456.746 142.542 457.076 142.505 457.387 142.402C457.699 142.3 457.985 142.136 458.228 141.919C458.678 141.437 458.919 140.802 458.9 140.149C458.88 139.495 458.601 138.875 458.123 138.421C457.491 137.854 456.584 137.61 456.056 136.948C455.781 136.567 455.598 136.129 455.521 135.667C455.233 134.337 455.279 132.957 455.655 131.648C455.796 131.316 455.832 130.949 455.758 130.597C455.52 129.918 454.586 129.87 453.929 129.555C452.439 128.84 452.475 126.774 452.736 125.164C452.562 126.236 448.678 124.413 448.272 123.806C447.464 122.6 447.903 120.274 447.743 118.942C445.999 119.768 445.327 122.217 446.222 123.903Z" fill="#E7E7E7"/>
<path d="M407.091 145.114C406.375 144.325 405.295 143.5 404.334 143.976C403.6 144.338 403.399 145.335 403.686 146.091C404.036 146.825 404.575 147.457 405.25 147.923C407.253 149.547 409.41 151.012 411.157 152.899C414.284 156.276 415.94 160.833 419.341 163.944C420.025 164.665 420.93 165.146 421.918 165.314C422.909 165.405 424.021 164.782 424.135 163.81C424.229 163.01 423.661 162.294 423.107 161.701C421.786 160.289 420.339 158.989 419.092 157.513C418.516 156.947 418.154 156.204 418.066 155.407C418.06 154.613 418.797 153.781 419.58 153.978C418.628 153.739 417.921 152.179 416.523 151.886C415.355 151.641 415.072 152.352 413.682 151.766C411.029 150.648 408.949 147.157 407.091 145.114Z" fill="#E7E7E7"/>
<path d="M469.408 68.3199C468.648 68.0977 467.9 67.8352 467.168 67.5334C465.199 66.9525 462.593 68.3749 462.856 70.3788C463.03 71.7102 464.291 72.6079 464.987 73.7628C466.02 75.4755 465.745 77.6478 465.202 79.5658C465.069 80.1597 464.816 80.7212 464.457 81.2169C463.956 81.7402 463.357 82.1638 462.693 82.4643C460.033 83.9298 457.688 85.8877 455.787 88.2298C455.58 88.4461 455.436 88.7129 455.37 89.0024C455.276 89.679 455.968 90.1718 456.359 90.7361C457.228 91.9897 456.6 93.6764 456.686 95.1909C456.673 95.4051 456.716 95.619 456.81 95.8124C456.905 96.0058 457.048 96.1723 457.226 96.296C457.75 96.5575 458.371 96.1133 458.655 95.6078C459.597 93.9302 458.887 91.2373 460.655 90.4285C460.989 90.2754 461.394 90.2109 461.618 89.9223C461.971 89.4644 461.63 88.7864 461.809 88.2391C462.079 87.4173 463.222 87.3804 464.1 87.4168C465.612 87.479 467.123 87.2812 468.566 86.8325C469.132 86.7003 469.646 86.4077 470.044 85.9912C470.573 85.3431 470.526 84.4216 470.42 83.5977C469.892 79.49 468.568 75.5198 466.52 71.9012C468.073 72.0962 469.762 72.265 471.102 71.4697C471.852 71.0244 472.752 69.6928 472.38 68.7864C471.791 67.3531 470.728 68.5595 469.408 68.3199Z" fill="#E7E7E7"/>
<path d="M270.352 90.9115C270.538 91.8909 270.721 92.9221 270.394 93.8653C270.067 94.8085 269.04 95.5965 268.07 95.3075C267.317 95.0833 266.882 94.3392 266.347 93.772C263.374 90.6175 256.666 92.4439 254.829 88.5413C254.08 86.9485 254.589 85.0403 254.078 83.359C253.755 82.3872 253.113 81.5483 252.253 80.9739C251.393 80.3995 250.363 80.1223 249.325 80.1856C248.378 80.32 247.456 80.5904 246.589 80.988C240.782 83.2737 234.685 84.7722 228.467 85.4425C227.285 85.5132 226.116 85.7223 224.985 86.0651C222.432 86.9748 220.687 89.3012 219.445 91.675C218.204 94.0489 217.287 96.6189 215.623 98.7279C213.873 100.944 211.422 102.497 209.135 104.175C208.254 104.733 207.521 105.489 206.995 106.38C206.499 107.38 206.527 108.543 206.566 109.655L207.033 123.16C207.093 124.897 207.169 126.696 207.96 128.25C208.948 130.191 210.899 131.463 212.253 133.178C213.634 134.94 214.354 137.117 214.29 139.341C214.261 140.235 214.171 141.292 214.879 141.853C215.31 142.128 215.815 142.271 216.328 142.263L234.917 143.758C238.186 144.021 241.81 144.454 243.945 146.902C244.953 148.057 245.762 149.719 247.305 149.843C247.967 149.896 248.611 149.629 249.273 149.577C250.944 149.447 252.411 150.693 253.337 152.066C254.739 154.157 255.375 156.655 255.141 159.149C254.99 160.715 254.496 162.237 254.389 163.806C253.984 169.776 259.134 174.963 259.234 180.946C259.293 184.466 257.593 187.754 255.935 190.874C258.61 194.856 256.42 200.159 257.485 204.815C258.495 209.232 262.243 212.689 263.176 217.122C263.604 219.152 263.629 221.649 265.45 222.695C266.249 223.077 267.134 223.252 268.022 223.201C273.374 223.263 278.666 222.079 283.464 219.746C285.715 218.648 288.049 217.009 288.442 214.569C288.759 212.601 287.744 210.4 288.777 208.686C289.995 206.666 293.115 206.826 294.907 205.273C297.814 202.754 295.547 197.948 296.725 194.319C297.784 191.057 301.428 189.324 303.234 186.397C303.945 185.138 304.455 183.779 304.747 182.368C305.575 178.995 306.09 175.555 306.286 172.091C306.334 169.987 306.492 167.886 306.759 165.797C308.707 153.906 320.67 145.943 324.553 134.519C324.924 133.428 325.099 131.974 324.111 131.357C323.525 131.082 322.861 131.014 322.23 131.164L313.661 132.225C312.597 132.357 311.469 132.48 310.491 132.046C309.514 131.612 308.813 130.396 309.332 129.473C310.787 126.883 307.794 123.609 306.464 120.954C302.882 113.805 298.616 107.007 293.725 100.651C293.412 100.324 293.216 99.9059 293.166 99.4595L295.598 99.5391C294.777 96.6442 293.423 93.4763 290.561 92.4173C288.948 91.8206 287.162 92.0269 285.442 92.1193C280.513 92.3839 275.23 91.6527 270.352 90.9115Z" fill="#E7E7E7"/>
<path d="M285.445 25.6741C286.735 27.02 288.18 28.4469 290.046 28.6815C293.342 29.0959 295.711 25.7466 297.22 22.8374C297.276 23.5791 297.624 24.2701 298.19 24.7634C298.756 25.2568 299.496 25.5136 300.252 25.4792C301.066 25.3447 301.842 25.0464 302.533 24.603C309.062 21.0961 316.376 19.238 323.817 19.1956C323.746 18.6417 323.886 18.0813 324.21 17.6227C324.534 17.1641 325.02 16.8398 325.573 16.7122C327.086 16.4175 328.449 17.7029 329.178 19.0382C329.908 20.3736 330.363 21.9213 331.523 22.9208C332.682 23.9203 334.927 23.8768 335.385 22.4294C335.825 21.0398 334.352 19.8548 333.128 19.0356C331.904 18.2164 330.614 16.7001 331.439 15.4911C337.691 14.131 343.982 12.7658 350.379 12.4954C351.468 12.5327 352.554 12.349 353.567 11.9557C354.543 11.4852 355.319 10.4171 355.056 9.38066C353.66 9.70319 352.198 9.60979 350.856 9.11238C349.514 8.61497 348.353 7.73608 347.522 6.58778C356.399 5.86787 365.841 5.25424 373.708 9.35922C374.652 11.3509 369.84 13.008 371.127 14.8044C371.538 15.3773 372.361 15.4445 373.074 15.4575C378.541 15.5573 384.039 15.6551 389.444 14.844C391.42 14.5475 393.415 14.1291 395.398 14.3695C398.701 14.7698 401.527 16.9358 404.776 17.642C406.099 17.9294 407.582 17.9392 408.697 17.1831C409.812 16.4271 410.291 14.7056 409.378 13.7227C412.437 10.7756 417.516 11.506 421.552 12.917C425.589 14.3279 429.413 16.6033 433.685 16.9178C436.749 17.1433 439.855 16.3334 442.882 16.8482C444.785 17.1717 446.555 18.0034 448.414 18.5143C451.931 19.4808 455.651 19.2767 459.302 19.3233C468.617 19.4466 477.831 21.2459 486.487 24.632C487.613 24.9923 488.645 25.5914 489.51 26.3868C490.315 27.2344 490.726 28.5515 490.184 29.5821L481.24 28.2977C482.083 29.9281 484.263 30.2059 486.033 30.7684C487.804 31.3308 489.64 33.2524 488.576 34.7526C486.657 34.1523 484.919 36.0372 483.95 37.7715C482.981 39.5058 481.8 41.5829 479.789 41.6885C477.989 41.7831 475.812 40.2767 474.638 41.6217C476.259 43.6316 477.648 45.8128 478.777 48.1249C479.937 50.4985 480.762 53.4893 479.195 55.6249C478.949 56.0061 478.575 56.2911 478.138 56.4308C476.858 56.7492 476.027 55.2106 475.109 54.2781C473.952 53.103 472.204 52.7702 470.637 52.2191C469.071 51.6679 467.422 50.5838 467.299 48.9534C467.223 47.9391 467.768 46.9961 468.169 46.0586C468.844 44.4784 469.139 42.7666 469.031 41.0562C468.943 39.6801 468.551 38.2487 467.545 37.2873C466.54 36.3258 464.804 36.0208 463.724 36.9014C463.22 37.3123 462.817 37.9696 462.162 37.9941C461.007 38.0376 460.119 36.0573 459.189 36.7333C459.298 37.4535 459.146 38.1886 458.76 38.8099C455.985 41.1816 451.722 40.1783 448.145 41.0161C446.444 41.4945 444.815 42.1935 443.302 43.0946C442.736 43.3325 442.254 43.7299 441.918 44.2365C441.471 45.0893 441.963 46.1815 442.75 46.7486C443.585 47.2517 444.523 47.5663 445.497 47.6698C449.858 48.4815 454.283 49.7381 457.726 52.491C461.169 55.2439 463.427 59.7947 462.337 64.0234L453.737 55.9471C454.064 59.3382 454.249 62.7386 454.293 66.1483C454.349 66.8141 454.256 67.4837 454.02 68.1105C453.407 69.4414 451.746 69.8892 450.289 70.183C449.884 70.2586 449.5 70.4176 449.162 70.6495C448.824 70.8814 448.54 71.1809 448.328 71.5285C448.116 71.876 447.981 72.2637 447.933 72.6661C447.884 73.0684 447.923 73.4763 448.046 73.8629C448.563 75.5202 449.853 76.8123 451.034 78.0998C452.216 79.3873 453.378 80.8506 453.533 82.5775C453.687 84.3044 452.362 86.2508 450.602 86.1308C449.268 86.0397 448.278 84.8661 447.709 83.6769C447.14 82.4876 446.802 81.1628 445.947 80.1523C443.359 77.0938 437.547 78.4042 435.228 75.1436C434.638 75.8023 434.228 76.5986 434.038 77.4567C433.848 78.3148 433.885 79.2063 434.144 80.0466C435.223 79.3832 436.699 79.9996 437.509 80.9637C438.32 81.9277 438.702 83.1637 439.338 84.2465C440.197 85.7076 441.563 87.0029 441.683 88.6861C441.652 89.3225 441.662 89.9603 441.716 90.5954C441.929 91.6152 442.806 92.3475 443.414 93.2C444.829 95.1835 444.759 97.9083 443.847 100.159C442.935 102.409 441.297 104.29 439.673 106.113C436.839 109.298 433.946 112.464 430.585 115.108C429.626 115.863 428.603 116.605 428.005 117.66C427.408 118.715 427.378 120.196 428.295 120.998C427.639 121.03 426.461 121.348 425.804 121.38C425.573 118.791 425.523 116.19 425.654 113.594C423.062 112.371 420.272 115.646 420.606 118.452C420.941 121.258 423.006 123.51 424.476 125.938C425.552 127.713 426.351 129.783 425.992 131.819C425.633 133.855 423.784 135.733 421.689 135.553C418.358 135.268 416.965 130.568 413.666 130.03C413.375 129.963 413.069 129.992 412.798 130.115C412.308 130.379 412.223 131.023 412.195 131.571C412.06 134.262 411.943 137.06 413.012 139.541C414.576 143.171 418.616 146.219 417.768 150.072C413.203 147.986 410.83 142.955 409.752 138.123C408.674 133.29 408.495 128.216 406.563 123.648C405.096 125.495 402.013 123.968 400.673 122.03C399.402 120.192 398.62 118.066 397.387 116.204C396.154 114.341 394.266 112.674 392.007 112.571C389.639 112.464 387.586 114.061 385.78 115.569C384.295 116.81 382.77 118.1 381.902 119.815C380.639 122.31 380.969 125.253 380.909 128.039C380.843 131.052 380.193 134.231 378.104 136.436C376.014 138.642 372.158 139.41 369.853 137.422C368.65 136.385 368.067 134.834 367.548 133.346C365.047 126.172 362.964 118.863 361.309 111.456C360.922 113.147 359.411 115.326 357.968 114.33C357.645 114.062 357.382 113.73 357.199 113.356C354.507 108.872 349.522 106.183 344.485 104.57C339.449 102.958 334.149 102.206 329.169 100.433C326.378 99.4399 323.712 98.1349 321.223 96.5439C320.589 97.4598 320.219 98.5272 320.151 99.6331C320.084 100.739 320.323 101.842 320.841 102.826C321.946 104.748 324.446 105.861 326.587 105.189C327.693 104.841 328.627 104.087 329.724 103.714C330.821 103.342 332.294 103.525 332.774 104.564C333.233 105.558 332.539 106.761 332.883 107.8C333.408 109.381 335.835 109.503 336.684 110.942C337.315 112.013 336.796 113.435 335.894 114.299C334.992 115.163 333.79 115.637 332.689 116.238C329.118 118.19 326.578 121.521 323.457 124.113C320.336 126.705 315.933 128.598 312.213 126.935C313.1 122.523 307.752 119.284 306.768 114.892C306.444 113.446 306.612 111.91 306.15 110.502C305.48 108.462 303.639 107.06 302.128 105.514C300.296 103.619 298.869 101.382 297.93 98.9358C296.992 96.4897 296.562 93.8837 296.665 91.2715C296.746 89.4562 297.086 87.6115 296.665 85.8422C296.244 84.0729 294.754 82.3604 292.907 82.4406C288.688 82.6237 283.373 82.9321 281.16 79.3978C280.37 78.1364 280.026 76.289 281.168 75.3226C281.974 74.6409 283.163 74.7051 284.221 74.8074L293.727 75.7263C295.95 75.9412 298.353 76.1186 300.261 74.9764C302.168 73.8342 302.995 70.8024 301.229 69.4586C299.938 68.4767 297.625 68.53 297.25 66.9688C296.938 65.6687 298.402 64.1935 297.611 63.1069C297.044 62.3278 295.769 62.544 294.997 63.128C294.224 63.712 293.663 64.5662 292.799 65.0084C291.282 65.7841 289.47 65.0458 287.838 64.5441C286.206 64.0423 284.018 63.9997 283.227 65.4892C282.342 67.155 284.012 69.3377 283.134 71.0069C281.972 73.2138 278.039 71.9575 276.408 73.8558C274.536 76.034 277.681 79.2821 277.05 82.0649C276.244 82.4571 275.349 82.6372 274.451 82.5877C273.553 82.5381 272.683 82.2605 271.927 81.782C271.183 81.2849 270.591 80.599 270.212 79.7973C269.833 78.9956 269.683 78.1079 269.777 77.2289C269.933 75.9771 270.597 74.6992 270.152 73.5163C269.792 72.5598 268.815 71.9904 267.907 71.4972L258.67 66.4809C257.812 68.0444 258.897 69.9826 260.253 71.1569C261.609 72.3312 263.307 73.2157 264.198 74.7611C264.761 75.8318 264.887 77.0736 264.551 78.2327C264.214 79.3919 263.44 80.3811 262.386 80.9982C262.254 81.0878 262.104 81.1482 261.946 81.1753C261.788 81.2023 261.626 81.1955 261.471 81.1551C261.323 81.07 261.195 80.9567 261.093 80.8219C260.991 80.6871 260.917 80.5336 260.877 80.3704C259.247 76.2716 256.8 72.2304 252.888 70.0892C248.976 67.9481 243.355 68.3883 240.789 71.9952C240.18 72.8519 239.771 73.8284 239.24 74.7341C236.42 79.5463 230.374 81.825 224.726 81.6762C224.173 81.7062 223.623 81.5793 223.142 81.3105C222.229 80.6909 222.27 79.3761 222.41 78.2944L223.003 73.7042C223.122 72.7824 223.295 71.7636 224.037 71.1882C225.083 70.3771 226.593 70.8889 227.926 70.8701C228.935 70.8236 229.906 70.4732 230.706 69.8664C231.506 69.2595 232.097 68.4255 232.399 67.4775C232.668 66.5201 232.666 65.5087 232.394 64.5522C232.121 63.5958 231.588 62.7305 230.852 62.0496C230.242 61.4859 229.422 60.7776 229.744 60.0176C229.873 59.8074 230.047 59.6274 230.254 59.4904C230.461 59.3533 230.696 59.2625 230.943 59.2244C233.337 58.5412 235.866 58.3622 238.22 57.5561C240.574 56.75 242.857 55.1009 243.414 52.7133C243.585 51.9816 243.663 51.0953 244.331 50.7325C244.667 50.5933 245.027 50.5209 245.392 50.5196C246.668 50.3412 247.83 49.6998 248.649 48.7216C249.468 47.7434 249.884 46.4994 249.817 45.2344C250.945 44.4597 252.525 45.0296 253.616 45.8535C254.708 46.6774 255.671 47.7659 256.999 48.1211C259.474 48.783 261.865 46.6298 264.43 46.6198C265.508 46.6156 266.625 46.9903 267.64 46.631C268.668 46.2667 269.282 45.2605 270.072 44.517C270.861 43.7736 272.246 43.3202 272.975 44.1211L272.355 39.6024C273.605 39.9127 274.908 39.9567 276.177 39.7312C277.446 39.5058 278.651 39.0162 279.711 38.2953L271.688 35.6313C271.409 35.5628 271.151 35.4274 270.938 35.2371C270.355 34.6199 270.934 33.6581 271.409 32.9564C272.543 31.2779 272.734 28.5131 270.868 27.6774C269.594 27.107 268.132 27.7917 266.91 28.4615L261.054 31.6702C260.868 32.764 262.23 33.3839 263.073 34.1207C263.583 34.5665 263.944 35.1535 264.109 35.8047C264.274 36.4559 264.234 37.1408 263.995 37.7694C263.756 38.3981 263.33 38.941 262.771 39.327C262.213 39.713 261.549 39.924 260.866 39.9322C261.252 40.4249 261.519 40.9964 261.65 41.6046C261.78 42.2128 261.77 42.842 261.619 43.4457L257.679 43.7242C257.237 43.8116 256.778 43.7235 256.402 43.4791C255.98 43.1113 256.037 42.4668 255.94 41.9213C255.704 40.6048 254.392 39.6821 253.053 39.4455C251.715 39.2089 250.345 39.5122 249.019 39.8116C248.457 40.0107 247.838 39.9967 247.286 39.7723C246.968 39.5699 246.728 39.271 246.6 38.9214C246.018 37.5365 246.562 35.9087 247.495 34.7244C248.428 33.5401 249.706 32.6744 250.854 31.6884C253.598 29.322 255.614 26.2486 256.675 22.8153C258.844 21.9223 261.089 20.7089 263.258 19.8158C266.602 18.1521 270.352 17.4381 274.086 17.7542L281.431 17.892C283.605 17.9329 285.839 17.9852 287.849 18.7999C289.86 19.6146 291.627 21.3768 291.766 23.5099C291.808 23.7514 291.786 23.9994 291.704 24.2306C291.622 24.4618 291.481 24.6687 291.295 24.8317C291.011 24.984 290.689 25.0553 290.366 25.0374C288.338 25.1075 287.473 25.6041 285.445 25.6741Z" fill="#E7E7E7"/>
<path d="M226.901 48.2965C227.188 48.0295 227.395 47.69 227.498 47.3153C227.602 46.9405 227.598 46.545 227.488 46.1722C226.789 45.9073 226.03 45.8394 225.294 45.9758C224.558 46.1123 223.876 46.4479 223.324 46.9447C222.889 47.3772 222.514 47.8644 222.209 48.3936C221.244 49.9411 220.39 51.7895 220.949 53.5193C220.995 53.7079 221.078 53.8857 221.195 54.0422C221.311 54.1988 221.458 54.3309 221.628 54.4308C221.878 54.5296 222.149 54.5712 222.418 54.5524C223.481 54.5511 224.544 54.4868 225.599 54.36C226.247 54.2822 227 54.1023 227.251 53.5097C227.58 52.7307 226.783 51.8491 227.015 51.0371C227.168 50.674 227.4 50.348 227.694 50.0819C227.84 49.948 227.952 49.7824 228.022 49.5984C228.091 49.4143 228.116 49.2169 228.094 49.0218C228.001 48.6408 227.407 48.4246 227.193 48.7557" fill="#E7E7E7"/>
<path d="M232.417 41.2716C231.472 41.0585 230.498 40.9984 229.534 41.0937C229.321 41.0875 229.109 41.1347 228.92 41.2309C228.736 41.364 228.603 41.5536 228.541 41.7695C228.338 42.4119 228.388 43.1061 228.681 43.7139C228.975 44.3216 229.491 44.7983 230.127 45.0489C230.473 45.1272 230.805 45.2582 231.11 45.4372C231.925 46.0588 231.406 47.3294 231.56 48.332C231.733 49.4578 232.842 50.4029 232.639 51.5239C232.479 52.407 231.519 53.1063 231.673 53.9905C231.835 54.9165 233.031 55.1947 233.984 55.2689C234.537 55.3639 235.105 55.2999 235.621 55.0845C236.139 54.7368 236.507 54.2132 236.654 53.6145C237.045 52.4732 237.208 51.2689 237.137 50.0668C237.133 49.5201 236.993 48.9826 236.73 48.5009C236.443 48.1193 236.125 47.7613 235.779 47.4305C233.953 45.3431 235.876 42.2295 232.417 41.2716Z" fill="#E7E7E7"/>
<path opacity="0.8" d="M472.533 204.791C472.533 204.791 332.678 125.896 272.469 140.845C272.469 140.845 144.867 154.34 130.079 184.029C130.079 184.029 89.5168 59.459 74.7285 55.3066" stroke="url(#paint0_linear_13152_38236)" stroke-width="2" stroke-miterlimit="10"/>
<path opacity="0.8" d="M130.079 184.029C153.529 122.574 364.79 54.4761 364.79 54.4761C334.791 61.9503 272.469 140.845 272.469 140.845C272.469 140.845 140.642 46.5866 74.7285 55.3065C74.7285 55.3065 365.002 64.6493 472.534 204.791" stroke="url(#paint1_linear_13152_38236)" stroke-width="2" stroke-miterlimit="10"/>
<path d="M74.7262 61.3274C78.1098 61.3274 80.8528 58.6318 80.8528 55.3065C80.8528 51.9813 78.1098 49.2856 74.7262 49.2856C71.3426 49.2856 68.5996 51.9813 68.5996 55.3065C68.5996 58.6318 71.3426 61.3274 74.7262 61.3274Z" fill="url(#paint2_linear_13152_38236)"/>
<path d="M130.078 190.051C133.461 190.051 136.204 187.355 136.204 184.03C136.204 180.704 133.461 178.009 130.078 178.009C126.694 178.009 123.951 180.704 123.951 184.03C123.951 187.355 126.694 190.051 130.078 190.051Z" fill="url(#paint3_linear_13152_38236)"/>
<path d="M364.791 60.4969C368.174 60.4969 370.917 57.8012 370.917 54.476C370.917 51.1507 368.174 48.4551 364.791 48.4551C361.407 48.4551 358.664 51.1507 358.664 54.476C358.664 57.8012 361.407 60.4969 364.791 60.4969Z" fill="url(#paint4_linear_13152_38236)"/>
<path d="M472.533 210.812C475.916 210.812 478.659 208.116 478.659 204.791C478.659 201.466 475.916 198.77 472.533 198.77C469.149 198.77 466.406 201.466 466.406 204.791C466.406 208.116 469.149 210.812 472.533 210.812Z" fill="url(#paint5_linear_13152_38236)"/>
<path d="M272.468 146.866C275.852 146.866 278.595 144.17 278.595 140.845C278.595 137.519 275.852 134.824 272.468 134.824C269.085 134.824 266.342 137.519 266.342 140.845C266.342 144.17 269.085 146.866 272.468 146.866Z" fill="url(#paint6_linear_13152_38236)"/>
<defs>
<linearGradient id="paint0_linear_13152_38236" x1="416.512" y1="130.049" x2="302.874" y2="21.2514" gradientUnits="userSpaceOnUse">
<stop stop-color="#FF7439"/>
<stop offset="1" stop-color="#FFA10D"/>
</linearGradient>
<linearGradient id="paint1_linear_13152_38236" x1="416.512" y1="129.633" x2="302.272" y2="20.864" gradientUnits="userSpaceOnUse">
<stop stop-color="#FF7439"/>
<stop offset="1" stop-color="#FFA10D"/>
</linearGradient>
<linearGradient id="paint2_linear_13152_38236" x1="79.1272" y1="55.3065" x2="73.2113" y2="53.1409" gradientUnits="userSpaceOnUse">
<stop stop-color="#FF7439"/>
<stop offset="1" stop-color="#FFA10D"/>
</linearGradient>
<linearGradient id="paint3_linear_13152_38236" x1="134.479" y1="184.03" x2="128.563" y2="181.864" gradientUnits="userSpaceOnUse">
<stop stop-color="#FF7439"/>
<stop offset="1" stop-color="#FFA10D"/>
</linearGradient>
<linearGradient id="paint4_linear_13152_38236" x1="369.192" y1="54.476" x2="363.276" y2="52.3103" gradientUnits="userSpaceOnUse">
<stop stop-color="#FF7439"/>
<stop offset="1" stop-color="#FFA10D"/>
</linearGradient>
<linearGradient id="paint5_linear_13152_38236" x1="476.934" y1="204.791" x2="471.018" y2="202.625" gradientUnits="userSpaceOnUse">
<stop stop-color="#FF7439"/>
<stop offset="1" stop-color="#FFA10D"/>
</linearGradient>
<linearGradient id="paint6_linear_13152_38236" x1="276.869" y1="140.845" x2="270.954" y2="138.679" gradientUnits="userSpaceOnUse">
<stop stop-color="#FF7439"/>
<stop offset="1" stop-color="#FFA10D"/>
</linearGradient>
</defs>
</svg>
