<svg width="24" height="24" viewBox="0 0 24 24" fill="none" xmlns="http://www.w3.org/2000/svg">
<path d="M18.4873 0.712548C18.0126 0.237341 17.4499 0 16.7999 0H7.20016C6.55 0 5.98758 0.237538 5.51257 0.712548C5.03756 1.1873 4.80002 1.74991 4.80002 2.39988V21.6C4.80002 22.2499 5.03756 22.8124 5.51257 23.2873C5.98758 23.7624 6.55 24 7.20016 24H16.7999C17.4498 24 18.0126 23.7622 18.4872 23.2873C18.9623 22.8124 19.1999 22.2499 19.1999 21.6V2.39988C19.1999 1.74991 18.9627 1.18756 18.4873 0.712548ZM10.5001 2.39988H13.5003C13.7004 2.39988 13.8001 2.49989 13.8001 2.69993C13.8001 2.89991 13.7003 3.00006 13.5003 3.00006H10.5001C10.3001 3.00006 10.2001 2.89991 10.2001 2.69993C10.2 2.49989 10.3 2.39988 10.5001 2.39988ZM13.0597 22.6594C12.7658 22.9529 12.4127 23.0999 12.0001 23.0999C11.5877 23.0999 11.2346 22.9529 10.9408 22.6594C10.647 22.3654 10.5001 22.0122 10.5001 21.6C10.5001 21.1874 10.6472 20.8342 10.9408 20.5405C11.2344 20.247 11.5877 20.0996 12.0001 20.0996C12.4128 20.0996 12.7658 20.247 13.0597 20.5405C13.3535 20.8342 13.5003 21.1874 13.5003 21.6C13.5003 22.0126 13.3533 22.3655 13.0597 22.6594ZM17.4002 18.6001C17.4002 18.7624 17.3409 18.9035 17.222 19.022C17.1029 19.1407 16.9627 19.1998 16.8004 19.1998H7.20016C7.03768 19.1998 6.89708 19.1405 6.77834 19.022C6.6596 18.9035 6.60024 18.7624 6.60024 18.6001V5.4002C6.60024 5.23772 6.65954 5.09698 6.77834 4.97838C6.89714 4.85984 7.03768 4.80014 7.20016 4.80014H16.7999C16.9627 4.80014 17.1031 4.85958 17.222 4.97838C17.3409 5.09705 17.4 5.23772 17.4 5.4002V18.6001H17.4002V18.6001Z" fill="#5B3F91"/>
</svg>
