<svg width="24" height="25" viewBox="0 0 24 25" fill="none" xmlns="http://www.w3.org/2000/svg">
<g clip-path="url(#clip0_8573_908)">
<path d="M9.47 17.7363C8.76786 17.711 8.0475 17.5375 7.44071 17.2235L7.36871 17.1862L7.39027 17.1081L7.70527 15.9664L7.73474 15.8596L7.838 15.8998C8.16682 16.0281 8.54807 16.1588 8.93104 16.2382C9.31506 16.3179 9.69346 16.3443 10.0196 16.2705C10.3903 16.1864 10.5877 15.9617 10.6121 15.7395C10.6361 15.5208 10.4975 15.2503 10.0792 15.0635L10.0778 15.0628C9.963 15.0094 9.80441 14.9574 9.61468 14.8953C9.54863 14.8737 9.4788 14.8508 9.40574 14.8262C9.12811 14.7327 8.81367 14.6171 8.51824 14.4559C7.92517 14.1322 7.39667 13.6166 7.39667 12.7197C7.39667 11.7342 8.13553 10.8694 9.47 10.6543V9.99967V9.89967H9.57H10.2633H10.3633V9.99967V10.6091C10.8517 10.6316 11.3904 10.7213 11.9883 10.9032L12.0767 10.9301L12.0568 11.0203L11.8052 12.1637L11.7809 12.274L11.6743 12.2365C11.1424 12.0495 10.5712 11.8858 10.0169 11.9195L10.0166 11.9195C9.52661 11.948 9.29814 12.1695 9.24973 12.3888C9.20058 12.6115 9.32301 12.8888 9.65269 13.0609C9.82592 13.1422 10.004 13.2193 10.1853 13.2977C10.3149 13.3538 10.4462 13.4106 10.5786 13.4702C10.8925 13.6116 11.2038 13.7651 11.4788 13.9497C12.0321 14.3209 12.4466 14.8241 12.4467 15.6128L9.47 17.7363ZM9.47 17.7363V18.333V18.433H9.57H10.2633H10.3633V18.333V17.6882C10.9181 17.5982 11.4264 17.3971 11.8031 17.0696C12.2019 16.7229 12.4479 16.2386 12.4467 15.613L9.47 17.7363ZM18.2707 16.4231L18.4523 16.501C19.1777 15.3399 19.6 13.9708 19.6 12.4997C19.6 8.30195 16.1977 4.89967 12 4.89967C11.5824 4.89967 11.1743 4.93687 10.7776 5.00356L10.7801 5.20118C15.1742 5.82597 18.5667 9.60291 18.5667 14.1663C18.5667 14.9461 18.4572 15.6993 18.2707 16.4231ZM20.7707 14.7564L20.9523 14.8343C21.6777 13.6732 22.1 12.3041 22.1 10.833C22.1 6.63528 18.6977 3.23301 14.5 3.23301C14.0824 3.23301 13.6743 3.27021 13.2776 3.33689L13.2801 3.53451C17.6742 4.1593 21.0667 7.93625 21.0667 12.4997C21.0667 13.2794 20.9572 14.0327 20.7707 14.7564ZM9.5 8.43301C12.6606 8.43301 15.2333 11.0049 15.2333 14.1663C15.2333 17.3278 12.6606 19.8997 9.5 19.8997C6.33939 19.8997 3.76667 17.3278 3.76667 14.1663C3.76667 11.0049 6.33939 8.43301 9.5 8.43301ZM9.5 6.56634C5.30227 6.56634 1.9 9.96861 1.9 14.1663C1.9 18.3641 5.30227 21.7663 9.5 21.7663C13.6977 21.7663 17.1 18.3641 17.1 14.1663C17.1 9.96861 13.6977 6.56634 9.5 6.56634Z" fill="#5B3F91" stroke="#5B3F91" stroke-width="0.2"/>
</g>
<defs>
<clipPath id="clip0_8573_908">
<rect width="20" height="20" fill="white" transform="translate(2 2.5)"/>
</clipPath>
</defs>
</svg>