<svg width="24" height="24" viewBox="0 0 24 24" fill="none" xmlns="http://www.w3.org/2000/svg">
<path d="M16 14H19C20.1047 14 21 14.8953 21 16V19C21 20.1047 20.1047 21 19 21H16C14.8953 21 14 20.1047 14 19V16C14 14.8953 14.8953 14 16 14ZM5 14H8C9.10471 14 10 14.8953 10 16V19C10 20.1047 9.10471 21 8 21H5C3.89529 21 3 20.1047 3 19V16C3 14.8953 3.89529 14 5 14ZM16 3H19C20.1047 3 21 3.89529 21 5V8C21 9.10471 20.1047 10 19 10H16C14.8953 10 14 9.10471 14 8V5C14 3.89529 14.8953 3 16 3ZM10 5V8C10 9.10471 9.10471 10 8 10H5C3.89529 10 3 9.10471 3 8V5C3 3.89529 3.89529 3 5 3H8C9.10471 3 10 3.89529 10 5Z" stroke="#5B3F91" stroke-width="2"/>
</svg>
