<svg width="80" height="80" viewBox="0 0 80 80" fill="none" xmlns="http://www.w3.org/2000/svg">
<path d="M14.1836 74.172L57.1548 54.248L26.4502 23.5433L6.52643 66.4956C6.2407 67.1813 5.155 69.9433 8.10737 72.572C11.3074 75.41 13.4978 74.4576 14.1836 74.172Z" fill="url(#paint0_linear_3796_29568)"/>
<path d="M22.1455 32.819L18.9455 39.7713C17.9169 42.2666 36.1647 60.6856 46.4693 59.2L57.155 54.2476C44.4883 60.0953 20.5836 36.2093 22.1455 32.819Z" fill="url(#paint1_linear_3796_29568)"/>
<path d="M15.6693 46.8376L14.9264 48.4186L12.4121 53.828C12.3931 55.9613 23.3836 66.9326 30.2598 66.7043L38.9837 62.666C29.5359 64.3043 14.5836 49.1423 15.6693 46.8376Z" fill="url(#paint2_linear_3796_29568)"/>
<path d="M6.73584 66.0774C7.65014 67.906 12.1263 72.363 15.8406 73.4107L25.0597 69.144L25.1168 69.106C19.4406 71.7154 9.84061 62.0394 9.66917 59.7917L6.73584 66.0774Z" fill="url(#paint3_linear_3796_29568)"/>
<path opacity="0.75" d="M14.1836 74.172L57.1548 54.248L26.4502 23.5433L6.52643 66.4956C6.2407 67.1813 5.155 69.9433 8.10737 72.572C11.3074 75.41 13.4978 74.4576 14.1836 74.172Z" fill="url(#paint4_radial_3796_29568)"/>
<path opacity="0.75" d="M14.1836 74.172L57.1548 54.248L26.4502 23.5433L6.52643 66.4956C6.2407 67.1813 5.155 69.9433 8.10737 72.572C11.3074 75.41 13.4978 74.4576 14.1836 74.172Z" fill="url(#paint5_radial_3796_29568)"/>
<path d="M41.1363 23.695C40.622 24.7426 39.6123 24.895 38.8696 24.6665L40.0886 22.2474C40.0886 22.2474 41.46 22.5522 41.4983 21.6569L41.5553 22.9141L41.1363 23.695Z" fill="url(#paint6_linear_3796_29568)"/>
<path d="M44.5459 10.3622C44.5459 10.3622 45.4219 9.96221 45.9742 8.81934C46.5269 7.67648 43.8029 5.52411 43.8029 5.52411L42.5269 7.75268C42.5269 7.75268 44.6792 9.16218 44.0125 9.63838C43.3269 10.1146 44.5459 10.3622 44.5459 10.3622Z" fill="url(#paint7_linear_3796_29568)"/>
<path d="M66.8316 28.6864C67.2316 25.1817 64.8696 24.0197 64.0126 24.115C64.0126 24.115 63.8599 22.9721 65.3839 22.6102C66.3932 22.3817 68.9649 24.6674 68.2982 27.2578L66.8316 28.6864Z" fill="url(#paint8_linear_3796_29568)"/>
<path d="M57.5168 53.9817C55.3835 56.115 46.7738 50.934 38.2595 42.439C29.7643 33.9437 24.5834 25.3151 26.7167 23.1817C28.85 21.0484 37.4595 26.2294 45.9738 34.7247C54.4692 43.239 59.6308 51.8484 57.5168 53.9817Z" fill="url(#paint9_linear_3796_29568)"/>
<path d="M56.7935 52.5714C55.1745 54.1904 47.4412 49.0857 39.5365 41.162C31.6317 33.2381 26.5079 25.5238 28.1269 23.9048C29.746 22.2857 37.4792 27.3905 45.3842 35.3144C53.2888 43.238 58.4125 50.9524 56.7935 52.5714Z" fill="url(#paint10_linear_3796_29568)"/>
<path d="M45.9551 8.82001C45.9551 8.82001 44.9648 10.9343 44.8315 11.1628C44.3361 12.0009 42.9455 12.2867 40.4505 11.9438C37.9551 11.6009 37.2315 11.7343 37.1171 11.7533C37.0028 11.7914 35.5361 10.6105 35.5361 10.6105L35.6695 9.41047C35.6695 9.41047 36.0121 8.95334 37.1551 9.10571C39.1931 9.41047 45.1931 10.42 45.9551 8.82001Z" fill="url(#paint11_linear_3796_29568)"/>
<path d="M50.9078 44.1903C52.9078 41.9047 54.7744 43.6953 55.9551 42.057L53.9361 40C52.7551 41.619 51.0411 40.0953 48.9268 42.3237L50.9078 44.1903Z" fill="url(#paint12_linear_3796_29568)"/>
<path d="M29.2124 16.4577C31.9743 18.0958 29.5172 20.3434 31.0791 21.6196L33.2315 19.6958C31.6696 18.4196 33.9172 16.2101 31.1553 14.572L29.2124 16.4577Z" fill="url(#paint13_linear_3796_29568)"/>
<path d="M58.4507 24.933C58.527 24.9139 58.565 24.4568 59.6887 23.6568C60.8127 22.8568 63.346 24.0949 63.6697 24.2854C64.0127 24.4759 63.727 27.6187 63.727 27.6187C63.727 27.6187 60.565 24.2473 58.984 25.0282C57.403 25.7901 58.4507 24.933 58.4507 24.933Z" fill="url(#paint14_linear_3796_29568)"/>
<path d="M58.8691 32.7621C58.8691 32.7621 58.7548 34.0003 58.1834 34.5716C57.1548 35.5813 55.5168 34.0573 53.4404 34.6096C53.4404 34.6096 54.3928 32.1907 54.4881 32.0002C54.4881 32.0002 55.3261 31.486 56.1834 31.9812C57.0594 32.4574 57.8214 32.6098 58.3548 32.3241C58.8881 32.0383 58.8691 32.7621 58.8691 32.7621Z" fill="url(#paint15_linear_3796_29568)"/>
<path d="M64.4502 27.3139C64.4502 27.3139 62.4119 28.2472 62.1452 28.3806C61.8785 28.5139 61.2692 23.771 62.7359 23.2949C64.2215 22.8187 65.2312 22.6472 65.3835 22.6282C65.5359 22.5901 62.8312 22.8758 64.4502 27.3139Z" fill="#FFBF00"/>
<path d="M58.1836 34.552C59.0219 33.6757 60.1646 32.3806 60.1076 32.0186C59.8409 29.6948 57.9552 24.571 59.6886 23.6377C59.6886 23.6377 58.0692 24.7806 57.5742 25.1234C57.0789 25.4663 56.7169 26.3806 56.7552 27.8853C56.8502 30.5139 58.9456 33.771 58.1836 34.552Z" fill="#FFBF00"/>
<path d="M52.3933 15.752C51.003 25.5234 41.3076 34.8567 41.3076 34.8567L42.622 36.8567C42.622 36.8567 53.1743 25.8662 54.5266 16.0567L52.3933 15.752Z" fill="url(#paint16_linear_3796_29568)"/>
<path d="M34.5071 11.6763C34.2784 12.0954 34.9451 12.8001 36.5451 14.743C38.1451 16.6858 42.2978 21.8287 41.1168 23.6954L42.3928 21.0668C42.3928 21.0668 42.4118 18.9716 41.1548 16.9335C39.1738 13.7335 35.3834 10.2859 35.6691 9.42871L34.5071 11.6763Z" fill="url(#paint17_linear_3796_29568)"/>
<path d="M43.0027 41.409C43.434 41.409 43.7837 41.0593 43.7837 40.628C43.7837 40.1967 43.434 39.847 43.0027 39.847C42.5713 39.847 42.2217 40.1967 42.2217 40.628C42.2217 41.0593 42.5713 41.409 43.0027 41.409Z" fill="url(#paint18_linear_3796_29568)"/>
<path d="M53.8791 8.95289C54.3105 8.95289 54.6601 8.60322 54.6601 8.17192C54.6601 7.74062 54.3105 7.39099 53.8791 7.39099C53.4478 7.39099 53.0981 7.74062 53.0981 8.17192C53.0981 8.60322 53.4478 8.95289 53.8791 8.95289Z" fill="url(#paint19_linear_3796_29568)"/>
<path d="M46.5452 20.2858C46.9765 20.2858 47.3262 19.9362 47.3262 19.5049C47.3262 19.0736 46.9765 18.7239 46.5452 18.7239C46.1138 18.7239 45.7642 19.0736 45.7642 19.5049C45.7642 19.9362 46.1138 20.2858 46.5452 20.2858Z" fill="url(#paint20_linear_3796_29568)"/>
<path d="M51.1741 34.591C51.6054 34.591 51.9551 34.2414 51.9551 33.81C51.9551 33.3787 51.6054 33.029 51.1741 33.029C50.7427 33.029 50.3931 33.3787 50.3931 33.81C50.3931 34.2414 50.7427 34.591 51.1741 34.591Z" fill="url(#paint21_linear_3796_29568)"/>
<path d="M71.2507 32.6866C71.6817 32.6866 72.0314 32.337 72.0314 31.9057C72.0314 31.4744 71.6817 31.1247 71.2507 31.1247C70.8194 31.1247 70.4697 31.4744 70.4697 31.9057C70.4697 32.337 70.8194 32.6866 71.2507 32.6866Z" fill="url(#paint22_linear_3796_29568)"/>
<path d="M66.279 49.163C66.7104 49.163 67.06 48.8133 67.06 48.382C67.06 47.9507 66.7104 47.601 66.279 47.601C65.8477 47.601 65.498 47.9507 65.498 48.382C65.498 48.8133 65.8477 49.163 66.279 49.163Z" fill="url(#paint23_linear_3796_29568)"/>
<path d="M63.0219 39.1044C63.4532 39.1044 63.8029 38.7547 63.8029 38.3234C63.8029 37.892 63.4532 37.5424 63.0219 37.5424C62.5909 37.5424 62.2412 37.892 62.2412 38.3234C62.2412 38.7547 62.5909 39.1044 63.0219 39.1044Z" fill="url(#paint24_linear_3796_29568)"/>
<path d="M67.3079 17.8868C67.7392 17.8868 68.0889 17.5372 68.0889 17.1058C68.0889 16.6745 67.7392 16.3249 67.3079 16.3249C66.8765 16.3249 66.5269 16.6745 66.5269 17.1058C66.5269 17.5372 66.8765 17.8868 67.3079 17.8868Z" fill="url(#paint25_linear_3796_29568)"/>
<path d="M58.5452 20.4389C58.9765 20.4389 59.3262 20.0892 59.3262 19.6579C59.3262 19.2266 58.9765 18.877 58.5452 18.877C58.1138 18.877 57.7642 19.2266 57.7642 19.6579C57.7642 20.0892 58.1138 20.4389 58.5452 20.4389Z" fill="url(#paint26_linear_3796_29568)"/>
<path d="M51.8595 51.2957C59.8212 44.7623 73.3068 43.41 73.3068 43.41L73.7452 40.4003C73.7452 40.4003 57.7832 42.305 49.3262 49.6383C50.2402 50.267 51.0785 50.8193 51.8595 51.2957Z" fill="url(#paint27_linear_3796_29568)"/>
<path d="M31.8789 32.476C32.4122 33.1998 33.0027 33.9237 33.6312 34.6857C35.3265 30.9522 34.9645 28.0189 34.9645 28.0189L32.8884 26.7236C33.0979 29.0284 32.3932 31.2379 31.8789 32.476Z" fill="url(#paint28_linear_3796_29568)"/>
<defs>
<linearGradient id="paint0_linear_3796_29568" x1="4.00477" y1="29.5438" x2="38.0002" y2="69.8303" gradientUnits="userSpaceOnUse">
<stop offset="0.2544" stop-color="#FBE07A"/>
<stop offset="1" stop-color="#FF40BF"/>
</linearGradient>
<linearGradient id="paint1_linear_3796_29568" x1="22.4801" y1="32.4917" x2="50.6917" y2="60.7033" gradientUnits="userSpaceOnUse">
<stop offset="0.2544" stop-color="#9F00E8"/>
<stop offset="1" stop-color="#7000A3"/>
</linearGradient>
<linearGradient id="paint2_linear_3796_29568" x1="14.6605" y1="47.85" x2="34.2263" y2="67.4156" gradientUnits="userSpaceOnUse">
<stop offset="0.2544" stop-color="#9F00E8"/>
<stop offset="1" stop-color="#7000A3"/>
</linearGradient>
<linearGradient id="paint3_linear_3796_29568" x1="8.74594" y1="60.6887" x2="21.1282" y2="73.071" gradientUnits="userSpaceOnUse">
<stop offset="0.2544" stop-color="#9F00E8"/>
<stop offset="1" stop-color="#7000A3"/>
</linearGradient>
<radialGradient id="paint4_radial_3796_29568" cx="0" cy="0" r="1" gradientUnits="userSpaceOnUse" gradientTransform="translate(22.4255 43.024) rotate(119.598) scale(19.516 5.9748)">
<stop stop-color="white" stop-opacity="0.5"/>
<stop offset="1" stop-color="white" stop-opacity="0"/>
</radialGradient>
<radialGradient id="paint5_radial_3796_29568" cx="0" cy="0" r="1" gradientUnits="userSpaceOnUse" gradientTransform="translate(36.1398 60.5186) rotate(151.7) scale(30.9366 9.64877)">
<stop stop-color="#440063" stop-opacity="0.75"/>
<stop offset="1" stop-color="#420061" stop-opacity="0"/>
</radialGradient>
<linearGradient id="paint6_linear_3796_29568" x1="41.2806" y1="22.9835" x2="45.956" y2="21.4904" gradientUnits="userSpaceOnUse">
<stop stop-color="#BD2719"/>
<stop offset="1" stop-color="#FF4E0D"/>
</linearGradient>
<linearGradient id="paint7_linear_3796_29568" x1="45.6275" y1="11.3831" x2="43.5342" y2="6.18248" gradientUnits="userSpaceOnUse">
<stop stop-color="#BD2719"/>
<stop offset="1" stop-color="#FF4E0D"/>
</linearGradient>
<linearGradient id="paint8_linear_3796_29568" x1="68.9102" y1="27.2672" x2="61.1132" y2="22.2711" gradientUnits="userSpaceOnUse">
<stop stop-color="#FFCB4B"/>
<stop offset="1" stop-color="#E81CA2"/>
</linearGradient>
<linearGradient id="paint9_linear_3796_29568" x1="48.9325" y1="17.078" x2="31.5114" y2="72.003" gradientUnits="userSpaceOnUse">
<stop offset="0.2544" stop-color="#FBE07A"/>
<stop offset="1" stop-color="#E81CA2"/>
</linearGradient>
<linearGradient id="paint10_linear_3796_29568" x1="54.6528" y1="29.6853" x2="27.9161" y2="48.4374" gradientUnits="userSpaceOnUse">
<stop stop-color="#FBE07A"/>
<stop offset="1" stop-color="white"/>
</linearGradient>
<linearGradient id="paint11_linear_3796_29568" x1="33.1313" y1="10.6275" x2="41.7665" y2="10.4967" gradientUnits="userSpaceOnUse">
<stop stop-color="#BD2719"/>
<stop offset="1" stop-color="#FF4E0D"/>
</linearGradient>
<linearGradient id="paint12_linear_3796_29568" x1="53.4584" y1="40.405" x2="51.3818" y2="44.131" gradientUnits="userSpaceOnUse">
<stop stop-color="#FF9214"/>
<stop offset="1" stop-color="#FF4E0D"/>
</linearGradient>
<linearGradient id="paint13_linear_3796_29568" x1="29.2001" y1="11.7648" x2="32.3401" y2="20.7487" gradientUnits="userSpaceOnUse">
<stop stop-color="#80DAFE"/>
<stop offset="1" stop-color="#008EE6"/>
</linearGradient>
<linearGradient id="paint14_linear_3796_29568" x1="61.2887" y1="29.2216" x2="60.5697" y2="20.159" gradientUnits="userSpaceOnUse">
<stop stop-color="#FFCB4B"/>
<stop offset="1" stop-color="#E81CA2"/>
</linearGradient>
<linearGradient id="paint15_linear_3796_29568" x1="53.6768" y1="33.0419" x2="58.6841" y2="33.853" gradientUnits="userSpaceOnUse">
<stop stop-color="#FFCB4B"/>
<stop offset="1" stop-color="#E81CA2"/>
</linearGradient>
<linearGradient id="paint16_linear_3796_29568" x1="50.236" y1="16.1036" x2="42.8076" y2="46.6733" gradientUnits="userSpaceOnUse">
<stop offset="0.2544" stop-color="#E100FF"/>
<stop offset="1" stop-color="#7000A3"/>
</linearGradient>
<linearGradient id="paint17_linear_3796_29568" x1="35.6254" y1="11.095" x2="41.1204" y2="20.2534" gradientUnits="userSpaceOnUse">
<stop stop-color="#FF9214"/>
<stop offset="1" stop-color="#FF4E0D"/>
</linearGradient>
<linearGradient id="paint18_linear_3796_29568" x1="41.509" y1="36.2323" x2="44.4743" y2="44.9547" gradientUnits="userSpaceOnUse">
<stop stop-color="#FFCB4B"/>
<stop offset="1" stop-color="#E81CA2"/>
</linearGradient>
<linearGradient id="paint19_linear_3796_29568" x1="51.4968" y1="4.26606" x2="56.3811" y2="12.2906" gradientUnits="userSpaceOnUse">
<stop stop-color="#FBE07A"/>
<stop offset="1" stop-color="#E81CA2"/>
</linearGradient>
<linearGradient id="paint20_linear_3796_29568" x1="46.4288" y1="19.0727" x2="47.6498" y2="23.6955" gradientUnits="userSpaceOnUse">
<stop stop-color="#80DAFE"/>
<stop offset="1" stop-color="#008EE6"/>
</linearGradient>
<linearGradient id="paint21_linear_3796_29568" x1="50.6477" y1="32.3269" x2="51.3931" y2="34.4594" gradientUnits="userSpaceOnUse">
<stop stop-color="#80DAFE"/>
<stop offset="1" stop-color="#008EE6"/>
</linearGradient>
<linearGradient id="paint22_linear_3796_29568" x1="71.8171" y1="30.0825" x2="70.4214" y2="34.531" gradientUnits="userSpaceOnUse">
<stop stop-color="#FFCB4B"/>
<stop offset="1" stop-color="#E81CA2"/>
</linearGradient>
<linearGradient id="paint23_linear_3796_29568" x1="66.049" y1="43.392" x2="66.485" y2="52.8993" gradientUnits="userSpaceOnUse">
<stop stop-color="#FFCB4B"/>
<stop offset="1" stop-color="#E81CA2"/>
</linearGradient>
<linearGradient id="paint24_linear_3796_29568" x1="62.5105" y1="36.8474" x2="63.2555" y2="38.9797" gradientUnits="userSpaceOnUse">
<stop offset="0.2544" stop-color="#9F00E8"/>
<stop offset="1" stop-color="#7000A3"/>
</linearGradient>
<linearGradient id="paint25_linear_3796_29568" x1="68.8239" y1="14.5034" x2="65.9455" y2="19.4751" gradientUnits="userSpaceOnUse">
<stop stop-color="#80DAFE"/>
<stop offset="1" stop-color="#008EE6"/>
</linearGradient>
<linearGradient id="paint26_linear_3796_29568" x1="58.3438" y1="18.5498" x2="59.3032" y2="23.8704" gradientUnits="userSpaceOnUse">
<stop stop-color="#FF9214"/>
<stop offset="1" stop-color="#FF4E0D"/>
</linearGradient>
<linearGradient id="paint27_linear_3796_29568" x1="43.9282" y1="45.4533" x2="71.7375" y2="46.0247" gradientUnits="userSpaceOnUse">
<stop stop-color="#80DAFE"/>
<stop offset="1" stop-color="#008EE6"/>
</linearGradient>
<linearGradient id="paint28_linear_3796_29568" x1="28.5658" y1="42.3597" x2="35.2325" y2="25.7883" gradientUnits="userSpaceOnUse">
<stop stop-color="#FBE07A"/>
<stop offset="1" stop-color="#E81CA2"/>
</linearGradient>
</defs>
</svg>
