<?xml version="1.0" encoding="UTF-8"?>
<svg width="35px" height="43px" viewBox="0 0 35 43" version="1.1" xmlns="http://www.w3.org/2000/svg" xmlns:xlink="http://www.w3.org/1999/xlink">
    <!-- Generator: sketchtool 52.5 (67469) - http://www.bohemiancoding.com/sketch -->
    <title>560163D0-D7E6-45AC-8489-8F35F228FD45@1.5x</title>
    <desc>Created with sketchtool.</desc>
    <g id="Pricing" stroke="none" stroke-width="1" fill="none" fill-rule="evenodd">
        <g id="01---Pricing_faq_expanded_A" transform="translate(-928.000000, -422.000000)" fill-rule="nonzero">
            <g id="Plans" transform="translate(256.000000, 292.000000)">
                <g id="Select" transform="translate(638.000000, 102.000000)">
                    <g id="Group-3">
                        <g id="Group-4" transform="translate(33.000000, 0.000000)">
                            <g id="Group-21">
                                <g id="Pay_per_hire" transform="translate(1.000000, 28.000000)">
                                    <path d="M1.4070889,14.0082381 C1.25384159,13.854826 1.04115841,13.7667026 0.824353448,13.7667026 C0.607548491,13.7667026 0.394947737,13.8549084 0.24153556,14.0082381 C0.0881233836,14.1615679 0,14.3742511 0,14.591056 C0,14.807861 0.0881233836,15.0205442 0.24153556,15.1737915 C0.394865302,15.3272037 0.607548491,15.4154095 0.824353448,15.4154095 C1.04115841,15.4154095 1.25384159,15.3272037 1.4070889,15.1737915 C1.56050108,15.0205442 1.6487069,14.807861 1.6487069,14.591056 C1.6487069,14.3742511 1.56050108,14.1615679 1.4070889,14.0082381 Z" id="Shape" fill="#4353FF"></path>
                                    <path d="M32.4795259,0 L15.8001352,0 C15.3449273,0 14.9757818,0.369145474 14.9757818,0.824353448 C14.9757818,1.27956142 15.3449273,1.6487069 15.8001352,1.6487069 L32.4795259,1.6487069 C32.9340744,1.6487069 33.3038793,2.01851185 33.3038793,2.47306034 L33.3038793,39.7338362 C33.3038793,40.1883847 32.9340744,40.5581897 32.4795259,40.5581897 L2.47306034,40.5581897 C2.01851185,40.5581897 1.6487069,40.1883847 1.6487069,39.7338362 L1.6487069,17.6686148 C1.6487069,17.2134068 1.27956142,16.8442613 0.824353448,16.8442613 C0.369145474,16.8442613 0,17.2134068 0,17.6686148 L0,39.7338362 C0,41.0974817 1.10941487,42.2068966 2.47306034,42.2068966 L32.4795259,42.2068966 C33.8431713,42.2068966 34.9525862,41.0974817 34.9525862,39.7338362 L34.9525862,2.47306034 C34.9525862,1.10941487 33.8431713,0 32.4795259,0 Z" id="Shape" fill="#4353FF"></path>
                                    <path d="M17.4762931,3.29741379 C16.915403,3.29741379 16.3517101,3.34028017 15.8008772,3.42469397 C15.3508626,3.49377478 15.0419774,3.91444235 15.1109758,4.3644569 C15.1799741,4.81447144 15.600889,5.1229445 16.0507387,5.0543583 C16.5192188,4.98247468 16.9988276,4.94612069 17.4762931,4.94612069 C22.612757,4.94612069 26.7915695,9.12493319 26.7915695,14.2613971 C26.7915695,16.5423831 25.9670512,18.6340151 24.6009327,20.255271 C23.9964343,19.2157613 23.1707619,18.3191121 22.1685954,17.6236051 C21.5837166,17.2176934 20.955312,16.8937225 20.2974779,16.6539181 C21.048299,15.9199962 21.515625,14.8972209 21.515625,13.7668675 L21.515625,12.9631228 C21.515625,10.7357198 19.7036137,8.92370851 17.4762931,8.92370851 C15.2489725,8.92370851 13.4369612,10.7357198 13.4369612,12.9631228 L13.4369612,13.7668675 C13.4369612,14.8972209 13.9042047,15.9199962 14.6551083,16.6539181 C13.9973567,16.8937225 13.368952,17.2176934 12.7839908,17.6236051 C11.7770431,18.3224919 10.9480733,19.2241697 10.342833,20.2699445 C9.30192188,19.0330022 8.57434752,17.5115754 8.28969828,15.8143141 C8.21443481,15.3654537 7.78898599,15.0625862 7.34037284,15.1376848 C6.89134752,15.2129483 6.58839763,15.6379849 6.6636611,16.0870102 C7.08754364,18.6144779 8.39966703,20.9279434 10.3584133,22.6011336 C12.339417,24.2934488 14.8672969,25.2254628 17.4762107,25.2254628 C23.5217716,25.2254628 28.440194,20.3070404 28.440194,14.2614795 C28.440194,8.21591864 23.521854,3.29741379 17.4762931,3.29741379 Z M15.0856681,12.9630404 C15.0856681,11.6448168 16.1581519,10.572333 17.4762931,10.572333 C18.7944343,10.572333 19.8669181,11.6448168 19.8669181,12.9630404 L19.8669181,13.766785 C19.8669181,15.0849262 18.7944343,16.15741 17.4762931,16.15741 C16.1581519,16.15741 15.0856681,15.0849262 15.0856681,13.766785 L15.0856681,12.9630404 Z M17.4762931,23.5766735 C15.2444386,23.5766735 13.1810819,22.7973297 11.5661735,21.476056 C12.6731153,19.229528 14.936048,17.8061169 17.4762931,17.8061169 C20.0112624,17.8061169 22.2699084,19.2236751 23.3793233,21.462042 C21.771257,22.7827387 19.7147425,23.5766735 17.4762931,23.5766735 Z" id="Shape" fill="#EDB726"></path>
                                    <path d="M25.0897742,32.8094321 L13.3839553,32.8094321 C12.9287473,32.8094321 12.5596018,33.1785776 12.5596018,33.6337856 C12.5596018,34.0889935 12.9287473,34.458139 13.3839553,34.458139 L25.0897742,34.458139 C25.5450647,34.458139 25.9141277,34.0889935 25.9141277,33.6337856 C25.9141277,33.1785776 25.5449822,32.8094321 25.0897742,32.8094321 Z" id="Shape" fill="#22DDAB"></path>
                                    <path d="M10.4453825,28.4344235 C10.2920528,28.2810113 10.0793696,28.1928879 9.86256466,28.1928879 C9.6457597,28.1928879 9.43307651,28.2810937 9.27974677,28.4344235 C9.12641703,28.5877532 9.03821121,28.8004364 9.03821121,29.0172414 C9.03821121,29.2347883 9.12649946,29.4467295 9.27974677,29.5999768 C9.43307651,29.753389 9.6457597,29.8415948 9.86256466,29.8415948 C10.0793696,29.8415948 10.2920528,29.753389 10.4453825,29.5999768 C10.5995366,29.4467295 10.6869181,29.2340463 10.6869181,29.0172414 C10.6869181,28.8004364 10.5995366,28.5877532 10.4453825,28.4344235 Z" id="Shape" fill="#22DDAB"></path>
                                    <path d="M10.4453825,33.0508028 C10.2920528,32.8973906 10.080194,32.8092672 9.86256466,32.8092672 C9.6457597,32.8092672 9.43307651,32.8974731 9.27974677,33.0508028 C9.12641703,33.2041325 9.03821121,33.4168157 9.03821121,33.6336207 C9.03821121,33.8511676 9.12649946,34.0631088 9.27974677,34.2163561 C9.43307651,34.3697683 9.6457597,34.4579741 9.86256466,34.4579741 C10.0793696,34.4579741 10.2920528,34.3697683 10.4453825,34.2163561 C10.5995366,34.0631088 10.6869181,33.85125 10.6869181,33.6336207 C10.6869181,33.4168157 10.5995366,33.2041325 10.4453825,33.0508028 Z" id="Shape" fill="#22DDAB"></path>
                                    <path d="M25.0897742,28.1930528 L13.3839553,28.1930528 C12.9287473,28.1930528 12.5596018,28.5621983 12.5596018,29.0174063 C12.5596018,29.4726142 12.9287473,29.8417597 13.3839553,29.8417597 L25.0897742,29.8417597 C25.5450647,29.8417597 25.9141277,29.4726142 25.9141277,29.0174063 C25.9141277,28.5621983 25.5449822,28.1930528 25.0897742,28.1930528 Z" id="Shape" fill="#22DDAB"></path>
                                    <path d="M9.69653987,4.75066649 C9.37446498,4.4288389 8.85264925,4.4288389 8.53065679,4.75066649 L5.84606735,7.43525593 L4.9286444,6.51783297 C4.6065695,6.19600539 4.08475377,6.19600539 3.76276131,6.51783297 C3.44085129,6.83982543 3.44085129,7.36180603 3.76276131,7.68371606 L5.26308459,9.18403933 C5.42408082,9.34495313 5.63495043,9.42549246 5.84598491,9.42549246 C6.0570194,9.42549246 6.26788901,9.34495313 6.42896767,9.18412177 L9.69653987,5.91654957 C10.0184499,5.59455711 10.0184499,5.07257651 9.69653987,4.75066649 Z" id="Shape" fill="#4353FF"></path>
                                    <path d="M6.75969828,0 C3.03238416,0 0,3.03238416 0,6.75969828 C0,10.4870124 3.03238416,13.5193966 6.75969828,13.5193966 C10.4870124,13.5193966 13.5193966,10.4870124 13.5193966,6.75969828 C13.5193966,3.03238416 10.4870124,0 6.75969828,0 Z M6.75969828,11.8706897 C3.94148114,11.8706897 1.6487069,9.57791541 1.6487069,6.75969828 C1.6487069,3.94148114 3.94148114,1.6487069 6.75969828,1.6487069 C9.57791541,1.6487069 11.8706897,3.94148114 11.8706897,6.75969828 C11.8706897,9.57791541 9.57791541,11.8706897 6.75969828,11.8706897 Z" id="Shape" fill="#4353FF"></path>
                                </g>
                            </g>
                        </g>
                    </g>
                </g>
            </g>
        </g>
    </g>
</svg>