<svg width="24" height="24" viewBox="0 0 24 24" fill="none" xmlns="http://www.w3.org/2000/svg">
<path d="M4 10H3.5V10.5V16.5C3.5 16.8978 3.65804 17.2794 3.93934 17.5607C4.22065 17.842 4.60218 18 5 18H19C19.3978 18 19.7794 17.842 20.0607 17.5607C20.342 17.2794 20.5 16.8978 20.5 16.5V10.5V10H20H4ZM20 9H20.5V8.5V7.5C20.5 7.10218 20.342 6.72065 20.0607 6.43934C19.7794 6.15804 19.3978 6 19 6H5C4.60217 6 4.22064 6.15804 3.93934 6.43934C3.65804 6.72064 3.5 7.10217 3.5 7.5V8.5V9H4H20ZM10 14H7C6.86739 14 6.74022 13.9473 6.64645 13.8536C6.55268 13.7598 6.5 13.6326 6.5 13.5C6.5 13.3674 6.55268 13.2402 6.64645 13.1464C6.74022 13.0527 6.86739 13 7 13H10C10.1326 13 10.2598 13.0527 10.3536 13.1464C10.4473 13.2402 10.5 13.3674 10.5 13.5C10.5 13.6326 10.4473 13.7598 10.3536 13.8536C10.2598 13.9473 10.1326 14 10 14ZM5 5H19C19.663 5 20.2989 5.26339 20.7678 5.73223C21.2366 6.20107 21.5 6.83696 21.5 7.5V16.5C21.5 17.163 21.2366 17.7989 20.7678 18.2678C20.2989 18.7366 19.663 19 19 19H5C4.33696 19 3.70107 18.7366 3.23223 18.2678C2.76339 17.7989 2.5 17.163 2.5 16.5V7.5C2.5 6.83696 2.76339 6.20107 3.23223 5.73223C3.70107 5.26339 4.33696 5 5 5Z" fill="#5B3F91" stroke="#5B3F91"/>
</svg>
