<svg width="24" height="24" viewBox="0 0 24 24" fill="none" xmlns="http://www.w3.org/2000/svg">
<path d="M4 10.4H3.9V10.5V16.5C3.9 16.7917 4.01589 17.0715 4.22218 17.2778C4.42847 17.4841 4.70826 17.6 5 17.6H19C19.2917 17.6 19.5715 17.4841 19.7778 17.2778C19.9841 17.0715 20.1 16.7917 20.1 16.5V10.5V10.4H20H4ZM20 8.6H20.1V8.5V7.5C20.1 7.20826 19.9841 6.92847 19.7778 6.72218C19.5715 6.51589 19.2917 6.4 19 6.4H5C4.70826 6.4 4.42847 6.51589 4.22218 6.72218C4.01589 6.92847 3.9 7.20826 3.9 7.5V8.5V8.6H4H20ZM10 14.4H7C6.76131 14.4 6.53239 14.3052 6.3636 14.1364C6.19482 13.9676 6.1 13.7387 6.1 13.5C6.1 13.2613 6.19482 13.0324 6.3636 12.8636C6.53239 12.6948 6.76131 12.6 7 12.6H10C10.2387 12.6 10.4676 12.6948 10.6364 12.8636C10.8052 13.0324 10.9 13.2613 10.9 13.5C10.9 13.7387 10.8052 13.9676 10.6364 14.1364C10.4676 14.3052 10.2387 14.4 10 14.4ZM5 4.6H19C19.7691 4.6 20.5068 4.90553 21.0506 5.44939C21.5945 5.99325 21.9 6.73087 21.9 7.5V16.5C21.9 17.2691 21.5945 18.0068 21.0506 18.5506C20.5068 19.0945 19.7691 19.4 19 19.4H5C4.23087 19.4 3.49325 19.0945 2.94939 18.5506C2.40553 18.0068 2.1 17.2691 2.1 16.5V7.5C2.1 6.73087 2.40553 5.99325 2.94939 5.44939C3.49325 4.90553 4.23087 4.6 5 4.6Z" fill="#5B3F91" stroke="#5B3F91" stroke-width="0.2"/>
</svg>
