<svg width="187" height="120" viewBox="0 0 187 120" fill="none" xmlns="http://www.w3.org/2000/svg">
<rect x="38" y="8" width="112" height="154.913" rx="2.43478" fill="#FFEFFE"/>
<path d="M47.0843 33.5496C47.8537 33.5496 48.2895 33.1649 48.2895 32.527C48.2895 31.8891 47.8537 31.5044 47.0843 31.5044H45.789V34.9131H46.2175V33.5496H47.0843ZM47.0745 31.9086C47.5785 31.9086 47.8439 32.1131 47.8439 32.527C47.8439 32.9409 47.5785 33.1454 47.0745 33.1454H46.2175V31.9086H47.0745ZM49.3515 31.407H48.9546V34.9131H49.3515V31.407ZM52.3919 32.6H51.9926V32.9117C51.81 32.6926 51.5398 32.5513 51.177 32.5513C50.5269 32.5513 50.0205 33.0578 50.0205 33.7566C50.0205 34.4553 50.5269 34.9618 51.177 34.9618C51.5398 34.9618 51.81 34.8206 51.9926 34.6039V34.9131H52.3919V32.6ZM51.2232 32.9263C51.6907 32.9263 52.017 33.2842 52.017 33.7566C52.017 34.2313 51.6907 34.5893 51.2232 34.5893C50.7485 34.5893 50.4271 34.2167 50.4271 33.7566C50.4271 33.2964 50.7412 32.9263 51.2232 32.9263ZM54.3861 32.5513C54.1183 32.5513 53.8188 32.6414 53.6289 32.902V32.6H53.2345V34.9131H53.6314V33.6153C53.6314 33.1844 53.943 32.9287 54.3155 32.9287C54.7173 32.9287 54.951 33.1795 54.951 33.6056V34.9131H55.3503V33.4766C55.3503 32.9214 54.9559 32.5513 54.3861 32.5513ZM59.6678 32.6H59.2685V32.9117C59.0858 32.6926 58.8156 32.5513 58.4528 32.5513C57.8027 32.5513 57.2963 33.0578 57.2963 33.7566C57.2963 34.4553 57.8027 34.9618 58.4528 34.9618C58.8156 34.9618 59.0858 34.8206 59.2685 34.6039V34.9131H59.6678V32.6ZM58.4991 32.9263C58.9665 32.9263 59.2928 33.2842 59.2928 33.7566C59.2928 34.2313 58.9665 34.5893 58.4991 34.5893C58.0243 34.5893 57.7029 34.2167 57.7029 33.7566C57.7029 33.2964 58.017 32.9263 58.4991 32.9263ZM61.662 32.5513C61.3941 32.5513 61.0947 32.6414 60.9047 32.902V32.6H60.5103V34.9131H60.9072V33.6153C60.9072 33.1844 61.2188 32.9287 61.5914 32.9287C61.9931 32.9287 62.2268 33.1795 62.2268 33.6056V34.9131H62.6261V33.4766C62.6261 32.9214 62.2317 32.5513 61.662 32.5513ZM64.4256 32.5513C63.7755 32.5513 63.2691 33.0578 63.2691 33.7566C63.2691 34.4553 63.7755 34.9618 64.4256 34.9618C64.7884 34.9618 65.0587 34.8206 65.2413 34.6039V34.9131H65.6406V31.407H65.2413V32.9117C65.0587 32.6926 64.7884 32.5513 64.4256 32.5513ZM64.4719 32.9263C64.9394 32.9263 65.2656 33.2842 65.2656 33.7566C65.2656 34.2313 64.9394 34.5893 64.4719 34.5893C63.9971 34.5893 63.6757 34.2167 63.6757 33.7566C63.6757 33.2964 63.9898 32.9263 64.4719 32.9263ZM69.3185 32.6H68.347V31.8745H67.9477V32.6H67.4535V32.9628H67.9477V34.0974C67.9477 34.6867 68.2472 34.9618 68.7488 34.9618C69.0336 34.9618 69.2649 34.862 69.4427 34.7329L69.2552 34.4334C69.1237 34.5235 68.9533 34.5893 68.7829 34.5893C68.5321 34.5893 68.347 34.4383 68.347 34.0901V32.9628H69.3185V32.6ZM72.146 32.6H71.7467V32.9117C71.5641 32.6926 71.2938 32.5513 70.9311 32.5513C70.281 32.5513 69.7745 33.0578 69.7745 33.7566C69.7745 34.4553 70.281 34.9618 70.9311 34.9618C71.2938 34.9618 71.5641 34.8206 71.7467 34.6039V34.9131H72.146V32.6ZM70.9773 32.9263C71.4448 32.9263 71.7711 33.2842 71.7711 33.7566C71.7711 34.2313 71.4448 34.5893 70.9773 34.5893C70.5025 34.5893 70.1811 34.2167 70.1811 33.7566C70.1811 33.2964 70.4952 32.9263 70.9773 32.9263ZM74.0136 32.5513C73.2978 32.5513 72.8133 33.07 72.8133 33.7566C72.8133 34.4432 73.2978 34.9618 74.0136 34.9618C74.3569 34.9618 74.6637 34.8352 74.8731 34.599L74.6272 34.3239C74.4665 34.4797 74.2498 34.5893 74.0039 34.5893C73.5583 34.5893 73.2199 34.2411 73.2199 33.7566C73.2199 33.272 73.5583 32.9263 74.0039 32.9263C74.2498 32.9263 74.447 33.0213 74.6174 33.1868L74.8731 32.9166C74.6661 32.678 74.3569 32.5513 74.0136 32.5513ZM77.0889 32.6H76.1174V31.8745H75.7181V32.6H75.2239V32.9628H75.7181V34.0974C75.7181 34.6867 76.0176 34.9618 76.5192 34.9618C76.804 34.9618 77.0353 34.862 77.2131 34.7329L77.0256 34.4334C76.8941 34.5235 76.7237 34.5893 76.5532 34.5893C76.3025 34.5893 76.1174 34.4383 76.1174 34.0901V32.9628H77.0889V32.6ZM78.1218 32.6H77.725V34.9131H78.1218V32.6ZM77.9198 31.502C77.7615 31.502 77.6398 31.6261 77.6398 31.7868C77.6398 31.9451 77.7615 32.0644 77.9198 32.0644C78.078 32.0644 78.2046 31.9451 78.2046 31.7868C78.2046 31.6261 78.078 31.502 77.9198 31.502ZM79.9912 32.5513C79.2754 32.5513 78.7908 33.07 78.7908 33.7566C78.7908 34.4432 79.2754 34.9618 79.9912 34.9618C80.3345 34.9618 80.6413 34.8352 80.8507 34.599L80.6048 34.3239C80.4441 34.4797 80.2274 34.5893 79.9815 34.5893C79.5359 34.5893 79.1975 34.2411 79.1975 33.7566C79.1975 33.272 79.5359 32.9263 79.9815 32.9263C80.2274 32.9263 80.4246 33.0213 80.595 33.1868L80.8507 32.9166C80.6437 32.678 80.3345 32.5513 79.9912 32.5513ZM83.1939 32.8046C82.9699 32.6512 82.6363 32.5538 82.2711 32.5538C81.7087 32.5538 81.341 32.8216 81.341 33.2647C81.341 33.6153 81.5918 33.8491 82.1104 33.9124L82.3782 33.944C82.6923 33.983 82.8433 34.0901 82.8433 34.2606C82.8433 34.4894 82.6095 34.6136 82.2297 34.6136C81.8426 34.6136 81.6113 34.5016 81.4384 34.3677L81.2534 34.6647C81.5577 34.8936 81.9424 34.9618 82.2273 34.9618C82.8579 34.9618 83.2523 34.6769 83.2523 34.2362C83.2523 33.854 82.9626 33.647 82.4708 33.5813L82.2029 33.5472C81.9229 33.5131 81.7549 33.4279 81.7549 33.2428C81.7549 33.0334 81.9594 32.8995 82.276 32.8995C82.5803 32.8995 82.8749 33.014 83.021 33.1138L83.1939 32.8046ZM86.7186 32.6H85.7472V31.8745H85.3479V32.6H84.8536V32.9628H85.3479V34.0974C85.3479 34.6867 85.6473 34.9618 86.1489 34.9618C86.4338 34.9618 86.6651 34.862 86.8428 34.7329L86.6553 34.4334C86.5239 34.5235 86.3534 34.5893 86.183 34.5893C85.9322 34.5893 85.7472 34.4383 85.7472 34.0901V32.9628H86.7186V32.6ZM88.3969 32.5513C87.6957 32.5513 87.1747 33.07 87.1747 33.7566C87.1747 34.4432 87.6957 34.9618 88.3969 34.9618C89.0982 34.9618 89.6216 34.4432 89.6216 33.7566C89.6216 33.07 89.0982 32.5513 88.3969 32.5513ZM88.3969 32.9263C88.8595 32.9263 89.2126 33.272 89.2126 33.7566C89.2126 34.2411 88.8595 34.5893 88.3969 34.5893C87.9319 34.5893 87.5813 34.2411 87.5813 33.7566C87.5813 33.272 87.9319 32.9263 88.3969 32.9263ZM91.9887 31.407H91.5918V34.9131H91.9887V33.6153C91.9887 33.1844 92.3004 32.9287 92.6729 32.9287C93.0746 32.9287 93.3084 33.1795 93.3084 33.6056V34.9131H93.7077V33.4766C93.7077 32.9214 93.3132 32.5513 92.7435 32.5513C92.4757 32.5513 92.1786 32.639 91.9887 32.8995V31.407ZM95.4998 32.5513C94.8351 32.5513 94.3506 33.0456 94.3506 33.7566C94.3506 34.4773 94.8376 34.9618 95.5242 34.9618C95.8651 34.9618 96.1865 34.879 96.4738 34.6112L96.2619 34.3385C96.0647 34.5089 95.8188 34.6136 95.5485 34.6136C95.1517 34.6136 94.8181 34.3774 94.7621 33.8978H96.5809C96.5833 33.854 96.5882 33.8004 96.5882 33.7493C96.5833 33.0407 96.1305 32.5513 95.4998 32.5513ZM95.4925 32.9044C95.8675 32.9044 96.1329 33.1673 96.1816 33.5764H94.767C94.8278 33.182 95.0835 32.9044 95.4925 32.9044ZM97.6524 31.407H97.2556V34.9131H97.6524V31.407ZM99.7092 32.5513C99.344 32.5513 99.0738 32.6926 98.8936 32.9093V32.6H98.4967V35.887H98.8936V34.6039C99.0738 34.8206 99.344 34.9618 99.7092 34.9618C100.357 34.9618 100.866 34.4553 100.866 33.7566C100.866 33.0578 100.357 32.5513 99.7092 32.5513ZM99.663 32.9263C100.135 32.9263 100.457 33.2964 100.457 33.7566C100.457 34.2167 100.143 34.5893 99.663 34.5893C99.1955 34.5893 98.8692 34.2313 98.8692 33.7566C98.8692 33.2842 99.1955 32.9263 99.663 32.9263ZM104.879 32.6H104.44L103.649 34.022L102.816 32.6H102.371L103.425 34.4188L102.57 35.8992H103.011L104.879 32.6ZM106.339 32.5513C105.638 32.5513 105.117 33.07 105.117 33.7566C105.117 34.4432 105.638 34.9618 106.339 34.9618C107.04 34.9618 107.564 34.4432 107.564 33.7566C107.564 33.07 107.04 32.5513 106.339 32.5513ZM106.339 32.9263C106.802 32.9263 107.155 33.272 107.155 33.7566C107.155 34.2411 106.802 34.5893 106.339 34.5893C105.874 34.5893 105.524 34.2411 105.524 33.7566C105.524 33.272 105.874 32.9263 106.339 32.9263ZM110.318 32.6H109.918V33.9075C109.918 34.3799 109.638 34.5893 109.263 34.5893C108.886 34.5893 108.606 34.3799 108.606 33.9075V32.6H108.207V33.944C108.207 34.6428 108.706 34.9618 109.263 34.9618C109.816 34.9618 110.318 34.6428 110.318 33.944V32.6ZM112.206 32.5513C111.93 32.5513 111.689 32.678 111.529 32.9044V32.6H111.137V34.9131H111.534V33.6251C111.534 33.199 111.782 32.9287 112.135 32.9287C112.266 32.9287 112.422 32.9604 112.532 33.0188L112.629 32.6268C112.505 32.5733 112.371 32.5513 112.206 32.5513ZM117.296 32.5513C116.982 32.5513 116.624 32.6658 116.434 33.0164C116.28 32.7267 115.971 32.5513 115.579 32.5513C115.311 32.5513 115.012 32.6414 114.822 32.902V32.6H114.427V34.9131H114.824V33.6153C114.824 33.1844 115.136 32.9287 115.508 32.9287C115.91 32.9287 116.144 33.1795 116.144 33.6056V34.9131H116.543V33.6153C116.543 33.1941 116.843 32.9287 117.225 32.9287C117.627 32.9287 117.86 33.1795 117.86 33.6056V34.9131H118.26V33.4766C118.26 32.9214 117.868 32.5513 117.296 32.5513ZM121.274 32.6H120.875V32.9117C120.692 32.6926 120.422 32.5513 120.059 32.5513C119.409 32.5513 118.903 33.0578 118.903 33.7566C118.903 34.4553 119.409 34.9618 120.059 34.9618C120.422 34.9618 120.692 34.8206 120.875 34.6039V34.9131H121.274V32.6ZM120.106 32.9263C120.573 32.9263 120.899 33.2842 120.899 33.7566C120.899 34.2313 120.573 34.5893 120.106 34.5893C119.631 34.5893 119.31 34.2167 119.31 33.7566C119.31 33.2964 119.624 32.9263 120.106 32.9263ZM123.186 32.5513C122.911 32.5513 122.67 32.678 122.509 32.9044V32.6H122.117V34.9131H122.514V33.6251C122.514 33.199 122.762 32.9287 123.115 32.9287C123.247 32.9287 123.403 32.9604 123.512 33.0188L123.609 32.6268C123.485 32.5733 123.351 32.5513 123.186 32.5513ZM124.554 31.407H124.157V34.9131H124.554V33.8856H124.868L125.742 34.9131H126.246L125.199 33.6908L126.231 32.6H125.73L124.87 33.5253H124.554V31.407ZM127.628 32.5513C126.963 32.5513 126.478 33.0456 126.478 33.7566C126.478 34.4773 126.965 34.9618 127.652 34.9618C127.993 34.9618 128.314 34.879 128.601 34.6112L128.39 34.3385C128.192 34.5089 127.947 34.6136 127.676 34.6136C127.279 34.6136 126.946 34.3774 126.89 33.8978H128.709C128.711 33.854 128.716 33.8004 128.716 33.7493C128.711 33.0407 128.258 32.5513 127.628 32.5513ZM127.62 32.9044C127.995 32.9044 128.261 33.1673 128.309 33.5764H126.895C126.956 33.182 127.211 32.9044 127.62 32.9044ZM130.93 32.6H129.958V31.8745H129.559V32.6H129.065V32.9628H129.559V34.0974C129.559 34.6867 129.859 34.9618 130.36 34.9618C130.645 34.9618 130.876 34.862 131.054 34.7329L130.867 34.4334C130.735 34.5235 130.565 34.5893 130.394 34.5893C130.143 34.5893 129.958 34.4383 129.958 34.0901V32.9628H130.93V32.6ZM131.963 32.6H131.566V34.9131H131.963V32.6ZM131.761 31.502C131.603 31.502 131.481 31.6261 131.481 31.7868C131.481 31.9451 131.603 32.0644 131.761 32.0644C131.919 32.0644 132.046 31.9451 132.046 31.7868C132.046 31.6261 131.919 31.502 131.761 31.502ZM133.959 32.5513C133.691 32.5513 133.392 32.6414 133.202 32.902V32.6H132.807V34.9131H133.204V33.6153C133.204 33.1844 133.516 32.9287 133.888 32.9287C134.29 32.9287 134.524 33.1795 134.524 33.6056V34.9131H134.923V33.4766C134.923 32.9214 134.529 32.5513 133.959 32.5513ZM136.71 32.5513C136.06 32.5513 135.566 33.0334 135.566 33.7371C135.566 34.4432 136.06 34.9253 136.71 34.9253C137.068 34.9253 137.331 34.7865 137.507 34.5649V34.7694C137.507 35.2832 137.173 35.5632 136.676 35.5632C136.377 35.5632 136.102 35.4633 135.88 35.3051L135.707 35.6265C135.943 35.8164 136.316 35.926 136.676 35.926C137.407 35.926 137.906 35.4999 137.906 34.7524V32.6H137.507V32.9141C137.331 32.6926 137.068 32.5513 136.71 32.5513ZM136.757 32.9263C137.217 32.9263 137.541 33.2769 137.541 33.7371C137.541 34.1997 137.217 34.5503 136.757 34.5503C136.282 34.5503 135.973 34.1875 135.973 33.7371C135.973 33.2915 136.282 32.9263 136.757 32.9263ZM46.9382 38.5513C46.573 38.5513 46.3027 38.6926 46.1225 38.9093V38.6H45.7257V41.887H46.1225V40.6039C46.3027 40.8206 46.573 40.9618 46.9382 40.9618C47.5858 40.9618 48.0947 40.4553 48.0947 39.7566C48.0947 39.0578 47.5858 38.5513 46.9382 38.5513ZM46.8919 38.9263C47.3643 38.9263 47.6857 39.2964 47.6857 39.7566C47.6857 40.2167 47.3716 40.5893 46.8919 40.5893C46.4244 40.5893 46.0982 40.2313 46.0982 39.7566C46.0982 39.2842 46.4244 38.9263 46.8919 38.9263ZM49.1565 37.407H48.7596V40.9131H49.1565V37.407ZM52.197 38.6H51.7977V38.9117C51.6151 38.6926 51.3448 38.5513 50.982 38.5513C50.3319 38.5513 49.8255 39.0578 49.8255 39.7566C49.8255 40.4553 50.3319 40.9618 50.982 40.9618C51.3448 40.9618 51.6151 40.8206 51.7977 40.6039V40.9131H52.197V38.6ZM51.0283 38.9263C51.4958 38.9263 51.822 39.2842 51.822 39.7566C51.822 40.2313 51.4958 40.5893 51.0283 40.5893C50.5535 40.5893 50.2321 40.2167 50.2321 39.7566C50.2321 39.2964 50.5462 38.9263 51.0283 38.9263ZM54.1912 38.5513C53.9233 38.5513 53.6239 38.6414 53.434 38.902V38.6H53.0395V40.9131H53.4364V39.6153C53.4364 39.1844 53.748 38.9287 54.1206 38.9287C54.5223 38.9287 54.756 39.1795 54.756 39.6056V40.9131H55.1553V39.4766C55.1553 38.9214 54.7609 38.5513 54.1912 38.5513ZM59.4728 38.6H59.0735V38.9117C58.8909 38.6926 58.6206 38.5513 58.2578 38.5513C57.6077 38.5513 57.1013 39.0578 57.1013 39.7566C57.1013 40.4553 57.6077 40.9618 58.2578 40.9618C58.6206 40.9618 58.8909 40.8206 59.0735 40.6039V40.9131H59.4728V38.6ZM58.3041 38.9263C58.7716 38.9263 59.0978 39.2842 59.0978 39.7566C59.0978 40.2313 58.7716 40.5893 58.3041 40.5893C57.8293 40.5893 57.5079 40.2167 57.5079 39.7566C57.5079 39.2964 57.822 38.9263 58.3041 38.9263ZM61.467 38.5513C61.1992 38.5513 60.8997 38.6414 60.7098 38.902V38.6H60.3153V40.9131H60.7122V39.6153C60.7122 39.1844 61.0239 38.9287 61.3964 38.9287C61.7981 38.9287 62.0319 39.1795 62.0319 39.6056V40.9131H62.4312V39.4766C62.4312 38.9214 62.0367 38.5513 61.467 38.5513ZM64.2307 38.5513C63.5806 38.5513 63.0741 39.0578 63.0741 39.7566C63.0741 40.4553 63.5806 40.9618 64.2307 40.9618C64.5934 40.9618 64.8637 40.8206 65.0463 40.6039V40.9131H65.4456V37.407H65.0463V38.9117C64.8637 38.6926 64.5934 38.5513 64.2307 38.5513ZM64.2769 38.9263C64.7444 38.9263 65.0707 39.2842 65.0707 39.7566C65.0707 40.2313 64.7444 40.5893 64.2769 40.5893C63.8021 40.5893 63.4807 40.2167 63.4807 39.7566C63.4807 39.2964 63.7948 38.9263 64.2769 38.9263ZM67.988 38.6H67.5911V40.9131H67.988V38.6ZM67.7859 37.502C67.6277 37.502 67.5059 37.6261 67.5059 37.7868C67.5059 37.9451 67.6277 38.0644 67.7859 38.0644C67.9442 38.0644 68.0708 37.9451 68.0708 37.7868C68.0708 37.6261 67.9442 37.502 67.7859 37.502ZM69.984 38.5513C69.7161 38.5513 69.4167 38.6414 69.2268 38.902V38.6H68.8323V40.9131H69.2292V39.6153C69.2292 39.1844 69.5408 38.9287 69.9134 38.9287C70.3151 38.9287 70.5488 39.1795 70.5488 39.6056V40.9131H70.9481V39.4766C70.9481 38.9214 70.5537 38.5513 69.984 38.5513ZM72.7915 38.5513C72.0756 38.5513 71.5911 39.07 71.5911 39.7566C71.5911 40.4432 72.0756 40.9618 72.7915 40.9618C73.1348 40.9618 73.4416 40.8352 73.6509 40.599L73.405 40.3239C73.2443 40.4797 73.0276 40.5893 72.7817 40.5893C72.3362 40.5893 71.9977 40.2411 71.9977 39.7566C71.9977 39.272 72.3362 38.9263 72.7817 38.9263C73.0276 38.9263 73.2249 39.0213 73.3953 39.1868L73.6509 38.9166C73.444 38.678 73.1348 38.5513 72.7915 38.5513ZM75.3319 38.5513C75.0568 38.5513 74.8157 38.678 74.655 38.9044V38.6H74.263V40.9131H74.6599V39.6251C74.6599 39.199 74.9082 38.9287 75.2613 38.9287C75.3928 38.9287 75.5486 38.9604 75.6582 39.0188L75.7555 38.6268C75.6314 38.5733 75.4975 38.5513 75.3319 38.5513ZM77.1819 38.5513C76.5172 38.5513 76.0327 39.0456 76.0327 39.7566C76.0327 40.4773 76.5196 40.9618 77.2063 40.9618C77.5471 40.9618 77.8685 40.879 78.1558 40.6112L77.944 40.3385C77.7468 40.5089 77.5009 40.6136 77.2306 40.6136C76.8337 40.6136 76.5002 40.3774 76.4442 39.8978H78.263C78.2654 39.854 78.2703 39.8004 78.2703 39.7493C78.2654 39.0407 77.8125 38.5513 77.1819 38.5513ZM77.1746 38.9044C77.5496 38.9044 77.815 39.1673 77.8636 39.5764H76.449C76.5099 39.182 76.7656 38.9044 77.1746 38.9044ZM81.1338 38.6H80.7345V38.9117C80.5519 38.6926 80.2816 38.5513 79.9188 38.5513C79.2687 38.5513 78.7623 39.0578 78.7623 39.7566C78.7623 40.4553 79.2687 40.9618 79.9188 40.9618C80.2816 40.9618 80.5519 40.8206 80.7345 40.6039V40.9131H81.1338V38.6ZM79.9651 38.9263C80.4326 38.9263 80.7588 39.2842 80.7588 39.7566C80.7588 40.2313 80.4326 40.5893 79.9651 40.5893C79.4903 40.5893 79.1689 40.2167 79.1689 39.7566C79.1689 39.2964 79.483 38.9263 79.9651 38.9263ZM83.7075 38.8046C83.4835 38.6512 83.1499 38.5538 82.7847 38.5538C82.2223 38.5538 81.8546 38.8216 81.8546 39.2647C81.8546 39.6153 82.1054 39.8491 82.624 39.9124L82.8918 39.944C83.2059 39.983 83.3569 40.0901 83.3569 40.2606C83.3569 40.4894 83.1231 40.6136 82.7433 40.6136C82.3562 40.6136 82.1249 40.5016 81.952 40.3677L81.7669 40.6647C82.0713 40.8936 82.456 40.9618 82.7409 40.9618C83.3715 40.9618 83.7659 40.6769 83.7659 40.2362C83.7659 39.854 83.4762 39.647 82.9843 39.5813L82.7165 39.5472C82.4365 39.5131 82.2685 39.4279 82.2685 39.2428C82.2685 39.0334 82.473 38.8995 82.7896 38.8995C83.0939 38.8995 83.3885 39.014 83.5346 39.1138L83.7075 38.8046ZM85.3708 38.5513C84.7061 38.5513 84.2216 39.0456 84.2216 39.7566C84.2216 40.4773 84.7085 40.9618 85.3951 40.9618C85.736 40.9618 86.0574 40.879 86.3447 40.6112L86.1329 40.3385C85.9356 40.5089 85.6897 40.6136 85.4195 40.6136C85.0226 40.6136 84.689 40.3774 84.633 39.8978H86.4518C86.4542 39.854 86.4591 39.8004 86.4591 39.7493C86.4542 39.0407 86.0014 38.5513 85.3708 38.5513ZM85.3635 38.9044C85.7384 38.9044 86.0038 39.1673 86.0525 39.5764H84.6379C84.6988 39.182 84.9544 38.9044 85.3635 38.9044ZM90.4744 38.6H90.0362L89.2448 40.022L88.4122 38.6H87.9666L89.0208 40.4188L88.1662 41.8992H88.6069L90.4744 38.6ZM91.935 38.5513C91.2338 38.5513 90.7127 39.07 90.7127 39.7566C90.7127 40.4432 91.2338 40.9618 91.935 40.9618C92.6362 40.9618 93.1597 40.4432 93.1597 39.7566C93.1597 39.07 92.6362 38.5513 91.935 38.5513ZM91.935 38.9263C92.3976 38.9263 92.7506 39.272 92.7506 39.7566C92.7506 40.2411 92.3976 40.5893 91.935 40.5893C91.4699 40.5893 91.1193 40.2411 91.1193 39.7566C91.1193 39.272 91.4699 38.9263 91.935 38.9263ZM95.9135 38.6H95.5142V39.9075C95.5142 40.3799 95.2342 40.5893 94.8592 40.5893C94.4818 40.5893 94.2018 40.3799 94.2018 39.9075V38.6H93.8025V39.944C93.8025 40.6428 94.3017 40.9618 94.8592 40.9618C95.4119 40.9618 95.9135 40.6428 95.9135 39.944V38.6ZM97.8013 38.5513C97.5262 38.5513 97.2852 38.678 97.1245 38.9044V38.6H96.7325V40.9131H97.1293V39.6251C97.1293 39.199 97.3777 38.9287 97.7307 38.9287C97.8622 38.9287 98.018 38.9604 98.1276 39.0188L98.225 38.6268C98.1008 38.5733 97.9669 38.5513 97.8013 38.5513ZM101.236 38.5513C100.871 38.5513 100.6 38.6926 100.42 38.9093V38.6H100.023V41.887H100.42V40.6039C100.6 40.8206 100.871 40.9618 101.236 40.9618C101.883 40.9618 102.392 40.4553 102.392 39.7566C102.392 39.0578 101.883 38.5513 101.236 38.5513ZM101.189 38.9263C101.662 38.9263 101.983 39.2964 101.983 39.7566C101.983 40.2167 101.669 40.5893 101.189 40.5893C100.722 40.5893 100.396 40.2313 100.396 39.7566C100.396 39.2842 100.722 38.9263 101.189 38.9263ZM104.126 38.5513C103.851 38.5513 103.61 38.678 103.449 38.9044V38.6H103.057V40.9131H103.454V39.6251C103.454 39.199 103.702 38.9287 104.055 38.9287C104.187 38.9287 104.343 38.9604 104.452 39.0188L104.55 38.6268C104.426 38.5733 104.292 38.5513 104.126 38.5513ZM106.049 38.5513C105.348 38.5513 104.827 39.07 104.827 39.7566C104.827 40.4432 105.348 40.9618 106.049 40.9618C106.75 40.9618 107.274 40.4432 107.274 39.7566C107.274 39.07 106.75 38.5513 106.049 38.5513ZM106.049 38.9263C106.512 38.9263 106.865 39.272 106.865 39.7566C106.865 40.2411 106.512 40.5893 106.049 40.5893C105.584 40.5893 105.233 40.2411 105.233 39.7566C105.233 39.272 105.584 38.9263 106.049 38.9263ZM108.922 38.5513C108.272 38.5513 107.766 39.0578 107.766 39.7566C107.766 40.4553 108.272 40.9618 108.922 40.9618C109.285 40.9618 109.555 40.8206 109.738 40.6039V40.9131H110.137V37.407H109.738V38.9117C109.555 38.6926 109.285 38.5513 108.922 38.5513ZM108.968 38.9263C109.436 38.9263 109.762 39.2842 109.762 39.7566C109.762 40.2313 109.436 40.5893 108.968 40.5893C108.494 40.5893 108.172 40.2167 108.172 39.7566C108.172 39.2964 108.486 38.9263 108.968 38.9263ZM113.066 38.6H112.667V39.9075C112.667 40.3799 112.387 40.5893 112.012 40.5893C111.635 40.5893 111.355 40.3799 111.355 39.9075V38.6H110.955V39.944C110.955 40.6428 111.455 40.9618 112.012 40.9618C112.565 40.9618 113.066 40.6428 113.066 39.944V38.6ZM114.91 38.5513C114.195 38.5513 113.71 39.07 113.71 39.7566C113.71 40.4432 114.195 40.9618 114.91 40.9618C115.254 40.9618 115.56 40.8352 115.77 40.599L115.524 40.3239C115.363 40.4797 115.147 40.5893 114.901 40.5893C114.455 40.5893 114.117 40.2411 114.117 39.7566C114.117 39.272 114.455 38.9263 114.901 38.9263C115.147 38.9263 115.344 39.0213 115.514 39.1868L115.77 38.9166C115.563 38.678 115.254 38.5513 114.91 38.5513ZM117.986 38.6H117.014V37.8745H116.615V38.6H116.121V38.9628H116.615V40.0974C116.615 40.6867 116.914 40.9618 117.416 40.9618C117.701 40.9618 117.932 40.862 118.11 40.7329L117.922 40.4334C117.791 40.5235 117.62 40.5893 117.45 40.5893C117.199 40.5893 117.014 40.4383 117.014 40.0901V38.9628H117.986V38.6ZM120.906 38.5513C120.256 38.5513 119.749 39.0578 119.749 39.7566C119.749 40.4553 120.256 40.9618 120.906 40.9618C121.269 40.9618 121.539 40.8206 121.722 40.6039V40.9131H122.121V37.407H121.722V38.9117C121.539 38.6926 121.269 38.5513 120.906 38.5513ZM120.952 38.9263C121.42 38.9263 121.746 39.2842 121.746 39.7566C121.746 40.2313 121.42 40.5893 120.952 40.5893C120.477 40.5893 120.156 40.2167 120.156 39.7566C120.156 39.2964 120.47 38.9263 120.952 38.9263ZM123.937 38.5513C123.273 38.5513 122.788 39.0456 122.788 39.7566C122.788 40.4773 123.275 40.9618 123.962 40.9618C124.303 40.9618 124.624 40.879 124.911 40.6112L124.699 40.3385C124.502 40.5089 124.256 40.6136 123.986 40.6136C123.589 40.6136 123.256 40.3774 123.2 39.8978H125.018C125.021 39.854 125.026 39.8004 125.026 39.7493C125.021 39.0407 124.568 38.5513 123.937 38.5513ZM123.93 38.9044C124.305 38.9044 124.57 39.1673 124.619 39.5764H123.204C123.265 39.182 123.521 38.9044 123.93 38.9044ZM128.561 38.5513C128.247 38.5513 127.889 38.6658 127.699 39.0164C127.546 38.7267 127.237 38.5513 126.845 38.5513C126.577 38.5513 126.277 38.6414 126.087 38.902V38.6H125.693V40.9131H126.09V39.6153C126.09 39.1844 126.402 38.9287 126.774 38.9287C127.176 38.9287 127.41 39.1795 127.41 39.6056V40.9131H127.809V39.6153C127.809 39.1941 128.108 38.9287 128.491 38.9287C128.892 38.9287 129.126 39.1795 129.126 39.6056V40.9131H129.525V39.4766C129.525 38.9214 129.133 38.5513 128.561 38.5513ZM132.54 38.6H132.141V38.9117C131.958 38.6926 131.688 38.5513 131.325 38.5513C130.675 38.5513 130.169 39.0578 130.169 39.7566C130.169 40.4553 130.675 40.9618 131.325 40.9618C131.688 40.9618 131.958 40.8206 132.141 40.6039V40.9131H132.54V38.6ZM131.371 38.9263C131.839 38.9263 132.165 39.2842 132.165 39.7566C132.165 40.2313 131.839 40.5893 131.371 40.5893C130.897 40.5893 130.575 40.2167 130.575 39.7566C130.575 39.2964 130.889 38.9263 131.371 38.9263ZM134.534 38.5513C134.266 38.5513 133.967 38.6414 133.777 38.902V38.6H133.383V40.9131H133.779V39.6153C133.779 39.1844 134.091 38.9287 134.464 38.9287C134.865 38.9287 135.099 39.1795 135.099 39.6056V40.9131H135.498V39.4766C135.498 38.9214 135.104 38.5513 134.534 38.5513ZM137.298 38.5513C136.648 38.5513 136.141 39.0578 136.141 39.7566C136.141 40.4553 136.648 40.9618 137.298 40.9618C137.661 40.9618 137.931 40.8206 138.114 40.6039V40.9131H138.513V37.407H138.114V38.9117C137.931 38.6926 137.661 38.5513 137.298 38.5513ZM137.344 38.9263C137.812 38.9263 138.138 39.2842 138.138 39.7566C138.138 40.2313 137.812 40.5893 137.344 40.5893C136.869 40.5893 136.548 40.2167 136.548 39.7566C136.548 39.2964 136.862 38.9263 137.344 38.9263ZM139.575 40.2947C139.397 40.2947 139.241 40.448 139.241 40.6258C139.241 40.806 139.397 40.9618 139.575 40.9618C139.752 40.9618 139.906 40.806 139.906 40.6258C139.906 40.448 139.752 40.2947 139.575 40.2947Z" fill="#7250B2"/>
<path d="M47.9778 21.4343C49.1904 21.4343 49.8404 20.7988 49.8404 19.8164C49.8404 18.8266 49.1904 18.1912 47.9705 18.1912H45.8851V23.3042H46.9041V21.4343H47.9778ZM47.9523 19.1298C48.5074 19.1298 48.7959 19.3599 48.7959 19.8164C48.7959 20.2765 48.5074 20.503 47.9523 20.503H46.9041V19.1298H47.9523ZM52.076 19.6703C51.0168 19.6703 50.2864 20.4299 50.2864 21.5439C50.2864 22.6578 51.0388 23.3955 52.1235 23.3955C52.7188 23.3955 53.2301 23.2275 53.6318 22.8586L53.073 22.2451C52.8174 22.4605 52.485 22.5847 52.1782 22.5847C51.729 22.5847 51.3711 22.3619 51.2688 21.8506H53.7779C53.7888 21.7703 53.7961 21.6388 53.7961 21.5292C53.7925 20.4263 53.0949 19.6703 52.076 19.6703ZM52.0687 20.492C52.4777 20.492 52.7516 20.7477 52.8393 21.2005H51.2725C51.3565 20.7623 51.6195 20.492 52.0687 20.492ZM56.4925 19.6703C56.0579 19.6703 55.7182 19.82 55.4954 20.1524V19.7652H54.5714V23.3042H55.5247V21.3759C55.5247 20.8499 55.8278 20.5797 56.2697 20.5797C56.4633 20.5797 56.6897 20.6235 56.8467 20.6929L56.9892 19.747C56.8577 19.6995 56.697 19.6703 56.4925 19.6703ZM60.073 19.7652H58.9737V19.3379C58.9737 19.0092 59.1161 18.8412 59.39 18.8412C59.6128 18.8412 59.821 18.9179 59.9963 19.0129L60.3761 18.2715C60.1058 18.0925 59.7698 17.9538 59.2878 17.9538C58.4624 17.9538 58.0205 18.4979 58.0205 19.327V19.7652H57.3594V20.6125H58.0205V23.3042H58.9737V20.6125H60.073V19.7652ZM62.3684 19.6703C61.2691 19.6703 60.4583 20.4665 60.4583 21.5329C60.4583 22.5993 61.2691 23.3955 62.3684 23.3955C63.4713 23.3955 64.2858 22.5993 64.2858 21.5329C64.2858 20.4665 63.4713 19.6703 62.3684 19.6703ZM62.3684 20.5578C62.9052 20.5578 63.3106 20.9595 63.3106 21.5329C63.3106 22.1063 62.9052 22.508 62.3684 22.508C61.8315 22.508 61.4298 22.1063 61.4298 21.5329C61.4298 20.9595 61.8315 20.5578 62.3684 20.5578ZM66.9853 19.6703C66.5507 19.6703 66.2111 19.82 65.9883 20.1524V19.7652H65.0643V23.3042H66.0175V21.3759C66.0175 20.8499 66.3206 20.5797 66.7626 20.5797C66.9561 20.5797 67.1826 20.6235 67.3396 20.6929L67.482 19.747C67.3506 19.6995 67.1899 19.6703 66.9853 19.6703ZM72.4703 19.6703C72.0065 19.6703 71.5427 19.8273 71.2688 20.2765C71.0314 19.9004 70.6114 19.6703 70.1001 19.6703C69.6983 19.6703 69.3112 19.8054 69.0592 20.1816V19.7652H68.1316V23.3042H69.0848V21.3649C69.0848 20.8317 69.4244 20.5651 69.8335 20.5651C70.2681 20.5651 70.5237 20.8463 70.5237 21.3576V23.3042H71.4769V21.3649C71.4769 20.8317 71.8166 20.5651 72.2256 20.5651C72.6566 20.5651 72.9159 20.8463 72.9159 21.3576V23.3042H73.8655V21.0508C73.8655 20.2291 73.303 19.6703 72.4703 19.6703ZM78.3209 19.7652H77.3896V20.156C77.1558 19.8675 76.8162 19.6703 76.3305 19.6703C75.3553 19.6703 74.6176 20.4701 74.6176 21.5329C74.6176 22.5957 75.3553 23.3955 76.3305 23.3955C76.8162 23.3955 77.1595 23.1983 77.3896 22.9134V23.3042H78.3209V19.7652ZM76.5058 20.5578C77.0499 20.5578 77.4188 20.9741 77.4188 21.5329C77.4188 22.0917 77.0499 22.508 76.5058 22.508C75.947 22.508 75.5927 22.0734 75.5927 21.5329C75.5927 20.9924 75.947 20.5578 76.5058 20.5578ZM81.292 19.6703C80.8903 19.6703 80.5031 19.8054 80.2511 20.1816V19.7652H79.3235V23.3042H80.2767V21.3649C80.2767 20.8317 80.6163 20.5651 81.0254 20.5651C81.46 20.5651 81.7156 20.8463 81.7156 21.3576V23.3042H82.6689V21.0508C82.6689 20.2291 82.0955 19.6703 81.292 19.6703ZM85.3044 19.6703C84.1759 19.6703 83.4199 20.4628 83.4199 21.5329C83.4199 22.6066 84.1759 23.3955 85.3044 23.3955C85.8961 23.3955 86.3928 23.1581 86.7251 22.7308L86.0458 22.1501C85.8449 22.3692 85.582 22.508 85.2752 22.508C84.7822 22.508 84.3914 22.1245 84.3914 21.5329C84.3914 20.9449 84.7858 20.5578 85.2789 20.5578C85.5893 20.5578 85.8194 20.6819 86.0349 20.912L86.7215 20.3386C86.3964 19.9113 85.8961 19.6703 85.3044 19.6703ZM88.9116 19.6703C87.8524 19.6703 87.122 20.4299 87.122 21.5439C87.122 22.6578 87.8744 23.3955 88.959 23.3955C89.5544 23.3955 90.0657 23.2275 90.4674 22.8586L89.9086 22.2451C89.653 22.4605 89.3206 22.5847 89.0138 22.5847C88.5646 22.5847 88.2067 22.3619 88.1044 21.8506H90.6135C90.6244 21.7703 90.6317 21.6388 90.6317 21.5292C90.6281 20.4263 89.9305 19.6703 88.9116 19.6703ZM88.9043 20.492C89.3133 20.492 89.5872 20.7477 89.6749 21.2005H88.1081C88.1921 20.7623 88.455 20.492 88.9043 20.492ZM98.9347 18.1912H97.4409L96.1152 21.6425L94.7858 18.1912H93.2921V23.3042H94.311V19.4731L95.5747 22.8112H96.6521L97.9157 19.4439V23.3042H98.9347V18.1912ZM103.501 19.7652H102.57V20.156C102.336 19.8675 101.996 19.6703 101.51 19.6703C100.535 19.6703 99.7976 20.4701 99.7976 21.5329C99.7976 22.5957 100.535 23.3955 101.51 23.3955C101.996 23.3955 102.34 23.1983 102.57 22.9134V23.3042H103.501V19.7652ZM101.686 20.5578C102.23 20.5578 102.599 20.9741 102.599 21.5329C102.599 22.0917 102.23 22.508 101.686 22.508C101.127 22.508 100.773 22.0734 100.773 21.5329C100.773 20.9924 101.127 20.5578 101.686 20.5578ZM106.425 19.6703C105.99 19.6703 105.65 19.82 105.427 20.1524V19.7652H104.503V23.3042H105.457V21.3759C105.457 20.8499 105.76 20.5797 106.202 20.5797C106.395 20.5797 106.622 20.6235 106.779 20.6929L106.921 19.747C106.79 19.6995 106.629 19.6703 106.425 19.6703ZM108.524 18.0451H107.571V23.3042H108.524V21.8725H108.845L109.864 23.3042H111.037L109.631 21.4306L111.026 19.7652H109.857L108.86 21.0252H108.524V18.0451ZM112.965 19.6703C111.905 19.6703 111.175 20.4299 111.175 21.5439C111.175 22.6578 111.927 23.3955 113.012 23.3955C113.607 23.3955 114.119 23.2275 114.52 22.8586L113.962 22.2451C113.706 22.4605 113.374 22.5847 113.067 22.5847C112.618 22.5847 112.26 22.3619 112.157 21.8506H114.666C114.677 21.7703 114.685 21.6388 114.685 21.5292C114.681 20.4263 113.984 19.6703 112.965 19.6703ZM112.957 20.492C113.366 20.492 113.64 20.7477 113.728 21.2005H112.161C112.245 20.7623 112.508 20.492 112.957 20.492ZM117.992 19.7652H116.71V18.7134H115.757V19.7652H115.074V20.6125H115.757V21.9821C115.757 22.8988 116.206 23.3955 117.082 23.3955C117.586 23.3955 117.944 23.2348 118.255 23.023L117.904 22.2779C117.711 22.3948 117.466 22.508 117.239 22.508C116.944 22.508 116.71 22.3473 116.71 21.9054V20.6125H117.992V19.7652ZM119.787 19.7652H118.834V23.3042H119.787V19.7652ZM119.305 17.9939C118.962 17.9939 118.699 18.2642 118.699 18.6075C118.699 18.9508 118.962 19.2138 119.305 19.2138C119.648 19.2138 119.915 18.9508 119.915 18.6075C119.915 18.2642 119.648 17.9939 119.305 17.9939ZM122.757 19.6703C122.355 19.6703 121.968 19.8054 121.716 20.1816V19.7652H120.788V23.3042H121.742V21.3649C121.742 20.8317 122.081 20.5651 122.49 20.5651C122.925 20.5651 123.181 20.8463 123.181 21.3576V23.3042H124.134V21.0508C124.134 20.2291 123.56 19.6703 122.757 19.6703ZM126.514 19.6703C125.652 19.6703 124.885 20.3898 124.885 21.4781C124.885 22.5628 125.652 23.2823 126.514 23.2823C127.003 23.2823 127.361 23.0997 127.602 22.8039V23.0522C127.602 23.6621 127.186 23.9908 126.594 23.9908C126.17 23.9908 125.78 23.863 125.425 23.6292L125.086 24.4072C125.484 24.6884 126.076 24.8345 126.634 24.8345C127.803 24.8345 128.544 24.1479 128.544 23.012V19.7652H127.609V20.1597C127.368 19.8602 127.007 19.6703 126.514 19.6703ZM126.755 20.5468C127.284 20.5468 127.642 20.9485 127.642 21.4781C127.642 22.004 127.284 22.4058 126.755 22.4058C126.211 22.4058 125.864 21.9894 125.864 21.4781C125.864 20.9632 126.211 20.5468 126.755 20.5468Z" fill="#7250B2"/>
<path d="M47.6785 54.7684C47.6006 54.7684 47.5257 54.7358 47.4705 54.6776L45.898 53.0201C45.783 52.899 45.783 52.7026 45.898 52.5814C46.0128 52.4603 46.1992 52.4602 46.3141 52.5814L47.6664 54.0068L50.3704 50.814C50.4786 50.6864 50.6646 50.6751 50.7859 50.7892C50.9072 50.9033 50.9177 51.0994 50.8095 51.2272L47.898 54.6648C47.8441 54.7284 47.7677 54.7658 47.6868 54.7683C47.684 54.7684 47.6813 54.7684 47.6785 54.7684Z" fill="#7250B2"/>
<path d="M56.7747 53.8749H54.839V52.9327H56.6773V52.4165H54.839V51.4986H56.743V50.9824H54.2888V54.3911H56.7747V53.8749ZM59.6514 52.0586H59.1109L58.4219 53.8628L57.7328 52.0586H57.1777L58.1151 54.3911H58.7189L59.6514 52.0586ZM62.3242 52.0586H61.8153V52.341C61.6546 52.1341 61.4136 51.9977 61.0824 51.9977C60.4299 51.9977 59.9162 52.5115 59.9162 53.2249C59.9162 53.9382 60.4299 54.452 61.0824 54.452C61.4136 54.452 61.6546 54.3181 61.8153 54.1111V54.3911H62.3242V52.0586ZM61.1433 52.4774C61.5645 52.4774 61.847 52.7988 61.847 53.2249C61.847 53.6509 61.5645 53.9723 61.1433 53.9723C60.705 53.9723 60.4396 53.6339 60.4396 53.2249C60.4396 52.8158 60.705 52.4774 61.1433 52.4774ZM63.6342 50.885H63.1229V54.3911H63.6342V50.885ZM66.5684 52.0586H66.0571V53.3563C66.0571 53.8068 65.8063 53.9723 65.4873 53.9723C65.1684 53.9723 64.9176 53.8068 64.9176 53.3563V52.0586H64.4063V53.4026C64.4063 54.1452 64.9395 54.452 65.4873 54.452C66.0327 54.452 66.5684 54.1452 66.5684 53.4026V52.0586ZM69.581 52.0586H69.0721V52.341C68.9114 52.1341 68.6704 51.9977 68.3392 51.9977C67.6867 51.9977 67.173 52.5115 67.173 53.2249C67.173 53.9382 67.6867 54.452 68.3392 54.452C68.6704 54.452 68.9114 54.3181 69.0721 54.1111V54.3911H69.581V52.0586ZM68.4001 52.4774C68.8213 52.4774 69.1037 52.7988 69.1037 53.2249C69.1037 53.6509 68.8213 53.9723 68.4001 53.9723C67.9618 53.9723 67.6964 53.6339 67.6964 53.2249C67.6964 52.8158 67.9618 52.4774 68.4001 52.4774ZM71.9696 52.0586H71.076V51.3525H70.5647V52.0586H70.0997V52.5212H70.5647V53.5462C70.5647 54.1671 70.8739 54.452 71.4023 54.452C71.6945 54.452 71.9306 54.3473 72.1181 54.2207L71.916 53.8141C71.7773 53.9017 71.6044 53.9723 71.4461 53.9723C71.2416 53.9723 71.076 53.8506 71.076 53.5365V52.5212H71.9696V52.0586ZM73.5844 51.9977C72.8977 51.9977 72.423 52.4944 72.423 53.2249C72.423 53.965 72.9172 54.452 73.616 54.452C73.9691 54.452 74.2904 54.3668 74.5753 54.1233L74.3221 53.7605C74.1297 53.9139 73.8814 54.0064 73.6477 54.0064C73.3165 54.0064 73.0219 53.8311 72.9537 53.4123H74.6776C74.6824 53.3539 74.6873 53.2882 74.6873 53.2224C74.6849 52.4944 74.2369 51.9977 73.5844 51.9977ZM73.5746 52.4506C73.8984 52.4506 74.1103 52.6624 74.1663 53.0252H72.9562C73.0097 52.6843 73.2118 52.4506 73.5746 52.4506ZM78.8019 52.0586H78.2419L77.5187 53.3977L76.7688 52.0586H76.1966L77.2314 53.9115L76.3963 55.3796H76.9612L78.8019 52.0586ZM80.2679 51.9977C79.5472 51.9977 79.014 52.5261 79.014 53.2249C79.014 53.9236 79.5472 54.452 80.2679 54.452C80.9886 54.452 81.5243 53.9236 81.5243 53.2249C81.5243 52.5261 80.9886 51.9977 80.2679 51.9977ZM80.2679 52.4774C80.6843 52.4774 81.0008 52.7842 81.0008 53.2249C81.0008 53.6655 80.6843 53.9723 80.2679 53.9723C79.8516 53.9723 79.5375 53.6655 79.5375 53.2249C79.5375 52.7842 79.8516 52.4774 80.2679 52.4774ZM84.2919 52.0586H83.7806V53.3563C83.7806 53.8068 83.5298 53.9723 83.2108 53.9723C82.8919 53.9723 82.6411 53.8068 82.6411 53.3563V52.0586H82.1298V53.4026C82.1298 54.1452 82.663 54.452 83.2108 54.452C83.7562 54.452 84.2919 54.1452 84.2919 53.4026V52.0586ZM86.2453 51.9977C85.9605 51.9977 85.7219 52.1 85.5685 52.3215V52.0586H85.0645V54.3911H85.5733V53.108C85.5733 52.7111 85.8046 52.4822 86.1285 52.4822C86.2526 52.4822 86.4085 52.5115 86.5156 52.5675L86.6373 52.0635C86.5205 52.0172 86.4012 51.9977 86.2453 51.9977ZM91.3022 51.9977C91.0124 51.9977 90.6521 52.0805 90.45 52.4141C90.2893 52.156 89.9995 51.9977 89.6441 51.9977C89.4055 51.9977 89.1157 52.0683 88.9282 52.3435V52.0586H88.4218V54.3911H88.9331V53.0982C88.9331 52.6989 89.2082 52.4822 89.5369 52.4822C89.8778 52.4822 90.0799 52.7014 90.0799 53.0934V54.3911H90.5912V53.0982C90.5912 52.6989 90.8663 52.4822 91.195 52.4822C91.5359 52.4822 91.738 52.7014 91.738 53.0934V54.3911H92.2493V52.9254C92.2493 52.38 91.8573 51.9977 91.3022 51.9977ZM95.2651 52.0586H94.7562V52.341C94.5955 52.1341 94.3545 51.9977 94.0233 51.9977C93.3708 51.9977 92.8571 52.5115 92.8571 53.2249C92.8571 53.9382 93.3708 54.452 94.0233 54.452C94.3545 54.452 94.5955 54.3181 94.7562 54.1111V54.3911H95.2651V52.0586ZM94.0842 52.4774C94.5054 52.4774 94.7878 52.7988 94.7878 53.2249C94.7878 53.6509 94.5054 53.9723 94.0842 53.9723C93.6459 53.9723 93.3805 53.6339 93.3805 53.2249C93.3805 52.8158 93.6459 52.4774 94.0842 52.4774ZM97.2447 51.9977C96.9598 51.9977 96.7212 52.1 96.5678 52.3215V52.0586H96.0638V54.3911H96.5727V53.108C96.5727 52.7111 96.804 52.4822 97.1278 52.4822C97.252 52.4822 97.4078 52.5115 97.5149 52.5675L97.6367 52.0635C97.5198 52.0172 97.4005 51.9977 97.2447 51.9977ZM98.6675 50.885H98.1562V54.3911H98.6675V53.4075H98.9207L99.6974 54.3911H100.343L99.3565 53.1567L100.333 52.0586H99.6925L98.9231 52.9449H98.6675V50.885ZM101.698 51.9977C101.012 51.9977 100.537 52.4944 100.537 53.2249C100.537 53.965 101.031 54.452 101.73 54.452C102.083 54.452 102.405 54.3668 102.689 54.1233L102.436 53.7605C102.244 53.9139 101.996 54.0064 101.762 54.0064C101.431 54.0064 101.136 53.8311 101.068 53.4123H102.792C102.797 53.3539 102.801 53.2882 102.801 53.2224C102.799 52.4944 102.351 51.9977 101.698 51.9977ZM101.689 52.4506C102.013 52.4506 102.224 52.6624 102.28 53.0252H101.07C101.124 52.6843 101.326 52.4506 101.689 52.4506ZM104.996 52.0586H104.103V51.3525H103.591V52.0586H103.126V52.5212H103.591V53.5462C103.591 54.1671 103.9 54.452 104.429 54.452C104.721 54.452 104.957 54.3473 105.145 54.2207L104.943 53.8141C104.804 53.9017 104.631 53.9723 104.473 53.9723C104.268 53.9723 104.103 53.8506 104.103 53.5365V52.5212H104.996V52.0586ZM106.129 52.0586H105.617V54.3911H106.129V52.0586ZM105.871 50.8923C105.669 50.8923 105.515 51.0506 105.515 51.2527C105.515 51.4548 105.669 51.6082 105.871 51.6082C106.073 51.6082 106.231 51.4548 106.231 51.2527C106.231 51.0506 106.073 50.8923 105.871 50.8923ZM108.147 51.9977C107.909 51.9977 107.619 52.0683 107.432 52.3435V52.0586H106.925V54.3911H107.437V53.0982C107.437 52.6989 107.712 52.4822 108.04 52.4822C108.381 52.4822 108.583 52.7014 108.583 53.0934V54.3911H109.095V52.9254C109.095 52.38 108.703 51.9977 108.147 51.9977ZM110.782 51.9977C110.249 51.9977 109.701 52.4457 109.701 53.2005C109.701 53.9553 110.249 54.4033 110.782 54.4033C111.12 54.4033 111.383 54.2864 111.559 54.0624V54.2499C111.559 54.6833 111.296 54.9462 110.818 54.9462C110.534 54.9462 110.263 54.8537 110.027 54.7101L109.842 55.141C110.088 55.3163 110.47 55.4113 110.818 55.4113C111.598 55.4113 112.07 54.9609 112.07 54.228V52.0586H111.559V52.3386C111.383 52.117 111.12 51.9977 110.782 51.9977ZM110.913 52.4774C111.325 52.4774 111.602 52.7915 111.602 53.2005C111.602 53.6095 111.325 53.9236 110.913 53.9236C110.482 53.9236 110.224 53.5925 110.224 53.2005C110.224 52.8061 110.482 52.4774 110.913 52.4774ZM115.989 52.2461C115.748 52.0902 115.409 52.0002 115.044 52.0002C114.45 52.0002 114.08 52.285 114.08 52.7476C114.08 53.1226 114.355 53.3612 114.871 53.4318L115.115 53.4635C115.392 53.5024 115.519 53.5901 115.519 53.7215C115.519 53.8969 115.336 54.0064 114.988 54.0064C114.608 54.0064 114.387 53.8969 114.219 53.7678L113.982 54.1501C114.323 54.4033 114.742 54.4495 114.983 54.4495C115.655 54.4495 116.045 54.1355 116.045 53.6875C116.045 53.2882 115.743 53.0715 115.234 52.9984L114.993 52.9619C114.779 52.9302 114.608 52.884 114.608 52.7209C114.608 52.5553 114.771 52.4433 115.049 52.4433C115.339 52.4433 115.628 52.5553 115.769 52.6429L115.989 52.2461ZM118.235 52.0586H117.342V51.3525H116.83V52.0586H116.365V52.5212H116.83V53.5462C116.83 54.1671 117.14 54.452 117.668 54.452C117.96 54.452 118.196 54.3473 118.384 54.2207L118.182 53.8141C118.043 53.9017 117.87 53.9723 117.712 53.9723C117.507 53.9723 117.342 53.8506 117.342 53.5365V52.5212H118.235V52.0586ZM120.037 51.9977C119.753 51.9977 119.514 52.1 119.361 52.3215V52.0586H118.857V54.3911H119.365V53.108C119.365 52.7111 119.597 52.4822 119.921 52.4822C120.045 52.4822 120.201 52.5115 120.308 52.5675L120.429 52.0635C120.313 52.0172 120.193 51.9977 120.037 51.9977ZM123.094 52.0586H122.585V52.341C122.424 52.1341 122.183 51.9977 121.852 51.9977C121.2 51.9977 120.686 52.5115 120.686 53.2249C120.686 53.9382 121.2 54.452 121.852 54.452C122.183 54.452 122.424 54.3181 122.585 54.1111V54.3911H123.094V52.0586ZM121.913 52.4774C122.334 52.4774 122.617 52.7988 122.617 53.2249C122.617 53.6509 122.334 53.9723 121.913 53.9723C121.475 53.9723 121.209 53.6339 121.209 53.2249C121.209 52.8158 121.475 52.4774 121.913 52.4774ZM125.483 52.0586H124.589V51.3525H124.078V52.0586H123.613V52.5212H124.078V53.5462C124.078 54.1671 124.387 54.452 124.915 54.452C125.207 54.452 125.444 54.3473 125.631 54.2207L125.429 53.8141C125.29 53.9017 125.117 53.9723 124.959 53.9723C124.755 53.9723 124.589 53.8506 124.589 53.5365V52.5212H125.483V52.0586ZM127.097 51.9977C126.411 51.9977 125.936 52.4944 125.936 53.2249C125.936 53.965 126.43 54.452 127.129 54.452C127.482 54.452 127.803 54.3668 128.088 54.1233L127.835 53.7605C127.643 53.9139 127.394 54.0064 127.161 54.0064C126.829 54.0064 126.535 53.8311 126.467 53.4123H128.19C128.195 53.3539 128.2 53.2882 128.2 53.2224C128.198 52.4944 127.75 51.9977 127.097 51.9977ZM127.088 52.4506C127.411 52.4506 127.623 52.6624 127.679 53.0252H126.469C126.523 52.6843 126.725 52.4506 127.088 52.4506ZM129.742 51.9977C129.209 51.9977 128.661 52.4457 128.661 53.2005C128.661 53.9553 129.209 54.4033 129.742 54.4033C130.08 54.4033 130.343 54.2864 130.518 54.0624V54.2499C130.518 54.6833 130.256 54.9462 129.778 54.9462C129.493 54.9462 129.223 54.8537 128.987 54.7101L128.802 55.141C129.048 55.3163 129.43 55.4113 129.778 55.4113C130.557 55.4113 131.03 54.9609 131.03 54.228V52.0586H130.518V52.3386C130.343 52.117 130.08 51.9977 129.742 51.9977ZM129.873 52.4774C130.285 52.4774 130.562 52.7915 130.562 53.2005C130.562 53.6095 130.285 53.9236 129.873 53.9236C129.442 53.9236 129.184 53.5925 129.184 53.2005C129.184 52.8061 129.442 52.4774 129.873 52.4774ZM134.074 52.0586H133.514L132.791 53.3977L132.041 52.0586H131.469L132.504 53.9115L131.669 55.3796H132.234L134.074 52.0586Z" fill="#7250B2"/>
<path d="M47.6785 66.7679C47.6006 66.7679 47.5257 66.7354 47.4705 66.6771L45.898 65.0196C45.783 64.8985 45.783 64.7021 45.898 64.5809C46.0128 64.4598 46.1992 64.4597 46.3141 64.5809L47.6664 66.0063L50.3704 62.8135C50.4786 62.6859 50.6646 62.6746 50.7859 62.7887C50.9072 62.9029 50.9177 63.0989 50.8095 63.2267L47.898 66.6643C47.8441 66.7279 47.7677 66.7653 47.6868 66.7678C47.684 66.7679 47.6813 66.7679 47.6785 66.7679Z" fill="#7250B2"/>
<path d="M55.8884 62.9191C54.8415 62.9191 54.1037 63.669 54.1037 64.6868C54.1037 65.7045 54.8415 66.4544 55.8884 66.4544C56.485 66.4544 56.9963 66.1915 57.286 65.7654L56.838 65.4367C56.6262 65.7435 56.2926 65.9261 55.8884 65.9261C55.1921 65.9261 54.6808 65.4221 54.6808 64.6868C54.6808 63.9515 55.1921 63.4475 55.8884 63.4475C56.295 63.4475 56.6335 63.6374 56.8404 63.9393L57.3006 63.6325C57.0328 63.1894 56.4947 62.9191 55.8884 62.9191ZM59.1346 63.9977C58.8497 63.9977 58.6111 64.1 58.4577 64.3215V64.0586H57.9537V66.3911H58.4626V65.108C58.4626 64.7111 58.6939 64.4822 59.0177 64.4822C59.1419 64.4822 59.2977 64.5115 59.4049 64.5675L59.5266 64.0635C59.4097 64.0172 59.2904 63.9977 59.1346 63.9977ZM60.9444 63.9977C60.2578 63.9977 59.783 64.4944 59.783 65.2249C59.783 65.965 60.2773 66.452 60.9761 66.452C61.3291 66.452 61.6505 66.3668 61.9354 66.1233L61.6821 65.7605C61.4898 65.9139 61.2415 66.0064 61.0077 66.0064C60.6766 66.0064 60.382 65.8311 60.3138 65.4123H62.0376C62.0425 65.3539 62.0474 65.2882 62.0474 65.2224C62.0449 64.4944 61.5969 63.9977 60.9444 63.9977ZM60.9347 64.4506C61.2585 64.4506 61.4703 64.6624 61.5263 65.0252H60.3162C60.3698 64.6843 60.5719 64.4506 60.9347 64.4506ZM64.9159 64.0586H64.407V64.341C64.2463 64.1341 64.0053 63.9977 63.6741 63.9977C63.0216 63.9977 62.5079 64.5115 62.5079 65.2249C62.5079 65.9382 63.0216 66.452 63.6741 66.452C64.0053 66.452 64.2463 66.3181 64.407 66.1111V66.3911H64.9159V64.0586ZM63.735 64.4774C64.1562 64.4774 64.4387 64.7988 64.4387 65.2249C64.4387 65.6509 64.1562 65.9723 63.735 65.9723C63.2968 65.9723 63.0314 65.6339 63.0314 65.2249C63.0314 64.8158 63.2968 64.4774 63.735 64.4774ZM67.3045 64.0586H66.411V63.3525H65.8996V64.0586H65.4346V64.5212H65.8996V65.5462C65.8996 66.1671 66.2089 66.452 66.7372 66.452C67.0294 66.452 67.2656 66.3473 67.453 66.2207L67.251 65.8141C67.1122 65.9017 66.9393 65.9723 66.781 65.9723C66.5765 65.9723 66.411 65.8506 66.411 65.5365V64.5212H67.3045V64.0586ZM68.9193 63.9977C68.2327 63.9977 67.7579 64.4944 67.7579 65.2249C67.7579 65.965 68.2521 66.452 68.9509 66.452C69.304 66.452 69.6254 66.3668 69.9102 66.1233L69.657 65.7605C69.4647 65.9139 69.2163 66.0064 68.9826 66.0064C68.6514 66.0064 68.3568 65.8311 68.2887 65.4123H70.0125C70.0174 65.3539 70.0222 65.2882 70.0222 65.2224C70.0198 64.4944 69.5718 63.9977 68.9193 63.9977ZM68.9095 64.4506C69.2334 64.4506 69.4452 64.6624 69.5012 65.0252H68.2911C68.3447 64.6843 68.5468 64.4506 68.9095 64.4506ZM74.8436 63.9977C74.5539 63.9977 74.1935 64.0805 73.9914 64.4141C73.8307 64.156 73.541 63.9977 73.1855 63.9977C72.9469 63.9977 72.6572 64.0683 72.4697 64.3435V64.0586H71.9632V66.3911H72.4746V65.0982C72.4746 64.6989 72.7497 64.4822 73.0784 64.4822C73.4192 64.4822 73.6213 64.7014 73.6213 65.0934V66.3911H74.1326V65.0982C74.1326 64.6989 74.4078 64.4822 74.7365 64.4822C75.0773 64.4822 75.2794 64.7014 75.2794 65.0934V66.3911H75.7907V64.9254C75.7907 64.38 75.3987 63.9977 74.8436 63.9977ZM77.5599 63.9977C76.8733 63.9977 76.3985 64.4944 76.3985 65.2249C76.3985 65.965 76.8928 66.452 77.5916 66.452C77.9446 66.452 78.266 66.3668 78.5509 66.1233L78.2976 65.7605C78.1053 65.9139 77.8569 66.0064 77.6232 66.0064C77.2921 66.0064 76.9975 65.8311 76.9293 65.4123H78.6531C78.658 65.3539 78.6629 65.2882 78.6629 65.2224C78.6604 64.4944 78.2124 63.9977 77.5599 63.9977ZM77.5502 64.4506C77.874 64.4506 78.0858 64.6624 78.1418 65.0252H76.9317C76.9853 64.6843 77.1874 64.4506 77.5502 64.4506ZM80.2896 63.9977C79.6371 63.9977 79.1234 64.5115 79.1234 65.2249C79.1234 65.9382 79.6371 66.452 80.2896 66.452C80.6208 66.452 80.8618 66.3181 81.0225 66.1111V66.3911H81.5314V62.885H81.0225V64.341C80.8618 64.1341 80.6208 63.9977 80.2896 63.9977ZM80.3505 64.4774C80.7717 64.4774 81.0542 64.7988 81.0542 65.2249C81.0542 65.6509 80.7717 65.9723 80.3505 65.9723C79.9122 65.9723 79.6468 65.6339 79.6468 65.2249C79.6468 64.8158 79.9122 64.4774 80.3505 64.4774ZM82.8414 64.0586H82.3301V66.3911H82.8414V64.0586ZM82.5833 62.8923C82.3812 62.8923 82.2278 63.0506 82.2278 63.2527C82.2278 63.4548 82.3812 63.6082 82.5833 63.6082C82.7854 63.6082 82.9437 63.4548 82.9437 63.2527C82.9437 63.0506 82.7854 62.8923 82.5833 62.8923ZM85.8778 64.0586H85.369V64.341C85.2083 64.1341 84.9672 63.9977 84.6361 63.9977C83.9836 63.9977 83.4698 64.5115 83.4698 65.2249C83.4698 65.9382 83.9836 66.452 84.6361 66.452C84.9672 66.452 85.2083 66.3181 85.369 66.1111V66.3911H85.8778V64.0586ZM84.697 64.4774C85.1182 64.4774 85.4006 64.7988 85.4006 65.2249C85.4006 65.6509 85.1182 65.9723 84.697 65.9723C84.2587 65.9723 83.9933 65.6339 83.9933 65.2249C83.9933 64.8158 84.2587 64.4774 84.697 64.4774ZM89.652 62.9191C88.6051 62.9191 87.8673 63.669 87.8673 64.6868C87.8673 65.7045 88.6051 66.4544 89.652 66.4544C90.2485 66.4544 90.7598 66.1915 91.0496 65.7654L90.6016 65.4367C90.3898 65.7435 90.0562 65.9261 89.652 65.9261C88.9557 65.9261 88.4444 65.4221 88.4444 64.6868C88.4444 63.9515 88.9557 63.4475 89.652 63.4475C90.0586 63.4475 90.3971 63.6374 90.604 63.9393L91.0642 63.6325C90.7964 63.1894 90.2583 62.9191 89.652 62.9191ZM93.9098 64.0586H93.4009V64.341C93.2402 64.1341 92.9992 63.9977 92.668 63.9977C92.0155 63.9977 91.5018 64.5115 91.5018 65.2249C91.5018 65.9382 92.0155 66.452 92.668 66.452C92.9992 66.452 93.2402 66.3181 93.4009 66.1111V66.3911H93.9098V64.0586ZM92.7289 64.4774C93.1501 64.4774 93.4325 64.7988 93.4325 65.2249C93.4325 65.6509 93.1501 65.9723 92.7289 65.9723C92.2906 65.9723 92.0252 65.6339 92.0252 65.2249C92.0252 64.8158 92.2906 64.4774 92.7289 64.4774ZM95.2198 62.885H94.7085V66.3911H95.2198V62.885ZM97.0096 63.9977C96.323 63.9977 95.8482 64.4944 95.8482 65.2249C95.8482 65.965 96.3425 66.452 97.0413 66.452C97.3943 66.452 97.7157 66.3668 98.0006 66.1233L97.7474 65.7605C97.555 65.9139 97.3067 66.0064 97.0729 66.0064C96.7418 66.0064 96.4472 65.8311 96.379 65.4123H98.1028C98.1077 65.3539 98.1126 65.2882 98.1126 65.2224C98.1101 64.4944 97.6621 63.9977 97.0096 63.9977ZM96.9999 64.4506C97.3237 64.4506 97.5355 64.6624 97.5915 65.0252H96.3815C96.435 64.6843 96.6371 64.4506 96.9999 64.4506ZM99.9634 63.9977C99.7248 63.9977 99.435 64.0683 99.2475 64.3435V64.0586H98.7411V66.3911H99.2524V65.0982C99.2524 64.6989 99.5275 64.4822 99.8562 64.4822C100.197 64.4822 100.399 64.7014 100.399 65.0934V66.3911H100.91V64.9254C100.91 64.38 100.518 63.9977 99.9634 63.9977ZM102.683 63.9977C102.03 63.9977 101.517 64.5115 101.517 65.2249C101.517 65.9382 102.03 66.452 102.683 66.452C103.014 66.452 103.255 66.3181 103.416 66.1111V66.3911H103.925V62.885H103.416V64.341C103.255 64.1341 103.014 63.9977 102.683 63.9977ZM102.744 64.4774C103.165 64.4774 103.447 64.7988 103.447 65.2249C103.447 65.6509 103.165 65.9723 102.744 65.9723C102.306 65.9723 102.04 65.6339 102.04 65.2249C102.04 64.8158 102.306 64.4774 102.744 64.4774ZM106.963 64.0586H106.455V64.341C106.294 64.1341 106.053 63.9977 105.722 63.9977C105.069 63.9977 104.555 64.5115 104.555 65.2249C104.555 65.9382 105.069 66.452 105.722 66.452C106.053 66.452 106.294 66.3181 106.455 66.1111V66.3911H106.963V64.0586ZM105.783 64.4774C106.204 64.4774 106.486 64.7988 106.486 65.2249C106.486 65.6509 106.204 65.9723 105.783 65.9723C105.344 65.9723 105.079 65.6339 105.079 65.2249C105.079 64.8158 105.344 64.4774 105.783 64.4774ZM108.943 63.9977C108.658 63.9977 108.42 64.1 108.266 64.3215V64.0586H107.762V66.3911H108.271V65.108C108.271 64.7111 108.502 64.4822 108.826 64.4822C108.95 64.4822 109.106 64.5115 109.213 64.5675L109.335 64.0635C109.218 64.0172 109.099 63.9977 108.943 63.9977Z" fill="#7250B2"/>
<path d="M47.6785 78.7679C47.6006 78.7679 47.5257 78.7354 47.4705 78.6771L45.898 77.0196C45.783 76.8985 45.783 76.7021 45.898 76.5809C46.0128 76.4598 46.1992 76.4597 46.3141 76.5809L47.6664 78.0063L50.3704 74.8135C50.4786 74.6859 50.6646 74.6746 50.7859 74.7887C50.9072 74.9029 50.9177 75.0989 50.8095 75.2267L47.898 78.6643C47.8441 78.7279 47.7677 78.7653 47.6868 78.7678C47.684 78.7679 47.6813 78.7679 47.6785 78.7679Z" fill="#7250B2"/>
<path d="M55.9323 74.9824H55.2457L53.8992 78.3911H54.4714L54.8074 77.5219H56.351L56.687 78.3911H57.2787L55.9323 74.9824ZM55.5792 75.5302L56.149 77.0009H55.0095L55.5792 75.5302ZM58.9715 75.9977C58.7329 75.9977 58.4432 76.0683 58.2557 76.3435V76.0586H57.7493V78.3911H58.2606V77.0982C58.2606 76.6989 58.5357 76.4822 58.8644 76.4822C59.2053 76.4822 59.4073 76.7014 59.4073 77.0934V78.3911H59.9186V76.9254C59.9186 76.38 59.5266 75.9977 58.9715 75.9977ZM62.9329 76.0586H62.424V76.341C62.2633 76.1341 62.0223 75.9977 61.6911 75.9977C61.0386 75.9977 60.5249 76.5115 60.5249 77.2249C60.5249 77.9382 61.0386 78.452 61.6911 78.452C62.0223 78.452 62.2633 78.3181 62.424 78.1111V78.3911H62.9329V76.0586ZM61.752 76.4774C62.1732 76.4774 62.4556 76.7988 62.4556 77.2249C62.4556 77.6509 62.1732 77.9723 61.752 77.9723C61.3137 77.9723 61.0483 77.6339 61.0483 77.2249C61.0483 76.8158 61.3137 76.4774 61.752 76.4774ZM64.2429 74.885H63.7316V78.3911H64.2429V74.885ZM67.2842 76.0586H66.7242L66.0011 77.3977L65.2512 76.0586H64.679L65.7138 77.9115L64.8786 79.3796H65.4435L67.2842 76.0586ZM69.5428 76.0586H67.6315V76.5212H68.8879L67.5926 78.021V78.3911H69.5672V77.9285H68.2695L69.5428 76.4287V76.0586ZM71.1924 75.9977C70.5058 75.9977 70.031 76.4944 70.031 77.2249C70.031 77.965 70.5252 78.452 71.224 78.452C71.5771 78.452 71.8985 78.3668 72.1833 78.1233L71.9301 77.7605C71.7378 77.9139 71.4894 78.0064 71.2557 78.0064C70.9245 78.0064 70.6299 77.8311 70.5618 77.4123H72.2856C72.2905 77.3539 72.2953 77.2882 72.2953 77.2224C72.2929 76.4944 71.8449 75.9977 71.1924 75.9977ZM71.1826 76.4506C71.5065 76.4506 71.7183 76.6624 71.7743 77.0252H70.5642C70.6178 76.6843 70.8199 76.4506 71.1826 76.4506ZM77.1167 75.9977C76.827 75.9977 76.4666 76.0805 76.2645 76.4141C76.1038 76.156 75.8141 75.9977 75.4586 75.9977C75.22 75.9977 74.9303 76.0683 74.7428 76.3435V76.0586H74.2363V78.3911H74.7476V77.0982C74.7476 76.6989 75.0228 76.4822 75.3515 76.4822C75.6923 76.4822 75.8944 76.7014 75.8944 77.0934V78.3911H76.4057V77.0982C76.4057 76.6989 76.6809 76.4822 77.0096 76.4822C77.3504 76.4822 77.5525 76.7014 77.5525 77.0934V78.3911H78.0638V76.9254C78.0638 76.38 77.6718 75.9977 77.1167 75.9977ZM81.0796 76.0586H80.5707V76.341C80.41 76.1341 80.169 75.9977 79.8379 75.9977C79.1853 75.9977 78.6716 76.5115 78.6716 77.2249C78.6716 77.9382 79.1853 78.452 79.8379 78.452C80.169 78.452 80.41 78.3181 80.5707 78.1111V78.3911H81.0796V76.0586ZM79.8987 76.4774C80.32 76.4774 80.6024 76.7988 80.6024 77.2249C80.6024 77.6509 80.32 77.9723 79.8987 77.9723C79.4605 77.9723 79.1951 77.6339 79.1951 77.2249C79.1951 76.8158 79.4605 76.4774 79.8987 76.4774ZM83.0592 75.9977C82.7743 75.9977 82.5357 76.1 82.3823 76.3215V76.0586H81.8783V78.3911H82.3872V77.108C82.3872 76.7111 82.6185 76.4822 82.9423 76.4822C83.0665 76.4822 83.2223 76.5115 83.3295 76.5675L83.4512 76.0635C83.3343 76.0172 83.215 75.9977 83.0592 75.9977ZM84.482 74.885H83.9707V78.3911H84.482V77.4075H84.7352L85.5119 78.3911H86.1572L85.1711 77.1567L86.1474 76.0586H85.5071L84.7377 76.9449H84.482V74.885ZM87.513 75.9977C86.8264 75.9977 86.3516 76.4944 86.3516 77.2249C86.3516 77.965 86.8459 78.452 87.5447 78.452C87.8977 78.452 88.2191 78.3668 88.504 78.1233L88.2508 77.7605C88.0584 77.9139 87.8101 78.0064 87.5763 78.0064C87.2452 78.0064 86.9506 77.8311 86.8824 77.4123H88.6062C88.6111 77.3539 88.616 77.2882 88.616 77.2224C88.6135 76.4944 88.1655 75.9977 87.513 75.9977ZM87.5033 76.4506C87.8271 76.4506 88.0389 76.6624 88.0949 77.0252H86.8848C86.9384 76.6843 87.1405 76.4506 87.5033 76.4506ZM90.8106 76.0586H89.9171V75.3525H89.4058V76.0586H88.9407V76.5212H89.4058V77.5462C89.4058 78.1671 89.715 78.452 90.2433 78.452C90.5355 78.452 90.7717 78.3473 90.9592 78.2207L90.7571 77.8141C90.6183 77.9017 90.4454 77.9723 90.2872 77.9723C90.0826 77.9723 89.9171 77.8506 89.9171 77.5365V76.5212H90.8106V76.0586ZM91.9433 76.0586H91.432V78.3911H91.9433V76.0586ZM91.6852 74.8923C91.4831 74.8923 91.3297 75.0506 91.3297 75.2527C91.3297 75.4548 91.4831 75.6082 91.6852 75.6082C91.8873 75.6082 92.0456 75.4548 92.0456 75.2527C92.0456 75.0506 91.8873 74.8923 91.6852 74.8923ZM93.962 75.9977C93.7234 75.9977 93.4337 76.0683 93.2462 76.3435V76.0586H92.7397V78.3911H93.251V77.0982C93.251 76.6989 93.5262 76.4822 93.8549 76.4822C94.1957 76.4822 94.3978 76.7014 94.3978 77.0934V78.3911H94.9091V76.9254C94.9091 76.38 94.5171 75.9977 93.962 75.9977ZM96.5964 75.9977C96.0632 75.9977 95.5154 76.4457 95.5154 77.2005C95.5154 77.9553 96.0632 78.4033 96.5964 78.4033C96.9348 78.4033 97.1978 78.2864 97.3731 78.0624V78.2499C97.3731 78.6833 97.1101 78.9462 96.6329 78.9462C96.348 78.9462 96.0778 78.8537 95.8416 78.7101L95.6566 79.141C95.9025 79.3163 96.2847 79.4113 96.6329 79.4113C97.412 79.4113 97.8844 78.9609 97.8844 78.228V76.0586H97.3731V76.3386C97.1978 76.117 96.9348 75.9977 96.5964 75.9977ZM96.7279 76.4774C97.1394 76.4774 97.4169 76.7915 97.4169 77.2005C97.4169 77.6095 97.1394 77.9236 96.7279 77.9236C96.2969 77.9236 96.0388 77.5925 96.0388 77.2005C96.0388 76.8061 96.2969 76.4774 96.7279 76.4774ZM101.056 75.9977C100.313 75.9977 99.8285 76.5261 99.8285 77.2249C99.8285 77.9236 100.313 78.452 101.056 78.452C101.404 78.452 101.715 78.3254 101.927 78.0795L101.613 77.7289C101.465 77.8676 101.265 77.9723 101.041 77.9723C100.649 77.9723 100.352 77.6655 100.352 77.2249C100.352 76.7842 100.649 76.4774 101.041 76.4774C101.265 76.4774 101.438 76.565 101.601 76.7184L101.927 76.3702C101.72 76.1243 101.404 75.9977 101.056 75.9977ZM103.536 75.9977C102.816 75.9977 102.282 76.5261 102.282 77.2249C102.282 77.9236 102.816 78.452 103.536 78.452C104.257 78.452 104.793 77.9236 104.793 77.2249C104.793 76.5261 104.257 75.9977 103.536 75.9977ZM103.536 76.4774C103.953 76.4774 104.269 76.7842 104.269 77.2249C104.269 77.6655 103.953 77.9723 103.536 77.9723C103.12 77.9723 102.806 77.6655 102.806 77.2249C102.806 76.7842 103.12 76.4774 103.536 76.4774ZM107.229 76.2461C106.988 76.0902 106.65 76.0002 106.284 76.0002C105.69 76.0002 105.32 76.285 105.32 76.7476C105.32 77.1226 105.595 77.3612 106.112 77.4318L106.355 77.4635C106.633 77.5024 106.759 77.5901 106.759 77.7215C106.759 77.8969 106.577 78.0064 106.228 78.0064C105.849 78.0064 105.627 77.8969 105.459 77.7678L105.223 78.1501C105.564 78.4033 105.982 78.4495 106.224 78.4495C106.896 78.4495 107.285 78.1355 107.285 77.6875C107.285 77.2882 106.983 77.0715 106.474 76.9984L106.233 76.9619C106.019 76.9302 105.849 76.884 105.849 76.7209C105.849 76.5553 106.012 76.4433 106.289 76.4433C106.579 76.4433 106.869 76.5553 107.01 76.6429L107.229 76.2461ZM109.476 76.0586H108.582V75.3525H108.071V76.0586H107.606V76.5212H108.071V77.5462C108.071 78.1671 108.38 78.452 108.908 78.452C109.201 78.452 109.437 78.3473 109.624 78.2207L109.422 77.8141C109.283 77.9017 109.11 77.9723 108.952 77.9723C108.748 77.9723 108.582 77.8506 108.582 77.5365V76.5212H109.476V76.0586ZM111.904 76.2461C111.663 76.0902 111.324 76.0002 110.959 76.0002C110.365 76.0002 109.995 76.285 109.995 76.7476C109.995 77.1226 110.27 77.3612 110.786 77.4318L111.03 77.4635C111.307 77.5024 111.434 77.5901 111.434 77.7215C111.434 77.8969 111.251 78.0064 110.903 78.0064C110.523 78.0064 110.302 77.8969 110.134 77.7678L109.897 78.1501C110.238 78.4033 110.657 78.4495 110.898 78.4495C111.57 78.4495 111.96 78.1355 111.96 77.6875C111.96 77.2882 111.658 77.0715 111.149 76.9984L110.908 76.9619C110.694 76.9302 110.523 76.884 110.523 76.7209C110.523 76.5553 110.686 76.4433 110.964 76.4433C111.254 76.4433 111.543 76.5553 111.685 76.6429L111.904 76.2461Z" fill="#7250B2"/>
<path d="M47.6785 90.7679C47.6006 90.7679 47.5257 90.7354 47.4705 90.6771L45.898 89.0196C45.783 88.8985 45.783 88.7021 45.898 88.5809C46.0128 88.4598 46.1992 88.4597 46.3141 88.5809L47.6664 90.0063L50.3704 86.8135C50.4786 86.6859 50.6646 86.6746 50.7859 86.7887C50.9072 86.9029 50.9177 87.0989 50.8095 87.2267L47.898 90.6643C47.8441 90.7279 47.7677 90.7653 47.6868 90.7678C47.684 90.7679 47.6813 90.7679 47.6785 90.7679Z" fill="#7250B2"/>
<path d="M56.7747 89.8749H54.839V88.9327H56.6773V88.4165H54.839V87.4986H56.743V86.9824H54.2888V90.3911H56.7747V89.8749ZM59.6514 88.0586H59.1109L58.4219 89.8628L57.7328 88.0586H57.1777L58.1151 90.3911H58.7189L59.6514 88.0586ZM62.3242 88.0586H61.8153V88.341C61.6546 88.1341 61.4136 87.9977 61.0824 87.9977C60.4299 87.9977 59.9162 88.5115 59.9162 89.2249C59.9162 89.9382 60.4299 90.452 61.0824 90.452C61.4136 90.452 61.6546 90.3181 61.8153 90.1111V90.3911H62.3242V88.0586ZM61.1433 88.4774C61.5645 88.4774 61.847 88.7988 61.847 89.2249C61.847 89.6509 61.5645 89.9723 61.1433 89.9723C60.705 89.9723 60.4396 89.6339 60.4396 89.2249C60.4396 88.8158 60.705 88.4774 61.1433 88.4774ZM63.6342 86.885H63.1229V90.3911H63.6342V86.885ZM66.5684 88.0586H66.0571V89.3563C66.0571 89.8068 65.8063 89.9723 65.4873 89.9723C65.1684 89.9723 64.9176 89.8068 64.9176 89.3563V88.0586H64.4063V89.4026C64.4063 90.1452 64.9395 90.452 65.4873 90.452C66.0327 90.452 66.5684 90.1452 66.5684 89.4026V88.0586ZM69.581 88.0586H69.0721V88.341C68.9114 88.1341 68.6704 87.9977 68.3392 87.9977C67.6867 87.9977 67.173 88.5115 67.173 89.2249C67.173 89.9382 67.6867 90.452 68.3392 90.452C68.6704 90.452 68.9114 90.3181 69.0721 90.1111V90.3911H69.581V88.0586ZM68.4001 88.4774C68.8213 88.4774 69.1037 88.7988 69.1037 89.2249C69.1037 89.6509 68.8213 89.9723 68.4001 89.9723C67.9618 89.9723 67.6964 89.6339 67.6964 89.2249C67.6964 88.8158 67.9618 88.4774 68.4001 88.4774ZM71.9696 88.0586H71.076V87.3525H70.5647V88.0586H70.0997V88.5212H70.5647V89.5462C70.5647 90.1671 70.8739 90.452 71.4023 90.452C71.6945 90.452 71.9306 90.3473 72.1181 90.2207L71.916 89.8141C71.7773 89.9017 71.6044 89.9723 71.4461 89.9723C71.2416 89.9723 71.076 89.8506 71.076 89.5365V88.5212H71.9696V88.0586ZM73.5844 87.9977C72.8977 87.9977 72.423 88.4944 72.423 89.2249C72.423 89.965 72.9172 90.452 73.616 90.452C73.9691 90.452 74.2904 90.3668 74.5753 90.1233L74.3221 89.7605C74.1297 89.9139 73.8814 90.0064 73.6477 90.0064C73.3165 90.0064 73.0219 89.8311 72.9537 89.4123H74.6776C74.6824 89.3539 74.6873 89.2882 74.6873 89.2224C74.6849 88.4944 74.2369 87.9977 73.5844 87.9977ZM73.5746 88.4506C73.8984 88.4506 74.1103 88.6624 74.1663 89.0252H72.9562C73.0097 88.6843 73.2118 88.4506 73.5746 88.4506ZM78.8019 88.0586H78.2419L77.5187 89.3977L76.7688 88.0586H76.1966L77.2314 89.9115L76.3963 91.3796H76.9612L78.8019 88.0586ZM80.2679 87.9977C79.5472 87.9977 79.014 88.5261 79.014 89.2249C79.014 89.9236 79.5472 90.452 80.2679 90.452C80.9886 90.452 81.5243 89.9236 81.5243 89.2249C81.5243 88.5261 80.9886 87.9977 80.2679 87.9977ZM80.2679 88.4774C80.6843 88.4774 81.0008 88.7842 81.0008 89.2249C81.0008 89.6655 80.6843 89.9723 80.2679 89.9723C79.8516 89.9723 79.5375 89.6655 79.5375 89.2249C79.5375 88.7842 79.8516 88.4774 80.2679 88.4774ZM84.2919 88.0586H83.7806V89.3563C83.7806 89.8068 83.5298 89.9723 83.2108 89.9723C82.8919 89.9723 82.6411 89.8068 82.6411 89.3563V88.0586H82.1298V89.4026C82.1298 90.1452 82.663 90.452 83.2108 90.452C83.7562 90.452 84.2919 90.1452 84.2919 89.4026V88.0586ZM86.2453 87.9977C85.9605 87.9977 85.7219 88.1 85.5685 88.3215V88.0586H85.0645V90.3911H85.5733V89.108C85.5733 88.7111 85.8046 88.4822 86.1285 88.4822C86.2526 88.4822 86.4085 88.5115 86.5156 88.5675L86.6373 88.0635C86.5205 88.0172 86.4012 87.9977 86.2453 87.9977ZM91.3022 87.9977C91.0124 87.9977 90.6521 88.0805 90.45 88.4141C90.2893 88.156 89.9995 87.9977 89.6441 87.9977C89.4055 87.9977 89.1157 88.0683 88.9282 88.3435V88.0586H88.4218V90.3911H88.9331V89.0982C88.9331 88.6989 89.2082 88.4822 89.5369 88.4822C89.8778 88.4822 90.0799 88.7014 90.0799 89.0934V90.3911H90.5912V89.0982C90.5912 88.6989 90.8663 88.4822 91.195 88.4822C91.5359 88.4822 91.738 88.7014 91.738 89.0934V90.3911H92.2493V88.9254C92.2493 88.38 91.8573 87.9977 91.3022 87.9977ZM95.2651 88.0586H94.7562V88.341C94.5955 88.1341 94.3545 87.9977 94.0233 87.9977C93.3708 87.9977 92.8571 88.5115 92.8571 89.2249C92.8571 89.9382 93.3708 90.452 94.0233 90.452C94.3545 90.452 94.5955 90.3181 94.7562 90.1111V90.3911H95.2651V88.0586ZM94.0842 88.4774C94.5054 88.4774 94.7878 88.7988 94.7878 89.2249C94.7878 89.6509 94.5054 89.9723 94.0842 89.9723C93.6459 89.9723 93.3805 89.6339 93.3805 89.2249C93.3805 88.8158 93.6459 88.4774 94.0842 88.4774ZM97.2447 87.9977C96.9598 87.9977 96.7212 88.1 96.5678 88.3215V88.0586H96.0638V90.3911H96.5727V89.108C96.5727 88.7111 96.804 88.4822 97.1278 88.4822C97.252 88.4822 97.4078 88.5115 97.5149 88.5675L97.6367 88.0635C97.5198 88.0172 97.4005 87.9977 97.2447 87.9977ZM98.6675 86.885H98.1562V90.3911H98.6675V89.4075H98.9207L99.6974 90.3911H100.343L99.3565 89.1567L100.333 88.0586H99.6925L98.9231 88.9449H98.6675V86.885ZM101.698 87.9977C101.012 87.9977 100.537 88.4944 100.537 89.2249C100.537 89.965 101.031 90.452 101.73 90.452C102.083 90.452 102.405 90.3668 102.689 90.1233L102.436 89.7605C102.244 89.9139 101.996 90.0064 101.762 90.0064C101.431 90.0064 101.136 89.8311 101.068 89.4123H102.792C102.797 89.3539 102.801 89.2882 102.801 89.2224C102.799 88.4944 102.351 87.9977 101.698 87.9977ZM101.689 88.4506C102.013 88.4506 102.224 88.6624 102.28 89.0252H101.07C101.124 88.6843 101.326 88.4506 101.689 88.4506ZM104.996 88.0586H104.103V87.3525H103.591V88.0586H103.126V88.5212H103.591V89.5462C103.591 90.1671 103.9 90.452 104.429 90.452C104.721 90.452 104.957 90.3473 105.145 90.2207L104.943 89.8141C104.804 89.9017 104.631 89.9723 104.473 89.9723C104.268 89.9723 104.103 89.8506 104.103 89.5365V88.5212H104.996V88.0586ZM106.129 88.0586H105.617V90.3911H106.129V88.0586ZM105.871 86.8923C105.669 86.8923 105.515 87.0506 105.515 87.2527C105.515 87.4548 105.669 87.6082 105.871 87.6082C106.073 87.6082 106.231 87.4548 106.231 87.2527C106.231 87.0506 106.073 86.8923 105.871 86.8923ZM108.147 87.9977C107.909 87.9977 107.619 88.0683 107.432 88.3435V88.0586H106.925V90.3911H107.437V89.0982C107.437 88.6989 107.712 88.4822 108.04 88.4822C108.381 88.4822 108.583 88.7014 108.583 89.0934V90.3911H109.095V88.9254C109.095 88.38 108.703 87.9977 108.147 87.9977ZM110.782 87.9977C110.249 87.9977 109.701 88.4457 109.701 89.2005C109.701 89.9553 110.249 90.4033 110.782 90.4033C111.12 90.4033 111.383 90.2864 111.559 90.0624V90.2499C111.559 90.6833 111.296 90.9462 110.818 90.9462C110.534 90.9462 110.263 90.8537 110.027 90.7101L109.842 91.141C110.088 91.3163 110.47 91.4113 110.818 91.4113C111.598 91.4113 112.07 90.9609 112.07 90.228V88.0586H111.559V88.3386C111.383 88.117 111.12 87.9977 110.782 87.9977ZM110.913 88.4774C111.325 88.4774 111.602 88.7915 111.602 89.2005C111.602 89.6095 111.325 89.9236 110.913 89.9236C110.482 89.9236 110.224 89.5925 110.224 89.2005C110.224 88.8061 110.482 88.4774 110.913 88.4774ZM115.989 88.2461C115.748 88.0902 115.409 88.0002 115.044 88.0002C114.45 88.0002 114.08 88.285 114.08 88.7476C114.08 89.1226 114.355 89.3612 114.871 89.4318L115.115 89.4635C115.392 89.5024 115.519 89.5901 115.519 89.7215C115.519 89.8969 115.336 90.0064 114.988 90.0064C114.608 90.0064 114.387 89.8969 114.219 89.7678L113.982 90.1501C114.323 90.4033 114.742 90.4495 114.983 90.4495C115.655 90.4495 116.045 90.1355 116.045 89.6875C116.045 89.2882 115.743 89.0715 115.234 88.9984L114.993 88.9619C114.779 88.9302 114.608 88.884 114.608 88.7209C114.608 88.5553 114.771 88.4433 115.049 88.4433C115.339 88.4433 115.628 88.5553 115.769 88.6429L115.989 88.2461ZM118.235 88.0586H117.342V87.3525H116.83V88.0586H116.365V88.5212H116.83V89.5462C116.83 90.1671 117.14 90.452 117.668 90.452C117.96 90.452 118.196 90.3473 118.384 90.2207L118.182 89.8141C118.043 89.9017 117.87 89.9723 117.712 89.9723C117.507 89.9723 117.342 89.8506 117.342 89.5365V88.5212H118.235V88.0586ZM120.037 87.9977C119.753 87.9977 119.514 88.1 119.361 88.3215V88.0586H118.857V90.3911H119.365V89.108C119.365 88.7111 119.597 88.4822 119.921 88.4822C120.045 88.4822 120.201 88.5115 120.308 88.5675L120.429 88.0635C120.313 88.0172 120.193 87.9977 120.037 87.9977ZM123.094 88.0586H122.585V88.341C122.424 88.1341 122.183 87.9977 121.852 87.9977C121.2 87.9977 120.686 88.5115 120.686 89.2249C120.686 89.9382 121.2 90.452 121.852 90.452C122.183 90.452 122.424 90.3181 122.585 90.1111V90.3911H123.094V88.0586ZM121.913 88.4774C122.334 88.4774 122.617 88.7988 122.617 89.2249C122.617 89.6509 122.334 89.9723 121.913 89.9723C121.475 89.9723 121.209 89.6339 121.209 89.2249C121.209 88.8158 121.475 88.4774 121.913 88.4774ZM125.483 88.0586H124.589V87.3525H124.078V88.0586H123.613V88.5212H124.078V89.5462C124.078 90.1671 124.387 90.452 124.915 90.452C125.207 90.452 125.444 90.3473 125.631 90.2207L125.429 89.8141C125.29 89.9017 125.117 89.9723 124.959 89.9723C124.755 89.9723 124.589 89.8506 124.589 89.5365V88.5212H125.483V88.0586ZM127.097 87.9977C126.411 87.9977 125.936 88.4944 125.936 89.2249C125.936 89.965 126.43 90.452 127.129 90.452C127.482 90.452 127.803 90.3668 128.088 90.1233L127.835 89.7605C127.643 89.9139 127.394 90.0064 127.161 90.0064C126.829 90.0064 126.535 89.8311 126.467 89.4123H128.19C128.195 89.3539 128.2 89.2882 128.2 89.2224C128.198 88.4944 127.75 87.9977 127.097 87.9977ZM127.088 88.4506C127.411 88.4506 127.623 88.6624 127.679 89.0252H126.469C126.523 88.6843 126.725 88.4506 127.088 88.4506ZM129.742 87.9977C129.209 87.9977 128.661 88.4457 128.661 89.2005C128.661 89.9553 129.209 90.4033 129.742 90.4033C130.08 90.4033 130.343 90.2864 130.518 90.0624V90.2499C130.518 90.6833 130.256 90.9462 129.778 90.9462C129.493 90.9462 129.223 90.8537 128.987 90.7101L128.802 91.141C129.048 91.3163 129.43 91.4113 129.778 91.4113C130.557 91.4113 131.03 90.9609 131.03 90.228V88.0586H130.518V88.3386C130.343 88.117 130.08 87.9977 129.742 87.9977ZM129.873 88.4774C130.285 88.4774 130.562 88.7915 130.562 89.2005C130.562 89.6095 130.285 89.9236 129.873 89.9236C129.442 89.9236 129.184 89.5925 129.184 89.2005C129.184 88.8061 129.442 88.4774 129.873 88.4774ZM134.074 88.0586H133.514L132.791 89.3977L132.041 88.0586H131.469L132.504 89.9115L131.669 91.3796H132.234L134.074 88.0586Z" fill="#7250B2"/>
<path d="M47.6785 102.768C47.6006 102.768 47.5257 102.736 47.4705 102.678L45.898 101.02C45.783 100.899 45.783 100.703 45.898 100.581C46.0128 100.46 46.1992 100.46 46.3141 100.581L47.6664 102.007L50.3704 98.814C50.4786 98.6864 50.6646 98.6751 50.7859 98.7892C50.9072 98.9033 50.9177 99.0994 50.8095 99.2272L47.898 102.665C47.8441 102.728 47.7677 102.766 47.6868 102.768C47.684 102.768 47.6813 102.768 47.6785 102.768Z" fill="#7250B2"/>
<path d="M56.7747 101.875H54.839V100.933H56.6773V100.417H54.839V99.4986H56.743V98.9824H54.2888V102.391H56.7747V101.875ZM59.6514 100.059H59.1109L58.4219 101.863L57.7328 100.059H57.1777L58.1151 102.391H58.7189L59.6514 100.059ZM62.3242 100.059H61.8153V100.341C61.6546 100.134 61.4136 99.9977 61.0824 99.9977C60.4299 99.9977 59.9162 100.511 59.9162 101.225C59.9162 101.938 60.4299 102.452 61.0824 102.452C61.4136 102.452 61.6546 102.318 61.8153 102.111V102.391H62.3242V100.059ZM61.1433 100.477C61.5645 100.477 61.847 100.799 61.847 101.225C61.847 101.651 61.5645 101.972 61.1433 101.972C60.705 101.972 60.4396 101.634 60.4396 101.225C60.4396 100.816 60.705 100.477 61.1433 100.477ZM63.6342 98.885H63.1229V102.391H63.6342V98.885ZM66.5684 100.059H66.0571V101.356C66.0571 101.807 65.8063 101.972 65.4873 101.972C65.1684 101.972 64.9176 101.807 64.9176 101.356V100.059H64.4063V101.403C64.4063 102.145 64.9395 102.452 65.4873 102.452C66.0327 102.452 66.5684 102.145 66.5684 101.403V100.059ZM69.581 100.059H69.0721V100.341C68.9114 100.134 68.6704 99.9977 68.3392 99.9977C67.6867 99.9977 67.173 100.511 67.173 101.225C67.173 101.938 67.6867 102.452 68.3392 102.452C68.6704 102.452 68.9114 102.318 69.0721 102.111V102.391H69.581V100.059ZM68.4001 100.477C68.8213 100.477 69.1037 100.799 69.1037 101.225C69.1037 101.651 68.8213 101.972 68.4001 101.972C67.9618 101.972 67.6964 101.634 67.6964 101.225C67.6964 100.816 67.9618 100.477 68.4001 100.477ZM71.9696 100.059H71.076V99.3525H70.5647V100.059H70.0997V100.521H70.5647V101.546C70.5647 102.167 70.8739 102.452 71.4023 102.452C71.6945 102.452 71.9306 102.347 72.1181 102.221L71.916 101.814C71.7773 101.902 71.6044 101.972 71.4461 101.972C71.2416 101.972 71.076 101.851 71.076 101.537V100.521H71.9696V100.059ZM73.5844 99.9977C72.8977 99.9977 72.423 100.494 72.423 101.225C72.423 101.965 72.9172 102.452 73.616 102.452C73.9691 102.452 74.2904 102.367 74.5753 102.123L74.3221 101.761C74.1297 101.914 73.8814 102.006 73.6477 102.006C73.3165 102.006 73.0219 101.831 72.9537 101.412H74.6776C74.6824 101.354 74.6873 101.288 74.6873 101.222C74.6849 100.494 74.2369 99.9977 73.5844 99.9977ZM73.5746 100.451C73.8984 100.451 74.1103 100.662 74.1663 101.025H72.9562C73.0097 100.684 73.2118 100.451 73.5746 100.451ZM78.8019 100.059H78.2419L77.5187 101.398L76.7688 100.059H76.1966L77.2314 101.911L76.3963 103.38H76.9612L78.8019 100.059ZM80.2679 99.9977C79.5472 99.9977 79.014 100.526 79.014 101.225C79.014 101.924 79.5472 102.452 80.2679 102.452C80.9886 102.452 81.5243 101.924 81.5243 101.225C81.5243 100.526 80.9886 99.9977 80.2679 99.9977ZM80.2679 100.477C80.6843 100.477 81.0008 100.784 81.0008 101.225C81.0008 101.666 80.6843 101.972 80.2679 101.972C79.8516 101.972 79.5375 101.666 79.5375 101.225C79.5375 100.784 79.8516 100.477 80.2679 100.477ZM84.2919 100.059H83.7806V101.356C83.7806 101.807 83.5298 101.972 83.2108 101.972C82.8919 101.972 82.6411 101.807 82.6411 101.356V100.059H82.1298V101.403C82.1298 102.145 82.663 102.452 83.2108 102.452C83.7562 102.452 84.2919 102.145 84.2919 101.403V100.059ZM86.2453 99.9977C85.9605 99.9977 85.7219 100.1 85.5685 100.322V100.059H85.0645V102.391H85.5733V101.108C85.5733 100.711 85.8046 100.482 86.1285 100.482C86.2526 100.482 86.4085 100.511 86.5156 100.567L86.6373 100.063C86.5205 100.017 86.4012 99.9977 86.2453 99.9977ZM91.3022 99.9977C91.0124 99.9977 90.6521 100.081 90.45 100.414C90.2893 100.156 89.9995 99.9977 89.6441 99.9977C89.4055 99.9977 89.1157 100.068 88.9282 100.343V100.059H88.4218V102.391H88.9331V101.098C88.9331 100.699 89.2082 100.482 89.5369 100.482C89.8778 100.482 90.0799 100.701 90.0799 101.093V102.391H90.5912V101.098C90.5912 100.699 90.8663 100.482 91.195 100.482C91.5359 100.482 91.738 100.701 91.738 101.093V102.391H92.2493V100.925C92.2493 100.38 91.8573 99.9977 91.3022 99.9977ZM95.2651 100.059H94.7562V100.341C94.5955 100.134 94.3545 99.9977 94.0233 99.9977C93.3708 99.9977 92.8571 100.511 92.8571 101.225C92.8571 101.938 93.3708 102.452 94.0233 102.452C94.3545 102.452 94.5955 102.318 94.7562 102.111V102.391H95.2651V100.059ZM94.0842 100.477C94.5054 100.477 94.7878 100.799 94.7878 101.225C94.7878 101.651 94.5054 101.972 94.0842 101.972C93.6459 101.972 93.3805 101.634 93.3805 101.225C93.3805 100.816 93.6459 100.477 94.0842 100.477ZM97.2447 99.9977C96.9598 99.9977 96.7212 100.1 96.5678 100.322V100.059H96.0638V102.391H96.5727V101.108C96.5727 100.711 96.804 100.482 97.1278 100.482C97.252 100.482 97.4078 100.511 97.5149 100.567L97.6367 100.063C97.5198 100.017 97.4005 99.9977 97.2447 99.9977ZM98.6675 98.885H98.1562V102.391H98.6675V101.407H98.9207L99.6974 102.391H100.343L99.3565 101.157L100.333 100.059H99.6925L98.9231 100.945H98.6675V98.885ZM101.698 99.9977C101.012 99.9977 100.537 100.494 100.537 101.225C100.537 101.965 101.031 102.452 101.73 102.452C102.083 102.452 102.405 102.367 102.689 102.123L102.436 101.761C102.244 101.914 101.996 102.006 101.762 102.006C101.431 102.006 101.136 101.831 101.068 101.412H102.792C102.797 101.354 102.801 101.288 102.801 101.222C102.799 100.494 102.351 99.9977 101.698 99.9977ZM101.689 100.451C102.013 100.451 102.224 100.662 102.28 101.025H101.07C101.124 100.684 101.326 100.451 101.689 100.451ZM104.996 100.059H104.103V99.3525H103.591V100.059H103.126V100.521H103.591V101.546C103.591 102.167 103.9 102.452 104.429 102.452C104.721 102.452 104.957 102.347 105.145 102.221L104.943 101.814C104.804 101.902 104.631 101.972 104.473 101.972C104.268 101.972 104.103 101.851 104.103 101.537V100.521H104.996V100.059ZM106.129 100.059H105.617V102.391H106.129V100.059ZM105.871 98.8923C105.669 98.8923 105.515 99.0506 105.515 99.2527C105.515 99.4548 105.669 99.6082 105.871 99.6082C106.073 99.6082 106.231 99.4548 106.231 99.2527C106.231 99.0506 106.073 98.8923 105.871 98.8923ZM108.147 99.9977C107.909 99.9977 107.619 100.068 107.432 100.343V100.059H106.925V102.391H107.437V101.098C107.437 100.699 107.712 100.482 108.04 100.482C108.381 100.482 108.583 100.701 108.583 101.093V102.391H109.095V100.925C109.095 100.38 108.703 99.9977 108.147 99.9977ZM110.782 99.9977C110.249 99.9977 109.701 100.446 109.701 101.201C109.701 101.955 110.249 102.403 110.782 102.403C111.12 102.403 111.383 102.286 111.559 102.062V102.25C111.559 102.683 111.296 102.946 110.818 102.946C110.534 102.946 110.263 102.854 110.027 102.71L109.842 103.141C110.088 103.316 110.47 103.411 110.818 103.411C111.598 103.411 112.07 102.961 112.07 102.228V100.059H111.559V100.339C111.383 100.117 111.12 99.9977 110.782 99.9977ZM110.913 100.477C111.325 100.477 111.602 100.791 111.602 101.201C111.602 101.61 111.325 101.924 110.913 101.924C110.482 101.924 110.224 101.593 110.224 101.201C110.224 100.806 110.482 100.477 110.913 100.477ZM115.989 100.246C115.748 100.09 115.409 100 115.044 100C114.45 100 114.08 100.285 114.08 100.748C114.08 101.123 114.355 101.361 114.871 101.432L115.115 101.463C115.392 101.502 115.519 101.59 115.519 101.722C115.519 101.897 115.336 102.006 114.988 102.006C114.608 102.006 114.387 101.897 114.219 101.768L113.982 102.15C114.323 102.403 114.742 102.45 114.983 102.45C115.655 102.45 116.045 102.135 116.045 101.687C116.045 101.288 115.743 101.071 115.234 100.998L114.993 100.962C114.779 100.93 114.608 100.884 114.608 100.721C114.608 100.555 114.771 100.443 115.049 100.443C115.339 100.443 115.628 100.555 115.769 100.643L115.989 100.246ZM118.235 100.059H117.342V99.3525H116.83V100.059H116.365V100.521H116.83V101.546C116.83 102.167 117.14 102.452 117.668 102.452C117.96 102.452 118.196 102.347 118.384 102.221L118.182 101.814C118.043 101.902 117.87 101.972 117.712 101.972C117.507 101.972 117.342 101.851 117.342 101.537V100.521H118.235V100.059ZM120.037 99.9977C119.753 99.9977 119.514 100.1 119.361 100.322V100.059H118.857V102.391H119.365V101.108C119.365 100.711 119.597 100.482 119.921 100.482C120.045 100.482 120.201 100.511 120.308 100.567L120.429 100.063C120.313 100.017 120.193 99.9977 120.037 99.9977ZM123.094 100.059H122.585V100.341C122.424 100.134 122.183 99.9977 121.852 99.9977C121.2 99.9977 120.686 100.511 120.686 101.225C120.686 101.938 121.2 102.452 121.852 102.452C122.183 102.452 122.424 102.318 122.585 102.111V102.391H123.094V100.059ZM121.913 100.477C122.334 100.477 122.617 100.799 122.617 101.225C122.617 101.651 122.334 101.972 121.913 101.972C121.475 101.972 121.209 101.634 121.209 101.225C121.209 100.816 121.475 100.477 121.913 100.477ZM125.483 100.059H124.589V99.3525H124.078V100.059H123.613V100.521H124.078V101.546C124.078 102.167 124.387 102.452 124.915 102.452C125.207 102.452 125.444 102.347 125.631 102.221L125.429 101.814C125.29 101.902 125.117 101.972 124.959 101.972C124.755 101.972 124.589 101.851 124.589 101.537V100.521H125.483V100.059ZM127.097 99.9977C126.411 99.9977 125.936 100.494 125.936 101.225C125.936 101.965 126.43 102.452 127.129 102.452C127.482 102.452 127.803 102.367 128.088 102.123L127.835 101.761C127.643 101.914 127.394 102.006 127.161 102.006C126.829 102.006 126.535 101.831 126.467 101.412H128.19C128.195 101.354 128.2 101.288 128.2 101.222C128.198 100.494 127.75 99.9977 127.097 99.9977ZM127.088 100.451C127.411 100.451 127.623 100.662 127.679 101.025H126.469C126.523 100.684 126.725 100.451 127.088 100.451ZM129.742 99.9977C129.209 99.9977 128.661 100.446 128.661 101.201C128.661 101.955 129.209 102.403 129.742 102.403C130.08 102.403 130.343 102.286 130.518 102.062V102.25C130.518 102.683 130.256 102.946 129.778 102.946C129.493 102.946 129.223 102.854 128.987 102.71L128.802 103.141C129.048 103.316 129.43 103.411 129.778 103.411C130.557 103.411 131.03 102.961 131.03 102.228V100.059H130.518V100.339C130.343 100.117 130.08 99.9977 129.742 99.9977ZM129.873 100.477C130.285 100.477 130.562 100.791 130.562 101.201C130.562 101.61 130.285 101.924 129.873 101.924C129.442 101.924 129.184 101.593 129.184 101.201C129.184 100.806 129.442 100.477 129.873 100.477ZM134.074 100.059H133.514L132.791 101.398L132.041 100.059H131.469L132.504 101.911L131.669 103.38H132.234L134.074 100.059Z" fill="#7250B2"/>
<line x1="45.3044" y1="109.239" x2="142.696" y2="109.239" stroke="#7250B2" stroke-width="0.304348"/>
</svg>
