<svg width="88" height="88" viewBox="0 0 88 88" fill="none" xmlns="http://www.w3.org/2000/svg">
<path d="M38.1901 52.5113C38.1901 40.6472 47.8079 31.0294 59.6721 31.0294V31.0294C71.5362 31.0294 81.154 40.6472 81.154 52.5114V70.8108C81.154 75.2049 77.5919 78.7671 73.1977 78.7671H46.1464C41.7523 78.7671 38.1901 75.2049 38.1901 70.8108V52.5113Z" fill="#FFB96C"/>
<path d="M55.182 25.5331L54.2976 34.5513C54.0862 36.7071 55.2869 38.7539 57.2719 39.6211L65.5754 43.249C68.2385 44.4125 67.8569 48.3041 65.0185 48.9281L56.1684 50.8738C54.0527 51.3389 52.4772 53.1134 52.2658 55.2692L51.3814 64.2874C51.0978 67.1797 47.2787 68.0193 45.8082 65.5126L41.2229 57.6969C40.1268 55.8286 37.9523 54.8785 35.8367 55.3436L26.9865 57.2893C24.1481 57.9133 22.1695 54.5406 24.099 52.3674L30.1153 45.5914C31.5535 43.9716 31.7851 41.6099 30.689 39.7416L26.1037 31.9258C24.6331 29.4192 27.2293 26.4952 29.8924 27.6587L38.1959 31.2866C40.1809 32.1539 42.4985 31.6443 43.9367 30.0245L49.9529 23.2485C51.8825 21.0753 55.4656 22.6408 55.182 25.5331Z" stroke="#EAD0FF" stroke-width="2"/>
</svg>
