<svg width="24" height="24" viewBox="0 0 24 24" fill="none" xmlns="http://www.w3.org/2000/svg">
<path fill-rule="evenodd" clip-rule="evenodd" d="M12 12C9.794 12 8 10.206 8 8C8 5.794 9.794 4 12 4C14.206 4 16 5.794 16 8C16 10.206 14.206 12 12 12ZM15.758 12.673C17.124 11.574 18 9.89 18 8C18 4.686 15.314 2 12 2C8.686 2 6 4.686 6 8C6 9.89 6.876 11.574 8.242 12.673C4.583 14.048 2 17.445 2 22H4C4 17 7.589 14 12 14C16.411 14 20 17 20 22H22C22 17.445 19.417 14.048 15.758 12.673Z" fill="#5B3F91"/>
</svg>
