<svg width="80" height="80" viewBox="0 0 80 80" fill="none" xmlns="http://www.w3.org/2000/svg">
<path d="M22.9523 20.1904C18.3237 20.1904 14.5713 23.9428 14.5713 28.5714V60.9523C14.5713 65.581 18.3237 69.3333 22.9523 69.3333H57.2381C61.8664 69.3333 65.6188 65.581 65.6188 60.9523V28.5714C65.6188 23.9428 61.8664 20.1904 57.2381 20.1904H22.9523Z" fill="url(#paint0_linear_3796_29401)"/>
<g opacity="0.3">
<path opacity="0.3" d="M57.2382 20.1904H55.0479V27.2C55.0479 27.7333 55.4669 28.1523 56.0002 28.1523H65.6002C65.3905 23.7142 61.7145 20.1904 57.2382 20.1904Z" fill="#4F0940"/>
<path opacity="0.3" d="M25.333 20.1904V27.2C25.333 27.7333 25.752 28.1523 26.2854 28.1523H53.7141C54.2474 28.1523 54.6664 27.7333 54.6664 27.2V20.1904H25.333Z" fill="#4F0940"/>
<path opacity="0.3" d="M22.9527 20.1904C18.4765 20.1904 14.8003 23.7142 14.5908 28.1523H24.0004C24.5337 28.1523 24.9527 27.7333 24.9527 27.2V20.1904H22.9527Z" fill="#4F0940"/>
<path opacity="0.3" d="M40.1904 29.4859V41.8476L44.3808 52.8383C44.4571 53.0096 44.4188 53.2003 44.3238 53.3716C44.2284 53.543 44.0378 53.6193 43.8474 53.6193H41.1428C40.6094 53.6193 40.1904 54.0383 40.1904 54.5716V57.4096H52.2854V59.505C52.2854 59.7336 52.2664 59.981 52.2474 60.2286L52.2284 60.4383H65.6188V28.5716C65.6188 28.5525 65.6188 28.5335 65.6188 28.5335H41.1428C40.6094 28.5335 40.1904 28.9525 40.1904 29.4859Z" fill="#4F0940"/>
<path opacity="0.3" d="M65.6188 60.799H52.3428L52.3044 60.9517C51.6188 63.961 48.8951 66.1517 45.8094 66.1517H40.1904V69.3323H57.2378C61.8664 69.3323 65.6188 65.58 65.6188 60.9517V60.799Z" fill="#4F0940"/>
<path opacity="0.3" d="M38.8571 28.5335H14.5713C14.5713 28.5525 14.5713 28.5716 14.5713 28.5716V60.4193H27.7713L27.7522 60.2096C27.7332 59.962 27.7142 59.7143 27.7142 59.486V57.3906H39.8094V54.5526C39.8094 54.0193 39.3904 53.6003 38.8571 53.6003H36.1521C35.9618 53.6003 35.7904 53.505 35.6761 53.3526C35.5618 53.2003 35.5428 53.0096 35.6188 52.8193L39.8094 41.8286V29.4668C39.8094 28.9525 39.3904 28.5335 38.8571 28.5335Z" fill="#4F0940"/>
<path opacity="0.3" d="M27.6951 60.9517L27.657 60.799H14.5713V60.9517C14.5713 65.58 18.3237 69.3323 22.9522 69.3323H39.8094V66.1517H34.1904C31.1046 66.1517 28.3618 63.98 27.6951 60.9517Z" fill="#4F0940"/>
</g>
<path d="M70.4767 37.3327V52.1897C70.4767 52.8184 69.9623 53.3327 69.3337 53.3327H67.81C67.1813 53.3327 66.667 52.8184 66.667 52.1897V37.3327C66.667 36.704 67.1813 36.1897 67.81 36.1897H69.3337C69.9623 36.1897 70.4767 36.704 70.4767 37.3327Z" fill="url(#paint1_linear_3796_29401)"/>
<path d="M13.3339 37.3327V52.1897C13.3339 52.8184 12.8196 53.3327 12.1911 53.3327H10.6672C10.0387 53.3327 9.52441 52.8184 9.52441 52.1897V37.3327C9.52441 36.704 10.0387 36.1897 10.6672 36.1897H12.1911C12.8196 36.1897 13.3339 36.704 13.3339 37.3327Z" fill="url(#paint2_linear_3796_29401)"/>
<path d="M66.667 37.3327V52.1897C66.667 52.8184 67.1813 53.3327 67.81 53.3327H69.3337C69.9623 53.3327 70.4767 52.8184 70.4767 52.1897V51.3707C69.01 51.3707 67.81 50.1707 67.81 48.704V36.1897C67.1813 36.1897 66.667 36.704 66.667 37.3327Z" fill="url(#paint3_linear_3796_29401)"/>
<path d="M52.4949 60.9897C51.8092 64.0564 49.0665 66.342 45.8092 66.342H40.3809V70.5134H57.1425C62.3999 70.5134 66.6665 66.2467 66.6665 60.9897H52.4949Z" fill="#DC3646"/>
<path d="M57.1429 19.0853H55.2383V27.1806C55.2383 27.5996 55.5813 27.9425 56.0003 27.9425H66.648C66.305 23.0091 62.1716 19.0853 57.1429 19.0853Z" fill="#DC3646"/>
<path d="M13.3525 27.9615H24.0001C24.4192 27.9615 24.762 27.6186 24.762 27.1996V19.0853H22.8573C17.8287 19.0853 13.6954 23.0091 13.3525 27.9615Z" fill="#DC3646"/>
<path d="M26.2863 27.9615H53.715C54.134 27.9615 54.4766 27.6186 54.4766 27.1996V19.0853H25.5244V27.1806C25.5244 27.6186 25.8672 27.9615 26.2863 27.9615Z" fill="url(#paint4_linear_3796_29401)"/>
<path d="M27.5235 59.4844V57.1987H39.6187V54.551C39.6187 54.132 39.276 53.789 38.8567 53.789H36.152C35.6187 53.789 35.2567 53.2557 35.4473 52.7604L39.6377 41.808V29.4843C39.6377 29.0652 39.295 28.7224 38.876 28.7224H13.333V60.246H27.5616C27.5425 59.9987 27.5235 59.751 27.5235 59.4844Z" fill="url(#paint5_linear_3796_29401)"/>
<path d="M52.4757 59.4844V57.1987H40.3803V54.551C40.3803 54.132 40.7233 53.789 41.1423 53.789H43.847C44.3803 53.789 44.7423 53.2557 44.552 52.7604L40.3613 41.808V29.4843C40.3613 29.0652 40.7043 28.7224 41.1233 28.7224H66.647V60.246H52.4187C52.4567 59.9987 52.4757 59.751 52.4757 59.4844Z" fill="url(#paint6_linear_3796_29401)"/>
<path d="M27.5044 60.9897C28.1901 64.0564 30.933 66.342 34.19 66.342H39.6187V70.5134H22.8568C17.5997 70.5134 13.333 66.2467 13.333 60.9897H27.5044Z" fill="#DC3646"/>
<path d="M27.9618 47.904C32.1697 47.904 35.5807 44.493 35.5807 40.285C35.5807 36.0773 32.1697 32.666 27.9618 32.666C23.7539 32.666 20.3428 36.0773 20.3428 40.285C20.3428 44.493 23.7539 47.904 27.9618 47.904Z" fill="url(#paint7_linear_3796_29401)"/>
<path d="M27.9622 47.4286C31.9071 47.4286 35.1049 44.2306 35.1049 40.2856C35.1049 36.341 31.9071 33.1429 27.9622 33.1429C24.0173 33.1429 20.8193 36.341 20.8193 40.2856C20.8193 44.2306 24.0173 47.4286 27.9622 47.4286Z" fill="url(#paint8_linear_3796_29401)"/>
<path d="M27.9616 46.9513C31.6435 46.9513 34.6281 43.9666 34.6281 40.2846C34.6281 36.603 31.6435 33.618 27.9616 33.618C24.2797 33.618 21.2949 36.603 21.2949 40.2846C21.2949 43.9666 24.2797 46.9513 27.9616 46.9513Z" fill="url(#paint9_linear_3796_29401)"/>
<path d="M27.9623 34.9514C25.0099 34.9514 22.6289 37.332 22.6289 40.2847C22.6289 43.237 25.0099 45.6177 27.9623 45.6177C30.9146 45.6177 33.2956 43.237 33.2956 40.2847C33.2956 37.332 30.8956 34.9514 27.9623 34.9514ZM27.9623 44.6654C25.5432 44.6654 23.5813 42.7037 23.5813 40.2847C23.5813 37.8654 25.5432 35.9037 27.9623 35.9037C30.3813 35.9037 32.3432 37.8654 32.3432 40.2847C32.3432 42.7037 30.3813 44.6654 27.9623 44.6654Z" fill="url(#paint10_linear_3796_29401)"/>
<path d="M27.4863 37.143V43.4287C27.4863 43.6954 27.6959 43.9047 27.9625 43.9047C28.2292 43.9047 28.4387 43.6954 28.4387 43.4287V37.143C28.4387 36.8764 28.2292 36.6667 27.9625 36.6667C27.6959 36.6667 27.4863 36.8764 27.4863 37.143Z" fill="url(#paint11_linear_3796_29401)"/>
<path d="M25.2002 38.2837V42.2837C25.2002 42.5503 25.4097 42.76 25.6764 42.76C25.9431 42.76 26.1526 42.5503 26.1526 42.2837V38.2837C26.1526 38.017 25.9431 37.8077 25.6764 37.8077C25.4097 37.8077 25.2002 38.017 25.2002 38.2837Z" fill="url(#paint12_linear_3796_29401)"/>
<path d="M30.7238 38.2837V42.2837C30.7238 42.5503 30.5143 42.76 30.2477 42.76C29.981 42.76 29.7715 42.5503 29.7715 42.2837V38.2837C29.7715 38.017 29.981 37.8077 30.2477 37.8077C30.4953 37.8077 30.7238 38.017 30.7238 38.2837Z" fill="url(#paint13_linear_3796_29401)"/>
<path d="M27.9621 36.2656C30.6668 36.2656 33.0478 37.2753 34.4573 38.799C33.7716 35.8276 31.124 33.618 27.9621 33.618C24.8001 33.618 22.1335 35.8276 21.4668 38.799C22.8763 37.2753 25.2573 36.2656 27.9621 36.2656Z" fill="url(#paint14_linear_3796_29401)"/>
<path d="M52.2287 47.904C56.4364 47.904 59.8477 44.493 59.8477 40.285C59.8477 36.0773 56.4364 32.666 52.2287 32.666C48.0207 32.666 44.6094 36.0773 44.6094 40.285C44.6094 44.493 48.0207 47.904 52.2287 47.904Z" fill="url(#paint15_linear_3796_29401)"/>
<path d="M52.2286 47.4286C56.1736 47.4286 59.3716 44.2306 59.3716 40.2856C59.3716 36.341 56.1736 33.1429 52.2286 33.1429C48.2836 33.1429 45.0859 36.341 45.0859 40.2856C45.0859 44.2306 48.2836 47.4286 52.2286 47.4286Z" fill="url(#paint16_linear_3796_29401)"/>
<path d="M52.2292 46.9513C55.9112 46.9513 58.8958 43.9666 58.8958 40.2846C58.8958 36.603 55.9112 33.618 52.2292 33.618C48.5472 33.618 45.5625 36.603 45.5625 40.2846C45.5625 43.9666 48.5472 46.9513 52.2292 46.9513Z" fill="url(#paint17_linear_3796_29401)"/>
<path d="M46.8955 40.2847C46.8955 43.237 49.2765 45.6177 52.2288 45.6177C55.1812 45.6177 57.5622 43.237 57.5622 40.2847C57.5622 37.332 55.1812 34.9514 52.2288 34.9514C49.2955 34.9514 46.8955 37.332 46.8955 40.2847ZM47.8478 40.2847C47.8478 37.8654 49.8098 35.9037 52.2288 35.9037C54.6478 35.9037 56.6098 37.8654 56.6098 40.2847C56.6098 42.7037 54.6478 44.6654 52.2288 44.6654C49.8098 44.6654 47.8478 42.7037 47.8478 40.2847Z" fill="url(#paint18_linear_3796_29401)"/>
<path d="M52.7053 37.143V43.4287C52.7053 43.6954 52.4956 43.9047 52.2289 43.9047C51.9623 43.9047 51.7529 43.6954 51.7529 43.4287V37.143C51.7529 36.8764 51.9623 36.6667 52.2289 36.6667C52.4956 36.6667 52.7053 36.8764 52.7053 37.143Z" fill="url(#paint19_linear_3796_29401)"/>
<path d="M54.9907 38.2837V42.2837C54.9907 42.5503 54.7811 42.76 54.5144 42.76C54.2478 42.76 54.0381 42.5503 54.0381 42.2837V38.2837C54.0381 38.017 54.2478 37.8077 54.5144 37.8077C54.7811 37.8077 54.9907 38.017 54.9907 38.2837Z" fill="url(#paint20_linear_3796_29401)"/>
<path d="M49.4668 38.2837V42.2837C49.4668 42.5503 49.6761 42.76 49.9428 42.76C50.2095 42.76 50.4191 42.5503 50.4191 42.2837V38.2837C50.4191 38.017 50.2095 37.8077 49.9428 37.8077C49.6955 37.8077 49.4668 38.017 49.4668 38.2837Z" fill="url(#paint21_linear_3796_29401)"/>
<path d="M52.2287 36.2656C49.5237 36.2656 47.1431 37.2753 45.7334 38.799C46.4191 35.8276 49.0667 33.618 52.2287 33.618C55.3904 33.618 58.0571 35.8276 58.7237 38.799C57.3144 37.2753 54.9334 36.2656 52.2287 36.2656Z" fill="url(#paint22_linear_3796_29401)"/>
<path d="M22.0195 42.875C23.01 45.1607 25.2957 46.7607 27.9624 46.7607C31.5434 46.7607 34.4388 43.8653 34.4388 40.2843C34.4388 39.9797 34.4194 39.675 34.3814 39.37C28.21 39.5607 28.0196 43.1797 22.0195 42.875Z" fill="url(#paint23_linear_3796_29401)"/>
<path d="M46.3057 42.875C47.296 45.1607 49.582 46.7607 52.2487 46.7607C55.8293 46.7607 58.7247 43.8653 58.7247 40.2843C58.7247 39.9797 58.7057 39.675 58.6677 39.37C52.496 39.5607 52.3057 43.1797 46.3057 42.875Z" fill="url(#paint24_linear_3796_29401)"/>
<path d="M40 42.951L36.1523 53.027H43.8667L40 42.951Z" fill="#DC3646"/>
<path d="M40 53.027V42.951L43.8477 53.027H40Z" fill="#DC3646"/>
<path d="M28.2861 57.9607V59.4844C28.2861 62.8367 31.029 65.5797 34.3814 65.5797H45.8101C49.1624 65.5797 51.9051 62.8367 51.9051 59.4844V57.9607H28.2861Z" fill="url(#paint25_linear_3796_29401)"/>
<path d="M51.1235 60.628C51.1998 60.266 51.2378 59.885 51.2378 59.485V58.628H28.9521V59.485C28.9521 59.885 28.9902 60.266 29.0664 60.628H51.1235Z" fill="url(#paint26_radial_3796_29401)"/>
<path d="M28.2861 59.4844C28.2861 59.4844 31.048 59.0464 40.0004 59.0464C48.9527 59.0464 51.9051 59.4844 51.9051 59.4844V57.9607H28.2861V59.4844Z" fill="url(#paint27_linear_3796_29401)"/>
<path d="M50.0195 62.9133H30.1719C31.1624 64.1323 32.6862 64.9133 34.3815 64.9133H45.8098C47.5052 64.9133 49.0098 64.1323 50.0195 62.9133Z" fill="url(#paint28_radial_3796_29401)"/>
<path d="M40.0949 19.7328C38.5332 19.7328 37.4855 19.6566 38.0949 18.228C38.4189 17.4471 38.4189 16.5709 38.0949 15.809C37.4855 14.3804 38.5332 12.7994 40.0949 12.7994C41.6569 12.7994 42.7045 14.3804 42.0949 15.809C41.7712 16.5899 41.7712 17.4661 42.0949 18.228C42.7045 19.6566 41.6569 19.7328 40.0949 19.7328Z" fill="url(#paint29_linear_3796_29401)"/>
<path d="M37.9244 14.7625C37.9054 15.1053 37.9434 15.4482 38.0958 15.791C38.1911 16.0196 38.2674 16.2672 38.3054 16.5149C39.2008 17.2958 40.2674 17.2006 40.6864 17.0291C41.1818 16.8387 41.6958 18.6863 40.1531 19.5244C40.0198 19.6006 40.0198 19.7339 40.0958 19.7339C41.6578 19.7339 42.7054 19.6577 42.0958 18.2291C41.7721 17.4482 41.7721 16.572 42.0958 15.8101C42.3054 15.3339 42.3054 14.8387 42.1911 14.4006L39.8101 13.6768L37.9244 14.7625Z" fill="url(#paint30_linear_3796_29401)"/>
<path d="M40.0957 16.3802C41.989 16.3802 43.524 14.8452 43.524 12.9517C43.524 11.0581 41.989 9.52307 40.0957 9.52307C38.202 9.52307 36.667 11.0581 36.667 12.9517C36.667 14.8452 38.202 16.3802 40.0957 16.3802Z" fill="#FF0000"/>
<path d="M40.0957 16.3802C41.989 16.3802 43.524 14.8452 43.524 12.9517C43.524 11.0581 41.989 9.52307 40.0957 9.52307C38.202 9.52307 36.667 11.0581 36.667 12.9517C36.667 14.8452 38.202 16.3802 40.0957 16.3802Z" fill="url(#paint31_linear_3796_29401)"/>
<path opacity="0.75" d="M40.0947 15.7699C41.6514 15.7699 42.9137 14.5078 42.9137 12.9509C42.9137 11.394 41.6514 10.1318 40.0947 10.1318C38.5377 10.1318 37.2754 11.394 37.2754 12.9509C37.2754 14.5078 38.5377 15.7699 40.0947 15.7699Z" fill="url(#paint32_radial_3796_29401)"/>
<path d="M13.3339 37.3327V52.1897C13.3339 52.8184 12.8196 53.3327 12.1911 53.3327H10.6672C10.0387 53.3327 9.52441 52.8184 9.52441 52.1897V51.3707C10.9911 51.3707 12.1911 50.1707 12.1911 48.704V36.1897C12.8196 36.1897 13.3339 36.704 13.3339 37.3327Z" fill="url(#paint33_linear_3796_29401)"/>
<path d="M43.2001 11.5039C42.5335 13.6372 40.5335 15.1991 38.1715 15.1991C37.9238 15.1991 37.6955 15.1801 37.4668 15.142C38.0955 15.9039 39.0478 16.3801 40.0955 16.3801C41.9811 16.3801 43.5238 14.8372 43.5238 12.9515C43.5238 12.4372 43.4098 11.942 43.2001 11.5039Z" fill="url(#paint34_linear_3796_29401)"/>
<defs>
<linearGradient id="paint0_linear_3796_29401" x1="40.0951" y1="69.8413" x2="40.0951" y2="20.7753" gradientUnits="userSpaceOnUse">
<stop stop-color="#008EE6"/>
<stop offset="0.3967" stop-color="#7000A3"/>
<stop offset="1" stop-color="#17BBFE"/>
</linearGradient>
<linearGradient id="paint1_linear_3796_29401" x1="68.5717" y1="52.031" x2="68.5717" y2="41.4167" gradientUnits="userSpaceOnUse">
<stop stop-color="#BD2719"/>
<stop offset="0.2151" stop-color="#D41A10"/>
<stop offset="0.5049" stop-color="#EC0C07"/>
<stop offset="0.774" stop-color="#FA0302"/>
<stop offset="1" stop-color="#FF0000"/>
</linearGradient>
<linearGradient id="paint2_linear_3796_29401" x1="11.4292" y1="48.5074" x2="11.4292" y2="37.8254" gradientUnits="userSpaceOnUse">
<stop stop-color="#BD2719"/>
<stop offset="0.2151" stop-color="#D41A10"/>
<stop offset="0.5049" stop-color="#EC0C07"/>
<stop offset="0.774" stop-color="#FA0302"/>
<stop offset="1" stop-color="#FF0000"/>
</linearGradient>
<linearGradient id="paint3_linear_3796_29401" x1="68.5717" y1="57.777" x2="68.5717" y2="25.9447" gradientUnits="userSpaceOnUse">
<stop stop-color="#612D5B"/>
<stop offset="0.1479" stop-color="#872245"/>
<stop offset="0.3388" stop-color="#B2162C"/>
<stop offset="0.5244" stop-color="#D30C19"/>
<stop offset="0.7005" stop-color="#EB060B"/>
<stop offset="0.8633" stop-color="#FA0103"/>
<stop offset="1" stop-color="#FF0000"/>
</linearGradient>
<linearGradient id="paint4_linear_3796_29401" x1="40.0006" y1="28.1266" x2="40.0006" y2="17.6435" gradientUnits="userSpaceOnUse">
<stop stop-color="#BBCACC"/>
<stop offset="0.4724" stop-color="white"/>
<stop offset="1" stop-color="#99AFB3"/>
</linearGradient>
<linearGradient id="paint5_linear_3796_29401" x1="39.1797" y1="44.4747" x2="13.4017" y2="44.4747" gradientUnits="userSpaceOnUse">
<stop stop-color="#BBCACC"/>
<stop offset="0.1579" stop-color="#C0CED0"/>
<stop offset="0.3418" stop-color="#CED9DA"/>
<stop offset="0.538" stop-color="#E5EBEC"/>
<stop offset="0.7044" stop-color="white"/>
<stop offset="1" stop-color="#99AFB3"/>
</linearGradient>
<linearGradient id="paint6_linear_3796_29401" x1="40.8193" y1="44.4747" x2="66.5977" y2="44.4747" gradientUnits="userSpaceOnUse">
<stop stop-color="#BBCACC"/>
<stop offset="0.1579" stop-color="#C0CED0"/>
<stop offset="0.3418" stop-color="#CED9DA"/>
<stop offset="0.538" stop-color="#E5EBEC"/>
<stop offset="0.7044" stop-color="white"/>
<stop offset="1" stop-color="#99AFB3"/>
</linearGradient>
<linearGradient id="paint7_linear_3796_29401" x1="32.74" y1="47.4867" x2="21.0257" y2="29.8675" gradientUnits="userSpaceOnUse">
<stop stop-color="#BD2719"/>
<stop offset="0.2151" stop-color="#D41A10"/>
<stop offset="0.5049" stop-color="#EC0C07"/>
<stop offset="0.774" stop-color="#FA0302"/>
<stop offset="1" stop-color="#FF0000"/>
</linearGradient>
<linearGradient id="paint8_linear_3796_29401" x1="24.387" y1="27.263" x2="30.0378" y2="47.898" gradientUnits="userSpaceOnUse">
<stop stop-color="#612D5B"/>
<stop offset="0.1479" stop-color="#872245"/>
<stop offset="0.3388" stop-color="#B2162C"/>
<stop offset="0.5244" stop-color="#D30C19"/>
<stop offset="0.7005" stop-color="#EB060B"/>
<stop offset="0.8633" stop-color="#FA0103"/>
<stop offset="1" stop-color="#FF0000"/>
</linearGradient>
<linearGradient id="paint9_linear_3796_29401" x1="27.9532" y1="34.3166" x2="27.9532" y2="47.039" gradientUnits="userSpaceOnUse">
<stop stop-color="#008EE6"/>
<stop offset="1" stop-color="#391838"/>
</linearGradient>
<linearGradient id="paint10_linear_3796_29401" x1="27.9539" y1="49.5587" x2="27.9539" y2="35.8124" gradientUnits="userSpaceOnUse">
<stop stop-color="#008EE6"/>
<stop offset="1" stop-color="white"/>
</linearGradient>
<linearGradient id="paint11_linear_3796_29401" x1="27.9541" y1="36.8414" x2="27.9541" y2="44.299" gradientUnits="userSpaceOnUse">
<stop stop-color="#008EE6"/>
<stop offset="0.051059" stop-color="#34A5EB"/>
<stop offset="0.1108" stop-color="#69BDF0"/>
<stop offset="0.1713" stop-color="#97D1F5"/>
<stop offset="0.2313" stop-color="#BCE2F8"/>
<stop offset="0.2908" stop-color="#DAEEFB"/>
<stop offset="0.3497" stop-color="#EEF8FD"/>
<stop offset="0.4076" stop-color="#FBFDFF"/>
<stop offset="0.4634" stop-color="white"/>
<stop offset="0.5314" stop-color="#FBFBFB"/>
<stop offset="0.6019" stop-color="#F1EEF1"/>
<stop offset="0.6736" stop-color="#DFDADF"/>
<stop offset="0.7461" stop-color="#C6BDC6"/>
<stop offset="0.8193" stop-color="#A697A5"/>
<stop offset="0.893" stop-color="#7F697E"/>
<stop offset="0.9657" stop-color="#513450"/>
<stop offset="1" stop-color="#391838"/>
</linearGradient>
<linearGradient id="paint12_linear_3796_29401" x1="25.668" y1="37.8393" x2="25.668" y2="43.1297" gradientUnits="userSpaceOnUse">
<stop stop-color="#008EE6"/>
<stop offset="0.051059" stop-color="#34A5EB"/>
<stop offset="0.1108" stop-color="#69BDF0"/>
<stop offset="0.1713" stop-color="#97D1F5"/>
<stop offset="0.2313" stop-color="#BCE2F8"/>
<stop offset="0.2908" stop-color="#DAEEFB"/>
<stop offset="0.3497" stop-color="#EEF8FD"/>
<stop offset="0.4076" stop-color="#FBFDFF"/>
<stop offset="0.4634" stop-color="white"/>
<stop offset="0.5314" stop-color="#FBFBFB"/>
<stop offset="0.6019" stop-color="#F1EEF1"/>
<stop offset="0.6736" stop-color="#DFDADF"/>
<stop offset="0.7461" stop-color="#C6BDC6"/>
<stop offset="0.8193" stop-color="#A697A5"/>
<stop offset="0.893" stop-color="#7F697E"/>
<stop offset="0.9657" stop-color="#513450"/>
<stop offset="1" stop-color="#391838"/>
</linearGradient>
<linearGradient id="paint13_linear_3796_29401" x1="30.2393" y1="38.0537" x2="30.2393" y2="43.2533" gradientUnits="userSpaceOnUse">
<stop stop-color="#008EE6"/>
<stop offset="0.051059" stop-color="#34A5EB"/>
<stop offset="0.1108" stop-color="#69BDF0"/>
<stop offset="0.1713" stop-color="#97D1F5"/>
<stop offset="0.2313" stop-color="#BCE2F8"/>
<stop offset="0.2908" stop-color="#DAEEFB"/>
<stop offset="0.3497" stop-color="#EEF8FD"/>
<stop offset="0.4076" stop-color="#FBFDFF"/>
<stop offset="0.4634" stop-color="white"/>
<stop offset="0.5314" stop-color="#FBFBFB"/>
<stop offset="0.6019" stop-color="#F1EEF1"/>
<stop offset="0.6736" stop-color="#DFDADF"/>
<stop offset="0.7461" stop-color="#C6BDC6"/>
<stop offset="0.8193" stop-color="#A697A5"/>
<stop offset="0.893" stop-color="#7F697E"/>
<stop offset="0.9657" stop-color="#513450"/>
<stop offset="1" stop-color="#391838"/>
</linearGradient>
<linearGradient id="paint14_linear_3796_29401" x1="27.9537" y1="33.1419" x2="27.9537" y2="43.4943" gradientUnits="userSpaceOnUse">
<stop stop-color="#391838"/>
<stop offset="1" stop-color="#391838" stop-opacity="0"/>
</linearGradient>
<linearGradient id="paint15_linear_3796_29401" x1="47.4504" y1="47.4867" x2="59.1647" y2="29.8675" gradientUnits="userSpaceOnUse">
<stop stop-color="#BD2719"/>
<stop offset="0.2151" stop-color="#D41A10"/>
<stop offset="0.5049" stop-color="#EC0C07"/>
<stop offset="0.774" stop-color="#FA0302"/>
<stop offset="1" stop-color="#FF0000"/>
</linearGradient>
<linearGradient id="paint16_linear_3796_29401" x1="55.8039" y1="27.263" x2="50.1529" y2="47.898" gradientUnits="userSpaceOnUse">
<stop stop-color="#612D5B"/>
<stop offset="0.1479" stop-color="#872245"/>
<stop offset="0.3388" stop-color="#B2162C"/>
<stop offset="0.5244" stop-color="#D30C19"/>
<stop offset="0.7005" stop-color="#EB060B"/>
<stop offset="0.8633" stop-color="#FA0103"/>
<stop offset="1" stop-color="#FF0000"/>
</linearGradient>
<linearGradient id="paint17_linear_3796_29401" x1="52.2375" y1="34.3166" x2="52.2375" y2="47.039" gradientUnits="userSpaceOnUse">
<stop stop-color="#008EE6"/>
<stop offset="1" stop-color="#391838"/>
</linearGradient>
<linearGradient id="paint18_linear_3796_29401" x1="52.2372" y1="49.5587" x2="52.2372" y2="35.8124" gradientUnits="userSpaceOnUse">
<stop stop-color="#008EE6"/>
<stop offset="1" stop-color="white"/>
</linearGradient>
<linearGradient id="paint19_linear_3796_29401" x1="52.2376" y1="36.8414" x2="52.2376" y2="44.299" gradientUnits="userSpaceOnUse">
<stop stop-color="#008EE6"/>
<stop offset="0.051059" stop-color="#34A5EB"/>
<stop offset="0.1108" stop-color="#69BDF0"/>
<stop offset="0.1713" stop-color="#97D1F5"/>
<stop offset="0.2313" stop-color="#BCE2F8"/>
<stop offset="0.2908" stop-color="#DAEEFB"/>
<stop offset="0.3497" stop-color="#EEF8FD"/>
<stop offset="0.4076" stop-color="#FBFDFF"/>
<stop offset="0.4634" stop-color="white"/>
<stop offset="0.5314" stop-color="#FBFBFB"/>
<stop offset="0.6019" stop-color="#F1EEF1"/>
<stop offset="0.6736" stop-color="#DFDADF"/>
<stop offset="0.7461" stop-color="#C6BDC6"/>
<stop offset="0.8193" stop-color="#A697A5"/>
<stop offset="0.893" stop-color="#7F697E"/>
<stop offset="0.9657" stop-color="#513450"/>
<stop offset="1" stop-color="#391838"/>
</linearGradient>
<linearGradient id="paint20_linear_3796_29401" x1="54.5228" y1="37.8393" x2="54.5228" y2="43.1297" gradientUnits="userSpaceOnUse">
<stop stop-color="#008EE6"/>
<stop offset="0.051059" stop-color="#34A5EB"/>
<stop offset="0.1108" stop-color="#69BDF0"/>
<stop offset="0.1713" stop-color="#97D1F5"/>
<stop offset="0.2313" stop-color="#BCE2F8"/>
<stop offset="0.2908" stop-color="#DAEEFB"/>
<stop offset="0.3497" stop-color="#EEF8FD"/>
<stop offset="0.4076" stop-color="#FBFDFF"/>
<stop offset="0.4634" stop-color="white"/>
<stop offset="0.5314" stop-color="#FBFBFB"/>
<stop offset="0.6019" stop-color="#F1EEF1"/>
<stop offset="0.6736" stop-color="#DFDADF"/>
<stop offset="0.7461" stop-color="#C6BDC6"/>
<stop offset="0.8193" stop-color="#A697A5"/>
<stop offset="0.893" stop-color="#7F697E"/>
<stop offset="0.9657" stop-color="#513450"/>
<stop offset="1" stop-color="#391838"/>
</linearGradient>
<linearGradient id="paint21_linear_3796_29401" x1="49.9515" y1="38.0537" x2="49.9515" y2="43.2533" gradientUnits="userSpaceOnUse">
<stop stop-color="#008EE6"/>
<stop offset="0.051059" stop-color="#34A5EB"/>
<stop offset="0.1108" stop-color="#69BDF0"/>
<stop offset="0.1713" stop-color="#97D1F5"/>
<stop offset="0.2313" stop-color="#BCE2F8"/>
<stop offset="0.2908" stop-color="#DAEEFB"/>
<stop offset="0.3497" stop-color="#EEF8FD"/>
<stop offset="0.4076" stop-color="#FBFDFF"/>
<stop offset="0.4634" stop-color="white"/>
<stop offset="0.5314" stop-color="#FBFBFB"/>
<stop offset="0.6019" stop-color="#F1EEF1"/>
<stop offset="0.6736" stop-color="#DFDADF"/>
<stop offset="0.7461" stop-color="#C6BDC6"/>
<stop offset="0.8193" stop-color="#A697A5"/>
<stop offset="0.893" stop-color="#7F697E"/>
<stop offset="0.9657" stop-color="#513450"/>
<stop offset="1" stop-color="#391838"/>
</linearGradient>
<linearGradient id="paint22_linear_3796_29401" x1="52.2371" y1="33.1419" x2="52.2371" y2="43.4943" gradientUnits="userSpaceOnUse">
<stop stop-color="#391838"/>
<stop offset="1" stop-color="#391838" stop-opacity="0"/>
</linearGradient>
<linearGradient id="paint23_linear_3796_29401" x1="26.0836" y1="32.2658" x2="28.655" y2="43.0753" gradientUnits="userSpaceOnUse">
<stop stop-color="white"/>
<stop offset="1" stop-color="white" stop-opacity="0"/>
</linearGradient>
<linearGradient id="paint24_linear_3796_29401" x1="50.3673" y1="32.2658" x2="52.9387" y2="43.0753" gradientUnits="userSpaceOnUse">
<stop stop-color="white"/>
<stop offset="1" stop-color="white" stop-opacity="0"/>
</linearGradient>
<linearGradient id="paint25_linear_3796_29401" x1="40.0957" y1="68.6337" x2="40.0957" y2="57.091" gradientUnits="userSpaceOnUse">
<stop stop-color="#7000A3"/>
<stop offset="1" stop-color="#391838"/>
</linearGradient>
<radialGradient id="paint26_radial_3796_29401" cx="0" cy="0" r="1" gradientUnits="userSpaceOnUse" gradientTransform="translate(40.0008 60.325) rotate(0.927074) scale(11.1502 1.9091)">
<stop offset="0.00132565" stop-color="white"/>
<stop offset="1" stop-color="#A9BCBE"/>
</radialGradient>
<linearGradient id="paint27_linear_3796_29401" x1="40.0957" y1="56.824" x2="40.0957" y2="61.2824" gradientUnits="userSpaceOnUse">
<stop stop-color="#391838"/>
<stop offset="1" stop-color="#391838" stop-opacity="0"/>
</linearGradient>
<radialGradient id="paint28_radial_3796_29401" cx="0" cy="0" r="1" gradientUnits="userSpaceOnUse" gradientTransform="translate(39.9158 63.3763) rotate(-0.0651785) scale(9.68753 1.65948)">
<stop offset="0.00132565" stop-color="white"/>
<stop offset="1" stop-color="#8EA5A8"/>
</radialGradient>
<linearGradient id="paint29_linear_3796_29401" x1="40.7149" y1="19.9372" x2="39.6362" y2="14.5993" gradientUnits="userSpaceOnUse">
<stop stop-color="#008EE6"/>
<stop offset="1" stop-color="#391838"/>
</linearGradient>
<linearGradient id="paint30_linear_3796_29401" x1="35.8291" y1="22.8045" x2="41.6468" y2="14.8486" gradientUnits="userSpaceOnUse">
<stop stop-color="#008EE6"/>
<stop offset="1" stop-color="#391838"/>
</linearGradient>
<linearGradient id="paint31_linear_3796_29401" x1="42.191" y1="17.5812" x2="38.0957" y2="8.5336" gradientUnits="userSpaceOnUse">
<stop stop-color="#BD2719"/>
<stop offset="0.2151" stop-color="#D41A10"/>
<stop offset="0.5049" stop-color="#EC0C07"/>
<stop offset="0.774" stop-color="#FA0302"/>
<stop offset="1" stop-color="#FF0000"/>
</linearGradient>
<radialGradient id="paint32_radial_3796_29401" cx="0" cy="0" r="1" gradientUnits="userSpaceOnUse" gradientTransform="translate(37.8217 7.16544) scale(9.18873 9.18873)">
<stop offset="0.00134333" stop-color="#FFED1C"/>
<stop offset="0.1997" stop-color="#FFEE2B" stop-opacity="0.8013"/>
<stop offset="0.5839" stop-color="#FFF254" stop-opacity="0.4167"/>
<stop offset="1" stop-color="#FFF686" stop-opacity="0"/>
</radialGradient>
<linearGradient id="paint33_linear_3796_29401" x1="11.4292" y1="57.777" x2="11.4292" y2="25.9447" gradientUnits="userSpaceOnUse">
<stop stop-color="#612D5B"/>
<stop offset="0.1479" stop-color="#872245"/>
<stop offset="0.3388" stop-color="#B2162C"/>
<stop offset="0.5244" stop-color="#D30C19"/>
<stop offset="0.7005" stop-color="#EB060B"/>
<stop offset="0.8633" stop-color="#FA0103"/>
<stop offset="1" stop-color="#FF0000"/>
</linearGradient>
<linearGradient id="paint34_linear_3796_29401" x1="40.1531" y1="13.1373" x2="44.3438" y2="17.6452" gradientUnits="userSpaceOnUse">
<stop stop-color="#BD2719"/>
<stop offset="0.2151" stop-color="#D41A10" stop-opacity="0.7849"/>
<stop offset="0.5049" stop-color="#EC0C07" stop-opacity="0.4951"/>
<stop offset="0.774" stop-color="#FA0302" stop-opacity="0.226"/>
<stop offset="1" stop-color="#FF0000" stop-opacity="0"/>
</linearGradient>
</defs>
</svg>
