<?xml version="1.0" encoding="utf-8"?>
<!-- Generator: Adobe Illustrator 24.1.2, SVG Export Plug-In . SVG Version: 6.00 Build 0)  -->
<svg version="1.1" id="Layer_1" xmlns="http://www.w3.org/2000/svg" xmlns:xlink="http://www.w3.org/1999/xlink" x="0px" y="0px"
	 viewBox="0 0 201.1 182.7" style="enable-background:new 0 0 201.1 182.7;" xml:space="preserve">
<style type="text/css">
	.st0{fill:#5B3F91;}
	.st1{fill:#AC82FF;}
	.st2{fill:url(#SVGID_1_);}
	.st3{fill:url(#SVGID_2_);}
	.st4{fill:url(#SVGID_3_);}
	.st5{fill:url(#SVGID_4_);}
	.st6{fill:url(#SVGID_5_);}
	.st7{fill:url(#SVGID_6_);}
	.st8{fill:url(#SVGID_7_);}
	.st9{fill:url(#SVGID_8_);}
	.st10{fill:url(#SVGID_9_);}
	.st11{fill:url(#SVGID_10_);}
	.st12{fill:url(#SVGID_11_);}
	.st13{fill:url(#SVGID_12_);}
	.st14{opacity:0.7;}
	.st15{opacity:0.7;fill:url(#SVGID_13_);enable-background:new    ;}
	.st16{fill:#FF9B52;}
	.st17{opacity:0.2;}
	.st18{opacity:0.2;enable-background:new    ;}
	.st19{fill:#744DDB;}
	.st20{fill:#FBAB3D;}
	.st21{fill:#ECF0F1;}
	.st22{fill:#F8F7F9;}
	.st23{fill:url(#SVGID_14_);}
	.st24{fill:url(#SVGID_15_);}
	.st25{opacity:0.4;fill:#FFFFFF;enable-background:new    ;}
	.st26{fill:none;}
</style>
<path class="st0" d="M7.1,172c-4.1-9.6,7.2-18,3.5-32.3c-2.4-9.3-7.9-8.2-9.2-16.4c-2.3-13.6,12.3-20.5,14.2-36.7
	C17.7,68.2,0.3,64.8,3.7,49.7c3.1-14.2,22.2-27.9,38.5-31c15.5-2.9,20.7,3.4,35.5-2.4c14.1-5.6,15-14.1,23.7-14.8
	c15.8-1.3,27.3,26,33.3,40.2c8.7,20.5,5.3,25.3,13.1,32.5c13.4,12.3,28.2,2.8,39.7,14.7c9.6,9.8,10.2,27.4,4.9,41.4
	c-7.4,19.3-27.3,33.8-43.7,34.3c-16.6,0.6-21.8-13.3-35.1-8.6c-10.8,3.8-11.5,14.3-23.2,17.6c-9.7,2.7-11.7-3.9-24.2-2.7
	c-13.4,1.2-15.4,9.2-28.8,11.3C26.5,184,11.1,181.4,7.1,172L7.1,172z"/>
<path class="st1" d="M61.1,92.5c-0.2-0.1-0.5-0.2-0.7-0.3l0.2-0.6c0.8,0.3,1.7,0.6,2.5,0.9L63,93.1C62.4,92.9,61.7,92.7,61.1,92.5
	L61.1,92.5z M57.9,91.1c-0.8-0.4-1.6-0.8-2.4-1.3l0.3-0.6c0.8,0.4,1.6,0.9,2.4,1.3L57.9,91.1z M65.6,93.8l0.2-0.7
	c0.9,0.2,1.7,0.4,2.6,0.5l-0.1,0.7C67.4,94.2,66.5,94,65.6,93.8L65.6,93.8z M53.2,88.4c-0.7-0.5-1.5-1.1-2.2-1.6l0.4-0.5
	c0.7,0.6,1.4,1.1,2.1,1.6L53.2,88.4z M71,94.6l0.1-0.7c0.9,0.1,1.8,0.1,2.7,0.1l0,0.7C72.9,94.7,71.9,94.7,71,94.6L71,94.6z M49,85
	c-0.7-0.6-1.3-1.3-1.9-1.9l0.5-0.5c0.6,0.7,1.2,1.3,1.9,1.9L49,85z M76.5,94.6l-0.1-0.7c0.9-0.1,1.8-0.2,2.7-0.3l0.1,0.7
	C78.3,94.4,77.4,94.6,76.5,94.6z M45.3,81c-0.6-0.7-1.1-1.5-1.6-2.2l0.6-0.4c0.5,0.7,1,1.5,1.6,2.2L45.3,81z M81.9,93.8l-0.2-0.7
	c0.9-0.2,1.7-0.4,2.6-0.7l0.2,0.6C83.6,93.3,82.7,93.6,81.9,93.8z M42.3,76.5c-0.4-0.8-0.9-1.6-1.3-2.4l0.6-0.3
	c0.4,0.8,0.8,1.6,1.2,2.4L42.3,76.5L42.3,76.5z M87,92.1l-0.3-0.6c0.8-0.3,1.6-0.7,2.4-1.1l0.3,0.6C88.7,91.4,87.9,91.8,87,92.1z
	 M40,71.5c-0.3-0.8-0.6-1.7-0.9-2.6l0.6-0.2c0.3,0.9,0.5,1.7,0.9,2.5L40,71.5L40,71.5z M91.9,89.7l-0.3-0.6c0.8-0.5,1.5-0.9,2.2-1.4
	l0.4,0.6C93.5,88.8,92.7,89.3,91.9,89.7L91.9,89.7z M38.4,66.3c-0.2-0.9-0.3-1.8-0.5-2.7l0.7-0.1c0.1,0.9,0.3,1.8,0.5,2.6L38.4,66.3
	z M96.4,86.6L96,86.1c0.7-0.6,1.4-1.2,2-1.8l0.5,0.5C97.8,85.4,97.1,86,96.4,86.6z M37.7,60.9c-0.1-0.9-0.1-1.8-0.1-2.7l0.7,0
	c0,0.9,0,1.8,0.1,2.7L37.7,60.9L37.7,60.9z M100.3,82.8l-0.5-0.5c0.6-0.7,1.2-1.4,1.7-2.1l0.5,0.4C101.5,81.5,100.9,82.2,100.3,82.8
	L100.3,82.8z M37.8,55.5c0.1-0.9,0.2-1.8,0.4-2.7l0.7,0.1c-0.1,0.9-0.3,1.8-0.3,2.6L37.8,55.5L37.8,55.5z M103.6,78.5l-0.6-0.4
	c0.5-0.7,1-1.5,1.4-2.3l0.6,0.3C104.6,77,104.1,77.8,103.6,78.5L103.6,78.5z M38.7,50.1c0.2-0.9,0.5-1.8,0.8-2.6l0.6,0.2
	c-0.3,0.8-0.5,1.7-0.7,2.6L38.7,50.1L38.7,50.1z M106.3,73.7l-0.6-0.3c0.4-0.8,0.7-1.6,1-2.5c0.3-0.8,0.5-1.5,0.8-2.3l0.6,0.2
	c-0.2,0.8-0.5,1.6-0.8,2.4C107,72.1,106.7,72.9,106.3,73.7z M41,45.2l-0.6-0.3c0.3-0.8,0.7-1.7,1.1-2.5l0.6,0.3
	C41.7,43.5,41.4,44.4,41,45.2z M108.1,66.1c0.2-0.9,0.3-1.8,0.5-2.6l0.7,0.1c-0.1,0.9-0.3,1.8-0.5,2.7L108.1,66.1L108.1,66.1z
	 M43.4,40.4l-0.6-0.4c0.5-0.8,1-1.5,1.5-2.3l0.5,0.4C44.4,38.9,43.9,39.7,43.4,40.4z M108.8,60.8c0.1-0.9,0.1-1.8,0.1-2.7l0.7,0
	c0,0.9,0,1.8-0.1,2.7L108.8,60.8z M46.6,36.1L46,35.7c0.6-0.7,1.2-1.4,1.8-2l0.5,0.5C47.7,34.7,47.1,35.4,46.6,36.1z M108.7,55.5
	c-0.1-0.9-0.2-1.8-0.4-2.6l0.7-0.1c0.2,0.9,0.3,1.8,0.4,2.7L108.7,55.5L108.7,55.5z M50.3,32.3l-0.4-0.5c0.7-0.6,1.4-1.2,2.1-1.7
	l0.4,0.5C51.7,31.1,51,31.7,50.3,32.3L50.3,32.3z M107.8,50.2c-0.2-0.9-0.5-1.7-0.7-2.6l0.6-0.2c0.3,0.9,0.5,1.7,0.8,2.6L107.8,50.2
	z M54.6,29.1l-0.4-0.6c0.8-0.5,1.5-1,2.4-1.4l0.3,0.6C56.1,28.1,55.3,28.6,54.6,29.1L54.6,29.1z M106.1,45.1
	c-0.3-0.8-0.7-1.6-1.1-2.4l0.6-0.3c0.4,0.8,0.8,1.6,1.1,2.5L106.1,45.1L106.1,45.1z M59.3,26.5L59,25.9c0.8-0.4,1.7-0.7,2.5-1
	l0.2,0.6C60.9,25.8,60.1,26.2,59.3,26.5z M103.7,40.4c-0.5-0.8-1-1.5-1.5-2.2l0.5-0.4c0.5,0.7,1,1.5,1.5,2.3L103.7,40.4z M64.3,24.7
	l-0.2-0.7c0.9-0.2,1.8-0.5,2.7-0.6l0.1,0.7C66,24.3,65.2,24.5,64.3,24.7L64.3,24.7z M100.6,36c-0.6-0.7-1.2-1.3-1.8-2l0.5-0.5
	c0.6,0.7,1.3,1.3,1.8,2L100.6,36L100.6,36z M69.5,23.7L69.5,23c0.9-0.1,1.8-0.2,2.7-0.2l0,0.7C71.3,23.5,70.4,23.6,69.5,23.7z
	 M96.8,32.2c-0.7-0.6-1.4-1.2-2.1-1.7l0.4-0.5c0.7,0.5,1.4,1.1,2.1,1.7L96.8,32.2z M74.9,23.5l0-0.7c0.9,0,1.8,0.1,2.7,0.2l-0.1,0.7
	C76.7,23.6,75.8,23.5,74.9,23.5L74.9,23.5z M92.5,29c-0.7-0.5-1.5-0.9-2.3-1.3l0.3-0.6c0.8,0.4,1.6,0.9,2.4,1.4L92.5,29L92.5,29z
	 M80.2,24.1l0.1-0.7c0.9,0.2,1.8,0.4,2.7,0.6l-0.2,0.7C81.9,24.5,81.1,24.3,80.2,24.1L80.2,24.1z M87.8,26.5c-0.8-0.4-1.6-0.7-2.5-1
	l0.2-0.6c0.9,0.3,1.7,0.6,2.5,1L87.8,26.5L87.8,26.5z"/>
<path class="st1" d="M77.3,150c-0.6-0.6-1.1-1.2-1.7-1.9l0.6-0.5c0.5,0.6,1.1,1.2,1.7,1.8L77.3,150z M79.1,151.8l0.6-0.6
	c0.6,0.6,1.2,1.1,1.8,1.6l-0.5,0.6C80.3,152.9,79.7,152.4,79.1,151.8z M74,146.2c-0.5-0.7-1-1.3-1.5-2l0.7-0.5c0.5,0.7,1,1.3,1.5,2
	L74,146.2z M82.9,155l0.5-0.7c0.7,0.5,1.3,1,2,1.4l-0.5,0.7C84.3,156,83.6,155.5,82.9,155z M71.2,142.1c-0.4-0.7-0.9-1.4-1.3-2.2
	l0.7-0.4c0.4,0.7,0.8,1.4,1.2,2.1L71.2,142.1L71.2,142.1z M87.1,157.9l0.4-0.7c0.7,0.4,1.4,0.8,2.1,1.2l-0.4,0.7
	C88.5,158.7,87.8,158.3,87.1,157.9L87.1,157.9z M68.7,137.7c-0.4-0.8-0.7-1.5-1-2.3l0.8-0.3c0.3,0.8,0.7,1.5,1,2.3L68.7,137.7z
	 M91.5,160.2l0.4-0.8c0.7,0.3,1.5,0.7,2.3,1l-0.3,0.8C93,160.9,92.2,160.6,91.5,160.2z M66.8,133c-0.3-0.8-0.5-1.6-0.8-2.4l0.8-0.2
	c0.2,0.8,0.5,1.6,0.8,2.4L66.8,133z M96.1,162.1l0.3-0.8c0.8,0.3,1.6,0.5,2.4,0.7l-0.2,0.8C97.7,162.6,96.9,162.3,96.1,162.1
	L96.1,162.1z M65.4,128.2c-0.2-0.8-0.4-1.6-0.5-2.5l0.8-0.1c0.1,0.8,0.3,1.6,0.5,2.4L65.4,128.2z M101,163.4l0.2-0.8
	c0.8,0.2,1.6,0.3,2.4,0.5l-0.1,0.8C102.6,163.8,101.8,163.6,101,163.4L101,163.4z M64.5,123.3c-0.1-0.8-0.2-1.7-0.2-2.5l0.8-0.1
	c0.1,0.8,0.1,1.6,0.2,2.5L64.5,123.3L64.5,123.3z M105.9,164.3l0.1-0.8c0.8,0.1,1.6,0.2,2.5,0.2l-0.1,0.8
	C107.6,164.5,106.7,164.4,105.9,164.3z M64.2,118.3c0-0.8,0-1.7,0-2.5l0.8,0c0,0.8,0,1.6,0,2.5L64.2,118.3z M110.9,164.6l0-0.8
	c0.8,0,1.6,0,2.5,0l0,0.8C112.6,164.6,111.8,164.6,110.9,164.6L110.9,164.6z M64.3,113.2c0.1-0.8,0.2-1.7,0.3-2.5l0.8,0.1
	c-0.1,0.8-0.2,1.6-0.3,2.4L64.3,113.2L64.3,113.2z M115.9,164.4l-0.1-0.8c0.8-0.1,1.6-0.2,2.4-0.3l0.1,0.8
	C117.6,164.2,116.8,164.3,115.9,164.4L115.9,164.4z M65,108.3c0.2-0.8,0.3-1.6,0.5-2.5l0.8,0.2c-0.2,0.8-0.4,1.6-0.5,2.4L65,108.3
	L65,108.3z M120.9,163.7l-0.2-0.8c0.8-0.2,1.6-0.4,2.4-0.6l0.2,0.8C122.6,163.3,121.7,163.5,120.9,163.7L120.9,163.7z M66.2,103.4
	c0.2-0.8,0.5-1.6,0.8-2.4l0.8,0.3c-0.3,0.8-0.5,1.5-0.8,2.3L66.2,103.4L66.2,103.4z M125.8,162.4l-0.3-0.8c0.8-0.3,1.6-0.5,2.3-0.8
	l0.3,0.8C127.4,161.9,126.6,162.1,125.8,162.4z M68,98.7c0.3-0.8,0.7-1.5,1.1-2.3l0.7,0.4c-0.4,0.7-0.7,1.5-1,2.2L68,98.7z
	 M130.5,160.6l-0.3-0.8c0.7-0.3,1.5-0.7,2.2-1.1l0.4,0.7C132,159.9,131.3,160.3,130.5,160.6z M70.2,94.2c0.4-0.7,0.8-1.5,1.3-2.2
	l0.7,0.4c-0.4,0.7-0.9,1.4-1.3,2.1L70.2,94.2L70.2,94.2z M135,158.4l-0.4-0.7c0.7-0.4,1.4-0.8,2.1-1.3l0.5,0.7
	C136.4,157.5,135.7,157.9,135,158.4L135,158.4z M72.8,90c0.5-0.7,1-1.4,1.5-2l0.6,0.5c-0.5,0.6-1,1.3-1.5,2L72.8,90L72.8,90z
	 M139.2,155.6l-0.5-0.7c0.7-0.5,1.3-1,2-1.5l0.5,0.6C140.5,154.6,139.9,155.1,139.2,155.6L139.2,155.6z M76,86
	c0.6-0.6,1.1-1.2,1.7-1.8l0.6,0.6c-0.6,0.6-1.1,1.2-1.7,1.8L76,86z M143.1,152.5l-0.6-0.6c0.6-0.5,1.2-1.1,1.8-1.7
	c0.2-0.2,0.4-0.4,0.7-0.7l0.6,0.6c-0.2,0.2-0.4,0.5-0.7,0.7C144.3,151.3,143.7,151.9,143.1,152.5z M80,83l-0.6-0.6
	c0.6-0.6,1.3-1.1,1.9-1.6l0.5,0.6C81.3,82,80.7,82.5,80,83L80,83z M146.6,147.7c0.5-0.6,1.1-1.3,1.6-1.9l0.7,0.5
	c-0.5,0.7-1,1.3-1.6,1.9L146.6,147.7z M83.8,79.9l-0.5-0.7c0.7-0.5,1.4-1,2.1-1.4l0.5,0.7C85.2,78.9,84.5,79.4,83.8,79.9L83.8,79.9z
	 M149.7,143.8c0.5-0.7,0.9-1.4,1.4-2.1l0.7,0.4c-0.4,0.7-0.9,1.4-1.4,2.1L149.7,143.8L149.7,143.8z M88,77.2l-0.4-0.7
	c0.7-0.4,1.5-0.8,2.2-1.2l0.4,0.7C89.4,76.4,88.7,76.8,88,77.2L88,77.2z M152.3,139.6c0.4-0.7,0.8-1.5,1.1-2.2l0.7,0.4
	c-0.4,0.7-0.7,1.5-1.1,2.2L152.3,139.6z M92.3,74.9L92,74.2c0.8-0.3,1.5-0.7,2.3-1l0.3,0.8C93.8,74.3,93.1,74.6,92.3,74.9L92.3,74.9
	z M154.4,135.1c0.3-0.8,0.6-1.5,0.9-2.3l0.8,0.3c-0.3,0.8-0.6,1.6-0.9,2.3L154.4,135.1z M96.9,73.1l-0.3-0.8
	c0.8-0.3,1.6-0.5,2.4-0.7l0.2,0.8C98.5,72.7,97.7,72.9,96.9,73.1L96.9,73.1z M156,130.5c0.2-0.8,0.4-1.6,0.6-2.4l0.8,0.2
	c-0.2,0.8-0.4,1.6-0.6,2.4L156,130.5L156,130.5z M101.7,71.9l-0.2-0.8c0.8-0.2,1.6-0.3,2.5-0.5l0.1,0.8
	C103.3,71.5,102.5,71.7,101.7,71.9z M157.2,125.7c0.1-0.8,0.3-1.6,0.4-2.4l0.8,0.1c-0.1,0.8-0.2,1.7-0.4,2.5L157.2,125.7z
	 M106.6,71.1l-0.1-0.8c0.8-0.1,1.7-0.2,2.5-0.2l0,0.8C108.2,70.9,107.4,71,106.6,71.1z M157.8,120.8c0.1-0.8,0.1-1.6,0.1-2.5l0.8,0
	c0,0.8-0.1,1.7-0.1,2.5L157.8,120.8L157.8,120.8z M111.5,70.8V70c0.8,0,1.7,0,2.5,0.1l0,0.8C113.2,70.8,112.3,70.8,111.5,70.8
	L111.5,70.8z M157.9,115.9c0-0.8-0.1-1.6-0.1-2.5l0.8-0.1c0.1,0.8,0.1,1.7,0.1,2.5L157.9,115.9z M116.4,71.1l0.1-0.8
	c0.8,0.1,1.7,0.2,2.5,0.3l-0.1,0.8C118.1,71.3,117.2,71.2,116.4,71.1z M157.5,111c-0.1-0.8-0.2-1.6-0.4-2.4l0.8-0.2
	c0.2,0.8,0.3,1.6,0.4,2.5L157.5,111z M121.3,71.9l0.2-0.8c0.8,0.2,1.6,0.4,2.4,0.6l-0.2,0.8C122.9,72.2,122.1,72,121.3,71.9z
	 M156.6,106.1c-0.2-0.8-0.4-1.6-0.7-2.4l0.8-0.2c0.2,0.8,0.5,1.6,0.7,2.4L156.6,106.1L156.6,106.1z M126.1,73.2l0.3-0.8
	c0.8,0.3,1.6,0.5,2.4,0.8l-0.3,0.8C127.6,73.7,126.8,73.4,126.1,73.2z M155.1,101.4c-0.3-0.8-0.6-1.5-0.9-2.3l0.8-0.3
	c0.3,0.8,0.6,1.6,0.9,2.3L155.1,101.4z M130.6,74.9l0.3-0.8c0.8,0.3,1.5,0.7,2.3,1.1l-0.4,0.7C132.1,75.6,131.4,75.3,130.6,74.9
	L130.6,74.9z M153.2,96.8c-0.4-0.7-0.8-1.5-1.1-2.2l0.7-0.4c0.4,0.7,0.8,1.5,1.2,2.2L153.2,96.8z M135,77.2l0.4-0.7
	c0.7,0.4,1.4,0.9,2.1,1.3l-0.5,0.7C136.4,78.1,135.7,77.6,135,77.2z M150.8,92.5c-0.4-0.7-0.9-1.4-1.4-2l0.7-0.5
	c0.5,0.7,0.9,1.4,1.4,2.1L150.8,92.5L150.8,92.5z M139.1,80l0.5-0.7c0.7,0.5,1.3,1,2,1.5l-0.5,0.6C140.4,81,139.8,80.4,139.1,80
	L139.1,80z M147.9,88.5c-0.5-0.6-1-1.3-1.6-1.9l0.6-0.6c0.6,0.6,1.1,1.3,1.6,1.9L147.9,88.5L147.9,88.5z M142.9,83.1l0.6-0.6
	c0.5,0.4,1,0.9,1.4,1.4l0.4,0.4l-0.6,0.6l-0.4-0.4C143.9,84,143.4,83.5,142.9,83.1L142.9,83.1z"/>
<linearGradient id="SVGID_1_" gradientUnits="userSpaceOnUse" x1="143.9729" y1="84.2496" x2="155.1259" y2="76.7673" gradientTransform="matrix(1 0 0 -1 0 223.2531)">
	<stop  offset="0" style="stop-color:#381A96"/>
	<stop  offset="1" style="stop-color:#350E71"/>
</linearGradient>
<path class="st2" d="M153,148.5c-3.2,1.9-7.3,0.8-9.2-2.4c-1.9-3.2-0.8-7.3,2.4-9.2c3.2-1.9,7.3-0.8,9.2,2.4
	C157.2,142.5,156.2,146.6,153,148.5z"/>
<linearGradient id="SVGID_2_" gradientUnits="userSpaceOnUse" x1="144.5841" y1="85.4898" x2="154.5668" y2="75.5082" gradientTransform="matrix(1 0 0 -1 0 223.2531)">
	<stop  offset="0" style="stop-color:#FBAB3D"/>
	<stop  offset="1" style="stop-color:#DD5DB6"/>
</linearGradient>
<path class="st3" d="M144.6,147.7c-0.7-0.7-1.3-1.6-1.7-2.6c-0.6-1.8-0.5-3.7,0.3-5.4c0.8-1.7,2.2-3,4-3.6c1.8-0.6,3.7-0.5,5.4,0.3
	c1.7,0.8,3,2.2,3.6,4c0.6,1.8,0.5,3.7-0.3,5.4c-0.8,1.7-2.2,3-4,3.6c-1.8,0.6-3.7,0.5-5.4-0.3C145.8,148.8,145.1,148.3,144.6,147.7z
	 M154.1,138.2c-0.5-0.5-1.1-0.9-1.8-1.2c-1.5-0.7-3.3-0.8-4.9-0.3s-2.9,1.7-3.6,3.3c-0.7,1.5-0.8,3.3-0.3,4.9
	c0.6,1.6,1.7,2.9,3.3,3.6c1.5,0.7,3.3,0.8,4.9,0.3c1.6-0.6,2.9-1.7,3.6-3.3c0.7-1.5,0.8-3.3,0.3-4.9
	C155.3,139.7,154.8,138.9,154.1,138.2z"/>
<linearGradient id="SVGID_3_" gradientUnits="userSpaceOnUse" x1="139.8775" y1="89.686" x2="158.3749" y2="71.1876" gradientTransform="matrix(1 0 0 -1 0 223.2531)">
	<stop  offset="0" style="stop-color:#FBAB3D"/>
	<stop  offset="1" style="stop-color:#DD5DB6"/>
</linearGradient>
<path class="st4" d="M152.1,155.6c-1.9-1.9-4.2-6.7-6-11.7c-1.3-3.6-2.2-7-2.5-9.7c-0.4-2.9-0.1-4.6,0.8-4.9
	c1.8-0.6,4.4,4.4,5.5,6.7l-0.6,0.3c-2.4-5-4.1-6.5-4.6-6.3c-0.4,0.1-0.7,1.3-0.3,4.2c0.4,2.7,1.3,6.1,2.5,9.6c2.8,8,6,12.4,7,12.1
	c0.6-0.2,0.9-2.4-0.3-7.6l0.7-0.2c0.7,2.9,1.6,7.8-0.1,8.4C153.4,156.6,152.8,156.3,152.1,155.6L152.1,155.6z"/>
<linearGradient id="SVGID_4_" gradientUnits="userSpaceOnUse" x1="45.1257" y1="193.5012" x2="53.0741" y2="185.5527" gradientTransform="matrix(1 0 0 -1 0 223.2531)">
	<stop  offset="0" style="stop-color:#381A96"/>
	<stop  offset="1" style="stop-color:#350E71"/>
</linearGradient>
<path class="st5" d="M54.4,35.7c-1,2.8-4.1,4.3-6.9,3.4c-0.1,0-0.2-0.1-0.3-0.1c-2.9-1.1-4.4-4.3-3.3-7.2c0.6-1.7,2.1-3,3.7-3.5
	c1.1-0.3,2.3-0.3,3.5,0.1C54,29.5,55.4,32.8,54.4,35.7z"/>
<linearGradient id="SVGID_5_" gradientUnits="userSpaceOnUse" x1="44.8908" y1="193.7357" x2="53.3146" y2="185.3115" gradientTransform="matrix(1 0 0 -1 0 223.2531)">
	<stop  offset="0" style="stop-color:#FBAB3D"/>
	<stop  offset="1" style="stop-color:#DD5DB6"/>
</linearGradient>
<path class="st6" d="M47,39.3c-3.1-1.1-4.7-4.6-3.5-7.7c0.7-1.8,2.1-3.1,3.9-3.7c1.2-0.4,2.5-0.3,3.7,0.1c3.1,1.1,4.7,4.6,3.5,7.6
	c-1.1,3-4.3,4.6-7.4,3.6C47.2,39.4,47.1,39.3,47,39.3L47,39.3z M50.9,28.8c-1.1-0.4-2.2-0.4-3.3-0.1c-1.6,0.5-2.9,1.7-3.5,3.2
	c-1,2.7,0.4,5.8,3.1,6.8c0.1,0,0.2,0.1,0.3,0.1c2.7,0.8,5.5-0.6,6.5-3.2C55.1,32.8,53.7,29.8,50.9,28.8L50.9,28.8z"/>
<linearGradient id="SVGID_6_" gradientUnits="userSpaceOnUse" x1="46.1132" y1="189.2032" x2="47.703" y2="187.6141" gradientTransform="matrix(1 0 0 -1 0 223.2531)">
	<stop  offset="0" style="stop-color:#381A96"/>
	<stop  offset="1" style="stop-color:#350E71"/>
</linearGradient>
<path class="st7" d="M48,35.2c-0.2,0.6-0.9,0.9-1.4,0.7c-0.6-0.2-0.9-0.9-0.7-1.4c0.2-0.6,0.9-0.9,1.4-0.7
	C47.9,34,48.2,34.6,48,35.2z"/>
<linearGradient id="SVGID_7_" gradientUnits="userSpaceOnUse" x1="45.8814" y1="189.4411" x2="47.9474" y2="187.3753" gradientTransform="matrix(1 0 0 -1 0 223.2531)">
	<stop  offset="0" style="stop-color:#FBAB3D"/>
	<stop  offset="1" style="stop-color:#DD5DB6"/>
</linearGradient>
<path class="st8" d="M46.4,36.2c-0.8-0.3-1.1-1.1-0.9-1.9c0.3-0.8,1.1-1.1,1.9-0.9c0.8,0.3,1.1,1.1,0.9,1.9
	C48,36.1,47.2,36.5,46.4,36.2L46.4,36.2z M47.2,34.1c-0.4-0.1-0.9,0.1-1,0.5c-0.1,0.4,0.1,0.9,0.5,1c0.4,0.2,0.9-0.1,1-0.5
	C47.8,34.7,47.6,34.3,47.2,34.1z"/>
<linearGradient id="SVGID_8_" gradientUnits="userSpaceOnUse" x1="50.1831" y1="190.62" x2="51.2871" y2="189.5167" gradientTransform="matrix(1 0 0 -1 0 223.2531)">
	<stop  offset="0" style="stop-color:#381A96"/>
	<stop  offset="1" style="stop-color:#350E71"/>
</linearGradient>
<path class="st9" d="M51.5,33.5c-0.1,0.4-0.6,0.6-1,0.5c-0.4-0.1-0.6-0.6-0.5-1s0.6-0.6,1-0.5C51.4,32.6,51.6,33.1,51.5,33.5z"/>
<linearGradient id="SVGID_9_" gradientUnits="userSpaceOnUse" x1="49.943" y1="190.8608" x2="51.527" y2="189.2763" gradientTransform="matrix(1 0 0 -1 0 223.2531)">
	<stop  offset="0" style="stop-color:#FBAB3D"/>
	<stop  offset="1" style="stop-color:#DD5DB6"/>
</linearGradient>
<path class="st10" d="M50.3,34.2c-0.6-0.2-0.9-0.9-0.7-1.4c0.2-0.6,0.9-0.9,1.4-0.7c0.6,0.2,0.9,0.9,0.7,1.4S50.9,34.4,50.3,34.2z
	 M50.9,32.8c-0.2-0.1-0.5,0-0.6,0.3c-0.1,0.2,0,0.5,0.3,0.6c0.2,0.1,0.5,0,0.6-0.3C51.2,33.1,51.1,32.8,50.9,32.8z"/>
<linearGradient id="SVGID_10_" gradientUnits="userSpaceOnUse" x1="48.165" y1="193.0145" x2="49.08" y2="192.099" gradientTransform="matrix(1 0 0 -1 0 223.2531)">
	<stop  offset="0" style="stop-color:#381A96"/>
	<stop  offset="1" style="stop-color:#350E71"/>
</linearGradient>
<path class="st11" d="M49.2,30.9c-0.1,0.3-0.5,0.5-0.8,0.4c-0.3-0.1-0.5-0.5-0.4-0.8c0.1-0.3,0.5-0.5,0.8-0.4
	C49.2,30.2,49.3,30.6,49.2,30.9z"/>
<linearGradient id="SVGID_11_" gradientUnits="userSpaceOnUse" x1="47.9294" y1="193.2494" x2="49.3144" y2="191.8644" gradientTransform="matrix(1 0 0 -1 0 223.2531)">
	<stop  offset="0" style="stop-color:#FBAB3D"/>
	<stop  offset="1" style="stop-color:#DD5DB6"/>
</linearGradient>
<path class="st12" d="M48.3,31.6c-0.5-0.2-0.8-0.8-0.6-1.3c0.2-0.5,0.8-0.8,1.3-0.6c0.5,0.2,0.8,0.8,0.6,1.3S48.8,31.8,48.3,31.6z
	 M48.7,30.4c-0.2-0.1-0.3,0-0.4,0.2c-0.1,0.2,0,0.3,0.2,0.4c0.2,0.1,0.3,0,0.4-0.2C49,30.7,48.9,30.5,48.7,30.4z"/>
<path class="st1" d="M187.3,112.7c-0.1-0.1-0.2-0.3-0.3-0.4c-1.1-1.4-1.1-3.5,0-5c0.8-1,2-1.6,3.2-1.6s2.4,0.6,3.2,1.6
	c1.1,1.4,1.1,3.5,0,5c-0.8,1-2,1.6-3.2,1.6C189.1,113.9,188.1,113.5,187.3,112.7z M192.6,107.5c-0.6-0.6-1.5-1-2.4-1
	c-1.1,0-2,0.5-2.7,1.3c-0.9,1.2-0.9,2.9,0,4.1c0.7,0.8,1.6,1.3,2.7,1.3s2-0.5,2.7-1.3c0.9-1.2,0.9-2.9,0-4.1
	C192.8,107.7,192.7,107.6,192.6,107.5z"/>
<path class="st1" d="M184,107.2c-0.1-0.1-0.1-0.3-0.1-0.4c0.3-0.5,0.6-1,0.9-1.4c1.6-1.9,4-2.7,6.4-2.4c0.2,0,0.3,0.2,0.3,0.4
	c0,0.2-0.2,0.3-0.4,0.3c-2.2-0.3-4.3,0.5-5.8,2.1c-0.3,0.4-0.6,0.8-0.8,1.3C184.5,107.2,184.3,107.3,184,107.2
	C184.1,107.2,184,107.2,184,107.2L184,107.2z"/>
<path class="st1" d="M185.3,114.8c-0.1-0.1-0.3-0.3-0.4-0.4c-0.8-1-1.4-2.1-1.6-3.4c0-0.2,0.1-0.4,0.3-0.4c0.2,0,0.4,0.1,0.4,0.3
	c0.2,1.1,0.7,2.2,1.4,3.1c1.3,1.5,3.2,2.3,5.2,2.2c0.2,0,0.3,0.1,0.4,0.3c0,0.2-0.1,0.3-0.3,0.4C188.6,117,186.7,116.2,185.3,114.8
	L185.3,114.8z"/>
<path class="st1" d="M194.2,115.5l-0.2-0.3c-0.2-0.3,0.1-0.5,0.2-0.6c0,0,0,0,0.1,0c0.7-0.7,3.8-3.8,1.4-7.9
	c-0.4-0.6-0.8-1.2-1.3-1.6c-0.1-0.1-0.2-0.3,0-0.5c0.1-0.1,0.3-0.2,0.5,0c0.6,0.5,1.1,1.1,1.5,1.8c2.7,4.7-0.9,8.4-1.7,9
	L194.2,115.5z"/>
<path class="st1" d="M180.3,114.6C180.3,114.6,180.3,114.5,180.3,114.6c-0.4-0.9-0.7-1.7-0.9-2.6c-0.7-3.8,0.5-7.6,3.4-10.1
	c0.1-0.1,0.4-0.1,0.5,0c0.1,0.1,0.1,0.4,0,0.5c-2.7,2.4-3.8,6-3.2,9.5c0.2,0.8,0.4,1.6,0.8,2.3c0.1,0.2,0,0.4-0.2,0.4
	C180.6,114.7,180.4,114.7,180.3,114.6z"/>
<path class="st1" d="M184.7,119.3c-0.1-0.1-0.1-0.3-0.1-0.4c0.1-0.2,0.3-0.2,0.5-0.1c1.6,0.9,3.5,1.4,5.4,1.3
	c3.3-0.1,6.3-1.7,8.1-4.4c0.1-0.2,0.3-0.2,0.5-0.1c0.2,0.1,0.2,0.3,0.1,0.5c-2,2.9-5.2,4.6-8.7,4.7
	C188.5,120.9,186.5,120.4,184.7,119.3C184.8,119.3,184.8,119.3,184.7,119.3L184.7,119.3z"/>
<path class="st1" d="M188,99.7c0,0-0.1-0.1-0.1-0.2c0-0.2,0.1-0.4,0.3-0.4c1.2-0.2,2.4-0.2,3.6-0.1c8.4,1.2,9.5,9.4,9.3,10.9l0,0.3
	l-0.3,0c-0.3,0-0.3-0.3-0.3-0.6c0,0,0-0.1,0-0.1c-0.1-1.6-1-8.7-8.7-9.9c-1.1-0.2-2.3-0.1-3.4,0.1C188.2,99.8,188,99.8,188,99.7
	L188,99.7z"/>
<path class="st1" d="M70.4,67.5c-3.1-1.1-5.4-3.9-6-7.2c-0.6-3.8,1.1-7.3,4.5-9.3c3.4-2,7.5-1.7,10.5,0.7c3.1,2.5,4.3,6.8,2.8,10.5
	l-0.1,0.3l0,0l-0.3,0.7l0,0c0,0.1-0.1,0.1-0.1,0.1c0,0.1-0.1,0.1-0.1,0.2c-1.7,2.9-4.9,4.7-8.3,4.6C72.2,68,71.3,67.8,70.4,67.5
	L70.4,67.5z M76.6,50.8c-2.4-0.9-5.1-0.6-7.4,0.7c-3.1,1.8-4.7,5.1-4.1,8.6c0.7,4,4.1,7.1,8.2,7.2c3.5,0.2,6.8-1.9,8.2-5.2
	c1.5-3.5,0.5-7.7-2.5-10.1C78.2,51.5,77.5,51.1,76.6,50.8L76.6,50.8z"/>
<path class="st1" d="M70.4,67.5c-4.8-1.8-7.2-7.1-5.5-11.9s7.1-7.2,11.9-5.5c4.8,1.8,7.2,7.1,5.5,11.9
	C80.5,66.8,75.2,69.2,70.4,67.5z M76.6,50.7c-4.4-1.6-9.4,0.6-11,5.1c-1.6,4.4,0.6,9.4,5.1,11c4.4,1.6,9.4-0.6,11-5.1
	C83.3,57.3,81,52.4,76.6,50.7z"/>
<path class="st1" d="M75.8,67.8l-0.1-0.1c-0.2-0.2-0.4-0.5-0.4-0.8c-0.1-0.7,0.4-1.3,1.1-1.3l2.5-0.2c0.2,0,0.4-0.2,0.5-0.4
	c0-0.1,0-0.2,0-0.2c0-0.1-0.1-0.3-0.2-0.4c-0.1-0.1-0.3-0.1-0.4-0.1l-1.2,0.1c-0.2,0-0.4,0-0.5-0.1c-0.4-0.2-0.8-0.6-0.8-1.1
	c0-0.3,0.1-0.6,0.3-0.9c0.2-0.2,0.5-0.4,0.8-0.4l5.2-0.4l-0.2,0.5c-1,2.9-3.4,5-6.4,5.8L75.8,67.8L75.8,67.8z M78.2,66.1l-1.7,0.1
	c-0.3,0-0.5,0.3-0.5,0.6c0,0.1,0,0.2,0.1,0.2C76.8,66.8,77.5,66.5,78.2,66.1z M81.5,62.2l-4.1,0.3c-0.2,0-0.3,0.1-0.4,0.2
	c-0.1,0.1-0.1,0.3-0.1,0.4c0,0.3,0.3,0.5,0.6,0.5l1.2-0.1c0.3,0,0.6,0.1,0.9,0.3c0.2,0.2,0.3,0.4,0.4,0.7
	C80.6,63.8,81.1,63,81.5,62.2z"/>
<path class="st1" d="M79.6,59.7c-0.4-0.2-0.8-0.6-0.8-1.1c0-0.3-0.3-0.5-0.6-0.5l-0.4,0c-0.2,0-0.4,0-0.5-0.1
	c-0.4-0.2-0.8-0.6-0.8-1.1c0-0.3-0.3-0.5-0.6-0.5l-0.4,0c-0.2,0-0.4,0-0.5-0.1c-0.4-0.2-0.8-0.6-0.8-1.1c0-0.3-0.3-0.5-0.6-0.5
	L72.8,55c-0.2,0-0.4,0-0.5-0.1c-0.4-0.2-0.8-0.6-0.8-1.1c-0.1-0.7,0.4-1.3,1.1-1.3l2.7-0.2c0.2,0,0.4-0.2,0.5-0.4c0-0.1,0-0.2,0-0.2
	c0-0.2-0.1-0.3-0.2-0.4c-0.1-0.1-0.3-0.1-0.4-0.1L73,51.4c-0.2,0-0.4,0-0.5-0.1c-0.4-0.2-0.8-0.6-0.8-1.1c0-0.1,0-0.2,0-0.3l0-0.2
	l0.2,0c1.6-0.3,3.3-0.2,4.9,0.4l0,0c3.8,1.4,6.2,5.1,6,9.1l0,0.3l-2.7,0.2C80,59.8,79.8,59.7,79.6,59.7z M78.7,57.5
	c0.4,0.2,0.8,0.6,0.8,1.1c0,0.3,0.3,0.5,0.6,0.5l2.1-0.2c0.1-3.6-2.1-6.9-5.6-8.1l0,0c-1.4-0.5-2.9-0.7-4.3-0.4
	c0.1,0.3,0.3,0.5,0.6,0.4l2.2-0.2c0.3,0,0.6,0.1,0.9,0.3c0.2,0.2,0.4,0.5,0.4,0.8c0,0.2,0,0.4-0.1,0.5c-0.2,0.4-0.6,0.8-1.1,0.8
	l-2.7,0.2c-0.3,0-0.5,0.3-0.5,0.6c0,0.3,0.3,0.5,0.6,0.5l0.8-0.1c0.7-0.1,1.3,0.4,1.3,1.1c0,0.3,0.3,0.5,0.6,0.5l0.4,0
	c0.7-0.1,1.3,0.4,1.3,1.1c0,0.3,0.3,0.5,0.6,0.5l0.4,0C78.4,57.4,78.6,57.5,78.7,57.5L78.7,57.5z"/>
<path class="st1" d="M68.2,66.3L68,66.1c-3.2-2.4-4.5-6.7-3.1-10.5c0.3-0.8,0.7-1.6,1.2-2.3l0.2-0.2l0.3,0.1c0.4,0.2,0.7,0.6,0.7,1
	c0,0.3,0.3,0.5,0.6,0.5l0.4,0c0.7-0.1,1.3,0.5,1.3,1.1c0,0.3,0.3,0.5,0.6,0.5l0.8-0.1c0.3,0,0.6,0.1,0.9,0.3
	c0.2,0.2,0.4,0.5,0.4,0.8c0,0.2,0,0.4-0.1,0.5c-0.2,0.4-0.6,0.8-1.1,0.8l-2.6,0.2c-0.2,0-0.3,0.1-0.4,0.2c-0.1,0.1-0.1,0.3-0.1,0.4
	c0,0.3,0.3,0.5,0.6,0.5l2.1-0.2c0.7-0.1,1.3,0.4,1.3,1.1c0,0.2,0,0.4-0.1,0.5c-0.2,0.4-0.6,0.8-1.1,0.8l-2.8,0.2
	c-0.2,0-0.3,0.1-0.4,0.2c-0.1,0.1-0.1,0.3-0.1,0.4c0,0.3,0.3,0.5,0.6,0.5l0.4,0c0.7-0.1,1.3,0.4,1.3,1.1c0,0.2,0,0.4-0.1,0.5
	c-0.2,0.4-0.6,0.8-1,0.8c-0.2,0.1-0.5,0.1-0.6,0.1L68.2,66.3L68.2,66.3z M66.5,54c-0.4,0.6-0.7,1.2-0.9,1.8
	c-1.3,3.5-0.2,7.4,2.7,9.7c0.1,0,0.3-0.1,0.6-0.1l0,0c0.2,0,0.4-0.2,0.5-0.4c0-0.1,0-0.2,0-0.2c0-0.3-0.3-0.5-0.6-0.5l-0.4,0
	c-0.2,0-0.4,0-0.5-0.1c-0.4-0.2-0.8-0.6-0.8-1.1c0-0.3,0.1-0.6,0.3-0.9c0.2-0.2,0.5-0.4,0.8-0.4l2.8-0.2c0.2,0,0.4-0.2,0.5-0.4
	c0-0.1,0-0.2,0-0.2c0-0.3-0.3-0.5-0.6-0.5l-2.1,0.2c-0.2,0-0.4,0-0.5-0.1c-0.4-0.2-0.8-0.6-0.8-1.1c0-0.3,0.1-0.6,0.3-0.9
	c0.2-0.2,0.5-0.4,0.8-0.4l2.6-0.2c0.2,0,0.4-0.2,0.5-0.4c0-0.1,0-0.2,0-0.2c0-0.2-0.1-0.3-0.2-0.4c-0.1-0.1-0.3-0.1-0.4-0.1L70.3,57
	c-0.2,0-0.4,0-0.5-0.1c-0.4-0.2-0.8-0.6-0.8-1.1c0-0.3-0.3-0.5-0.6-0.5l-0.4,0c-0.7,0.1-1.3-0.5-1.3-1.1
	C66.6,54.2,66.5,54.1,66.5,54z"/>
<linearGradient id="SVGID_12_" gradientUnits="userSpaceOnUse" x1="66.8729" y1="93.1826" x2="36.6652" y2="62.9757" gradientTransform="matrix(1 0 0 -1 0 223.2531)">
	<stop  offset="0" style="stop-color:#FEB73D"/>
	<stop  offset="1" style="stop-color:#FD9326"/>
</linearGradient>
<path class="st13" d="M52.2,120.5l-23.3,36.6c-6.5,10.3,0.7,17.4,11,10.9l36.4-23L52.2,120.5z"/>
<g class="st14">
	
		<linearGradient id="SVGID_13_" gradientUnits="userSpaceOnUse" x1="75.4111" y1="102.4928" x2="52.3261" y2="81.1178" gradientTransform="matrix(1 0 0 -1 0 223.2531)">
		<stop  offset="0" style="stop-color:#7F70FE"/>
		<stop  offset="1" style="stop-color:#501EA4"/>
	</linearGradient>
	<path class="st15" d="M67.4,108.4l-24.3,35.5c-6.8,10-0.7,16,9.3,9.2L87.8,129L67.4,108.4z"/>
</g>
<path class="st16" d="M77.8,85.3c0,0-29.1,5.9-53.7,29.9c-1.4,1.4-0.4,3.8,1.6,3.7c5.9-0.1,16-0.1,26.4,1.6L77.8,85.3z"/>
<g class="st17">
	<path class="st18" d="M77.8,85.3c0,0-15.8,12.9-30.9,34.5c0,0,4.4,0.6,5.2,0.7L77.8,85.3L77.8,85.3z"/>
</g>
<path class="st16" d="M111.9,119.4c0,0-5.9,29.1-29.9,53.7c-1.4,1.4-3.8,0.4-3.7-1.6c0.1-5.9-0.2-16.3-2-26.7L111.9,119.4z"/>
<g class="st17">
	<path class="st18" d="M111.7,119.5c0,0-13.1,16.1-34.6,31.2c0,0-0.7-5-0.8-5.8L111.7,119.5z"/>
</g>
<path class="st19" d="M86,138.7c-3.8,2.5-7.2,4.7-9.8,6.2l-12-12.1l-12.1-12.3c1.6-2.6,3.8-6,6.3-9.7L86,138.7z"/>
<path class="st20" d="M162,34c-3.8,0.2-11.7,0.8-21.8,3.7l19.7,19.9c3-10,3.7-18,3.9-21.8C163.9,34.7,163,33.9,162,34L162,34z"/>
<path class="st21" d="M140.2,37.7c-12.8,3.9-28.5,11-42.2,24.5c-10.2,10.1-28.9,33.3-39.6,48.5L86,138.7
	c15.3-10.5,38.7-29.1,48.8-39.1c13.7-13.5,21-29.1,25-41.9L140.2,37.7L140.2,37.7z"/>
<path class="st22" d="M140.2,37.7c-12.8,3.9-28.5,11-42.2,24.5c-10.2,10.1-28.9,33.3-39.6,48.5L86,138.7
	c15.3-10.5,38.7-29.1,48.8-39.1c13.7-13.5,21-29.1,25-41.9L140.2,37.7L140.2,37.7z"/>
<g class="st17">
	<path class="st18" d="M134.9,99.5c13.7-13.5,21-29.1,25-41.9l-0.1-0.1c3-9.9,3.8-18,4-21.7c0-0.6-0.3-1.2-0.8-1.5
		c-1.6-1.6-18.4,2.2-18.4,2.2c0.2,0.4,10.2,0.7,13.3,3.6c2.4,2.3-3.3,18.3-5.1,22.6c-4.5,11.2-6.6,17.5-20.8,33
		c-12.3,13.4-42.2,35.2-54.4,42.4c-3,1.8-8.3-0.5-8.5-0.3l7.1,7.1c2.6-1.5,6.1-3.7,9.8-6.2C101.3,128.2,124.7,109.6,134.9,99.5
		L134.9,99.5z"/>
</g>
<linearGradient id="SVGID_14_" gradientUnits="userSpaceOnUse" x1="113.6911" y1="161.6397" x2="136.4602" y2="138.8715" gradientTransform="matrix(1 0 0 -1 0 223.2531)">
	<stop  offset="0" style="stop-color:#FBAB3D"/>
	<stop  offset="1" style="stop-color:#DD5DB6"/>
</linearGradient>
<path class="st23" d="M113.7,84.4c6.3,6.3,16.5,6.3,22.8,0c6.3-6.3,6.3-16.5,0-22.8c-6.3-6.3-16.5-6.3-22.8,0
	C107.4,67.9,107.4,78.1,113.7,84.4z"/>
<g class="st17">
	<path class="st18" d="M141.2,73.8c-0.2,3.9-1.8,7.7-4.7,10.6c-6.3,6.2-16.5,6.2-22.8-0.1c-2.9-2.9-4.4-6.7-4.6-10.5
		c-0.2,4.4,1.3,8.8,4.6,12.1c6.2,6.3,16.5,6.4,22.8,0.1C139.8,82.7,141.4,78.2,141.2,73.8z"/>
</g>
<path class="st16" d="M50.9,145.6c-0.8-0.8-0.7-2,0-2.8c0,0,12.7-18,17.7-23c5.1-5,23-17.2,23-17.2c0.8-0.8,2-0.8,2.8,0
	c0.8,0.8,0.7,2,0,2.8c0,0-12.3,17.9-17.4,22.9c-5.1,5-23.3,17.3-23.3,17.3C52.9,146.3,51.6,146.3,50.9,145.6L50.9,145.6z"/>
<g class="st17">
	<path class="st18" d="M53.7,145.6c0,0,18.2-12.3,23.3-17.3c5.1-5,17.4-22.9,17.4-22.9c0.8-0.8,0.8-2,0-2.8c0,0-12.2,20.6-43.5,43
		C51.7,146.3,52.9,146.3,53.7,145.6L53.7,145.6z"/>
</g>
<linearGradient id="SVGID_15_" gradientUnits="userSpaceOnUse" x1="115.8752" y1="159.4557" x2="134.2762" y2="141.0545" gradientTransform="matrix(1 0 0 -1 0 223.2531)">
	<stop  offset="0" style="stop-color:#7F70FE"/>
	<stop  offset="1" style="stop-color:#501EA4"/>
</linearGradient>
<path class="st24" d="M115.9,82.2c5.1,5.1,13.3,5.1,18.4,0c5.1-5.1,5.1-13.3,0-18.4c-5.1-5.1-13.3-5.1-18.4,0
	C110.8,68.9,110.8,77.1,115.9,82.2z"/>
<path class="st25" d="M136.9,67.5l-23.6,0c0.5-1.1,1.2-2.2,2.1-3.2l19.3,0C135.6,65.3,136.3,66.3,136.9,67.5z"/>
<path class="st25" d="M137.8,70l-25.3,0c0.1-0.4,0.2-0.7,0.3-1.1l24.7,0C137.6,69.3,137.7,69.7,137.8,70L137.8,70z"/>
<rect x="150" y="111.8" transform="matrix(0.7071 -0.7071 0.7071 0.7071 -41.1555 152.5428)" class="st26" width="27.2" height="28.3"/>
<rect x="-9.6" y="60.6" transform="matrix(0.7071 -0.7071 0.7071 0.7071 -51.6762 24.73)" class="st26" width="27.2" height="28.3"/>
<rect x="28.5" y="48.5" transform="matrix(0.7071 -0.7071 0.7071 0.7071 -30.0655 43.7306)" class="st26" width="18.5" height="19.3"/>
<rect x="126.6" y="155.6" transform="matrix(0.7071 -0.7071 0.7071 0.7071 -77.0368 144.4112)" class="st26" width="18.5" height="19.3"/>
</svg>
