<svg width="286" height="394" viewBox="0 0 286 394" fill="none" xmlns="http://www.w3.org/2000/svg">
<g clip-path="url(#clip0_9_3225)">
<path d="M270.17 393.25H15.44C6.91 393.25 0 386.34 0 377.81V15.44C0 6.91 6.91 0 15.44 0H270.16C278.69 0 285.6 6.91 285.6 15.44V377.81C285.61 386.34 278.69 393.25 270.17 393.25Z" fill="#27282C"/>
<path d="M254.96 203.78H30.7C22.06 203.78 15.06 196.78 15.06 188.14V30.55C15.06 21.91 22.06 14.91 30.7 14.91H254.97C263.61 14.91 270.61 21.91 270.61 30.55V188.14C270.6 196.78 263.6 203.78 254.96 203.78Z" fill="url(#paint0_linear_9_3225)"/>
<path d="M47.6 222.46H50.46V236.96H47.6V222.46Z" fill="#E3E3E4"/>
<path d="M58.47 226.31C59.6 226.31 60.54 226.69 61.28 227.45C62.02 228.21 62.39 229.26 62.39 230.6V236.96H59.72V230.93C59.72 230.24 59.53 229.71 59.16 229.35C58.79 228.98 58.29 228.8 57.67 228.8C56.98 228.8 56.43 229.01 56.01 229.44C55.6 229.87 55.39 230.51 55.39 231.37V236.96H52.72V226.6H55.39V227.76C56.04 226.79 57.07 226.31 58.47 226.31Z" fill="#E3E3E4"/>
<path d="M66.82 229.54C66.82 229.82 67 230.04 67.37 230.21C67.74 230.38 68.18 230.54 68.71 230.67C69.23 230.8 69.76 230.97 70.28 231.17C70.8 231.37 71.25 231.71 71.62 232.17C71.99 232.64 72.17 233.23 72.17 233.93C72.17 234.99 71.77 235.81 70.98 236.39C70.19 236.96 69.19 237.25 68.01 237.25C65.88 237.25 64.43 236.43 63.66 234.79L65.98 233.49C66.28 234.39 66.96 234.84 68.01 234.84C68.96 234.84 69.44 234.54 69.44 233.95C69.44 233.67 69.26 233.45 68.89 233.28C68.52 233.11 68.08 232.95 67.55 232.81C67.02 232.67 66.5 232.5 65.98 232.29C65.45 232.08 65.01 231.75 64.64 231.31C64.27 230.86 64.09 230.3 64.09 229.62C64.09 228.6 64.47 227.79 65.22 227.21C65.97 226.62 66.91 226.33 68.03 226.33C68.87 226.33 69.64 226.52 70.33 226.9C71.02 227.28 71.57 227.82 71.97 228.52L69.69 229.76C69.36 229.06 68.81 228.7 68.03 228.7C67.68 228.7 67.4 228.78 67.17 228.93C66.94 229.07 66.82 229.28 66.82 229.54Z" fill="#E3E3E4"/>
<path d="M79.19 229.17H76.85V233.48C76.85 233.84 76.94 234.1 77.12 234.27C77.3 234.44 77.56 234.53 77.91 234.55C78.25 234.57 78.68 234.57 79.19 234.54V236.96C77.35 237.17 76.06 236.99 75.31 236.44C74.56 235.89 74.18 234.9 74.18 233.48V229.17H72.38V226.6H74.18V224.51L76.85 223.7V226.6H79.19V229.17Z" fill="#E3E3E4"/>
<path d="M88.32 226.6H90.99V236.96H88.32V235.74C87.52 236.75 86.39 237.25 84.94 237.25C83.56 237.25 82.37 236.72 81.39 235.67C80.4 234.61 79.91 233.32 79.91 231.79C79.91 230.26 80.4 228.96 81.39 227.91C82.38 226.85 83.56 226.33 84.94 226.33C86.39 226.33 87.52 226.83 88.32 227.84V226.6ZM83.39 233.88C83.93 234.43 84.61 234.7 85.44 234.7C86.27 234.7 86.96 234.43 87.5 233.88C88.04 233.34 88.32 232.63 88.32 231.78C88.32 230.92 88.05 230.22 87.5 229.68C86.95 229.13 86.27 228.86 85.44 228.86C84.61 228.86 83.93 229.13 83.39 229.68C82.85 230.23 82.58 230.93 82.58 231.78C82.58 232.64 82.85 233.34 83.39 233.88Z" fill="#E3E3E4"/>
<path d="M101.04 226.6H103.65V236.46C103.65 238.06 103.12 239.28 102.07 240.13C101.01 240.97 99.7399 241.39 98.2499 241.39C97.1299 241.39 96.1499 241.18 95.2999 240.75C94.4499 240.32 93.7999 239.69 93.3399 238.87L95.6199 237.57C96.1399 238.54 97.0499 239.02 98.3299 239.02C99.1699 239.02 99.8299 238.8 100.32 238.36C100.8 237.92 101.04 237.29 101.04 236.48V235.36C100.25 236.41 99.15 236.93 97.7299 236.93C96.2699 236.93 95.0399 236.42 94.0499 235.39C93.0599 234.36 92.5699 233.11 92.5699 231.63C92.5699 230.17 93.0699 228.92 94.0599 227.88C95.0499 226.84 96.2799 226.33 97.7299 226.33C99.15 226.33 100.26 226.86 101.04 227.9V226.6ZM96.0599 233.65C96.5999 234.18 97.2999 234.45 98.1399 234.45C98.9799 234.45 99.6799 234.18 100.22 233.65C100.77 233.12 101.04 232.44 101.04 231.61C101.04 230.8 100.77 230.12 100.22 229.59C99.6699 229.06 98.9799 228.79 98.1399 228.79C97.2999 228.79 96.5999 229.06 96.0599 229.59C95.5099 230.12 95.2399 230.8 95.2399 231.61C95.2399 232.44 95.5099 233.12 96.0599 233.65Z" fill="#E3E3E4"/>
<path d="M108.43 228.38C108.68 227.72 109.09 227.22 109.66 226.89C110.23 226.56 110.87 226.39 111.58 226.39V229.37C110.76 229.27 110.04 229.44 109.39 229.87C108.75 230.3 108.43 231.01 108.43 232V236.95H105.76V226.6H108.43V228.38Z" fill="#E3E3E4"/>
<path d="M120.3 226.6H122.97V236.96H120.3V235.74C119.5 236.75 118.37 237.25 116.92 237.25C115.54 237.25 114.35 236.72 113.37 235.67C112.38 234.61 111.89 233.32 111.89 231.79C111.89 230.26 112.38 228.96 113.37 227.91C114.36 226.85 115.54 226.33 116.92 226.33C118.37 226.33 119.5 226.83 120.3 227.84V226.6ZM115.37 233.88C115.91 234.43 116.59 234.7 117.42 234.7C118.25 234.7 118.93 234.43 119.48 233.88C120.02 233.34 120.3 232.63 120.3 231.78C120.3 230.92 120.03 230.22 119.48 229.68C118.93 229.13 118.25 228.86 117.42 228.86C116.59 228.86 115.91 229.13 115.37 229.68C114.83 230.23 114.56 230.93 114.56 231.78C114.56 232.64 114.83 233.34 115.37 233.88Z" fill="#E3E3E4"/>
<path d="M136.54 226.31C137.73 226.31 138.68 226.7 139.39 227.47C140.1 228.24 140.46 229.28 140.46 230.58V236.96H137.79V230.77C137.79 230.15 137.64 229.67 137.33 229.32C137.03 228.97 136.6 228.8 136.05 228.8C135.44 228.8 134.97 229 134.63 229.4C134.29 229.8 134.12 230.38 134.12 231.14V236.96H131.45V230.77C131.45 230.15 131.3 229.67 130.99 229.32C130.69 228.97 130.26 228.8 129.71 228.8C129.12 228.8 128.64 229 128.29 229.4C127.94 229.8 127.76 230.38 127.76 231.14V236.96H125.09V226.6H127.76V227.7C128.38 226.78 129.34 226.31 130.64 226.31C131.91 226.31 132.85 226.81 133.46 227.8C134.14 226.81 135.17 226.31 136.54 226.31Z" fill="#E3E3E4"/>
<path d="M156.94 236.96L156.02 234.35H150.06L149.19 236.96H146.1L151.18 222.46H154.72L159.84 236.96H156.94ZM151 231.68H155.08L152.99 225.76L151 231.68Z" fill="#E3E3E4"/>
<path d="M168.89 236.96L165.96 231.93H163.79V236.96H160.93V222.46H166.73C168.07 222.46 169.21 222.93 170.15 223.87C171.09 224.81 171.56 225.94 171.56 227.27C171.56 228.17 171.3 229 170.79 229.77C170.28 230.54 169.6 231.11 168.76 231.5L171.97 236.97H168.89V236.96ZM163.8 225.13V229.42H166.74C167.28 229.42 167.74 229.21 168.13 228.79C168.52 228.37 168.71 227.86 168.71 227.27C168.71 226.68 168.52 226.17 168.13 225.76C167.74 225.34 167.28 225.14 166.74 225.14H163.8V225.13Z" fill="#E3E3E4"/>
<path d="M181.07 234.22H187.18V236.95H178.21V222.45H187.08V225.18H181.07V228.27H186.56V230.96H181.07V234.22Z" fill="#E3E3E4"/>
<path d="M200.06 224.53C198.6 224.42 197.86 225.01 197.86 226.29V226.6H200.06V229.17H197.86V236.96H195.19V229.17H192.12V236.96H189.45V229.17H187.96V226.6H189.45V226.5C189.45 225.04 189.86 223.92 190.67 223.17C191.48 222.41 192.7 222.08 194.32 222.18V224.75C192.86 224.64 192.12 225.23 192.12 226.51V226.61H195.19V226.3C195.19 224.84 195.6 223.72 196.42 222.97C197.24 222.21 198.45 221.88 200.06 221.98V224.53Z" fill="#E3E3E4"/>
<path d="M202.84 232.88C203.2 234.18 204.17 234.83 205.76 234.83C206.78 234.83 207.55 234.49 208.08 233.79L210.23 235.03C209.21 236.51 207.7 237.25 205.72 237.25C204.01 237.25 202.63 236.73 201.6 235.7C200.56 234.66 200.05 233.36 200.05 231.79C200.05 230.23 200.56 228.93 201.58 227.89C202.6 226.85 203.91 226.33 205.52 226.33C207.04 226.33 208.29 226.86 209.28 227.9C210.27 228.95 210.76 230.25 210.76 231.79C210.76 232.13 210.72 232.5 210.66 232.89H202.84V232.88ZM202.8 230.81H208.08C207.93 230.11 207.61 229.58 207.14 229.24C206.66 228.9 206.12 228.72 205.52 228.72C204.8 228.72 204.21 228.9 203.74 229.27C203.26 229.63 202.95 230.14 202.8 230.81Z" fill="#E3E3E4"/>
<path d="M217.15 237.25C215.59 237.25 214.29 236.73 213.24 235.68C212.2 234.63 211.68 233.33 211.68 231.79C211.68 230.24 212.2 228.95 213.24 227.9C214.28 226.85 215.58 226.33 217.15 226.33C218.16 226.33 219.08 226.57 219.9 227.06C220.73 227.54 221.36 228.19 221.78 229.01L219.48 230.36C219.27 229.93 218.96 229.59 218.54 229.35C218.12 229.1 217.65 228.98 217.12 228.98C216.32 228.98 215.66 229.25 215.13 229.78C214.61 230.31 214.34 230.99 214.34 231.82C214.34 232.63 214.6 233.31 215.13 233.84C215.65 234.37 216.32 234.64 217.12 234.64C217.66 234.64 218.14 234.52 218.56 234.28C218.98 234.04 219.3 233.7 219.5 233.28L221.82 234.61C221.36 235.42 220.72 236.08 219.89 236.57C219.08 237 218.16 237.25 217.15 237.25Z" fill="#E3E3E4"/>
<path d="M228.85 229.17H226.51V233.48C226.51 233.84 226.6 234.1 226.78 234.27C226.96 234.44 227.22 234.53 227.57 234.55C227.91 234.57 228.34 234.57 228.85 234.54V236.96C227.01 237.17 225.72 236.99 224.97 236.44C224.22 235.89 223.84 234.9 223.84 233.48V229.17H222.04V226.6H223.84V224.51L226.51 223.7V226.6H228.85V229.17Z" fill="#E3E3E4"/>
<path d="M232.67 229.54C232.67 229.82 232.85 230.04 233.22 230.21C233.59 230.38 234.03 230.54 234.56 230.67C235.09 230.8 235.61 230.97 236.13 231.17C236.65 231.37 237.1 231.71 237.47 232.17C237.84 232.64 238.02 233.23 238.02 233.93C238.02 234.99 237.62 235.81 236.83 236.39C236.04 236.96 235.04 237.25 233.86 237.25C231.73 237.25 230.28 236.43 229.51 234.79L231.83 233.49C232.13 234.39 232.81 234.84 233.86 234.84C234.81 234.84 235.29 234.54 235.29 233.95C235.29 233.67 235.11 233.45 234.74 233.28C234.37 233.11 233.93 232.95 233.4 232.81C232.88 232.67 232.35 232.5 231.83 232.29C231.31 232.08 230.86 231.75 230.49 231.31C230.12 230.86 229.94 230.3 229.94 229.62C229.94 228.6 230.32 227.79 231.07 227.21C231.82 226.63 232.76 226.33 233.88 226.33C234.72 226.33 235.49 226.52 236.18 226.9C236.87 227.28 237.42 227.82 237.82 228.52L235.54 229.76C235.21 229.06 234.66 228.7 233.88 228.7C233.54 228.7 233.25 228.78 233.02 228.93C232.78 229.07 232.67 229.28 232.67 229.54Z" fill="#E3E3E4"/>
<path d="M35.96 248.25V259.73H34.11V248.25H35.96Z" fill="#E3E3E4"/>
<path d="M46.16 251.67C47.21 251.67 48.03 252.06 48.63 252.83V247.92H50.34V259.73H48.63V258.79C48.03 259.56 47.21 259.94 46.16 259.94C45.05 259.94 44.12 259.55 43.36 258.77C42.61 257.99 42.23 257 42.23 255.81C42.23 254.62 42.61 253.63 43.36 252.85C44.12 252.06 45.05 251.67 46.16 251.67ZM46.37 253.29C45.65 253.29 45.08 253.53 44.65 254.02C44.22 254.5 44 255.1 44 255.81C44 256.52 44.22 257.12 44.65 257.6C45.08 258.08 45.66 258.33 46.37 258.33C47.07 258.33 47.64 258.09 48.08 257.62C48.52 257.15 48.74 256.54 48.74 255.82C48.74 255.1 48.52 254.49 48.08 254.02C47.64 253.55 47.07 253.29 46.37 253.29Z" fill="#E3E3E4"/>
<path d="M56.14 251.67C57.24 251.67 58.13 252.05 58.82 252.81C59.51 253.57 59.85 254.57 59.86 255.79C59.86 255.95 59.85 256.17 59.83 256.43H54.02C54.13 257.1 54.4 257.6 54.82 257.93C55.25 258.26 55.76 258.43 56.35 258.43C57.17 258.43 57.93 258.15 58.62 257.6L59.47 258.82C58.61 259.56 57.53 259.93 56.24 259.93C55.05 259.93 54.09 259.55 53.34 258.79C52.59 258.03 52.22 257.03 52.22 255.8C52.22 254.57 52.58 253.57 53.31 252.81C54.04 252.05 54.98 251.67 56.14 251.67ZM56.1 253.2C55.51 253.2 55.04 253.37 54.69 253.72C54.34 254.07 54.11 254.54 54.02 255.14H58.1C58.01 254.53 57.79 254.05 57.44 253.71C57.09 253.37 56.65 253.2 56.1 253.2Z" fill="#E3E3E4"/>
<path d="M68.83 251.88L65.69 259.74H63.66L60.5 251.88H62.37L64.69 257.96L67.01 251.88H68.83Z" fill="#E3E3E4"/>
<path d="M73.38 251.67C74.48 251.67 75.37 252.05 76.06 252.81C76.75 253.57 77.09 254.57 77.1 255.79C77.1 255.95 77.09 256.17 77.07 256.43H71.26C71.37 257.1 71.64 257.6 72.06 257.93C72.48 258.26 73 258.43 73.59 258.43C74.41 258.43 75.17 258.15 75.86 257.6L76.71 258.82C75.85 259.56 74.77 259.93 73.48 259.93C72.29 259.93 71.33 259.55 70.58 258.79C69.83 258.03 69.46 257.03 69.46 255.8C69.46 254.57 69.82 253.57 70.55 252.81C71.28 252.05 72.22 251.67 73.38 251.67ZM73.35 253.2C72.76 253.2 72.29 253.37 71.93 253.72C71.58 254.07 71.35 254.54 71.26 255.14H75.34C75.25 254.53 75.03 254.05 74.68 253.71C74.33 253.37 73.89 253.2 73.35 253.2Z" fill="#E3E3E4"/>
<path d="M80.69 247.92V259.73H78.97V247.92H80.69Z" fill="#E3E3E4"/>
<path d="M84.63 252.21C85.27 251.85 86 251.67 86.8 251.67C87.6 251.67 88.32 251.85 88.97 252.21C89.62 252.57 90.12 253.06 90.49 253.69C90.86 254.32 91.04 255.03 91.04 255.8C91.04 256.57 90.86 257.28 90.49 257.91C90.12 258.54 89.62 259.04 88.97 259.39C88.33 259.75 87.6 259.93 86.8 259.93C86 259.93 85.28 259.75 84.63 259.39C83.98 259.03 83.48 258.53 83.12 257.9C82.76 257.27 82.58 256.57 82.58 255.79C82.58 255.01 82.76 254.31 83.12 253.68C83.48 253.07 83.99 252.57 84.63 252.21ZM88.56 253.99C88.09 253.52 87.5 253.28 86.8 253.28C86.1 253.28 85.51 253.52 85.04 253.99C84.57 254.46 84.34 255.06 84.34 255.8C84.34 256.54 84.57 257.14 85.04 257.61C85.51 258.08 86.09 258.32 86.8 258.32C87.51 258.32 88.09 258.09 88.56 257.61C89.03 257.14 89.27 256.54 89.27 255.8C89.27 255.06 89.03 254.46 88.56 253.99Z" fill="#E3E3E4"/>
<path d="M97.08 251.67C98.19 251.67 99.12 252.06 99.88 252.84C100.63 253.62 101.01 254.61 101.01 255.8C101.01 256.99 100.63 257.98 99.88 258.76C99.13 259.54 98.19 259.93 97.08 259.93C96.04 259.93 95.22 259.55 94.62 258.79V263.01H92.91V251.87H94.62V252.8C95.22 252.05 96.04 251.67 97.08 251.67ZM96.88 253.29C96.18 253.29 95.61 253.53 95.17 254C94.73 254.47 94.51 255.08 94.51 255.8C94.51 256.52 94.73 257.13 95.17 257.6C95.61 258.07 96.18 258.31 96.88 258.31C97.6 258.31 98.17 258.07 98.6 257.58C99.03 257.1 99.25 256.5 99.25 255.79C99.25 255.08 99.03 254.48 98.6 254C98.17 253.53 97.59 253.29 96.88 253.29Z" fill="#E3E3E4"/>
<path d="M112.58 248.25L117.12 259.73H115.13L114 256.8H108.8L107.67 259.73H105.74L110.28 248.25H112.58ZM111.39 250.1L109.47 255.05H113.31L111.39 250.1Z" fill="#E3E3E4"/>
<path d="M118.67 248.25H123.39C124.71 248.25 125.72 248.54 126.41 249.11C127.1 249.68 127.46 250.5 127.46 251.57C127.46 252.54 127.11 253.33 126.42 253.93C125.73 254.53 124.8 254.85 123.63 254.9L127.41 259.73H125.11L121.45 254.9H120.51V259.73H118.66V248.25H118.67ZM123.35 249.99H120.53V253.22H123.35C124.09 253.22 124.64 253.09 125 252.81C125.36 252.54 125.54 252.13 125.54 251.57C125.54 251.03 125.36 250.63 124.99 250.37C124.63 250.12 124.08 249.99 123.35 249.99Z" fill="#E3E3E4"/>
<path d="M142.23 258V259.74H133.86V248.26H142.13V250H135.72V253.09H141.91V254.83H135.72V258H142.23Z" fill="#E3E3E4"/>
<path d="M151.53 251.88L148.63 255.71L151.59 259.74H149.48L147.49 257.01L145.52 259.74H143.51L146.47 255.73L143.56 251.88H145.67L147.58 254.5L149.51 251.88H151.53Z" fill="#E3E3E4"/>
<path d="M157.13 251.67C158.24 251.67 159.17 252.06 159.93 252.84C160.68 253.62 161.06 254.61 161.06 255.8C161.06 256.99 160.68 257.98 159.93 258.76C159.18 259.54 158.24 259.93 157.13 259.93C156.09 259.93 155.27 259.55 154.67 258.79V263.01H152.96V251.87H154.67V252.8C155.27 252.05 156.09 251.67 157.13 251.67ZM156.92 253.29C156.22 253.29 155.65 253.53 155.21 254C154.77 254.47 154.55 255.08 154.55 255.8C154.55 256.52 154.77 257.13 155.21 257.6C155.65 258.07 156.22 258.31 156.92 258.31C157.64 258.31 158.21 258.07 158.64 257.58C159.07 257.1 159.29 256.5 159.29 255.79C159.29 255.08 159.07 254.48 158.64 254C158.22 253.53 157.64 253.29 156.92 253.29Z" fill="#E3E3E4"/>
<path d="M166.28 251.67C167.38 251.67 168.27 252.05 168.96 252.81C169.65 253.57 169.99 254.57 170 255.79C170 255.95 169.99 256.17 169.97 256.43H164.16C164.27 257.1 164.54 257.6 164.96 257.93C165.38 258.26 165.9 258.43 166.49 258.43C167.31 258.43 168.07 258.15 168.76 257.6L169.61 258.82C168.75 259.56 167.67 259.93 166.38 259.93C165.19 259.93 164.23 259.55 163.48 258.79C162.73 258.03 162.36 257.03 162.36 255.8C162.36 254.57 162.72 253.57 163.45 252.81C164.18 252.05 165.12 251.67 166.28 251.67ZM166.25 253.2C165.66 253.2 165.19 253.37 164.83 253.72C164.48 254.07 164.25 254.54 164.16 255.14H168.24C168.15 254.53 167.93 254.05 167.58 253.71C167.24 253.37 166.79 253.2 166.25 253.2Z" fill="#E3E3E4"/>
<path d="M175.85 251.67C176.36 251.67 176.8 251.74 177.17 251.89L176.76 253.59C176.39 253.4 175.96 253.3 175.46 253.3C174.9 253.3 174.45 253.49 174.11 253.86C173.77 254.23 173.59 254.75 173.59 255.41V259.73H171.88V251.87H173.58V252.76C174.08 252.04 174.84 251.67 175.85 251.67Z" fill="#E3E3E4"/>
<path d="M178.68 248.3C178.91 248.06 179.19 247.95 179.53 247.95C179.87 247.95 180.16 248.07 180.39 248.3C180.62 248.54 180.74 248.82 180.74 249.16C180.74 249.5 180.62 249.78 180.39 250.01C180.15 250.24 179.87 250.35 179.53 250.35C179.19 250.35 178.91 250.23 178.68 250.01C178.45 249.79 178.34 249.5 178.34 249.16C178.34 248.82 178.45 248.54 178.68 248.3ZM180.4 251.88V259.74H178.68V251.88H180.4Z" fill="#E3E3E4"/>
<path d="M186.19 251.67C187.29 251.67 188.18 252.05 188.87 252.81C189.56 253.57 189.9 254.57 189.91 255.79C189.91 255.95 189.9 256.17 189.88 256.43H184.07C184.18 257.1 184.45 257.6 184.87 257.93C185.29 258.26 185.81 258.43 186.4 258.43C187.22 258.43 187.98 258.15 188.67 257.6L189.52 258.82C188.66 259.56 187.58 259.93 186.29 259.93C185.1 259.93 184.14 259.55 183.39 258.79C182.64 258.03 182.27 257.03 182.27 255.8C182.27 254.57 182.63 253.57 183.36 252.81C184.09 252.05 185.03 251.67 186.19 251.67ZM186.16 253.2C185.57 253.2 185.1 253.37 184.74 253.72C184.39 254.07 184.16 254.54 184.07 255.14H188.15C188.06 254.53 187.84 254.05 187.49 253.71C187.14 253.37 186.7 253.2 186.16 253.2Z" fill="#E3E3E4"/>
<path d="M195.9 251.67C196.83 251.67 197.6 251.96 198.2 252.54C198.8 253.12 199.09 253.87 199.09 254.79V259.73H197.37V255.36C197.37 254.7 197.21 254.2 196.89 253.84C196.57 253.48 196.12 253.3 195.54 253.3C194.96 253.3 194.48 253.48 194.09 253.85C193.7 254.22 193.51 254.73 193.51 255.37V259.73H191.79V251.87H193.5V252.83C194.02 252.06 194.82 251.67 195.9 251.67Z" fill="#E3E3E4"/>
<path d="M205.02 251.67C205.62 251.67 206.17 251.78 206.68 251.99C207.19 252.2 207.61 252.52 207.96 252.93L206.86 254.1C206.29 253.56 205.66 253.29 204.97 253.29C204.3 253.29 203.75 253.53 203.31 254C202.87 254.47 202.65 255.07 202.65 255.81C202.65 256.55 202.87 257.15 203.31 257.62C203.75 258.09 204.3 258.33 204.97 258.33C205.67 258.33 206.31 258.06 206.9 257.51L207.96 258.69C207.24 259.53 206.26 259.94 205.02 259.94C203.78 259.94 202.79 259.55 202.03 258.77C201.27 257.99 200.89 257 200.89 255.81C200.89 254.62 201.27 253.63 202.03 252.85C202.79 252.06 203.79 251.67 205.02 251.67Z" fill="#E3E3E4"/>
<path d="M212.81 251.67C213.91 251.67 214.8 252.05 215.49 252.81C216.18 253.57 216.52 254.57 216.53 255.79C216.53 255.95 216.52 256.17 216.5 256.43H210.69C210.8 257.1 211.07 257.6 211.49 257.93C211.91 258.26 212.43 258.43 213.02 258.43C213.84 258.43 214.6 258.15 215.29 257.6L216.14 258.82C215.28 259.56 214.2 259.93 212.91 259.93C211.72 259.93 210.76 259.55 210.01 258.79C209.26 258.03 208.89 257.03 208.89 255.8C208.89 254.57 209.25 253.57 209.98 252.81C210.71 252.05 211.65 251.67 212.81 251.67ZM212.78 253.2C212.19 253.2 211.72 253.37 211.36 253.72C211.01 254.07 210.78 254.54 210.69 255.14H214.77C214.68 254.53 214.46 254.05 214.11 253.71C213.77 253.37 213.32 253.2 212.78 253.2Z" fill="#E3E3E4"/>
<path d="M224.49 252.51L223.75 253.85C223.47 253.67 223.11 253.52 222.66 253.38C222.21 253.24 221.77 253.17 221.32 253.17C220.86 253.17 220.5 253.25 220.23 253.42C219.97 253.59 219.83 253.82 219.83 254.1C219.83 254.23 219.86 254.35 219.92 254.44C219.98 254.54 220.08 254.61 220.21 254.67C220.34 254.73 220.47 254.78 220.61 254.81C220.75 254.84 220.92 254.88 221.12 254.91L221.93 255.03C223.75 255.29 224.66 256.07 224.66 257.35C224.66 258.12 224.34 258.74 223.71 259.21C223.08 259.68 222.2 259.92 221.09 259.92C219.75 259.92 218.63 259.58 217.72 258.91L218.52 257.62C219.22 258.16 220.08 258.42 221.11 258.42C221.69 258.42 222.13 258.34 222.44 258.17C222.75 258 222.9 257.76 222.9 257.46C222.9 257.01 222.45 256.72 221.54 256.59L220.72 256.48C219.85 256.36 219.19 256.1 218.74 255.71C218.29 255.32 218.06 254.81 218.06 254.17C218.06 253.39 218.35 252.78 218.93 252.33C219.51 251.88 220.3 251.65 221.3 251.65C222.58 251.68 223.64 251.96 224.49 252.51Z" fill="#E3E3E4"/>
<path d="M235.6 251.88V253.44H232.91V259.74H231.19V253.44H229.61V251.88H231.19V250.55C231.19 249.71 231.41 249.03 231.85 248.51C232.29 247.98 232.95 247.72 233.82 247.72C234.61 247.72 235.34 247.92 236.01 248.31L235.4 249.75C234.91 249.47 234.42 249.33 233.93 249.33C233.6 249.33 233.34 249.44 233.17 249.65C233 249.86 232.91 250.16 232.91 250.55V251.88H235.6Z" fill="#E3E3E4"/>
<path d="M238.48 252.21C239.12 251.85 239.85 251.67 240.65 251.67C241.45 251.67 242.17 251.85 242.82 252.21C243.47 252.57 243.97 253.06 244.34 253.69C244.71 254.32 244.89 255.03 244.89 255.8C244.89 256.57 244.71 257.28 244.34 257.91C243.97 258.54 243.47 259.04 242.82 259.39C242.18 259.75 241.45 259.93 240.65 259.93C239.85 259.93 239.13 259.75 238.48 259.39C237.83 259.03 237.33 258.53 236.97 257.9C236.61 257.27 236.43 256.57 236.43 255.79C236.43 255.01 236.61 254.31 236.97 253.68C237.33 253.07 237.83 252.57 238.48 252.21ZM242.41 253.99C241.94 253.52 241.35 253.28 240.65 253.28C239.95 253.28 239.36 253.52 238.89 253.99C238.42 254.46 238.19 255.06 238.19 255.8C238.19 256.54 238.42 257.14 238.89 257.61C239.36 258.08 239.94 258.32 240.65 258.32C241.36 258.32 241.94 258.09 242.41 257.61C242.88 257.14 243.12 256.54 243.12 255.8C243.12 255.06 242.88 254.46 242.41 253.99Z" fill="#E3E3E4"/>
<path d="M250.73 251.67C251.24 251.67 251.68 251.74 252.05 251.89L251.64 253.59C251.27 253.4 250.84 253.3 250.34 253.3C249.78 253.3 249.33 253.49 248.99 253.86C248.65 254.23 248.47 254.75 248.47 255.41V259.73H246.76V251.87H248.46V252.76C248.95 252.04 249.71 251.67 250.73 251.67Z" fill="#E3E3E4"/>
<path d="M49.93 266.62V278.1H48.08V266.62H49.93Z" fill="#E3E3E4"/>
<path d="M56.71 270.04C57.65 270.04 58.41 270.33 59.01 270.91C59.61 271.49 59.9 272.24 59.9 273.16V278.1H58.18V273.73C58.18 273.07 58.02 272.57 57.7 272.21C57.38 271.85 56.93 271.67 56.35 271.67C55.77 271.67 55.29 271.85 54.9 272.22C54.51 272.59 54.32 273.1 54.32 273.74V278.1H52.6V270.24H54.31V271.2C54.83 270.43 55.63 270.04 56.71 270.04Z" fill="#E3E3E4"/>
<path d="M68.35 270.88L67.61 272.22C67.33 272.04 66.97 271.89 66.52 271.75C66.07 271.61 65.63 271.54 65.18 271.54C64.72 271.54 64.36 271.62 64.09 271.79C63.82 271.96 63.69 272.19 63.69 272.47C63.69 272.6 63.72 272.72 63.78 272.81C63.84 272.9 63.94 272.98 64.07 273.04C64.2 273.1 64.33 273.15 64.47 273.18C64.61 273.21 64.78 273.25 64.98 273.28L65.79 273.4C67.61 273.66 68.52 274.44 68.52 275.72C68.52 276.49 68.2 277.11 67.57 277.58C66.94 278.05 66.06 278.29 64.95 278.29C63.61 278.29 62.49 277.95 61.58 277.28L62.38 275.99C63.08 276.53 63.94 276.79 64.97 276.79C65.55 276.79 65.99 276.71 66.3 276.54C66.61 276.37 66.76 276.13 66.76 275.83C66.76 275.38 66.31 275.09 65.4 274.96L64.58 274.85C63.71 274.73 63.05 274.47 62.59 274.08C62.14 273.69 61.91 273.18 61.91 272.54C61.91 271.76 62.2 271.15 62.78 270.7C63.36 270.25 64.15 270.02 65.16 270.02C66.43 270.05 67.49 270.33 68.35 270.88ZM75.91 270.25V271.81H72.9V275.23C72.9 275.73 73.02 276.1 73.24 276.34C73.46 276.58 73.77 276.7 74.14 276.7C74.63 276.7 75.16 276.52 75.72 276.17L76.4 277.54C75.63 278.06 74.82 278.32 73.99 278.32C73.08 278.32 72.38 278.07 71.9 277.57C71.41 277.07 71.17 276.3 71.17 275.27V271.82H69.6V270.26H71.17V267.88H72.89V270.26H75.91V270.25Z" fill="#E3E3E4"/>
<path d="M85.3 270.25V278.11H83.59V277.17C82.99 277.94 82.17 278.32 81.12 278.32C80.01 278.32 79.08 277.93 78.32 277.15C77.57 276.37 77.19 275.38 77.19 274.19C77.19 273 77.57 272.01 78.32 271.23C79.07 270.45 80.01 270.06 81.12 270.06C82.17 270.06 82.99 270.45 83.59 271.22V270.27H85.3V270.25ZM81.32 271.66C80.6 271.66 80.03 271.9 79.6 272.39C79.17 272.87 78.95 273.47 78.95 274.18C78.95 274.89 79.17 275.49 79.6 275.97C80.03 276.45 80.61 276.7 81.32 276.7C82.02 276.7 82.59 276.46 83.03 275.99C83.47 275.52 83.69 274.91 83.69 274.19C83.69 273.47 83.47 272.86 83.03 272.39C82.59 271.92 82.02 271.66 81.32 271.66Z" fill="#E3E3E4"/>
<path d="M90.82 270.04C91.96 270.04 92.83 270.42 93.44 271.19V270.25H95.16V277.56C95.16 278.8 94.78 279.77 94.04 280.48C93.3 281.19 92.26 281.55 90.95 281.55C90.35 281.55 89.75 281.47 89.16 281.31C88.57 281.15 88.07 280.93 87.66 280.64L88.28 279.19C89.15 279.72 90.04 279.99 90.95 279.99C91.75 279.99 92.36 279.78 92.8 279.37C93.23 278.96 93.45 278.38 93.45 277.64V277C92.85 277.77 91.98 278.15 90.83 278.15C90.38 278.15 89.93 278.06 89.5 277.87C89.07 277.68 88.68 277.42 88.34 277.08C88 276.74 87.72 276.32 87.51 275.8C87.3 275.28 87.19 274.72 87.19 274.1C87.19 273.48 87.29 272.92 87.51 272.4C87.73 271.88 88 271.45 88.34 271.12C88.68 270.78 89.07 270.52 89.5 270.33C89.92 270.14 90.37 270.04 90.82 270.04ZM91.26 271.66C90.55 271.66 89.99 271.89 89.57 272.36C89.15 272.83 88.94 273.4 88.94 274.09C88.94 274.77 89.15 275.35 89.57 275.82C89.99 276.29 90.55 276.53 91.26 276.53C91.94 276.53 92.5 276.3 92.93 275.84C93.36 275.38 93.58 274.8 93.58 274.1C93.58 273.4 93.36 272.82 92.93 272.36C92.5 271.89 91.95 271.66 91.26 271.66Z" fill="#E3E3E4"/>
<path d="M101.58 270.04C102.09 270.04 102.53 270.11 102.9 270.26L102.49 271.96C102.12 271.77 101.69 271.67 101.19 271.67C100.63 271.67 100.18 271.86 99.84 272.23C99.5 272.6 99.32 273.12 99.32 273.78V278.1H97.6V270.24H99.3V271.13C99.8 270.41 100.56 270.04 101.58 270.04Z" fill="#E3E3E4"/>
<path d="M111.62 270.25V278.11H109.91V277.17C109.31 277.94 108.49 278.32 107.44 278.32C106.33 278.32 105.4 277.93 104.64 277.15C103.89 276.37 103.51 275.38 103.51 274.19C103.51 273 103.89 272.01 104.64 271.23C105.39 270.45 106.33 270.06 107.44 270.06C108.49 270.06 109.31 270.45 109.91 271.22V270.27H111.62V270.25ZM107.64 271.66C106.92 271.66 106.35 271.9 105.92 272.39C105.49 272.87 105.27 273.47 105.27 274.18C105.27 274.89 105.49 275.49 105.92 275.97C106.35 276.45 106.93 276.7 107.64 276.7C108.34 276.7 108.91 276.46 109.35 275.99C109.79 275.52 110.01 274.91 110.01 274.19C110.01 273.47 109.79 272.86 109.35 272.39C108.91 271.92 108.34 271.66 107.64 271.66Z" fill="#E3E3E4"/>
<path d="M123.77 270.04C124.71 270.04 125.47 270.33 126.07 270.91C126.67 271.49 126.96 272.24 126.96 273.16V278.1H125.24V273.73C125.24 273.07 125.08 272.57 124.76 272.21C124.44 271.85 123.99 271.67 123.41 271.67C122.83 271.67 122.35 271.85 121.96 272.22C121.57 272.59 121.38 273.1 121.38 273.74V278.1H119.66V273.73C119.66 273.07 119.5 272.57 119.18 272.21C118.86 271.85 118.41 271.67 117.83 271.67C117.25 271.67 116.77 271.85 116.38 272.22C115.99 272.59 115.8 273.1 115.8 273.74V278.1H114.08V270.24H115.79V271.2C116.32 270.42 117.12 270.04 118.2 270.04C118.79 270.04 119.32 270.16 119.8 270.41C120.28 270.66 120.65 271 120.92 271.44C121.47 270.51 122.42 270.04 123.77 270.04Z" fill="#E3E3E4"/>
<path d="M136.59 265.47L129.63 279.74H127.74L134.7 265.47H136.59Z" fill="#E3E3E4"/>
<path d="M145.36 271.45V273.2H139.4V278.11H137.55V266.63H145.74V268.39H139.4V271.46H145.36V271.45Z" fill="#E3E3E4"/>
<path d="M155.08 270.25V278.11H153.37V277.17C152.77 277.94 151.95 278.32 150.9 278.32C149.79 278.32 148.86 277.93 148.1 277.15C147.35 276.37 146.97 275.38 146.97 274.19C146.97 273 147.35 272.01 148.1 271.23C148.85 270.45 149.79 270.06 150.9 270.06C151.95 270.06 152.77 270.45 153.37 271.22V270.27H155.08V270.25ZM151.1 271.66C150.38 271.66 149.81 271.9 149.38 272.39C148.95 272.87 148.73 273.47 148.73 274.18C148.73 274.89 148.95 275.49 149.38 275.97C149.81 276.45 150.39 276.7 151.1 276.7C151.8 276.7 152.37 276.46 152.81 275.99C153.25 275.51 153.47 274.91 153.47 274.19C153.47 273.47 153.25 272.86 152.81 272.39C152.37 271.9 151.8 271.66 151.1 271.66Z" fill="#E3E3E4"/>
<path d="M161.09 270.04C161.69 270.04 162.24 270.15 162.75 270.36C163.26 270.57 163.68 270.89 164.03 271.3L162.93 272.47C162.36 271.93 161.73 271.66 161.04 271.66C160.37 271.66 159.82 271.9 159.38 272.37C158.94 272.84 158.72 273.44 158.72 274.18C158.72 274.92 158.94 275.52 159.38 275.99C159.82 276.46 160.37 276.7 161.04 276.7C161.74 276.7 162.38 276.43 162.97 275.88L164.03 277.06C163.31 277.9 162.33 278.31 161.09 278.31C159.85 278.31 158.86 277.92 158.1 277.14C157.34 276.36 156.96 275.37 156.96 274.18C156.96 272.99 157.34 272 158.1 271.22C158.85 270.43 159.85 270.04 161.09 270.04Z" fill="#E3E3E4"/>
<path d="M168.88 270.04C169.98 270.04 170.87 270.42 171.56 271.18C172.25 271.94 172.59 272.94 172.6 274.16C172.6 274.32 172.59 274.54 172.57 274.8H166.76C166.87 275.47 167.14 275.97 167.56 276.3C167.99 276.63 168.5 276.8 169.09 276.8C169.91 276.8 170.67 276.52 171.36 275.97L172.21 277.19C171.35 277.93 170.27 278.3 168.98 278.3C167.79 278.3 166.83 277.92 166.08 277.16C165.33 276.4 164.96 275.4 164.96 274.17C164.96 272.94 165.32 271.94 166.05 271.18C166.78 270.42 167.72 270.04 168.88 270.04ZM168.85 271.57C168.26 271.57 167.79 271.74 167.44 272.09C167.09 272.44 166.86 272.91 166.77 273.51H170.85C170.76 272.9 170.54 272.42 170.19 272.08C169.83 271.74 169.39 271.57 168.85 271.57Z" fill="#E3E3E4"/>
<path d="M178.65 270.04C179.76 270.04 180.69 270.43 181.45 271.21C182.2 271.99 182.58 272.98 182.58 274.17C182.58 275.36 182.2 276.35 181.45 277.13C180.7 277.91 179.76 278.3 178.65 278.3C177.61 278.3 176.79 277.92 176.19 277.16V278.09H174.48V266.28H176.19V271.17C176.78 270.42 177.6 270.04 178.65 270.04ZM178.44 271.66C177.74 271.66 177.17 271.9 176.73 272.37C176.29 272.84 176.07 273.45 176.07 274.17C176.07 274.89 176.29 275.5 176.73 275.97C177.17 276.44 177.74 276.68 178.44 276.68C179.16 276.68 179.73 276.44 180.16 275.95C180.59 275.47 180.81 274.87 180.81 274.16C180.81 273.45 180.59 272.85 180.16 272.37C179.73 271.9 179.16 271.66 178.44 271.66Z" fill="#E3E3E4"/>
<path d="M185.95 270.58C186.59 270.22 187.32 270.04 188.12 270.04C188.92 270.04 189.64 270.22 190.29 270.58C190.94 270.94 191.44 271.43 191.81 272.06C192.18 272.69 192.36 273.4 192.36 274.17C192.36 274.94 192.18 275.65 191.81 276.28C191.44 276.91 190.94 277.41 190.29 277.76C189.65 278.12 188.92 278.3 188.12 278.3C187.32 278.3 186.6 278.12 185.95 277.76C185.3 277.4 184.8 276.9 184.44 276.27C184.08 275.64 183.9 274.94 183.9 274.16C183.9 273.38 184.08 272.68 184.44 272.05C184.8 271.44 185.3 270.95 185.95 270.58ZM189.88 272.36C189.41 271.89 188.82 271.65 188.12 271.65C187.42 271.65 186.83 271.89 186.36 272.36C185.89 272.83 185.66 273.43 185.66 274.17C185.66 274.91 185.89 275.51 186.36 275.98C186.83 276.45 187.41 276.69 188.12 276.69C188.83 276.69 189.41 276.46 189.88 275.98C190.35 275.51 190.59 274.91 190.59 274.17C190.59 273.43 190.35 272.83 189.88 272.36Z" fill="#E3E3E4"/>
<path d="M195.72 270.58C196.36 270.22 197.09 270.04 197.89 270.04C198.69 270.04 199.41 270.22 200.06 270.58C200.71 270.94 201.21 271.43 201.58 272.06C201.95 272.69 202.13 273.4 202.13 274.17C202.13 274.94 201.95 275.65 201.58 276.28C201.21 276.91 200.71 277.41 200.06 277.76C199.42 278.12 198.69 278.3 197.89 278.3C197.09 278.3 196.37 278.12 195.72 277.76C195.07 277.4 194.57 276.9 194.21 276.27C193.85 275.64 193.67 274.94 193.67 274.16C193.67 273.38 193.85 272.68 194.21 272.05C194.57 271.44 195.07 270.95 195.72 270.58ZM199.64 272.36C199.17 271.89 198.58 271.65 197.88 271.65C197.18 271.65 196.59 271.89 196.12 272.36C195.65 272.83 195.42 273.43 195.42 274.17C195.42 274.91 195.65 275.51 196.12 275.98C196.59 276.45 197.17 276.69 197.88 276.69C198.59 276.69 199.17 276.46 199.64 275.98C200.11 275.51 200.35 274.91 200.35 274.17C200.35 273.43 200.11 272.83 199.64 272.36Z" fill="#E3E3E4"/>
<path d="M205.71 266.29V273.23H206.57L209.16 270.24H211.32L208.03 273.94L211.35 278.1H209.18L206.56 274.79H205.71V278.1H203.99V266.29H205.71Z" fill="#E3E3E4"/>
<path d="M221.63 270.25V271.81H218.94V278.11H217.22V271.81H215.65V270.25H217.22V268.92C217.22 268.08 217.44 267.4 217.88 266.88C218.32 266.35 218.98 266.09 219.85 266.09C220.64 266.09 221.37 266.29 222.04 266.68L221.43 268.12C220.94 267.84 220.45 267.7 219.96 267.7C219.63 267.7 219.37 267.81 219.2 268.02C219.03 268.23 218.94 268.53 218.94 268.92V270.25H221.63Z" fill="#E3E3E4"/>
<path d="M224.51 270.58C225.16 270.22 225.88 270.04 226.68 270.04C227.48 270.04 228.2 270.22 228.85 270.58C229.5 270.94 230 271.43 230.37 272.06C230.74 272.69 230.92 273.4 230.92 274.17C230.92 274.94 230.74 275.65 230.37 276.28C230 276.91 229.5 277.41 228.85 277.76C228.2 278.11 227.48 278.3 226.68 278.3C225.88 278.3 225.16 278.12 224.51 277.76C223.87 277.4 223.36 276.9 223 276.27C222.64 275.64 222.45 274.94 222.45 274.16C222.45 273.38 222.63 272.68 223 272.05C223.36 271.44 223.86 270.95 224.51 270.58ZM228.43 272.36C227.96 271.89 227.37 271.65 226.67 271.65C225.96 271.65 225.38 271.89 224.91 272.36C224.44 272.83 224.21 273.43 224.21 274.17C224.21 274.91 224.44 275.51 224.91 275.98C225.38 276.45 225.96 276.69 226.67 276.69C227.38 276.69 227.96 276.46 228.43 275.98C228.9 275.51 229.14 274.91 229.14 274.17C229.14 273.43 228.9 272.83 228.43 272.36Z" fill="#E3E3E4"/>
<path d="M236.76 270.04C237.27 270.04 237.71 270.11 238.08 270.26L237.67 271.96C237.3 271.77 236.87 271.67 236.37 271.67C235.81 271.67 235.36 271.86 235.02 272.23C234.68 272.6 234.5 273.12 234.5 273.78V278.1H232.79V270.24H234.49V271.13C234.98 270.41 235.74 270.04 236.76 270.04Z" fill="#E3E3E4"/>
<path d="M31.34 288.41C32.45 288.41 33.38 288.8 34.14 289.58C34.89 290.36 35.27 291.35 35.27 292.54C35.27 293.73 34.89 294.72 34.14 295.5C33.39 296.28 32.45 296.67 31.34 296.67C30.3 296.67 29.48 296.29 28.88 295.53V296.46H27.17V284.65H28.88V289.54C29.48 288.79 30.3 288.41 31.34 288.41ZM31.13 290.03C30.43 290.03 29.86 290.27 29.42 290.74C28.98 291.21 28.76 291.82 28.76 292.54C28.76 293.26 28.98 293.87 29.42 294.34C29.86 294.81 30.43 295.05 31.13 295.05C31.85 295.05 32.42 294.81 32.85 294.32C33.28 293.84 33.5 293.24 33.5 292.53C33.5 291.82 33.28 291.22 32.85 290.74C32.43 290.27 31.85 290.03 31.13 290.03Z" fill="#E3E3E4"/>
<path d="M44.35 288.62V293.15C44.35 293.75 44.25 294.28 44.04 294.75C43.83 295.22 43.56 295.58 43.21 295.86C42.86 296.14 42.48 296.34 42.05 296.48C41.62 296.62 41.18 296.69 40.7 296.69C40.22 296.69 39.77 296.62 39.35 296.48C38.93 296.34 38.54 296.14 38.19 295.86C37.84 295.58 37.56 295.21 37.36 294.75C37.16 294.29 37.06 293.75 37.06 293.15V288.62H38.78V292.99C38.78 293.71 38.96 294.23 39.31 294.57C39.66 294.9 40.12 295.07 40.7 295.07C41.28 295.07 41.74 294.9 42.09 294.57C42.44 294.24 42.61 293.71 42.61 292.99V288.62H44.35Z" fill="#E3E3E4"/>
<path d="M52.8 289.25L52.06 290.59C51.78 290.41 51.42 290.26 50.97 290.12C50.52 289.98 50.08 289.91 49.63 289.91C49.17 289.91 48.81 289.99 48.54 290.16C48.27 290.33 48.14 290.56 48.14 290.84C48.14 290.97 48.17 291.09 48.23 291.18C48.29 291.27 48.39 291.35 48.52 291.41C48.65 291.47 48.78 291.52 48.92 291.55C49.06 291.58 49.23 291.62 49.43 291.65L50.24 291.77C52.06 292.03 52.97 292.81 52.97 294.09C52.97 294.86 52.65 295.48 52.02 295.95C51.39 296.42 50.51 296.66 49.4 296.66C48.06 296.66 46.94 296.32 46.03 295.65L46.83 294.36C47.53 294.9 48.39 295.16 49.42 295.16C50 295.16 50.44 295.08 50.75 294.91C51.06 294.74 51.21 294.5 51.21 294.2C51.21 293.75 50.76 293.46 49.85 293.33L49.03 293.22C48.16 293.1 47.5 292.84 47.04 292.45C46.59 292.06 46.36 291.55 46.36 290.91C46.36 290.13 46.65 289.52 47.23 289.07C47.81 288.62 48.6 288.39 49.61 288.39C50.88 288.42 51.94 288.7 52.8 289.25Z" fill="#E3E3E4"/>
<path d="M54.76 285.04C54.99 284.8 55.27 284.69 55.61 284.69C55.95 284.69 56.24 284.81 56.47 285.04C56.7 285.27 56.82 285.56 56.82 285.9C56.82 286.24 56.7 286.52 56.47 286.75C56.24 286.98 55.95 287.09 55.61 287.09C55.27 287.09 54.99 286.97 54.76 286.75C54.53 286.53 54.42 286.24 54.42 285.9C54.42 285.56 54.53 285.28 54.76 285.04ZM56.48 288.62V296.48H54.76V288.62H56.48Z" fill="#E3E3E4"/>
<path d="M63.04 288.41C63.97 288.41 64.74 288.7 65.34 289.28C65.94 289.86 66.23 290.61 66.23 291.53V296.47H64.51V292.1C64.51 291.44 64.35 290.94 64.03 290.58C63.71 290.22 63.26 290.04 62.68 290.04C62.1 290.04 61.62 290.22 61.23 290.59C60.84 290.96 60.65 291.47 60.65 292.11V296.47H58.93V288.61H60.64V289.57C61.16 288.8 61.96 288.41 63.04 288.41Z" fill="#E3E3E4"/>
<path d="M71.94 288.41C73.04 288.41 73.93 288.79 74.62 289.55C75.31 290.31 75.65 291.31 75.66 292.53C75.66 292.69 75.65 292.91 75.63 293.17H69.82C69.93 293.84 70.2 294.34 70.62 294.67C71.04 295 71.56 295.17 72.15 295.17C72.97 295.17 73.73 294.89 74.42 294.34L75.27 295.56C74.41 296.3 73.33 296.67 72.04 296.67C70.85 296.67 69.89 296.29 69.14 295.53C68.39 294.77 68.02 293.77 68.02 292.54C68.02 291.31 68.38 290.31 69.11 289.55C69.84 288.79 70.78 288.41 71.94 288.41ZM71.91 289.94C71.32 289.94 70.85 290.11 70.49 290.46C70.14 290.81 69.91 291.28 69.82 291.88H73.9C73.81 291.27 73.59 290.79 73.24 290.45C72.89 290.11 72.45 289.94 71.91 289.94Z" fill="#E3E3E4"/>
<path d="M83.62 289.25L82.88 290.59C82.6 290.41 82.24 290.26 81.79 290.12C81.34 289.98 80.9 289.91 80.45 289.91C79.99 289.91 79.63 289.99 79.36 290.16C79.09 290.33 78.96 290.56 78.96 290.84C78.96 290.97 78.99 291.09 79.05 291.18C79.11 291.27 79.21 291.35 79.34 291.41C79.47 291.47 79.6 291.52 79.74 291.55C79.88 291.58 80.05 291.62 80.25 291.65L81.06 291.77C82.88 292.03 83.79 292.81 83.79 294.09C83.79 294.86 83.47 295.48 82.84 295.95C82.21 296.42 81.33 296.66 80.22 296.66C78.88 296.66 77.76 296.32 76.85 295.65L77.65 294.36C78.35 294.9 79.21 295.16 80.24 295.16C80.82 295.16 81.26 295.08 81.57 294.91C81.88 294.74 82.03 294.5 82.03 294.2C82.03 293.75 81.58 293.46 80.67 293.33L79.85 293.22C78.98 293.1 78.32 292.84 77.86 292.45C77.41 292.06 77.18 291.55 77.18 290.91C77.18 290.13 77.47 289.52 78.05 289.07C78.63 288.62 79.42 288.39 80.43 288.39C81.71 288.42 82.77 288.7 83.62 289.25Z" fill="#E3E3E4"/>
<path d="M91.67 289.25L90.93 290.59C90.65 290.41 90.29 290.26 89.84 290.12C89.39 289.98 88.95 289.91 88.5 289.91C88.04 289.91 87.68 289.99 87.41 290.16C87.15 290.33 87.01 290.56 87.01 290.84C87.01 290.97 87.04 291.09 87.1 291.18C87.16 291.28 87.26 291.35 87.39 291.41C87.52 291.47 87.65 291.52 87.79 291.55C87.93 291.58 88.1 291.62 88.3 291.65L89.11 291.77C90.93 292.03 91.84 292.81 91.84 294.09C91.84 294.86 91.52 295.48 90.89 295.95C90.26 296.42 89.38 296.66 88.27 296.66C86.93 296.66 85.81 296.32 84.9 295.65L85.7 294.36C86.4 294.9 87.26 295.16 88.29 295.16C88.87 295.16 89.31 295.08 89.62 294.91C89.93 294.74 90.08 294.5 90.08 294.2C90.08 293.75 89.63 293.46 88.72 293.33L87.9 293.22C87.03 293.1 86.37 292.84 85.92 292.45C85.47 292.06 85.24 291.55 85.24 290.91C85.24 290.13 85.53 289.52 86.11 289.07C86.69 288.62 87.48 288.39 88.48 288.39C89.75 288.42 90.81 288.7 91.67 289.25Z" fill="#E3E3E4"/>
<path d="M96.97 288.41C98.07 288.41 98.96 288.79 99.65 289.55C100.34 290.31 100.68 291.31 100.69 292.53C100.69 292.69 100.68 292.91 100.66 293.17H94.85C94.96 293.84 95.23 294.34 95.65 294.67C96.08 295 96.59 295.17 97.18 295.17C98 295.17 98.76 294.89 99.45 294.34L100.3 295.56C99.44 296.3 98.36 296.67 97.07 296.67C95.88 296.67 94.92 296.29 94.17 295.53C93.42 294.77 93.05 293.77 93.05 292.54C93.05 291.31 93.41 290.31 94.14 289.55C94.87 288.79 95.81 288.41 96.97 288.41ZM96.94 289.94C96.35 289.94 95.88 290.11 95.53 290.46C95.18 290.81 94.95 291.28 94.86 291.88H98.94C98.85 291.27 98.63 290.79 98.28 290.45C97.93 290.11 97.48 289.94 96.94 289.94Z" fill="#E3E3E4"/>
<path d="M108.65 289.25L107.91 290.59C107.63 290.41 107.27 290.26 106.82 290.12C106.37 289.98 105.93 289.91 105.48 289.91C105.02 289.91 104.66 289.99 104.39 290.16C104.13 290.33 103.99 290.56 103.99 290.84C103.99 290.97 104.02 291.09 104.08 291.18C104.14 291.28 104.24 291.35 104.37 291.41C104.5 291.47 104.63 291.52 104.77 291.55C104.91 291.58 105.08 291.62 105.28 291.65L106.09 291.77C107.91 292.03 108.82 292.81 108.82 294.09C108.82 294.86 108.5 295.48 107.87 295.95C107.24 296.42 106.36 296.66 105.25 296.66C103.91 296.66 102.79 296.32 101.88 295.65L102.68 294.36C103.38 294.9 104.24 295.16 105.27 295.16C105.85 295.16 106.29 295.08 106.6 294.91C106.91 294.74 107.06 294.5 107.06 294.2C107.06 293.75 106.61 293.46 105.7 293.33L104.88 293.22C104.01 293.1 103.35 292.84 102.9 292.45C102.45 292.06 102.22 291.55 102.22 290.91C102.22 290.13 102.51 289.52 103.09 289.07C103.67 288.62 104.46 288.39 105.46 288.39C106.74 288.42 107.8 288.7 108.65 289.25Z" fill="#E3E3E4"/>
<path d="M125.13 296.48H122.65L121.22 295.12C120.25 296.16 119.1 296.69 117.75 296.69C116.67 296.69 115.83 296.42 115.21 295.89C114.59 295.36 114.29 294.61 114.29 293.66C114.29 293.33 114.34 293.01 114.45 292.7C114.56 292.39 114.71 292.11 114.91 291.84C115.11 291.58 115.32 291.34 115.55 291.12C115.77 290.91 116.03 290.69 116.33 290.46C115.77 289.91 115.37 289.42 115.14 289C114.9 288.58 114.78 288.09 114.78 287.54C114.78 286.75 115.07 286.1 115.66 285.58C116.25 285.06 117.01 284.8 117.95 284.8C118.89 284.8 119.65 285.05 120.23 285.54C120.81 286.03 121.1 286.68 121.1 287.49C121.1 287.8 121.04 288.09 120.93 288.38C120.82 288.67 120.65 288.94 120.43 289.2C120.21 289.46 119.98 289.68 119.76 289.88C119.54 290.08 119.26 290.3 118.93 290.54L121.05 292.58L122.63 290.13L124.02 291L122.57 293.27C122.55 293.31 122.44 293.47 122.26 293.75L125.13 296.48ZM117.86 295.06C118.3 295.06 118.69 294.97 119.04 294.8C119.38 294.62 119.71 294.35 120.04 293.98L117.51 291.57C117.07 291.92 116.74 292.26 116.5 292.57C116.26 292.89 116.15 293.23 116.15 293.59C116.15 294.03 116.31 294.38 116.63 294.65C116.94 294.93 117.35 295.06 117.86 295.06ZM116.64 287.64C116.64 287.91 116.72 288.16 116.87 288.39C117.02 288.62 117.33 288.95 117.79 289.4C118.28 289.04 118.66 288.73 118.91 288.44C119.17 288.16 119.29 287.86 119.29 287.55C119.29 287.18 119.17 286.9 118.94 286.7C118.71 286.5 118.38 286.4 117.96 286.4C117.54 286.4 117.22 286.51 116.99 286.72C116.76 286.93 116.64 287.25 116.64 287.64Z" fill="#E3E3E4"/>
<path d="M134.83 288.41C135.94 288.41 136.87 288.8 137.63 289.58C138.38 290.36 138.76 291.35 138.76 292.54C138.76 293.73 138.38 294.72 137.63 295.5C136.88 296.28 135.94 296.67 134.83 296.67C133.79 296.67 132.97 296.29 132.37 295.53V299.75H130.66V288.61H132.37V289.54C132.97 288.79 133.79 288.41 134.83 288.41ZM134.63 290.03C133.93 290.03 133.36 290.27 132.92 290.74C132.48 291.21 132.26 291.82 132.26 292.54C132.26 293.26 132.48 293.87 132.92 294.34C133.36 294.81 133.93 295.05 134.63 295.05C135.35 295.05 135.92 294.81 136.35 294.32C136.78 293.84 137 293.24 137 292.53C137 291.82 136.78 291.22 136.35 290.74C135.92 290.27 135.34 290.03 134.63 290.03Z" fill="#E3E3E4"/>
<path d="M143.99 288.41C145.09 288.41 145.98 288.79 146.67 289.55C147.36 290.31 147.7 291.31 147.71 292.53C147.71 292.69 147.7 292.91 147.68 293.17H141.87C141.98 293.84 142.25 294.34 142.67 294.67C143.1 295 143.61 295.17 144.2 295.17C145.02 295.17 145.78 294.89 146.47 294.34L147.32 295.56C146.46 296.3 145.38 296.67 144.09 296.67C142.9 296.67 141.94 296.29 141.19 295.53C140.44 294.77 140.07 293.77 140.07 292.54C140.07 291.31 140.43 290.31 141.16 289.55C141.88 288.79 142.83 288.41 143.99 288.41ZM143.95 289.94C143.36 289.94 142.89 290.11 142.54 290.46C142.19 290.81 141.96 291.28 141.87 291.88H145.95C145.86 291.27 145.64 290.79 145.29 290.45C144.94 290.11 144.49 289.94 143.95 289.94Z" fill="#E3E3E4"/>
<path d="M153.56 288.41C154.07 288.41 154.51 288.48 154.88 288.63L154.47 290.33C154.1 290.14 153.67 290.04 153.17 290.04C152.61 290.04 152.16 290.23 151.82 290.6C151.48 290.97 151.3 291.49 151.3 292.15V296.47H149.59V288.61H151.29V289.5C151.78 288.78 152.54 288.41 153.56 288.41Z" fill="#E3E3E4"/>
<path d="M162.3 289.25L161.56 290.59C161.28 290.41 160.92 290.26 160.47 290.12C160.02 289.98 159.58 289.91 159.13 289.91C158.67 289.91 158.31 289.99 158.04 290.16C157.77 290.33 157.64 290.56 157.64 290.84C157.64 290.97 157.67 291.09 157.73 291.18C157.79 291.27 157.89 291.35 158.02 291.41C158.15 291.47 158.28 291.52 158.42 291.55C158.56 291.58 158.73 291.62 158.93 291.65L159.74 291.77C161.56 292.03 162.47 292.81 162.47 294.09C162.47 294.86 162.15 295.48 161.52 295.95C160.89 296.42 160.01 296.66 158.9 296.66C157.56 296.66 156.44 296.32 155.53 295.65L156.33 294.36C157.03 294.9 157.89 295.16 158.92 295.16C159.5 295.16 159.94 295.08 160.25 294.91C160.56 294.74 160.71 294.5 160.71 294.2C160.71 293.75 160.26 293.46 159.35 293.33L158.53 293.22C157.66 293.1 157 292.84 156.54 292.45C156.09 292.06 155.86 291.55 155.86 290.91C155.86 290.13 156.15 289.52 156.73 289.07C157.31 288.62 158.1 288.39 159.11 288.39C160.39 288.42 161.45 288.7 162.3 289.25Z" fill="#E3E3E4"/>
<path d="M165.75 288.95C166.39 288.59 167.12 288.41 167.92 288.41C168.72 288.41 169.44 288.59 170.09 288.95C170.74 289.31 171.24 289.8 171.61 290.43C171.98 291.06 172.16 291.77 172.16 292.54C172.16 293.31 171.98 294.02 171.61 294.65C171.24 295.28 170.74 295.78 170.09 296.13C169.45 296.49 168.72 296.67 167.92 296.67C167.12 296.67 166.4 296.49 165.75 296.13C165.1 295.77 164.6 295.27 164.24 294.64C163.88 294.01 163.7 293.31 163.7 292.53C163.7 291.75 163.88 291.05 164.24 290.42C164.6 289.81 165.11 289.32 165.75 288.95ZM169.68 290.73C169.21 290.26 168.62 290.02 167.92 290.02C167.22 290.02 166.63 290.26 166.16 290.73C165.69 291.2 165.46 291.8 165.46 292.54C165.46 293.28 165.69 293.88 166.16 294.35C166.63 294.82 167.21 295.06 167.92 295.06C168.63 295.06 169.21 294.83 169.68 294.35C170.15 293.88 170.39 293.28 170.39 292.54C170.39 291.8 170.15 291.2 169.68 290.73Z" fill="#E3E3E4"/>
<path d="M178.15 288.41C179.09 288.41 179.85 288.7 180.45 289.28C181.05 289.86 181.34 290.61 181.34 291.53V296.47H179.62V292.1C179.62 291.44 179.46 290.94 179.14 290.58C178.82 290.22 178.37 290.04 177.79 290.04C177.21 290.04 176.73 290.22 176.34 290.59C175.95 290.96 175.76 291.47 175.76 292.11V296.47H174.04V288.61H175.75V289.57C176.27 288.8 177.07 288.41 178.15 288.41Z" fill="#E3E3E4"/>
<path d="M191.25 288.62V296.48H189.54V295.54C188.94 296.31 188.12 296.69 187.07 296.69C185.96 296.69 185.03 296.3 184.27 295.52C183.52 294.74 183.14 293.75 183.14 292.56C183.14 291.37 183.52 290.38 184.27 289.6C185.02 288.82 185.96 288.43 187.07 288.43C188.12 288.43 188.94 288.82 189.54 289.59V288.64H191.25V288.62ZM187.27 290.03C186.55 290.03 185.98 290.27 185.55 290.76C185.12 291.24 184.9 291.84 184.9 292.55C184.9 293.26 185.12 293.86 185.55 294.34C185.98 294.82 186.56 295.07 187.27 295.07C187.97 295.07 188.54 294.83 188.98 294.36C189.42 293.89 189.64 293.28 189.64 292.56C189.64 291.84 189.42 291.23 188.98 290.76C188.54 290.29 187.97 290.03 187.27 290.03Z" fill="#E3E3E4"/>
<path d="M195.41 284.66V296.47H193.69V284.66H195.41Z" fill="#E3E3E4"/>
<path d="M206.21 288.41C207.32 288.41 208.25 288.8 209.01 289.58C209.76 290.36 210.14 291.35 210.14 292.54C210.14 293.73 209.76 294.72 209.01 295.5C208.26 296.28 207.32 296.67 206.21 296.67C205.17 296.67 204.35 296.29 203.75 295.53V296.46H202.04V284.65H203.75V289.54C204.35 288.79 205.17 288.41 206.21 288.41ZM206.01 290.03C205.31 290.03 204.74 290.27 204.3 290.74C203.86 291.21 203.64 291.82 203.64 292.54C203.64 293.26 203.86 293.87 204.3 294.34C204.74 294.81 205.31 295.05 206.01 295.05C206.73 295.05 207.3 294.81 207.73 294.32C208.16 293.84 208.38 293.24 208.38 292.53C208.38 291.82 208.16 291.22 207.73 290.74C207.3 290.27 206.73 290.03 206.01 290.03Z" fill="#E3E3E4"/>
<path d="M216 288.41C216.51 288.41 216.95 288.48 217.32 288.63L216.91 290.33C216.54 290.14 216.11 290.04 215.61 290.04C215.05 290.04 214.6 290.23 214.26 290.6C213.92 290.97 213.74 291.49 213.74 292.15V296.47H212.03V288.61H213.73V289.5C214.22 288.78 214.98 288.41 216 288.41Z" fill="#E3E3E4"/>
<path d="M226.04 288.62V296.48H224.33V295.54C223.73 296.31 222.91 296.69 221.86 296.69C220.75 296.69 219.82 296.3 219.06 295.52C218.31 294.74 217.93 293.75 217.93 292.56C217.93 291.37 218.31 290.38 219.06 289.6C219.81 288.82 220.75 288.43 221.86 288.43C222.91 288.43 223.73 288.82 224.33 289.59V288.64H226.04V288.62ZM222.06 290.03C221.34 290.03 220.77 290.27 220.34 290.76C219.91 291.24 219.69 291.84 219.69 292.55C219.69 293.26 219.91 293.86 220.34 294.34C220.77 294.82 221.35 295.07 222.06 295.07C222.76 295.07 223.33 294.83 223.77 294.36C224.21 293.89 224.43 293.28 224.43 292.56C224.43 291.84 224.21 291.23 223.77 290.76C223.33 290.29 222.76 290.03 222.06 290.03Z" fill="#E3E3E4"/>
<path d="M232.6 288.41C233.54 288.41 234.3 288.7 234.9 289.28C235.5 289.86 235.79 290.61 235.79 291.53V296.47H234.07V292.1C234.07 291.44 233.91 290.94 233.59 290.58C233.27 290.22 232.82 290.04 232.24 290.04C231.66 290.04 231.18 290.22 230.79 290.59C230.4 290.96 230.21 291.47 230.21 292.11V296.47H228.49V288.61H230.2V289.57C230.72 288.8 231.52 288.41 232.6 288.41Z" fill="#E3E3E4"/>
<path d="M241.52 288.41C242.57 288.41 243.39 288.8 243.99 289.57V284.66H245.7V296.47H243.99V295.53C243.39 296.3 242.57 296.68 241.52 296.68C240.41 296.68 239.48 296.29 238.72 295.51C237.97 294.73 237.59 293.74 237.59 292.55C237.59 291.36 237.97 290.37 238.72 289.59C239.47 288.8 240.41 288.41 241.52 288.41ZM241.72 290.03C241 290.03 240.43 290.27 240 290.76C239.57 291.24 239.35 291.84 239.35 292.55C239.35 293.26 239.57 293.86 240 294.34C240.43 294.82 241.01 295.07 241.72 295.07C242.42 295.07 242.99 294.83 243.43 294.36C243.87 293.88 244.09 293.28 244.09 292.56C244.09 291.84 243.87 291.23 243.43 290.76C242.99 290.27 242.42 290.03 241.72 290.03Z" fill="#E3E3E4"/>
<path d="M254.23 289.25L253.49 290.59C253.21 290.41 252.85 290.26 252.4 290.12C251.95 289.98 251.51 289.91 251.06 289.91C250.6 289.91 250.24 289.99 249.97 290.16C249.71 290.33 249.57 290.56 249.57 290.84C249.57 290.97 249.6 291.09 249.66 291.18C249.72 291.28 249.82 291.35 249.95 291.41C250.08 291.47 250.21 291.52 250.35 291.55C250.49 291.58 250.66 291.62 250.86 291.65L251.67 291.77C253.49 292.03 254.4 292.81 254.4 294.09C254.4 294.86 254.08 295.48 253.45 295.95C252.82 296.42 251.94 296.66 250.83 296.66C249.49 296.66 248.37 296.32 247.46 295.65L248.26 294.36C248.96 294.9 249.82 295.16 250.85 295.16C251.43 295.16 251.87 295.08 252.18 294.91C252.49 294.74 252.64 294.5 252.64 294.2C252.64 293.75 252.19 293.46 251.28 293.33L250.46 293.22C249.59 293.1 248.93 292.84 248.48 292.45C248.03 292.06 247.8 291.55 247.8 290.91C247.8 290.13 248.09 289.52 248.67 289.07C249.25 288.62 250.04 288.39 251.04 288.39C252.31 288.42 253.38 288.7 254.23 289.25Z" fill="#E3E3E4"/>
<path d="M256.01 294.24C256.3 293.96 256.63 293.81 257.01 293.81C257.39 293.81 257.73 293.95 258.01 294.24C258.29 294.52 258.44 294.86 258.44 295.24C258.44 295.63 258.3 295.97 258.01 296.25C257.72 296.54 257.39 296.68 257.01 296.68C256.63 296.68 256.29 296.54 256.01 296.25C255.73 295.96 255.58 295.62 255.58 295.24C255.58 294.86 255.73 294.52 256.01 294.24Z" fill="#E3E3E4"/>
<path opacity="0.5" d="M210.34 368.98H74.57C64.1 368.98 55.62 360.49 55.62 350.03C55.62 339.56 64.11 331.08 74.57 331.08H210.33C220.8 331.08 229.28 339.57 229.28 350.03C229.29 360.5 220.81 368.98 210.34 368.98Z" fill="#5B3F91"/>
<path d="M114.26 351.28H111.34V355.75H110.06V344.65H114.26C115.5 344.65 116.47 344.94 117.15 345.53C117.83 346.12 118.18 346.93 118.18 347.97C118.18 349.01 117.84 349.83 117.15 350.41C116.46 350.99 115.51 351.28 114.26 351.28ZM114.22 345.85H111.34V350.09H114.22C115.08 350.09 115.74 349.91 116.19 349.56C116.64 349.21 116.86 348.68 116.86 347.97C116.86 347.27 116.64 346.74 116.19 346.38C115.74 346.03 115.09 345.85 114.22 345.85Z" fill="white"/>
<path d="M123.5 348.09C124.63 348.09 125.57 348.46 126.33 349.21C127.08 349.96 127.46 350.88 127.46 351.99C127.46 353.11 127.08 354.04 126.33 354.78C125.58 355.53 124.63 355.9 123.5 355.9C122.37 355.9 121.43 355.53 120.68 354.78C119.93 354.03 119.55 353.1 119.55 351.99C119.55 350.88 119.93 349.95 120.68 349.21C121.44 348.46 122.38 348.09 123.5 348.09ZM125.46 349.99C124.94 349.46 124.28 349.2 123.5 349.2C122.72 349.2 122.06 349.46 121.54 349.99C121.02 350.52 120.75 351.18 120.75 351.99C120.75 352.8 121.01 353.47 121.54 354C122.06 354.53 122.72 354.79 123.5 354.79C124.28 354.79 124.94 354.53 125.46 354C125.98 353.47 126.25 352.8 126.25 351.99C126.25 351.18 125.99 350.52 125.46 349.99Z" fill="white"/>
<path d="M133.07 348.09C133.62 348.09 134.08 348.17 134.45 348.34L134.16 349.51C133.79 349.31 133.36 349.21 132.86 349.21C132.27 349.21 131.78 349.42 131.41 349.85C131.03 350.28 130.85 350.84 130.85 351.55V355.75H129.67V348.24H130.84V349.29C131.1 348.9 131.42 348.61 131.8 348.4C132.19 348.19 132.61 348.09 133.07 348.09Z" fill="white"/>
<path d="M141.51 348.24V349.31H138.27V353.1C138.27 353.67 138.4 354.09 138.67 354.37C138.94 354.65 139.3 354.79 139.76 354.79C140.33 354.79 140.85 354.61 141.34 354.26L141.9 355.16C141.24 355.66 140.5 355.91 139.67 355.91C138.84 355.91 138.21 355.68 137.76 355.22C137.31 354.76 137.09 354.06 137.09 353.14V349.32H135.45V348.25H137.09V345.86H138.27V348.25H141.51V348.24Z" fill="white"/>
<path d="M148.44 348.24V349.31H145.45V355.75H144.26V349.31H142.55V348.24H144.26V346.95C144.26 346.1 144.46 345.42 144.87 344.92C145.28 344.42 145.91 344.17 146.76 344.17C147.52 344.17 148.2 344.36 148.81 344.73L148.38 345.72C147.88 345.42 147.36 345.28 146.83 345.28C145.9 345.28 145.44 345.84 145.44 346.95V348.24H148.44Z" fill="white"/>
<path d="M153.41 348.09C154.54 348.09 155.48 348.46 156.24 349.21C156.99 349.96 157.37 350.88 157.37 351.99C157.37 353.11 156.99 354.04 156.24 354.78C155.49 355.53 154.54 355.9 153.41 355.9C152.28 355.9 151.34 355.53 150.59 354.78C149.84 354.03 149.46 353.1 149.46 351.99C149.46 350.88 149.84 349.95 150.59 349.21C151.35 348.46 152.29 348.09 153.41 348.09ZM155.37 349.99C154.85 349.46 154.19 349.2 153.41 349.2C152.63 349.2 151.97 349.46 151.45 349.99C150.93 350.52 150.66 351.18 150.66 351.99C150.66 352.8 150.92 353.47 151.45 354C151.97 354.53 152.63 354.79 153.41 354.79C154.19 354.79 154.85 354.53 155.37 354C155.89 353.47 156.16 352.8 156.16 351.99C156.16 351.18 155.9 350.52 155.37 349.99Z" fill="white"/>
<path d="M160.77 344.33V355.75H159.58V344.33H160.77Z" fill="white"/>
<path d="M164.14 344.73C164.37 344.73 164.57 344.81 164.73 344.97C164.89 345.13 164.98 345.33 164.98 345.57C164.98 345.81 164.9 346.01 164.74 346.16C164.58 346.32 164.38 346.4 164.14 346.4C163.9 346.4 163.7 346.32 163.55 346.16C163.39 346 163.31 345.8 163.31 345.57C163.31 345.33 163.39 345.13 163.55 344.97C163.7 344.81 163.9 344.73 164.14 344.73ZM164.73 348.24V355.75H163.54V348.24H164.73Z" fill="white"/>
<path d="M170.89 348.09C172.02 348.09 172.96 348.46 173.72 349.21C174.47 349.96 174.85 350.88 174.85 351.99C174.85 353.11 174.47 354.04 173.72 354.78C172.97 355.53 172.02 355.9 170.89 355.9C169.76 355.9 168.82 355.53 168.07 354.78C167.32 354.03 166.94 353.1 166.94 351.99C166.94 350.88 167.32 349.95 168.07 349.21C168.82 348.46 169.76 348.09 170.89 348.09ZM172.85 349.99C172.33 349.46 171.67 349.2 170.89 349.2C170.11 349.2 169.45 349.46 168.93 349.99C168.41 350.52 168.14 351.18 168.14 351.99C168.14 352.8 168.4 353.47 168.93 354C169.45 354.53 170.11 354.79 170.89 354.79C171.67 354.79 172.33 354.53 172.85 354C173.37 353.47 173.64 352.8 173.64 351.99C173.63 351.18 173.37 350.52 172.85 349.99Z" fill="white"/>
<path d="M175.64 69.51C171.63 69.51 168.37 72.76 168.37 76.78C168.37 80.79 171.62 84.05 175.64 84.05C179.65 84.05 182.91 80.8 182.91 76.78C182.91 72.76 179.65 69.51 175.64 69.51Z" fill="white"/>
<path d="M143.34 78.83C126.51 78.83 112.82 92.52 112.82 109.35C112.82 126.18 126.51 139.87 143.34 139.87C160.17 139.87 173.86 126.18 173.86 109.35C173.86 92.52 160.17 78.83 143.34 78.83ZM143.34 128.9C132.56 128.9 123.79 120.13 123.79 109.35C123.79 98.57 132.56 89.8 143.34 89.8C154.12 89.8 162.89 98.57 162.89 109.35C162.89 120.13 154.12 128.9 143.34 128.9Z" fill="white"/>
<path d="M167.57 171.31H118.09C97.56 171.31 80.86 154.61 80.86 134.08V84.61C80.86 64.08 97.56 47.38 118.09 47.38H167.57C188.1 47.38 204.8 64.08 204.8 84.61V134.09C204.8 154.61 188.1 171.31 167.57 171.31ZM118.09 59.04C103.99 59.04 92.52 70.51 92.52 84.61V134.09C92.52 148.19 103.99 159.66 118.09 159.66H167.57C181.67 159.66 193.14 148.19 193.14 134.09V84.61C193.14 70.51 181.67 59.04 167.57 59.04H118.09Z" fill="white"/>
</g>
<defs>
<linearGradient id="paint0_linear_9_3225" x1="249.353" y1="2.82354" x2="36.3092" y2="215.868" gradientUnits="userSpaceOnUse">
<stop offset="0.0011048" stop-color="#FFE185"/>
<stop offset="0.2094" stop-color="#FFBB36"/>
<stop offset="0.3765" stop-color="#FF5176"/>
<stop offset="0.5238" stop-color="#F63395"/>
<stop offset="0.7394" stop-color="#A436D2"/>
<stop offset="1" stop-color="#5F4EED"/>
</linearGradient>
<clipPath id="clip0_9_3225">
<rect width="285.61" height="393.25" fill="white"/>
</clipPath>
</defs>
</svg>
