<svg width="292" height="179" viewBox="0 0 292 179" fill="none" xmlns="http://www.w3.org/2000/svg">
<g clip-path="url(#clip0_9_4685)">
<path d="M276.53 178.91H15.16C6.79 178.91 0 172.12 0 163.74V15.16C0 6.79 6.79 0 15.16 0H276.53C284.9 0 291.69 6.79 291.69 15.16V163.74C291.69 172.12 284.91 178.91 276.53 178.91Z" fill="#EDF6FF"/>
<path d="M102.85 62.9799C106.55 62.9799 109.68 64.0699 112.24 66.2599C114.8 68.4399 116.08 71.4599 116.08 75.2999C116.08 79.1099 114.77 82.1099 112.16 84.3199C109.55 86.5199 106.37 87.6199 102.64 87.6199C99.65 87.6199 96.98 86.8999 94.63 85.4599C92.28 84.0199 90.63 81.9399 89.7 79.2199L94.12 76.6999C94.64 78.5999 95.65 80.0499 97.14 81.0399C98.63 82.0299 100.46 82.5199 102.63 82.5199C105.09 82.5199 107.09 81.8899 108.62 80.6199C110.15 79.3499 110.92 77.5799 110.92 75.2999C110.92 73.0199 110.15 71.2399 108.62 69.9499C107.09 68.6599 105.13 68.0199 102.74 68.0199H91.67L93.07 47.6899H114.57V52.5599H97.83L97.14 62.9799H102.85Z" fill="#393F57"/>
<path d="M132.14 62.9799C135.84 62.9799 138.97 64.0699 141.53 66.2599C144.09 68.4399 145.37 71.4599 145.37 75.2999C145.37 79.1099 144.06 82.1099 141.45 84.3199C138.84 86.5199 135.66 87.6199 131.93 87.6199C128.94 87.6199 126.27 86.8999 123.92 85.4599C121.57 84.0199 119.92 81.9399 118.99 79.2199L123.41 76.6999C123.93 78.5999 124.94 80.0499 126.43 81.0399C127.92 82.0299 129.75 82.5199 131.92 82.5199C134.38 82.5199 136.38 81.8899 137.91 80.6199C139.44 79.3499 140.21 77.5799 140.21 75.2999C140.21 73.0199 139.44 71.2399 137.91 69.9499C136.38 68.6599 134.42 68.0199 132.03 68.0199H120.94L122.34 47.6899H143.84V52.5599H127.1L126.41 62.9799H132.14Z" fill="#393F57"/>
<path d="M174.83 86.8899H168.78L156.01 73.6299V86.8899H151.14V47.6899H156.01V71.2199L168.11 58.8899H174.38L161 72.4399L174.83 86.8899Z" fill="#393F57"/>
<path d="M200.76 64.94V69.59H191.02V79.33H186.37V69.59H176.68V64.94H186.37V55.25H191.02V64.94H200.76Z" fill="#393F57"/>
<path d="M114.06 123.48H108.24V127.74H113.81V129.39H108.24V134.96H106.49V121.82H114.05V123.48H114.06Z" fill="#393F57"/>
<path d="M123.93 133.78C122.97 134.73 121.8 135.21 120.42 135.21C119.04 135.21 117.88 134.73 116.92 133.78C115.96 132.83 115.48 131.66 115.48 130.27C115.48 128.88 115.96 127.71 116.92 126.76C117.88 125.81 119.04 125.33 120.42 125.33C121.8 125.33 122.97 125.81 123.93 126.76C124.89 127.71 125.38 128.88 125.38 130.27C125.38 131.66 124.89 132.83 123.93 133.78ZM120.42 133.61C121.36 133.61 122.15 133.29 122.79 132.65C123.43 132.01 123.75 131.22 123.75 130.27C123.75 129.32 123.43 128.52 122.79 127.89C122.15 127.25 121.36 126.93 120.42 126.93C119.49 126.93 118.71 127.25 118.07 127.89C117.43 128.53 117.11 129.32 117.11 130.27C117.11 131.22 117.43 132.02 118.07 132.65C118.71 133.29 119.49 133.61 120.42 133.61Z" fill="#393F57"/>
<path d="M127.31 134.96V121.26H128.94V134.96H127.31Z" fill="#393F57"/>
<path d="M131.44 134.96V121.26H133.07V134.96H131.44Z" fill="#393F57"/>
<path d="M143.49 133.78C142.53 134.73 141.36 135.21 139.98 135.21C138.6 135.21 137.44 134.73 136.48 133.78C135.52 132.83 135.04 131.66 135.04 130.27C135.04 128.88 135.52 127.71 136.48 126.76C137.44 125.81 138.6 125.33 139.98 125.33C141.36 125.33 142.53 125.81 143.49 126.76C144.45 127.71 144.94 128.88 144.94 130.27C144.94 131.66 144.45 132.83 143.49 133.78ZM139.98 133.61C140.92 133.61 141.71 133.29 142.35 132.65C142.99 132.01 143.31 131.22 143.31 130.27C143.31 129.32 142.99 128.52 142.35 127.89C141.71 127.25 140.92 126.93 139.98 126.93C139.05 126.93 138.27 127.25 137.63 127.89C136.99 128.53 136.67 129.32 136.67 130.27C136.67 131.22 136.99 132.02 137.63 132.65C138.27 133.29 139.05 133.61 139.98 133.61Z" fill="#393F57"/>
<path d="M157.54 125.58H159.07L156.34 134.96H154.67L152.43 127.92L150.2 134.96H148.45L145.69 125.58H147.4L149.46 132.71L151.67 125.58H153.28L155.49 132.71L157.54 125.58Z" fill="#393F57"/>
<path d="M161.71 131.02C161.87 131.86 162.26 132.51 162.86 132.97C163.47 133.43 164.21 133.66 165.1 133.66C166.34 133.66 167.24 133.2 167.8 132.29L169.19 133.08C168.28 134.49 166.9 135.2 165.06 135.2C163.57 135.2 162.36 134.73 161.43 133.8C160.5 132.87 160.03 131.69 160.03 130.26C160.03 128.85 160.49 127.67 161.4 126.73C162.31 125.79 163.5 125.32 164.95 125.32C166.33 125.32 167.45 125.8 168.32 126.77C169.19 127.74 169.62 128.91 169.62 130.27C169.62 130.51 169.6 130.75 169.56 131H161.71V131.02ZM164.96 126.87C164.08 126.87 163.36 127.12 162.78 127.61C162.2 128.1 161.85 128.76 161.71 129.59H167.98C167.84 128.7 167.49 128.03 166.93 127.56C166.36 127.1 165.71 126.87 164.96 126.87Z" fill="#393F57"/>
<path d="M173.14 127.15C173.68 125.99 174.65 125.4 176.07 125.4V127.11C175.27 127.07 174.58 127.29 174.01 127.75C173.43 128.21 173.15 128.96 173.15 129.98V134.95H171.52V125.57H173.15V127.15H173.14Z" fill="#393F57"/>
<path d="M178.71 128.08C178.71 128.44 178.89 128.72 179.26 128.93C179.63 129.14 180.07 129.33 180.58 129.48C181.09 129.63 181.6 129.78 182.12 129.93C182.64 130.08 183.07 130.37 183.43 130.78C183.79 131.2 183.97 131.73 183.97 132.38C183.97 133.23 183.64 133.91 182.98 134.43C182.32 134.94 181.48 135.2 180.46 135.2C179.55 135.2 178.76 135 178.11 134.6C177.46 134.2 177 133.67 176.72 133L178.13 132.19C178.28 132.64 178.56 133 178.97 133.26C179.38 133.52 179.88 133.65 180.45 133.65C180.99 133.65 181.43 133.55 181.78 133.34C182.13 133.13 182.31 132.81 182.31 132.38C182.31 132.02 182.13 131.73 181.77 131.51C181.41 131.29 180.97 131.11 180.46 130.95C179.95 130.79 179.44 130.64 178.92 130.49C178.4 130.33 177.96 130.06 177.6 129.66C177.24 129.26 177.06 128.75 177.06 128.12C177.06 127.31 177.38 126.64 178.01 126.11C178.64 125.58 179.43 125.32 180.38 125.32C181.14 125.32 181.82 125.49 182.42 125.84C183.01 126.18 183.46 126.66 183.76 127.28L182.39 128.05C182.05 127.25 181.38 126.85 180.38 126.85C179.92 126.85 179.52 126.96 179.2 127.17C178.88 127.39 178.71 127.69 178.71 128.08Z" fill="#393F57"/>
</g>
<defs>
<clipPath id="clip0_9_4685">
<rect width="291.69" height="178.91" fill="white"/>
</clipPath>
</defs>
</svg>
