<svg width="292" height="179" viewBox="0 0 292 179" fill="none" xmlns="http://www.w3.org/2000/svg">
<rect width="292" height="179" rx="6.34783" fill="#343434"/>
<path d="M57.1196 91.5486L42.5704 97.6933V103.432L51.6097 99.5469V127.655H57.1196V91.5486ZM69.6915 127.655H76.4202L86.6529 112.268C88.735 109.17 89.8522 106.428 89.8522 103.305C89.8522 96.5507 84.3169 91.4979 76.9534 91.4979C69.5646 91.4979 64.0546 96.5507 64.0546 103.305C64.0546 110.059 69.4884 115.112 75.9886 115.112C77.182 115.112 78.0453 114.959 78.7308 114.756L69.6915 127.655ZM76.9534 110.008C72.84 110.008 69.7423 107.266 69.7423 103.305C69.7423 99.3438 72.84 96.6015 76.9534 96.6015C81.0414 96.6015 84.1646 99.3184 84.1646 103.305C84.1646 107.266 81.0414 110.008 76.9534 110.008ZM96.4004 119.403C94.039 119.403 91.9569 121.434 91.9569 123.821C91.9569 126.208 94.039 128.29 96.4004 128.29C98.7618 128.29 100.818 126.208 100.818 123.821C100.818 121.434 98.7618 119.403 96.4004 119.403ZM119.26 91.4979C112.252 91.4979 106.564 95.2812 106.564 101.654C106.564 105.768 108.951 108.307 112.024 109.729C108.52 111.1 105.727 113.664 105.727 118.006C105.727 124.456 111.795 128.264 119.26 128.264C126.725 128.264 132.794 124.456 132.794 118.006C132.794 113.664 129.975 111.1 126.497 109.729C129.569 108.307 131.956 105.768 131.956 101.654C131.956 95.2812 126.268 91.4979 119.26 91.4979ZM119.26 112.192C123.45 112.192 126.928 114.096 126.928 117.702C126.928 121.282 123.45 123.161 119.26 123.161C115.045 123.161 111.567 121.282 111.567 117.702C111.567 114.096 115.045 112.192 119.26 112.192ZM119.26 96.6269C123.043 96.6269 126.141 98.4805 126.141 101.934C126.141 105.514 123.043 107.367 119.26 107.367C115.477 107.367 112.404 105.514 112.404 101.934C112.404 98.4805 115.477 96.6269 119.26 96.6269ZM163.529 127.655H171.325L154.236 109.45L170.233 92.1073H162.819L149.463 107.063H145.959V92.1073H140.22V127.655H145.959V112.496H149.387L163.529 127.655Z" fill="white"/>
<path d="M51.7564 51.6484H44.8341V48.0872H52.1944V46.0496H42.6822V59.38H44.8341V53.686H51.7564V51.6484ZM58.8066 50.0202C55.9882 50.0202 53.9029 52.0864 53.9029 54.8191C53.9029 57.5519 55.9882 59.6181 58.8066 59.6181C61.6251 59.6181 63.7199 57.5519 63.7199 54.8191C63.7199 52.0864 61.6251 50.0202 58.8066 50.0202ZM58.8066 51.8959C60.4349 51.8959 61.6727 53.0957 61.6727 54.8191C61.6727 56.5426 60.4349 57.7423 58.8066 57.7423C57.1784 57.7423 55.9501 56.5426 55.9501 54.8191C55.9501 53.0957 57.1784 51.8959 58.8066 51.8959ZM68.1827 45.6687H66.1832V59.38H68.1827V45.6687ZM73.2969 45.6687H71.2974V59.38H73.2969V45.6687ZM80.6583 50.0202C77.8399 50.0202 75.7546 52.0864 75.7546 54.8191C75.7546 57.5519 77.8399 59.6181 80.6583 59.6181C83.4767 59.6181 85.5715 57.5519 85.5715 54.8191C85.5715 52.0864 83.4767 50.0202 80.6583 50.0202ZM80.6583 51.8959C82.2865 51.8959 83.5243 53.0957 83.5243 54.8191C83.5243 56.5426 82.2865 57.7423 80.6583 57.7423C79.0301 57.7423 77.8018 56.5426 77.8018 54.8191C77.8018 53.0957 79.0301 51.8959 80.6583 51.8959ZM95.576 50.2582H93.3194L91.0723 57.19L88.9299 50.2582H86.8065L89.8249 59.38H92.1673L94.4239 52.5053L96.6806 59.38H99.061L102.079 50.2582H100.004L97.8517 57.2281L95.576 50.2582ZM107.857 50.0202C105.172 50.0202 103.316 51.9626 103.316 54.8191C103.316 57.7137 105.248 59.6181 107.981 59.6181C109.362 59.6181 110.619 59.2848 111.733 58.3326L110.743 56.9139C109.99 57.5138 109.019 57.8756 108.105 57.8756C106.81 57.8756 105.658 57.19 105.391 55.5523H112.133C112.152 55.3238 112.171 55.0667 112.171 54.8096C112.161 51.9626 110.409 50.0202 107.857 50.0202ZM107.819 51.7912C109.086 51.7912 109.914 52.6196 110.133 54.0383H105.401C105.61 52.7053 106.401 51.7912 107.819 51.7912ZM119.247 50.0202C118.133 50.0202 117.2 50.4201 116.6 51.2866V50.2582H114.629V59.38H116.619V54.3621C116.619 52.81 117.523 51.915 118.79 51.915C119.275 51.915 119.885 52.0293 120.304 52.2483L120.78 50.2773C120.323 50.0963 119.856 50.0202 119.247 50.0202ZM129.691 50.9914C128.748 50.382 127.424 50.0297 125.996 50.0297C123.673 50.0297 122.226 51.1437 122.226 52.9529C122.226 54.4192 123.302 55.3523 125.32 55.6285L126.272 55.7523C127.358 55.9046 127.853 56.2474 127.853 56.7616C127.853 57.4471 127.139 57.8756 125.777 57.8756C124.292 57.8756 123.425 57.4471 122.768 56.9425L121.845 58.4374C123.178 59.4276 124.816 59.6086 125.758 59.6086C128.386 59.6086 129.91 58.3803 129.91 56.6283C129.91 55.0667 128.729 54.2193 126.739 53.9336L125.796 53.7908C124.958 53.667 124.292 53.4861 124.292 52.8481C124.292 52.2006 124.93 51.7626 126.015 51.7626C127.148 51.7626 128.281 52.2006 128.834 52.5434L129.691 50.9914Z" fill="white"/>
<line x1="40.7852" y1="73.3417" x2="249.073" y2="73.3417" stroke="white" stroke-width="0.991848"/>
</svg>
