<svg width="252" height="329" viewBox="0 0 252 329" fill="none" xmlns="http://www.w3.org/2000/svg">
<g clip-path="url(#clip0_9_2136)">
<path d="M239.06 328.67H12.47C5.58 328.67 0 323.08 0 316.2V12.47C0 5.58 5.58 0 12.47 0H239.06C245.95 0 251.53 5.58 251.53 12.47V316.2C251.54 323.08 245.95 328.67 239.06 328.67Z" fill="#FFEFFE"/>
<path d="M171.34 305.76H80.19C73.15 305.76 67.44 300.05 67.44 293.01C67.44 285.97 73.15 280.26 80.19 280.26H171.34C178.38 280.26 184.09 285.97 184.09 293.01C184.09 300.05 178.38 305.76 171.34 305.76Z" fill="#4D328C"/>
<path d="M79.86 43.47H0V20.68H70.76C77.29 20.68 82.59 25.97 82.59 32.51V40.75C82.59 42.25 81.37 43.47 79.86 43.47Z" fill="#4D328C"/>
<path d="M25.35 104.49H24.77V97.6499L21.92 102.38H21.82L18.97 97.6499V104.49H18.39V96.7899H19.12L21.87 101.34L24.62 96.7899H25.36V104.49H25.35Z" fill="#4D328C"/>
<path d="M32.33 98.99V104.49H31.77V103.25C31.31 104.08 30.46 104.61 29.4 104.61C27.84 104.61 26.55 103.37 26.55 101.74C26.55 100.11 27.84 98.87 29.4 98.87C30.46 98.87 31.3 99.41 31.77 100.23V98.99H32.33ZM31.77 101.74C31.77 100.43 30.76 99.4 29.45 99.4C28.14 99.4 27.12 100.43 27.12 101.74C27.12 103.05 28.14 104.08 29.45 104.08C30.76 104.09 31.77 103.05 31.77 101.74Z" fill="#4D328C"/>
<path d="M36.19 98.9199V99.4499C35.24 99.4499 34.35 100.03 34.35 101.44V104.5H33.8V98.9999H34.35V100.08C34.73 99.1999 35.45 98.9199 36.19 98.9199Z" fill="#4D328C"/>
<path d="M40.55 104.49L37.63 101.78V104.49H37.08V96.7899H37.63V101.49L40.41 98.9899H41.18L38.22 101.63L41.29 104.49H40.55Z" fill="#4D328C"/>
<path d="M46.82 101.77C46.82 101.86 46.81 101.95 46.81 102.03H41.83C41.96 103.27 42.91 104.09 44.16 104.09C45.06 104.09 45.74 103.67 46.06 103.09L46.54 103.38C46.09 104.13 45.23 104.62 44.14 104.62C42.45 104.62 41.25 103.41 41.25 101.75C41.25 100.13 42.42 98.8799 44.1 98.8799C45.77 98.8699 46.82 100.26 46.82 101.77ZM41.82 101.49H46.24C46.12 100.15 45.17 99.3999 44.09 99.3999C42.85 99.3999 41.94 100.27 41.82 101.49Z" fill="#4D328C"/>
<path d="M48.9 99.5299V103.11C48.9 104.08 49.42 104.1 50.54 104V104.5C49.1 104.72 48.34 104.37 48.34 103.11V99.5299H47.13V98.9899H48.34V97.6099L48.9 97.4399V98.9799H50.54V99.5199H48.9V99.5299Z" fill="#4D328C"/>
<path d="M51.47 97.2199C51.47 96.9899 51.67 96.7899 51.91 96.7899C52.15 96.7899 52.35 96.9899 52.35 97.2199C52.35 97.4599 52.15 97.6599 51.91 97.6599C51.67 97.6599 51.47 97.4599 51.47 97.2199ZM51.64 98.9899H52.19V104.49H51.64V98.9899Z" fill="#4D328C"/>
<path d="M58.31 101.07V104.49H57.75V101.07C57.75 100.06 57.17 99.4 56.13 99.4C55.05 99.4 54.2 100.1 54.2 101.59V104.49H53.65V98.99H54.2V100.03C54.62 99.22 55.32 98.86 56.17 98.86C57.49 98.87 58.31 99.74 58.31 101.07Z" fill="#4D328C"/>
<path d="M65.08 98.99V104.23C65.08 105.88 63.86 106.81 62.34 106.81C61.05 106.81 60.14 106.29 59.74 105.49L60.22 105.22C60.51 105.8 61.12 106.29 62.33 106.29C63.71 106.29 64.52 105.49 64.52 104.23V103.22C64.07 104.07 63.22 104.62 62.15 104.62C60.58 104.62 59.3 103.38 59.3 101.75C59.3 100.12 60.58 98.88 62.15 98.88C63.22 98.88 64.06 99.43 64.52 100.28V99H65.08V98.99ZM64.53 101.74C64.53 100.43 63.51 99.4 62.2 99.4C60.89 99.4 59.87 100.43 59.87 101.74C59.87 103.05 60.89 104.08 62.2 104.08C63.51 104.08 64.53 103.05 64.53 101.74Z" fill="#4D328C"/>
<path d="M74.81 104.58L73.92 103.65C73.4 104.24 72.64 104.62 71.62 104.62C70.1 104.62 69.11 103.78 69.11 102.45C69.11 101.49 69.64 100.65 70.64 100.2C70.29 99.7899 70.02 99.3399 70.02 98.6899C70.02 97.4199 71.05 96.6699 72.2 96.6699C73.17 96.6699 74.01 97.2099 74.35 98.1199L73.87 98.4099C73.64 97.6799 73 97.2299 72.22 97.2299C71.31 97.2299 70.62 97.8199 70.62 98.6699C70.62 99.2999 70.98 99.7399 71.46 100.22L73.87 102.74C74.09 102.33 74.26 101.82 74.33 101.21L74.85 101.51C74.75 102.12 74.56 102.69 74.28 103.17L75.34 104.28L74.81 104.58ZM73.53 103.23L71.05 100.63C70.08 100.99 69.71 101.73 69.71 102.43C69.71 103.44 70.45 104.05 71.6 104.05C72.38 104.05 73.04 103.78 73.53 103.23Z" fill="#4D328C"/>
<path d="M84.51 102.39C84.51 103.56 83.57 104.49 82.41 104.49H79.09V96.7899H82.16C83.28 96.7899 84.18 97.6999 84.18 98.8099C84.18 99.5599 83.78 100.17 83.19 100.49C83.96 100.8 84.51 101.51 84.51 102.39ZM79.66 97.3399V100.29H82.15C82.94 100.29 83.59 99.6299 83.59 98.8199C83.59 98.0099 82.94 97.3499 82.15 97.3499H79.66V97.3399ZM83.92 102.39C83.92 101.53 83.24 100.84 82.4 100.84H79.66V103.94H82.4C83.24 103.94 83.92 103.25 83.92 102.39Z" fill="#4D328C"/>
<path d="M87.99 98.9199V99.4499C87.04 99.4499 86.15 100.03 86.15 101.44V104.5H85.6V98.9999H86.15V100.08C86.53 99.1999 87.24 98.9199 87.99 98.9199Z" fill="#4D328C"/>
<path d="M93.95 98.99V104.49H93.39V103.25C92.93 104.08 92.08 104.61 91.02 104.61C89.46 104.61 88.17 103.37 88.17 101.74C88.17 100.11 89.46 98.87 91.02 98.87C92.08 98.87 92.92 99.41 93.39 100.23V98.99H93.95ZM93.39 101.74C93.39 100.43 92.38 99.4 91.07 99.4C89.76 99.4 88.74 100.43 88.74 101.74C88.74 103.05 89.76 104.08 91.07 104.08C92.38 104.09 93.39 103.05 93.39 101.74Z" fill="#4D328C"/>
<path d="M100.08 101.07V104.49H99.52V101.07C99.52 100.06 98.94 99.4 97.9 99.4C96.82 99.4 95.97 100.1 95.97 101.59V104.49H95.42V98.99H95.97V100.03C96.39 99.22 97.09 98.86 97.94 98.86C99.26 98.87 100.08 99.74 100.08 101.07Z" fill="#4D328C"/>
<path d="M106.81 96.7899V104.49H106.26V103.21C105.81 104.06 104.96 104.61 103.89 104.61C102.32 104.61 101.04 103.37 101.04 101.74C101.04 100.11 102.32 98.8699 103.89 98.8699C104.96 98.8699 105.8 99.4199 106.26 100.27V96.7899H106.81ZM106.26 101.74C106.26 100.43 105.24 99.3999 103.93 99.3999C102.62 99.3999 101.6 100.43 101.6 101.74C101.6 103.05 102.62 104.08 103.93 104.08C105.24 104.09 106.26 103.05 106.26 101.74Z" fill="#4D328C"/>
<path d="M115.55 102.54H111.69L110.94 104.5H110.32L113.31 96.7999H113.93L116.91 104.5H116.29L115.55 102.54ZM115.34 101.99L113.62 97.5099L111.9 101.99H115.34Z" fill="#4D328C"/>
<path d="M117.22 101.74C117.22 100.11 118.45 98.87 120.11 98.87C121.19 98.87 122.11 99.42 122.51 100.28L122.06 100.54C121.74 99.85 120.99 99.4 120.11 99.4C118.78 99.4 117.78 100.43 117.78 101.74C117.78 103.05 118.78 104.08 120.11 104.08C121 104.08 121.73 103.62 122.09 102.94L122.55 103.21C122.11 104.06 121.19 104.61 120.11 104.61C118.45 104.62 117.22 103.37 117.22 101.74Z" fill="#4D328C"/>
<path d="M124.72 99.5299V103.11C124.72 104.08 125.24 104.1 126.36 104V104.5C124.92 104.72 124.16 104.37 124.16 103.11V99.5299H122.95V98.9899H124.16V97.6099L124.72 97.4399V98.9799H126.36V99.5199H124.72V99.5299Z" fill="#4D328C"/>
<path d="M127.29 97.2199C127.29 96.9899 127.49 96.7899 127.73 96.7899C127.97 96.7899 128.17 96.9899 128.17 97.2199C128.17 97.4599 127.97 97.6599 127.73 97.6599C127.49 97.6599 127.29 97.4599 127.29 97.2199ZM127.46 98.9899H128.01V104.49H127.46V98.9899Z" fill="#4D328C"/>
<path d="M134.1 98.99L131.78 104.49H131.11L128.78 98.99H129.37L131.44 103.92L133.52 98.99H134.1Z" fill="#4D328C"/>
<path d="M140.07 98.99V104.49H139.51V103.25C139.05 104.08 138.2 104.61 137.14 104.61C135.58 104.61 134.29 103.37 134.29 101.74C134.29 100.11 135.58 98.87 137.14 98.87C138.2 98.87 139.04 99.41 139.51 100.23V98.99H140.07ZM139.5 101.74C139.5 100.43 138.49 99.4 137.18 99.4C135.87 99.4 134.85 100.43 134.85 101.74C134.85 103.05 135.87 104.08 137.18 104.08C138.49 104.09 139.5 103.05 139.5 101.74Z" fill="#4D328C"/>
<path d="M142.72 99.5299V103.11C142.72 104.08 143.24 104.1 144.36 104V104.5C142.92 104.72 142.16 104.37 142.16 103.11V99.5299H140.95V98.9899H142.16V97.6099L142.72 97.4399V98.9799H144.36V99.5199H142.72V99.5299Z" fill="#4D328C"/>
<path d="M145.29 97.2199C145.29 96.9899 145.49 96.7899 145.73 96.7899C145.97 96.7899 146.17 96.9899 146.17 97.2199C146.17 97.4599 145.97 97.6599 145.73 97.6599C145.49 97.6599 145.29 97.4599 145.29 97.2199ZM145.45 98.9899H146V104.49H145.45V98.9899Z" fill="#4D328C"/>
<path d="M147.1 101.74C147.1 100.11 148.39 98.87 149.99 98.87C151.59 98.87 152.87 100.11 152.87 101.74C152.87 103.37 151.58 104.61 149.99 104.61C148.39 104.62 147.1 103.37 147.1 101.74ZM152.32 101.74C152.32 100.43 151.31 99.4 150 99.4C148.69 99.4 147.67 100.43 147.67 101.74C147.67 103.05 148.69 104.08 150 104.08C151.31 104.09 152.32 103.05 152.32 101.74Z" fill="#4D328C"/>
<path d="M158.63 101.07V104.49H158.07V101.07C158.07 100.06 157.49 99.4 156.45 99.4C155.37 99.4 154.52 100.1 154.52 101.59V104.49H153.97V98.99H154.52V100.03C154.94 99.22 155.64 98.86 156.49 98.86C157.81 98.87 158.63 99.74 158.63 101.07Z" fill="#4D328C"/>
<path d="M162.35 100.64C162.35 98.4399 164.01 96.6699 166.35 96.6699C167.77 96.6699 169.01 97.3999 169.65 98.5199L169.13 98.8199C168.62 97.8699 167.56 97.2399 166.35 97.2399C164.33 97.2399 162.93 98.7599 162.93 100.65C162.93 102.54 164.33 104.06 166.35 104.06C167.57 104.06 168.65 103.41 169.16 102.44L169.68 102.74C169.05 103.87 167.8 104.62 166.36 104.62C164.01 104.62 162.35 102.84 162.35 100.64Z" fill="#4D328C"/>
<path d="M170.29 101.74C170.29 100.11 171.58 98.87 173.18 98.87C174.78 98.87 176.06 100.11 176.06 101.74C176.06 103.37 174.77 104.61 173.18 104.61C171.58 104.62 170.29 103.37 170.29 101.74ZM175.51 101.74C175.51 100.43 174.5 99.4 173.19 99.4C171.88 99.4 170.86 100.43 170.86 101.74C170.86 103.05 171.88 104.08 173.19 104.08C174.5 104.09 175.51 103.05 175.51 101.74Z" fill="#4D328C"/>
<path d="M181.82 101.07V104.49H181.26V101.07C181.26 100.06 180.68 99.4 179.64 99.4C178.56 99.4 177.71 100.1 177.71 101.59V104.49H177.16V98.99H177.71V100.03C178.13 99.22 178.83 98.86 179.68 98.86C181 98.87 181.82 99.74 181.82 101.07Z" fill="#4D328C"/>
<path d="M186.86 103.05C186.86 103.95 186.07 104.61 184.89 104.61C183.79 104.61 183.06 104.09 182.8 103.39L183.27 103.12C183.47 103.71 184.06 104.09 184.89 104.09C185.66 104.09 186.31 103.75 186.31 103.06C186.31 101.56 182.98 102.42 182.98 100.44C182.98 99.57 183.73 98.88 184.85 98.88C185.74 98.88 186.42 99.31 186.72 99.98L186.26 100.24C186.03 99.67 185.46 99.4 184.85 99.4C184.13 99.4 183.53 99.77 183.53 100.43C183.53 101.91 186.86 101.04 186.86 103.05Z" fill="#4D328C"/>
<path d="M192.43 98.99V104.49H191.88V103.45C191.46 104.26 190.76 104.62 189.91 104.62C188.6 104.62 187.78 103.75 187.78 102.42V99H188.34V102.42C188.34 103.43 188.92 104.09 189.96 104.09C191.04 104.09 191.89 103.39 191.89 101.9V99H192.43V98.99Z" fill="#4D328C"/>
<path d="M193.9 96.46H194.45V104.49H193.9V96.46Z" fill="#4D328C"/>
<path d="M197.1 99.5299V103.11C197.1 104.08 197.62 104.1 198.74 104V104.5C197.3 104.72 196.54 104.37 196.54 103.11V99.5299H195.33V98.9899H196.54V97.6099L197.1 97.4399V98.9799H198.74V99.5199H197.1V99.5299Z" fill="#4D328C"/>
<path d="M204.91 98.99V104.49H204.35V103.25C203.89 104.08 203.04 104.61 201.98 104.61C200.42 104.61 199.13 103.37 199.13 101.74C199.13 100.11 200.42 98.87 201.98 98.87C203.04 98.87 203.88 99.41 204.35 100.23V98.99H204.91ZM204.35 101.74C204.35 100.43 203.34 99.4 202.03 99.4C200.72 99.4 199.7 100.43 199.7 101.74C199.7 103.05 200.72 104.08 202.03 104.08C203.34 104.09 204.35 103.05 204.35 101.74Z" fill="#4D328C"/>
<path d="M211.04 101.07V104.49H210.48V101.07C210.48 100.06 209.9 99.4 208.86 99.4C207.78 99.4 206.93 100.1 206.93 101.59V104.49H206.38V98.99H206.93V100.03C207.35 99.22 208.05 98.86 208.9 98.86C210.21 98.87 211.04 99.74 211.04 101.07Z" fill="#4D328C"/>
<path d="M213.54 99.5299V103.11C213.54 104.08 214.06 104.1 215.18 104V104.5C213.74 104.72 212.98 104.37 212.98 103.11V99.5299H211.77V98.9899H212.98V97.6099L213.54 97.4399V98.9799H215.18V99.5199H213.54V99.5299Z" fill="#4D328C"/>
<path d="M219.96 98.6999V99H221.6V99.54H219.96V104.5H219.4V99.54H218.45V99H219.4V98.6999C219.4 97.3499 220.16 96.57 221.6 96.68V97.2099C220.47 97.1099 219.96 97.6299 219.96 98.6999Z" fill="#4D328C"/>
<path d="M221.49 101.74C221.49 100.11 222.78 98.87 224.38 98.87C225.98 98.87 227.26 100.11 227.26 101.74C227.26 103.37 225.97 104.61 224.38 104.61C222.77 104.62 221.49 103.37 221.49 101.74ZM226.7 101.74C226.7 100.43 225.69 99.4 224.38 99.4C223.07 99.4 222.05 100.43 222.05 101.74C222.05 103.05 223.07 104.08 224.38 104.08C225.69 104.09 226.7 103.05 226.7 101.74Z" fill="#4D328C"/>
<path d="M230.75 98.9199V99.4499C229.8 99.4499 228.91 100.03 228.91 101.44V104.5H228.36V98.9999H228.91V100.08C229.29 99.1999 230 98.9199 230.75 98.9199Z" fill="#4D328C"/>
<path d="M23.68 114.99V120.49H23.12V119.25C22.66 120.08 21.81 120.61 20.75 120.61C19.19 120.61 17.9 119.37 17.9 117.74C17.9 116.11 19.19 114.87 20.75 114.87C21.81 114.87 22.65 115.41 23.12 116.23V114.99H23.68ZM23.12 117.74C23.12 116.43 22.11 115.4 20.8 115.4C19.49 115.4 18.47 116.43 18.47 117.74C18.47 119.05 19.49 120.08 20.8 120.08C22.1 120.09 23.12 119.05 23.12 117.74Z" fill="#4D328C"/>
<path d="M25.15 112.46H25.7V120.49H25.15V112.46Z" fill="#4D328C"/>
<path d="M27.17 112.46H27.72V120.49H27.17V112.46Z" fill="#4D328C"/>
<path d="M36.53 114.99L34.16 121C33.74 122.06 32.93 122.77 31.98 122.69V122.17C32.72 122.24 33.28 121.69 33.62 120.88L33.74 120.58L31.21 114.98H31.8L34.02 119.88L35.93 114.98H36.53V114.99Z" fill="#4D328C"/>
<path d="M36.71 117.74C36.71 116.11 38 114.87 39.6 114.87C41.2 114.87 42.48 116.11 42.48 117.74C42.48 119.37 41.19 120.61 39.6 120.61C38 120.62 36.71 119.37 36.71 117.74ZM41.92 117.74C41.92 116.43 40.91 115.4 39.6 115.4C38.29 115.4 37.27 116.43 37.27 117.74C37.27 119.05 38.29 120.08 39.6 120.08C40.91 120.09 41.92 119.05 41.92 117.74Z" fill="#4D328C"/>
<path d="M48.1 114.99V120.49H47.55V119.45C47.13 120.26 46.43 120.62 45.58 120.62C44.27 120.62 43.45 119.75 43.45 118.42V115H44V118.42C44 119.43 44.58 120.09 45.62 120.09C46.7 120.09 47.55 119.39 47.55 117.9V115H48.1V114.99Z" fill="#4D328C"/>
<path d="M51.96 114.92V115.45C51.01 115.45 50.12 116.03 50.12 117.44V120.5H49.57V115H50.12V116.08C50.49 115.2 51.21 114.92 51.96 114.92Z" fill="#4D328C"/>
<path d="M61.33 117.74C61.33 119.37 60.05 120.61 58.48 120.61C57.41 120.61 56.57 120.06 56.11 119.21V120.49H55.56V112.79H56.11V116.27C56.56 115.42 57.41 114.87 58.48 114.87C60.05 114.87 61.33 116.12 61.33 117.74ZM60.78 117.74C60.78 116.43 59.76 115.4 58.45 115.4C57.14 115.4 56.12 116.43 56.12 117.74C56.12 119.05 57.14 120.08 58.45 120.08C59.76 120.08 60.78 119.05 60.78 117.74Z" fill="#4D328C"/>
<path d="M64.83 114.92V115.45C63.88 115.45 62.99 116.03 62.99 117.44V120.5H62.44V115H62.99V116.08C63.36 115.2 64.08 114.92 64.83 114.92Z" fill="#4D328C"/>
<path d="M70.79 114.99V120.49H70.23V119.25C69.77 120.08 68.92 120.61 67.86 120.61C66.3 120.61 65.01 119.37 65.01 117.74C65.01 116.11 66.3 114.87 67.86 114.87C68.92 114.87 69.76 115.41 70.23 116.23V114.99H70.79ZM70.23 117.74C70.23 116.43 69.22 115.4 67.91 115.4C66.6 115.4 65.58 116.43 65.58 117.74C65.58 119.05 66.6 120.08 67.91 120.08C69.22 120.09 70.23 119.05 70.23 117.74Z" fill="#4D328C"/>
<path d="M76.92 117.07V120.49H76.36V117.07C76.36 116.06 75.78 115.4 74.74 115.4C73.66 115.4 72.81 116.1 72.81 117.59V120.49H72.26V114.99H72.81V116.03C73.23 115.22 73.93 114.86 74.78 114.86C76.09 114.87 76.92 115.74 76.92 117.07Z" fill="#4D328C"/>
<path d="M83.65 112.79V120.49H83.1V119.21C82.65 120.06 81.8 120.61 80.73 120.61C79.16 120.61 77.88 119.37 77.88 117.74C77.88 116.11 79.16 114.87 80.73 114.87C81.8 114.87 82.64 115.42 83.1 116.27V112.79H83.65ZM83.1 117.74C83.1 116.43 82.08 115.4 80.77 115.4C79.46 115.4 78.44 116.43 78.44 117.74C78.44 119.05 79.46 120.08 80.77 120.08C82.07 120.09 83.1 119.05 83.1 117.74Z" fill="#4D328C"/>
<path d="M88.83 119.05C88.83 119.95 88.04 120.61 86.86 120.61C85.76 120.61 85.03 120.09 84.77 119.39L85.24 119.12C85.44 119.71 86.03 120.09 86.86 120.09C87.63 120.09 88.28 119.75 88.28 119.06C88.28 117.56 84.95 118.42 84.95 116.44C84.95 115.57 85.7 114.88 86.82 114.88C87.71 114.88 88.39 115.31 88.69 115.98L88.23 116.24C88 115.67 87.43 115.4 86.82 115.4C86.1 115.4 85.5 115.77 85.5 116.43C85.49 117.91 88.83 117.04 88.83 119.05Z" fill="#4D328C"/>
<path d="M89.81 120.11C89.81 119.83 90.03 119.61 90.3 119.61C90.58 119.61 90.8 119.83 90.8 120.11C90.8 120.38 90.58 120.61 90.3 120.61C90.03 120.6 89.81 120.38 89.81 120.11ZM89.97 114.99V112.79H90.63V114.99L90.52 118.51H90.08L89.97 114.99Z" fill="#4D328C"/>
<path d="M23.55 142.37C23.55 144.11 22.32 145.52 20.58 145.52H18.21V139.22H20.58C22.32 139.22 23.55 140.63 23.55 142.37ZM23.08 142.37C23.08 140.88 22.06 139.67 20.58 139.67H18.69V145.07H20.58C22.06 145.07 23.08 143.87 23.08 142.37Z" fill="#4D328C"/>
<path d="M24.36 143.27C24.36 141.94 25.41 140.92 26.73 140.92C28.04 140.92 29.09 141.94 29.09 143.27C29.09 144.6 28.04 145.62 26.73 145.62C25.41 145.62 24.36 144.6 24.36 143.27ZM28.62 143.27C28.62 142.2 27.79 141.35 26.72 141.35C25.65 141.35 24.81 142.2 24.81 143.27C24.81 144.34 25.65 145.19 26.72 145.19C27.79 145.19 28.62 144.34 28.62 143.27Z" fill="#4D328C"/>
<path d="M36.58 141.02L34.64 145.94C34.3 146.8 33.63 147.39 32.86 147.33V146.91C33.46 146.96 33.92 146.51 34.2 145.86L34.3 145.62L32.23 141.04H32.72L34.54 145.05L36.11 141.04H36.58V141.02Z" fill="#4D328C"/>
<path d="M37.02 143.27C37.02 141.94 38.07 140.92 39.39 140.92C40.7 140.92 41.75 141.94 41.75 143.27C41.75 144.6 40.7 145.62 39.39 145.62C38.07 145.62 37.02 144.6 37.02 143.27ZM41.29 143.27C41.29 142.2 40.46 141.35 39.39 141.35C38.32 141.35 37.48 142.2 37.48 143.27C37.48 144.34 38.32 145.19 39.39 145.19C40.46 145.19 41.29 144.34 41.29 143.27Z" fill="#4D328C"/>
<path d="M46.63 141.02V145.52H46.18V144.66C45.84 145.33 45.26 145.61 44.57 145.61C43.5 145.61 42.82 144.9 42.82 143.81V141.01H43.28V143.81C43.28 144.64 43.76 145.18 44.6 145.18C45.48 145.18 46.18 144.6 46.18 143.39V141.01H46.63V141.02Z" fill="#4D328C"/>
<path d="M54.46 142.72V145.52H54V142.72C54 141.89 53.52 141.35 52.68 141.35C51.8 141.35 51.1 141.93 51.1 143.14V145.52H50.65V139.22H51.1V141.88C51.44 141.21 52.02 140.93 52.71 140.93C53.79 140.92 54.46 141.63 54.46 142.72Z" fill="#4D328C"/>
<path d="M60.27 141.02V145.52H59.81V144.5C59.43 145.18 58.74 145.62 57.87 145.62C56.59 145.62 55.54 144.6 55.54 143.27C55.54 141.94 56.59 140.92 57.87 140.92C58.73 140.92 59.43 141.36 59.81 142.04V141.02H60.27ZM59.81 143.27C59.81 142.2 58.98 141.35 57.91 141.35C56.84 141.35 56 142.2 56 143.27C56 144.34 56.84 145.19 57.91 145.19C58.98 145.19 59.81 144.34 59.81 143.27Z" fill="#4D328C"/>
<path d="M65.55 141.02L63.65 145.52H63.1L61.19 141.02H61.68L63.37 145.05L65.07 141.02H65.55Z" fill="#4D328C"/>
<path d="M70.56 143.29C70.56 143.36 70.55 143.43 70.55 143.51H66.47C66.58 144.53 67.35 145.19 68.38 145.19C69.12 145.19 69.68 144.85 69.94 144.37L70.34 144.6C69.97 145.21 69.27 145.62 68.38 145.62C66.99 145.62 66.01 144.63 66.01 143.27C66.01 141.95 66.96 140.92 68.34 140.92C69.7 140.92 70.56 142.06 70.56 143.29ZM66.47 143.06H70.09C69.99 141.96 69.22 141.35 68.33 141.35C67.31 141.35 66.56 142.07 66.47 143.06Z" fill="#4D328C"/>
<path d="M78.66 141.02V145.52H78.2V144.5C77.82 145.18 77.13 145.62 76.26 145.62C74.98 145.62 73.93 144.6 73.93 143.27C73.93 141.94 74.98 140.92 76.26 140.92C77.12 140.92 77.82 141.36 78.2 142.04V141.02H78.66ZM78.21 143.27C78.21 142.2 77.38 141.35 76.31 141.35C75.24 141.35 74.4 142.2 74.4 143.27C74.4 144.34 75.24 145.19 76.31 145.19C77.38 145.19 78.21 144.34 78.21 143.27Z" fill="#4D328C"/>
<path d="M85.72 144.34C85.72 145.08 85.07 145.62 84.11 145.62C83.21 145.62 82.62 145.2 82.4 144.62L82.79 144.4C82.95 144.89 83.44 145.19 84.11 145.19C84.74 145.19 85.27 144.91 85.27 144.34C85.27 143.12 82.54 143.82 82.54 142.2C82.54 141.49 83.15 140.92 84.07 140.92C84.8 140.92 85.36 141.27 85.6 141.82L85.22 142.04C85.03 141.57 84.56 141.36 84.07 141.36C83.49 141.36 82.99 141.67 82.99 142.21C82.99 143.41 85.72 142.7 85.72 144.34Z" fill="#4D328C"/>
<path d="M87.71 141.46V144.39C87.71 145.18 88.13 145.2 89.05 145.12V145.53C87.87 145.71 87.25 145.42 87.25 144.4V141.47H86.26V141.03H87.25V139.9L87.71 139.77V141.03H89.05V141.47H87.71V141.46Z" fill="#4D328C"/>
<path d="M94.4 141.02V145.52H93.94V144.5C93.56 145.18 92.87 145.62 92 145.62C90.72 145.62 89.67 144.6 89.67 143.27C89.67 141.94 90.72 140.92 92 140.92C92.86 140.92 93.56 141.36 93.94 142.04V141.02H94.4ZM93.94 143.27C93.94 142.2 93.11 141.35 92.04 141.35C90.97 141.35 90.13 142.2 90.13 143.27C90.13 144.34 90.97 145.19 92.04 145.19C93.11 145.19 93.94 144.34 93.94 143.27Z" fill="#4D328C"/>
<path d="M97.85 140.96V141.39C97.08 141.39 96.35 141.87 96.35 143.02V145.52H95.9V141.02H96.35V141.9C96.65 141.19 97.24 140.96 97.85 140.96Z" fill="#4D328C"/>
<path d="M99.9 141.46V144.39C99.9 145.18 100.32 145.2 101.24 145.12V145.53C100.06 145.71 99.44 145.42 99.44 144.4V141.47H98.45V141.03H99.44V139.9L99.9 139.77V141.03H101.24V141.47H99.9V141.46Z" fill="#4D328C"/>
<path d="M102.44 142.52H105.68V142.95H102.44V142.52Z" fill="#4D328C"/>
<path d="M110.96 141.02V145.52H110.51V144.66C110.17 145.33 109.59 145.61 108.9 145.61C107.83 145.61 107.15 144.9 107.15 143.81V141.01H107.61V143.81C107.61 144.64 108.09 145.18 108.93 145.18C109.81 145.18 110.51 144.6 110.51 143.39V141.01H110.96V141.02Z" fill="#4D328C"/>
<path d="M117.17 143.27C117.17 144.6 116.13 145.62 114.84 145.62C113.97 145.62 113.27 145.17 112.9 144.48V147.32H112.45V141.02H112.9V142.06C113.27 141.37 113.96 140.92 114.84 140.92C116.13 140.92 117.17 141.94 117.17 143.27ZM116.72 143.27C116.72 142.2 115.88 141.35 114.81 141.35C113.74 141.35 112.9 142.2 112.9 143.27C112.9 144.34 113.74 145.19 114.81 145.19C115.88 145.19 116.72 144.34 116.72 143.27Z" fill="#4D328C"/>
<path d="M120.77 140.74C120.77 139.98 120.22 139.58 119.4 139.58C118.7 139.58 118.13 139.9 117.93 140.53L117.52 140.3C117.8 139.51 118.56 139.11 119.39 139.11C120.4 139.11 121.24 139.67 121.24 140.73C121.24 142.09 119.49 142.51 119.49 143.89H119.01C119.04 142.32 120.77 141.94 120.77 140.74ZM118.87 145.21C118.87 144.99 119.04 144.8 119.28 144.8C119.51 144.8 119.69 144.98 119.69 145.21C119.69 145.44 119.51 145.62 119.28 145.62C119.05 145.61 118.87 145.43 118.87 145.21Z" fill="#4D328C"/>
<path d="M124.85 143.27C124.85 141.94 125.9 140.92 127.22 140.92C128.53 140.92 129.58 141.94 129.58 143.27C129.58 144.6 128.53 145.62 127.22 145.62C125.9 145.62 124.85 144.6 124.85 143.27ZM129.12 143.27C129.12 142.2 128.29 141.35 127.22 141.35C126.15 141.35 125.31 142.2 125.31 143.27C125.31 144.34 126.15 145.19 127.22 145.19C128.29 145.19 129.12 144.34 129.12 143.27Z" fill="#4D328C"/>
<path d="M132.73 140.96V141.39C131.96 141.39 131.23 141.87 131.23 143.02V145.52H130.78V141.02H131.23V141.9C131.53 141.19 132.11 140.96 132.73 140.96Z" fill="#4D328C"/>
<path d="M140.69 141.02V145.52H140.23V144.5C139.85 145.18 139.16 145.62 138.29 145.62C137.01 145.62 135.96 144.6 135.96 143.27C135.96 141.94 137.01 140.92 138.29 140.92C139.15 140.92 139.85 141.36 140.23 142.04V141.02H140.69ZM140.23 143.27C140.23 142.2 139.4 141.35 138.33 141.35C137.26 141.35 136.42 142.2 136.42 143.27C136.42 144.34 137.26 145.19 138.33 145.19C139.4 145.19 140.23 144.34 140.23 143.27Z" fill="#4D328C"/>
<path d="M149.43 143.27C149.43 144.6 148.39 145.62 147.1 145.62C146.23 145.62 145.53 145.17 145.16 144.48V145.52H144.71V139.22H145.16V142.06C145.53 141.37 146.22 140.92 147.1 140.92C148.39 140.92 149.43 141.94 149.43 143.27ZM148.98 143.27C148.98 142.2 148.14 141.35 147.07 141.35C146 141.35 145.16 142.2 145.16 143.27C145.16 144.34 146 145.19 147.07 145.19C148.14 145.19 148.98 144.34 148.98 143.27Z" fill="#4D328C"/>
<path d="M152.59 140.96V141.39C151.82 141.39 151.09 141.87 151.09 143.02V145.52H150.64V141.02H151.09V141.9C151.39 141.19 151.98 140.96 152.59 140.96Z" fill="#4D328C"/>
<path d="M157.76 141.02V145.52H157.3V144.5C156.92 145.18 156.23 145.62 155.36 145.62C154.08 145.62 153.03 144.6 153.03 143.27C153.03 141.94 154.08 140.92 155.36 140.92C156.22 140.92 156.92 141.36 157.3 142.04V141.02H157.76ZM157.31 143.27C157.31 142.2 156.48 141.35 155.41 141.35C154.34 141.35 153.5 142.2 153.5 143.27C153.5 144.34 154.34 145.19 155.41 145.19C156.48 145.19 157.31 144.34 157.31 143.27Z" fill="#4D328C"/>
<path d="M163.07 142.72V145.52H162.61V142.72C162.61 141.89 162.13 141.35 161.29 141.35C160.41 141.35 159.71 141.93 159.71 143.14V145.52H159.26V141.02H159.71V141.87C160.05 141.2 160.63 140.92 161.32 140.92C162.4 140.92 163.07 141.63 163.07 142.72Z" fill="#4D328C"/>
<path d="M168.88 139.22V145.52H168.43V144.48C168.06 145.17 167.37 145.62 166.49 145.62C165.2 145.62 164.16 144.6 164.16 143.27C164.16 141.94 165.2 140.92 166.49 140.92C167.36 140.92 168.06 141.37 168.43 142.06V139.22H168.88ZM168.43 143.27C168.43 142.2 167.59 141.35 166.52 141.35C165.45 141.35 164.61 142.2 164.61 143.27C164.61 144.34 165.45 145.19 166.52 145.19C167.59 145.19 168.43 144.34 168.43 143.27Z" fill="#4D328C"/>
<path d="M173.86 141.46V144.39C173.86 145.18 174.28 145.2 175.2 145.12V145.53C174.02 145.71 173.4 145.42 173.4 144.4V141.47H172.41V141.03H173.4V139.9L173.86 139.77V141.03H175.2V141.47H173.86V141.46Z" fill="#4D328C"/>
<path d="M180.21 142.72V145.52H179.75V142.72C179.75 141.89 179.27 141.35 178.43 141.35C177.55 141.35 176.85 141.93 176.85 143.14V145.52H176.4V139.22H176.85V141.88C177.19 141.21 177.77 140.93 178.46 140.93C179.53 140.92 180.21 141.63 180.21 142.72Z" fill="#4D328C"/>
<path d="M186.02 141.02V145.52H185.56V144.5C185.18 145.18 184.49 145.62 183.62 145.62C182.34 145.62 181.29 144.6 181.29 143.27C181.29 141.94 182.34 140.92 183.62 140.92C184.48 140.92 185.18 141.36 185.56 142.04V141.02H186.02ZM185.56 143.27C185.56 142.2 184.73 141.35 183.66 141.35C182.59 141.35 181.75 142.2 181.75 143.27C181.75 144.34 182.59 145.19 183.66 145.19C184.73 145.19 185.56 144.34 185.56 143.27Z" fill="#4D328C"/>
<path d="M188.48 141.46V144.39C188.48 145.18 188.9 145.2 189.82 145.12V145.53C188.64 145.71 188.02 145.42 188.02 144.4V141.47H187.03V141.03H188.02V139.9L188.48 139.77V141.03H189.82V141.47H188.48V141.46Z" fill="#4D328C"/>
<path d="M197.35 142.72V145.52H196.89V142.72C196.89 141.89 196.41 141.35 195.57 141.35C194.69 141.35 193.99 141.93 193.99 143.14V145.52H193.54V141.02H193.99V141.87C194.33 141.2 194.91 140.92 195.6 140.92C196.67 140.92 197.35 141.63 197.35 142.72Z" fill="#4D328C"/>
<path d="M202.98 143.29C202.98 143.36 202.97 143.43 202.97 143.51H198.89C199 144.53 199.77 145.19 200.8 145.19C201.54 145.19 202.1 144.85 202.36 144.37L202.76 144.6C202.39 145.21 201.69 145.62 200.8 145.62C199.41 145.62 198.43 144.63 198.43 143.27C198.43 141.95 199.38 140.92 200.76 140.92C202.12 140.92 202.98 142.06 202.98 143.29ZM198.89 143.06H202.51C202.41 141.96 201.64 141.35 200.75 141.35C199.73 141.35 198.98 142.07 198.89 143.06Z" fill="#4D328C"/>
<path d="M208.4 143.29C208.4 143.36 208.39 143.43 208.39 143.51H204.31C204.42 144.53 205.19 145.19 206.22 145.19C206.96 145.19 207.52 144.85 207.78 144.37L208.18 144.6C207.81 145.21 207.11 145.62 206.22 145.62C204.83 145.62 203.85 144.63 203.85 143.27C203.85 141.95 204.8 140.92 206.18 140.92C207.54 140.92 208.4 142.06 208.4 143.29ZM204.31 143.06H207.93C207.83 141.96 207.06 141.35 206.17 141.35C205.15 141.35 204.4 142.07 204.31 143.06Z" fill="#4D328C"/>
<path d="M213.99 139.22V145.52H213.54V144.48C213.17 145.17 212.48 145.62 211.6 145.62C210.31 145.62 209.27 144.6 209.27 143.27C209.27 141.94 210.31 140.92 211.6 140.92C212.47 140.92 213.17 141.37 213.54 142.06V139.22H213.99ZM213.54 143.27C213.54 142.2 212.7 141.35 211.63 141.35C210.56 141.35 209.72 142.2 209.72 143.27C209.72 144.34 210.56 145.19 211.63 145.19C212.7 145.19 213.54 144.34 213.54 143.27Z" fill="#4D328C"/>
<path d="M218.52 144.34C218.52 145.08 217.87 145.62 216.91 145.62C216.01 145.62 215.42 145.2 215.2 144.62L215.59 144.4C215.75 144.89 216.24 145.19 216.91 145.19C217.54 145.19 218.07 144.91 218.07 144.34C218.07 143.12 215.34 143.82 215.34 142.2C215.34 141.49 215.95 140.92 216.87 140.92C217.6 140.92 218.16 141.27 218.4 141.82L218.02 142.04C217.83 141.57 217.36 141.36 216.87 141.36C216.29 141.36 215.79 141.67 215.79 142.21C215.79 143.41 218.52 142.7 218.52 144.34Z" fill="#4D328C"/>
<path d="M21.15 158.34C21.15 159.08 20.5 159.62 19.54 159.62C18.64 159.62 18.05 159.2 17.83 158.62L18.22 158.4C18.38 158.89 18.87 159.19 19.54 159.19C20.17 159.19 20.7 158.91 20.7 158.34C20.7 157.12 17.97 157.82 17.97 156.2C17.97 155.49 18.58 154.92 19.5 154.92C20.23 154.92 20.79 155.27 21.03 155.82L20.65 156.04C20.46 155.57 19.99 155.36 19.5 155.36C18.92 155.36 18.42 155.67 18.42 156.21C18.43 157.41 21.15 156.7 21.15 158.34Z" fill="#4D328C"/>
<path d="M21.93 157.27C21.93 155.94 22.98 154.92 24.3 154.92C25.61 154.92 26.66 155.94 26.66 157.27C26.66 158.6 25.61 159.62 24.3 159.62C22.98 159.62 21.93 158.6 21.93 157.27ZM26.19 157.27C26.19 156.2 25.36 155.35 24.29 155.35C23.22 155.35 22.38 156.2 22.38 157.27C22.38 158.34 23.22 159.19 24.29 159.19C25.36 159.19 26.19 158.34 26.19 157.27Z" fill="#4D328C"/>
<path d="M34.3 156.67V159.52H33.85V156.67C33.85 155.81 33.35 155.36 32.65 155.36C31.89 155.36 31.3 155.86 31.3 157.02V159.53H30.85V156.68C30.85 155.82 30.39 155.37 29.7 155.37C28.96 155.37 28.3 155.87 28.3 157.03V159.54H27.85V155.04H28.3V155.81C28.63 155.19 29.17 154.94 29.75 154.94C30.41 154.94 30.92 155.26 31.15 155.86C31.47 155.23 32.05 154.94 32.65 154.94C33.62 154.92 34.3 155.54 34.3 156.67Z" fill="#4D328C"/>
<path d="M39.95 157.29C39.95 157.36 39.94 157.43 39.94 157.51H35.86C35.97 158.53 36.74 159.19 37.77 159.19C38.51 159.19 39.07 158.85 39.33 158.37L39.73 158.6C39.36 159.21 38.66 159.62 37.77 159.62C36.38 159.62 35.4 158.63 35.4 157.27C35.4 155.95 36.35 154.92 37.73 154.92C39.09 154.92 39.95 156.06 39.95 157.29ZM35.86 157.06H39.48C39.38 155.96 38.61 155.35 37.72 155.35C36.7 155.35 35.95 156.07 35.86 157.06Z" fill="#4D328C"/>
<path d="M40.82 157.27C40.82 155.94 41.87 154.92 43.19 154.92C44.5 154.92 45.55 155.94 45.55 157.27C45.55 158.6 44.5 159.62 43.19 159.62C41.87 159.62 40.82 158.6 40.82 157.27ZM45.09 157.27C45.09 156.2 44.26 155.35 43.19 155.35C42.12 155.35 41.28 156.2 41.28 157.27C41.28 158.34 42.12 159.19 43.19 159.19C44.26 159.19 45.09 158.34 45.09 157.27Z" fill="#4D328C"/>
<path d="M50.56 156.72V159.52H50.1V156.72C50.1 155.89 49.62 155.35 48.78 155.35C47.9 155.35 47.2 155.93 47.2 157.14V159.52H46.75V155.02H47.2V155.87C47.54 155.2 48.12 154.92 48.81 154.92C49.88 154.92 50.56 155.63 50.56 156.72Z" fill="#4D328C"/>
<path d="M56.2 157.29C56.2 157.36 56.19 157.43 56.19 157.51H52.11C52.22 158.53 52.99 159.19 54.02 159.19C54.76 159.19 55.32 158.85 55.58 158.37L55.98 158.6C55.61 159.21 54.91 159.62 54.02 159.62C52.63 159.62 51.65 158.63 51.65 157.27C51.65 155.95 52.6 154.92 53.98 154.92C55.35 154.92 56.2 156.06 56.2 157.29ZM52.11 157.06H55.73C55.63 155.96 54.86 155.35 53.97 155.35C52.95 155.35 52.2 156.07 52.11 157.06Z" fill="#4D328C"/>
<path d="M60.87 155.46V158.39C60.87 159.18 61.29 159.2 62.21 159.12V159.53C61.03 159.71 60.41 159.42 60.41 158.4V155.47H59.42V155.03H60.41V153.9L60.87 153.77V155.03H62.21V155.47H60.87V155.46Z" fill="#4D328C"/>
<path d="M62.84 157.27C62.84 155.94 63.89 154.92 65.21 154.92C66.52 154.92 67.57 155.94 67.57 157.27C67.57 158.6 66.52 159.62 65.21 159.62C63.89 159.62 62.84 158.6 62.84 157.27ZM67.11 157.27C67.11 156.2 66.28 155.35 65.21 155.35C64.14 155.35 63.3 156.2 63.3 157.27C63.3 158.34 64.14 159.19 65.21 159.19C66.28 159.19 67.11 158.34 67.11 157.27Z" fill="#4D328C"/>
<path d="M75.72 155.02V159.52H75.26V158.5C74.88 159.18 74.19 159.62 73.32 159.62C72.04 159.62 70.99 158.6 70.99 157.27C70.99 155.94 72.04 154.92 73.32 154.92C74.18 154.92 74.88 155.36 75.26 156.04V155.02H75.72ZM75.26 157.27C75.26 156.2 74.43 155.35 73.36 155.35C72.29 155.35 71.45 156.2 71.45 157.27C71.45 158.34 72.29 159.19 73.36 159.19C74.43 159.19 75.26 158.34 75.26 157.27Z" fill="#4D328C"/>
<path d="M80.27 158.34C80.27 159.08 79.62 159.62 78.66 159.62C77.76 159.62 77.17 159.2 76.95 158.62L77.34 158.4C77.5 158.89 77.99 159.19 78.66 159.19C79.29 159.19 79.82 158.91 79.82 158.34C79.82 157.12 77.09 157.82 77.09 156.2C77.09 155.49 77.7 154.92 78.62 154.92C79.35 154.92 79.91 155.27 80.15 155.82L79.77 156.04C79.58 155.57 79.11 155.36 78.62 155.36C78.04 155.36 77.54 155.67 77.54 156.21C77.54 157.41 80.27 156.7 80.27 158.34Z" fill="#4D328C"/>
<path d="M84.24 158.34C84.24 159.08 83.59 159.62 82.63 159.62C81.73 159.62 81.14 159.2 80.92 158.62L81.31 158.4C81.47 158.89 81.96 159.19 82.63 159.19C83.26 159.19 83.79 158.91 83.79 158.34C83.79 157.12 81.06 157.82 81.06 156.2C81.06 155.49 81.67 154.92 82.59 154.92C83.32 154.92 83.88 155.27 84.12 155.82L83.74 156.04C83.55 155.57 83.08 155.36 82.59 155.36C82.01 155.36 81.51 155.67 81.51 156.21C81.52 157.41 84.24 156.7 84.24 158.34Z" fill="#4D328C"/>
<path d="M85.28 153.57C85.28 153.38 85.44 153.22 85.64 153.22C85.84 153.22 86 153.38 86 153.57C86 153.77 85.84 153.93 85.64 153.93C85.44 153.93 85.28 153.77 85.28 153.57ZM85.41 155.02H85.86V159.52H85.41V155.02Z" fill="#4D328C"/>
<path d="M90.41 158.34C90.41 159.08 89.76 159.62 88.8 159.62C87.9 159.62 87.31 159.2 87.09 158.62L87.48 158.4C87.64 158.89 88.13 159.19 88.8 159.19C89.43 159.19 89.96 158.91 89.96 158.34C89.96 157.12 87.23 157.82 87.23 156.2C87.23 155.49 87.84 154.92 88.76 154.92C89.49 154.92 90.05 155.27 90.29 155.82L89.91 156.04C89.72 155.57 89.25 155.36 88.76 155.36C88.18 155.36 87.68 155.67 87.68 156.21C87.68 157.41 90.41 156.7 90.41 158.34Z" fill="#4D328C"/>
<path d="M92.41 155.46V158.39C92.41 159.18 92.83 159.2 93.75 159.12V159.53C92.57 159.71 91.95 159.42 91.95 158.4V155.47H90.96V155.03H91.95V153.9L92.41 153.77V155.03H93.75V155.47H92.41V155.46Z" fill="#4D328C"/>
<path d="M101.9 155.02V159.52H101.44V158.5C101.06 159.18 100.37 159.62 99.5 159.62C98.22 159.62 97.17 158.6 97.17 157.27C97.17 155.94 98.22 154.92 99.5 154.92C100.36 154.92 101.06 155.36 101.44 156.04V155.02H101.9ZM101.44 157.27C101.44 156.2 100.61 155.35 99.54 155.35C98.47 155.35 97.63 156.2 97.63 157.27C97.63 158.34 98.47 159.19 99.54 159.19C100.61 159.19 101.44 158.34 101.44 157.27Z" fill="#4D328C"/>
<path d="M107.22 156.72V159.52H106.76V156.72C106.76 155.89 106.28 155.35 105.44 155.35C104.56 155.35 103.86 155.93 103.86 157.14V159.52H103.41V155.02H103.86V155.87C104.2 155.2 104.78 154.92 105.47 154.92C106.55 154.92 107.22 155.63 107.22 156.72Z" fill="#4D328C"/>
<path d="M113.03 153.22V159.52H112.58V158.48C112.21 159.17 111.52 159.62 110.64 159.62C109.35 159.62 108.31 158.6 108.31 157.27C108.31 155.94 109.35 154.92 110.64 154.92C111.51 154.92 112.21 155.37 112.58 156.06V153.22H113.03ZM112.59 157.27C112.59 156.2 111.75 155.35 110.68 155.35C109.61 155.35 108.77 156.2 108.77 157.27C108.77 158.34 109.61 159.19 110.68 159.19C111.75 159.19 112.59 158.34 112.59 157.27Z" fill="#4D328C"/>
<path d="M121.79 157.27C121.79 158.6 120.75 159.62 119.46 159.62C118.59 159.62 117.89 159.17 117.52 158.48V161.32H117.07V155.02H117.52V156.06C117.89 155.37 118.58 154.92 119.46 154.92C120.75 154.92 121.79 155.94 121.79 157.27ZM121.34 157.27C121.34 156.2 120.5 155.35 119.43 155.35C118.36 155.35 117.52 156.2 117.52 157.27C117.52 158.34 118.36 159.19 119.43 159.19C120.5 159.19 121.34 158.34 121.34 157.27Z" fill="#4D328C"/>
<path d="M124.96 154.96V155.39C124.19 155.39 123.46 155.87 123.46 157.02V159.52H123.01V155.02H123.46V155.9C123.76 155.19 124.35 154.96 124.96 154.96Z" fill="#4D328C"/>
<path d="M125.42 157.27C125.42 155.94 126.47 154.92 127.79 154.92C129.1 154.92 130.15 155.94 130.15 157.27C130.15 158.6 129.1 159.62 127.79 159.62C126.47 159.62 125.42 158.6 125.42 157.27ZM129.68 157.27C129.68 156.2 128.85 155.35 127.78 155.35C126.71 155.35 125.87 156.2 125.87 157.27C125.87 158.34 126.71 159.19 127.78 159.19C128.86 159.19 129.68 158.34 129.68 157.27Z" fill="#4D328C"/>
<path d="M134.95 155.02L133.05 159.52H132.5L130.59 155.02H131.08L132.77 159.05L134.47 155.02H134.95Z" fill="#4D328C"/>
<path d="M135.76 153.57C135.76 153.38 135.92 153.22 136.12 153.22C136.32 153.22 136.48 153.38 136.48 153.57C136.48 153.77 136.32 153.93 136.12 153.93C135.92 153.93 135.76 153.77 135.76 153.57ZM135.89 155.02H136.34V159.52H135.89V155.02Z" fill="#4D328C"/>
<path d="M142.27 153.22V159.52H141.82V158.48C141.45 159.17 140.76 159.62 139.88 159.62C138.59 159.62 137.55 158.6 137.55 157.27C137.55 155.94 138.59 154.92 139.88 154.92C140.75 154.92 141.45 155.37 141.82 156.06V153.22H142.27ZM141.83 157.27C141.83 156.2 140.99 155.35 139.92 155.35C138.85 155.35 138.01 156.2 138.01 157.27C138.01 158.34 138.85 159.19 139.92 159.19C140.99 159.19 141.83 158.34 141.83 157.27Z" fill="#4D328C"/>
<path d="M148.04 157.29C148.04 157.36 148.03 157.43 148.03 157.51H143.95C144.06 158.53 144.83 159.19 145.86 159.19C146.6 159.19 147.16 158.85 147.42 158.37L147.82 158.6C147.45 159.21 146.75 159.62 145.86 159.62C144.47 159.62 143.49 158.63 143.49 157.27C143.49 155.95 144.44 154.92 145.82 154.92C147.18 154.92 148.04 156.06 148.04 157.29ZM143.95 157.06H147.57C147.47 155.96 146.7 155.35 145.81 155.35C144.79 155.35 144.04 156.07 143.95 157.06Z" fill="#4D328C"/>
<path d="M154.78 158.34C154.78 159.08 154.13 159.62 153.17 159.62C152.27 159.62 151.68 159.2 151.46 158.62L151.85 158.4C152.01 158.89 152.5 159.19 153.17 159.19C153.8 159.19 154.33 158.91 154.33 158.34C154.33 157.12 151.6 157.82 151.6 156.2C151.6 155.49 152.21 154.92 153.13 154.92C153.86 154.92 154.42 155.27 154.66 155.82L154.28 156.04C154.09 155.57 153.62 155.36 153.13 155.36C152.55 155.36 152.05 155.67 152.05 156.21C152.05 157.41 154.78 156.7 154.78 158.34Z" fill="#4D328C"/>
<path d="M156.77 155.46V158.39C156.77 159.18 157.19 159.2 158.11 159.12V159.53C156.93 159.71 156.31 159.42 156.31 158.4V155.47H155.32V155.03H156.31V153.9L156.77 153.77V155.03H158.11V155.47H156.77V155.46Z" fill="#4D328C"/>
<path d="M161.27 154.96V155.39C160.5 155.39 159.77 155.87 159.77 157.02V159.52H159.32V155.02H159.77V155.9C160.08 155.19 160.66 154.96 161.27 154.96Z" fill="#4D328C"/>
<path d="M166.46 155.02V159.52H166V158.5C165.62 159.18 164.93 159.62 164.06 159.62C162.78 159.62 161.73 158.6 161.73 157.27C161.73 155.94 162.78 154.92 164.06 154.92C164.92 154.92 165.62 155.36 166 156.04V155.02H166.46ZM166 157.27C166 156.2 165.17 155.35 164.1 155.35C163.03 155.35 162.19 156.2 162.19 157.27C162.19 158.34 163.03 159.19 164.1 159.19C165.17 159.19 166 158.34 166 157.27Z" fill="#4D328C"/>
<path d="M168.93 155.46V158.39C168.93 159.18 169.35 159.2 170.27 159.12V159.53C169.09 159.71 168.47 159.42 168.47 158.4V155.47H167.48V155.03H168.47V153.9L168.93 153.77V155.03H170.27V155.47H168.93V155.46Z" fill="#4D328C"/>
<path d="M175.46 157.29C175.46 157.36 175.45 157.43 175.45 157.51H171.37C171.48 158.53 172.25 159.19 173.28 159.19C174.02 159.19 174.58 158.85 174.84 158.37L175.24 158.6C174.87 159.21 174.17 159.62 173.28 159.62C171.89 159.62 170.91 158.63 170.91 157.27C170.91 155.95 171.86 154.92 173.24 154.92C174.6 154.92 175.46 156.06 175.46 157.29ZM171.37 157.06H174.99C174.89 155.96 174.12 155.35 173.23 155.35C172.21 155.35 171.46 156.07 171.37 157.06Z" fill="#4D328C"/>
<path d="M181.08 155.02V159.31C181.08 160.66 180.08 161.43 178.84 161.43C177.79 161.43 177.04 161.01 176.72 160.35L177.12 160.12C177.35 160.6 177.86 160.99 178.85 160.99C179.98 160.99 180.64 160.33 180.64 159.31V158.48C180.27 159.17 179.58 159.62 178.7 159.62C177.41 159.62 176.37 158.6 176.37 157.27C176.37 155.94 177.41 154.92 178.7 154.92C179.57 154.92 180.27 155.37 180.64 156.06V155.02H181.08ZM180.63 157.27C180.63 156.2 179.79 155.35 178.72 155.35C177.65 155.35 176.81 156.2 176.81 157.27C176.81 158.34 177.65 159.19 178.72 159.19C179.79 159.19 180.63 158.34 180.63 157.27Z" fill="#4D328C"/>
<path d="M182.46 153.57C182.46 153.38 182.62 153.22 182.82 153.22C183.02 153.22 183.18 153.38 183.18 153.57C183.18 153.77 183.02 153.93 182.82 153.93C182.62 153.93 182.46 153.77 182.46 153.57ZM182.59 155.02H183.04V159.52H182.59V155.02Z" fill="#4D328C"/>
<path d="M188.8 157.29C188.8 157.36 188.79 157.43 188.79 157.51H184.71C184.82 158.53 185.59 159.19 186.62 159.19C187.36 159.19 187.92 158.85 188.18 158.37L188.58 158.6C188.21 159.21 187.51 159.62 186.62 159.62C185.23 159.62 184.25 158.63 184.25 157.27C184.25 155.95 185.2 154.92 186.58 154.92C187.95 154.92 188.8 156.06 188.8 157.29ZM184.72 157.06H188.34C188.24 155.96 187.47 155.35 186.58 155.35C185.55 155.35 184.81 156.07 184.72 157.06Z" fill="#4D328C"/>
<path d="M192.84 158.34C192.84 159.08 192.19 159.62 191.23 159.62C190.33 159.62 189.74 159.2 189.52 158.62L189.91 158.4C190.07 158.89 190.56 159.19 191.23 159.19C191.86 159.19 192.39 158.91 192.39 158.34C192.39 157.12 189.66 157.82 189.66 156.2C189.66 155.49 190.27 154.92 191.19 154.92C191.92 154.92 192.48 155.27 192.72 155.82L192.34 156.04C192.15 155.57 191.68 155.36 191.19 155.36C190.61 155.36 190.11 155.67 190.11 156.21C190.11 157.41 192.84 156.7 192.84 158.34Z" fill="#4D328C"/>
<path d="M196.54 154.74C196.54 153.98 195.99 153.58 195.17 153.58C194.47 153.58 193.9 153.9 193.7 154.53L193.29 154.3C193.57 153.51 194.33 153.11 195.16 153.11C196.17 153.11 197.01 153.67 197.01 154.73C197.01 156.09 195.26 156.51 195.26 157.89H194.78C194.8 156.32 196.54 155.94 196.54 154.74ZM194.64 159.21C194.64 158.99 194.81 158.8 195.05 158.8C195.28 158.8 195.46 158.98 195.46 159.21C195.46 159.44 195.28 159.62 195.05 159.62C194.81 159.61 194.64 159.43 194.64 159.21Z" fill="#4D328C"/>
<path d="M206.72 159.52H206.24V153.92L203.91 157.79H203.83L201.5 153.92V159.52H201.02V153.22H201.61L203.86 156.95L206.11 153.22H206.71V159.52H206.72Z" fill="#4D328C"/>
<path d="M212.11 155.02L210.17 159.94C209.83 160.8 209.16 161.39 208.39 161.33V160.91C208.99 160.96 209.45 160.51 209.73 159.86L209.83 159.62L207.76 155.04H208.25L210.07 159.05L211.64 155.04H212.11V155.02Z" fill="#4D328C"/>
<path d="M24.57 170.67V173.52H24.12V170.67C24.12 169.81 23.62 169.36 22.92 169.36C22.16 169.36 21.57 169.86 21.57 171.02V173.53H21.12V170.68C21.12 169.82 20.66 169.37 19.97 169.37C19.23 169.37 18.57 169.87 18.57 171.03V173.54H18.12V169.04H18.57V169.81C18.9 169.19 19.44 168.94 20.02 168.94C20.68 168.94 21.19 169.26 21.42 169.86C21.74 169.23 22.32 168.94 22.92 168.94C23.88 168.92 24.57 169.54 24.57 170.67Z" fill="#4D328C"/>
<path d="M25.82 167.57C25.82 167.38 25.98 167.22 26.18 167.22C26.38 167.22 26.54 167.38 26.54 167.57C26.54 167.77 26.38 167.93 26.18 167.93C25.98 167.93 25.82 167.77 25.82 167.57ZM25.95 169.02H26.4V173.52H25.95V169.02Z" fill="#4D328C"/>
<path d="M31.71 170.72V173.52H31.25V170.72C31.25 169.89 30.77 169.35 29.93 169.35C29.05 169.35 28.35 169.93 28.35 171.14V173.52H27.9V169.02H28.35V169.87C28.69 169.2 29.27 168.92 29.96 168.92C31.04 168.92 31.71 169.63 31.71 170.72Z" fill="#4D328C"/>
<path d="M37.52 167.22V173.52H37.07V172.48C36.7 173.17 36.01 173.62 35.13 173.62C33.84 173.62 32.8 172.6 32.8 171.27C32.8 169.94 33.84 168.92 35.13 168.92C36 168.92 36.7 169.37 37.07 170.06V167.22H37.52ZM37.07 171.27C37.07 170.2 36.23 169.35 35.16 169.35C34.09 169.35 33.25 170.2 33.25 171.27C33.25 172.34 34.09 173.19 35.16 173.19C36.23 173.19 37.07 172.34 37.07 171.27Z" fill="#4D328C"/>
<path d="M47.48 169.02L46.06 173.52H45.56L44.31 169.69L43.06 173.52H42.56L41.14 169.02H41.62L42.82 172.94L44.08 169.02H44.55L45.81 172.94L47.01 169.02H47.48Z" fill="#4D328C"/>
<path d="M48.45 167.57C48.45 167.38 48.61 167.22 48.81 167.22C49.01 167.22 49.17 167.38 49.17 167.57C49.17 167.77 49.01 167.93 48.81 167.93C48.61 167.93 48.45 167.77 48.45 167.57ZM48.59 169.02H49.04V173.52H48.59V169.02Z" fill="#4D328C"/>
<path d="M50.54 166.95H50.99V173.52H50.54V166.95Z" fill="#4D328C"/>
<path d="M52.49 166.95H52.94V173.52H52.49V166.95Z" fill="#4D328C"/>
<path d="M60.77 170.72V173.52H60.31V170.72C60.31 169.89 59.83 169.35 58.99 169.35C58.11 169.35 57.41 169.93 57.41 171.14V173.52H56.96V167.22H57.41V169.88C57.75 169.21 58.33 168.93 59.02 168.93C60.1 168.92 60.77 169.63 60.77 170.72Z" fill="#4D328C"/>
<path d="M66.41 171.29C66.41 171.36 66.4 171.43 66.4 171.51H62.32C62.43 172.53 63.2 173.19 64.23 173.19C64.97 173.19 65.53 172.85 65.79 172.37L66.19 172.6C65.82 173.21 65.12 173.62 64.23 173.62C62.84 173.62 61.86 172.63 61.86 171.27C61.86 169.95 62.81 168.92 64.19 168.92C65.55 168.92 66.41 170.06 66.41 171.29ZM62.32 171.06H65.94C65.84 169.96 65.07 169.35 64.18 169.35C63.16 169.35 62.41 170.07 62.32 171.06Z" fill="#4D328C"/>
<path d="M67.58 166.95H68.03V173.52H67.58V166.95Z" fill="#4D328C"/>
<path d="M74.25 171.27C74.25 172.6 73.21 173.62 71.92 173.62C71.05 173.62 70.35 173.17 69.98 172.48V175.32H69.53V169.02H69.98V170.06C70.35 169.37 71.04 168.92 71.92 168.92C73.2 168.92 74.25 169.94 74.25 171.27ZM73.8 171.27C73.8 170.2 72.96 169.35 71.89 169.35C70.82 169.35 69.98 170.2 69.98 171.27C69.98 172.34 70.82 173.19 71.89 173.19C72.96 173.19 73.8 172.34 73.8 171.27Z" fill="#4D328C"/>
<path d="M81.75 169.02L79.81 173.94C79.47 174.8 78.8 175.39 78.03 175.33V174.91C78.63 174.96 79.09 174.51 79.37 173.86L79.47 173.62L77.4 169.04H77.89L79.71 173.05L81.28 169.04H81.75V169.02Z" fill="#4D328C"/>
<path d="M82.19 171.27C82.19 169.94 83.24 168.92 84.56 168.92C85.87 168.92 86.92 169.94 86.92 171.27C86.92 172.6 85.87 173.62 84.56 173.62C83.24 173.62 82.19 172.6 82.19 171.27ZM86.46 171.27C86.46 170.2 85.63 169.35 84.56 169.35C83.49 169.35 82.65 170.2 82.65 171.27C82.65 172.34 83.49 173.19 84.56 173.19C85.63 173.19 86.46 172.34 86.46 171.27Z" fill="#4D328C"/>
<path d="M91.8 169.02V173.52H91.35V172.66C91.01 173.33 90.43 173.61 89.74 173.61C88.67 173.61 87.99 172.9 87.99 171.81V169.01H88.45V171.81C88.45 172.64 88.93 173.18 89.77 173.18C90.65 173.18 91.35 172.6 91.35 171.39V169.01H91.8V169.02Z" fill="#4D328C"/>
<path d="M95.69 167.57C95.69 167.38 95.85 167.22 96.05 167.22C96.25 167.22 96.41 167.38 96.41 167.57C96.41 167.77 96.25 167.93 96.05 167.93C95.85 167.93 95.69 167.77 95.69 167.57ZM95.83 169.02H96.28V173.52H95.83V169.02Z" fill="#4D328C"/>
<path d="M102.2 167.22V173.52H101.75V172.48C101.38 173.17 100.69 173.62 99.81 173.62C98.52 173.62 97.48 172.6 97.48 171.27C97.48 169.94 98.52 168.92 99.81 168.92C100.68 168.92 101.38 169.37 101.75 170.06V167.22H102.2ZM101.75 171.27C101.75 170.2 100.91 169.35 99.84 169.35C98.77 169.35 97.93 170.2 97.93 171.27C97.93 172.34 98.77 173.19 99.84 173.19C100.91 173.19 101.75 172.34 101.75 171.27Z" fill="#4D328C"/>
<path d="M107.95 171.29C107.95 171.36 107.94 171.43 107.94 171.51H103.86C103.97 172.53 104.74 173.19 105.77 173.19C106.51 173.19 107.07 172.85 107.33 172.37L107.73 172.6C107.36 173.21 106.66 173.62 105.77 173.62C104.38 173.62 103.4 172.63 103.4 171.27C103.4 169.95 104.35 168.92 105.73 168.92C107.09 168.92 107.95 170.06 107.95 171.29ZM103.86 171.06H107.48C107.38 169.96 106.61 169.35 105.72 169.35C104.7 169.35 103.95 170.07 103.86 171.06Z" fill="#4D328C"/>
<path d="M113.54 169.02V173.52H113.08V172.5C112.7 173.18 112.01 173.62 111.14 173.62C109.86 173.62 108.81 172.6 108.81 171.27C108.81 169.94 109.86 168.92 111.14 168.92C112 168.92 112.7 169.36 113.08 170.04V169.02H113.54ZM113.08 171.27C113.08 170.2 112.25 169.35 111.18 169.35C110.11 169.35 109.27 170.2 109.27 171.27C109.27 172.34 110.11 173.19 111.18 173.19C112.25 173.19 113.08 172.34 113.08 171.27Z" fill="#4D328C"/>
<path d="M116 169.46V172.39C116 173.18 116.42 173.2 117.34 173.12V173.53C116.16 173.71 115.54 173.42 115.54 172.4V169.47H114.55V169.03H115.54V167.9L116 167.77V169.03H117.34V169.47H116V169.46Z" fill="#4D328C"/>
<path d="M122.52 171.29C122.52 171.36 122.51 171.43 122.51 171.51H118.43C118.54 172.53 119.31 173.19 120.34 173.19C121.08 173.19 121.64 172.85 121.9 172.37L122.3 172.6C121.93 173.21 121.23 173.62 120.34 173.62C118.95 173.62 117.97 172.63 117.97 171.27C117.97 169.95 118.92 168.92 120.3 168.92C121.67 168.92 122.52 170.06 122.52 171.29ZM118.43 171.06H122.05C121.95 169.96 121.18 169.35 120.29 169.35C119.27 169.35 118.52 170.07 118.43 171.06Z" fill="#4D328C"/>
<path d="M129.9 169.02V173.52H129.45V172.66C129.11 173.33 128.53 173.61 127.84 173.61C126.77 173.61 126.09 172.9 126.09 171.81V169.01H126.55V171.81C126.55 172.64 127.03 173.18 127.87 173.18C128.75 173.18 129.45 172.6 129.45 171.39V169.01H129.9V169.02Z" fill="#4D328C"/>
<path d="M136.12 171.27C136.12 172.6 135.08 173.62 133.79 173.62C132.92 173.62 132.22 173.17 131.85 172.48V175.32H131.4V169.02H131.85V170.06C132.22 169.37 132.91 168.92 133.79 168.92C135.08 168.92 136.12 169.94 136.12 171.27ZM135.67 171.27C135.67 170.2 134.83 169.35 133.76 169.35C132.69 169.35 131.85 170.2 131.85 171.27C131.85 172.34 132.69 173.19 133.76 173.19C134.83 173.19 135.67 172.34 135.67 171.27Z" fill="#4D328C"/>
<path d="M137.02 171.27C137.02 169.94 138.07 168.92 139.39 168.92C140.7 168.92 141.75 169.94 141.75 171.27C141.75 172.6 140.7 173.62 139.39 173.62C138.07 173.62 137.02 172.6 137.02 171.27ZM141.29 171.27C141.29 170.2 140.46 169.35 139.39 169.35C138.32 169.35 137.48 170.2 137.48 171.27C137.48 172.34 138.32 173.19 139.39 173.19C140.46 173.19 141.29 172.34 141.29 171.27Z" fill="#4D328C"/>
<path d="M146.75 170.72V173.52H146.29V170.72C146.29 169.89 145.81 169.35 144.97 169.35C144.09 169.35 143.39 169.93 143.39 171.14V173.52H142.94V169.02H143.39V169.87C143.73 169.2 144.31 168.92 145 168.92C146.07 168.92 146.75 169.63 146.75 170.72Z" fill="#4D328C"/>
<path d="M155.07 169.02V173.52H154.61V172.5C154.23 173.18 153.54 173.62 152.67 173.62C151.39 173.62 150.34 172.6 150.34 171.27C150.34 169.94 151.39 168.92 152.67 168.92C153.53 168.92 154.23 169.36 154.61 170.04V169.02H155.07ZM154.61 171.27C154.61 170.2 153.78 169.35 152.71 169.35C151.64 169.35 150.8 170.2 150.8 171.27C150.8 172.34 151.64 173.19 152.71 173.19C153.78 173.19 154.61 172.34 154.61 171.27Z" fill="#4D328C"/>
<path d="M160.99 167.22V173.52H160.54V172.48C160.17 173.17 159.48 173.62 158.6 173.62C157.31 173.62 156.27 172.6 156.27 171.27C156.27 169.94 157.31 168.92 158.6 168.92C159.47 168.92 160.17 169.37 160.54 170.06V167.22H160.99ZM160.54 171.27C160.54 170.2 159.7 169.35 158.63 169.35C157.56 169.35 156.72 170.2 156.72 171.27C156.72 172.34 157.56 173.19 158.63 173.19C159.7 173.19 160.54 172.34 160.54 171.27Z" fill="#4D328C"/>
<path d="M166.28 169.02L164.38 173.52H163.83L161.92 169.02H162.41L164.1 173.05L165.8 169.02H166.28Z" fill="#4D328C"/>
<path d="M171.28 171.29C171.28 171.36 171.27 171.43 171.27 171.51H167.19C167.3 172.53 168.07 173.19 169.1 173.19C169.84 173.19 170.4 172.85 170.66 172.37L171.06 172.6C170.69 173.21 169.99 173.62 169.1 173.62C167.71 173.62 166.73 172.63 166.73 171.27C166.73 169.95 167.68 168.92 169.06 168.92C170.43 168.92 171.28 170.06 171.28 171.29ZM167.19 171.06H170.81C170.71 169.96 169.94 169.35 169.05 169.35C168.03 169.35 167.28 170.07 167.19 171.06Z" fill="#4D328C"/>
<path d="M174.4 168.96V169.39C173.63 169.39 172.9 169.87 172.9 171.02V173.52H172.45V169.02H172.9V169.9C173.21 169.19 173.79 168.96 174.4 168.96Z" fill="#4D328C"/>
<path d="M176.46 169.46V172.39C176.46 173.18 176.88 173.2 177.8 173.12V173.53C176.62 173.71 176 173.42 176 172.4V169.47H175.01V169.03H176V167.9L176.46 167.77V169.03H177.8V169.47H176.46V169.46Z" fill="#4D328C"/>
<path d="M178.86 167.57C178.86 167.38 179.02 167.22 179.22 167.22C179.42 167.22 179.58 167.38 179.58 167.57C179.58 167.77 179.42 167.93 179.22 167.93C179.02 167.93 178.86 167.77 178.86 167.57ZM178.99 169.02H179.44V173.52H178.99V169.02Z" fill="#4D328C"/>
<path d="M183.98 172.34C183.98 173.08 183.33 173.62 182.37 173.62C181.47 173.62 180.88 173.2 180.66 172.62L181.05 172.4C181.21 172.89 181.7 173.19 182.37 173.19C183 173.19 183.53 172.91 183.53 172.34C183.53 171.12 180.8 171.82 180.8 170.2C180.8 169.49 181.41 168.92 182.33 168.92C183.06 168.92 183.62 169.27 183.86 169.82L183.48 170.04C183.29 169.57 182.82 169.36 182.33 169.36C181.75 169.36 181.25 169.67 181.25 170.21C181.25 171.41 183.98 170.7 183.98 172.34Z" fill="#4D328C"/>
<path d="M185 167.57C185 167.38 185.16 167.22 185.36 167.22C185.56 167.22 185.72 167.38 185.72 167.57C185.72 167.77 185.56 167.93 185.36 167.93C185.17 167.93 185 167.77 185 167.57ZM185.14 169.02H185.59V173.52H185.14V169.02Z" fill="#4D328C"/>
<path d="M190.9 170.72V173.52H190.44V170.72C190.44 169.89 189.96 169.35 189.12 169.35C188.24 169.35 187.54 169.93 187.54 171.14V173.52H187.09V169.02H187.54V169.87C187.88 169.2 188.46 168.92 189.15 168.92C190.23 168.92 190.9 169.63 190.9 170.72Z" fill="#4D328C"/>
<path d="M196.73 169.02V173.31C196.73 174.66 195.73 175.43 194.49 175.43C193.44 175.43 192.69 175.01 192.37 174.35L192.77 174.12C193 174.6 193.51 174.99 194.5 174.99C195.63 174.99 196.29 174.33 196.29 173.31V172.48C195.92 173.17 195.23 173.62 194.35 173.62C193.06 173.62 192.02 172.6 192.02 171.27C192.02 169.94 193.06 168.92 194.35 168.92C195.22 168.92 195.92 169.37 196.29 170.06V169.02H196.73ZM196.28 171.27C196.28 170.2 195.44 169.35 194.37 169.35C193.3 169.35 192.46 170.2 192.46 171.27C192.46 172.34 193.3 173.19 194.37 173.19C195.44 173.19 196.28 172.34 196.28 171.27Z" fill="#4D328C"/>
<path d="M198.51 174.78H198.1L198.44 172.91H199L198.51 174.78Z" fill="#4D328C"/>
<path d="M22.54 183.02V187.52H22.08V186.5C21.7 187.18 21.01 187.62 20.14 187.62C18.86 187.62 17.81 186.6 17.81 185.27C17.81 183.94 18.86 182.92 20.14 182.92C21 182.92 21.7 183.36 22.08 184.04V183.02H22.54ZM22.08 185.27C22.08 184.2 21.25 183.35 20.18 183.35C19.11 183.35 18.27 184.2 18.27 185.27C18.27 186.34 19.11 187.19 20.18 187.19C21.25 187.19 22.08 186.34 22.08 185.27Z" fill="#4D328C"/>
<path d="M28.29 185.29C28.29 185.36 28.28 185.43 28.28 185.51H24.2C24.31 186.53 25.08 187.19 26.11 187.19C26.85 187.19 27.41 186.85 27.67 186.37L28.07 186.6C27.7 187.21 27 187.62 26.11 187.62C24.72 187.62 23.74 186.63 23.74 185.27C23.74 183.95 24.69 182.92 26.07 182.92C27.44 182.92 28.29 184.06 28.29 185.29ZM24.2 185.06H27.82C27.72 183.96 26.95 183.35 26.06 183.35C25.04 183.35 24.29 184.07 24.2 185.06Z" fill="#4D328C"/>
<path d="M32.31 186.34C32.31 187.08 31.66 187.62 30.7 187.62C29.8 187.62 29.21 187.2 28.99 186.62L29.38 186.4C29.54 186.89 30.03 187.19 30.7 187.19C31.33 187.19 31.86 186.91 31.86 186.34C31.86 185.12 29.13 185.82 29.13 184.2C29.13 183.49 29.74 182.92 30.66 182.92C31.39 182.92 31.95 183.27 32.19 183.82L31.81 184.04C31.62 183.57 31.15 183.36 30.66 183.36C30.08 183.36 29.58 183.67 29.58 184.21C29.59 185.41 32.31 184.7 32.31 186.34Z" fill="#4D328C"/>
<path d="M34.3 183.46V186.39C34.3 187.18 34.72 187.2 35.64 187.12V187.53C34.46 187.71 33.84 187.42 33.84 186.4V183.47H32.85V183.03H33.84V181.9L34.3 181.77V183.03H35.64V183.47H34.3V183.46Z" fill="#4D328C"/>
<path d="M40.65 184.72V187.52H40.19V184.72C40.19 183.89 39.71 183.35 38.87 183.35C37.99 183.35 37.29 183.93 37.29 185.14V187.52H36.84V181.22H37.29V183.88C37.63 183.21 38.21 182.93 38.9 182.93C39.97 182.92 40.65 183.63 40.65 184.72Z" fill="#4D328C"/>
<path d="M46.28 185.29C46.28 185.36 46.27 185.43 46.27 185.51H42.2C42.31 186.53 43.08 187.19 44.11 187.19C44.85 187.19 45.41 186.85 45.67 186.37L46.07 186.6C45.7 187.21 45 187.62 44.11 187.62C42.72 187.62 41.74 186.63 41.74 185.27C41.74 183.95 42.69 182.92 44.07 182.92C45.43 182.92 46.28 184.06 46.28 185.29ZM42.2 185.06H45.82C45.72 183.96 44.95 183.35 44.06 183.35C43.03 183.35 42.29 184.07 42.2 185.06Z" fill="#4D328C"/>
<path d="M48.28 183.46V186.39C48.28 187.18 48.7 187.2 49.62 187.12V187.53C48.44 187.71 47.82 187.42 47.82 186.4V183.47H46.83V183.03H47.82V181.9L48.28 181.77V183.03H49.62V183.47H48.28V183.46Z" fill="#4D328C"/>
<path d="M50.68 181.57C50.68 181.38 50.84 181.22 51.04 181.22C51.24 181.22 51.4 181.38 51.4 181.57C51.4 181.77 51.24 181.93 51.04 181.93C50.84 181.93 50.68 181.77 50.68 181.57ZM50.82 183.02H51.27V187.52H50.82V183.02Z" fill="#4D328C"/>
<path d="M52.46 185.27C52.46 183.94 53.47 182.92 54.83 182.92C55.71 182.92 56.47 183.37 56.79 184.07L56.42 184.29C56.16 183.72 55.55 183.35 54.83 183.35C53.74 183.35 52.92 184.2 52.92 185.27C52.92 186.34 53.74 187.19 54.83 187.19C55.56 187.19 56.15 186.81 56.45 186.25L56.83 186.48C56.47 187.17 55.71 187.62 54.83 187.62C53.47 187.62 52.46 186.6 52.46 185.27Z" fill="#4D328C"/>
<path d="M60.92 186.34C60.92 187.08 60.27 187.62 59.31 187.62C58.41 187.62 57.82 187.2 57.6 186.62L57.99 186.4C58.15 186.89 58.64 187.19 59.31 187.19C59.94 187.19 60.47 186.91 60.47 186.34C60.47 185.12 57.74 185.82 57.74 184.2C57.74 183.49 58.35 182.92 59.27 182.92C60 182.92 60.56 183.27 60.8 183.82L60.42 184.04C60.23 183.57 59.76 183.36 59.27 183.36C58.69 183.36 58.19 183.67 58.19 184.21C58.2 185.41 60.92 184.7 60.92 186.34Z" fill="#4D328C"/>
<path d="M62.32 188.78H61.9L62.24 186.91H62.8L62.32 188.78Z" fill="#4D328C"/>
<path d="M71.1 183.02V187.52H70.64V186.5C70.26 187.18 69.57 187.62 68.7 187.62C67.42 187.62 66.37 186.6 66.37 185.27C66.37 183.94 67.42 182.92 68.7 182.92C69.56 182.92 70.26 183.36 70.64 184.04V183.02H71.1ZM70.65 185.27C70.65 184.2 69.82 183.35 68.75 183.35C67.68 183.35 66.84 184.2 66.84 185.27C66.84 186.34 67.68 187.19 68.75 187.19C69.82 187.19 70.65 186.34 70.65 185.27Z" fill="#4D328C"/>
<path d="M76.41 184.72V187.52H75.95V184.72C75.95 183.89 75.47 183.35 74.63 183.35C73.75 183.35 73.05 183.93 73.05 185.14V187.52H72.6V183.02H73.05V183.87C73.39 183.2 73.97 182.92 74.66 182.92C75.74 182.92 76.41 183.63 76.41 184.72Z" fill="#4D328C"/>
<path d="M82.22 181.22V187.52H81.77V186.48C81.4 187.17 80.71 187.62 79.83 187.62C78.54 187.62 77.5 186.6 77.5 185.27C77.5 183.94 78.54 182.92 79.83 182.92C80.7 182.92 81.4 183.37 81.77 184.06V181.22H82.22ZM81.77 185.27C81.77 184.2 80.93 183.35 79.86 183.35C78.79 183.35 77.95 184.2 77.95 185.27C77.95 186.34 78.79 187.19 79.86 187.19C80.93 187.19 81.77 186.34 81.77 185.27Z" fill="#4D328C"/>
<path d="M90.96 185.27C90.96 186.6 89.92 187.62 88.63 187.62C87.76 187.62 87.06 187.17 86.69 186.48V187.52H86.24V181.22H86.69V184.06C87.06 183.37 87.75 182.92 88.63 182.92C89.91 182.92 90.96 183.94 90.96 185.27ZM90.51 185.27C90.51 184.2 89.67 183.35 88.6 183.35C87.53 183.35 86.69 184.2 86.69 185.27C86.69 186.34 87.53 187.19 88.6 187.19C89.67 187.19 90.51 186.34 90.51 185.27Z" fill="#4D328C"/>
<path d="M94.12 182.96V183.39C93.35 183.39 92.62 183.87 92.62 185.02V187.52H92.17V183.02H92.62V183.9C92.92 183.19 93.5 182.96 94.12 182.96Z" fill="#4D328C"/>
<path d="M99.29 183.02V187.52H98.83V186.5C98.45 187.18 97.76 187.62 96.89 187.62C95.61 187.62 94.56 186.6 94.56 185.27C94.56 183.94 95.61 182.92 96.89 182.92C97.75 182.92 98.45 183.36 98.83 184.04V183.02H99.29ZM98.83 185.27C98.83 184.2 98 183.35 96.93 183.35C95.86 183.35 95.02 184.2 95.02 185.27C95.02 186.34 95.86 187.19 96.93 187.19C98 187.19 98.83 186.34 98.83 185.27Z" fill="#4D328C"/>
<path d="M104.6 184.72V187.52H104.14V184.72C104.14 183.89 103.66 183.35 102.82 183.35C101.94 183.35 101.24 183.93 101.24 185.14V187.52H100.79V183.02H101.24V183.87C101.58 183.2 102.16 182.92 102.85 182.92C103.93 182.92 104.6 183.63 104.6 184.72Z" fill="#4D328C"/>
<path d="M110.41 181.22V187.52H109.96V186.48C109.59 187.17 108.9 187.62 108.02 187.62C106.73 187.62 105.69 186.6 105.69 185.27C105.69 183.94 106.73 182.92 108.02 182.92C108.89 182.92 109.59 183.37 109.96 184.06V181.22H110.41ZM109.96 185.27C109.96 184.2 109.12 183.35 108.05 183.35C106.98 183.35 106.14 184.2 106.14 185.27C106.14 186.34 106.98 187.19 108.05 187.19C109.12 187.19 109.96 186.34 109.96 185.27Z" fill="#4D328C"/>
<path d="M118.68 185.29C118.68 185.36 118.67 185.43 118.67 185.51H114.59C114.7 186.53 115.47 187.19 116.5 187.19C117.24 187.19 117.8 186.85 118.06 186.37L118.46 186.6C118.09 187.21 117.39 187.62 116.5 187.62C115.11 187.62 114.13 186.63 114.13 185.27C114.13 183.95 115.08 182.92 116.46 182.92C117.82 182.92 118.68 184.06 118.68 185.29ZM114.59 185.06H118.21C118.11 183.96 117.34 183.35 116.45 183.35C115.43 183.35 114.68 184.07 114.59 185.06Z" fill="#4D328C"/>
<path d="M119.85 180.95H120.3V187.52H119.85V180.95Z" fill="#4D328C"/>
<path d="M126.05 185.29C126.05 185.36 126.04 185.43 126.04 185.51H121.96C122.07 186.53 122.84 187.19 123.87 187.19C124.61 187.19 125.17 186.85 125.43 186.37L125.83 186.6C125.46 187.21 124.76 187.62 123.87 187.62C122.48 187.62 121.5 186.63 121.5 185.27C121.5 183.95 122.45 182.92 123.83 182.92C125.19 182.92 126.05 184.06 126.05 185.29ZM121.96 185.06H125.58C125.48 183.96 124.71 183.35 123.82 183.35C122.8 183.35 122.05 184.07 121.96 185.06Z" fill="#4D328C"/>
<path d="M130.82 183.02L128.92 187.52H128.37L126.46 183.02H126.95L128.64 187.05L130.34 183.02H130.82Z" fill="#4D328C"/>
<path d="M135.99 183.02V187.52H135.53V186.5C135.15 187.18 134.46 187.62 133.59 187.62C132.31 187.62 131.26 186.6 131.26 185.27C131.26 183.94 132.31 182.92 133.59 182.92C134.45 182.92 135.15 183.36 135.53 184.04V183.02H135.99ZM135.53 185.27C135.53 184.2 134.7 183.35 133.63 183.35C132.56 183.35 131.72 184.2 131.72 185.27C131.72 186.34 132.56 187.19 133.63 187.19C134.7 187.19 135.53 186.34 135.53 185.27Z" fill="#4D328C"/>
<path d="M138.46 183.46V186.39C138.46 187.18 138.88 187.2 139.8 187.12V187.53C138.62 187.71 138 187.42 138 186.4V183.47H137.01V183.03H138V181.9L138.46 181.77V183.03H139.8V183.47H138.46V183.46Z" fill="#4D328C"/>
<path d="M140.86 181.57C140.86 181.38 141.02 181.22 141.22 181.22C141.42 181.22 141.58 181.38 141.58 181.57C141.58 181.77 141.42 181.93 141.22 181.93C141.02 181.93 140.86 181.77 140.86 181.57ZM141 183.02H141.45V187.52H141V183.02Z" fill="#4D328C"/>
<path d="M142.64 185.27C142.64 183.94 143.69 182.92 145.01 182.92C146.32 182.92 147.37 183.94 147.37 185.27C147.37 186.6 146.32 187.62 145.01 187.62C143.7 187.62 142.64 186.6 142.64 185.27ZM146.91 185.27C146.91 184.2 146.08 183.35 145.01 183.35C143.94 183.35 143.1 184.2 143.1 185.27C143.1 186.34 143.94 187.19 145.01 187.19C146.08 187.19 146.91 186.34 146.91 185.27Z" fill="#4D328C"/>
<path d="M152.37 184.72V187.52H151.91V184.72C151.91 183.89 151.43 183.35 150.59 183.35C149.71 183.35 149.01 183.93 149.01 185.14V187.52H148.56V183.02H149.01V183.87C149.35 183.2 149.93 182.92 150.62 182.92C151.7 182.92 152.37 183.63 152.37 184.72Z" fill="#4D328C"/>
<path d="M153.62 187.21C153.62 186.99 153.79 186.8 154.03 186.8C154.26 186.8 154.44 186.98 154.44 187.21C154.44 187.44 154.26 187.62 154.03 187.62C153.79 187.61 153.62 187.43 153.62 187.21Z" fill="#4D328C"/>
<path d="M79.85 60.59C79.85 64.66 76.68 66.77 73.11 66.77C70.31 66.77 67.77 65.53 66.64 62.81L70.29 60.7C70.71 61.91 71.5 62.65 73.12 62.65C74.86 62.65 75.63 61.73 75.63 60.59C75.63 59.45 74.86 58.53 73.12 58.53H72.25L70.64 56.13L73.99 51.88H67.23V47.92H79.12V51.35L75.92 55.42C78.19 56.2 79.85 58.02 79.85 60.59Z" fill="#4D328C"/>
<path d="M94.7 60.59C94.7 64.66 91.53 66.77 87.96 66.77C85.03 66.77 82.49 65.53 81.36 62.81L85 60.69C85.42 61.9 86.21 62.64 87.96 62.64C89.7 62.64 90.47 61.72 90.47 60.58C90.47 59.44 89.7 58.52 88.09 58.52H82.31L83.08 47.9H93.78V51.86H87.04L86.85 54.4H88.36C91.79 54.41 94.7 56.52 94.7 60.59Z" fill="#4D328C"/>
<path d="M96.33 57.15C96.33 51.44 99.08 47.54 103.86 47.54C108.64 47.54 111.39 51.45 111.39 57.15C111.39 62.86 108.64 66.76 103.86 66.76C99.08 66.77 96.33 62.86 96.33 57.15ZM107.16 57.15C107.16 53.58 106.08 51.66 103.86 51.66C101.64 51.66 100.56 53.59 100.56 57.15C100.56 60.72 101.64 62.64 103.86 62.64C106.08 62.65 107.16 60.72 107.16 57.15Z" fill="#4D328C"/>
<path d="M113.28 57.15C113.28 51.44 116.03 47.54 120.81 47.54C125.59 47.54 128.34 51.45 128.34 57.15C128.34 62.86 125.59 66.76 120.81 66.76C116.03 66.77 113.28 62.86 113.28 57.15ZM124.11 57.15C124.11 53.58 123.03 51.66 120.81 51.66C118.59 51.66 117.51 53.59 117.51 57.15C117.51 60.72 118.59 62.64 120.81 62.64C123.03 62.65 124.11 60.72 124.11 57.15Z" fill="#4D328C"/>
<path d="M130.24 57.15C130.24 51.44 132.99 47.54 137.77 47.54C142.55 47.54 145.3 51.45 145.3 57.15C145.3 62.86 142.55 66.76 137.77 66.76C132.99 66.76 130.24 62.86 130.24 57.15ZM141.07 57.15C141.07 53.58 139.99 51.66 137.77 51.66C135.55 51.66 134.47 53.59 134.47 57.15C134.47 60.72 135.55 62.64 137.77 62.64C139.98 62.65 141.07 60.72 141.07 57.15Z" fill="#4D328C"/>
<path d="M52.59 69.36C52.59 70.69 51.52 71.76 50.14 71.76H49.1V73.96H47.5V66.96H50.15C51.52 66.96 52.59 68.03 52.59 69.36ZM50.99 69.36C50.99 68.85 50.63 68.46 50.14 68.46H49.1V70.26H50.15C50.63 70.26 50.99 69.87 50.99 69.36Z" fill="#4D328C"/>
<path d="M57.36 73.95L55.12 70.71V73.95H53.52V66.95H55.12V70L57.26 66.96H59.08L56.72 70.37L59.18 73.96H57.36V73.95Z" fill="#4D328C"/>
<path d="M62.28 71.65H61.52V73.95H59.92V66.95H62.72C64.05 66.95 65.12 68.02 65.12 69.35C65.12 70.21 64.6 70.99 63.83 71.38L65.32 73.95H63.6L62.28 71.65ZM61.52 70.26H62.72C63.16 70.26 63.52 69.87 63.52 69.36C63.52 68.85 63.16 68.46 62.72 68.46H61.52V70.26Z" fill="#4D328C"/>
<path d="M145.76 75.87L150.16 65.97H150.6L146.2 75.87H145.76Z" fill="#4D328C"/>
<path d="M160.19 72.02C160.19 73.65 158.91 74.89 157.34 74.89C156.27 74.89 155.43 74.34 154.97 73.49V76.97H154.42V69.27H154.97V70.55C155.42 69.7 156.27 69.15 157.34 69.15C158.92 69.15 160.19 70.39 160.19 72.02ZM159.64 72.02C159.64 70.71 158.62 69.68 157.31 69.68C156 69.68 154.98 70.71 154.98 72.02C154.98 73.33 156 74.36 157.31 74.36C158.62 74.36 159.64 73.33 159.64 72.02Z" fill="#4D328C"/>
<path d="M166.5 72.04C166.5 72.13 166.49 72.22 166.49 72.3H161.51C161.64 73.54 162.59 74.36 163.84 74.36C164.74 74.36 165.42 73.94 165.74 73.36L166.22 73.65C165.77 74.4 164.91 74.89 163.82 74.89C162.13 74.89 160.93 73.68 160.93 72.02C160.93 70.4 162.1 69.15 163.78 69.15C165.45 69.15 166.5 70.54 166.5 72.04ZM161.5 71.77H165.92C165.8 70.43 164.85 69.68 163.77 69.68C162.53 69.68 161.61 70.55 161.5 71.77Z" fill="#4D328C"/>
<path d="M169.95 69.1899V69.7199C169 69.7199 168.11 70.2999 168.11 71.7099V74.7699H167.56V69.2699H168.11V70.3499C168.49 69.4799 169.2 69.1899 169.95 69.1899Z" fill="#4D328C"/>
<path d="M181.44 71.2799V74.7699H180.89V71.2799C180.89 70.2399 180.29 69.6699 179.43 69.6699C178.51 69.6699 177.78 70.2899 177.78 71.6899V74.7599H177.23V71.2699C177.23 70.2299 176.67 69.66 175.82 69.66C174.92 69.66 174.11 70.2799 174.11 71.6799V74.7499H173.56V69.2499H174.11V70.1999C174.52 69.4399 175.18 69.1299 175.88 69.1299C176.68 69.1299 177.31 69.5299 177.6 70.2499C178 69.4799 178.7 69.1299 179.44 69.1299C180.6 69.1499 181.44 69.9099 181.44 71.2799Z" fill="#4D328C"/>
<path d="M182.39 72.02C182.39 70.39 183.68 69.15 185.28 69.15C186.88 69.15 188.16 70.39 188.16 72.02C188.16 73.65 186.87 74.89 185.28 74.89C183.68 74.89 182.39 73.65 182.39 72.02ZM187.61 72.02C187.61 70.71 186.6 69.68 185.29 69.68C183.98 69.68 182.96 70.71 182.96 72.02C182.96 73.33 183.98 74.36 185.29 74.36C186.59 74.36 187.61 73.33 187.61 72.02Z" fill="#4D328C"/>
<path d="M193.92 71.35V74.77H193.36V71.35C193.36 70.34 192.78 69.68 191.74 69.68C190.66 69.68 189.81 70.38 189.81 71.87V74.77H189.26V69.27H189.81V70.31C190.23 69.5 190.93 69.14 191.78 69.14C193.09 69.15 193.92 70.02 193.92 71.35Z" fill="#4D328C"/>
<path d="M196.43 69.81V73.39C196.43 74.36 196.95 74.38 198.07 74.28V74.78C196.63 75 195.87 74.65 195.87 73.39V69.81H194.66V69.27H195.87V67.9L196.43 67.74V69.28H198.07V69.82H196.43V69.81Z" fill="#4D328C"/>
<path d="M203.82 71.3499V74.7699H203.26V71.3499C203.26 70.3399 202.68 69.6799 201.64 69.6799C200.56 69.6799 199.71 70.3799 199.71 71.8699V74.7699H199.16V67.0699H199.71V70.3099C200.13 69.4999 200.83 69.1399 201.68 69.1399C202.99 69.1499 203.82 70.0199 203.82 71.3499Z" fill="#4D328C"/>
<path d="M6.78 32.23C6.78 29.55 8.77 27.5 11.51 27.5C13.16 27.5 14.62 28.32 15.41 29.61L13.62 30.65C13.22 29.95 12.44 29.53 11.51 29.53C9.9 29.53 8.86 30.61 8.86 32.23C8.86 33.85 9.9 34.93 11.51 34.93C12.43 34.93 13.23 34.51 13.62 33.81L15.41 34.85C14.63 36.14 13.17 36.96 11.51 36.96C8.77 36.96 6.78 34.91 6.78 32.23Z" fill="#FFEFFE"/>
<path d="M16.29 33.53C16.29 31.59 17.82 30.1 19.73 30.1C21.64 30.1 23.18 31.6 23.18 33.53C23.18 35.47 21.65 36.96 19.73 36.96C17.83 36.96 16.29 35.47 16.29 33.53ZM21.23 33.53C21.23 32.61 20.58 32 19.73 32C18.89 32 18.24 32.61 18.24 33.53C18.24 34.45 18.89 35.06 19.73 35.06C20.58 35.07 21.23 34.46 21.23 33.53Z" fill="#FFEFFE"/>
<path d="M30.76 32.79V36.78H28.81V33.07C28.81 32.26 28.3 31.89 27.68 31.89C26.97 31.89 26.47 32.31 26.47 33.23V36.78H24.52V30.28H26.47V30.89C26.82 30.41 27.47 30.1 28.33 30.1C29.64 30.1 30.76 31.04 30.76 32.79Z" fill="#FFEFFE"/>
<path d="M37.38 34.83C37.38 36.33 36.08 36.96 34.68 36.96C33.38 36.96 32.39 36.47 31.89 35.41L33.58 34.45C33.75 34.94 34.11 35.22 34.68 35.22C35.15 35.22 35.38 35.08 35.38 34.82C35.38 34.11 32.18 34.48 32.18 32.23C32.18 30.81 33.38 30.1 34.73 30.1C35.78 30.1 36.72 30.57 37.27 31.49L35.61 32.39C35.43 32.05 35.17 31.82 34.74 31.82C34.4 31.82 34.19 31.95 34.19 32.18C34.18 32.92 37.38 32.43 37.38 34.83Z" fill="#FFEFFE"/>
<path d="M44.74 30.28V36.78H42.79V36.17C42.44 36.65 41.79 36.96 40.93 36.96C39.62 36.96 38.5 36.02 38.5 34.27V30.28H40.45V33.99C40.45 34.8 40.96 35.17 41.58 35.17C42.3 35.17 42.79 34.75 42.79 33.83V30.28H44.74Z" fill="#FFEFFE"/>
<path d="M46.4 27.29H48.35V36.78H46.4V27.29Z" fill="#FFEFFE"/>
<path d="M52.48 32.15V34.45C52.48 35.01 52.96 35.06 53.82 35.01V36.78C51.27 37.04 50.53 36.27 50.53 34.45V32.15H49.49V30.28H50.53V29.04L52.48 28.46V30.28H53.82V32.15H52.48Z" fill="#FFEFFE"/>
<path d="M61.7 30.28V36.78H59.75V36.17C59.32 36.66 58.68 36.96 57.81 36.96C56.11 36.96 54.7 35.46 54.7 33.53C54.7 31.59 56.1 30.1 57.81 30.1C58.68 30.1 59.32 30.4 59.75 30.89V30.28H61.7ZM59.75 33.53C59.75 32.55 59.1 31.94 58.2 31.94C57.3 31.94 56.65 32.55 56.65 33.53C56.65 34.5 57.3 35.12 58.2 35.12C59.1 35.12 59.75 34.51 59.75 33.53Z" fill="#FFEFFE"/>
<path d="M69.61 32.79V36.78H67.66V33.07C67.66 32.26 67.15 31.89 66.53 31.89C65.82 31.89 65.32 32.31 65.32 33.23V36.78H63.37V30.28H65.32V30.89C65.67 30.41 66.32 30.1 67.18 30.1C68.49 30.1 69.61 31.04 69.61 32.79Z" fill="#FFEFFE"/>
<path d="M73.65 32.15V34.45C73.65 35.01 74.13 35.06 74.99 35.01V36.78C72.44 37.04 71.7 36.27 71.7 34.45V32.15H70.66V30.28H71.7V29.04L73.65 28.46V30.28H74.99V32.15H73.65Z" fill="#FFEFFE"/>
<path d="M85.32 289.05C85.99 289.05 86.61 289.19 87.17 289.48C87.73 289.76 88.16 290.15 88.46 290.65L87.72 291.15C87.46 290.76 87.12 290.46 86.7 290.24C86.28 290.02 85.82 289.91 85.31 289.91C84.88 289.91 84.48 289.99 84.11 290.14C83.74 290.29 83.41 290.5 83.14 290.77C82.87 291.04 82.65 291.37 82.5 291.75C82.35 292.13 82.27 292.56 82.27 293.02C82.27 293.47 82.35 293.9 82.5 294.28C82.65 294.66 82.87 295 83.14 295.26C83.41 295.53 83.73 295.74 84.11 295.89C84.49 296.04 84.89 296.12 85.31 296.12C85.82 296.12 86.28 296.01 86.7 295.79C87.12 295.57 87.46 295.27 87.72 294.88L88.44 295.41C88.12 295.89 87.68 296.27 87.13 296.55C86.58 296.83 85.98 296.97 85.32 296.97C84.76 296.97 84.23 296.87 83.74 296.67C83.25 296.47 82.83 296.2 82.48 295.85C82.13 295.5 81.85 295.08 81.65 294.59C81.45 294.1 81.35 293.57 81.35 293C81.35 292.43 81.45 291.9 81.65 291.41C81.85 290.92 82.13 290.5 82.48 290.15C82.83 289.8 83.25 289.53 83.74 289.33C84.22 289.15 84.75 289.05 85.32 289.05Z" fill="#FFEFFE"/>
<path d="M92.19 291.55C92.97 291.55 93.63 291.81 94.15 292.33C94.67 292.85 94.93 293.49 94.93 294.26C94.93 295.03 94.67 295.68 94.15 296.2C93.63 296.72 92.97 296.98 92.19 296.98C91.41 296.98 90.75 296.72 90.23 296.2C89.71 295.68 89.45 295.04 89.45 294.26C89.45 293.49 89.71 292.85 90.23 292.33C90.76 291.81 91.41 291.55 92.19 291.55ZM93.55 292.87C93.19 292.5 92.73 292.32 92.19 292.32C91.65 292.32 91.19 292.5 90.83 292.87C90.47 293.24 90.29 293.7 90.29 294.26C90.29 294.82 90.47 295.29 90.83 295.65C91.19 296.02 91.65 296.2 92.19 296.2C92.73 296.2 93.19 296.02 93.55 295.65C93.91 295.28 94.09 294.82 94.09 294.26C94.09 293.7 93.91 293.24 93.55 292.87Z" fill="#FFEFFE"/>
<path d="M98.92 291.55C99.57 291.55 100.09 291.74 100.49 292.12C100.89 292.5 101.09 293.01 101.09 293.63V296.86H100.27V293.9C100.27 293.4 100.14 293.02 99.88 292.74C99.62 292.46 99.25 292.32 98.77 292.32C98.32 292.32 97.94 292.47 97.63 292.76C97.32 293.05 97.17 293.44 97.17 293.92V296.86H96.34V291.65H97.15V292.39C97.35 292.1 97.6 291.88 97.91 291.75C98.22 291.62 98.57 291.55 98.92 291.55Z" fill="#FFEFFE"/>
<path d="M106.32 291.65V292.39H104.07V295.02C104.07 295.41 104.16 295.71 104.35 295.9C104.54 296.09 104.79 296.19 105.1 296.19C105.49 296.19 105.86 296.07 106.19 295.82L106.58 296.44C106.12 296.78 105.61 296.96 105.03 296.96C104.46 296.96 104.02 296.8 103.71 296.48C103.4 296.16 103.25 295.68 103.25 295.04V292.39H102.11V291.65H103.25V290H104.07V291.66H106.32V291.65Z" fill="#FFEFFE"/>
<path d="M112.56 291.65V296.86H111.74V296.08C111.29 296.67 110.65 296.96 109.84 296.96C109.1 296.96 108.49 296.7 107.99 296.19C107.49 295.67 107.24 295.03 107.24 294.25C107.24 293.47 107.49 292.83 107.99 292.31C108.49 291.79 109.11 291.54 109.84 291.54C110.65 291.54 111.28 291.83 111.74 292.42V291.64H112.56V291.65ZM109.94 292.32C109.39 292.32 108.94 292.51 108.6 292.88C108.25 293.25 108.08 293.71 108.08 294.26C108.08 294.81 108.25 295.27 108.6 295.64C108.95 296.01 109.4 296.2 109.94 296.2C110.48 296.2 110.92 296.02 111.27 295.65C111.62 295.28 111.79 294.82 111.79 294.26C111.79 293.71 111.62 293.25 111.27 292.88C110.92 292.51 110.48 292.32 109.94 292.32Z" fill="#FFEFFE"/>
<path d="M116.68 291.55C117.07 291.55 117.43 291.62 117.76 291.76C118.09 291.9 118.38 292.1 118.61 292.37L118.08 292.92C117.67 292.52 117.19 292.32 116.66 292.32C116.14 292.32 115.7 292.5 115.35 292.87C115 293.24 114.82 293.7 114.82 294.26C114.82 294.82 115 295.29 115.35 295.65C115.7 296.02 116.14 296.2 116.66 296.2C117.2 296.2 117.68 296 118.1 295.59L118.61 296.15C118.38 296.41 118.09 296.62 117.76 296.76C117.43 296.9 117.07 296.97 116.68 296.97C115.89 296.97 115.24 296.71 114.74 296.2C114.24 295.69 113.99 295.04 113.99 294.26C113.99 293.48 114.24 292.84 114.74 292.32C115.24 291.8 115.88 291.55 116.68 291.55Z" fill="#FFEFFE"/>
<path d="M123.51 291.65V292.39H121.26V295.02C121.26 295.41 121.35 295.71 121.54 295.9C121.73 296.09 121.98 296.19 122.29 296.19C122.68 296.19 123.05 296.07 123.38 295.82L123.77 296.44C123.31 296.78 122.8 296.96 122.22 296.96C121.65 296.96 121.21 296.8 120.9 296.48C120.59 296.16 120.44 295.68 120.44 295.04V292.39H119.3V291.65H120.44V290H121.26V291.66H123.51V291.65Z" fill="#FFEFFE"/>
<path d="M135.88 289.16V296.86H135V290.15L132.32 296.01H131.39L128.71 290.2V296.87H127.82V289.17H129.16L131.85 294.99L134.53 289.17H135.88V289.16Z" fill="#FFEFFE"/>
<path d="M140.03 291.55C140.74 291.55 141.32 291.8 141.78 292.3C142.24 292.8 142.47 293.45 142.48 294.24C142.48 294.35 142.47 294.46 142.46 294.55H138.29C138.34 295.09 138.54 295.51 138.88 295.81C139.22 296.11 139.64 296.25 140.13 296.25C140.75 296.25 141.3 296.03 141.78 295.6L142.22 296.16C141.65 296.7 140.94 296.97 140.08 296.97C139.31 296.97 138.67 296.72 138.18 296.22C137.69 295.72 137.44 295.07 137.44 294.26C137.44 293.47 137.68 292.82 138.17 292.31C138.67 291.8 139.29 291.55 140.03 291.55ZM140.02 292.28C139.55 292.28 139.16 292.43 138.86 292.72C138.56 293.01 138.37 293.4 138.3 293.88H141.64C141.59 293.39 141.42 293 141.12 292.71C140.83 292.43 140.46 292.28 140.02 292.28Z" fill="#FFEFFE"/>
<path d="M147.76 289.16V292.56H152.42V289.16H153.31V296.86H152.42V293.4H147.76V296.86H146.87V289.16H147.76Z" fill="#FFEFFE"/>
<path d="M157.46 291.55C158.17 291.55 158.75 291.8 159.21 292.3C159.67 292.8 159.9 293.45 159.91 294.24C159.91 294.35 159.9 294.46 159.89 294.55H155.72C155.77 295.09 155.97 295.51 156.31 295.81C156.65 296.11 157.07 296.25 157.56 296.25C158.18 296.25 158.73 296.03 159.21 295.6L159.65 296.16C159.08 296.7 158.37 296.97 157.51 296.97C156.74 296.97 156.1 296.72 155.61 296.22C155.12 295.72 154.87 295.07 154.87 294.26C154.87 293.47 155.11 292.82 155.6 292.31C156.09 291.8 156.71 291.55 157.46 291.55ZM157.44 292.28C156.97 292.28 156.58 292.43 156.28 292.72C155.98 293.01 155.79 293.4 155.72 293.88H159.06C159.01 293.39 158.84 293 158.54 292.71C158.26 292.43 157.89 292.28 157.44 292.28Z" fill="#FFEFFE"/>
<path d="M163.68 291.55C164.06 291.55 164.38 291.61 164.64 291.73L164.44 292.54C164.18 292.4 163.88 292.33 163.54 292.33C163.13 292.33 162.79 292.48 162.53 292.78C162.27 293.08 162.14 293.47 162.14 293.96V296.88H161.32V291.67H162.13V292.4C162.31 292.13 162.53 291.93 162.8 291.78C163.07 291.62 163.37 291.55 163.68 291.55Z" fill="#FFEFFE"/>
<path d="M167.75 291.55C168.46 291.55 169.04 291.8 169.5 292.3C169.96 292.8 170.19 293.45 170.2 294.24C170.2 294.35 170.19 294.46 170.18 294.55H166.01C166.06 295.09 166.26 295.51 166.6 295.81C166.94 296.11 167.36 296.25 167.85 296.25C168.47 296.25 169.02 296.03 169.5 295.6L169.94 296.16C169.37 296.7 168.66 296.97 167.8 296.97C167.03 296.97 166.39 296.72 165.9 296.22C165.41 295.72 165.16 295.07 165.16 294.26C165.16 293.47 165.4 292.82 165.89 292.31C166.38 291.8 167 291.55 167.75 291.55ZM167.73 292.28C167.26 292.28 166.87 292.43 166.57 292.72C166.27 293.01 166.08 293.4 166.01 293.88H169.35C169.3 293.39 169.13 293 168.83 292.71C168.55 292.43 168.18 292.28 167.73 292.28Z" fill="#FFEFFE"/>
</g>
<defs>
<clipPath id="clip0_9_2136">
<rect width="251.54" height="328.67" fill="white"/>
</clipPath>
</defs>
</svg>
