<svg width="24" height="24" viewBox="0 0 24 24" fill="none" xmlns="http://www.w3.org/2000/svg">
<path d="M23.6966 8.70105C23.0594 7.58295 21.599 7.19292 20.4837 7.81697C20.2448 7.94698 15.4387 10.7032 15.2528 17.2298C16.4742 17.5678 17.7488 18.0879 19.103 18.868C20.0589 19.414 20.4837 20.5321 20.1651 21.5462C20.112 21.7022 20.0323 21.8842 19.9527 22.0402C19.3154 23.1063 17.9346 23.4964 16.8194 22.9243C17.1646 23.1323 17.5629 23.2363 17.9878 23.2363C18.1736 23.2363 18.3595 23.2103 18.5188 23.1843C19.7934 22.8983 20.5899 21.6502 20.2713 20.4021C18.8374 14.3956 22.369 12.1074 22.7938 11.8473C23.9356 11.1973 24.3339 9.81915 23.6966 8.70105Z" fill="#8CC86D"/>
<path d="M19.9264 22.0402C20.0326 21.8842 20.0857 21.7281 20.1388 21.5461C20.4575 20.532 20.0326 19.4139 19.0767 18.8679C17.7225 18.0878 16.4214 17.5678 15.2265 17.2297C15.2 18.5039 15.3328 19.908 15.7045 21.4421C15.8638 22.0922 16.2887 22.6122 16.8197 22.9242C17.9084 23.4963 19.2891 23.1323 19.9264 22.0402Z" fill="#8CC86D"/>
<path d="M23.8827 10.5733C23.5376 11.5614 22.5551 12.2374 21.4399 12.1594C11.4029 11.3013 9.78316 3.76066 9.7035 3.44863C9.43797 2.20052 10.2877 0.978409 11.5622 0.718386C12.8367 0.484365 14.0847 1.26443 14.3237 2.51255C14.4299 2.98059 15.5717 6.98494 21.8382 7.53099C23.1393 7.635 24.0952 8.77911 23.989 10.0532C23.9624 10.2092 23.9358 10.3912 23.8827 10.5733Z" fill="#91D8F6"/>
<path d="M0.118238 10.4954C0.436872 11.4835 1.44589 12.1856 2.56111 12.0816C12.5981 11.2755 14.2709 3.73483 14.3506 3.42281C14.6161 2.17469 13.793 0.952584 12.4919 0.692561C11.2174 0.432538 9.96936 1.23861 9.70383 2.48672C9.59762 2.95476 8.45585 6.95912 2.16281 7.47917C0.861722 7.58318 -0.120737 8.70128 0.0120276 9.97539C0.0120276 10.1574 0.0385788 10.3394 0.118238 10.4954Z" fill="#EE3197"/>
<path d="M6.01301 23.2625C7.07513 23.2625 8.05758 22.5344 8.32311 21.4683C10.6332 11.8215 3.83567 7.94711 3.54359 7.79109C2.40181 7.16704 0.967959 7.55707 0.304137 8.67517C-0.333133 9.79327 0.0651572 11.1974 1.18038 11.8215C1.60523 12.0815 5.13676 14.3957 3.7029 20.4022C3.41082 21.6503 4.18086 22.8984 5.4554 23.1845C5.64127 23.2365 5.82714 23.2625 6.01301 23.2625Z" fill="#F58634"/>
<path d="M15.6775 21.4701C15.3057 19.9099 15.173 18.5058 15.1995 17.2577C8.69408 15.4375 4.55182 19.1819 4.3394 19.3639C3.3835 20.248 3.35695 21.7041 4.25974 22.6402C5.16254 23.5503 6.6495 23.6023 7.57886 22.7442C7.9506 22.4062 11.2432 19.7799 16.6599 22.9002C16.6865 22.9262 16.7396 22.9262 16.7662 22.9522C16.2617 22.6402 15.8368 22.1201 15.6775 21.4701Z" fill="#F2C94C"/>
</svg>
