<svg width="104" height="24" viewBox="0 0 104 24" fill="none" xmlns="http://www.w3.org/2000/svg">
<path d="M91.6336 12.0242C91.1128 11.1105 89.9194 10.7918 89.008 11.3017C88.8128 11.408 84.8853 13.6603 84.7335 18.9937C85.7316 19.2699 86.7731 19.6949 87.8797 20.3324C88.6609 20.7786 89.008 21.6923 88.7477 22.521C88.7043 22.6484 88.6392 22.7972 88.5741 22.9247C88.0533 23.7959 86.925 24.1146 86.0137 23.6471C86.2957 23.8171 86.6212 23.9021 86.9684 23.9021C87.1203 23.9021 87.2722 23.8809 87.4024 23.8596C88.4439 23.6259 89.0948 22.6059 88.8345 21.586C87.6627 16.6776 90.5486 14.8077 90.8958 14.5953C91.8288 14.064 92.1543 12.9379 91.6336 12.0242Z" fill="#91CA74"/>
<path d="M88.5526 22.9246C88.6394 22.7971 88.6828 22.6696 88.7262 22.5209C88.9866 21.6922 88.6394 20.7785 87.8582 20.3323C86.7516 19.6949 85.6884 19.2699 84.712 18.9937C84.6903 20.0348 84.7988 21.1822 85.1025 22.4359C85.2327 22.9671 85.5799 23.3921 86.0139 23.6471C86.9035 24.1145 88.0318 23.8171 88.5526 22.9246Z" fill="#91CA74"/>
<path d="M91.7855 13.554C91.5034 14.3615 90.7006 14.9139 89.7893 14.8502C81.5873 14.149 80.2637 7.98693 80.1986 7.73195C79.9816 6.71202 80.6759 5.71334 81.7175 5.50086C82.759 5.30962 83.7788 5.94708 83.9741 6.96701C84.0609 7.34948 84.9939 10.6217 90.1147 11.068C91.178 11.153 91.9591 12.0879 91.8723 13.1291C91.8506 13.2566 91.8289 13.4053 91.7855 13.554Z" fill="#B0E3F9"/>
<path d="M72.3658 13.4905C72.6261 14.2979 73.4507 14.8716 74.362 14.7866C82.564 14.1279 83.931 7.96586 83.9961 7.71088C84.2131 6.69095 83.5404 5.69227 82.4772 5.47979C81.4357 5.2673 80.4159 5.92601 80.1989 6.94594C80.1121 7.32841 79.1791 10.6007 74.0365 11.0256C72.9733 11.1106 72.1705 12.0243 72.279 13.0655C72.279 13.2142 72.3007 13.363 72.3658 13.4905Z" fill="#EE3197"/>
<path d="M77.1829 23.9234C78.0509 23.9234 78.8537 23.3284 79.0707 22.4572C80.9584 14.574 75.4036 11.408 75.165 11.2805C74.2319 10.7705 73.0602 11.0893 72.5178 12.003C71.997 12.9166 72.3225 14.0641 73.2338 14.574C73.581 14.7865 76.4669 16.6776 75.2952 21.586C75.0565 22.606 75.6857 23.6259 76.7273 23.8596C76.8791 23.9021 77.031 23.9234 77.1829 23.9234Z" fill="#F58634"/>
<path d="M85.0803 22.4586C84.7765 21.1837 84.668 20.0363 84.6897 19.0163C79.3736 17.5289 75.9886 20.5887 75.815 20.7375C75.0339 21.4599 75.0122 22.6498 75.7499 23.4148C76.4877 24.1585 77.7028 24.201 78.4622 23.4998C78.766 23.2235 81.4566 21.0774 85.8831 23.6273C85.9048 23.6485 85.9482 23.6485 85.9699 23.6698C85.5576 23.4148 85.2104 22.9898 85.0803 22.4586Z" fill="#F2C94C"/>
<path d="M1.41227 22.7146C1.13019 22.4384 1 22.1197 1 21.7585V1.38115C1 1.01993 1.13019 0.679952 1.41227 0.42497C1.69435 0.127491 2.01983 0 2.4104 0C2.77927 0 3.10475 0.127491 3.38683 0.403721C3.64721 0.679952 3.7991 0.998679 3.7991 1.3599V21.7372C3.7991 22.0984 3.66891 22.4384 3.38683 22.6934C3.12644 22.9696 2.80097 23.0971 2.4104 23.0971C2.01983 23.1396 1.69435 22.9909 1.41227 22.7146Z" fill="#8B39B2"/>
<path d="M7.11888 4.61149C6.7934 4.29276 6.61981 3.88904 6.61981 3.37908C6.61981 2.86912 6.7934 2.46539 7.11888 2.14667C7.44435 1.82794 7.85662 1.6792 8.33399 1.6792C8.83305 1.6792 9.24532 1.82794 9.5708 2.14667C9.89627 2.46539 10.0699 2.86912 10.0699 3.37908C10.0699 3.88904 9.89627 4.29276 9.5708 4.61149C9.24532 4.93022 8.83305 5.07896 8.33399 5.07896C7.85662 5.07896 7.46605 4.93022 7.11888 4.61149ZM7.35756 22.7152C7.09718 22.439 6.94529 22.1203 6.94529 21.759V8.47872C6.94529 8.11749 7.07548 7.79877 7.35756 7.52254C7.61794 7.26756 7.94342 7.11882 8.33399 7.11882C8.70286 7.11882 9.05003 7.24631 9.31042 7.52254C9.59249 7.77752 9.72269 8.09625 9.72269 8.47872V21.7378C9.72269 22.099 9.59249 22.439 9.31042 22.694C9.02834 22.9702 8.70286 23.0977 8.33399 23.0977C7.94342 23.1402 7.61794 22.9914 7.35756 22.7152Z" fill="#8B39B2"/>
<path d="M24.261 7.7342C25.2374 8.26541 25.9969 9.03036 26.561 10.029C27.1252 11.0277 27.4073 12.2176 27.4073 13.5988V21.7795C27.4073 22.1407 27.2771 22.4594 26.995 22.7356C26.7346 22.9906 26.4091 23.1394 26.0186 23.1394C25.6497 23.1394 25.3242 23.0119 25.0421 22.7356C24.7818 22.4807 24.6299 22.1619 24.6299 21.7795V13.8538C24.6299 12.4939 24.1959 11.4314 23.3497 10.624C22.5034 9.81655 21.4619 9.43408 20.2034 9.43408C18.9232 9.43408 17.86 9.8803 16.992 10.7515C16.1241 11.6227 15.6901 12.7276 15.6901 14.0238V21.7795C15.6901 22.1407 15.5599 22.4594 15.2778 22.7356C14.9958 22.9906 14.6703 23.1394 14.3014 23.1394C13.9325 23.1394 13.6071 23.0119 13.325 22.7356C13.0646 22.4807 12.9127 22.1619 12.9127 21.7795V8.4779C12.9127 8.11667 13.0429 7.79795 13.325 7.52172C13.5854 7.26673 13.9108 7.11799 14.3014 7.11799C14.6703 7.11799 15.0175 7.24549 15.2778 7.52172C15.5599 7.7767 15.6901 8.09543 15.6901 8.4779V9.49783C16.276 8.69038 17.0137 8.05293 17.9251 7.60671C18.8364 7.16049 19.8562 6.92676 20.9628 6.92676C22.1996 6.94801 23.3063 7.20299 24.261 7.7342Z" fill="#8B39B2"/>
<path d="M43.8541 21.822C43.8541 22.3107 43.6588 22.6719 43.2899 22.9269C43.0512 23.0756 42.7692 23.1606 42.4871 23.1606C42.0097 23.1606 41.6408 22.9694 41.3805 22.6082L36.1294 15.2137L33.1568 17.7635V21.7582C33.1568 22.1194 33.0266 22.4594 32.7445 22.7144C32.4624 22.9906 32.1369 23.1181 31.7681 23.1181C31.3992 23.1181 31.0737 22.9906 30.7916 22.7144C30.5313 22.4382 30.3794 22.1194 30.3794 21.7582V1.3809C30.3794 1.01968 30.5096 0.6797 30.7916 0.424718C31.052 0.148487 31.3775 0.0209961 31.7681 0.0209961C32.1369 0.0209961 32.4841 0.148487 32.7445 0.424718C33.0266 0.700948 33.1568 1.01968 33.1568 1.3809V14.3637L41.1418 7.39423C41.3588 7.18174 41.6625 7.0755 42.0097 7.0755C42.4437 7.0755 42.7692 7.22424 43.0512 7.54296C43.2682 7.7767 43.3767 8.07418 43.3767 8.4354C43.3767 8.86037 43.2248 9.1791 42.8994 9.45533L38.1908 13.4925L43.572 21.0995C43.7673 21.312 43.8541 21.567 43.8541 21.822Z" fill="#8B39B2"/>
<path d="M45.8941 22.1204C45.4384 21.8654 45.2214 21.5042 45.2214 21.0367C45.2214 20.718 45.3516 20.4205 45.5903 20.208C45.829 19.9743 46.1327 19.8681 46.4582 19.8681C46.6535 19.8681 46.8271 19.9106 46.9573 19.9743C48.3026 20.6117 49.6479 20.9305 51.0149 20.9305C51.9696 20.9305 52.7725 20.718 53.4017 20.3143C54.031 19.9105 54.3564 19.4006 54.3564 18.7631C54.3564 18.1682 54.0744 17.722 53.4885 17.4457C52.9026 17.1482 52.013 16.8295 50.7762 16.5108C49.6262 16.2133 48.6715 15.8946 47.9337 15.6184C47.196 15.3209 46.5667 14.8747 46.0459 14.2584C45.5252 13.6422 45.2648 12.856 45.2648 11.8574C45.2648 10.3912 45.7856 9.22256 46.8271 8.30887C47.8686 7.41643 49.2573 6.97021 50.9498 6.97021C51.796 6.97021 52.6857 7.09771 53.597 7.33144C54.5083 7.56517 55.3329 7.8839 56.0706 8.28762C56.2659 8.39386 56.4395 8.5426 56.548 8.75509C56.6782 8.94633 56.7216 9.15881 56.7216 9.37129C56.7216 9.69002 56.5914 9.9875 56.3527 10.2C56.114 10.4337 55.8102 10.54 55.4848 10.54C55.2895 10.54 55.1159 10.4975 54.9423 10.4125C54.2913 10.0937 53.6404 9.83876 52.946 9.64753C52.2734 9.45629 51.6441 9.37129 51.08 9.37129C50.1686 9.37129 49.4092 9.60503 48.845 10.0512C48.2592 10.4975 47.9771 11.0712 47.9771 11.7724C47.9771 12.2398 48.129 12.6011 48.4545 12.8985C48.7799 13.196 49.1705 13.4298 49.6479 13.5785C50.1252 13.7485 50.7979 13.9397 51.6875 14.1947C52.7942 14.4709 53.7272 14.7684 54.4432 15.0446C55.1593 15.3209 55.7885 15.7671 56.3093 16.3408C56.8301 16.9145 57.0687 17.6795 57.0687 18.6569C57.0687 20.123 56.4829 21.2705 55.3112 22.1204C54.1395 22.9703 52.7291 23.3741 51.0366 23.3741C49.2356 23.3316 47.4997 22.9278 45.8941 22.1204Z" fill="#8B39B2"/>
<path d="M70.6302 22.396C70.4567 22.6085 70.2397 22.7572 69.9793 22.8422C69.0029 23.1397 68.0915 23.3097 67.2453 23.3097C65.6396 23.3097 64.3811 22.7997 63.4915 21.8011C62.8839 21.2061 62.4716 20.5261 62.233 19.74C61.9943 18.9538 61.8858 17.9976 61.8858 16.8927V9.96565H59.5207C59.1735 9.96565 58.8697 9.83815 58.6093 9.60442C58.3706 9.37069 58.2404 9.07321 58.2404 8.71198C58.2404 8.35076 58.3706 8.07453 58.6093 7.81955C58.848 7.58581 59.1518 7.45832 59.5207 7.45832H61.8858V3.61235C61.8858 3.25112 62.016 2.91114 62.2981 2.65616C62.5801 2.37993 62.9056 2.25244 63.2745 2.25244C63.6434 2.25244 63.9905 2.37993 64.2509 2.65616C64.533 2.93239 64.6632 3.25112 64.6632 3.61235V7.47957H68.9378C69.2849 7.47957 69.5887 7.60706 69.8491 7.8408C70.0878 8.07453 70.218 8.37201 70.218 8.73323C70.218 9.09446 70.0878 9.37069 69.8491 9.62567C69.6104 9.8594 69.3066 9.98689 68.9378 9.98689H64.6632V17.2964C64.6632 18.0188 64.7283 18.6138 64.8585 19.0813C64.9887 19.5487 65.2056 19.9312 65.5311 20.2499C65.9868 20.6961 66.5726 20.9086 67.3321 20.9086C67.8745 20.9086 68.5255 20.8024 69.3066 20.5899C69.3717 20.5686 69.4802 20.5474 69.6321 20.5474C69.9576 20.5474 70.2614 20.6536 70.4784 20.8874C70.717 21.1211 70.8255 21.3973 70.8255 21.7586C70.8906 21.971 70.8038 22.1835 70.6302 22.396Z" fill="#8B39B2"/>
<path d="M103.113 7.33047C103.395 7.58545 103.525 7.90418 103.525 8.28665C103.525 8.64788 103.395 8.96661 103.113 9.24284C102.831 9.49782 102.505 9.64656 102.136 9.64656C100.574 9.64656 99.3372 10.114 98.4259 11.0277C97.5146 11.9414 97.0589 13.2588 97.0589 15.0012V21.8219C97.0589 22.1832 96.9287 22.5019 96.6466 22.7781C96.3645 23.0331 96.0391 23.1818 95.6702 23.1818C95.3013 23.1818 94.9758 23.0544 94.6938 22.7781C94.4334 22.5231 94.2815 22.2044 94.2815 21.8219V8.47789C94.2815 8.11667 94.4117 7.79794 94.6938 7.52171C94.9541 7.26673 95.2796 7.11799 95.6702 7.11799C96.0391 7.11799 96.3862 7.24548 96.6466 7.52171C96.9287 7.77669 97.0589 8.09542 97.0589 8.47789V9.49782C97.6231 8.71162 98.3391 8.09542 99.207 7.6492C100.097 7.20298 101.073 6.96925 102.136 6.948C102.505 6.948 102.852 7.07549 103.113 7.33047Z" fill="#8B39B2"/>
</svg>
