<svg width="187" height="120" viewBox="0 0 187 120" fill="none" xmlns="http://www.w3.org/2000/svg">
<rect x="18" y="11" width="27.6364" height="27.6364" rx="4.60606" fill="#FBFCFF"/>
<path d="M40.6473 20.4833C40.4364 19.696 39.8121 19.0781 39.0185 18.8676C37.5812 18.4849 31.8209 18.4849 31.8209 18.4849C31.8209 18.4849 26.0577 18.4849 24.6232 18.8676C23.8296 19.0781 23.2053 19.696 22.9944 20.4833C22.606 21.9077 22.606 24.8822 22.606 24.8822C22.606 24.8822 22.606 27.8566 22.9916 29.281C23.2025 30.0684 23.8268 30.6862 24.6204 30.8967C26.0577 31.2795 31.8181 31.2795 31.8181 31.2795C31.8181 31.2795 37.5812 31.2795 39.0157 30.8967C39.8093 30.6862 40.4336 30.0684 40.6445 29.281C41.0302 27.8566 41.0302 24.8822 41.0302 24.8822C41.0302 24.8822 41.0302 21.9077 40.6473 20.4833ZM29.934 27.5805V22.1838L34.7482 24.8822L29.934 27.5805Z" fill="#DC3646"/>
<rect x="59.4546" y="11" width="27.6364" height="27.6364" rx="4.60606" fill="#FBFCFF"/>
<path fill-rule="evenodd" clip-rule="evenodd" d="M76.71 15.6214C76.7111 15.9025 76.7938 19.9641 81.0937 20.2174C81.0937 21.3887 81.0951 22.2379 81.0951 23.3556C80.7695 23.3743 78.2644 23.1941 76.7053 21.8155L76.7005 27.925C76.7597 32.1654 73.6117 34.7459 69.497 33.8545C62.4016 31.7505 64.7594 21.3185 71.8838 22.4351C71.8838 25.8029 71.8856 22.4341 71.8856 25.8029C68.9423 25.3737 67.9578 27.8008 68.7401 29.5385C69.4516 31.1208 72.3822 31.4637 73.4044 29.2316C73.5202 28.7947 73.5779 28.2967 73.5779 27.7375V15.606L76.71 15.6214V15.6214Z" fill="#282828"/>
<rect x="100.909" y="11" width="27.6364" height="27.6364" rx="4.60606" fill="#FBFCFF"/>
<path d="M111.296 32.3032C118.253 32.3032 122.057 26.5426 122.057 21.5501C122.057 21.3855 122.057 21.2209 122.049 21.0642C122.786 20.5312 123.43 19.865 123.939 19.1048C123.265 19.4026 122.535 19.6064 121.767 19.7004C122.551 19.2302 123.147 18.4935 123.43 17.6078C122.7 18.0389 121.892 18.3524 121.029 18.5248C120.339 17.7881 119.359 17.3335 118.269 17.3335C116.182 17.3335 114.488 19.0264 114.488 21.1112C114.488 21.409 114.519 21.699 114.59 21.9733C111.445 21.8166 108.66 20.3118 106.794 18.0232C106.472 18.5797 106.284 19.2302 106.284 19.9199C106.284 21.2288 106.95 22.3887 107.97 23.0627C107.351 23.0471 106.77 22.8746 106.26 22.5925V22.6395C106.26 24.4735 107.562 25.994 109.296 26.3467C108.982 26.4329 108.645 26.4799 108.3 26.4799C108.056 26.4799 107.821 26.4564 107.586 26.4094C108.064 27.9142 109.46 29.0036 111.115 29.0349C109.821 30.046 108.19 30.6495 106.417 30.6495C106.111 30.6495 105.813 30.6338 105.515 30.5946C107.17 31.6762 109.162 32.3032 111.296 32.3032Z" fill="#1DA1F2"/>
<rect x="142.364" y="11" width="27.6364" height="27.6364" rx="4.60606" fill="#FBFCFF"/>
<path d="M160.15 25.8913L160.659 22.5821H157.484V20.4356C157.484 19.5323 157.927 18.6469 159.349 18.6469H160.793V15.8296C160.793 15.8296 159.483 15.606 158.231 15.606C155.615 15.606 153.907 17.189 153.907 20.06V22.5821H151V25.8913H153.907V34.0302H157.484V25.8913H160.15Z" fill="#1877F2"/>
<rect x="18" y="47" width="27.6364" height="27.6364" rx="4.60606" fill="#FBFCFF"/>
<path d="M32.5766 59.1364C32.671 59.1565 32.698 59.0896 32.7384 59.0362C33.7699 57.5328 35.2462 57.0517 36.9923 57.2655C39.0821 57.5194 40.4169 58.8558 40.8753 61.0408C40.9764 61.5219 41.0236 62.0096 41.0236 62.4974C41.0304 64.8227 41.0236 67.148 41.0304 69.48C41.0304 69.7072 40.9764 69.7873 40.7338 69.7807C39.6754 69.7673 38.6237 69.7673 37.5653 69.7807C37.3024 69.7873 37.2484 69.7005 37.2484 69.4599C37.2552 67.3217 37.2552 65.1835 37.2484 63.0453C37.2484 62.631 37.2147 62.2301 37.0732 61.8292C36.8574 61.2212 36.4395 60.8336 35.8395 60.6064C34.2216 59.9984 32.6171 61.0274 32.5969 62.738C32.5699 64.8895 32.5901 67.0344 32.5901 69.186C32.5901 69.774 32.5901 69.774 31.9767 69.774C31.0329 69.774 30.0891 69.7673 29.1453 69.7807C28.9026 69.7807 28.8149 69.7339 28.8149 69.4733C28.8284 65.6312 28.8217 61.7891 28.8217 57.9537C28.8217 57.7533 28.8689 57.6865 29.0846 57.6865C30.1632 57.6998 31.2418 57.6931 32.3205 57.6865C32.5295 57.6865 32.5969 57.7466 32.5834 57.9537C32.5632 58.3413 32.5766 58.7422 32.5766 59.1364Z" fill="#0478B5"/>
<path d="M22.7274 63.7736C22.7274 61.8893 22.7342 60.0117 22.7207 58.1274C22.7207 57.8067 22.8218 57.7399 23.1184 57.7465C24.1297 57.7666 25.1409 57.7599 26.1521 57.7465C26.3948 57.7465 26.4824 57.8 26.4824 58.0606C26.4757 61.8693 26.4757 65.6779 26.4824 69.4866C26.4824 69.7271 26.4015 69.7806 26.1723 69.7806C25.1274 69.7672 24.0825 69.7672 23.0375 69.7806C22.7746 69.7873 22.7274 69.687 22.7274 69.4532C22.7342 67.5622 22.7274 65.6646 22.7274 63.7736Z" fill="#0478B5"/>
<path d="M22.606 53.4569C22.6195 52.3544 23.4217 51.5993 24.5812 51.606C25.707 51.6194 26.4891 52.4212 26.4688 53.5437C26.4486 54.6195 25.6262 55.3946 24.5071 55.3879C23.388 55.3879 22.5993 54.5794 22.606 53.4569Z" fill="#0478B5"/>
<rect x="59.4546" y="47" width="27.6364" height="27.6364" rx="4.60606" fill="#FBFCFF"/>
<path d="M76.6929 51.606H69.7938C66.6192 51.606 64.0605 54.176 64.0605 57.3495V64.2468C64.0605 67.4206 66.6192 70.0302 69.7938 70.0302H76.6929C79.8675 70.0302 82.4848 67.4206 82.4848 64.2468V57.3495C82.4848 54.176 79.8675 51.606 76.6929 51.606ZM80.7489 64.2468C80.7489 66.4652 78.9119 68.2868 76.6929 68.2868H69.7938C67.5746 68.2868 65.757 66.4652 65.757 64.2468V57.3495C65.757 55.1312 67.5746 53.3097 69.7938 53.3097H76.6929C78.9119 53.3097 80.7489 55.1312 80.7489 57.3495V64.2468Z" fill="url(#paint0_linear_10444_61976)"/>
<path d="M73.2434 56.2002C70.7034 56.2002 68.644 58.259 68.644 60.7985C68.644 63.3377 70.7034 65.3965 73.2434 65.3965C75.7835 65.3965 77.8428 63.3377 77.8428 60.7985C77.8428 58.259 75.7835 56.2002 73.2434 56.2002ZM73.2434 63.6723C71.6589 63.6723 70.3689 62.3825 70.3689 60.7985C70.3689 59.213 71.6589 57.9246 73.2434 57.9246C74.8279 57.9246 76.118 59.2131 76.118 60.7985C76.118 62.3825 74.8279 63.6723 73.2434 63.6723Z" fill="url(#paint1_linear_10444_61976)"/>
<path d="M78.1877 55.2422C77.8492 55.2422 77.5747 55.5165 77.5747 55.8549C77.5747 56.1932 77.8492 56.4677 78.1877 56.4677C78.5259 56.4677 78.8005 56.1932 78.8005 55.8549C78.8005 55.5165 78.5259 55.2422 78.1877 55.2422Z" fill="url(#paint2_linear_10444_61976)"/>
<rect x="100.909" y="47" width="27.6364" height="27.6364" rx="4.60606" fill="#FBFCFF"/>
<path d="M119.783 55.602C117.798 55.602 116.3 56.8634 115.701 58.8455C114.765 57.44 114.016 55.8543 113.604 54.4849H111.507V59.7825C111.507 60.8276 110.608 61.6925 109.522 61.6925C108.436 61.6925 107.537 60.8276 107.537 59.7825V54.5209H105.515V59.8185C105.515 62.0169 107.35 63.7827 109.597 63.7827C111.844 63.7827 113.679 62.0169 113.679 59.8185V58.9176C114.091 59.7104 114.615 60.5753 115.177 61.3321L113.866 67.2064H116L116.899 62.9178C117.723 63.4223 118.659 63.7107 119.783 63.7107C122.067 63.7107 123.939 61.9087 123.939 59.6023C123.939 57.404 122.067 55.602 119.783 55.602ZM119.783 61.6925C118.959 61.6925 118.098 61.3321 117.423 60.7916L117.648 59.9987V59.9627C117.798 59.0978 118.285 57.6562 119.82 57.6562C120.981 57.6562 121.917 58.5572 121.917 59.6744C121.88 60.7916 120.869 61.6925 119.783 61.6925Z" fill="#00B22D"/>
<rect x="142.364" y="47" width="27.6364" height="27.6364" rx="4.60606" fill="#FBFCFF"/>
<path d="M156.179 56.0095V60.9888H154.5V56.0095H156.179ZM160.783 56.0095V60.9888H159.104V56.0095H160.783ZM160.783 64.7218L163.715 61.8117V52.694H149.895V64.7218H153.669V67.2084L156.179 64.7218H160.783ZM165.394 51.0303V62.6466L160.368 67.6259H156.594L154.084 70.1125H151.574V67.6259H146.97V54.3458L148.234 51.0303H165.394Z" fill="#6441A5"/>
<defs>
<linearGradient id="paint0_linear_10444_61976" x1="65.7532" y1="68.3453" x2="80.8274" y2="53.3357" gradientUnits="userSpaceOnUse">
<stop stop-color="#FFC107"/>
<stop offset="0.2211" stop-color="#F98D1C"/>
<stop offset="0.5137" stop-color="#F1423B"/>
<stop offset="0.8329" stop-color="#B93088"/>
<stop offset="0.9944" stop-color="#9C27B0"/>
</linearGradient>
<linearGradient id="paint1_linear_10444_61976" x1="69.9987" y1="64.0572" x2="76.5161" y2="57.5676" gradientUnits="userSpaceOnUse">
<stop stop-color="#FFC107"/>
<stop offset="0.2211" stop-color="#F98D1C"/>
<stop offset="0.5137" stop-color="#F1423B"/>
<stop offset="0.8329" stop-color="#B93088"/>
<stop offset="0.9944" stop-color="#9C27B0"/>
</linearGradient>
<linearGradient id="paint2_linear_10444_61976" x1="77.7552" y1="56.2892" x2="78.6237" y2="55.4244" gradientUnits="userSpaceOnUse">
<stop stop-color="#FFC107"/>
<stop offset="0.2211" stop-color="#F98D1C"/>
<stop offset="0.5137" stop-color="#F1423B"/>
<stop offset="0.8329" stop-color="#B93088"/>
<stop offset="0.9944" stop-color="#9C27B0"/>
</linearGradient>
</defs>
</svg>
