<svg width="24" height="24" viewBox="0 0 24 24" fill="none" xmlns="http://www.w3.org/2000/svg">
<path d="M5.64005 16.1023C4.33296 16.4222 3.35996 17.604 3.35996 19.0098C3.35995 20.6588 4.70185 22 6.35083 22C8.00045 22 9.34234 20.6588 9.34234 19.0098C9.34234 18.6427 9.27009 18.273 9.12751 17.913L9.08687 17.8124L15.4589 14.1151L15.5273 14.1841C16.095 14.7551 16.8486 15.0705 17.6492 15.0705C19.2982 15.0705 20.64 13.7293 20.64 12.079C20.64 10.4294 19.2982 9.08687 17.6492 9.08687C16.8382 9.08687 16.077 9.41202 15.506 10.0004L15.4351 10.0746L9.12042 6.09406L9.15461 5.99922C9.28106 5.64956 9.34234 5.31925 9.34234 4.99152C9.34234 3.34125 8.00045 2 6.35083 2C4.70185 2 3.35996 3.34125 3.35996 4.99151C3.35996 6.39622 4.33297 7.57685 5.64005 7.89646M5.64005 16.1023C5.86795 16.0465 6.106 16.017 6.35083 16.017C6.448 16.017 6.54449 16.0216 6.64005 16.0308M5.64005 16.1023L5.64005 7.89646M5.64005 7.89646C5.86795 7.95219 6.106 7.98174 6.35083 7.98174C6.44807 7.98174 6.54455 7.97709 6.64005 7.96789M6.64005 7.89646L6.64005 7.96789M6.64005 16.0308C7.32735 16.0967 7.96637 16.3969 8.46366 16.8931L8.53205 16.9621L14.9086 13.2622L14.8686 13.1609C14.7286 12.8035 14.6577 12.439 14.6577 12.0784C14.6577 11.7345 14.7248 11.381 14.8589 11.0287L14.8957 10.9326L8.59334 6.96113L8.52173 7.03597C8.01408 7.57491 7.35482 7.89899 6.64005 7.96789M6.64005 16.0308L6.64005 7.96789M6.35083 6.96887C7.02952 6.96887 7.65337 6.62437 8.01981 6.04438L8.05335 5.98374C8.23657 5.66956 8.33012 5.33602 8.33012 4.99087C8.33012 3.89994 7.44241 3.01222 6.35147 3.01222C5.26119 3.01222 4.37347 3.89994 4.37347 4.99087C4.37283 6.0818 5.26054 6.96887 6.35083 6.96887ZM17.6498 14.057C18.7401 14.057 19.6278 13.1693 19.6278 12.0784C19.6278 10.9881 18.7401 10.0991 17.6498 10.0991C16.9782 10.0991 16.3582 10.4391 15.9912 11.0062C15.7789 11.3436 15.6712 11.7087 15.6712 12.0784C15.6712 12.4151 15.7615 12.7416 15.9363 13.0513C15.9925 13.1119 16.0221 13.1487 16.0454 13.1887L16.0744 13.2635C16.4537 13.768 17.0285 14.057 17.6498 14.057ZM6.35083 20.9871C7.44176 20.9871 8.32947 20.0994 8.32947 19.0098C8.32947 17.9182 7.44176 17.0298 6.35083 17.0298C5.26054 17.0298 4.37283 17.9182 4.37283 19.0098C4.37283 20.0994 5.26054 20.9871 6.35083 20.9871Z" stroke="#5B3F91"/>
</svg>
