<svg width="78" height="32" viewBox="0 0 78 32" fill="none" xmlns="http://www.w3.org/2000/svg">
<path d="M5.45356 12.5394C5.45356 11.7063 6.14333 11.3858 7.28578 11.3858C8.924 11.3858 10.9933 11.8772 12.6316 12.753V7.73298C10.8424 7.02804 9.07489 6.75033 7.28578 6.75033C2.91 6.75033 0 9.01469 0 12.7957C0 18.6916 8.19111 17.7517 8.19111 20.2937C8.19111 21.2764 7.32889 21.5968 6.12178 21.5968C4.33267 21.5968 2.04778 20.8705 0.237111 19.8878V24.972C2.24178 25.8264 4.268 26.1896 6.12178 26.1896C10.6053 26.1896 13.6878 23.9893 13.6878 20.1656C13.6662 13.7997 5.45356 14.9319 5.45356 12.5394ZM20.0251 2.47797L14.7656 3.58878L14.744 20.6996C14.744 23.8611 17.1367 26.1896 20.3269 26.1896C22.0944 26.1896 23.3878 25.8692 24.0991 25.4846V21.1482C23.4093 21.4259 20.0036 22.4085 20.0036 19.247V11.6636H24.0991V7.11348H20.0036L20.0251 2.47797ZM30.8029 8.69426L30.458 7.11348H25.802V25.8051H31.1909V13.1375C32.4627 11.4927 34.6182 11.7917 35.2864 12.0267V7.11348C34.5967 6.85714 32.0747 6.38718 30.8029 8.69426ZM36.6013 7.11348H42.0118V25.8051H36.6013V7.11348ZM36.6013 5.48999L42.0118 4.33645V0L36.6013 1.13218V5.48999ZM53.2638 6.75033C51.1513 6.75033 49.7933 7.73298 49.0389 8.41656L48.7587 7.09212H44.0164V32L49.4053 30.8678L49.4269 24.8224C50.2029 25.3778 51.3453 26.1682 53.2422 26.1682C57.1007 26.1682 60.6142 23.0921 60.6142 16.3204C60.5927 10.1255 57.036 6.75033 53.2638 6.75033ZM51.9704 21.4686C50.6987 21.4686 49.9442 21.02 49.4269 20.4646L49.4053 12.5394C49.9658 11.9199 50.7418 11.4927 51.9704 11.4927C53.932 11.4927 55.29 13.6716 55.29 16.47C55.29 19.3324 53.9536 21.4686 51.9704 21.4686ZM77.6 16.534C77.6 11.0654 74.9271 6.75033 69.8184 6.75033C64.6882 6.75033 61.5842 11.0654 61.5842 16.4913C61.5842 22.9212 65.2487 26.1682 70.5082 26.1682C73.0733 26.1682 75.0133 25.5915 76.4791 24.7797V20.5073C75.0133 21.2336 73.332 21.6822 71.198 21.6822C69.1071 21.6822 67.2533 20.9559 67.0162 18.4352H77.5569C77.5569 18.1575 77.6 17.0467 77.6 16.534ZM66.9516 14.5047C66.9516 12.0908 68.4389 11.0868 69.7969 11.0868C71.1118 11.0868 72.5129 12.0908 72.5129 14.5047H66.9516Z" fill="#6772E5"/>
</svg>