<svg width="172" height="40" viewBox="0 0 172 40" fill="none" xmlns="http://www.w3.org/2000/svg">
<path d="M48.602 21.651V24H39.431V11.4H41.942V21.651H48.602ZM52.4804 15.279V24H50.1314V15.279H52.4804ZM51.2924 10.914C52.1384 10.914 52.7954 11.58 52.7954 12.426C52.7954 13.272 52.1384 13.92 51.2924 13.92C50.4464 13.92 49.7984 13.272 49.7984 12.426C49.7984 11.58 50.4464 10.914 51.2924 10.914ZM59.7988 15.045C61.7788 15.045 63.1918 16.422 63.1918 18.447V24H60.8428V19.203C60.8428 17.943 60.2128 17.25 59.1418 17.25C58.1338 17.25 57.2968 17.907 57.2968 19.221V24H54.9478V15.279H57.2338V16.305C57.8548 15.378 58.8088 15.045 59.7988 15.045ZM67.9316 11.04V18.384H68.7596L71.2166 15.279H74.0966L70.6586 19.383L74.1236 24H71.2346L68.7236 20.472H67.9316V24H65.5826V11.04H67.9316ZM82.4558 15.882L81.6638 17.709C80.9708 17.367 79.8638 17.007 78.8828 16.998C77.9918 16.998 77.5418 17.313 77.5418 17.79C77.5418 18.294 78.1718 18.42 78.9638 18.537L79.7378 18.654C81.6278 18.942 82.6808 19.788 82.6808 21.264C82.6808 23.064 81.2048 24.225 78.6758 24.225C77.4878 24.225 75.9308 24 74.7968 23.199L75.7238 21.417C76.4708 21.912 77.3798 22.272 78.6938 22.272C79.7828 22.272 80.3048 21.966 80.3048 21.453C80.3048 21.03 79.8638 20.796 78.8558 20.652L78.1448 20.553C76.1288 20.274 75.1298 19.392 75.1298 17.907C75.1298 16.116 76.5158 15.054 78.8108 15.054C80.2058 15.054 81.2948 15.315 82.4558 15.882ZM90.7885 15.279V17.367H87.6295V20.553C87.6295 21.642 88.2055 22.038 88.9345 22.038C89.4925 22.038 90.0955 21.759 90.5725 21.471L91.4365 23.307C90.6715 23.829 89.7895 24.225 88.5475 24.225C86.3875 24.225 85.2805 23.001 85.2805 20.742V17.367H83.5975V15.279H85.2805V12.687H87.6295V15.279H90.7885ZM101.344 15.279V24H99.0494V23.037C98.4824 23.739 97.6364 24.225 96.4394 24.225C94.0364 24.225 92.2184 22.254 92.2184 19.635C92.2184 17.016 94.0364 15.045 96.4394 15.045C97.6364 15.045 98.4734 15.531 99.0494 16.242V15.279H101.344ZM96.8714 17.232C95.4944 17.232 94.6214 18.303 94.6214 19.635C94.6214 20.967 95.4944 22.038 96.8714 22.038C98.2124 22.038 99.1214 21.012 99.1214 19.635C99.1214 18.258 98.2124 17.232 96.8714 17.232ZM108.549 15.045C109.053 15.045 109.449 15.117 109.773 15.234L109.422 17.565C109.035 17.394 108.477 17.286 108 17.286C106.911 17.286 106.164 17.952 106.164 19.248V24H103.815V15.279H106.092V16.233C106.641 15.414 107.478 15.045 108.549 15.045ZM133.603 11.4L129.841 24H126.799L124.099 15L121.399 24H118.357L114.595 11.4H117.205L119.914 21.066L122.731 11.4H125.512L128.329 21.066L131.038 11.4H133.603ZM142.741 15.279V24H140.446V23.037C139.879 23.739 139.033 24.225 137.836 24.225C135.433 24.225 133.615 22.254 133.615 19.635C133.615 17.016 135.433 15.045 137.836 15.045C139.033 15.045 139.87 15.531 140.446 16.242V15.279H142.741ZM138.268 17.232C136.891 17.232 136.018 18.303 136.018 19.635C136.018 20.967 136.891 22.038 138.268 22.038C139.609 22.038 140.518 21.012 140.518 19.635C140.518 18.258 139.609 17.232 138.268 17.232ZM147.561 11.04V24H145.212V11.04H147.561ZM152.377 11.04V24H150.028V11.04H152.377ZM158.714 15.045C161.225 15.045 162.944 16.908 162.953 19.626C162.953 19.896 162.935 20.22 162.908 20.418H156.725C156.977 21.678 157.859 22.227 158.966 22.227C159.722 22.227 160.541 21.921 161.171 21.39L162.548 22.902C161.558 23.811 160.298 24.225 158.831 24.225C156.158 24.225 154.304 22.407 154.304 19.662C154.304 16.917 156.104 15.045 158.714 15.045ZM158.696 17.07C157.589 17.07 156.941 17.736 156.734 18.816H160.595C160.379 17.7 159.704 17.07 158.696 17.07ZM171.103 15.279V17.367H167.944V20.553C167.944 21.642 168.52 22.038 169.249 22.038C169.807 22.038 170.41 21.759 170.887 21.471L171.751 23.307C170.986 23.829 170.104 24.225 168.862 24.225C166.702 24.225 165.595 23.001 165.595 20.742V17.367H163.912V15.279H165.595V12.687H167.944V15.279H171.103Z" fill="url(#paint0_linear_11459_74174)"/>
<path d="M41.155 33.405C41.4017 33.405 41.6167 33.375 41.8 33.315C41.9833 33.2517 42.135 33.1633 42.255 33.05C42.3783 32.9333 42.47 32.7933 42.53 32.63C42.59 32.4633 42.62 32.2783 42.62 32.075C42.62 31.8817 42.59 31.7067 42.53 31.55C42.47 31.3933 42.38 31.26 42.26 31.15C42.14 31.04 41.9883 30.9567 41.805 30.9C41.6217 30.84 41.405 30.81 41.155 30.81H40.15V33.405H41.155ZM41.155 29.77C41.6383 29.77 42.0567 29.8267 42.41 29.94C42.7633 30.0533 43.055 30.2117 43.285 30.415C43.515 30.6183 43.685 30.8617 43.795 31.145C43.9083 31.4283 43.965 31.7383 43.965 32.075C43.965 32.425 43.9067 32.7467 43.79 33.04C43.6733 33.33 43.4983 33.58 43.265 33.79C43.0317 34 42.7383 34.1633 42.385 34.28C42.035 34.3967 41.625 34.455 41.155 34.455H40.15V37H38.805V29.77H41.155ZM46.837 31.79C47.217 31.79 47.562 31.8517 47.872 31.975C48.1854 32.0983 48.452 32.2733 48.672 32.5C48.8954 32.7267 49.067 33.0033 49.187 33.33C49.307 33.6567 49.367 34.0217 49.367 34.425C49.367 34.8317 49.307 35.1983 49.187 35.525C49.067 35.8517 48.8954 36.13 48.672 36.36C48.452 36.59 48.1854 36.7667 47.872 36.89C47.562 37.0133 47.217 37.075 46.837 37.075C46.4537 37.075 46.1054 37.0133 45.792 36.89C45.4787 36.7667 45.2104 36.59 44.987 36.36C44.767 36.13 44.5954 35.8517 44.472 35.525C44.352 35.1983 44.292 34.8317 44.292 34.425C44.292 34.0217 44.352 33.6567 44.472 33.33C44.5954 33.0033 44.767 32.7267 44.987 32.5C45.2104 32.2733 45.4787 32.0983 45.792 31.975C46.1054 31.8517 46.4537 31.79 46.837 31.79ZM46.837 36.125C47.2637 36.125 47.5787 35.9817 47.782 35.695C47.9887 35.4083 48.092 34.9883 48.092 34.435C48.092 33.8817 47.9887 33.46 47.782 33.17C47.5787 32.88 47.2637 32.735 46.837 32.735C46.4037 32.735 46.082 32.8817 45.872 33.175C45.6654 33.465 45.562 33.885 45.562 34.435C45.562 34.985 45.6654 35.405 45.872 35.695C46.082 35.9817 46.4037 36.125 46.837 36.125ZM57.5463 31.87L55.9163 37H54.9263C54.813 37 54.7347 36.9267 54.6913 36.78L53.7713 33.815C53.7413 33.715 53.713 33.6167 53.6863 33.52C53.663 33.42 53.643 33.32 53.6263 33.22C53.6063 33.32 53.583 33.4217 53.5563 33.525C53.533 33.625 53.5063 33.725 53.4763 33.825L52.5413 36.78C52.5013 36.9267 52.413 37 52.2763 37H51.3263L49.7013 31.87H50.6863C50.7763 31.87 50.853 31.8917 50.9163 31.935C50.9797 31.9783 51.0213 32.0333 51.0413 32.1L51.7763 34.84C51.813 34.99 51.8447 35.1367 51.8713 35.28C51.9013 35.4233 51.9263 35.5667 51.9463 35.71C51.983 35.5667 52.0213 35.4233 52.0613 35.28C52.1047 35.1367 52.1497 34.99 52.1963 34.84L53.0463 32.09C53.0663 32.0233 53.1047 31.9683 53.1613 31.925C53.2213 31.8817 53.293 31.86 53.3763 31.86H53.9213C54.008 31.86 54.0813 31.8817 54.1413 31.925C54.2047 31.9683 54.2463 32.0233 54.2663 32.09L55.0913 34.84C55.1347 34.99 55.1747 35.1383 55.2113 35.285C55.2513 35.4283 55.2897 35.5717 55.3263 35.715C55.3697 35.4317 55.4313 35.14 55.5113 34.84L56.2663 32.1C56.2897 32.0333 56.3313 31.9783 56.3913 31.935C56.4513 31.8917 56.523 31.87 56.6063 31.87H57.5463ZM61.4658 33.845C61.4658 33.685 61.4424 33.535 61.3958 33.395C61.3524 33.2517 61.2858 33.1267 61.1958 33.02C61.1058 32.9133 60.9908 32.83 60.8508 32.77C60.7141 32.7067 60.5541 32.675 60.3708 32.675C60.0141 32.675 59.7324 32.7767 59.5258 32.98C59.3224 33.1833 59.1924 33.4717 59.1358 33.845H61.4658ZM59.1108 34.59C59.1308 34.8533 59.1774 35.0817 59.2508 35.275C59.3241 35.465 59.4208 35.6233 59.5408 35.75C59.6608 35.8733 59.8024 35.9667 59.9658 36.03C60.1324 36.09 60.3158 36.12 60.5158 36.12C60.7158 36.12 60.8874 36.0967 61.0308 36.05C61.1774 36.0033 61.3041 35.9517 61.4108 35.895C61.5208 35.8383 61.6158 35.7867 61.6958 35.74C61.7791 35.6933 61.8591 35.67 61.9358 35.67C62.0391 35.67 62.1158 35.7083 62.1658 35.785L62.5208 36.235C62.3841 36.395 62.2308 36.53 62.0608 36.64C61.8908 36.7467 61.7124 36.8333 61.5258 36.9C61.3424 36.9633 61.1541 37.0083 60.9608 37.035C60.7708 37.0617 60.5858 37.075 60.4058 37.075C60.0491 37.075 59.7174 37.0167 59.4108 36.9C59.1041 36.78 58.8374 36.605 58.6108 36.375C58.3841 36.1417 58.2058 35.855 58.0758 35.515C57.9458 35.1717 57.8808 34.775 57.8808 34.325C57.8808 33.975 57.9374 33.6467 58.0508 33.34C58.1641 33.03 58.3258 32.7617 58.5358 32.535C58.7491 32.305 59.0074 32.1233 59.3108 31.99C59.6174 31.8567 59.9624 31.79 60.3458 31.79C60.6691 31.79 60.9674 31.8417 61.2408 31.945C61.5141 32.0483 61.7491 32.2 61.9458 32.4C62.1424 32.5967 62.2958 32.84 62.4058 33.13C62.5191 33.4167 62.5758 33.745 62.5758 34.115C62.5758 34.3017 62.5558 34.4283 62.5158 34.495C62.4758 34.5583 62.3991 34.59 62.2858 34.59H59.1108ZM64.6676 32.76C64.8276 32.4533 65.0176 32.2133 65.2376 32.04C65.4576 31.8633 65.7176 31.775 66.0176 31.775C66.2542 31.775 66.4442 31.8267 66.5876 31.93L66.5076 32.855C66.4909 32.915 66.4659 32.9583 66.4326 32.985C66.4026 33.0083 66.3609 33.02 66.3076 33.02C66.2576 33.02 66.1826 33.0117 66.0826 32.995C65.9859 32.9783 65.8909 32.97 65.7976 32.97C65.6609 32.97 65.5392 32.99 65.4326 33.03C65.3259 33.07 65.2292 33.1283 65.1426 33.205C65.0592 33.2783 64.9842 33.3683 64.9176 33.475C64.8542 33.5817 64.7942 33.7033 64.7376 33.84V37H63.5026V31.87H64.2276C64.3542 31.87 64.4426 31.8933 64.4926 31.94C64.5426 31.9833 64.5759 32.0633 64.5926 32.18L64.6676 32.76ZM70.3916 33.845C70.3916 33.685 70.3682 33.535 70.3216 33.395C70.2782 33.2517 70.2116 33.1267 70.1216 33.02C70.0316 32.9133 69.9166 32.83 69.7766 32.77C69.6399 32.7067 69.4799 32.675 69.2966 32.675C68.9399 32.675 68.6582 32.7767 68.4516 32.98C68.2482 33.1833 68.1182 33.4717 68.0616 33.845H70.3916ZM68.0366 34.59C68.0566 34.8533 68.1032 35.0817 68.1766 35.275C68.2499 35.465 68.3466 35.6233 68.4666 35.75C68.5866 35.8733 68.7282 35.9667 68.8916 36.03C69.0582 36.09 69.2416 36.12 69.4416 36.12C69.6416 36.12 69.8132 36.0967 69.9566 36.05C70.1032 36.0033 70.2299 35.9517 70.3366 35.895C70.4466 35.8383 70.5416 35.7867 70.6216 35.74C70.7049 35.6933 70.7849 35.67 70.8616 35.67C70.9649 35.67 71.0416 35.7083 71.0916 35.785L71.4466 36.235C71.3099 36.395 71.1566 36.53 70.9866 36.64C70.8166 36.7467 70.6382 36.8333 70.4516 36.9C70.2682 36.9633 70.0799 37.0083 69.8866 37.035C69.6966 37.0617 69.5116 37.075 69.3316 37.075C68.9749 37.075 68.6432 37.0167 68.3366 36.9C68.0299 36.78 67.7632 36.605 67.5366 36.375C67.3099 36.1417 67.1316 35.855 67.0016 35.515C66.8716 35.1717 66.8066 34.775 66.8066 34.325C66.8066 33.975 66.8632 33.6467 66.9766 33.34C67.0899 33.03 67.2516 32.7617 67.4616 32.535C67.6749 32.305 67.9332 32.1233 68.2366 31.99C68.5432 31.8567 68.8882 31.79 69.2716 31.79C69.5949 31.79 69.8932 31.8417 70.1666 31.945C70.4399 32.0483 70.6749 32.2 70.8716 32.4C71.0682 32.5967 71.2216 32.84 71.3316 33.13C71.4449 33.4167 71.5016 33.745 71.5016 34.115C71.5016 34.3017 71.4816 34.4283 71.4416 34.495C71.4016 34.5583 71.3249 34.59 71.2116 34.59H68.0366ZM75.6484 33.18C75.5084 33.01 75.355 32.89 75.1884 32.82C75.025 32.75 74.8484 32.715 74.6584 32.715C74.4717 32.715 74.3034 32.75 74.1534 32.82C74.0034 32.89 73.875 32.9967 73.7684 33.14C73.6617 33.28 73.58 33.46 73.5234 33.68C73.4667 33.8967 73.4384 34.1533 73.4384 34.45C73.4384 34.75 73.4617 35.005 73.5084 35.215C73.5584 35.4217 73.6284 35.5917 73.7184 35.725C73.8084 35.855 73.9184 35.95 74.0484 36.01C74.1784 36.0667 74.3234 36.095 74.4834 36.095C74.74 36.095 74.9584 36.0417 75.1384 35.935C75.3184 35.8283 75.4884 35.6767 75.6484 35.48V33.18ZM76.8834 29.57V37H76.1284C75.965 37 75.8617 36.925 75.8184 36.775L75.7134 36.28C75.5067 36.5167 75.2684 36.7083 74.9984 36.855C74.7317 37.0017 74.42 37.075 74.0634 37.075C73.7834 37.075 73.5267 37.0167 73.2934 36.9C73.06 36.7833 72.8584 36.615 72.6884 36.395C72.5217 36.1717 72.3917 35.8967 72.2984 35.57C72.2084 35.2433 72.1634 34.87 72.1634 34.45C72.1634 34.07 72.215 33.7167 72.3184 33.39C72.4217 33.0633 72.57 32.78 72.7634 32.54C72.9567 32.3 73.1884 32.1133 73.4584 31.98C73.7284 31.8433 74.0317 31.775 74.3684 31.775C74.655 31.775 74.9 31.82 75.1034 31.91C75.3067 32 75.4884 32.1217 75.6484 32.275V29.57H76.8834ZM81.7688 35.67C81.9088 35.84 82.0605 35.96 82.2238 36.03C82.3905 36.1 82.5655 36.135 82.7488 36.135C82.9388 36.135 83.1088 36.1017 83.2588 36.035C83.4122 35.965 83.5422 35.8583 83.6488 35.715C83.7555 35.5683 83.8372 35.3833 83.8938 35.16C83.9505 34.9333 83.9788 34.6633 83.9788 34.35C83.9788 33.7867 83.8855 33.38 83.6988 33.13C83.5122 32.8767 83.2438 32.75 82.8938 32.75C82.6572 32.75 82.4505 32.805 82.2738 32.915C82.0972 33.0217 81.9288 33.1733 81.7688 33.37V35.67ZM81.7688 32.5C81.9755 32.2833 82.2038 32.1117 82.4538 31.985C82.7072 31.855 82.9955 31.79 83.3188 31.79C83.6155 31.79 83.8822 31.8483 84.1188 31.965C84.3588 32.0817 84.5622 32.25 84.7288 32.47C84.8988 32.6867 85.0288 32.95 85.1188 33.26C85.2088 33.57 85.2538 33.9183 85.2538 34.305C85.2538 34.7217 85.2022 35.1 85.0988 35.44C84.9955 35.78 84.8472 36.0717 84.6538 36.315C84.4638 36.555 84.2338 36.7417 83.9638 36.875C83.6938 37.0083 83.3938 37.075 83.0638 37.075C82.9038 37.075 82.7588 37.0583 82.6288 37.025C82.4988 36.995 82.3788 36.9517 82.2688 36.895C82.1588 36.8383 82.0572 36.77 81.9638 36.69C81.8738 36.6067 81.7872 36.515 81.7038 36.415L81.6488 36.76C81.6288 36.8467 81.5938 36.9083 81.5438 36.945C81.4972 36.9817 81.4322 37 81.3488 37H80.5338V29.57H81.7688V32.5ZM90.7212 31.87L87.9262 38.41C87.8895 38.4967 87.8412 38.5617 87.7812 38.605C87.7245 38.6517 87.6362 38.675 87.5162 38.675H86.5962L87.5562 36.615L85.4812 31.87H86.5662C86.6628 31.87 86.7378 31.8933 86.7912 31.94C86.8478 31.9867 86.8895 32.04 86.9162 32.1L88.0062 34.76C88.0428 34.85 88.0728 34.94 88.0962 35.03C88.1228 35.12 88.1478 35.2117 88.1712 35.305C88.2012 35.2117 88.2312 35.12 88.2612 35.03C88.2912 34.9367 88.3245 34.845 88.3612 34.755L89.3912 32.1C89.4178 32.0333 89.4612 31.9783 89.5212 31.935C89.5845 31.8917 89.6545 31.87 89.7312 31.87H90.7212ZM97.5573 31.085C97.5173 31.155 97.474 31.2067 97.4273 31.24C97.384 31.27 97.329 31.285 97.2623 31.285C97.1923 31.285 97.1157 31.26 97.0323 31.21C96.9523 31.1567 96.8557 31.0983 96.7423 31.035C96.629 30.9717 96.4957 30.915 96.3423 30.865C96.1923 30.8117 96.014 30.785 95.8073 30.785C95.6207 30.785 95.4573 30.8083 95.3173 30.855C95.1773 30.8983 95.059 30.96 94.9623 31.04C94.869 31.12 94.799 31.2167 94.7523 31.33C94.7057 31.44 94.6823 31.5617 94.6823 31.695C94.6823 31.865 94.729 32.0067 94.8223 32.12C94.919 32.2333 95.0457 32.33 95.2023 32.41C95.359 32.49 95.5373 32.5617 95.7373 32.625C95.9373 32.6883 96.1423 32.7567 96.3523 32.83C96.5623 32.9 96.7673 32.9833 96.9673 33.08C97.1673 33.1733 97.3457 33.2933 97.5023 33.44C97.659 33.5833 97.784 33.76 97.8773 33.97C97.974 34.18 98.0223 34.435 98.0223 34.735C98.0223 35.0617 97.9657 35.3683 97.8523 35.655C97.7423 35.9383 97.579 36.1867 97.3623 36.4C97.149 36.61 96.8873 36.7767 96.5773 36.9C96.2673 37.02 95.9123 37.08 95.5123 37.08C95.2823 37.08 95.0557 37.0567 94.8323 37.01C94.609 36.9667 94.394 36.9033 94.1873 36.82C93.984 36.7367 93.7923 36.6367 93.6123 36.52C93.4323 36.4033 93.2723 36.2733 93.1323 36.13L93.5273 35.485C93.5607 35.4383 93.604 35.4 93.6573 35.37C93.7107 35.3367 93.7673 35.32 93.8273 35.32C93.9107 35.32 94.0007 35.355 94.0973 35.425C94.194 35.4917 94.309 35.5667 94.4423 35.65C94.5757 35.7333 94.7307 35.81 94.9073 35.88C95.0873 35.9467 95.3023 35.98 95.5523 35.98C95.9357 35.98 96.2323 35.89 96.4423 35.71C96.6523 35.5267 96.7573 35.265 96.7573 34.925C96.7573 34.735 96.709 34.58 96.6123 34.46C96.519 34.34 96.394 34.24 96.2373 34.16C96.0807 34.0767 95.9023 34.0067 95.7023 33.95C95.5023 33.8933 95.299 33.8317 95.0923 33.765C94.8857 33.6983 94.6823 33.6183 94.4823 33.525C94.2823 33.4317 94.104 33.31 93.9473 33.16C93.7907 33.01 93.664 32.8233 93.5673 32.6C93.474 32.3733 93.4273 32.095 93.4273 31.765C93.4273 31.5017 93.479 31.245 93.5823 30.995C93.689 30.745 93.8423 30.5233 94.0423 30.33C94.2423 30.1367 94.489 29.9817 94.7823 29.865C95.0757 29.7483 95.4123 29.69 95.7923 29.69C96.219 29.69 96.6123 29.7567 96.9723 29.89C97.3323 30.0233 97.639 30.21 97.8923 30.45L97.5573 31.085ZM100.486 37.08C100.039 37.08 99.696 36.955 99.456 36.705C99.2193 36.4517 99.101 36.1033 99.101 35.66V32.795H98.576C98.5093 32.795 98.4527 32.7733 98.406 32.73C98.3593 32.6867 98.336 32.6217 98.336 32.535V32.045L99.161 31.91L99.421 30.51C99.4377 30.4433 99.4693 30.3917 99.516 30.355C99.5627 30.3183 99.6227 30.3 99.696 30.3H100.336V31.915H101.706V32.795H100.336V35.575C100.336 35.735 100.374 35.86 100.451 35.95C100.531 36.04 100.639 36.085 100.776 36.085C100.853 36.085 100.916 36.0767 100.966 36.06C101.019 36.04 101.064 36.02 101.101 36C101.141 35.98 101.176 35.9617 101.206 35.945C101.236 35.925 101.266 35.915 101.296 35.915C101.333 35.915 101.363 35.925 101.386 35.945C101.409 35.9617 101.434 35.9883 101.461 36.025L101.831 36.625C101.651 36.775 101.444 36.8883 101.211 36.965C100.978 37.0417 100.736 37.08 100.486 37.08ZM103.662 32.76C103.822 32.4533 104.012 32.2133 104.232 32.04C104.452 31.8633 104.712 31.775 105.012 31.775C105.248 31.775 105.438 31.8267 105.582 31.93L105.502 32.855C105.485 32.915 105.46 32.9583 105.427 32.985C105.397 33.0083 105.355 33.02 105.302 33.02C105.252 33.02 105.177 33.0117 105.077 32.995C104.98 32.9783 104.885 32.97 104.792 32.97C104.655 32.97 104.533 32.99 104.427 33.03C104.32 33.07 104.223 33.1283 104.137 33.205C104.053 33.2783 103.978 33.3683 103.912 33.475C103.848 33.5817 103.788 33.7033 103.732 33.84V37H102.497V31.87H103.222C103.348 31.87 103.437 31.8933 103.487 31.94C103.537 31.9833 103.57 32.0633 103.587 32.18L103.662 32.76ZM107.507 31.87V37H106.267V31.87H107.507ZM107.677 30.375C107.677 30.4817 107.656 30.5817 107.612 30.675C107.569 30.7683 107.511 30.85 107.437 30.92C107.367 30.99 107.284 31.0467 107.187 31.09C107.091 31.13 106.987 31.15 106.877 31.15C106.771 31.15 106.669 31.13 106.572 31.09C106.479 31.0467 106.397 30.99 106.327 30.92C106.257 30.85 106.201 30.7683 106.157 30.675C106.117 30.5817 106.097 30.4817 106.097 30.375C106.097 30.265 106.117 30.1617 106.157 30.065C106.201 29.9683 106.257 29.885 106.327 29.815C106.397 29.745 106.479 29.69 106.572 29.65C106.669 29.6067 106.771 29.585 106.877 29.585C106.987 29.585 107.091 29.6067 107.187 29.65C107.284 29.69 107.367 29.745 107.437 29.815C107.511 29.885 107.569 29.9683 107.612 30.065C107.656 30.1617 107.677 30.265 107.677 30.375ZM110.001 35.67C110.141 35.84 110.293 35.96 110.456 36.03C110.623 36.1 110.803 36.135 110.996 36.135C111.183 36.135 111.351 36.1 111.501 36.03C111.651 35.96 111.778 35.8533 111.881 35.71C111.988 35.5667 112.07 35.3867 112.126 35.17C112.183 34.95 112.211 34.6917 112.211 34.395C112.211 34.095 112.186 33.8417 112.136 33.635C112.09 33.425 112.021 33.255 111.931 33.125C111.841 32.995 111.731 32.9 111.601 32.84C111.475 32.78 111.33 32.75 111.166 32.75C110.91 32.75 110.691 32.805 110.511 32.915C110.331 33.0217 110.161 33.1733 110.001 33.37V35.67ZM109.936 32.57C110.146 32.3333 110.385 32.1417 110.651 31.995C110.918 31.8483 111.231 31.775 111.591 31.775C111.871 31.775 112.126 31.8333 112.356 31.95C112.59 32.0667 112.79 32.2367 112.956 32.46C113.126 32.68 113.256 32.9533 113.346 33.28C113.44 33.6033 113.486 33.975 113.486 34.395C113.486 34.7783 113.435 35.1333 113.331 35.46C113.228 35.7867 113.08 36.07 112.886 36.31C112.696 36.55 112.465 36.7383 112.191 36.875C111.921 37.0083 111.618 37.075 111.281 37.075C110.995 37.075 110.75 37.0317 110.546 36.945C110.343 36.855 110.161 36.7317 110.001 36.575V38.675H108.766V31.87H109.521C109.681 31.87 109.786 31.945 109.836 32.095L109.936 32.57ZM117.755 33.845C117.755 33.685 117.732 33.535 117.685 33.395C117.642 33.2517 117.575 33.1267 117.485 33.02C117.395 32.9133 117.28 32.83 117.14 32.77C117.003 32.7067 116.843 32.675 116.66 32.675C116.303 32.675 116.022 32.7767 115.815 32.98C115.612 33.1833 115.482 33.4717 115.425 33.845H117.755ZM115.4 34.59C115.42 34.8533 115.467 35.0817 115.54 35.275C115.613 35.465 115.71 35.6233 115.83 35.75C115.95 35.8733 116.092 35.9667 116.255 36.03C116.422 36.09 116.605 36.12 116.805 36.12C117.005 36.12 117.177 36.0967 117.32 36.05C117.467 36.0033 117.593 35.9517 117.7 35.895C117.81 35.8383 117.905 35.7867 117.985 35.74C118.068 35.6933 118.148 35.67 118.225 35.67C118.328 35.67 118.405 35.7083 118.455 35.785L118.81 36.235C118.673 36.395 118.52 36.53 118.35 36.64C118.18 36.7467 118.002 36.8333 117.815 36.9C117.632 36.9633 117.443 37.0083 117.25 37.035C117.06 37.0617 116.875 37.075 116.695 37.075C116.338 37.075 116.007 37.0167 115.7 36.9C115.393 36.78 115.127 36.605 114.9 36.375C114.673 36.1417 114.495 35.855 114.365 35.515C114.235 35.1717 114.17 34.775 114.17 34.325C114.17 33.975 114.227 33.6467 114.34 33.34C114.453 33.03 114.615 32.7617 114.825 32.535C115.038 32.305 115.297 32.1233 115.6 31.99C115.907 31.8567 116.252 31.79 116.635 31.79C116.958 31.79 117.257 31.8417 117.53 31.945C117.803 32.0483 118.038 32.2 118.235 32.4C118.432 32.5967 118.585 32.84 118.695 33.13C118.808 33.4167 118.865 33.745 118.865 34.115C118.865 34.3017 118.845 34.4283 118.805 34.495C118.765 34.5583 118.688 34.59 118.575 34.59H115.4Z" fill="#6772E5"/>
<path d="M5.20482 17.0294C5.20482 17.0294 4.4188 8.76908 1.54834 5.61523H4.72226C4.72226 5.61523 5.56798 11.5027 5.20482 17.0294Z" fill="url(#paint1_linear_11459_74174)"/>
<path d="M5.99122 17.0296C5.99122 17.0296 6.73744 8.47019 5.14551 2.01172L8.50102 2.43189C8.50102 2.43189 8.04581 12.8253 5.99122 17.0296Z" fill="url(#paint2_linear_11459_74174)"/>
<path d="M7.11035 17.3017C7.11035 17.3017 9.61765 12.4646 9.98081 0L26.1837 3.46034C26.1837 3.46034 19.413 13.5546 18.0823 15.5715C18.0823 15.5715 21.3781 7.1011 21.7711 5.32892C21.7711 5.32892 15.3934 3.9769 12.2493 3.46527C11.336 8.33297 9.5984 13.0115 7.11035 17.3017Z" fill="url(#paint3_linear_11459_74174)"/>
<path d="M15.7439 27.5661C15.5359 26.2884 15.845 24.9808 16.6037 23.9288C17.3623 22.8767 18.509 22.1655 19.7934 21.9504L28.0018 20.6034L27.6884 18.7669C27.504 17.6925 26.898 16.7347 26.0035 16.104C25.1089 15.4732 23.999 15.2211 22.9175 15.403L3.69242 18.6483C1.92139 15.3115 1.12294 11.5225 1.12294 11.5225C-0.170279 16.0617 -0.349405 20.8429 0.600582 25.4651C0.655304 25.7123 0.702562 25.9372 0.744847 26.1745L2.52085 36.5778C2.70459 37.6525 3.31045 38.6107 4.20515 39.2415C5.09985 39.8724 6.21011 40.1243 7.29169 39.9417L26.5566 36.6915C27.6379 36.5083 28.6017 35.9061 29.2365 35.0172C29.8713 34.1283 30.125 33.0254 29.9419 31.9508L29.6559 30.233L21.3977 31.5899C20.1115 31.7973 18.795 31.4905 17.7357 30.7366C16.6764 29.9826 15.9603 28.8428 15.7439 27.5661Z" fill="url(#paint4_linear_11459_74174)"/>
<path d="M16.7016 27.4356C16.8808 28.4939 17.4743 29.4386 18.3524 30.0634C19.2306 30.6882 20.3218 30.9422 21.3878 30.7699L29.5166 29.4352L28.1635 21.4492L20.072 22.779C19.0042 22.9536 18.0498 23.5419 17.4179 24.4149C16.7861 25.2878 16.5285 26.3742 16.7016 27.4356Z" fill="url(#paint5_linear_11459_74174)"/>
<path d="M20.7439 29.3091C22.196 29.3091 23.3731 28.1394 23.3731 26.6965C23.3731 25.2537 22.196 24.084 20.7439 24.084C19.2919 24.084 18.1147 25.2537 18.1147 26.6965C18.1147 28.1394 19.2919 29.3091 20.7439 29.3091Z" fill="white"/>
<path d="M14.5428 12.9792C14.0454 12.8581 13.727 12.4305 13.8265 12.0301C13.8399 11.9761 13.8424 11.9199 13.834 11.8649C13.8255 11.8099 13.8063 11.7571 13.7773 11.7094C13.7483 11.6618 13.7101 11.6203 13.665 11.5873C13.6199 11.5544 13.5687 11.5305 13.5143 11.5172C13.4599 11.5039 13.4034 11.5014 13.348 11.5098C13.2927 11.5182 13.2395 11.5373 13.1916 11.5661C13.1437 11.5949 13.1019 11.6328 13.0687 11.6777C13.0355 11.7225 13.0116 11.7734 12.9982 11.8274C12.9227 12.1921 12.9744 12.5715 13.1449 12.903C13.3153 13.2346 13.5943 13.4985 13.9359 13.6515V13.696C13.9089 13.8052 13.9266 13.9205 13.9851 14.0167C14.0436 14.1129 14.1382 14.182 14.2481 14.2089C14.3579 14.2358 14.474 14.2182 14.5708 14.16C14.6676 14.1018 14.7372 14.0078 14.7642 13.8987L14.7766 13.8542C15.1505 13.8755 15.5205 13.7699 15.826 13.5548C16.1315 13.3397 16.3544 13.0278 16.4581 12.6703C16.5875 12.1537 16.4755 11.3974 15.2144 10.7325C14.5926 10.4038 14.319 10.0701 14.4011 9.74382C14.5006 9.3434 14.9831 9.11354 15.4781 9.23465C15.9731 9.35576 16.2915 9.7809 16.192 10.1838C16.1677 10.2923 16.1871 10.4059 16.2461 10.5003C16.3051 10.5948 16.399 10.6625 16.5076 10.689C16.6162 10.7155 16.731 10.6987 16.8273 10.6421C16.9236 10.5856 16.9937 10.4938 17.0228 10.3864C17.0978 10.0218 17.0458 9.64265 16.8754 9.3112C16.705 8.97975 16.4263 8.7157 16.085 8.56237V8.5154C16.1121 8.40626 16.0944 8.29091 16.0358 8.19472C15.9773 8.09854 15.8827 8.02941 15.7729 8.00253C15.663 7.97565 15.5469 7.99323 15.4501 8.05141C15.3533 8.10958 15.2838 8.20358 15.2567 8.31272L15.2443 8.35969C14.8704 8.33769 14.5 8.44264 14.194 8.65732C13.888 8.872 13.6646 9.18364 13.5603 9.54114C13.4335 10.0577 13.5454 10.8141 14.804 11.4814C15.2294 11.7063 15.7169 12.0598 15.6174 12.4701C15.5179 12.8804 15.0353 13.1003 14.5404 12.9792H14.5428Z" fill="url(#paint6_linear_11459_74174)"/>
<defs>
<linearGradient id="paint0_linear_11459_74174" x1="153.129" y1="17.5" x2="139.526" y2="-11.0124" gradientUnits="userSpaceOnUse">
<stop stop-color="#9772EE"/>
<stop offset="1" stop-color="#9461FA"/>
</linearGradient>
<linearGradient id="paint1_linear_11459_74174" x1="4.76774" y1="11.3223" x2="2.74441" y2="11.0833" gradientUnits="userSpaceOnUse">
<stop stop-color="#FFA847"/>
<stop offset="1" stop-color="#9461FA"/>
</linearGradient>
<linearGradient id="paint2_linear_11459_74174" x1="8.02847" y1="9.52064" x2="6.2031" y2="9.37391" gradientUnits="userSpaceOnUse">
<stop stop-color="#FFA847"/>
<stop offset="1" stop-color="#9461FA"/>
</linearGradient>
<linearGradient id="paint3_linear_11459_74174" x1="23.4977" y1="8.65084" x2="14.4743" y2="5.07207" gradientUnits="userSpaceOnUse">
<stop stop-color="#FFA847"/>
<stop offset="1" stop-color="#9461FA"/>
</linearGradient>
<linearGradient id="paint4_linear_11459_74174" x1="25.7752" y1="25.7611" x2="11.413" y2="20.3178" gradientUnits="userSpaceOnUse">
<stop stop-color="#9772EE"/>
<stop offset="1" stop-color="#9461FA"/>
</linearGradient>
<linearGradient id="paint5_linear_11459_74174" x1="27.7045" y1="26.1359" x2="22.0409" y2="23.3387" gradientUnits="userSpaceOnUse">
<stop stop-color="#FFA847"/>
<stop offset="1" stop-color="#9461FA"/>
</linearGradient>
<linearGradient id="paint6_linear_11459_74174" x1="16.48" y1="11.1057" x2="14.3581" y2="10.6044" gradientUnits="userSpaceOnUse">
<stop stop-color="#FFA847"/>
<stop offset="1" stop-color="#9461FA"/>
</linearGradient>
</defs>
</svg>
