<svg width="20" height="20" viewBox="0 0 20 20" fill="none" xmlns="http://www.w3.org/2000/svg"><path d="M19.239 3.79524L19.2372 3.7972C19.0771 3.97733 18.8559 4.05909 18.6301 4.05909C18.4259 4.05909 18.2458 3.99891 18.0839 3.85795L17.5855 3.38221L17.5106 3.31067L17.4417 3.38811L16.5327 4.41084L16.4735 4.47733L16.5327 4.54377C17.9946 6.1856 18.8938 8.34408 18.8938 10.7045C18.8938 15.7858 14.7793 19.9 9.72103 19.9C4.66294 19.9 0.548303 15.7633 0.548303 10.7045C0.548303 6.29807 3.65078 2.61099 7.80984 1.73421L7.87753 1.71994L7.88805 1.65157C7.93196 1.36616 8.04091 1.00017 8.29696 0.701444L8.29737 0.700958C8.53125 0.424558 8.95917 0.1 9.72103 0.1H9.72116H9.7213H9.72143H9.72156H9.72169H9.72182H9.72195H9.72208H9.72221H9.72234H9.72246H9.72259H9.72272H9.72284H9.72297H9.7231H9.72322H9.72334H9.72347H9.72359H9.72371H9.72384H9.72396H9.72408H9.7242H9.72432H9.72444H9.72456H9.72468H9.7248H9.72492H9.72504H9.72515H9.72527H9.72539H9.7255H9.72562H9.72573H9.72585H9.72596H9.72608H9.72619H9.7263H9.72641H9.72653H9.72664H9.72675H9.72686H9.72697H9.72708H9.72719H9.7273H9.72741H9.72752H9.72762H9.72773H9.72784H9.72795H9.72805H9.72816H9.72826H9.72837H9.72847H9.72858H9.72868H9.72878H9.72889H9.72899H9.72909H9.72919H9.7293H9.7294H9.7295H9.7296H9.7297H9.7298H9.7299H9.73H9.73009H9.73019H9.73029H9.73039H9.73048H9.73058H9.73068H9.73077H9.73087H9.73097H9.73106H9.73116H9.73125H9.73134H9.73144H9.73153H9.73162H9.73172H9.73181H9.7319H9.73199H9.73209H9.73218H9.73227H9.73236H9.73245H9.73254H9.73263H9.73272H9.73281H9.73289H9.73298H9.73307H9.73316H9.73325H9.73333H9.73342H9.73351H9.73359H9.73368H9.73376H9.73385H9.73394H9.73402H9.73411H9.73419H9.73427H9.73436H9.73444H9.73452H9.73461H9.73469H9.73477H9.73486H9.73494H9.73502H9.7351H9.73518H9.73526H9.73534H9.73542H9.73551H9.73559H9.73567H9.73575H9.73582H9.7359H9.73598H9.73606H9.73614H9.73622H9.7363H9.73637H9.73645H9.73653H9.73661H9.73668H9.73676H9.73684H9.73691H9.73699H9.73707H9.73714H9.73722H9.73729H9.73737H9.73744H9.73752H9.73759H9.73767H9.73774H9.73782H9.73789H9.73796H9.73804H9.73811H9.73818H9.73826H9.73833H9.7384H9.73848H9.73855H9.73862H9.73869H9.73877H9.73884H9.73891H9.73898H9.73905H9.73912H9.73919H9.73927H9.73934H9.73941H9.73948H9.73955H9.73962H9.73969H9.73976H9.73983H9.7399H9.73997H9.74004H9.74011H9.74018H9.74025H9.74032H9.74039H9.74046H9.74052H9.74059H9.74066H9.74073H9.7408H9.74087H9.74094H9.741H9.74107H9.74114H9.74121H9.74128H9.74135H9.74141H9.74148H9.74155H9.74162H9.74168H9.74175H9.74182H9.74189H9.74195H9.74202H9.74209H9.74216H9.74222H9.74229H9.74236H9.74242H9.74249H9.74256H9.74262H9.74269H9.74276H9.74282H9.74289H9.74296H9.74302H9.74309H9.74316H9.74323H9.74329H9.74336H9.74343H9.74349H9.74356H9.74362H9.74369H9.74376H9.74382H9.74389H9.74396H9.74402H9.74409H9.74416H9.74422H9.74429H9.74436H9.74442H9.74449H9.74456H9.74462H9.74469H9.74476H9.74482H9.74489H9.74496H9.74503H9.74509H9.74516H9.74523H9.74529H9.74536H9.74543H9.74549H9.74556H9.74563H9.7457H9.74576H9.74583H9.7459H9.74597H9.74604H9.7461H9.74617H9.74624H9.74631H9.74638H9.74644H9.74651H9.74658H9.74665H9.74672H9.74679H9.74685H9.74692H9.74699H9.74706H9.74713H9.7472H9.74727H9.74734H9.74741H9.74748H9.74755H9.74762H9.74769H9.74776H9.74783H9.7479H9.74797H9.74804H9.74811H9.74818H9.74825H9.74832H9.74839H9.74846H9.74854H9.74861H9.74868H9.74875H9.74882H9.74889H9.74897H9.74904H9.74911H9.74919H9.74926H9.74933H9.7494H9.74948H9.74955H9.74963H9.7497H9.74977H9.74985H9.74992H9.75H9.75007H9.75015H9.75022H9.7503H9.75037H9.75045H9.75053H9.7506H9.75068H9.75076H9.75083H9.75091H9.75099H9.75106H9.75114H9.75122H9.7513H9.75138H9.75145H9.75153H9.75161H9.75169H9.75177H9.75185H9.75193H9.75201H9.75209H9.75217H9.75225H9.75233H9.75241H9.7525H9.75258H9.75266H9.75274H9.75282H9.75291H9.75299H9.75307H9.75316H9.75324H9.75333H9.75341H9.7535H9.75358H9.75366H9.75375H9.75384H9.75392H9.75401H9.7541H9.75418H9.75427H9.75436H9.75445H9.75453H9.75462H9.75471H9.7548H9.75489H9.75498H9.75507H9.75516H9.75525H9.75534H9.75543H9.75552H9.75561H9.75571H9.7558H9.75589H9.75598H9.75608H9.75617H9.75627H9.75636H9.75645H9.75655H9.75665H9.75674H9.75684H9.75693H9.75703H9.75713H9.75723H9.75732H9.75742H9.75752H9.75762H9.75772H9.75782H9.75792H9.75802H9.75812H9.75822H9.75832H9.75842H9.75853H9.75863H9.75873H9.75883H9.75894H9.75904H9.75915H9.75925H9.75936H9.75946H9.75957H9.75968H9.75978H9.75989H9.76H9.76011H9.76022H9.76033H9.76044H9.76054H9.76066H9.76077H9.76088H9.76099H9.7611H9.76121H9.76133H9.76144H9.76155H9.76167H9.76178H9.7619H9.76201H9.76213H9.76225H9.76236H9.76248H9.7626H9.76272H9.76283H9.76295H9.76307H9.76319H9.76331H9.76343H9.76356H9.76368H9.7638H9.76384C10.5971 0.144535 11.0449 0.493674 11.2533 0.785396L11.2532 0.785433L11.2554 0.788244C11.4712 1.06881 11.5774 1.3686 11.5986 1.64403L11.6043 1.71777L11.6764 1.73394C12.9805 2.02623 14.1723 2.58835 15.207 3.35315L15.2805 3.40745L15.3412 3.33916L16.2503 2.31644L16.316 2.24253L16.2428 2.17601L15.7428 1.72146L15.7429 1.72145L15.7417 1.72047C15.3976 1.41678 15.3781 0.890762 15.6803 0.568394L15.6805 0.568535L15.6846 0.563571C15.9641 0.224122 16.488 0.201266 16.8117 0.504772L16.8131 0.506005L17.9949 1.57419L19.1767 2.64237L19.1776 2.64317C19.5218 2.94686 19.5412 3.47287 19.239 3.79524ZM8.90884 9.51757L8.95739 9.48844V9.43182V5.75C8.95739 5.30523 9.32171 4.94091 9.76649 4.94091C10.2113 4.94091 10.5756 5.30523 10.5756 5.75V9.43182V9.48844L10.6241 9.51757C11.039 9.76651 11.2119 10.2042 11.2119 10.7045C11.2119 11.5111 10.5313 12.1727 9.72103 12.1727C8.91452 12.1727 8.27558 11.5149 8.27558 10.7045C8.27558 10.2112 8.48901 9.76947 8.90884 9.51757ZM2.16649 10.7045C2.16649 14.8734 5.55217 18.2591 9.72103 18.2591C13.8899 18.2591 17.2756 14.8734 17.2756 10.7045C17.2756 6.53568 13.8899 3.15 9.72103 3.15C5.55217 3.15 2.16649 6.53568 2.16649 10.7045Z" fill="#5B3F91" stroke="#5B3F91" stroke-width="0.2"/>
</svg>
