<?xml version="1.0" encoding="UTF-8"?>
<svg width="45px" height="39px" viewBox="0 0 45 39" version="1.1" xmlns="http://www.w3.org/2000/svg" xmlns:xlink="http://www.w3.org/1999/xlink">
    <!-- Generator: sketchtool 52.5 (67469) - http://www.bohemiancoding.com/sketch -->
    <title>A7F40289-2807-4E62-81B9-0772F5BC6425@1.5x</title>
    <desc>Created with sketchtool.</desc>
    <g id="Pricing" stroke="none" stroke-width="1" fill="none" fill-rule="evenodd">
        <g id="01---Pricing_faq_expanded_A" transform="translate(-1174.000000, -526.000000)" fill-rule="nonzero">
            <g id="Plans" transform="translate(256.000000, 292.000000)">
                <g id="Select" transform="translate(638.000000, 102.000000)">
                    <g id="Group-3">
                        <g id="Group-4" transform="translate(33.000000, 0.000000)">
                            <g id="Group-19" transform="translate(247.000000, 1.000000)">
                                <g id="Group-18">
                                    <g id="Subsrciption_Plans" transform="translate(0.000000, 131.000000)">
                                        <path d="M37.0623997,16.459378 L37.0623997,2.35220327 C37.0623997,1.0557297 36.00667,0 34.7091542,0 L9.745785,0 C8.4486166,0 7.39358173,1.0557297 7.39358173,2.35220327 L7.39358173,26.9371217 L3.54063735,26.9371217 C1.61294932,26.9371217 0.0444664032,28.5056047 0.0444664032,30.4332927 L0.0444664032,34.4578496 C0.0444664032,36.8420131 1.98396587,38.7815124 4.36778191,38.7815124 C4.35874971,38.7815124 32.405586,38.7936712 32.7366524,38.7585845 C39.3357445,39.175457 44.9162781,33.9246001 44.9162781,27.3310662 C44.9166255,22.2730129 41.6198586,17.9698463 37.0623997,16.459378 Z M4.36778191,37.4384881 C2.7246094,37.4384881 1.38749069,36.1013695 1.38749069,34.4578496 L1.38749069,30.4332927 C1.38749069,29.2459007 2.35324547,28.280146 3.54063735,28.280146 L7.3939291,28.280146 L7.3939291,28.2825778 L7.3939291,28.2839674 L7.3939291,28.2846621 L7.3939291,28.2843148 L7.3939291,28.2957787 C7.3939291,28.295084 7.3939291,28.2943892 7.3939291,28.293347 C7.39427647,28.4013864 7.39462393,29.2691761 7.39705562,34.4578496 C7.39705562,35.9832556 6.22946517,37.4034014 4.36778191,37.4384881 Z M7.54678236,37.4388355 C8.30549037,36.642609 8.74112211,35.5774997 8.74112211,34.4581969 C8.74112211,34.4446486 8.74077474,27.5832742 8.73695348,27.5419343 L8.73695348,2.35220327 C8.73695348,1.79602577 9.18891276,1.34302429 9.745785,1.34302429 L34.7091542,1.34302429 C35.2660264,1.34302429 35.7190279,1.79602577 35.7190279,2.35220327 L35.7190279,16.1029521 C28.5981503,14.6769007 22.0143435,20.1556478 22.0143435,27.3310662 C22.0143435,31.7030169 24.4777127,35.5111475 28.088871,37.4388355 L7.54678236,37.4388355 Z M35.8715338,37.1487618 C29.5277761,38.7106442 23.3573678,33.8804811 23.3573678,27.3310662 C23.3573678,20.2838362 30.4570544,15.3515393 37.0623997,17.8847347 C40.8656667,19.3368407 43.5736012,23.0233834 43.5736012,27.3310662 C43.5736012,32.0747283 40.287256,36.0673249 35.8715338,37.1487618 Z" id="Shape" fill="#4353FF"></path>
                                        <path d="M31.3040005,20.0820004 C30.9486166,20.1876081 30.746086,20.5610564 30.8516937,20.9164402 C30.9576488,21.2718241 31.331792,21.4750494 31.6871758,21.3694417 C35.6842885,20.177881 39.6855701,23.1751946 39.6855701,27.3310662 C39.6855701,32.8351732 32.9853863,35.6469785 29.0674793,31.7290714 C26.4901649,29.1521045 26.6391968,24.8687392 29.5573046,22.4915236 C29.845294,22.2577276 29.889413,21.8349494 29.6566591,21.5466126 C29.4228631,21.2586231 29.0000849,21.214504 28.7117481,21.4472579 C25.1506145,24.3431324 25.000193,29.5620291 28.1183995,32.6781512 C32.8832525,37.4464782 41.0289417,34.0201334 41.0289417,27.3310662 C41.0289417,22.2671072 36.1536175,18.6389266 31.3040005,20.0820004 Z" id="Shape" fill="#EDB726"></path>
                                        <path d="M33.3491076,29.5154783 C32.468117,29.4873394 32.5157099,28.8325022 31.9699543,28.8325022 C31.6288137,28.8325022 31.3540252,29.2094244 31.3540252,29.5210366 C31.3540252,30.4034168 32.7800766,30.7365674 32.7891088,30.7414309 L32.7943197,30.7414309 L32.7943197,31.3066406 C32.7943197,31.6773098 33.0948153,31.9781527 33.4658319,31.9781527 C33.836501,31.9781527 34.1373441,31.6773098 34.1373441,31.3066406 L34.1373441,30.7271878 L34.1401232,30.7271878 C34.1901479,30.6903641 35.5772913,30.4339874 35.5772913,28.7081352 C35.5772913,27.0156327 34.186674,26.7092314 34.0550118,26.6102242 C33.4349138,26.3802495 32.8231534,26.260746 32.8231534,25.7379184 C32.8231534,24.8437268 33.9966496,25.2074481 34.8310894,25.4759835 C35.3896986,25.4415915 36.1119303,24.2715692 34.1373441,23.9304286 L34.1373441,23.3679981 C34.1373441,22.997329 33.8368484,22.6964859 33.4658319,22.6964859 C33.0948153,22.6964859 32.7943197,22.997329 32.7943197,23.3679981 L32.7943197,24.0217932 C32.7849401,24.0287411 31.5037519,24.2802542 31.5037519,25.7879431 C31.5037519,27.0910172 32.4330302,27.4404953 33.1799268,27.7208421 C33.9275182,28.0018836 34.2578897,28.1516104 34.2578897,28.7578125 C34.2578897,29.5304163 33.6919852,29.4553792 33.3491076,29.5154783 Z" id="Shape" fill="#EDB726"></path>
                                        <path d="M12.0358048,5.33116658 L26.3619766,5.33116658 C26.7329931,5.33116658 27.0334887,5.03067099 27.0334887,4.65965444 C27.0334887,4.28863789 26.7329931,3.98814229 26.3619766,3.98814229 L12.0358048,3.98814229 C11.6651356,3.98814229 11.3642925,4.28863789 11.3642925,4.65965444 C11.3642925,5.03067099 11.6651356,5.33116658 12.0358048,5.33116658 Z" id="Shape" fill="#22DDAB"></path>
                                        <path d="M32.4406729,3.98814229 L29.0483726,3.98814229 C28.6773561,3.98814229 28.3765131,4.28863789 28.3765131,4.65965444 C28.3765131,5.03067099 28.6773561,5.33116658 29.0483726,5.33116658 L32.4406729,5.33116658 C32.8116894,5.33116658 33.112185,5.03067099 33.112185,4.65965444 C33.112185,4.28863789 32.811342,3.98814229 32.4406729,3.98814229 Z" id="Shape" fill="#22DDAB"></path>
                                        <path d="M12.0358048,10.2558207 L32.4406729,10.2558207 C32.811342,10.2558207 33.112185,9.95532514 33.112185,9.58430859 C33.112185,9.21329204 32.811342,8.91279644 32.4406729,8.91279644 L12.0358048,8.91279644 C11.6651356,8.91279644 11.3642925,9.21329204 11.3642925,9.58430859 C11.3642925,9.95532514 11.6651356,10.2558207 12.0358048,10.2558207 Z" id="Shape" fill="#22DDAB"></path>
                                        <path d="M12.0358048,15.1804749 L15.428105,15.1804749 C15.7991215,15.1804749 16.0999645,14.8799793 16.0999645,14.5089627 C16.0999645,14.1379462 15.7991215,13.8374506 15.428105,13.8374506 L12.0358048,13.8374506 C11.6651356,13.8374506 11.3642925,14.1379462 11.3642925,14.5089627 C11.3642925,14.8799793 11.6651356,15.1804749 12.0358048,15.1804749 Z" id="Shape" fill="#22DDAB"></path>
                                        <path d="M32.4406729,13.8374506 L18.114501,13.8374506 C17.7434844,13.8374506 17.4429888,14.1379462 17.4429888,14.5089627 C17.4429888,14.8799793 17.7434844,15.1804749 18.114501,15.1804749 L32.4406729,15.1804749 C32.811342,15.1804749 33.112185,14.8799793 33.112185,14.5089627 C33.112185,14.1379462 32.811342,13.8374506 32.4406729,13.8374506 Z" id="Shape" fill="#22DDAB"></path>
                                        <path d="M12.0358048,20.105129 L22.2380651,20.105129 C22.6090816,20.105129 22.9095773,19.8046334 22.9095773,19.4336169 C22.9095773,19.0626003 22.6090816,18.7621047 22.2380651,18.7621047 L12.0358048,18.7621047 C11.6651356,18.7621047 11.3642925,19.0626003 11.3642925,19.4336169 C11.3642925,19.8046334 11.6651356,20.105129 12.0358048,20.105129 Z" id="Shape" fill="#22DDAB"></path>
                                        <path d="M19.8448694,23.6867589 L12.0358048,23.6867589 C11.6651356,23.6867589 11.3642925,23.9872545 11.3642925,24.358271 C11.3642925,24.7289402 11.6651356,25.0297832 12.0358048,25.0297832 L19.8448694,25.0297832 C20.2158859,25.0297832 20.5163815,24.7289402 20.5163815,24.358271 C20.5163815,23.9872545 20.2158859,23.6867589 19.8448694,23.6867589 Z" id="Shape" fill="#22DDAB"></path>
                                        <path d="M19.8448694,28.6110657 L12.0358048,28.6110657 C11.6651356,28.6110657 11.3642925,28.9119086 11.3642925,29.2825778 C11.3642925,29.6535944 11.6651356,29.9544373 12.0358048,29.9544373 L19.8448694,29.9544373 C20.2158859,29.9544373 20.5163815,29.6535944 20.5163815,29.2825778 C20.5163815,28.9119086 20.2158859,28.6110657 19.8448694,28.6110657 Z" id="Shape" fill="#22DDAB"></path>
                                        <path d="M19.8448694,33.5357198 L12.0358048,33.5357198 C11.6651356,33.5357198 11.3642925,33.8362154 11.3642925,34.207232 C11.3642925,34.5782485 11.6651356,34.8787441 12.0358048,34.8787441 L19.8448694,34.8787441 C20.2158859,34.8787441 20.5163815,34.5782485 20.5163815,34.207232 C20.5163815,33.8362154 20.2158859,33.5357198 19.8448694,33.5357198 Z" id="Shape" fill="#22DDAB"></path>
                                    </g>
                                </g>
                            </g>
                        </g>
                    </g>
                </g>
            </g>
        </g>
    </g>
</svg>