<svg width="80" height="80" viewBox="0 0 80 80" fill="none" xmlns="http://www.w3.org/2000/svg">
<path d="M39.9999 70.4762C56.8314 70.4762 70.4761 56.8315 70.4761 40C70.4761 23.1685 56.8314 9.5238 39.9999 9.5238C23.1684 9.5238 9.52368 23.1685 9.52368 40C9.52368 56.8315 23.1684 70.4762 39.9999 70.4762Z" fill="url(#paint0_radial_3796_29273)"/>
<path opacity="0.5" d="M39.9999 70.4762C56.8314 70.4762 70.4761 56.8315 70.4761 40C70.4761 23.1685 56.8314 9.5238 39.9999 9.5238C23.1684 9.5238 9.52368 23.1685 9.52368 40C9.52368 56.8315 23.1684 70.4762 39.9999 70.4762Z" fill="url(#paint1_radial_3796_29273)"/>
<path d="M46.9903 37.3143C46.8379 39.7524 48.0188 41.8286 49.6379 41.9238C51.2569 42.0191 52.7045 40.1334 52.8569 37.6953C53.0093 35.2572 51.8284 33.181 50.2093 33.0857C48.5903 32.9715 47.1426 34.8762 46.9903 37.3143Z" fill="url(#paint2_radial_3796_29273)"/>
<path d="M50.1143 34.5713C48.8572 34.4951 47.6953 35.5236 47.0095 37.1046C47.2 34.7046 48.6286 32.876 50.2095 32.9713C51.8095 33.0665 52.9715 35.0855 52.8572 37.4855C52.4 35.8284 51.3715 34.6474 50.1143 34.5713Z" fill="url(#paint3_linear_3796_29273)"/>
<path d="M27.1426 36.038C26.9903 38.4761 28.1712 40.5523 29.7903 40.6476C31.4093 40.7428 32.8569 38.8571 33.0093 36.419C33.1617 33.9809 31.9807 31.9047 30.3617 31.8095C28.7426 31.7142 27.295 33.5999 27.1426 36.038Z" fill="url(#paint4_radial_3796_29273)"/>
<path d="M30.2478 33.4096C31.505 33.4858 32.5336 34.6477 33.0098 36.3048C33.124 33.9048 31.9621 31.9048 30.3621 31.7905C28.7621 31.6763 27.3526 33.5239 27.1621 35.9239C27.8288 34.3429 28.9907 33.3143 30.2478 33.4096Z" fill="url(#paint5_linear_3796_29273)"/>
<path d="M34.4572 25.6C33.4096 25.2572 32.4191 23.981 30.0572 23.0286C27.1048 21.8286 25.0858 22.4381 23.0287 23.9048C22.8382 24.0381 22.6287 24.1714 22.4001 24.3238C21.962 24.6095 21.8287 25.2381 22.0953 25.7524C22.2477 26.0762 23.0287 26.6857 23.8477 26.1905C26.4191 24.6286 28.0572 25.0857 30.0001 25.8667C31.5429 26.4952 32.5525 28 34.5334 27.8476C35.3334 27.7905 35.6953 27.3905 35.7334 26.8C35.7906 26.0952 35.2191 25.8476 34.4572 25.6Z" fill="url(#paint6_linear_3796_29273)"/>
<path d="M47.1624 53.638C47.029 53.638 46.9147 53.5999 46.7814 53.5618C46.7624 53.5427 43.8862 52.5142 40.3624 51.7523C35.8671 50.7808 32.3814 50.6856 30.2671 51.4856C29.5814 51.7523 28.8004 51.3903 28.5528 50.7046C28.2862 50.0189 28.6481 49.238 29.3338 48.9903C35.5052 46.6665 47.2005 50.8761 47.6957 51.0475C48.3814 51.2951 48.7433 52.057 48.4957 52.7618C48.2862 53.3142 47.7338 53.657 47.1624 53.638Z" fill="#643800"/>
<path d="M48.5713 52.3427C48.5903 51.7713 48.2474 51.238 47.6951 51.0475C47.1998 50.8761 35.5046 46.6665 29.3332 48.9903C28.6855 49.238 28.3427 49.9046 28.5141 50.5522C31.3713 48.7237 35.9427 48.0189 48.5713 52.3427Z" fill="url(#paint7_linear_3796_29273)"/>
<path d="M39.9999 70.4762C56.8314 70.4762 70.4761 56.8315 70.4761 40C70.4761 23.1685 56.8314 9.5238 39.9999 9.5238C23.1684 9.5238 9.52368 23.1685 9.52368 40C9.52368 56.8315 23.1684 70.4762 39.9999 70.4762Z" fill="url(#paint8_linear_3796_29273)"/>
<path d="M45.3908 29.8287C45.0289 28.4954 46.2479 27.2954 48.7051 26.6287C50.8003 26.0573 55.6955 25.9811 59.9622 29.1811C60.7432 29.7716 59.9622 30.4192 59.2575 30.0954C56.8765 28.9716 51.086 28.2668 47.1432 29.7906C45.5432 30.4192 45.3908 29.8287 45.3908 29.8287Z" fill="url(#paint9_linear_3796_29273)"/>
<path d="M39.9999 70.4762C56.8314 70.4762 70.4761 56.8315 70.4761 40C70.4761 23.1685 56.8314 9.5238 39.9999 9.5238C23.1684 9.5238 9.52368 23.1685 9.52368 40C9.52368 56.8315 23.1684 70.4762 39.9999 70.4762Z" fill="url(#paint10_radial_3796_29273)"/>
<path d="M62.4953 47.7716C64.5524 48.9335 62.781 52.8192 62.4762 54.9906C62 58.4001 64.9905 64.3811 63.3143 69.7906C61.6381 75.2001 59.5048 78.762 49.9619 77.6001C40.4191 76.4382 39.6762 74.0001 40.1143 72.6668C40.5143 71.4287 41.4286 71.6382 41.4286 71.6382C41.4286 71.6382 39.4857 70.6858 39.7333 68.6477C39.981 66.6096 42.1714 66.8382 42.1714 66.8382C42.1714 66.8382 40.381 66.1716 40.6476 63.9049C40.9143 61.6382 43.3714 61.9049 43.3714 61.9049C43.3714 61.9049 39.181 59.4477 34.3619 56.8763C30.9524 55.0668 31.1619 54.0573 31.6952 53.3335C32.2286 52.6096 34.4 51.5239 39.3333 54.2668C44.2667 57.0096 51.3333 59.1239 53.5048 59.0858C55.6762 59.0287 57.9048 57.943 57.8667 52.762C57.8095 48.5716 60.8191 46.8192 62.4953 47.7716Z" fill="url(#paint11_linear_3796_29273)"/>
<path d="M43.3334 61.9237C43.3334 61.9237 39.1429 59.4666 34.3238 56.8952C30.9143 55.0856 31.1238 54.0761 31.6572 53.3523C31.7524 53.219 31.9238 53.0666 32.1524 52.9714C30.4762 55.9237 48.7619 61.6952 43.3334 61.9237Z" fill="url(#paint12_linear_3796_29273)"/>
<path d="M53.467 59.0858C55.6384 59.0287 57.867 57.943 57.8289 52.762C57.7908 48.5525 60.8194 46.8192 62.4765 47.7525C62.6098 47.8287 62.7241 47.9049 62.8194 48.0001C60.267 47.9049 58.8384 50.2287 58.7813 53.2763C58.7241 56.2858 57.9813 60.1144 52.686 59.0477C52.9908 59.0858 53.2575 59.1049 53.467 59.0858Z" fill="url(#paint13_radial_3796_29273)"/>
<path d="M39.6955 68.819C42.8193 69.7905 45.5812 72 49.5431 72.5333C53.0479 73.0095 59.4479 72.2095 63.6003 68.5714C63.5241 68.9714 63.4288 69.3714 63.3146 69.7905C61.6384 75.2 59.505 78.7619 49.9622 77.6C40.4193 76.4381 39.6765 74 40.1145 72.6667C40.5145 71.4286 41.4288 71.6381 41.4288 71.6381C41.4288 71.6381 39.5812 70.7238 39.6955 68.819Z" fill="url(#paint14_linear_3796_29273)"/>
<path d="M31.6189 53.4287C31.638 53.4097 31.657 53.3906 31.657 53.3716C32.1903 52.6477 34.3618 51.562 39.2951 54.3049C44.2284 57.0478 51.2951 59.162 53.4665 59.1239C55.638 59.0668 57.8665 57.9811 57.8284 52.8001C57.8284 51.5049 58.0951 50.4573 58.5332 49.6382C59.638 49.5239 60.4951 50.1335 60.5903 52.4954C60.857 58.7811 61.7713 65.0097 56.1142 64.7239C45.7903 64.1906 41.9427 56.0954 31.6189 53.4287Z" fill="url(#paint15_radial_3796_29273)"/>
<path d="M42.1335 66.8383C42.1335 66.8383 43.0859 67.2193 44.0002 67.3717C43.4097 67.3336 42.1145 67.486 41.3145 67.6002C41.0478 67.6383 40.8192 67.7907 40.6859 68.0193C39.6764 69.8288 41.3907 71.6383 41.3907 71.6383C41.3907 71.6383 39.4478 70.686 39.6954 68.6479C39.943 66.6288 42.1335 66.8383 42.1335 66.8383Z" fill="url(#paint16_linear_3796_29273)"/>
<path d="M40.0957 72.6668C40.4195 71.6573 41.1052 71.6192 41.3338 71.6192L41.41 71.6383C41.41 71.6383 42.248 71.7716 43.1623 71.6383C42.4576 71.8097 41.6004 72.0954 41.2004 72.3049C40.5909 73.9811 42.8957 75.4859 49.048 76.4192C59.2195 77.9811 61.029 72.8383 62.1337 69.3335C63.7528 64.2668 60.5909 59.3906 61.5623 54.6668C61.9814 52.6287 62.8576 49.4668 62.648 47.8668C64.4576 49.143 62.8004 52.8764 62.4766 54.9716C61.9623 58.2287 64.9909 64.3621 63.3147 69.7716C61.6385 75.1811 59.5052 78.743 49.9623 77.5811C40.4004 76.4383 39.6576 74.0002 40.0957 72.6668Z" fill="url(#paint17_linear_3796_29273)"/>
<path d="M43.1819 71.6382C43.1628 71.6382 43.1628 71.6382 43.1438 71.6382C43.2009 71.6192 43.2771 71.6001 43.3342 71.5811L43.1819 71.6382Z" fill="url(#paint18_linear_3796_29273)"/>
<path d="M42.5527 61.962C42.6099 61.943 42.6861 61.943 42.7432 61.943C42.7622 61.943 42.7813 61.943 42.8194 61.943C42.8575 61.943 42.8956 61.943 42.9337 61.943C42.9527 61.943 42.9718 61.943 42.9908 61.943C43.0289 61.943 43.067 61.943 43.1051 61.943C43.1242 61.943 43.1432 61.943 43.1623 61.943C43.2003 61.943 43.2194 61.943 43.2384 61.943C43.2575 61.943 43.2575 61.943 43.2765 61.943C43.2956 61.943 43.3146 61.943 43.3146 61.943H43.3337C43.3527 61.943 43.3527 61.943 43.3527 61.943C43.3527 61.943 43.1813 61.8478 42.8575 61.6573C43.2575 61.1811 43.467 60.724 43.467 60.724L46.0004 62.343C45.048 61.9049 43.1432 62.2478 42.248 62.4573C41.067 63.6001 41.3337 66.2097 42.1527 66.8573C42.1527 66.8573 40.3622 66.1906 40.6289 63.924C40.7813 62.4954 41.8099 62.0763 42.5527 61.962Z" fill="url(#paint19_linear_3796_29273)"/>
<defs>
<radialGradient id="paint0_radial_3796_29273" cx="0" cy="0" r="1" gradientUnits="userSpaceOnUse" gradientTransform="translate(45.9962 27.649) rotate(180) scale(36.7656 36.7656)">
<stop stop-color="#FFE030"/>
<stop offset="1" stop-color="#FFB92E"/>
</radialGradient>
<radialGradient id="paint1_radial_3796_29273" cx="0" cy="0" r="1" gradientUnits="userSpaceOnUse" gradientTransform="translate(45.9962 27.649) rotate(180) scale(43.6362)">
<stop stop-color="#FFEA5F"/>
<stop offset="1" stop-color="#FFBC47" stop-opacity="0"/>
</radialGradient>
<radialGradient id="paint2_radial_3796_29273" cx="0" cy="0" r="1" gradientUnits="userSpaceOnUse" gradientTransform="translate(50.809 37.6564) rotate(109.828) scale(4.30581 2.78578)">
<stop offset="0.00132565" stop-color="#7A4400"/>
<stop offset="1" stop-color="#643800"/>
</radialGradient>
<linearGradient id="paint3_linear_3796_29273" x1="50.2504" y1="33.048" x2="49.9847" y2="37.1754" gradientUnits="userSpaceOnUse">
<stop offset="0.00132565" stop-color="#3C2200"/>
<stop offset="1" stop-color="#512D00"/>
</linearGradient>
<radialGradient id="paint4_radial_3796_29273" cx="0" cy="0" r="1" gradientUnits="userSpaceOnUse" gradientTransform="translate(30.9501 36.3774) rotate(109.828) scale(4.30581 2.78578)">
<stop offset="0.00132565" stop-color="#7A4400"/>
<stop offset="1" stop-color="#643800"/>
</radialGradient>
<linearGradient id="paint5_linear_3796_29273" x1="30.3712" y1="31.8782" x2="30.1054" y2="36.0055" gradientUnits="userSpaceOnUse">
<stop offset="0.00132565" stop-color="#3C2200"/>
<stop offset="1" stop-color="#512D00"/>
</linearGradient>
<linearGradient id="paint6_linear_3796_29273" x1="28.7576" y1="30.0252" x2="28.9481" y2="22.4061" gradientUnits="userSpaceOnUse">
<stop offset="0.00132565" stop-color="#3C2200"/>
<stop offset="1" stop-color="#7A4400"/>
</linearGradient>
<linearGradient id="paint7_linear_3796_29273" x1="38.4086" y1="54.6015" x2="38.8327" y2="41.1426" gradientUnits="userSpaceOnUse">
<stop offset="0.00132565" stop-color="#3C2200"/>
<stop offset="1" stop-color="#512D00"/>
</linearGradient>
<linearGradient id="paint8_linear_3796_29273" x1="39.7798" y1="35.7271" x2="41.3988" y2="67.1557" gradientUnits="userSpaceOnUse">
<stop offset="0.4938" stop-color="#FFBC47" stop-opacity="0"/>
<stop offset="1" stop-color="#FF8900"/>
</linearGradient>
<linearGradient id="paint9_linear_3796_29273" x1="52.9531" y1="30.1549" x2="52.0156" y2="26.681" gradientUnits="userSpaceOnUse">
<stop offset="0.00132565" stop-color="#3C2200"/>
<stop offset="1" stop-color="#7A4400"/>
</linearGradient>
<radialGradient id="paint10_radial_3796_29273" cx="0" cy="0" r="1" gradientUnits="userSpaceOnUse" gradientTransform="translate(42.0199 64.03) scale(11.7924 11.7924)">
<stop offset="0.1836" stop-color="#FF8000" stop-opacity="0.75"/>
<stop offset="0.995" stop-color="#FF8000" stop-opacity="0"/>
</radialGradient>
<linearGradient id="paint11_linear_3796_29273" x1="47.1353" y1="74.5906" x2="47.7578" y2="55.4633" gradientUnits="userSpaceOnUse">
<stop offset="0.00132565" stop-color="#FFCB4B"/>
<stop offset="1" stop-color="#FFD748"/>
</linearGradient>
<linearGradient id="paint12_linear_3796_29273" x1="39.2215" y1="52.5474" x2="35.4119" y2="67.2141" gradientUnits="userSpaceOnUse">
<stop stop-color="#FFBC47" stop-opacity="0"/>
<stop offset="1" stop-color="#FFA754"/>
</linearGradient>
<radialGradient id="paint13_radial_3796_29273" cx="0" cy="0" r="1" gradientUnits="userSpaceOnUse" gradientTransform="translate(57.8002 53.4314) rotate(-173.079) scale(5.40836)">
<stop stop-color="#FFE85B"/>
<stop offset="1" stop-color="#FFE85B" stop-opacity="0"/>
</radialGradient>
<linearGradient id="paint14_linear_3796_29273" x1="50.8813" y1="66.3848" x2="53.454" y2="79.3148" gradientUnits="userSpaceOnUse">
<stop offset="0.4938" stop-color="#FFBC47" stop-opacity="0"/>
<stop offset="1" stop-color="#FF8900"/>
</linearGradient>
<radialGradient id="paint15_radial_3796_29273" cx="0" cy="0" r="1" gradientUnits="userSpaceOnUse" gradientTransform="translate(53.5894 60.4774) rotate(-174.35) scale(9.61913 3.511)">
<stop stop-color="#FFE85B"/>
<stop offset="1" stop-color="#FFE85B" stop-opacity="0"/>
</radialGradient>
<linearGradient id="paint16_linear_3796_29273" x1="42.676" y1="65.9758" x2="39.4855" y2="73.4043" gradientUnits="userSpaceOnUse">
<stop stop-color="#FFBC47" stop-opacity="0"/>
<stop offset="1" stop-color="#FFA754"/>
</linearGradient>
<linearGradient id="paint17_linear_3796_29273" x1="49.9316" y1="56.6312" x2="58.884" y2="80.2503" gradientUnits="userSpaceOnUse">
<stop stop-color="#FFBC47" stop-opacity="0"/>
<stop offset="1" stop-color="#FFA754"/>
</linearGradient>
<linearGradient id="paint18_linear_3796_29273" x1="36.0726" y1="66.8116" x2="55.2753" y2="79.7515" gradientUnits="userSpaceOnUse">
<stop stop-color="#FFBC47" stop-opacity="0"/>
<stop offset="1" stop-color="#FFA754"/>
</linearGradient>
<linearGradient id="paint19_linear_3796_29273" x1="42.7469" y1="60.7788" x2="44.0026" y2="67.09" gradientUnits="userSpaceOnUse">
<stop stop-color="#FFBC47" stop-opacity="0"/>
<stop offset="1" stop-color="#FFA754"/>
</linearGradient>
</defs>
</svg>
