<svg width="27" height="27" viewBox="0 0 27 27" fill="none" xmlns="http://www.w3.org/2000/svg">
<path fill-rule="evenodd" clip-rule="evenodd" d="M16.8898 4.3897C16.8908 4.65664 16.9694 8.51449 21.0536 8.75511C21.0536 9.86766 21.055 10.6743 21.055 11.7359C20.7457 11.7537 18.3662 11.5824 16.8853 10.273L16.8808 16.076C16.937 20.1038 13.9469 22.5548 10.0386 21.7081C3.29919 19.7097 5.53866 9.80101 12.3057 10.8616C12.3057 14.0605 12.3074 10.8606 12.3074 14.0605C9.51178 13.6527 8.57668 15.9581 9.31972 17.6086C9.99553 19.1115 12.7791 19.4373 13.75 17.3171C13.86 16.9022 13.9149 16.4291 13.9149 15.898V4.375L16.8898 4.3897V4.3897Z" fill="url(#paint0_linear_8797_47028)"/>
<defs>
<linearGradient id="paint0_linear_8797_47028" x1="18.9304" y1="13.125" x2="11.3954" y2="10.7881" gradientUnits="userSpaceOnUse">
<stop stop-color="#9772EE"/>
<stop offset="1" stop-color="#9461FA"/>
</linearGradient>
</defs>
</svg>
