<svg width="19" height="15" viewBox="0 0 19 15" fill="none" xmlns="http://www.w3.org/2000/svg">
<path d="M6.11563 14.2344C12.7238 14.2344 16.337 8.76276 16.337 4.0207C16.337 3.86436 16.337 3.70803 16.3296 3.55915C17.0299 3.05293 17.6408 2.42016 18.125 1.69805C17.4843 1.98094 16.7915 2.17449 16.0614 2.26383C16.8064 1.81716 17.3726 1.11739 17.6408 0.276178C16.9479 0.685618 16.1806 0.983394 15.3611 1.14717C14.7055 0.447399 13.7742 0.015625 12.7387 0.015625C10.757 0.015625 9.14777 1.62361 9.14777 3.60381C9.14777 3.8867 9.17757 4.16214 9.24462 4.42269C6.25718 4.27381 3.61244 2.84449 1.83935 0.67073C1.5339 1.19928 1.3551 1.81716 1.3551 2.47227C1.3551 3.71548 1.98835 4.81724 2.95684 5.45746C2.3683 5.44257 1.817 5.2788 1.33275 5.0108V5.05546C1.33275 6.79745 2.56944 8.24166 4.21589 8.57665C3.91789 8.65854 3.59754 8.70321 3.26974 8.70321C3.03879 8.70321 2.81529 8.68087 2.59179 8.63621C3.04624 10.0655 4.37234 11.1003 5.94428 11.1301C4.71504 12.0904 3.16544 12.6636 1.48175 12.6636C1.1912 12.6636 0.908099 12.6487 0.625 12.6115C2.19695 13.6388 4.08924 14.2344 6.11563 14.2344Z" fill="url(#paint0_linear_9005_1838)"/>
<defs>
<linearGradient id="paint0_linear_9005_1838" x1="15.6605" y1="7.125" x2="7.64978" y2="3.57792" gradientUnits="userSpaceOnUse">
<stop stop-color="#9772EE"/>
<stop offset="1" stop-color="#9461FA"/>
</linearGradient>
</defs>
</svg>
