<svg width="160" height="131" viewBox="0 0 160 131" fill="none" xmlns="http://www.w3.org/2000/svg">
<rect width="160" height="130.667" rx="2.66667" fill="url(#paint0_linear_8797_47060)"/>
<rect x="0.666667" y="0.666667" width="158.667" height="129.333" rx="2" stroke="url(#paint1_linear_8797_47060)" stroke-opacity="0.4" stroke-width="1.33333"/>
<path d="M119.487 67.2667H118.131V72.2527C118.131 73.8547 117.225 74.5147 115.923 74.5147C114.621 74.5147 113.715 73.8547 113.715 72.2527V67.2667H112.359V72.3547C112.359 74.6887 113.937 75.8167 115.923 75.8167C117.909 75.8167 119.487 74.6887 119.487 72.3547V67.2667ZM127.841 68.0287C126.995 67.4647 126.029 67.1227 124.805 67.1227C122.987 67.1227 121.493 68.0587 121.493 69.7447C121.493 71.3047 122.735 71.8927 123.983 72.0667L124.637 72.1567C125.867 72.3247 126.527 72.6307 126.527 73.2907C126.527 74.0647 125.663 74.5327 124.565 74.5327C123.593 74.5327 122.507 74.1367 121.931 73.6087L121.193 74.6887C122.063 75.4387 123.431 75.8167 124.571 75.8167C126.389 75.8167 127.937 74.8807 127.937 73.1707C127.937 71.6107 126.593 71.0467 125.231 70.8607L124.649 70.7827C123.557 70.6267 122.903 70.3567 122.903 69.6607C122.903 68.8927 123.671 68.4067 124.793 68.4067C125.645 68.4067 126.437 68.6707 127.151 69.1267L127.841 68.0287ZM129.758 67.2667V75.6667H133.094C135.722 75.6667 137.456 73.9987 137.456 71.4667C137.456 68.9347 135.722 67.2667 133.094 67.2667H129.758ZM133.094 68.5507C135.068 68.5507 136.034 69.7567 136.034 71.4667C136.034 73.1587 135.068 74.3827 133.094 74.3827H131.114V68.5507H133.094Z" fill="#858585"/>
<path d="M18.7733 54.4802V56.9735C15.4933 57.4268 13.12 59.3735 13.0667 62.3868C13 65.5602 15.36 66.9735 18.6267 67.4935L18.7733 67.5202V71.8135C16.9467 71.5602 15.32 70.8135 14.2533 70.0002L12.4267 72.8268C14.0533 74.1068 16.4267 74.8668 18.7867 75.0668V77.6402H21.7467V75.0002C24.8667 74.5468 27.3867 72.7602 27.4667 69.4668C27.5333 66.4268 25 64.9868 21.7333 64.4802V60.2268C23.2133 60.4535 24.5333 61.0135 25.6267 61.6802L27.2933 58.8268C25.6667 57.8402 23.9733 57.1602 21.7333 56.9468V54.4802H18.7733ZM23.8 69.7735C23.7733 70.7735 22.96 71.4268 21.7333 71.7202V68.0268C23.08 68.3735 23.8133 68.8935 23.8 69.7735ZM16.7333 62.2135C16.76 61.2535 17.5333 60.5868 18.7733 60.2935V63.9735C17.4667 63.6402 16.72 63.1468 16.7333 62.2135ZM42.9937 56.3335C40.0204 56.3335 37.9937 57.5735 36.7671 59.2268L39.0337 61.5068C39.7937 60.5068 41.0737 59.6135 42.8071 59.6135C44.5404 59.6135 45.9004 60.4402 45.9004 61.9468C45.9004 63.5202 44.4471 64.3202 42.6337 64.3202H40.4471V67.5202H42.6204C44.6338 67.5202 46.2737 68.3602 46.2737 69.9602C46.2737 71.6002 44.8204 72.3868 43.0071 72.3868C41.4071 72.3868 39.8471 71.7335 38.7671 70.6002L36.6204 72.9602C38.0337 74.6668 40.3404 75.6668 43.1404 75.6668C46.6738 75.6668 50.0204 73.8935 50.0204 70.2135C50.0204 68.2002 48.7804 66.7068 46.8204 65.9335C48.5537 65.1202 49.6071 63.6668 49.6071 61.6935C49.6071 58.4668 46.9271 56.3335 42.9937 56.3335ZM53.2008 71.1202L52.3075 79.0668H55.2408L57.1075 71.1202H53.2008ZM71.5769 56.6668H60.8435L60.6435 67.0002H65.0835C68.0035 67.0002 68.8835 68.2268 68.8835 69.6268C68.8835 71.1068 67.8569 72.3335 65.7769 72.3335C64.0569 72.3335 62.2302 71.4668 61.2169 70.3602L59.1902 72.8802C60.7369 74.6268 63.0169 75.6668 65.8035 75.6668C69.5769 75.6668 72.6169 73.3735 72.6169 69.3602C72.6169 66.2402 70.4302 63.7468 66.0835 63.7468H63.9369L64.0169 60.0135H71.5769V56.6668ZM86.4006 63.5868H82.8006V68.5602H78.8273L85.0673 56.6802H81.0673L74.5206 69.3068V71.9202H82.8006V75.3335H86.4006V71.9202H89.0006V68.5602H86.4006V63.5868ZM98.9602 56.3335C94.4935 56.3335 90.9202 59.9602 90.9202 66.0002C90.9202 72.0402 94.4935 75.6668 98.9602 75.6668C103.414 75.6668 107.014 72.0402 107.014 66.0002C107.014 59.9602 103.414 56.3335 98.9602 56.3335ZM98.9602 59.7868C101.36 59.7868 103.254 61.9202 103.254 66.0002C103.254 70.0802 101.36 72.2135 98.9602 72.2135C96.5735 72.2135 94.6669 70.0802 94.6669 66.0002C94.6669 61.9202 96.5735 59.7868 98.9602 59.7868Z" fill="#343434"/>
<rect x="10.6667" y="93.3335" width="138.667" height="24" rx="12" fill="url(#paint2_linear_8797_47060)"/>
<path d="M66.1646 101.333H64.7396L63.2346 106.703L61.6696 101.333H60.1246L58.5596 106.703L57.0546 101.333H55.6046L57.6946 108.333H59.3846L60.8846 103.333L62.3846 108.333H64.0746L66.1646 101.333ZM68.323 103.488H67.018V108.333H68.323V103.488ZM67.663 101.063C67.193 101.063 66.833 101.433 66.833 101.903C66.833 102.373 67.193 102.733 67.663 102.733C68.133 102.733 68.498 102.373 68.498 101.903C68.498 101.433 68.133 101.063 67.663 101.063ZM73.2088 103.488H71.4538V102.048H70.1488V103.488H69.2138V104.648H70.1488V106.523C70.1488 107.778 70.7638 108.458 71.9638 108.458C72.6538 108.458 73.1438 108.238 73.5688 107.948L73.0888 106.928C72.8238 107.088 72.4888 107.243 72.1788 107.243C71.7738 107.243 71.4538 107.023 71.4538 106.418V104.648H73.2088V103.488ZM75.6668 101.128H74.3618V108.333H75.6668V105.678C75.6668 104.948 76.1318 104.583 76.6918 104.583C77.2868 104.583 77.6368 104.968 77.6368 105.668V108.333H78.9418V105.248C78.9418 104.123 78.1568 103.358 77.0568 103.358C76.5268 103.358 76.0118 103.528 75.6668 104.008V101.128ZM82.315 103.358C80.98 103.358 79.97 104.453 79.97 105.908C79.97 107.363 80.98 108.458 82.315 108.458C82.98 108.458 83.45 108.188 83.765 107.798V108.333H85.04V101.133H83.74V103.993C83.425 103.613 82.965 103.358 82.315 103.358ZM82.555 104.573C83.3 104.573 83.805 105.143 83.805 105.908C83.805 106.673 83.3 107.243 82.555 107.243C81.79 107.243 81.305 106.648 81.305 105.908C81.305 105.168 81.79 104.573 82.555 104.573ZM89.0425 103.358C88.4475 103.358 87.9825 103.563 87.6775 104.018V103.488H86.4125V108.333H87.7175V105.693C87.7175 104.973 88.1325 104.603 88.7375 104.603C89.0025 104.603 89.3125 104.663 89.5275 104.758L89.7225 103.463C89.5425 103.398 89.3225 103.358 89.0425 103.358ZM95.2157 103.488H93.9407V104.023C93.6207 103.628 93.1557 103.358 92.4907 103.358C91.1557 103.358 90.1457 104.453 90.1457 105.908C90.1457 107.363 91.1557 108.458 92.4907 108.458C93.1557 108.458 93.6257 108.188 93.9407 107.798V108.333H95.2157V103.488ZM92.7307 104.573C93.4757 104.573 93.9807 105.143 93.9807 105.908C93.9807 106.673 93.4757 107.243 92.7307 107.243C91.9657 107.243 91.4807 106.648 91.4807 105.908C91.4807 105.168 91.9657 104.573 92.7307 104.573ZM100.923 103.488H99.5483L98.4633 106.873L97.4283 103.488H96.0383L97.6783 108.333H99.1583L100.223 105.058L101.298 108.333H102.788L104.428 103.488H103.063L102.023 106.888L100.923 103.488Z" fill="white"/>
<path d="M22.112 14.2001H20.592L18.9867 19.9281L17.3173 14.2001H15.6693L14 19.9281L12.3947 14.2001H10.848L13.0773 21.6667H14.88L16.48 16.3334L18.08 21.6667H19.8827L22.112 14.2001ZM27.527 16.4987H26.167V17.0694C25.8257 16.6481 25.3297 16.3601 24.6203 16.3601C23.1963 16.3601 22.119 17.5281 22.119 19.0801C22.119 20.6321 23.1963 21.8001 24.6203 21.8001C25.3297 21.8001 25.831 21.5121 26.167 21.0961V21.6667H27.527V16.4987ZM24.8763 17.6561C25.671 17.6561 26.2097 18.2641 26.2097 19.0801C26.2097 19.8961 25.671 20.5041 24.8763 20.5041C24.0603 20.5041 23.543 19.8694 23.543 19.0801C23.543 18.2907 24.0603 17.6561 24.8763 17.6561ZM30.3831 13.9867H28.9911V21.6667H30.3831V13.9867ZM33.2373 13.9867H31.8453V21.6667H33.2373V13.9867ZM36.9928 16.3601C35.4461 16.3601 34.3794 17.4694 34.3794 19.0961C34.3794 20.7227 35.4781 21.8001 37.0621 21.8001C37.9314 21.8001 38.6781 21.5547 39.2648 21.0161L38.4488 20.1201C38.0754 20.4347 37.5901 20.6161 37.1421 20.6161C36.4861 20.6161 35.9634 20.2907 35.8141 19.5441H39.4781C39.4941 19.4267 39.5048 19.2347 39.5048 19.0747C39.4994 17.4641 38.4808 16.3601 36.9928 16.3601ZM36.9821 17.5601C37.5794 17.5601 37.9794 17.9334 38.1074 18.5947H35.8194C35.9421 17.9547 36.3261 17.5601 36.9821 17.5601ZM44.3342 16.4987H42.4622V14.9627H41.0702V16.4987H40.0728V17.7361H41.0702V19.7361C41.0702 21.0747 41.7262 21.8001 43.0062 21.8001C43.7422 21.8001 44.2648 21.5654 44.7182 21.2561L44.2062 20.1681C43.9235 20.3387 43.5662 20.5041 43.2355 20.5041C42.8035 20.5041 42.4622 20.2694 42.4622 19.6241V17.7361H44.3342V16.4987ZM48.3168 14.2001V21.6667H51.5488C53.3408 21.6667 54.3594 20.9627 54.3594 19.5281C54.3594 18.7227 53.7994 18.0827 53.1168 17.8534C53.7408 17.6241 54.1994 17.0214 54.1994 16.2694C54.1994 14.8454 53.1061 14.2001 51.3674 14.2001H48.3168ZM51.4741 18.5627C52.2954 18.5627 52.8128 18.7547 52.8128 19.4534C52.8128 20.1681 52.2954 20.3601 51.4741 20.3601L49.8048 20.3547V18.5627H51.4741ZM51.3248 15.5121C52.0608 15.5121 52.6474 15.6721 52.6474 16.3761C52.6474 17.1014 52.0714 17.2561 51.3301 17.2561H49.8048V15.5121H51.3248ZM60.6937 16.4987H59.3337V17.0694C58.9923 16.6481 58.4963 16.3601 57.787 16.3601C56.363 16.3601 55.2857 17.5281 55.2857 19.0801C55.2857 20.6321 56.363 21.8001 57.787 21.8001C58.4963 21.8001 58.9977 21.5121 59.3337 21.0961V21.6667H60.6937V16.4987ZM58.043 17.6561C58.8377 17.6561 59.3763 18.2641 59.3763 19.0801C59.3763 19.8961 58.8377 20.5041 58.043 20.5041C57.227 20.5041 56.7097 19.8694 56.7097 19.0801C56.7097 18.2907 57.227 17.6561 58.043 17.6561ZM63.5498 13.9867H62.1578V21.6667H63.5498V13.9867ZM70.0999 16.4987H68.7399V17.0694C68.3986 16.6481 67.9026 16.3601 67.1933 16.3601C65.7693 16.3601 64.6919 17.5281 64.6919 19.0801C64.6919 20.6321 65.7693 21.8001 67.1933 21.8001C67.9026 21.8001 68.4039 21.5121 68.7399 21.0961V21.6667H70.0999V16.4987ZM67.4493 17.6561C68.2439 17.6561 68.7826 18.2641 68.7826 19.0801C68.7826 19.8961 68.2439 20.5041 67.4493 20.5041C66.6333 20.5041 66.1159 19.8694 66.1159 19.0801C66.1159 18.2907 66.6333 17.6561 67.4493 17.6561ZM74.4387 16.3601C73.852 16.3601 73.2867 16.5574 72.9187 17.1067V16.4987H71.564V21.6667H72.956V18.8347C72.956 18.0561 73.452 17.6667 74.0493 17.6667C74.684 17.6667 75.0573 18.0774 75.0573 18.8241V21.6667H76.4493V18.3761C76.4493 17.1761 75.612 16.3601 74.4387 16.3601ZM80.2981 16.3601C78.6501 16.3601 77.5461 17.5174 77.5461 19.0801C77.5461 20.6481 78.6501 21.8001 80.2981 21.8001C81.1621 21.8001 81.8874 21.4534 82.3728 20.8294L81.3808 19.9814C81.0874 20.3014 80.7034 20.5041 80.2554 20.5041C79.5354 20.5041 78.9648 19.9441 78.9648 19.0801C78.9648 18.2214 79.5408 17.6561 80.2608 17.6561C80.7141 17.6561 81.0501 17.8374 81.3648 18.1734L82.3674 17.3361C81.8928 16.7121 81.1621 16.3601 80.2981 16.3601ZM85.5657 16.3601C84.019 16.3601 82.9523 17.4694 82.9523 19.0961C82.9523 20.7227 84.051 21.8001 85.635 21.8001C86.5043 21.8001 87.251 21.5547 87.8377 21.0161L87.0217 20.1201C86.6483 20.4347 86.163 20.6161 85.715 20.6161C85.059 20.6161 84.5363 20.2907 84.387 19.5441H88.051C88.067 19.4267 88.0777 19.2347 88.0777 19.0747C88.0723 17.4641 87.0537 16.3601 85.5657 16.3601ZM85.555 17.5601C86.1523 17.5601 86.5523 17.9334 86.6803 18.5947H84.3923C84.515 17.9547 84.899 17.5601 85.555 17.5601Z" fill="#282828"/>
<defs>
<linearGradient id="paint0_linear_8797_47060" x1="64.0703" y1="3.74301" x2="10.0284" y2="121.908" gradientUnits="userSpaceOnUse">
<stop stop-color="#FCFCFC"/>
<stop offset="1" stop-color="#FBFCFF"/>
</linearGradient>
<linearGradient id="paint1_linear_8797_47060" x1="137.468" y1="65.3333" x2="64.1041" y2="33.0144" gradientUnits="userSpaceOnUse">
<stop stop-color="#FFA847"/>
<stop offset="1" stop-color="#9461FA"/>
</linearGradient>
<linearGradient id="paint2_linear_8797_47060" x1="129.805" y1="105.333" x2="115.537" y2="75.6738" gradientUnits="userSpaceOnUse">
<stop stop-color="#FFA847"/>
<stop offset="1" stop-color="#9461FA"/>
</linearGradient>
</defs>
</svg>
