<svg width="80" height="80" viewBox="0 0 80 80" fill="none" xmlns="http://www.w3.org/2000/svg">
<path d="M40.475 70.95C57.3059 70.95 70.95 57.3059 70.95 40.475C70.95 23.6441 57.3059 10 40.475 10C23.6441 10 10 23.6441 10 40.475C10 57.3059 23.6441 70.95 40.475 70.95Z" fill="url(#paint0_radial_3796_29346)"/>
<path opacity="0.5" d="M40.475 70.95C57.3059 70.95 70.95 57.3059 70.95 40.475C70.95 23.6441 57.3059 10 40.475 10C23.6441 10 10 23.6441 10 40.475C10 57.3059 23.6441 70.95 40.475 70.95Z" fill="url(#paint1_radial_3796_29346)"/>
<path d="M33.8838 25.9604C33.7988 24.5004 32.438 23.65 30.1701 23.7775C28.2424 23.8768 24.0751 25.3934 21.4103 30.0426C20.9142 30.9073 21.7647 31.3183 22.275 30.7514C23.9617 28.8236 28.6393 26.2155 32.4097 26.499C33.9264 26.6124 33.8838 25.9604 33.8838 25.9604Z" fill="url(#paint2_linear_3796_29346)"/>
<path d="M30.5244 41.779C32.1449 41.779 33.4585 39.7927 33.4585 37.3425C33.4585 34.8922 32.1449 32.9059 30.5244 32.9059C28.904 32.9059 27.5903 34.8922 27.5903 37.3425C27.5903 39.7927 28.904 41.779 30.5244 41.779Z" fill="url(#paint3_radial_3796_29346)"/>
<path d="M30.5244 34.4083C31.786 34.4083 32.8774 35.4998 33.4585 37.1298C33.416 34.7344 32.1262 32.8066 30.5244 32.8066C28.9227 32.8066 27.6329 34.7344 27.5903 37.1298C28.1715 35.4998 29.2629 34.4083 30.5244 34.4083Z" fill="url(#paint4_linear_3796_29346)"/>
<path d="M50.4253 41.779C52.0458 41.779 53.3594 39.7927 53.3594 37.3425C53.3594 34.8922 52.0458 32.9059 50.4253 32.9059C48.8049 32.9059 47.4912 34.8922 47.4912 37.3425C47.4912 39.7927 48.8049 41.779 50.4253 41.779Z" fill="url(#paint5_radial_3796_29346)"/>
<path d="M47.066 26.0738C47.151 24.6138 48.5117 23.7634 50.7797 23.8909C52.7074 23.9902 56.8746 25.5068 59.5394 30.156C60.0355 31.0207 59.1851 31.4317 58.6748 30.8648C56.988 28.937 52.3105 26.3289 48.5401 26.6124C47.0234 26.7258 47.066 26.0738 47.066 26.0738Z" fill="url(#paint6_linear_3796_29346)"/>
<path d="M50.4253 34.5076C49.1638 34.5076 48.0724 35.599 47.4912 37.2291C47.5338 34.8336 48.8236 32.9059 50.4253 32.9059C52.027 32.9059 53.3169 34.8336 53.3594 37.2291C52.7783 35.6132 51.6869 34.5076 50.4253 34.5076Z" fill="url(#paint7_linear_3796_29346)"/>
<path d="M40.475 50.9499C51.2901 50.9499 54.7628 61.6516 51.4602 59.979C47.0378 57.7394 44.2312 57.5126 40.475 57.5126C36.7188 57.5126 33.9123 57.7253 29.4898 59.979C26.1872 61.6516 29.6599 50.9499 40.475 50.9499Z" fill="#643800"/>
<path d="M40.475 52.8493C46.8677 52.8493 50.8932 56.4496 52.6508 59.4404C52.75 57.2717 48.7812 50.9641 40.475 50.9641C32.1688 50.9641 28.2 57.2717 28.2992 59.4404C30.0568 56.4496 34.0823 52.8493 40.475 52.8493Z" fill="url(#paint8_linear_3796_29346)"/>
<defs>
<radialGradient id="paint0_radial_3796_29346" cx="0" cy="0" r="1" gradientUnits="userSpaceOnUse" gradientTransform="translate(34.479 28.1245) scale(36.7641)">
<stop stop-color="#FFDF30"/>
<stop offset="1" stop-color="#FFB82E"/>
</radialGradient>
<radialGradient id="paint1_radial_3796_29346" cx="0" cy="0" r="1" gradientUnits="userSpaceOnUse" gradientTransform="translate(34.479 28.1245) scale(28.924)">
<stop stop-color="#FFE95F"/>
<stop offset="1" stop-color="#FFBB47" stop-opacity="0"/>
</radialGradient>
<linearGradient id="paint2_linear_3796_29346" x1="27.6005" y1="28.7627" x2="27.3886" y2="24.916" gradientUnits="userSpaceOnUse">
<stop offset="0.00132565" stop-color="#3C2200"/>
<stop offset="1" stop-color="#7A4400"/>
</linearGradient>
<radialGradient id="paint3_radial_3796_29346" cx="0" cy="0" r="1" gradientUnits="userSpaceOnUse" gradientTransform="translate(29.635 37.4493) rotate(73.8539) scale(4.30589 2.78584)">
<stop offset="0.00132565" stop-color="#7A4400"/>
<stop offset="1" stop-color="#643800"/>
</radialGradient>
<linearGradient id="paint4_linear_3796_29346" x1="30.5252" y1="32.8772" x2="30.5252" y2="37.0131" gradientUnits="userSpaceOnUse">
<stop offset="0.00132565" stop-color="#3C2200"/>
<stop offset="1" stop-color="#512D00"/>
</linearGradient>
<radialGradient id="paint5_radial_3796_29346" cx="0" cy="0" r="1" gradientUnits="userSpaceOnUse" gradientTransform="translate(49.5353 37.45) rotate(73.8539) scale(4.30589 2.78584)">
<stop offset="0.00132565" stop-color="#7A4400"/>
<stop offset="1" stop-color="#643800"/>
</radialGradient>
<linearGradient id="paint6_linear_3796_29346" x1="53.3492" y1="28.8715" x2="53.5611" y2="25.0249" gradientUnits="userSpaceOnUse">
<stop offset="0.00132565" stop-color="#3C2200"/>
<stop offset="1" stop-color="#7A4400"/>
</linearGradient>
<linearGradient id="paint7_linear_3796_29346" x1="50.4246" y1="32.986" x2="50.4246" y2="37.1219" gradientUnits="userSpaceOnUse">
<stop offset="0.00132565" stop-color="#3C2200"/>
<stop offset="1" stop-color="#512D00"/>
</linearGradient>
<linearGradient id="paint8_linear_3796_29346" x1="40.4746" y1="48.1598" x2="40.4746" y2="56.6954" gradientUnits="userSpaceOnUse">
<stop offset="0.00132565" stop-color="#3C2200"/>
<stop offset="1" stop-color="#512D00"/>
</linearGradient>
</defs>
</svg>
